<svg width="706" height="499" viewBox="0 0 706 499" fill="none"
  xmlns="http://www.w3.org/2000/svg">
  <g filter="url(#filter0_d)">
    <path d="M43.0983 267.857C93.394 243.642 159.355 279.575 226.462 293.772C294.799 308.228 379.978 277.202 427.633 323.58C466.086 361.002 450.399 360.434 503.285 378.227C571.558 401.196 670.406 367.263 689.126 413.02C696.045 429.933 693.434 440.816 683.037 455.442C651.813 499.363 543.55 491.595 474.522 443.408C417.502 403.603 383.117 442.697 315.832 434.438C266.356 428.365 237.307 399.308 187.814 393.465C145.192 388.432 110.09 410.539 73.8409 393.315C40.5713 377.506 30.7096 370.689 19.5144 346.4C6.80164 318.819 10.3927 283.604 43.0983 267.857Z" fill="url(#paint0_linear)"/>
  </g>
  <path d="M463.771 378.031C462.032 376.167 460.425 374.46 459.083 372.749C458.28 371.043 459.485 368.56 461.361 367.937C463.237 367.319 465.382 368.402 466.72 369.955C468.061 371.508 468.596 373.526 469.134 375.702C469.668 377.873 471.142 382.224 470.07 384.707C468.061 382.689 465.784 380.36 463.771 378.031Z" fill="#7ADCFB"/>
  <path d="M451.044 373.061C451.177 373.061 451.177 372.907 451.313 372.907C453.723 371.201 456.937 371.666 458.95 373.837C460.557 375.548 462.163 377.408 463.77 379.119C466.317 381.913 468.462 384.242 470.202 386.102C467.791 387.813 457.608 383.619 454.929 382.689C452.518 381.913 449.839 380.825 449.301 378.031C448.766 376.013 449.57 374.149 451.044 373.061Z" fill="#7ADCFB"/>
  <path d="M429.069 381.29C430.141 375.548 431.346 369.648 432.821 363.748C434.966 362.814 437.376 362.502 439.786 362.66C440.992 362.814 442.2 362.972 443.137 363.748C445.145 364.989 445.952 367.784 445.816 370.113C445.547 376.632 440.325 381.755 435.5 385.949C431.881 389.054 429.069 392.314 426.658 392.936C427.594 389.054 428.398 385.172 429.069 381.29Z" fill="#7ADCFB"/>
  <path d="M419.288 364.055C419.424 362.195 419.557 360.331 420.496 358.778C422.236 355.984 426.121 355.054 428.937 356.76C431.078 358.002 432.419 360.177 432.821 362.66C430.945 369.025 429.74 375.548 428.535 381.913C427.864 385.637 427.193 389.366 426.791 393.09C426.791 393.248 426.791 393.555 426.659 393.713C426.39 394.024 425.855 394.024 425.586 393.713C423.979 392.471 423.039 389.831 422.369 387.967C419.958 380.202 418.886 371.977 419.288 364.055Z" fill="#7ADCFB"/>
  <path d="M447.159 394.796L447.826 370.578C447.826 367.937 447.963 365.143 446.89 362.502C446.219 360.796 445.014 359.401 443.676 358.778C442.467 358.155 440.993 358.155 439.386 358.467C437.108 358.932 434.565 360.177 433.895 362.66H434.16C434.698 360.331 437.245 359.089 439.386 358.624C440.993 358.313 442.467 358.467 443.54 358.932C444.881 359.554 445.954 360.796 446.621 362.502C447.561 364.989 447.561 367.937 447.424 370.424L446.757 394.643L447.159 394.796Z" fill="#86A2F8"/>
  <path d="M451.445 394.797H451.714L451.312 381.448H451.043L451.445 394.797Z" fill="#86A2F8"/>
  <path d="M444.079 346.355C445.284 343.561 446.758 341.543 449.169 342.008C449.169 341.855 450.51 342.008 450.51 341.855C450.643 341.855 450.776 342.008 450.912 342.008C460.288 344.96 471.275 352.255 478.646 360.642C478.646 360.796 478.646 360.796 478.646 360.796C470.873 361.726 462.566 360.485 454.797 360.177C451.045 360.02 446.891 359.708 444.613 355.984C442.87 353.343 442.737 349.461 444.079 346.355Z" fill="#7ADCFB"/>
  <path d="M451.579 341.855C451.313 341.701 450.912 341.701 450.643 341.543C450.643 338.595 451.177 335.643 453.591 334.555C454.395 334.248 455.198 334.09 456.001 334.248C462.031 335.178 467.121 339.99 471.006 345.89C473.018 349.461 475.83 353.808 477.437 358.155C477.573 358.778 477.172 359.243 476.77 358.778C469.535 351.325 460.022 344.802 451.579 341.855Z" fill="#7ADCFB"/>
  <path d="M461.36 389.984C457.073 390.142 438.181 390.761 434.429 390.919C434.027 390.919 433.895 391.226 433.895 391.695L436.976 405.978C436.976 406.289 437.245 406.443 437.51 406.443L456.403 406.289C456.672 406.289 456.804 406.131 456.937 405.82L461.894 390.607C462.031 390.296 461.762 389.984 461.36 389.984Z" fill="#26A4FB"/>
  <path d="M260.33 227.585C260.595 229.603 260.997 232.551 261.668 236.902L264.078 256.62C266.625 274.162 269.574 293.103 272.253 310.65C272.386 311.58 272.253 312.202 271.851 312.667C270.646 314.532 267.429 314.532 268.368 315.773C269.975 316.085 274.933 316.238 277.078 315.615C277.881 315.308 277.881 315.15 278.283 314.374C278.552 313.909 278.552 313.29 278.552 312.821C278.552 312.514 278.552 312.356 278.552 312.045C277.881 296.209 275.736 240.161 274.8 223.238L263.946 222.773L262.07 222.615C261.668 224.326 261.266 224.944 260.864 225.102C260.595 225.721 260.463 226.651 260.33 227.585Z" fill="#26A4FB"/>
  <path d="M280.692 234.262C280.961 240.315 281.897 246.373 282.837 252.273C285.649 271.368 288.465 290.467 291.41 309.408C291.41 309.562 291.41 309.715 291.41 309.873C291.546 311.737 291.277 313.29 293.021 313.909L296.503 315.15C297.978 315.773 299.585 316.238 301.192 315.927C301.593 315.773 301.995 315.615 302.131 315.15V314.997C302.131 314.843 301.995 314.685 301.995 314.532C301.862 314.374 301.73 314.22 301.73 314.22C300.923 313.597 300.255 313.132 299.717 312.667C298.645 311.891 297.978 311.268 297.841 309.097C297.576 306.921 297.44 304.75 297.307 302.574C296.503 288.914 297.038 275.096 296.769 261.274C296.636 250.409 295.7 239.539 295.298 228.673C295.029 220.755 286.855 216.097 282.701 223.392C280.559 226.497 280.559 230.533 280.692 234.262Z" fill="#26A4FB"/>
  <path d="M299.452 312.667C298.781 312.667 298.11 312.514 297.44 312.356C296.504 312.045 295.431 311.737 294.491 311.268C293.555 310.803 292.213 309.715 291.277 309.873C291.41 311.737 291.145 313.29 292.884 313.909L296.367 315.15C297.841 315.773 299.452 316.238 301.059 315.927C301.461 315.773 301.862 315.615 301.995 315.15C301.995 314.843 301.862 314.685 301.862 314.374L299.452 312.667Z" fill="#2300B1"/>
  <path d="M268.367 315.773C269.974 316.085 274.931 316.238 277.076 315.615C277.879 315.308 277.879 315.15 278.281 314.374C278.55 313.909 278.55 313.29 278.55 312.821C278.55 312.514 278.55 312.356 278.55 312.045H278.414L271.85 312.821C270.645 314.532 267.427 314.685 268.367 315.773Z" fill="#2300B1"/>
  <path d="M265.285 199.792C267.695 194.826 270.106 193.738 270.106 193.738L278.144 193.58L284.443 193.427C291.409 197.462 294.49 208.644 296.366 217.18C298.78 228.204 299.853 239.696 300.52 251.027C300.789 256.309 301.459 261.897 301.058 267.174C293.823 268.108 286.588 266.867 279.217 266.244C278.144 266.091 262.871 265.621 262.738 264.849C257.512 225.721 261.533 207.867 265.285 199.792Z" fill="#2300B1"/>
  <path d="M265.285 199.792C267.695 194.826 270.106 193.738 270.106 193.738L278.144 193.58L284.443 193.427C291.409 197.462 294.49 208.644 296.366 217.18C298.78 228.204 299.853 239.696 300.52 251.027C300.789 256.309 301.459 261.897 301.058 267.174C293.823 268.108 286.588 266.867 279.217 266.244C278.144 266.091 262.871 265.621 262.738 264.849C257.512 225.721 261.533 207.867 265.285 199.792Z" fill="#2300B1"/>
  <path d="M265.287 199.792C267.428 199.638 269.573 199.48 271.719 199.173C273.056 199.015 279.219 197.62 284.445 195.602C282.838 194.826 280.159 194.357 278.552 193.892C278.415 193.892 278.283 193.738 278.146 193.738L270.108 193.892C270.108 193.738 267.698 194.826 265.287 199.792Z" fill="#150077"/>
  <path d="M261.398 166.879C261.936 165.633 263.141 165.326 264.214 165.168C266.893 164.703 269.706 165.015 272.252 165.945C274.128 166.721 276.137 167.033 278.146 167.186C279.756 167.033 281.363 166.879 282.837 166.721C284.846 166.256 286.991 165.791 289.133 166.103C291.278 166.41 293.286 168.121 293.688 170.45C294.09 172.621 293.021 174.639 292.35 176.661C290.607 181.627 290.607 187.373 290.205 192.65C290.205 193.273 290.072 193.738 289.803 194.203C289.402 194.826 288.598 194.98 287.927 195.133C281.632 196.532 275.064 198.085 268.633 197.462C267.83 197.462 267.026 197.309 266.355 196.686C265.552 196.067 265.15 194.826 264.885 193.738C263.812 189.545 263.676 185.044 263.141 180.85C262.74 176.815 261.265 172.933 261.133 168.739C261.133 168.121 261.265 167.498 261.398 166.879Z" fill="#FFB1DF"/>
  <path d="M303.338 194.203C305.749 193.58 306.552 190.633 305.749 187.685C305.214 185.82 304.142 184.268 303.202 182.715C300.121 177.591 297.71 171.691 293.424 167.963C290.476 165.326 287.796 165.945 286.856 170.138C284.715 175.727 294.091 185.663 296.638 189.233C298.245 191.563 299.586 194.203 302.399 194.203C302.668 194.357 302.937 194.357 303.338 194.203Z" fill="#FFB1DF"/>
  <path d="M288.73 194.826H281.362C280.96 194.826 280.691 194.515 280.691 194.05V177.903C280.691 177.433 280.96 177.126 281.362 177.126H288.73C289.131 177.126 289.401 177.433 289.401 177.903V194.05C289.401 194.515 289.131 194.826 288.73 194.826Z" fill="#2300B1"/>
  <path d="M286.052 179.609C286.052 179.754 286.03 179.891 285.982 180.023C285.934 180.159 285.867 180.275 285.779 180.377C285.691 180.479 285.587 180.556 285.473 180.612C285.359 180.667 285.241 180.697 285.116 180.697C284.99 180.697 284.872 180.667 284.754 180.612C284.64 180.556 284.541 180.479 284.452 180.377C284.364 180.275 284.297 180.159 284.249 180.023C284.202 179.891 284.176 179.754 284.176 179.609C284.176 179.464 284.202 179.327 284.249 179.191C284.297 179.059 284.364 178.944 284.452 178.841C284.541 178.739 284.64 178.662 284.754 178.607C284.872 178.551 284.99 178.521 285.116 178.521C285.241 178.521 285.359 178.551 285.473 178.607C285.587 178.662 285.691 178.739 285.779 178.841C285.867 178.944 285.934 179.059 285.982 179.191C286.03 179.327 286.052 179.464 286.052 179.609Z" fill="white"/>
  <path d="M284.579 163.773H280.023C279.758 163.773 279.356 163.773 279.087 163.773C276.809 163.773 274.664 163.773 272.386 163.773C271.583 163.773 270.647 163.773 269.843 163.773C269.574 163.773 269.305 163.308 269.574 163.151C269.843 162.839 269.976 162.686 270.109 162.374C270.378 161.756 270.245 161.133 270.245 160.51C270.245 159.891 270.647 159.115 271.049 158.65C271.45 158.185 271.985 157.873 272.386 157.408C272.656 157.097 272.656 156.632 272.788 156.163C273.592 153.838 275.737 152.127 278.014 152.285C278.818 152.438 279.621 152.592 280.425 152.903C280.963 153.215 281.766 153.838 281.899 154.456C282.168 155.233 282.168 156.009 282.57 156.786C282.972 157.408 283.51 158.027 283.775 158.803C284.044 159.58 283.911 160.979 284.313 161.598C284.446 161.909 284.715 162.221 284.848 162.374C284.98 162.686 285.117 163.151 284.98 163.462C284.98 163.616 284.715 163.773 284.579 163.773Z" fill="#2300B1"/>
  <path d="M275.603 164.085L272.923 169.985C272.787 170.292 273.056 170.603 273.325 170.603L277.881 169.673L282.167 171.226C282.436 171.38 282.701 171.068 282.569 170.761L280.022 164.55L275.603 164.085Z" fill="white"/>
  <path d="M280.159 161.444V166.879C280.159 167.655 279.89 168.274 279.488 168.739C279.086 169.208 278.552 169.515 277.881 169.515C276.676 169.515 275.604 168.274 275.604 166.879V160.356L276.809 160.668L277.343 160.821L280.159 161.444Z" fill="#26A4FB"/>
  <path d="M276.809 159.268V160.045C276.809 160.51 276.941 160.979 276.941 161.444C277.343 163.151 278.552 164.392 280.022 164.703V159.891L277.479 159.268H276.809Z" fill="#150077"/>
  <path d="M279.087 156.009L278.552 158.492C278.416 159.268 277.745 159.738 277.078 159.58L275.869 159.268L276.006 155.698L278.014 155.856L279.087 156.009Z" fill="#2300B1"/>
  <path d="M277.479 159.891L276.941 161.756C276.808 162.374 276.005 162.839 275.201 162.686L275.736 159.268L277.479 159.891Z" fill="#150077"/>
  <path d="M277.427 159.789C277.504 159.925 277.556 160.079 277.582 160.241C277.608 160.399 277.604 160.561 277.574 160.723C277.545 160.885 277.49 161.035 277.412 161.171C277.331 161.303 277.232 161.419 277.11 161.508C276.992 161.598 276.863 161.657 276.723 161.687C276.583 161.717 276.443 161.713 276.307 161.679C276.166 161.645 276.037 161.581 275.92 161.491C275.802 161.397 275.706 161.282 275.628 161.141C275.551 161.005 275.499 160.855 275.474 160.693C275.448 160.531 275.448 160.369 275.481 160.207C275.51 160.045 275.562 159.896 275.643 159.763C275.724 159.627 275.824 159.512 275.945 159.422C276.063 159.332 276.192 159.273 276.332 159.243C276.472 159.213 276.612 159.217 276.749 159.251C276.889 159.286 277.018 159.35 277.136 159.443C277.254 159.537 277.35 159.652 277.427 159.789Z" fill="#150077"/>
  <path d="M280.424 158.961C280.56 158.961 280.56 158.803 280.56 158.803C280.56 158.65 280.424 158.65 280.424 158.65C280.291 158.65 280.291 158.803 280.291 158.803L280.424 158.961Z" fill="#150077"/>
  <path d="M280.829 161.756V161.598C280.56 161.598 280.424 161.444 280.291 161.286L280.158 161.444C280.424 161.598 280.56 161.756 280.829 161.756Z" fill="#150077"/>
  <path d="M273.997 159.426C274.262 158.803 274.8 158.338 275.468 158.338C276.006 158.338 276.54 158.803 277.078 158.803C278.014 158.65 278.416 157.562 278.954 156.786C279.356 156.163 280.292 155.233 281.096 155.544C281.232 155.544 281.365 155.698 281.365 155.698L281.497 158.027C281.497 158.185 281.497 158.338 281.497 158.338V162.063C281.497 162.221 281.497 162.374 281.365 162.532C281.365 162.839 281.232 163.308 280.963 163.462C280.83 163.616 280.561 163.773 280.292 163.773C279.621 163.927 277.745 163.773 276.676 163.773V165.326H275.335V161.444C274.933 161.444 274.531 161.286 274.262 160.979C273.997 160.979 273.861 160.203 273.997 159.426Z" fill="#26A4FB"/>
  <path d="M282.838 159.738C282.838 159.921 282.805 160.1 282.746 160.271C282.683 160.442 282.598 160.591 282.484 160.723C282.37 160.855 282.241 160.958 282.093 161.026C281.946 161.099 281.791 161.133 281.633 161.133C281.471 161.133 281.316 161.099 281.168 161.026C281.021 160.954 280.892 160.855 280.778 160.723C280.667 160.591 280.579 160.442 280.516 160.271C280.457 160.1 280.424 159.921 280.424 159.738C280.424 159.55 280.457 159.371 280.516 159.2C280.579 159.03 280.667 158.88 280.778 158.748C280.892 158.616 281.021 158.518 281.168 158.445C281.316 158.373 281.471 158.338 281.633 158.338C281.791 158.338 281.946 158.373 282.093 158.445C282.241 158.518 282.37 158.616 282.484 158.748C282.598 158.88 282.683 159.03 282.746 159.2C282.805 159.371 282.838 159.55 282.838 159.738Z" fill="#26A4FB"/>
  <path d="M277.88 159.115C278.013 159.115 278.146 158.961 278.146 158.803C278.146 158.65 278.013 158.492 277.88 158.492C277.744 158.492 277.611 158.65 277.611 158.803C277.611 158.961 277.744 159.115 277.88 159.115Z" fill="#150077"/>
  <path d="M278.55 161.598C278.683 161.598 278.815 161.598 278.952 161.444L278.815 161.133C278.683 161.286 278.55 161.286 278.413 161.133C278.281 161.133 278.281 160.979 278.281 160.821H278.012C278.012 160.979 278.144 161.286 278.281 161.286C278.413 161.444 278.413 161.598 278.55 161.598Z" fill="#150077"/>
  <path d="M279.219 160.356H279.757V157.873H279.62V160.045H279.219V160.356Z" fill="#150077"/>
  <path d="M280.424 158.961C280.56 158.961 280.693 158.803 280.693 158.65C280.693 158.492 280.56 158.338 280.424 158.338C280.291 158.338 280.158 158.492 280.158 158.65C280.291 158.803 280.291 158.961 280.424 158.961Z" fill="#150077"/>
  <path d="M303.199 188.615C299.045 186.908 294.225 184.579 289.802 184.11C289.4 184.11 288.866 184.11 288.464 184.11C286.853 184.11 285.246 184.421 283.909 185.044C283.64 185.198 283.238 185.355 283.105 185.663C282.969 185.82 283.105 185.974 283.238 185.82C284.712 185.355 286.186 185.198 287.661 185.198C287.793 185.198 287.793 185.355 287.793 185.355C287.793 185.509 287.661 185.509 287.661 185.509C286.186 185.355 284.576 185.663 283.105 186.132L282.969 186.285V186.439C282.969 186.597 283.105 186.597 283.105 186.597C284.443 186.132 285.917 186.132 287.661 186.285C287.793 186.285 287.793 186.439 287.793 186.439C287.793 186.597 287.661 186.597 287.661 186.597C286.05 186.439 284.576 186.597 283.238 186.908C283.105 186.908 283.105 187.062 283.105 187.062C283.105 187.215 283.238 187.215 283.238 187.373C283.238 187.373 283.37 187.527 283.37 187.373C284.712 187.062 286.319 186.908 287.524 187.215C287.661 187.215 287.661 187.373 287.661 187.373C287.661 187.527 287.524 187.527 287.524 187.527C286.319 187.215 284.977 187.373 283.772 187.68C283.64 187.68 283.64 187.838 283.772 187.992C284.174 188.303 284.712 187.992 285.114 187.992C289.131 188.15 292.481 190.321 296.101 192.497C298.242 193.738 300.387 194.826 302.665 194.668C303.468 194.668 304.272 194.357 304.942 193.892C305.613 193.273 306.015 192.339 305.879 191.255C305.746 189.856 304.408 189.08 303.199 188.615Z" fill="#26A4FB"/>
  <path d="M269.302 111.45C260.461 105.704 231.654 100.115 225.76 90.491C214.372 72.1683 221.205 46.5506 237.551 31.9564C273.187 0.127285 362.287 -2.35556 330.934 72.6333C324.771 87.5389 311.908 99.0274 297.575 103.067C282.033 107.414 297.575 129.926 295.699 139.239C288.729 134.739 283.909 120.921 269.302 111.45Z" fill="#FFB1DF"/>
  <path d="M250.949 194.203C250.813 194.203 250.68 194.203 250.68 194.357C249.744 194.668 248.535 194.98 247.732 194.203C246.526 193.115 247.065 191.098 247.732 189.545C250.411 183.491 253.36 177.591 256.577 171.845C257.513 169.985 258.586 168.274 260.06 166.879C261.534 165.633 263.543 164.861 265.286 165.791C267.966 167.033 267.966 170.761 267.026 173.398C266.757 174.02 259.522 185.974 255.906 191.874C255.774 193.115 252.154 193.892 250.949 194.203Z" fill="#FFB1DF"/>
  <path d="M246.929 191.874C246.797 190.633 247.066 189.545 247.733 188.615C248.673 187.527 250.011 187.215 251.352 187.685C252.557 187.992 253.763 188.926 254.702 189.856C257.514 192.497 259.523 195.756 262.339 198.397C264.886 200.88 267.967 202.744 270.646 205.073C272.121 206.315 273.86 207.402 275.202 208.955C275.467 209.262 275.736 209.732 276.138 210.197C277.078 211.592 277.881 213.302 278.283 214.855C278.416 215.162 278.552 215.627 278.416 215.939C278.416 216.097 278.283 216.097 278.147 215.939C277.612 214.386 276.809 212.991 275.736 211.592H275.604V211.75C276.676 213.145 277.48 214.544 278.014 216.25V216.404C278.014 216.404 277.881 216.404 277.881 216.562H277.745C277.21 215.162 276.407 213.767 275.202 212.215C275.202 212.215 275.065 212.057 275.065 212.215V212.368C276.138 213.767 276.941 215.162 277.48 216.562C277.48 216.715 277.48 216.715 277.343 216.715C277.21 216.715 277.21 216.715 277.078 216.715C277.078 216.715 276.941 216.715 276.941 216.562C276.274 215.162 275.467 213.61 274.531 212.526H274.398V212.68C275.202 213.61 276.005 215.009 276.676 216.25C276.676 216.404 276.676 216.562 276.54 216.404C276.138 216.25 275.869 215.474 275.604 215.162C275.202 214.544 274.8 214.079 274.262 213.61C272.788 212.215 270.912 211.127 269.441 209.732C266.758 206.933 263.142 205.538 259.792 203.985C256.98 202.586 254.301 200.726 251.887 198.397C250.412 196.844 248.404 195.603 247.467 193.427C247.066 193.115 246.929 192.497 246.929 191.874Z" fill="#26A4FB"/>
  <path d="M260.639 317.464H317.044V317.775H260.639V317.464Z" fill="#26A4FB"/>
  <path d="M218.166 231.452H13.9745C9.01733 231.452 5 226.793 5 221.047V111.746C5 106 9.01733 101.341 13.9745 101.341H218.166C223.123 101.341 227.144 106 227.144 111.746V221.047C227.007 226.793 222.99 231.452 218.166 231.452Z" fill="#C0EAFF"/>
  <path d="M142.6 175.558H160.151V195.276H142.6V175.558Z" fill="#FFDE17"/>
  <path d="M109.104 120.906H126.654V140.623H109.104V120.906Z" fill="#80A5F8"/>
  <path d="M151.844 121.993H169.398V141.711H151.844V121.993Z" fill="#E2FBFF"/>
  <path d="M132.818 165.93C132.686 165.153 132.686 165.465 132.686 165.153C132.686 165 132.686 165 132.686 164.846C132.686 164.688 132.818 164.688 132.818 164.846C132.955 165 133.087 165.153 133.22 165.311C134.16 166.241 134.963 167.171 135.767 167.794H135.899H136.036C136.036 167.64 136.036 167.64 136.036 167.482C135.232 166.864 134.429 165.93 133.622 165C133.489 164.846 133.356 164.688 133.087 164.535C132.955 164.377 132.955 164.223 132.955 164.07C133.087 163.758 133.356 163.758 133.489 163.912C133.622 164.07 133.758 164.223 133.891 164.377C134.831 165.311 135.767 166.399 136.57 166.864C136.57 166.864 136.57 166.864 136.707 166.864C136.707 166.864 136.839 166.864 136.839 166.706C136.839 166.552 136.839 166.552 136.839 166.399C136.036 165.93 135.096 164.846 134.292 163.912C134.027 163.758 133.891 163.447 133.758 163.293C133.622 163.135 133.622 162.824 133.758 162.67C133.891 162.517 134.16 162.517 134.292 162.67C135.365 163.758 136.438 164.846 137.51 165.93H137.643H137.775C137.775 165.776 137.775 165.776 137.775 165.622C136.707 164.535 135.498 163.447 134.429 162.205C134.292 162.047 134.429 161.894 134.429 161.894C134.562 161.894 134.694 161.74 134.694 161.74C135.365 161.74 136.168 162.67 136.57 163.135C137.374 163.912 138.715 165 140.322 166.087C140.189 166.087 140.053 162.824 140.322 162.824C140.455 162.824 140.591 162.982 140.591 163.135C140.591 163.293 140.724 163.447 140.724 163.6C140.857 164.846 141.262 166.087 141.796 167.175C142.331 168.105 144.609 170.588 145.279 171.364L145.412 171.522C145.817 172.299 145.147 173.694 143.805 174.624C142.869 175.247 145.412 179.129 144.878 178.817C149.835 182.388 144.207 178.352 144.207 178.352C144.207 178.352 141.262 175.247 141.126 175.093C140.993 174.935 140.857 174.935 140.724 174.624C140.724 174.624 140.724 174.624 140.724 174.47C139.25 172.764 137.775 171.053 136.168 169.5C134.292 168.105 132.955 166.241 132.818 165.93Z" fill="#FF90C8"/>
  <path d="M204.23 306.599L205.572 311.722H211.867L211.465 302.405L204.23 306.599Z" fill="#FF90C8"/>
  <path d="M172.21 301.629L170.065 317.464L162.697 316.846L166.449 293.557L172.21 301.629Z" fill="#FF90C8"/>
  <path d="M155.594 315.604H171.538V317.464H155.594V315.604Z" fill="#8869B9"/>
  <path d="M195.659 213.129C195.659 213.594 195.523 214.217 195.39 214.682C193.783 223.841 190.301 231.917 187.621 240.3C186.681 243.405 185.745 246.511 185.207 249.928C183.331 260.175 180.921 270.422 179.446 280.358C178.241 288.434 178.51 295.106 175.429 302.716C174.758 304.269 174.087 305.822 172.882 306.752C171.942 307.375 170.874 307.529 169.665 307.529C161.626 307.217 161.494 303.958 162.566 294.952C163.502 287.346 163.502 279.735 164.575 272.287C167.387 251.323 172.882 219.187 175.694 206.764C177.57 198.535 181.857 192.481 188.156 195.276C189.899 196.052 191.638 196.829 193.113 198.381C193.245 198.535 193.514 198.846 193.647 199L193.783 199.158C194.318 199.934 194.72 200.864 195.121 201.794C196.33 205.211 196.061 209.405 195.659 213.129Z" fill="#8C66B9"/>
  <path d="M186.411 234.4C186.411 235.023 186.411 235.641 186.411 236.264C186.278 239.835 186.009 234.558 186.411 234.4Z" fill="#2E7DFB"/>
  <path d="M214.145 304.734C214.012 305.199 213.879 305.511 213.478 305.822C212.94 306.287 212.136 306.599 211.465 306.752C208.119 307.682 204.098 308.305 201.82 305.199C200.077 302.87 199.41 299.764 198.606 296.97C198.47 296.352 198.201 295.729 198.068 295.264C196.329 289.052 194.987 282.064 193.914 277.875C193.914 277.717 193.914 277.717 193.914 277.564C193.782 276.941 193.645 276.322 193.513 275.857C191.637 268.558 189.359 250.858 187.752 240.3C187.483 238.44 187.218 236.887 186.949 235.488C186.812 234.558 186.68 234.246 186.547 234.246C186.68 226.64 186.949 219.187 187.081 211.576C187.081 210.023 187.081 208.471 187.081 206.918C187.081 201.794 191.102 201.018 195.256 201.641C196.594 201.794 197.799 202.106 199.008 202.417C200.615 202.882 202.222 203.659 203.427 204.9C204.769 206.453 205.303 209.87 205.705 212.818C205.841 213.906 205.974 214.84 206.106 215.616C206.106 215.923 206.243 216.081 206.243 216.393C209.995 233.47 207.982 252.876 209.055 269.8C209.589 279.428 212.405 288.122 213.478 297.593C213.478 297.904 213.478 298.212 213.61 298.523C213.478 300.387 214.55 303.028 214.145 304.734Z" fill="#8C66B9"/>
  <path d="M204.767 309.546L197.933 313.275C196.994 313.74 196.327 314.67 196.592 315.911H212.403L212.002 311.099H206.643L204.767 309.546Z" fill="#26A4FB"/>
  <path d="M196.461 315.911H212.405V317.776H196.461V315.911Z" fill="#8869B9"/>
  <path d="M154.256 317.153H221.917V317.776H154.256V317.153Z" fill="#26A4FB"/>
  <path d="M197.534 158.012C197.667 157.858 197.667 157.858 197.534 158.012C198.872 153.511 196.594 152.888 193.915 151.647C192.039 150.717 187.351 147.611 185.607 147.765C184.402 147.923 184 149.94 184.671 151.182C185.342 152.423 186.547 153.046 187.483 153.665C190.432 155.682 188.688 160.03 191.637 162.205C192.577 162.982 193.782 165.153 194.854 164.377C195.389 163.912 196.192 161.582 196.461 160.964C196.863 159.876 197.265 158.946 197.534 158.012Z" fill="#150077"/>
  <path d="M194.853 160.03L197.533 168.724C197.533 170.434 193.512 170.277 191.772 170.277C190.029 170.277 188.555 168.882 188.555 167.171V159.876H194.853V160.03Z" fill="#FF90C8"/>
  <path d="M192.979 160.03V160.652C192.979 161.117 192.843 161.582 192.71 161.894C192.176 163.6 190.432 164.846 188.424 165V160.03H192.979Z" fill="#150077"/>
  <path d="M187.349 159.876L188.554 153.665C188.554 153.511 188.687 153.353 188.687 153.2L195.656 154.906C195.656 155.064 195.656 155.217 195.656 155.375L194.717 160.499C194.717 160.806 194.584 160.964 194.717 161.275C194.584 161.275 194.584 161.429 194.451 161.429C194.315 161.429 194.182 161.429 194.049 161.275C193.11 162.205 190.298 163.758 188.422 162.982C187.349 162.517 187.216 161.117 187.349 159.876Z" fill="#FF90C8"/>
  <path d="M191.904 153.2L192.173 156.459C192.306 157.547 193.109 158.323 194.049 158.17L195.789 158.012L196.327 153.353L193.511 153.046L191.904 153.2Z" fill="#150077"/>
  <path d="M193.242 158.788L193.511 161.429C193.644 162.359 194.451 162.982 195.656 163.135V158.477L193.242 158.788Z" fill="#150077"/>
  <path d="M193.513 161.117C194.184 161.74 195.12 161.74 195.658 160.964C196.193 160.187 196.193 159.1 195.522 158.477C194.855 157.858 193.915 157.858 193.381 158.635C192.842 159.411 192.842 160.499 193.513 161.117Z" fill="#150077"/>
  <path d="M189.496 156.77C189.359 156.77 189.227 156.617 189.227 156.459C189.227 156.305 189.359 156.147 189.496 156.305C189.628 156.305 189.761 156.459 189.761 156.617C189.761 156.77 189.628 156.77 189.496 156.77Z" fill="#150077"/>
  <path d="M188.153 155.994L187.482 158.17C187.482 158.323 187.482 158.477 187.619 158.477L188.153 158.635L188.688 155.529L188.153 155.994Z" fill="#FF90C8"/>
  <path d="M193.245 160.806C193.916 161.429 194.855 161.429 195.39 160.652C195.924 159.876 195.924 158.788 195.257 158.169C194.586 157.547 193.647 157.547 193.112 158.323C192.578 159.099 192.578 160.187 193.245 160.806Z" fill="#FF90C8"/>
  <path d="M187.35 160.652C187.482 160.652 187.619 160.652 187.751 160.652C188.286 160.499 188.687 160.03 188.687 159.565C188.422 159.722 188.02 159.876 187.751 159.876C187.619 159.876 187.482 159.876 187.35 159.722V160.652Z" fill="white"/>
  <path d="M205.572 213.129C202.222 213.287 199.008 213.287 195.658 213.129C192.709 212.976 189.761 212.664 186.949 211.734C185.744 211.423 184.402 210.958 183.197 210.335C182.124 209.87 181.59 209.247 181.453 208.471C181.188 207.387 181.723 206.141 182.526 204.746C184.402 201.641 187.483 199.623 190.833 198.535C191.637 198.381 192.44 198.224 193.111 198.224C193.244 198.381 193.513 198.693 193.646 198.846L193.782 199C194.316 199.776 194.718 200.711 195.12 201.641C196.461 201.794 197.667 202.106 198.872 202.417C200.479 202.882 202.089 203.659 203.294 204.9C204.5 206.764 205.17 210.181 205.572 213.129Z" fill="#150077"/>
  <path d="M174.62 172.299C174.889 171.053 175.021 169.969 175.427 168.724C175.961 167.329 176.632 165.93 177.701 165.153C180.248 163.293 184.401 164.07 187.081 165.311C190.7 166.864 193.243 167.329 197.131 166.864C200.478 166.552 204.097 166.552 207.178 168.57C210.127 170.434 212.405 174.624 211.465 178.506L209.589 177.576C209.456 181.458 208.52 185.182 207.58 188.911C206.375 193.569 205.033 198.07 204.632 203.04C204.499 205.211 206.375 207.541 204.901 208.782C204.499 209.094 204.097 209.405 203.563 209.559C202.892 209.87 202.089 209.87 201.285 209.87C196.059 210.181 187.751 210.024 182.525 209.559C179.444 209.247 175.828 208.471 174.62 205.211C174.218 203.97 174.218 202.571 174.085 201.329C174.354 191.705 173.013 181.458 174.62 172.299Z" fill="white"/>
  <path d="M184.403 166.241C184.002 163.135 177.703 164.377 176.096 164.999C173.416 166.087 170.737 168.105 169.13 170.899C166.985 174.317 163.904 177.111 160.019 177.111C159.216 177.111 158.412 176.953 157.609 176.646C157.34 176.646 157.071 176.488 156.669 176.488C154.259 176.023 151.845 174.935 149.703 173.694C148.498 173.071 147.425 171.987 146.486 171.053C146.084 170.899 145.819 170.746 145.413 170.746C145.28 170.746 145.148 170.746 145.148 170.746C143.943 172.917 142.332 174.47 142.199 177.111C142.734 178.352 144.746 180.217 145.682 181.147C150.908 186.893 158.011 189.994 165.109 188.599C170.873 187.358 176.096 183.787 180.117 178.817C182.796 175.247 185.074 170.746 184.403 166.241Z" fill="white"/>
  <path d="M206.91 218.875C206.91 218.718 207.047 218.718 207.047 218.718C206.91 218.875 206.91 218.875 206.91 218.875Z" fill="#FF90C8"/>
  <path d="M196.193 171.522L197.667 167.329H197.398L196.06 170.899L192.577 166.706L188.958 169.658L188.423 165.93H188.154L188.689 170.277L192.577 167.017L196.193 171.522Z" fill="#C0F3FF"/>
  <path d="M177.701 177.111L177.838 175.4L184.269 176.334L184.133 178.041L177.701 177.111ZM178.107 175.869L177.97 176.953L183.867 177.729L184 176.646L178.107 175.869Z" fill="white"/>
  <path d="M145.949 181.458C147.689 179.129 149.163 176.799 150.505 174.159C150.637 174.005 150.637 173.847 150.774 173.694C150.637 173.694 150.637 173.54 150.505 173.54C150.372 173.694 150.372 173.847 150.235 174.005C149.163 176.177 147.825 178.352 146.484 180.217C146.218 180.524 145.949 180.835 145.816 181.147L145.949 181.458Z" fill="#C0F3FF"/>
  <path d="M205.17 208.629C204.768 208.94 204.367 209.247 203.828 209.405C203.965 208.94 203.696 208.317 203.427 207.852C203.025 207.387 202.491 207.076 202.222 206.611C201.953 206.141 201.953 205.676 201.82 205.369C201.687 204.435 201.551 203.347 201.551 202.417C201.551 200.246 202.354 198.224 202.623 196.052C202.892 194.034 202.756 191.859 202.756 189.687C202.892 185.805 203.696 181.769 205.303 178.352C206.106 181.923 207.046 185.494 207.85 188.911C206.644 193.569 205.303 198.07 204.901 203.04C204.632 204.9 206.644 207.387 205.17 208.629Z" fill="#E8F1F9"/>
  <path d="M212.137 231.763C212.137 231.452 212.273 231.294 212.273 230.987C212.539 229.123 212.808 227.258 213.077 225.394C214.684 225.706 216.291 226.328 217.898 226.947C217.363 228.5 216.829 229.899 216.56 231.452C216.423 232.228 216.291 232.847 216.291 233.623C216.158 235.641 215.487 237.506 215.354 239.523C215.354 240.146 215.354 240.765 215.354 241.388C215.354 241.853 215.62 242.318 215.487 242.787C215.487 242.94 215.354 242.94 215.218 242.787C214.816 241.541 214.551 240.3 214.551 239.058C214.551 238.905 214.551 238.905 214.415 238.905C214.282 238.905 214.282 238.905 214.282 239.058C214.282 240.458 214.551 242.01 214.953 243.252V243.405C214.953 243.405 214.816 243.563 214.684 243.563H214.551C214.146 242.318 213.744 240.923 213.744 239.212C213.744 239.058 213.611 239.058 213.611 239.058C213.478 239.058 213.478 239.058 213.478 239.212C213.611 240.923 213.88 242.475 214.415 243.717C214.415 243.717 214.415 243.87 214.282 243.87H214.146H214.013C213.342 242.475 213.077 240.923 212.94 239.37C212.94 239.212 212.808 239.212 212.808 239.212C212.675 239.212 212.675 239.212 212.675 239.37C212.808 240.923 213.077 242.318 213.611 243.717C213.611 243.87 213.611 243.87 213.478 243.87C213.342 243.717 213.077 243.405 212.94 243.094C212.27 241.699 211.868 240.146 211.603 238.593C211.603 238.128 211.466 237.663 211.466 237.194C211.333 235.641 211.868 233.623 212.137 231.763Z" fill="#FF90C8"/>
  <path d="M206.778 168.105C207.047 168.259 207.179 168.417 207.449 168.57C216.158 174.782 220.846 186.893 222.051 198.381C223.124 208.471 221.649 219.963 217.765 229.123C217.632 229.276 217.632 229.588 217.363 229.741C217.094 229.899 216.828 230.053 216.559 230.053C212.94 228.965 212.273 229.741 212.273 226.482C212.273 222.911 213.209 219.806 213.076 216.393C212.94 212.353 212.538 208.317 211.868 204.435C210.662 196.671 208.385 189.064 205.171 182.077C203.697 178.817 199.41 172.299 202.222 169.035C202.893 168.259 203.697 167.64 204.633 167.482C205.44 167.329 206.107 167.64 206.778 168.105Z" fill="white"/>
  <path d="M219.372 224.776V224.464L212.539 223.223V223.534C213.612 223.841 216.291 224.464 219.372 224.776Z" fill="#C0F3FF"/>
  <path d="M157.068 313.117C156.132 313.582 155.461 314.516 155.73 315.758H171.537L171.136 310.946H165.777L163.901 309.393L157.068 313.117Z" fill="#26A4FB"/>
  <path d="M59.7969 130.999H77.3478V150.717H59.7969V130.999Z" fill="#E2FBFF"/>
  <path d="M102.139 185.805H119.69V205.523H102.139V185.805Z" fill="#FFB1DF"/>
  <path d="M88.0697 104.293C76.5447 96.0642 73.3308 78.5179 72.5274 62.8359C71.8566 50.2638 72.2583 36.5996 78.5534 26.1947C89.0058 8.65263 127.056 -3.45872 144.342 0.888394C152.111 2.75266 157.47 10.9819 161.355 19.2111C167.786 32.7175 185.742 78.8293 174.888 93.1121C154.658 119.818 123.304 112.365 96.9115 114.229C86.1937 115.006 76.143 118.888 66.3613 123.077C68.5064 121.059 86.4591 103.206 88.0697 104.293Z" fill="#26A4FB"/>
  <path d="M436.958 149.32C447.141 149.32 464.427 149.013 469.786 137.213C479.299 116.096 480.102 84.1136 464.829 68.278C452.099 54.9252 426.778 52.9073 409.629 52.4381C395.826 52.1309 380.686 56.0088 372.378 68.743C366.618 77.5908 365.144 89.2371 365.28 100.261C365.28 108.178 366.083 116.408 369.566 123.238C373.049 130.379 379.079 135.503 385.241 139.543C400.651 149.478 417.129 149.167 426.377 164.384C432.137 155.843 426.377 149.32 436.958 149.32Z" fill="#1EB3FB"/>
  <path d="M336.743 151.342C336.607 153.36 337.41 155.69 337.679 157.55C337.812 158.326 337.812 158.949 337.812 159.725C337.547 162.055 335.402 163.142 333.795 162.208C331.919 161.278 331.65 158.172 331.384 155.997C330.979 153.36 328.568 145.596 330.043 143.425C330.713 144.82 330.846 146.526 331.384 148.079C331.384 148.079 331.384 148.237 331.517 148.237H331.65C331.786 148.237 331.786 148.079 331.786 147.925C331.384 146.837 331.115 145.442 330.713 144.043C330.713 143.732 330.577 143.425 330.577 143.267C330.577 143.113 330.577 142.802 330.713 142.802C330.979 142.648 331.248 142.802 331.248 143.113C331.248 143.42 331.384 143.578 331.384 143.89C331.786 145.442 332.188 146.995 332.589 147.925C332.589 147.925 332.589 147.925 332.722 148.079H332.855C332.991 148.079 332.991 147.925 332.855 147.772C332.453 146.837 332.051 145.285 331.65 143.732C331.517 143.425 331.517 143.113 331.384 142.802C331.384 142.648 331.384 142.337 331.65 142.179C331.786 142.025 332.051 142.179 332.188 142.49C332.589 144.197 333.124 145.907 333.526 147.614C333.526 147.614 333.526 147.772 333.662 147.772H333.795C333.927 147.772 333.927 147.614 333.927 147.46C333.393 145.75 332.991 143.89 332.453 142.179C332.453 142.025 332.453 141.872 332.589 141.872C332.722 141.872 332.855 141.872 332.855 142.025C333.393 142.337 333.662 143.89 333.927 144.508C334.329 145.75 335.133 147.614 335.94 149.632C335.803 149.478 337.145 146.372 337.41 146.526C337.547 146.684 337.547 146.837 337.547 146.995C337.547 147.149 337.547 147.302 337.41 147.46C336.876 148.548 336.743 149.943 336.743 151.342Z" fill="#FDC5B6"/>
  <path d="M380.42 194.967C382.83 192.331 381.757 187.984 379.616 185.654C379.078 185.189 378.544 184.566 377.74 184.101C375.061 182.391 371.976 181.926 368.895 181.461C361.66 180.373 353.087 179.289 347.057 174.166C342.635 170.437 340.088 161.743 337.545 156.308C335.131 156.466 333.391 156.62 331.113 157.085C332.588 162.673 332.989 168.419 334.998 173.854C336.07 176.96 337.143 180.066 338.75 182.702C341.028 186.742 344.378 190.155 347.728 192.949C350.942 195.436 355.228 196.055 358.98 196.831C362.732 197.608 366.484 198.384 370.236 198.231C373.317 198.073 378.142 197.608 380.42 194.967Z" fill="#7ADCFB"/>
  <path d="M333.793 153.979C333.255 151.961 334.062 149.632 335.669 148.702L335.934 149.32C334.597 150.097 333.926 152.119 334.327 153.825L333.793 153.979Z" fill="#F7903C"/>
  <path d="M391.539 313.431L398.103 336.878H405.205L402.526 316.384L391.539 313.431Z" fill="#FDC5B6"/>
  <path d="M375.462 318.401L371.843 343.243L363.535 342.624L367.822 316.384L375.462 318.401Z" fill="#FDC5B6"/>
  <path d="M364.878 334.237L357.242 338.431C356.169 338.896 355.366 339.983 355.767 341.378H373.451L372.917 336.101H366.887L364.878 334.237Z" fill="#FF4D76"/>
  <path d="M355.498 341.225H373.451V343.243H355.498V341.225Z" fill="#2300B1"/>
  <path d="M384.437 224.936C384.304 224.467 384.035 224.002 383.766 223.537C380.552 217.483 371.574 217.326 368.228 223.383C366.753 226.02 366.352 229.125 366.083 232.231C364.074 250.396 362.6 268.561 361.929 286.73C361.66 296.043 361.258 303.031 361.527 312.348C361.66 316.384 360.322 324.766 362.062 328.495C364.074 332.684 369.296 331.601 373.719 331.131C374.924 330.978 375.864 329.89 375.864 328.495C375.864 318.09 378.544 279.431 379.078 275.549C380.151 265.925 381.489 256.296 383.099 246.825C384.437 240.46 389.129 230.06 384.437 224.936Z" fill="#2300B1"/>
  <path d="M405.608 325.231C405.877 326.477 406.009 327.718 405.475 328.802C404.668 330.513 402.796 331.131 401.185 331.289C399.578 331.601 397.971 331.601 396.364 331.754C395.023 331.754 393.548 331.754 392.343 330.978C386.984 327.718 385.51 310.326 384.574 304.272C383.365 296.977 382.429 289.524 381.758 282.225C381.087 274.772 380.954 267.477 381.087 260.025C381.087 251.795 381.489 243.566 381.489 235.337C381.489 235.025 381.489 234.56 381.489 234.249C381.489 233.938 381.489 233.63 381.489 233.161C381.489 228.038 385.241 227.573 388.993 228.195C389.933 228.349 390.869 228.66 391.672 228.972C393.014 229.437 394.488 230.06 395.424 231.301C396.095 232.078 396.497 233.473 396.766 235.183C396.766 235.49 396.899 235.648 396.899 235.96C397.3 237.978 397.433 239.995 397.702 241.548C397.702 241.86 397.835 242.013 397.835 242.325C400.92 258.625 399.309 276.79 400.249 292.937C400.783 303.184 402.257 314.366 405.339 323.836C405.339 324.148 405.475 324.613 405.608 325.231Z" fill="#2300B1"/>
  <path d="M397.167 334.548L393.415 338.742C392.343 339.207 391.539 340.295 391.941 341.69H405.74L405.206 336.413H399.176L397.167 334.548Z" fill="#FF4D76"/>
  <path d="M391.809 341.536H405.877V343.554H391.809V341.536Z" fill="#2300B1"/>
  <path d="M403.329 338.584H396.629V335.79C396.629 333.618 398.103 331.908 399.979 331.908C401.855 331.908 403.329 333.618 403.329 335.79V338.584Z" fill="#FF4D76"/>
  <path d="M379.48 234.249C379.211 234.249 378.946 234.095 378.809 234.095C375.865 233.319 373.049 232.078 370.369 230.836C371.976 226.02 374.656 222.138 378.142 221.054C378.408 221.208 378.677 221.208 379.078 221.361C381.223 222.138 383.501 223.072 385.108 224.936L385.241 225.09C385.912 226.02 386.446 226.954 386.851 228.196C387.788 228.349 388.86 228.661 389.796 228.972C391.27 229.437 392.745 230.06 393.817 231.301C394.488 232.078 394.89 233.473 395.291 235.183C395.291 235.49 395.424 235.648 395.424 235.96C394.352 236.113 393.279 236.113 392.343 236.113C390.736 236.113 389.262 236.113 387.655 235.96C386.313 235.802 385.108 235.648 383.766 235.49C378.544 234.56 373.852 233.319 368.895 230.525C367.959 229.902 366.886 228.972 367.019 227.731C367.019 227.419 367.155 227.261 367.421 227.108L379.48 234.249Z" fill="#150077"/>
  <path d="M386.312 188.449C386.445 188.291 386.445 188.291 386.312 188.449C386.714 187.826 386.851 187.361 387.116 186.742L386.312 188.449Z" fill="#150077"/>
  <path d="M386.313 188.449C385.377 189.536 384.706 190.931 384.305 192.484L386.313 188.449Z" fill="#150077"/>
  <path d="M394.489 186.584C389.665 184.102 381.895 182.702 376.669 183.167C373.319 183.479 370.238 185.808 368.494 189.067C362.866 200.249 368.896 212.978 366.217 224.625C366.084 225.401 365.815 226.331 366.084 227.261C366.486 228.661 367.691 229.437 369.032 229.902C374.255 232.078 379.883 232.385 385.511 232.854C387.921 233.008 391.272 233.319 393.818 232.231C395.425 231.613 396.63 230.367 397.169 228.349C397.836 225.866 397.434 223.072 397.703 220.431C398.105 215.466 400.382 211.114 401.857 206.46C402.258 205.061 402.527 203.819 402.796 202.42C402.929 201.644 402.929 200.867 402.929 199.937C402.796 193.414 399.177 188.914 394.489 186.584Z" fill="#7ADCFB"/>
  <path d="M389.129 177.89C389.129 177.737 389.129 177.737 389.129 177.89C390.334 174.008 388.322 173.543 386.044 172.455C384.437 171.679 380.42 169.042 378.946 169.196C377.873 169.349 377.604 171.06 378.142 172.144C378.677 173.232 379.749 173.697 380.553 174.319C383.099 176.184 381.625 179.754 384.036 181.619C384.839 182.237 385.912 184.102 386.851 183.479C387.253 183.167 388.057 180.996 388.189 180.531C388.458 179.443 388.86 178.667 389.129 177.89Z" fill="#150077"/>
  <path d="M382.159 190.001C383.501 189.067 384.706 187.984 385.911 186.896C386.044 186.742 386.313 186.584 386.445 186.431C386.983 185.966 387.518 185.497 387.92 185.032L386.714 179.597H381.355V187.672C381.355 188.602 381.625 189.379 382.159 190.001Z" fill="#FDC5B6"/>
  <path d="M385.107 179.597V180.219C385.107 180.531 384.975 180.996 384.975 181.307C384.437 182.86 383.099 183.944 381.355 183.944V179.597H385.107Z" fill="#150077"/>
  <path d="M380.421 179.443L381.49 174.166C381.49 174.008 381.49 173.854 381.626 173.697L387.656 175.096C387.656 175.249 387.656 175.407 387.656 175.561L386.852 179.908C386.852 180.219 386.852 180.373 386.852 180.531L386.716 180.684C386.583 180.684 386.583 180.684 386.447 180.531C385.643 181.461 383.233 182.702 381.626 181.926C380.285 181.772 380.152 180.531 380.421 179.443Z" fill="#FDC5B6"/>
  <path d="M384.168 173.697L384.437 176.495C384.437 177.425 385.24 178.044 386.044 178.044L387.518 177.89L388.056 173.854L385.51 173.697H384.168Z" fill="#150077"/>
  <path d="M385.377 178.513L385.642 180.684C385.779 181.461 386.446 182.084 387.518 182.084V178.044L385.377 178.513Z" fill="#150077"/>
  <path d="M385.641 180.531C386.179 181.149 386.983 180.996 387.517 180.373C388.055 179.754 387.919 178.82 387.385 178.355C386.85 177.737 386.043 177.89 385.509 178.513C384.974 178.978 385.107 179.908 385.641 180.531Z" fill="#150077"/>
  <path d="M382.16 176.802C382.027 176.802 382.027 176.649 382.027 176.495C382.027 176.337 382.16 176.337 382.296 176.337C382.429 176.337 382.429 176.495 382.429 176.649C382.296 176.802 382.16 176.802 382.16 176.802Z" fill="#150077"/>
  <path d="M380.954 176.184L380.283 178.044C380.283 178.202 380.283 178.202 380.42 178.202L380.954 178.355L381.488 175.719L380.954 176.184Z" fill="#FDC5B6"/>
  <path d="M385.377 180.219C385.911 180.842 386.715 180.684 387.253 180.066C387.787 179.443 387.655 178.513 387.117 178.044C386.582 177.425 385.779 177.579 385.241 178.202C384.706 178.82 384.839 179.754 385.377 180.219Z" fill="#FDC5B6"/>
  <path d="M380.283 180.066C380.42 180.066 380.552 180.066 380.685 180.066C381.087 179.908 381.488 179.597 381.488 179.132C381.223 179.289 380.954 179.443 380.685 179.443C380.552 179.443 380.42 179.443 380.42 179.289L380.283 180.066Z" fill="white"/>
  <path d="M390.335 192.949C390.6 192.173 391.002 191.243 391.271 190.466C390.198 191.554 389.797 193.107 389.664 194.66C389.933 194.191 390.066 193.572 390.335 192.949Z" fill="#7ADCFB"/>
  <path d="M401.587 206.149C400.249 210.807 397.835 215.308 397.433 220.12C397.168 222.761 397.57 225.555 396.899 228.038C396.365 230.06 395.156 231.301 393.549 231.92C393.549 231.143 393.549 230.367 393.685 229.591C393.951 227.731 394.489 226.02 394.89 224.313C395.827 220.12 395.557 215.466 395.156 211.114C395.023 208.166 394.352 204.438 394.89 201.801C396.63 201.955 399.711 203.666 401.587 206.149Z" fill="#2300B1"/>
  <path d="M433.073 264.683H381.891C379.75 264.683 378.143 262.661 378.143 260.332V225.555C378.143 223.072 379.882 221.208 381.891 221.208H433.073C435.218 221.208 436.825 223.225 436.825 225.555V260.332C436.958 262.661 435.218 264.683 433.073 264.683Z" fill="#E7F0F8"/>
  <path d="M382.158 235.648H432.806V237.666H382.158V235.648Z" fill="#7ADCFB"/>
  <path d="M382.158 229.591H432.806V231.613H382.158V229.591Z" fill="#7ADCFB"/>
  <path d="M382.158 241.702H432.806V243.72H382.158V241.702Z" fill="#7ADCFB"/>
  <path d="M382.158 247.913H432.806V249.931H382.158V247.913Z" fill="#7ADCFB"/>
  <path d="M382.158 253.66H400.111V256.296H382.158V253.66Z" fill="#7ADCFB"/>
  <path d="M417.932 212.667C419.675 216.707 420.747 220.743 420.611 224.313C420.478 226.331 420.077 228.196 419.542 230.06C417.932 236.113 416.594 242.79 413.645 248.225C412.842 249.62 411.5 251.173 410.295 250.396C409.359 249.778 409.222 248.378 409.09 247.137C408.957 239.219 408.821 231.301 408.688 223.383C408.688 222.296 408.688 221.054 408.154 219.966C407.483 218.413 406.141 217.637 404.803 216.861C398.906 213.29 389.261 206.767 388.727 198.384C388.321 190.778 393.684 184.878 399.71 189.536C405.607 193.726 413.778 203.196 417.932 212.667Z" fill="#7ADCFB"/>
  <path d="M408.821 244.808C408.821 247.913 408.556 250.861 407.616 253.502C407.214 254.59 406.544 255.677 405.74 256.454C405.607 256.607 405.607 256.607 405.475 256.761C405.475 256.919 405.338 257.072 405.475 257.23C405.607 257.537 407.616 255.831 407.616 255.52V255.677C407.616 255.831 407.616 255.831 407.616 255.985C407.616 257.695 407.752 259.248 407.616 260.332C407.616 260.955 407.351 262.354 407.752 262.819C407.752 262.972 407.885 262.972 408.018 263.13C408.154 263.13 408.287 263.13 408.287 262.972C408.419 261.42 408.556 259.713 408.689 258.16C408.689 258.007 408.821 258.007 408.821 258.007H408.958C408.958 258.007 408.958 258.007 408.958 258.16C408.821 259.713 408.689 261.266 408.556 262.819C408.556 262.972 408.689 263.284 408.821 263.284C408.958 263.284 409.09 263.13 409.223 262.972C409.223 262.661 409.223 262.354 409.359 262.042C409.492 260.643 409.628 259.248 409.628 258.314C409.628 258.16 409.628 258.16 409.761 258.16H409.894C409.894 258.16 409.894 258.16 409.894 258.314C410.03 259.248 409.761 260.643 409.628 262.042C409.628 262.196 409.628 262.507 409.492 262.661C409.492 262.972 409.628 263.13 409.894 263.13C410.03 263.13 410.163 262.972 410.163 262.819C410.163 262.507 410.163 262.354 410.295 262.042C410.432 260.801 410.565 259.56 410.697 258.472C410.697 258.314 410.834 258.314 410.834 258.314H410.966C410.966 258.314 410.966 258.314 410.966 258.472C410.966 259.56 410.834 260.801 410.565 262.042C410.565 262.196 410.565 262.507 410.432 262.661C410.432 262.819 410.565 262.819 410.565 262.819L410.697 262.661C410.834 262.507 410.697 262.661 411.099 262.042C411.235 261.731 411.77 259.402 412.039 257.072C412.308 255.055 412.573 253.19 412.842 251.172C413.111 250.396 413.377 249.62 413.513 249.001C413.778 248.067 414.184 246.825 414.449 245.584C412.441 245.119 410.565 244.808 408.556 244.496C408.821 244.808 408.821 244.808 408.821 244.808Z" fill="#F8C208"/>
  <path d="M337.275 343.708H415.12V344.018H337.275V343.708Z" fill="#26A4FB"/>
  <path d="M22.821 203.194C22.552 203.97 22.4193 204.746 22.552 205.523C22.6847 206.141 23.2228 206.611 23.6245 207.076C26.9747 210.493 31.5302 212.818 36.2183 214.063C37.6925 214.528 39.2995 214.84 40.641 214.371C41.9789 213.906 43.3205 212.511 43.1841 211.111C39.0304 208.782 35.1458 205.988 31.5302 202.882C30.0559 201.641 54.0383 179.129 39.7012 178.352C29.5178 177.887 24.8297 196.517 22.821 203.194Z" fill="white"/>
  <path d="M20.9434 317.464H84.5831V317.775H20.9434V317.464Z" fill="#26A4FB"/>
  <path d="M69.0398 317.622H55.6426C55.6426 317.153 55.6426 316.534 55.6426 315.911C55.6426 315.135 55.6426 314.516 55.6426 313.894L57.1168 301.782H65.2915L62.8775 310.634C62.8775 310.634 65.6933 313.117 67.4329 314.516C67.8346 314.828 68.2364 315.293 68.5054 315.911C68.7745 316.381 68.9072 316.999 69.0398 317.622Z" fill="#FDC401"/>
  <path d="M69.5791 317.622H55.1094C55.1094 316.846 55.1094 315.911 55.1094 314.981H67.0324C68.3739 315.135 69.5791 316.223 69.5791 317.622Z" fill="#150077"/>
  <path d="M51.6275 317.622H38.2266C38.2266 317.153 38.2266 316.534 38.2266 315.911C38.2266 315.135 38.2266 314.516 38.2266 313.894V301.782H46.534L45.5978 310.634C45.5978 310.634 48.41 313.117 50.1533 314.516C50.555 314.828 50.9567 315.293 51.2258 315.911C51.3585 316.381 51.6275 316.999 51.6275 317.622Z" fill="#FDC401"/>
  <path d="M52.1613 317.622H37.8242C37.8242 316.846 37.8242 315.911 37.8242 314.981H49.7509C51.0888 315.135 52.1613 316.223 52.1613 317.622Z" fill="#150077"/>
  <path d="M47.8765 290.14C47.8765 292.312 47.3384 300.541 47.0731 303.804C47.0731 304.581 46.4023 305.199 45.7315 305.357C44.1246 305.511 41.3087 305.822 39.9709 305.664C39.4328 305.664 38.8983 305.511 38.3639 305.357C36.7533 304.423 37.0224 295.882 36.7533 293.711C36.2189 288.899 35.6845 284.24 35.2827 279.428C34.3429 270.111 33.4068 260.794 32.4669 251.481C31.7961 244.805 31.2617 238.128 31.2617 231.294C31.2617 229.434 31.2617 227.57 31.3944 225.706C31.3944 225.087 31.5308 224.464 31.5308 223.841C31.7961 221.358 32.1979 218.718 32.8687 216.235C33.005 215.923 33.005 215.458 33.1377 215.147C33.2704 214.528 33.5394 213.752 33.8085 212.976C34.7446 209.559 36.2189 205.676 38.0949 203.659C40.907 200.399 44.2572 203.505 45.0607 207.076C47.7402 219.029 50.2869 231.294 50.556 243.563C50.8213 253.964 49.7525 264.365 48.8127 274.612C48.4109 279.735 47.8765 284.859 47.8765 290.14Z" fill="#38A0FB"/>
  <path d="M40.5032 208.94C40.6396 207.852 40.7723 206.764 41.0413 205.523C45.0587 205.211 49.0797 204.746 53.097 204.435C54.973 204.281 55.5111 204.746 57.118 205.676C55.6438 210.335 57.2507 214.371 58.5923 218.253C61.1391 225.863 63.6821 233.316 66.2289 240.923C68.3739 247.288 71.4551 254.74 71.3188 261.728C71.3188 263.435 71.0534 265.299 70.2499 266.852C65.9599 275.081 55.6438 259.864 52.8317 256.135C47.7381 249.463 42.9173 242.164 40.5032 233.623C38.3619 225.394 39.298 217.323 40.5032 208.94Z" fill="#23AFFC"/>
  <path d="M84.3195 168.724C84.3195 168.57 84.4522 168.417 84.5849 168.259C84.7213 167.947 84.9866 167.794 85.123 167.64C85.6574 167.017 86.0592 166.087 86.1955 165.153C86.3282 164.846 86.3282 164.688 86.3282 164.377C86.1955 163.135 84.5849 162.982 84.4522 161.582C84.3195 160.341 85.7938 159.565 86.4609 158.788C86.5973 158.635 86.4609 158.477 86.3282 158.477C86.0592 158.477 85.6574 158.788 85.5247 158.946C84.3195 160.03 83.247 161.429 82.3072 162.982C82.0418 163.447 81.7728 163.912 81.6401 164.377C80.7003 166.241 80.5676 168.57 80.0295 170.588C79.8968 171.211 79.6277 171.829 79.4951 172.452C78.8243 174.935 78.1535 177.422 77.6191 179.905C77.2173 181.458 76.8156 184.406 76.5465 185.959C76.4139 186.581 76.2775 187.358 76.1448 187.976C68.3755 187.2 61.8077 181.3 54.4402 178.664C52.9659 178.194 50.4191 177.422 48.8122 178.194C48.6795 178.352 48.5432 178.352 48.4105 178.506C47.2053 179.44 46.9362 181.769 47.338 183.164C47.7397 184.564 48.6795 185.805 49.752 186.893C53.6367 191.082 58.8629 193.411 64.0854 194.811C68.6409 195.894 75.2087 197.759 79.6277 195.429C83.7814 193.258 83.3797 188.288 83.6488 183.941C83.7814 181.769 83.7814 178.194 83.9178 175.869C84.0505 173.847 84.1832 171.829 84.3195 169.658C84.1832 169.347 84.1832 169.035 84.3195 168.724Z" fill="#FDC401"/>
  <path d="M76.9473 186.734C76.9473 186.581 76.9473 186.581 76.9473 186.424C77.0836 186.581 77.0836 186.581 76.9473 186.734C76.9473 186.734 77.0836 186.734 76.9473 186.734Z" fill="#FDC401"/>
  <path d="M64.0837 194.964H63.9511C57.9214 193.411 53.0969 190.771 49.614 187.047C48.6778 186.117 47.6053 184.871 47.2036 183.322C46.8018 181.769 47.2036 179.44 48.2761 178.506C48.4088 178.352 48.5415 178.352 48.8105 178.199C50.4174 177.422 52.8315 178.041 54.5711 178.664C57.5196 179.747 60.4681 181.3 63.2803 182.853C67.0322 185.029 71.0533 187.2 75.207 187.823C75.7414 187.977 76.2758 187.512 76.4122 186.893C76.4122 186.582 76.5448 186.424 76.5448 186.117C76.8139 184.717 77.2156 181.769 77.6174 180.059C78.1518 177.729 78.8226 175.247 79.4934 172.606V172.452L79.626 172.606C80.5659 173.229 81.3693 174.005 82.3055 174.782C82.8436 175.247 83.2453 175.558 83.7797 176.023V176.177C83.6471 177.576 83.6471 178.971 83.6471 180.37C83.6471 181.147 83.6471 183.322 83.5144 184.094C83.5144 184.564 83.5144 185.182 83.5144 185.647C83.378 189.687 83.2453 193.723 79.4934 195.741C75.207 197.916 68.5065 196.206 64.0837 194.964Z" fill="white"/>
  <path d="M60.1989 193.412C60.1989 195.587 59.6645 197.605 59.1264 199.623C58.4593 202.106 57.6522 204.435 56.716 206.764C56.716 206.918 56.5833 207.076 56.447 207.229C56.3143 207.387 56.0452 207.387 55.9126 207.387C49.4811 207.387 44.3913 207.076 38.2252 206.918C36.751 206.918 35.5458 205.834 35.4131 204.593C34.7423 199.158 33.4044 194.034 34.7423 185.959C35.0114 184.252 35.144 182.234 36.2166 180.835C39.5668 176.488 46.8017 177.729 50.9554 180.059C56.3143 182.853 60.1989 187.669 60.1989 193.412Z" fill="white"/>
  <path d="M46.6696 227.57H46.935C49.08 227.57 50.8196 225.552 50.8196 223.065V215.77H42.9176V223.065C42.7813 225.552 44.5246 227.57 46.6696 227.57Z" fill="#A1DCFF" fill-opacity="0.5294"/>
  <path d="M35.8153 215.459L35.0119 222.293C34.7428 224.153 33.2686 225.552 31.3926 225.706C31.3926 225.087 31.5289 224.464 31.5289 223.841C31.7943 221.358 32.196 218.718 32.8668 216.235C33.0032 215.924 33.0032 215.459 33.1359 215.147L35.8153 215.459Z" fill="#A1DCFF" fill-opacity="0.5294"/>
  <path d="M54.8417 301.94C54.8417 302.559 54.8417 303.028 54.709 303.646C54.709 304.888 55.6451 306.129 56.8503 305.976C58.5936 305.822 61.8075 306.441 63.4181 305.664C65.9612 304.423 65.5595 300.699 66.2303 297.593C67.3028 292.623 70.384 273.835 71.3201 269.488C73.1961 261.263 67.8372 249.77 61.2731 257.846C57.9229 262.035 58.3246 254.429 57.3884 259.71C56.0469 268.405 55.2434 292.934 54.8417 301.94Z" fill="#23AFFC"/>
  <path d="M46.1332 173.847C44.6589 174.317 43.1847 173.229 42.9193 171.522L42.5176 169.347L45.197 168.57L46.1332 173.847Z" fill="#150077"/>
  <path d="M51.2251 179.282L49.6145 171.211L46.9351 171.364H45.3281L46.4006 180.524V180.682L51.2251 179.282Z" fill="#FDC401"/>
  <path d="M45.8633 170.588L45.9996 171.364C46.1323 171.829 46.265 172.299 46.5341 172.764C47.3375 174.317 48.8118 175.247 50.4187 175.093L49.4826 170.277H46.6704L45.8633 170.588Z" fill="#150077"/>
  <path d="M52.6937 166.399C52.8301 167.171 52.9628 167.794 53.2318 168.57C53.5009 169.347 53.6335 170.277 53.6335 171.211C53.5009 173.071 52.0266 174.782 50.416 174.782C48.2746 174.782 45.8606 173.382 44.7917 171.211C44.6554 170.899 44.2536 169.969 44.1209 169.658C43.4502 167.017 44.39 164.377 46.3987 163.135C47.8729 162.205 49.8816 162.359 51.2231 163.6C52.0266 164.223 52.4283 165.311 52.6937 166.399Z" fill="#FDC401"/>
  <path d="M53.2337 163.912C53.5028 163.758 53.7682 163.447 53.9045 163.135C54.3063 162.517 54.4389 161.582 53.9045 160.964C53.3664 160.341 52.2939 160.499 51.6268 160.806C49.4818 161.894 47.3367 162.517 45.059 162.982C43.0504 163.447 41.8452 165.622 42.2469 167.794L42.7813 170.434L44.2556 169.035C44.3919 169.347 44.3919 169.658 44.5246 169.969C44.5246 169.812 46.1315 170.277 46.4006 170.434C47.6058 168.724 47.8748 166.399 49.6145 165.464C50.4179 164.999 51.2251 164.846 52.0285 164.377C52.4303 164.377 52.832 164.223 53.2337 163.912Z" fill="#150077"/>
  <path d="M46.4821 170.618C46.5337 170.878 46.5374 171.143 46.5005 171.407C46.4636 171.672 46.3826 171.915 46.2609 172.141C46.1356 172.367 45.9808 172.559 45.7929 172.717C45.6049 172.87 45.3985 172.977 45.1737 173.037C44.9488 173.096 44.7203 173.105 44.4955 173.062C44.267 173.015 44.0532 172.926 43.8579 172.781C43.6626 172.64 43.4967 172.461 43.364 172.243C43.2313 172.026 43.1392 171.783 43.0839 171.522C43.0323 171.262 43.0286 171.002 43.0655 170.737C43.1023 170.473 43.1834 170.225 43.3051 169.999C43.4304 169.773 43.5852 169.581 43.7731 169.428C43.9611 169.27 44.1675 169.163 44.3923 169.103C44.6171 169.044 44.8457 169.035 45.0705 169.082C45.299 169.125 45.5127 169.219 45.7081 169.359C45.9034 169.504 46.0693 169.684 46.202 169.901C46.3346 170.119 46.4305 170.358 46.4821 170.618Z" fill="#150077"/>
  <path d="M46.8881 169.982C46.9397 170.242 46.9471 170.503 46.9102 170.767C46.8697 171.032 46.7923 171.279 46.667 171.505C46.5454 171.731 46.3906 171.923 46.2026 172.077C46.0146 172.235 45.8082 172.341 45.5834 172.401C45.3586 172.461 45.1301 172.469 44.9016 172.422C44.6767 172.38 44.463 172.286 44.2676 172.145C44.0723 172.004 43.9065 171.821 43.7738 171.603C43.6411 171.386 43.5453 171.147 43.4937 170.887C43.4421 170.626 43.4347 170.362 43.4752 170.097C43.5121 169.833 43.5932 169.59 43.7148 169.364C43.8364 169.138 43.9949 168.946 44.1829 168.788C44.3708 168.634 44.5772 168.528 44.8021 168.468C45.0269 168.408 45.2517 168.4 45.4802 168.442C45.7087 168.489 45.9188 168.579 46.1178 168.724C46.3132 168.865 46.4753 169.044 46.6117 169.261C46.7444 169.479 46.8365 169.722 46.8881 169.982Z" fill="#FDC401"/>
  <path d="M51.3586 167.017C51.2259 167.329 51.2259 167.64 51.2259 167.947C50.6878 171.829 54.4398 175.869 52.6965 179.44C52.0294 180.835 50.5552 181.612 49.7517 183.011C48.8119 184.564 49.0809 186.27 48.9482 187.977C48.8119 189.529 48.5428 190.617 47.8757 192.016C46.5341 194.653 44.3928 196.982 41.846 198.224C39.97 199.158 37.825 199.469 36.0854 198.535C33.6713 197.14 32.7351 193.569 33.1369 190.617C33.6713 187.512 35.4146 185.029 37.2906 182.853C38.4958 181.458 39.8374 179.905 40.1027 178.041C40.3718 176.334 39.701 174.47 40.5044 173.071C41.0425 171.987 41.9787 171.364 42.1151 169.969C42.1151 168.882 41.7096 167.794 41.9787 166.552C42.2477 165.311 42.7822 163.912 43.722 163.135C45.598 161.582 48.1411 161.894 50.1534 162.824C50.5552 162.982 50.8205 163.135 51.0896 163.447C51.6277 164.07 51.6277 164.846 51.6277 165.776C51.6277 166.087 51.4913 166.552 51.3586 167.017Z" fill="#150077"/>
  <path d="M532.901 200.448C534.644 199.825 536.384 199.983 538.26 200.29C552.73 202.154 567.336 202.001 581.806 200.137C585.156 199.672 588.772 199.049 591.318 196.412C593.865 193.925 594.938 190.043 595.874 186.319C598.553 175.449 600.831 164.425 602.84 153.402C603.51 149.213 604.181 144.866 603.378 140.672C601.1 129.183 589.442 124.371 579.395 122.042C552.73 115.519 525.534 111.326 498.334 109.308C496.056 109.154 493.509 109.001 491.501 110.396C489.223 111.949 488.15 115.208 487.347 118.16C480.915 140.518 477.3 163.807 476.762 187.407C476.762 189.267 476.762 191.289 477.433 192.995C479.039 196.72 483.193 197.654 486.812 198.119C496.996 199.36 507.846 199.672 517.761 202.312C516.824 205.26 517.897 210.849 516.824 213.801C523.927 212.248 526.068 203.242 532.901 200.448Z" fill="#F7C108"/>
  <path d="M484.03 404.928L483.226 406.016L470.5 392.509L471.705 390.956L481.218 378.845L486.308 384.122L480.414 391.575L484.568 400.427C485.102 401.669 485.102 403.064 484.432 404.151C484.299 404.774 484.166 404.928 484.03 404.928Z" fill="#2300B1"/>
  <path d="M486.978 383.504L481.619 390.18L476.529 384.899L481.888 378.069L486.978 383.504Z" fill="#F7C108"/>
  <path d="M484.03 404.928L483.226 406.016L470.5 392.509L471.705 390.956L484.299 404.309C484.299 404.774 484.166 404.928 484.03 404.928Z" fill="#7ADCFB"/>
  <path d="M522.619 333.817C522.487 332.268 522.35 330.715 522.085 329.163C520.341 315.345 517.662 301.834 515.115 288.174C513.376 278.699 510.962 272.181 501.851 270.317C500.778 270.163 499.573 269.852 498.368 269.698C498.099 269.698 497.833 269.698 497.564 269.54C496.359 269.387 495.018 269.387 493.68 269.387C488.321 269.54 488.586 272.492 486.445 276.993C486.577 278.081 486.846 279.169 487.112 280.252C488.855 288.174 491.133 292.052 494.347 298.575C498.235 306.493 499.308 316.893 502.791 325.28C504.265 328.693 505.068 332.268 504.53 335.993C503.727 342.669 495.287 349.345 491.667 354.315C486.445 361.457 481.488 368.909 476.932 376.669C476.261 377.911 475.458 379.464 475.86 380.863C476.129 381.793 476.796 382.416 477.467 382.881C479.074 384.28 480.548 385.833 482.155 387.228C483.629 388.627 485.505 390.022 487.381 389.557C488.586 389.246 489.39 388.162 490.329 387.228C501.449 374.033 521.012 358.505 522.752 338.633C522.752 337.234 522.752 335.528 522.619 333.817Z" fill="#2E7DFB"/>
  <path d="M509.757 404.151V405.551H492.607V387.228H499.441V397.475L507.748 400.734C508.82 401.204 509.624 402.287 509.889 403.686C509.624 403.686 509.757 403.84 509.757 404.151Z" fill="#2300B1"/>
  <path d="M492.473 385.364H499.306V394.527H492.473V385.364Z" fill="#F7C108"/>
  <path d="M509.757 404.151V405.551H492.607V403.533H509.757C509.624 403.686 509.757 403.84 509.757 404.151Z" fill="#7ADCFB"/>
  <path d="M482.959 283.981C483.626 284.134 484.43 284.292 485.1 284.292C489.121 284.757 493.275 285.069 497.292 284.757C498.096 284.757 498.899 284.599 499.706 284.446C501.446 284.134 504.126 283.669 506.54 282.893C506.138 279.169 503.86 275.751 501.044 273.887C498.096 271.869 494.613 271.404 491.263 271.869C489.656 272.027 488.182 272.492 486.976 273.734C484.831 275.286 483.762 280.875 482.959 283.981Z" fill="#150077"/>
  <path d="M459.777 406.016H530.925V406.481H459.777V406.016Z" fill="#26A4FB"/>
  <path d="M500.913 297.487C500.644 298.11 500.644 298.729 500.644 299.198C500.644 311.928 500.913 324.658 501.448 337.545C501.986 353.381 502.653 369.063 502.922 384.899C502.922 386.917 502.922 389.404 501.584 390.645C500.644 391.421 499.439 391.733 498.366 391.886C495.956 392.198 493.678 392.509 491.264 392.816C490.461 392.974 489.657 392.974 488.854 392.663C484.969 391.11 485.102 369.217 484.7 364.716C483.495 352.916 482.422 341.116 482.021 329.316C481.619 316.74 478.807 303.852 479.876 291.122C480.012 289.416 480.277 287.705 480.546 286.152C481.752 279.787 484.298 273.422 490.059 271.558C494.482 270.163 496.221 271.869 499.306 274.821C501.986 277.458 510.695 280.564 512.033 284.134C512.033 284.292 512.165 284.446 512.165 284.446C513.374 289.416 505.734 293.916 502.653 295.781C501.986 296.399 501.315 296.711 500.913 297.487Z" fill="#23AFFC"/>
  <path d="M512.032 284.446C511.63 284.599 511.229 284.757 510.827 284.911C510.425 284.599 509.887 284.599 509.485 285.069C504.665 289.723 497.695 291.122 491.802 291.434C488.05 291.745 483.763 291.745 479.875 290.968C480.011 289.258 480.277 287.551 480.546 285.999C481.751 279.634 484.298 273.269 490.058 271.404C494.481 270.005 496.221 271.716 499.306 274.664C501.985 277.304 510.694 280.41 512.032 283.981C512.032 284.292 512.032 284.446 512.032 284.446Z" fill="#2300B1"/>
  <path d="M486.624 256.959C486.694 257.173 486.724 257.39 486.72 257.616C486.717 257.843 486.672 258.06 486.591 258.265C486.514 258.474 486.403 258.653 486.26 258.811C486.12 258.969 485.957 259.084 485.773 259.165C485.592 259.246 485.404 259.284 485.209 259.28C485.014 259.272 484.826 259.225 484.645 259.131C484.468 259.041 484.314 258.913 484.177 258.747C484.044 258.581 483.941 258.393 483.871 258.184C483.801 257.97 483.768 257.753 483.772 257.527C483.779 257.301 483.82 257.083 483.901 256.878C483.982 256.669 484.092 256.49 484.232 256.332C484.376 256.174 484.538 256.059 484.719 255.978C484.903 255.897 485.091 255.859 485.287 255.863C485.482 255.872 485.67 255.919 485.847 256.012C486.024 256.102 486.182 256.234 486.315 256.396C486.451 256.563 486.554 256.75 486.624 256.959Z" fill="#EE80BE"/>
  <path d="M519.939 263.487C519.537 257.898 518.597 252.305 515.918 247.805L515.785 247.651C515.516 247.182 515.114 246.875 514.712 246.405C514.712 246.405 514.443 246.098 514.311 245.94C514.178 245.787 514.042 245.629 513.909 245.629C513.507 245.322 513.106 245.01 512.567 244.852C512.435 244.852 512.435 244.699 512.302 244.699H512.166C511.9 244.545 511.631 244.545 511.362 244.387C510.828 244.234 510.29 244.08 509.755 243.922C509.623 243.922 509.486 243.922 509.486 243.922C507.61 244.234 505.602 244.699 503.593 244.699C503.457 244.699 503.324 244.699 503.055 244.699C502.922 244.699 502.789 244.699 502.653 244.699C495.956 244.545 486.444 241.128 480.145 243.922C477.064 245.322 474.919 248.581 473.85 252.152C472.508 256.964 471.838 262.552 473.445 266.904C474.786 270.474 476.662 273.887 478.269 277.458C479.209 279.634 479.474 285.999 480.948 287.24C481.888 288.016 483.093 288.174 484.299 288.328C491.534 289.104 499.038 289.881 506.272 288.481C508.012 288.174 509.623 287.705 511.097 286.621C514.982 284.134 514.443 280.875 515.652 276.839C516.721 273.111 519.806 270.005 519.67 265.816C519.806 263.952 520.071 265.351 519.939 263.487Z" fill="#FF6FCA"/>
  <path d="M501.179 236.47L497.696 233.522C497.162 232.899 496.491 232.434 495.82 231.969L492.739 243.304C492.068 245.629 495.153 246.405 498.636 247.958L499.841 248.427L500.11 247.958L501.584 243.769L501.179 236.47Z" fill="#FFB1DF"/>
  <path d="M498.366 238.487C500.776 237.557 503.19 235.228 502.789 231.811C502.789 231.504 502.652 231.035 502.387 230.727C501.985 230.258 501.447 230.258 500.913 230.258C500.375 230.258 499.84 230.258 499.169 230.258C496.759 230.258 494.345 230.727 493.81 233.987C493.678 234.763 493.678 235.693 493.81 236.47C493.81 237.092 493.81 237.711 494.08 238.334C494.481 239.11 495.417 239.422 496.088 239.422C496.623 239.422 497.161 239.422 497.562 239.422C497.831 238.799 497.964 238.645 498.366 238.487Z" fill="#150077"/>
  <path d="M494.885 234.298V238.799C494.885 239.11 494.885 239.422 495.017 239.729C495.017 239.887 495.154 240.04 495.154 240.352C495.688 242.216 497.295 243.611 499.038 243.611H499.573C500.778 243.611 501.851 242.37 501.851 240.975V234.917C501.851 233.21 500.645 231.811 499.171 231.811H497.162C495.821 231.811 494.885 232.899 494.885 234.298Z" fill="#FFB1DF"/>
  <path d="M499.307 239.11V238.645H500.11V236.316H500.375V238.957L499.307 239.11Z" fill="#150077"/>
  <path d="M501.046 237.404C501.179 237.404 501.315 237.246 501.315 237.092C501.315 236.935 501.179 236.781 501.046 236.781C500.914 236.781 500.777 236.935 500.777 237.092C500.777 237.246 500.914 237.404 501.046 237.404Z" fill="#150077"/>
  <path d="M498.636 237.404C498.769 237.404 498.902 237.246 498.902 237.092C498.902 236.935 498.769 236.781 498.636 236.781C498.5 236.781 498.367 236.935 498.367 237.092C498.367 237.246 498.367 237.404 498.636 237.404Z" fill="#150077"/>
  <path d="M499.169 239.422C499.037 239.422 498.9 239.264 498.768 239.264C498.097 238.957 497.43 238.334 497.161 237.404L496.357 235.54L495.955 234.452C495.819 233.522 496.357 232.745 497.161 232.587C497.562 232.434 497.964 232.587 498.233 232.899L498.9 233.522C499.707 233.829 500.511 233.987 501.045 233.522C501.314 233.364 501.447 233.057 501.583 232.745V232.587C501.447 232.28 501.314 231.811 501.314 231.346C501.178 231.192 501.045 231.035 500.776 230.881L500.375 230.727C499.169 230.105 497.695 230.105 496.49 230.727L495.152 231.346L493.678 234.14L494.345 237.246L495.819 237.869V241.593C495.819 243.304 496.892 244.699 498.233 244.857C500.913 245.164 501.583 243.611 501.583 241.751V238.799C501.314 239.422 500.109 239.575 499.169 239.422Z" fill="#150077"/>
  <path d="M495.554 237.869V238.645C495.554 239.264 495.152 239.575 494.75 239.575C494.345 239.575 494.08 239.422 493.811 239.11V236.781C493.943 236.627 494.212 236.47 494.345 236.47C494.614 236.47 495.016 236.627 495.152 236.935C495.417 237.092 495.554 237.404 495.554 237.869Z" fill="#150077"/>
  <path d="M495.957 239.11H494.752C493.944 239.11 493.277 238.334 493.277 237.404V237.246C493.277 236.627 493.679 236.005 494.346 236.005H494.615C495.286 236.005 495.957 236.627 495.957 237.557V239.11Z" fill="#FFB1DF"/>
  <path d="M497.832 235.54H498.499V235.85H497.832V235.54Z" fill="#150077"/>
  <path d="M500.645 235.54H501.315V235.85H500.645V235.54Z" fill="#150077"/>
  <path d="M504.396 233.21C505.066 232.587 505.601 231.969 505.468 231.035C505.199 229.328 502.52 229.017 501.447 229.64C500.776 229.951 500.109 230.416 499.306 230.57C498.9 230.57 498.366 230.416 497.964 230.57C497.562 230.727 497.161 231.192 497.293 231.657C497.293 231.811 497.43 231.969 497.562 232.122C498.499 233.21 499.84 234.14 501.178 234.298C501.849 234.298 503.323 233.987 504.396 233.21Z" fill="#150077"/>
  <path d="M509.621 277.458C507.609 277.304 505.6 278.081 503.86 279.322C499.57 277.458 495.284 276.681 490.861 275.129C487.78 274.045 482.019 272.957 479.874 273.887C479.207 274.199 478.669 274.821 478.267 275.44C476.528 277.616 475.455 280.564 475.99 282.893C476.391 284.446 477.464 285.376 478.805 285.999C482.823 287.705 488.985 286.621 493.54 286.31C497.292 285.999 503.86 286.152 506.941 283.358C508.01 282.428 508.817 281.029 510.023 280.564C510.693 280.252 511.497 280.099 511.63 279.322C511.63 278.081 510.557 277.458 509.621 277.458Z" fill="#FFB1DF"/>
  <path d="M516.32 266.434C516.32 266.434 516.32 266.591 516.457 266.591C516.32 266.591 516.32 266.591 516.32 266.434Z" fill="#FFB1DF"/>
  <path d="M518.331 281.805C519.135 276.839 516.186 267.522 515.383 264.728C513.507 257.74 510.695 249.511 505.332 244.852C504.798 244.387 503.861 243.922 503.323 244.545C502.922 245.164 503.323 245.94 503.861 246.405C504.93 247.493 505.067 249.204 505.468 250.752C506.272 253.704 506.003 257.122 506.003 260.227C506.003 268.452 503.994 278.081 511.229 283.204C512.567 284.134 514.31 285.069 515.917 284.757C517.391 284.757 518.062 283.516 518.331 281.805Z" fill="#FFB1DF"/>
  <path d="M472.777 263.64V276.681C472.777 281.963 476.529 286.31 481.35 286.31H484.7V264.728C480.683 263.952 476.662 263.798 472.777 263.64Z" fill="#FFB1DF"/>
  <path d="M508.953 279.945C508.953 280.099 508.953 280.252 508.953 280.564C508.953 280.721 508.953 280.721 508.953 280.875C509.085 281.029 509.085 281.186 509.222 281.186C509.487 281.498 509.756 281.805 510.025 282.116C510.025 282.116 510.158 282.274 510.29 282.274C510.427 282.274 510.427 282.428 510.559 282.428C510.961 282.739 511.23 282.893 511.632 283.204C512.303 283.669 512.974 283.981 513.641 284.292C513.777 284.292 513.91 284.446 513.91 284.446C514.179 284.599 514.311 284.599 514.58 284.757C515.251 285.069 515.918 284.911 516.589 284.446C518.867 282.739 520.341 279.787 520.341 276.528V263.487C516.32 263.487 512.435 263.798 508.551 264.574V277.616C508.82 278.392 509.085 279.169 508.953 279.945Z" fill="#FFB1DF"/>
  <path d="M508.28 249.204C508.28 248.269 507.746 247.339 507.344 246.563C505.87 243.922 503.456 241.593 500.511 241.44C499.571 241.44 498.9 241.905 498.9 242.527C500.109 243.304 501.447 244.08 502.387 245.322C502.52 245.475 502.652 245.629 502.789 245.94C503.054 246.252 503.323 246.563 503.592 247.028C503.861 247.493 503.994 248.116 504.127 248.581C504.396 248.892 504.665 249.204 504.93 249.511C505.066 249.669 505.199 249.669 505.199 249.822C505.601 250.134 506.003 250.287 506.404 250.445C506.806 250.599 507.61 250.752 508.011 250.599C508.417 250.287 508.28 249.669 508.28 249.204Z" fill="#FFB1DF"/>
  <path d="M558.41 339.523L578.64 337.97V425.382H579.982V336.417L557.474 337.97L530.543 425.382H532.017L558.41 339.523Z" fill="#26A4FB"/>
  <path d="M599.678 351.011L598.336 351.169L610.528 425.382H611.87L599.678 351.011Z" fill="#26A4FB"/>
  <path d="M610.527 357.999H543.806C542.734 357.999 541.93 356.911 542.196 355.67L559.883 253.506C560.152 252.265 561.224 251.181 562.293 251.181H629.018C630.09 251.181 630.894 252.265 630.625 253.506L613.074 355.67C612.805 356.911 611.732 357.999 610.527 357.999Z" fill="#2E7DFB"/>
  <path d="M608.25 356.911H541.529C540.456 356.911 539.653 355.824 539.918 354.582L557.473 252.423C557.738 251.181 558.811 250.094 559.883 250.094H626.608C627.677 250.094 628.484 251.181 628.215 252.423L610.664 354.582C610.527 355.824 609.455 356.911 608.25 356.911Z" fill="#EBF7FF"/>
  <path d="M585.742 270.276H613.477V271.829H585.742V270.276Z" fill="#26A4FB"/>
  <path d="M567.25 264.841H613.342V266.706H567.25V264.841Z" fill="#26A4FB"/>
  <path d="M566.984 259.718H613.073V261.582H566.984V259.718Z" fill="#26A4FB"/>
  <path d="M585.76 309.102L586.136 307.446L587.042 307.724L586.666 309.375L585.76 309.102Z" fill="#26A4FB"/>
  <path d="M581.989 329.899L581.186 329.587L581.989 329.899ZM582.66 326.947L581.856 326.635L582.527 323.687L583.331 323.999L582.66 326.947ZM583.998 321.047L583.194 320.735L583.865 317.787L584.668 318.099L583.998 321.047ZM585.207 315.3L584.403 314.993L585.07 312.041L585.874 312.352L585.207 315.3Z" fill="#26A4FB"/>
  <path d="M580.389 332.842L580.761 331.191L581.668 331.464L581.295 333.115L580.389 332.842Z" fill="#26A4FB"/>
  <path d="M576.395 289.375L576.767 287.724L577.673 288.002L577.301 289.653L576.395 289.375Z" fill="#26A4FB"/>
  <path d="M568.19 329.741L567.25 329.587L567.652 327.877L568.459 328.188L568.19 329.741ZM569.262 325.082L568.459 324.771L569.126 321.823L569.929 322.135L569.262 325.082ZM570.468 319.182L569.664 318.875L570.331 315.923L571.138 316.235L570.468 319.182ZM571.805 313.44L571.002 313.129L571.673 310.177L572.476 310.488L571.805 313.44ZM573.147 307.54L572.344 307.229L573.014 304.277L573.818 304.588L573.147 307.54ZM574.485 301.64L573.681 301.329L574.352 298.377L575.156 298.688L574.485 301.64ZM575.826 295.74L575.023 295.429L575.694 292.477L576.497 292.788L575.826 295.74Z" fill="#26A4FB"/>
  <path d="M566.561 332.8L566.933 331.149L567.843 331.422L567.467 333.077L566.561 332.8Z" fill="#26A4FB"/>
  <path d="M603.467 315.445L603.839 313.794L604.746 314.067L604.373 315.718L603.467 315.445Z" fill="#26A4FB"/>
  <path d="M601.686 327.412L600.883 327.1L601.554 324.306L602.357 324.617L601.686 327.412ZM603.028 321.67L602.221 321.358L602.891 318.564L603.695 318.875L603.028 321.67Z" fill="#26A4FB"/>
  <path d="M599.617 332.744L599.989 331.093L600.9 331.366L600.524 333.022L599.617 332.744Z" fill="#26A4FB"/>
  <path d="M562.294 281.765L561.357 280.677L564.708 277.264L566.584 280.677L565.511 281.453L564.439 279.593L562.294 281.765Z" fill="#26A4FB"/>
  <path d="M604.096 315.3L597.933 301.175L586.143 309.712L577.434 287.665L559.614 303.193L558.811 301.952L577.972 285.336L586.681 307.54L598.335 299L604.634 313.129L612.54 307.229L613.207 308.47L604.096 315.3Z" fill="#FF4D76"/>
  <path d="M551.443 333.934L563.768 278.971L564.973 279.436L553.05 332.382L607.177 331.759V333.312L551.443 333.934Z" fill="#26A4FB"/>
  <path d="M605.838 335.641L604.902 334.399L607.176 332.224L605.971 330.052L607.044 329.122L608.92 332.535L605.838 335.641Z" fill="#26A4FB"/>
  <path d="M532.016 424.759H627.411V425.382H532.016V424.759Z" fill="#26A4FB"/>
  <path d="M660.156 213.726C667.66 213.726 680.523 213.572 684.407 204.72C691.377 189.038 692.044 165.438 680.792 153.639C671.279 143.703 652.656 142.304 639.925 141.996C629.742 141.685 618.49 144.633 612.324 154.104C608.037 160.626 606.965 169.167 606.965 177.396C606.965 183.296 607.636 189.35 610.046 194.32C612.593 199.597 617.016 203.321 621.704 206.273C633.092 213.572 645.284 213.415 652.254 224.596C656.54 218.538 652.387 213.726 660.156 213.726Z" fill="#7ADCFB"/>
  <path d="M658.149 276.45C657.747 276.139 657.345 275.831 656.944 275.52C655.2 274.432 653.059 274.432 651.047 274.744C648.905 275.055 646.76 275.674 644.884 276.761C642.338 278.003 639.927 279.867 637.517 281.262C635.508 282.508 633.363 283.284 630.953 283.591C626.128 283.903 625.859 279.556 625.325 275.055C625.056 272.879 624.923 270.55 624.787 268.221C624.654 264.808 624.654 261.856 625.992 258.75C626.128 258.285 626.397 257.82 626.261 257.355C626.128 257.044 625.59 256.114 625.188 255.956C625.188 255.802 625.188 255.802 625.188 255.644L625.992 250.056C625.992 249.744 625.726 249.591 625.457 249.591C625.188 249.591 625.056 249.902 625.056 250.214L624.252 254.714C623.85 254.714 624.521 254.714 624.12 254.868C623.983 254.868 623.983 255.026 622.645 255.337C621.573 255.644 620.633 256.114 620.5 257.355C619.966 262.944 618.757 268.379 618.355 274.121C618.09 279.244 618.355 284.679 620.633 289.026C623.714 294.773 629.209 294.926 634.436 294.15C638.051 293.531 641.67 292.755 645.153 291.356C647.298 290.579 649.44 289.491 651.448 288.25C651.717 288.096 652.119 287.785 652.521 287.631C653.461 287.008 654.666 286.39 655.739 285.613C659.221 283.284 662.034 280.178 658.149 276.45Z" fill="#FFB1DF"/>
  <path d="M621.171 259.061C621.035 259.061 620.77 258.908 620.77 258.596C620.633 258.285 620.77 258.131 620.77 257.82L620.902 255.802H621.171L621.035 257.82C621.035 257.974 621.035 258.131 621.035 258.285C621.035 258.443 621.171 258.443 621.171 258.443L621.304 258.285C621.706 257.509 622.107 256.579 622.244 255.644H622.509C622.377 256.267 622.377 257.197 622.509 257.82C622.509 257.974 622.509 257.974 622.646 257.974C622.778 257.974 622.778 257.82 622.911 257.666C623.18 256.732 623.449 255.644 623.582 254.714L623.851 254.868C623.582 255.802 623.449 256.89 623.18 257.82C623.18 257.974 623.047 258.285 622.778 258.443C622.646 258.443 622.509 258.443 622.509 258.443C622.377 258.285 622.244 258.131 622.244 257.974C622.244 257.82 622.107 257.509 622.107 257.197C621.975 257.666 621.706 258.131 621.573 258.443C621.573 258.596 621.437 258.75 621.304 258.75C621.304 259.061 621.304 259.061 621.171 259.061Z" fill="#E58200"/>
  <path d="M622.646 258.75L622.779 258.443C623.314 257.355 624.253 256.579 625.19 256.267L625.326 256.579C624.522 256.89 623.715 257.509 623.181 258.443C623.715 258.443 624.386 258.285 624.788 257.82L624.924 258.131C624.253 258.596 623.583 258.75 622.779 258.75H622.646Z" fill="#E58200"/>
  <path d="M624.521 260.926C624.252 260.461 624.119 259.991 624.119 259.373C624.119 258.75 624.385 258.285 624.786 257.974L624.923 258.285C624.654 258.596 624.385 259.061 624.385 259.526C624.385 259.991 624.521 260.461 624.786 260.768L624.521 260.926Z" fill="#E58200"/>
  <path d="M663.241 291.667L652.387 291.356L645.285 291.202L640.464 291.044L637.379 281.262C639.926 279.867 642.203 278.003 644.75 276.761C646.759 275.831 648.767 275.055 650.913 274.743C652.921 274.432 655.066 274.59 656.81 275.52C657.746 275.055 658.686 275.208 659.754 275.831C660.156 276.138 660.558 276.45 660.963 276.915C662.434 278.626 662.836 281.42 662.972 283.903C663.374 286.543 663.374 289.026 663.241 291.667Z" fill="#7ADCFB"/>
  <path d="M653.863 425.037H647.431C647.431 425.037 643.278 425.344 639.927 425.19C636.444 425.037 640.196 422.861 640.196 422.861L641.133 422.085L646.359 417.895C645.021 409.973 640.731 382.338 638.32 369.143C638.188 368.52 638.188 367.901 638.188 367.279C638.051 362.309 641.269 357.654 645.423 355.632C646.893 354.856 648.637 354.549 650.243 354.549H651.316L656.14 420.843L656.273 422.085C656.14 423.795 655.201 425.037 653.863 425.037Z" fill="#FFB1DF"/>
  <path d="M653.862 425.037H647.43C647.43 425.037 643.277 425.344 639.926 425.19C636.444 425.037 640.196 422.861 640.196 422.861L641.132 422.085L656.003 420.997L656.14 422.243C656.14 423.795 655.2 425.037 653.862 425.037Z" fill="#150077"/>
  <path d="M682.533 425.502C679.05 425.655 676.101 425.344 676.101 425.344H669.537C668.332 425.344 666.99 424.103 666.725 422.708L666.589 421.773V421.466L656.811 356.102H657.879C659.623 355.944 661.366 356.409 663.106 357.185C667.661 359.203 671.947 363.708 672.887 368.52C673.02 369.143 673.02 369.762 673.156 370.384C673.558 383.426 675.434 410.596 675.699 418.36L680.524 421.773C680.524 421.773 681.195 422.243 681.998 422.861C683.336 423.795 684.81 425.344 682.533 425.502Z" fill="#FFB1DF"/>
  <path d="M682.532 425.502C679.049 425.655 676.1 425.344 676.1 425.344H669.536C668.331 425.344 666.99 424.103 666.724 422.708L666.588 421.773L681.997 422.861C683.335 423.795 684.81 425.344 682.532 425.502Z" fill="#150077"/>
  <path d="M651.181 274.278C650.643 273.656 649.976 273.344 649.305 272.726C647.027 270.55 646.626 267.602 647.698 264.496C648.501 261.856 650.51 259.684 652.921 259.373C656.809 258.75 659.621 262.014 660.557 266.049C661.228 268.532 661.63 271.484 663.24 273.344C664.98 275.52 667.928 276.138 669.535 278.468C671.142 280.797 670.877 284.214 672.215 286.697C672.753 287.785 673.556 288.561 673.958 289.649C674.894 291.978 674.091 294.926 672.484 296.479C670.877 298.185 668.463 298.655 666.322 298.343C655.736 296.637 657.476 281.885 651.583 274.743C651.583 274.432 651.446 274.278 651.181 274.278Z" fill="#150077"/>
  <path d="M661.366 287.162C660.695 296.168 663.507 309.055 666.456 312.626C658.687 313.091 647.833 309.055 640.06 308.437C639.658 302.691 639.256 296.637 640.598 291.044C644.081 275.985 662.973 264.185 661.366 287.162Z" fill="#A1DCFF"/>
  <path d="M652.656 268.067V274.432C652.656 275.209 653.191 275.674 653.725 275.674H655.336C656.003 275.674 656.408 275.055 656.408 274.432V272.726L656.003 269.155L655.87 267.291V267.137L654.665 267.444H654.532L652.656 268.067Z" fill="#FFB1DF"/>
  <path d="M652.656 268.844V271.791C653.46 271.326 654.131 270.396 654.532 269.309C654.665 268.997 654.665 268.69 654.665 268.379L652.656 268.844Z" fill="#150077"/>
  <path d="M656.409 266.668C654.397 265.584 652.922 263.72 652.255 261.391C651.853 261.702 651.448 262.014 651.183 262.321L651.046 262.479C650.781 262.79 650.645 263.097 650.379 263.409C649.439 264.961 649.17 266.979 649.841 268.69C650.379 270.085 651.986 270.861 653.324 270.708C654.264 270.55 655.2 270.085 655.871 269.466C655.871 269.309 656.003 269.309 656.003 269.155C656.14 268.997 656.14 268.844 656.273 268.844C656.409 268.221 656.409 267.291 656.542 266.979C656.542 266.826 656.409 266.668 656.409 266.668Z" fill="#FFB1DF"/>
  <path d="M651.183 266.361L651.315 266.049L650.914 265.891L651.315 264.185L651.046 264.031L650.645 266.049L651.183 266.361Z" fill="#150077"/>
  <path d="M651.987 267.444C652.12 267.444 652.12 267.444 652.256 267.444C652.522 267.291 652.658 267.137 652.658 266.826H652.389C652.389 266.979 652.256 267.137 652.12 267.137C651.987 267.137 651.718 267.137 651.449 266.826L651.316 266.979C651.449 267.291 651.718 267.444 651.987 267.444Z" fill="#150077"/>
  <path d="M650.242 264.808C650.109 264.808 650.109 264.65 650.109 264.496C650.109 264.339 650.242 264.339 650.378 264.339C650.511 264.339 650.511 264.496 650.511 264.65C650.378 264.808 650.242 264.808 650.242 264.808Z" fill="#150077"/>
  <path d="M652.789 265.273C652.656 265.273 652.656 265.115 652.656 264.961C652.656 264.808 652.789 264.808 652.922 264.808C653.058 264.808 653.058 264.961 653.058 265.115C653.058 265.273 652.922 265.273 652.789 265.273Z" fill="#150077"/>
  <path d="M655.199 267.444C655.199 268.221 655.601 268.844 656.139 269.155L656.003 267.291L655.199 267.444Z" fill="#150077"/>
  <path d="M656.304 265.234C656.492 265.286 656.669 265.38 656.824 265.516C656.982 265.648 657.111 265.81 657.214 266.007C657.314 266.199 657.38 266.408 657.41 266.629C657.439 266.856 657.432 267.077 657.384 267.299C657.34 267.517 657.258 267.717 657.144 267.901C657.026 268.084 656.886 268.234 656.72 268.353C656.551 268.468 656.37 268.545 656.179 268.579C655.987 268.613 655.795 268.605 655.604 268.549C655.416 268.498 655.239 268.404 655.084 268.272C654.925 268.135 654.796 267.973 654.693 267.777C654.594 267.585 654.527 267.376 654.498 267.154C654.468 266.928 654.476 266.706 654.524 266.489C654.568 266.267 654.649 266.066 654.763 265.883C654.881 265.699 655.021 265.55 655.187 265.431C655.357 265.316 655.537 265.239 655.729 265.205C655.921 265.17 656.112 265.179 656.304 265.234Z" fill="#FFB1DF"/>
  <path d="M656.273 289.961V289.491C656.41 289.649 656.41 289.649 656.542 289.803C656.41 289.803 656.41 289.803 656.273 289.961Z" fill="#FFB1DF"/>
  <path d="M676.37 374.42C676.237 373.955 676.237 373.644 676.37 373.644C674.895 363.085 673.959 343.525 672.485 333.278C671.545 326.755 671.28 320.079 669.002 314.025C667.66 310.455 664.447 307.038 662.836 303.62C658.417 305.02 654.396 304.555 649.977 304.243C646.49 303.932 642.473 303.62 639.123 301.603C639.123 301.914 638.99 302.379 638.721 303.155C635.507 312.938 633.764 322.873 633.764 333.585C633.764 341.507 635.238 357.032 636.443 364.796C636.978 368.52 637.516 372.556 638.319 376.126C638.452 376.438 638.452 376.749 638.588 377.061C638.721 377.679 638.854 378.456 638.99 379.079C639.255 379.079 638.588 379.232 638.99 379.079C639.793 379.544 641.802 379.701 643.276 379.701C650.109 380.009 656.943 380.009 663.643 378.614C664.045 378.614 665.921 378.149 668.198 377.679C672.618 376.903 676.639 375.508 676.37 374.42Z" fill="#2E7DFB"/>
  <path d="M663.242 291.667C663.105 296.479 662.435 301.291 661.229 305.95C660.828 307.66 660.293 309.367 659.354 310.762C657.879 312.938 655.469 314.025 653.324 314.802C648.367 316.82 641.935 317.908 636.845 320.855C634.969 323.031 632.423 324.115 630.547 326.602C630.281 326.909 630.012 327.532 629.61 327.685C629.478 327.685 629.341 327.532 629.478 327.532C630.012 326.29 630.816 325.049 631.619 324.272V324.115H631.486C630.547 325.049 629.743 326.444 629.076 327.843C629.076 327.843 628.94 327.997 628.94 327.843C628.807 327.843 628.807 327.843 628.674 327.843C628.538 327.843 628.538 327.685 628.538 327.685C629.076 326.444 629.88 325.049 630.948 323.807V323.65H630.816C629.743 325.049 628.94 326.29 628.405 327.685C628.405 327.843 628.269 327.843 628.269 327.685C628.269 327.685 628.136 327.685 628.136 327.532C628.136 327.532 628.004 327.378 628.136 327.378C628.671 325.825 629.478 324.426 630.547 323.185V323.031H630.414C629.478 324.272 628.671 325.514 628.136 327.067C628.136 327.22 628.004 327.22 627.867 327.067C627.867 326.755 628.004 326.29 628.004 325.979C628.405 324.426 629.209 322.873 630.145 321.478C631.486 319.456 633.362 317.438 635.238 316.197C639.525 313.249 644.349 311.231 648.768 308.279C652.388 305.796 652.922 303.932 652.657 299.273C652.52 296.791 652.52 294.308 652.52 291.667C652.52 290.426 652.657 289.026 652.657 287.785C652.789 285.767 653.058 283.591 653.46 281.731C653.862 279.402 655.336 276.761 657.076 275.985C658.016 275.52 658.952 275.673 660.024 276.296C660.426 276.608 660.828 276.915 661.229 277.384C662.704 279.091 663.105 281.885 663.238 284.368C663.375 286.543 663.375 289.026 663.242 291.667Z" fill="#FFB1DF"/>
  <path d="M663.243 291.667L652.389 291.356C652.389 290.114 652.521 288.715 652.521 287.473C652.658 285.456 652.923 283.284 653.325 281.42C653.727 279.091 655.201 276.45 656.944 275.674C657.88 275.209 658.82 275.362 659.893 275.985C660.294 276.296 660.696 276.608 661.098 277.073C662.572 278.779 662.974 281.573 663.106 284.061C663.376 286.543 663.376 289.026 663.243 291.667Z" fill="#A1DCFF"/>
  <path d="M636.215 425.924H702V426.546H636.215V425.924Z" fill="#26A4FB"/>
  <defs>
    <filter id="filter0_d" x="2.70508" y="253.684" width="700.277" height="244.679" filterUnits="userSpaceOnUse" color-interpolation-filters="sRGB">
      <feFlood flood-opacity="0" result="BackgroundImageFix"/>
      <feColorMatrix in="SourceAlpha" type="matrix" values="0 0 0 0 0 0 0 0 0 0 0 0 0 0 0 0 0 0 127 0"/>
      <feOffset dy="4"/>
      <feGaussianBlur stdDeviation="5"/>
      <feColorMatrix type="matrix" values="0 0 0 0 0.854902 0 0 0 0 0.878431 0 0 0 0 0.905882 0 0 0 0.29 0"/>
      <feBlend mode="normal" in2="BackgroundImageFix" result="effect1_dropShadow"/>
      <feBlend mode="normal" in="SourceGraphic" in2="effect1_dropShadow" result="shape"/>
    </filter>
    <linearGradient id="paint0_linear" x1="361.161" y1="285.855" x2="339.186" y2="437.849" gradientUnits="userSpaceOnUse">
      <stop offset="0.138598" stop-color="#D5ADFE"/>
      <stop offset="1" stop-color="#1EB3FB"/>
    </linearGradient>
  </defs>
</svg>
