<svg width="598" height="660" viewBox="0 0 598 660" fill="none"
  xmlns="http://www.w3.org/2000/svg">
  <path d="M417.919 110.685C375.517 28.3085 281.926 -31.172 153.244 17.6364C24.5661 66.4409 -36.847 217.454 23.0984 363.888C83.0438 510.321 252.679 514.897 252.679 514.897C252.679 514.897 383.465 525.461 495.592 458.48C607.719 391.495 597.774 267.791 597.774 267.791C562.688 148.818 460.329 193.042 417.919 110.685Z" fill="#F4E0D9"/>
  <path d="M323.912 227.882C340.057 247.061 347.393 258.025 347.393 258.025L318.049 279.957L296.041 262.14L284.487 289.67L253.501 289.545V333.677C249.044 333.852 243.258 333.827 235.899 333.394C212.418 332.017 177.214 326.541 152.272 293.659L149.342 288.183C149.342 288.183 181.616 215.556 188.952 197.739C196.288 179.922 232.965 170.33 278.454 210.065C278.427 210.065 307.768 208.703 323.912 227.882ZM507.926 182.857C504.2 180.108 499.583 178.646 494.849 178.646H432.912C427.925 178.646 423.111 180.28 419.278 183.28C408.424 191.778 387.703 211.441 387.703 237.584C387.703 273.007 423.507 290.885 423.507 290.885H509.241C509.241 290.885 540.442 269.029 540.442 235.925C540.454 211.007 519.192 191.158 507.926 182.857ZM79.4223 222.703C84.8744 229.592 94.8096 228.688 94.8096 228.688C94.8096 223.595 91.5991 220.61 91.5991 220.61C94.4751 217.61 94.8096 212.531 94.8096 212.531C89.6728 211.638 79.4223 218.219 79.4223 218.219C53.7806 201.753 35.8325 220.312 35.8325 220.312C55.0533 234.968 79.4223 222.703 79.4223 222.703ZM124.285 249.341C98.643 232.875 80.695 251.434 80.695 251.434C99.9272 266.104 124.285 253.828 124.285 253.828C129.737 260.717 139.672 259.81 139.672 259.81C139.672 254.717 136.462 251.731 136.462 251.731C139.341 248.735 139.672 243.656 139.672 243.656C134.539 242.749 124.285 249.341 124.285 249.341ZM269.153 80.607C274.605 87.4958 284.541 86.589 284.541 86.589C284.541 81.4958 281.33 78.5102 281.33 78.5102C284.21 75.5138 284.541 70.435 284.541 70.435C279.408 69.5425 269.153 76.1195 269.153 76.1195C243.512 59.6537 225.563 78.2127 225.563 78.2127C244.8 92.8829 269.153 80.607 269.153 80.607ZM247.36 108.546C266.592 123.212 290.946 110.936 290.946 110.936C296.398 117.825 306.337 116.919 306.337 116.919C306.337 111.829 303.127 108.843 303.127 108.843C306.003 105.843 306.337 100.765 306.337 100.765C301.201 99.8721 290.946 106.449 290.946 106.449C265.304 89.9832 247.36 108.546 247.36 108.546ZM67.4569 271.692C41.8152 255.226 23.8672 273.785 23.8672 273.785C43.0994 288.455 67.4569 276.179 67.4569 276.179C72.909 283.068 82.8443 282.161 82.8443 282.161C82.8443 277.068 79.6338 274.082 79.6338 274.082C82.5098 271.086 82.8443 266.007 82.8443 266.007C77.7075 265.1 67.4569 271.692 67.4569 271.692Z" fill="white"/>
  <path d="M235.882 333.394L221.21 363.537C221.21 363.537 244.729 424.297 252.784 450.788V488.315L219.753 523.874L235.897 621.17L186.006 628.023L174.267 581.425L139.059 619.794C139.059 619.794 117.051 607.468 102.383 592.389L152.271 527.988C152.271 527.988 118.524 432.068 105.328 385.469C92.1284 338.871 146.407 305.989 152.271 293.66C152.244 293.66 175.725 330.656 235.882 333.394Z" fill="#504BB2"/>
  <path d="M384.064 273.103C391.4 279.956 398.737 288.182 395.803 289.544C392.873 290.92 376.728 278.58 376.728 278.58C376.728 278.58 369.05 289.72 355.278 289.72C341.509 289.72 259.344 289.72 240.284 289.72C221.206 289.72 210.94 281.318 205.077 260.763L235.893 244.322L241.757 259.401C241.757 259.401 304.075 269.723 328.044 272.508L344.481 260.53L355.57 270.329C366.912 269.3 379.927 269.24 384.064 273.103ZM297.204 212.197L278.422 207.326L285.758 200.477C285.758 200.477 303.36 208.702 313.626 204.588C323.892 200.477 323.892 190.885 323.892 190.885H331.228L328.298 178.559C328.298 178.559 345.9 142.925 319.489 129.223C293.079 115.52 265.207 120.997 256.398 144.301C247.594 167.606 265.207 188.147 265.207 188.147L257.871 195L244.037 187.914C244.037 187.914 238.823 208.702 253.495 223.767C268.168 238.835 296.912 230.756 297.204 212.197ZM231.118 343.182L235.878 333.393C175.721 330.655 152.255 293.659 152.255 293.659C151.129 296.039 148.184 299.186 144.281 303.039C171.199 340.615 216.431 343.354 231.118 343.182ZM270.582 653.767L228.742 640.448C225.878 639.53 223.74 637.301 223.078 634.548L220.399 623.301L195.937 626.609L202.174 653.383C203.008 656.975 206.419 659.541 210.344 659.541H269.559C273.139 659.541 273.977 654.856 270.582 653.767ZM137.572 648.573L121.427 626.645L131.947 615.667C125.087 610.835 111.742 601.273 111.742 601.273C111.742 601.273 106.755 606.09 100.891 611.566C95.0279 617.043 84.7467 622.531 92.0827 630.746C99.4188 638.975 111.161 656.778 122.9 656.778H146.3C148.926 656.778 150.187 653.667 148.141 652.132C144.296 649.269 137.572 648.573 137.572 648.573ZM465.699 228.638C461.628 222.677 463.75 218.874 465.699 213.731C467.649 208.602 461.266 204.96 455.776 208.939C451.942 211.702 448.374 215.914 446.571 218.218C445.867 219.111 444.525 219.258 443.599 218.577L439.116 215.233C439.116 215.233 441.769 206.287 436.105 206.459C430.426 206.62 427.773 214.401 427.773 214.401C427.773 214.401 417.85 218.043 415.012 224.835C415.012 224.835 418.38 234.598 430.426 234.437C430.426 234.437 432.549 242.057 436.278 247.842C440.004 253.641 446.913 252.971 448.147 248.831C449.397 244.695 450.458 240.892 447.617 237.906C444.779 234.921 438.931 232.279 438.931 232.279C438.931 232.279 442.43 230.781 445.856 227.039C446.306 226.545 447.155 226.706 447.351 227.326C448.586 231.043 452.354 240.419 459.305 241.215C468.006 242.218 469.783 234.598 465.699 228.638Z" fill="#FFC397"/>
  <path d="M320.347 180.405C319.336 180.405 318.513 179.634 318.513 178.695C318.513 177.753 319.336 176.985 320.347 176.985C321.355 176.985 322.177 177.753 322.177 178.695C322.177 179.634 321.366 180.405 320.347 180.405ZM313.434 192.57C313.315 192.211 312.904 192 312.519 192.111C312.135 192.226 311.908 192.609 312.027 192.967C312.042 193.003 313.38 196.932 318.063 196.932C318.383 196.932 318.729 196.921 319.071 196.871C319.471 196.821 319.763 196.487 319.709 196.114C319.655 195.731 319.282 195.469 318.898 195.519C314.615 195.978 313.473 192.706 313.434 192.57ZM327.387 271.555C326.991 271.494 326.607 271.741 326.541 272.114C326.472 272.483 326.738 272.845 327.137 272.906L333.997 274.01C334.035 274.021 334.074 274.021 334.116 274.021C334.166 274.021 334.22 274.021 334.274 274.01C334.393 273.985 345.935 271.58 356.163 270.713C356.559 270.677 356.866 270.34 356.824 269.971C356.786 269.598 356.401 269.315 356.028 269.351C346.32 270.179 335.469 272.361 334.101 272.645L327.387 271.555ZM191.912 114.911C192.389 115.022 203.77 117.799 203.931 131.305C203.931 131.674 204.262 131.986 204.658 131.986C204.658 131.986 204.658 131.986 204.673 131.986C205.085 131.986 205.404 131.674 205.404 131.29C205.215 116.695 192.389 113.609 192.258 113.584C191.858 113.498 191.462 113.721 191.366 114.093C191.274 114.452 191.512 114.824 191.912 114.911ZM326.618 171.05C326.953 171.262 327.414 171.172 327.641 170.853C327.868 170.541 327.776 170.107 327.43 169.896C321.447 166.219 316.629 170.491 316.591 170.53C316.299 170.788 316.299 171.222 316.579 171.494C316.725 171.631 316.91 171.706 317.11 171.706C317.294 171.706 317.479 171.645 317.625 171.509C317.771 171.373 321.62 167.964 326.618 171.05ZM429.12 230.272C428.724 230.336 428.443 230.681 428.509 231.053C428.87 233.186 429.293 234.064 429.331 234.164C429.451 234.412 429.716 234.559 429.996 234.559C430.1 234.559 430.208 234.534 430.3 234.498C430.673 234.336 430.831 233.939 430.658 233.595C430.658 233.58 430.273 232.788 429.954 230.842C429.904 230.473 429.52 230.222 429.12 230.272ZM421.215 225.491C422.091 225.491 422.807 224.82 422.807 224.003C422.807 223.186 422.091 222.516 421.215 222.516C420.338 222.516 419.623 223.186 419.623 224.003C419.623 224.82 420.327 225.491 421.215 225.491ZM496.002 273.118C496.002 273.118 485.14 248.831 475.205 253.032C465.281 257.222 496.002 273.118 496.002 273.118ZM512.877 242.179C502.85 235.501 503.684 272.559 503.684 272.559C503.684 272.559 522.905 248.845 512.877 242.179ZM446.526 225.057C446.364 225.405 446.537 225.813 446.91 225.96C447.003 226 447.106 226.025 447.202 226.025C447.479 226.025 447.76 225.874 447.879 225.616C449.179 222.838 447.929 220.1 447.879 219.989C447.718 219.641 447.279 219.48 446.91 219.63C446.537 219.777 446.364 220.186 446.526 220.534C446.537 220.548 447.572 222.813 446.526 225.057ZM483.468 229.63C468.107 232.279 501.189 271.569 501.189 271.569C501.189 271.569 498.828 226.978 483.468 229.63ZM428.935 215.046C428.989 215.032 433.672 213.595 437.583 215.419C437.69 215.466 437.794 215.491 437.917 215.491C438.182 215.491 438.448 215.354 438.567 215.107C438.751 214.774 438.605 214.351 438.232 214.19C433.765 212.096 428.67 213.67 428.459 213.745C428.074 213.871 427.874 214.254 427.993 214.613C428.139 214.985 428.562 215.168 428.935 215.046ZM425.194 232.777C425.34 232.899 425.513 232.96 425.698 232.96C425.898 232.96 426.082 232.888 426.228 232.752C432.753 226.297 426.375 217.251 426.309 217.165C426.082 216.856 425.617 216.767 425.286 216.978C424.956 217.19 424.864 217.609 425.087 217.932C425.14 218.021 430.896 226.147 425.167 231.81C424.875 232.082 424.89 232.516 425.194 232.777ZM166.535 128.763C166.535 117.068 176.724 107.552 189.244 107.552C201.766 107.552 211.955 117.068 211.955 128.763C211.955 140.459 201.766 149.975 189.244 149.975C176.724 149.975 166.535 140.459 166.535 128.763ZM168.008 128.763C168.008 139.703 177.532 148.613 189.259 148.613C200.971 148.613 210.494 139.717 210.494 128.763C210.494 117.824 200.971 108.914 189.259 108.914C177.532 108.914 168.008 117.81 168.008 128.763ZM137.018 164.333C136.676 164.125 136.222 164.211 135.999 164.534C135.772 164.842 135.865 165.276 136.211 165.487C136.318 165.548 146.811 172.175 145.285 184.036C145.231 184.405 145.523 184.752 145.919 184.803C145.946 184.803 145.973 184.803 146.015 184.803C146.384 184.803 146.692 184.541 146.742 184.197C148.361 171.494 137.126 164.398 137.018 164.333ZM197.987 377.601C198.291 377.35 198.344 376.931 198.079 376.633C197.814 376.347 197.364 376.3 197.045 376.547L188.544 383.164C188.328 383.325 188.236 383.583 188.302 383.845C188.475 384.562 206.038 456.597 219.065 523.998C219.13 524.332 219.438 524.554 219.78 524.554C219.822 524.554 219.876 524.554 219.914 524.543C220.31 524.482 220.576 524.12 220.51 523.751C207.987 458.977 191.289 389.916 189.828 383.942L197.987 377.601ZM249.336 181.953C240.304 163.082 247.029 142.552 260.321 127.982C273.612 113.412 295.767 115.57 318.994 125.33C342.206 135.093 336.358 152.154 336.358 152.154C324.657 163.581 298.431 166.727 298.431 166.727L288.681 203.473C288.681 203.473 258.371 200.824 249.336 181.953ZM287.446 181.459L291.518 167.717C291.518 167.717 285.67 165.563 283.721 171.025C281.771 176.487 287.446 181.459 287.446 181.459ZM135.692 124.341C135.761 124.366 142.751 126.423 142.259 133.57C142.232 133.943 142.539 134.276 142.951 134.301C142.962 134.301 142.978 134.301 143.001 134.301C143.385 134.301 143.704 134.018 143.731 133.656C144.289 125.43 136.211 123.05 136.118 123.029C135.734 122.914 135.322 123.126 135.203 123.484C135.084 123.846 135.296 124.229 135.692 124.341ZM263.385 651.872C263 651.797 262.601 652.008 262.497 652.381C262.404 652.75 262.643 653.123 263.039 653.209C263.25 653.259 268.268 654.46 267.457 659.059C267.391 659.431 267.657 659.79 268.053 659.851C268.095 659.865 268.133 659.865 268.172 659.865C268.533 659.865 268.837 659.628 268.891 659.295C269.737 654.585 265.665 652.381 263.385 651.872ZM254.153 651.872C253.769 651.797 253.369 652.033 253.277 652.406C253.196 652.775 253.45 653.137 253.846 653.223C253.915 653.234 261.036 654.711 260.824 659.144C260.813 659.517 261.116 659.84 261.528 659.865C261.539 659.865 261.555 659.865 261.555 659.865C261.939 659.865 262.27 659.578 262.285 659.205C262.562 653.607 254.495 651.933 254.153 651.872ZM235.555 243.727L196.768 264.494L179.666 243.132C179.427 242.835 178.966 242.774 178.647 242.996C178.328 243.222 178.262 243.655 178.501 243.953L195.984 265.806C196.13 265.981 196.341 266.078 196.568 266.078C196.687 266.078 196.818 266.053 196.926 265.992L236.271 244.931C236.628 244.745 236.747 244.322 236.536 244C236.363 243.655 235.913 243.541 235.555 243.727ZM74.6344 308.849H4.20716C3.79575 308.849 3.48047 309.157 3.48047 309.53C3.48047 309.913 3.81113 310.211 4.20716 310.211H73.9039V442.844C73.9039 443.228 74.2345 443.525 74.6344 443.525C75.0304 443.525 75.3611 443.217 75.3611 442.844V309.53C75.3611 309.157 75.0458 308.849 74.6344 308.849ZM152.978 527.74C152.832 527.392 152.409 527.206 152.021 527.342C151.652 527.478 151.452 527.876 151.598 528.235L173.606 581.683C173.71 581.955 173.991 582.116 174.295 582.116C174.387 582.116 174.468 582.105 174.56 582.07C174.933 581.933 175.133 581.536 174.987 581.177L152.978 527.74ZM118.766 132.516C118.766 124.81 125.48 118.541 133.731 118.541C141.982 118.541 148.695 124.81 148.695 132.516C148.695 140.226 141.982 146.495 133.731 146.495C125.48 146.495 118.766 140.226 118.766 132.516ZM120.239 132.516C120.239 139.47 126.287 145.118 133.731 145.118C141.171 145.118 147.222 139.47 147.222 132.516C147.222 125.566 141.171 119.918 133.731 119.918C126.287 119.918 120.239 125.566 120.239 132.516ZM133.054 648.553C132.643 648.528 132.297 648.811 132.27 649.184C132.243 649.557 132.55 649.89 132.946 649.915C133 649.915 138.106 650.299 140.217 652.815C140.998 653.754 141.263 654.858 141.024 656.184C140.959 656.557 141.224 656.915 141.624 656.976C141.663 656.99 141.701 656.99 141.743 656.99C142.086 656.99 142.405 656.754 142.459 656.421C142.778 654.711 142.405 653.223 141.359 651.973C138.864 648.973 133.292 648.564 133.054 648.553ZM153.828 181.05C153.828 194.344 142.247 205.147 128.025 205.147C113.791 205.147 102.225 194.329 102.225 181.05C102.225 167.753 113.806 156.95 128.025 156.95C142.247 156.95 153.828 167.767 153.828 181.05ZM152.355 181.05C152.355 168.509 141.436 158.312 128.013 158.312C114.587 158.312 103.671 168.509 103.671 181.05C103.671 193.588 114.587 203.785 128.013 203.785C141.436 203.785 152.355 193.588 152.355 181.05ZM254.192 512.909V333.974C254.23 333.888 254.257 333.791 254.257 333.691V289.558C254.257 289.175 253.926 288.877 253.527 288.877C253.119 288.877 252.8 289.186 252.8 289.558V333.691C252.8 333.791 252.827 333.888 252.865 333.974V512.919C252.865 513.267 253.157 513.539 253.527 513.539C253.9 513.539 254.192 513.256 254.192 512.909ZM597.285 289.1H355.324C354.955 289.1 354.663 289.372 354.663 289.72C354.663 290.067 354.955 290.34 355.324 290.34H597.285C597.654 290.34 597.946 290.067 597.946 289.72C597.946 289.372 597.642 289.1 597.285 289.1ZM589.591 349.4H276.131C275.762 349.4 275.469 349.673 275.469 350.021V450.586C275.112 450.601 274.831 450.873 274.831 451.206C274.831 451.543 275.112 451.816 275.469 451.827V512.278C275.469 512.622 275.762 512.894 276.131 512.894C276.504 512.894 276.796 512.622 276.796 512.278V451.827H513.95C514.323 451.827 514.615 451.554 514.615 451.206C514.615 450.859 514.323 450.586 513.95 450.586H276.796V350.651H589.576C589.949 350.651 590.241 350.379 590.241 350.031C590.241 349.687 589.949 349.4 589.591 349.4ZM470.149 394.698C473.809 394.698 476.797 397.486 476.797 400.906C476.797 404.325 473.809 407.113 470.149 407.113H425.709C422.049 407.113 419.065 404.325 419.065 400.906C419.065 397.486 422.049 394.698 425.709 394.698H470.149ZM470.149 395.938H425.709C422.78 395.938 420.392 398.167 420.392 400.906C420.392 403.644 422.78 405.873 425.709 405.873H470.149C473.083 405.873 475.47 403.644 475.47 400.906C475.47 398.167 473.083 395.938 470.149 395.938Z" fill="#3D2513"/>
  <path d="M283.086 655.508C282.89 655.424 282.676 655.372 282.449 655.368C282.655 655.44 282.868 655.485 283.086 655.508Z" fill="#AA7E4D"/>
  <path d="M262.661 652.136C263.503 647.913 264.503 648.136 268.728 646.138C269.179 646.055 268.504 643.332 269.406 643.165C271.558 642.18 273.777 642.462 276.038 642.472C274.629 641.312 273.705 639.71 273.586 638.034C273.378 635.074 275.562 632.375 278.052 630.327C280.542 628.279 283.462 626.571 285.466 624.161C281.117 625.039 276.356 625.672 271.984 624.882C267.612 624.092 263.874 623.408 259.682 622.079C255.87 626.217 253.345 631.285 252.875 636.552C252.405 641.819 254.058 647.263 257.769 651.468C258.207 651.964 258.676 652.439 259.17 652.896C259.224 652.707 259.295 652.518 259.405 652.329C259.835 652.032 260.762 652.108 261.517 652.184C262.177 652.25 262.707 652.318 262.661 652.136Z" fill="#FCCE7D"/>
  <path d="M284.615 644.484C283.873 644.391 283.119 644.487 282.37 644.506C280.24 644.559 278.079 643.963 276.441 642.791C276.3 642.691 276.169 642.581 276.037 642.472C273.775 642.462 271.557 642.18 269.405 643.165C268.503 643.332 269.178 646.055 268.726 646.138C264.501 648.136 263.501 647.914 262.66 652.136C262.705 652.318 262.176 652.251 261.516 652.184C260.76 652.108 259.834 652.032 259.403 652.329C259.294 652.518 259.223 652.708 259.168 652.896C262.855 656.312 268.004 658.576 273.402 658.858C275.897 658.989 278.396 658.714 280.859 658.348C281.935 658.188 283.035 658.002 283.969 657.513C284.901 657.024 285.648 656.165 285.616 655.224C285.59 654.479 284.937 653.761 284.134 653.58C283.916 653.597 283.697 653.592 283.478 653.558C283.701 653.521 283.922 653.533 284.134 653.58C285.59 653.472 286.919 652.327 286.897 651.045C286.871 649.571 285.065 648.324 283.39 648.622C284.24 648.372 285.118 648.107 285.775 647.58C286.433 647.053 286.812 646.186 286.433 645.485C286.115 644.899 285.357 644.575 284.615 644.484Z" fill="#AA7E4D"/>
  <path d="M286.439 645.491C286.438 645.491 286.438 645.491 286.438 645.491C286.438 645.491 286.438 645.491 286.439 645.491ZM268.898 644.691C268.898 643.977 268.954 643.249 269.407 643.165C269.427 643.157 269.444 643.149 269.463 643.141C269.444 643.149 269.427 643.157 269.407 643.165C268.954 643.249 268.898 643.977 268.898 644.691ZM284.518 644.472C284.317 644.452 284.114 644.444 283.911 644.444C284.114 644.444 284.317 644.452 284.518 644.472ZM278.608 643.91H278.607H278.608ZM278.605 643.909C278.085 643.723 277.587 643.496 277.119 643.226C277.587 643.496 278.085 643.723 278.605 643.909ZM269.478 643.134C269.478 643.134 269.478 643.134 269.479 643.133C269.478 643.134 269.478 643.134 269.478 643.134ZM252.871 636.6C252.871 636.596 252.872 636.593 252.872 636.589C252.872 636.593 252.871 636.596 252.871 636.6ZM252.873 636.578C252.873 636.569 252.875 636.56 252.876 636.552C252.875 636.56 252.873 636.569 252.873 636.578Z" fill="#A5A7A6"/>
  <path d="M268.899 644.718C264.735 643.436 260.614 641.686 256.437 639.886C255.447 639.46 254.392 639.263 253.324 639.263C253.158 639.263 252.993 639.268 252.826 639.277C252.782 638.384 252.795 637.49 252.872 636.6C252.872 636.596 252.873 636.593 252.873 636.589C252.873 636.585 252.873 636.581 252.874 636.578C252.874 636.569 252.875 636.56 252.876 636.552C253.142 633.577 254.062 630.666 255.5 627.951C256.972 633.207 260.438 637.981 265.824 640.633C265.825 640.633 265.825 640.634 265.825 640.634C265.829 640.636 265.835 640.639 265.841 640.641C265.843 640.642 265.845 640.643 265.848 640.645C265.852 640.647 265.857 640.649 265.861 640.652C265.864 640.653 265.867 640.654 265.87 640.656C265.875 640.658 265.878 640.66 265.883 640.662C265.887 640.663 265.89 640.665 265.893 640.667C265.897 640.669 265.9 640.671 265.905 640.673C265.909 640.674 265.912 640.676 265.917 640.678C265.92 640.68 265.924 640.682 265.927 640.683C265.931 640.685 265.935 640.688 265.939 640.69C265.942 640.691 265.946 640.693 265.949 640.694C265.955 640.697 265.959 640.699 265.964 640.701C265.967 640.703 265.969 640.704 265.973 640.705C265.98 640.709 265.987 640.713 265.995 640.716C266.017 640.727 266.039 640.737 266.061 640.748C266.086 640.759 266.11 640.771 266.134 640.783C267.859 641.597 269.668 642.164 271.539 642.552C270.846 642.653 270.159 642.83 269.48 643.133C269.478 643.134 269.478 643.134 269.478 643.134C269.474 643.136 269.468 643.138 269.463 643.141C269.445 643.149 269.427 643.157 269.407 643.165C268.955 643.249 268.899 643.977 268.899 644.691C268.899 644.7 268.899 644.71 268.899 644.718Z" fill="#FBC05E"/>
  <path d="M281.088 646.75C276.93 646.75 272.895 645.95 268.898 644.718C268.898 644.71 268.898 644.7 268.898 644.691C268.898 643.977 268.954 643.249 269.407 643.165C269.427 643.157 269.444 643.149 269.463 643.141C269.468 643.138 269.473 643.136 269.478 643.134C269.478 643.134 269.478 643.134 269.479 643.133C270.159 642.83 270.846 642.653 271.538 642.552C273.35 642.927 275.219 643.132 277.119 643.226C277.587 643.496 278.085 643.723 278.606 643.909L278.607 643.91H278.608C279.711 644.305 280.91 644.509 282.108 644.509C282.195 644.509 282.284 644.508 282.372 644.506C282.885 644.493 283.4 644.444 283.911 644.444C284.114 644.444 284.317 644.452 284.518 644.472C284.551 644.476 284.585 644.48 284.617 644.484C285.36 644.575 286.118 644.899 286.435 645.485C286.435 645.487 286.436 645.489 286.438 645.491C286.438 645.491 286.438 645.491 286.439 645.491C286.57 645.737 286.604 646.005 286.57 646.269C284.715 646.601 282.89 646.75 281.088 646.75Z" fill="#945B38"/>
  <path d="M406.967 573.869C412.224 572.098 416.876 568.627 418.799 564.057C420.721 559.485 419.477 553.846 415.142 550.734C412.863 549.098 409.768 548.226 406.857 548.715C403.946 549.203 401.343 551.173 400.753 553.678C400.309 555.562 401.041 557.621 402.634 558.968C404.228 560.314 406.632 560.905 408.81 560.486C410.038 560.249 411.24 559.662 411.823 558.701C412.408 557.741 412.181 556.387 411.123 555.801C410.519 555.467 409.683 555.368 409.326 554.831C408.932 554.239 409.448 553.429 410.193 553.196C410.938 552.963 411.778 553.17 412.468 553.506C414.695 554.588 415.842 556.959 415.555 559.149C415.27 561.337 413.724 563.307 411.714 564.669C409.704 566.029 407.258 566.837 404.782 567.383C406.949 569.408 407.285 571.127 406.967 573.869Z" fill="#AA7E4D"/>
  <path d="M406.094 567.065C407.762 566.625 409.38 566.039 410.825 565.218C409.38 566.039 407.762 566.625 406.094 567.065ZM408.752 560.497C408.771 560.493 408.788 560.489 408.807 560.486C408.924 560.463 409.041 560.437 409.158 560.409C409.041 560.437 408.924 560.463 408.807 560.486C408.788 560.489 408.771 560.493 408.752 560.497ZM415.562 559.059C415.584 558.866 415.595 558.671 415.595 558.478C415.595 558.671 415.584 558.866 415.562 559.059ZM410.89 555.688C410.319 555.436 409.637 555.303 409.321 554.832C408.929 554.239 409.444 553.43 410.19 553.196C410.408 553.128 410.638 553.097 410.867 553.097C411.416 553.097 411.977 553.27 412.464 553.506C411.977 553.27 411.416 553.097 410.867 553.097C410.638 553.097 410.408 553.128 410.19 553.196C409.444 553.43 408.929 554.239 409.321 554.832C409.637 555.303 410.319 555.436 410.89 555.688Z" fill="#D1D2D0"/>
  <path d="M409.765 569.2C408.577 568.444 407.353 567.73 406.097 567.065C407.763 566.625 409.382 566.039 410.827 565.218C411.131 565.045 411.426 564.862 411.713 564.668C413.724 563.307 415.268 561.337 415.554 559.148C415.558 559.118 415.562 559.088 415.565 559.058C415.587 558.866 415.597 558.672 415.597 558.477C415.595 556.491 414.468 554.478 412.466 553.506C411.98 553.27 411.419 553.097 410.87 553.097C410.641 553.097 410.411 553.127 410.193 553.196C409.446 553.43 408.931 554.238 409.324 554.832C409.638 555.303 410.322 555.436 410.892 555.688C410.971 555.723 411.048 555.761 411.121 555.802C412.179 556.387 412.406 557.741 411.822 558.701C411.294 559.569 410.261 560.133 409.16 560.408C409.043 560.437 408.927 560.463 408.809 560.485C408.79 560.489 408.773 560.492 408.754 560.496C408.308 560.578 407.854 560.618 407.399 560.618C406.596 560.618 405.792 560.493 405.035 560.258C405.922 559.976 406.736 559.483 407.38 558.73C409.01 556.642 405.658 554.851 405.992 552.62C406.661 550.918 408.611 550.138 410.571 550.138C411.741 550.138 412.911 550.415 413.817 550.94C418.579 554.306 418.388 559.957 416.058 564.52C414.649 566.839 412.389 568.344 409.765 569.2Z" fill="#9E6C42"/>
  <path d="M303.723 580.918C317.491 582.309 330.925 577.212 343.365 571.939C355.802 566.667 368.691 560.962 382.554 561.022C398.392 561.091 413.41 569.127 422.266 580.439C431.125 591.753 434.221 605.941 432.896 619.538C432.419 624.444 431.253 629.58 427.487 633.282C422.513 638.174 414.344 639.369 406.839 640.058C377.901 642.716 348.716 642.36 319.616 642.002C317.491 641.976 315.221 641.912 313.475 640.867C311.42 639.636 310.626 637.379 310.023 635.286C304.871 617.426 303.598 598.741 306.288 580.485L303.723 580.918Z" fill="#FCCE7D"/>
  <path d="M331.983 650.891C331.474 646.07 327.913 646.947 323.843 646.07C323.843 646.07 323.843 645.193 323.843 644.755C323.323 644.307 322.737 644.062 322.109 643.933C321.047 644.292 319.95 644.58 318.831 644.779C314.741 645.506 310.511 645.148 306.338 644.984C305.313 644.943 304.258 644.918 303.29 645.212C302.322 645.507 301.446 646.192 301.311 647.069C301.175 647.946 302.038 648.911 303.057 648.812C301.29 648.807 300.345 650.903 301.176 652.246C302.008 653.59 303.867 654.204 305.617 654.42C304.539 654.578 303.42 654.75 302.526 655.293C301.633 655.835 301.035 656.862 301.438 657.739C301.879 658.697 303.224 659.043 304.4 659.231C317.014 661.249 330.422 658.778 341.205 652.828C341.057 652.619 340.87 652.411 340.631 652.205C339.681 651.183 337.846 651.497 336.106 651.811C334.118 652.169 332.254 652.528 331.983 650.891Z" fill="#AA7E4D"/>
  <path d="M358.513 619.245L357.244 618.744C349.639 619.833 342.127 621.409 334.796 623.467C335.994 628.06 334.964 633.052 332.002 637.007C329.659 640.134 326.13 642.577 322.109 643.933C322.737 644.061 323.323 644.307 323.842 644.755C323.842 645.193 323.842 646.07 323.842 646.07C327.913 646.947 331.474 646.07 331.983 650.891C332.254 652.528 334.118 652.169 336.106 651.811C337.846 651.497 339.681 651.183 340.632 652.205C340.87 652.411 341.057 652.619 341.205 652.828C344.921 650.777 348.328 648.316 351.28 645.48C355.227 641.687 358.431 637.21 359.796 632.254C360.986 627.941 360.677 623.241 358.513 619.245Z" fill="#FCCE7D"/>
  <path d="M302.88 648.819C302.588 648.813 302.314 648.721 302.078 648.573C302.314 648.721 302.589 648.813 302.881 648.819H302.88ZM313.12 645.217C310.863 645.217 308.593 645.073 306.338 644.984C306.012 644.971 305.684 644.96 305.356 644.96C304.99 644.96 304.625 644.974 304.266 645.016C304.625 644.974 304.99 644.96 305.357 644.96C305.684 644.96 306.012 644.971 306.338 644.984C308.593 645.073 310.863 645.217 313.12 645.217C315.02 645.217 316.91 645.115 318.772 644.788C316.91 645.115 315.02 645.217 313.12 645.217ZM318.83 644.779C319.666 644.63 320.487 644.432 321.292 644.193C320.487 644.432 319.666 644.63 318.83 644.779Z" fill="#A5A7A6"/>
  <path d="M307.536 651.104C305.331 651.104 303.137 650.893 300.961 650.507C301.195 649.643 301.896 648.897 302.884 648.818H302.883H302.884C302.592 648.812 302.317 648.721 302.081 648.573C301.558 648.244 301.225 647.638 301.314 647.069C301.449 646.192 302.324 645.507 303.292 645.212C303.61 645.116 303.937 645.054 304.269 645.016C304.627 644.973 304.993 644.959 305.358 644.959C305.686 644.959 306.015 644.97 306.341 644.984C308.595 645.073 310.866 645.217 313.123 645.217C315.022 645.217 316.913 645.115 318.775 644.788C318.795 644.785 318.814 644.782 318.833 644.779C319.669 644.63 320.489 644.432 321.295 644.193C321.569 644.112 321.841 644.025 322.112 643.933C322.739 644.062 323.326 644.307 323.845 644.755C323.845 645.193 323.845 646.07 323.845 646.07C324.65 646.243 325.435 646.348 326.18 646.442C322.52 647.717 318.907 649.257 315.076 650.228C312.557 650.831 310.041 651.104 307.536 651.104Z" fill="#945B38"/>
  <path d="M351.109 645.638C351.165 645.586 351.22 645.533 351.276 645.48C352.349 644.448 353.366 643.367 354.308 642.239C353.367 643.367 352.349 644.448 351.276 645.48C351.22 645.533 351.165 645.586 351.109 645.638Z" fill="#A5A7A6"/>
  <path d="M354.309 642.239C356.83 639.218 358.8 635.864 359.794 632.254C360.695 628.988 360.736 625.498 359.764 622.263C360.736 625.498 360.695 628.988 359.794 632.254C358.8 635.864 356.83 639.218 354.309 642.239Z" fill="#FBC05E"/>
  <path d="M348.173 648.189C345.454 646.028 341.809 644.593 338.159 644.262C337.801 644.244 337.446 644.236 337.093 644.236C333.252 644.236 329.691 645.217 326.177 646.442C325.431 646.348 324.648 646.243 323.844 646.07C323.844 646.07 323.844 645.193 323.844 644.755C323.323 644.307 322.737 644.062 322.109 643.933C322.89 643.67 323.653 643.365 324.392 643.023C330.615 642.84 336.74 642.182 342.656 640.451C342.715 640.434 342.775 640.416 342.835 640.399C349.877 638.312 356.748 634.254 358.973 628.132C359.555 626.527 359.789 624.865 359.788 623.189C359.788 622.88 359.781 622.571 359.766 622.263C360.738 625.498 360.697 628.988 359.796 632.254C358.802 635.864 356.832 639.218 354.311 642.239C353.369 643.367 352.352 644.448 351.278 645.48C351.224 645.533 351.168 645.587 351.112 645.639C350.176 646.528 349.194 647.376 348.173 648.189Z" fill="#FBC05E"/>
  <path d="M286.052 583.987C284.955 580.078 283.358 576.275 281.298 572.666C280.51 571.286 279.525 569.844 278.099 568.994C278.469 570.875 278.348 573.189 278.078 575.218C280.1 578.323 281.469 581.682 282.224 585.175C283.593 584.889 285.077 584.484 286.052 583.987Z" fill="#713C2F"/>
  <path d="M278.078 575.218C277.735 577.783 277.157 579.888 277.031 580.093C278.306 581.53 280.357 583.703 280.424 585.497C280.954 585.419 281.576 585.311 282.224 585.175C281.468 581.682 280.099 578.324 278.078 575.218Z" fill="#4C251E"/>
  <path d="M276.687 568.405C275.003 567.978 273.147 568.446 271.699 569.302C270.25 570.157 269.138 571.364 268.074 572.568C264.069 577.1 260.424 581.857 256.782 586.61C255.091 588.818 253.346 591.15 253.096 593.786C252.842 596.462 254.491 599.361 257.408 600.3C260.077 601.161 263.08 600.279 265.544 599.046C270.015 596.805 273.593 593.328 275.797 589.309C277.003 587.111 277.899 584.708 278.057 582.249C278.218 579.734 278.451 577.215 278.509 574.697C278.531 573.731 278.522 572.765 278.457 571.8C278.426 571.331 278.382 570.863 278.323 570.396C278.295 570.177 278.294 569.11 278.098 568.994C277.67 568.738 277.203 568.535 276.687 568.405Z" fill="#713C2F"/>
  <path d="M253.094 593.785C253.095 593.781 253.095 593.776 253.096 593.771C253.095 593.776 253.095 593.781 253.094 593.785Z" fill="#D1D2D0"/>
  <path d="M259.691 600.644C258.917 600.644 258.15 600.54 257.409 600.301C254.688 599.424 253.07 596.842 253.07 594.329C253.07 594.148 253.08 593.966 253.096 593.786C253.097 593.781 253.097 593.776 253.098 593.771C253.159 593.143 253.307 592.533 253.515 591.938C253.884 592.887 254.486 593.791 255.385 594.629C256.392 595.58 257.612 595.962 258.875 595.962C260.656 595.962 262.523 595.2 264 594.189C271.019 588.968 276.088 582.242 278.507 574.747C278.446 577.248 278.217 579.751 278.057 582.249C277.991 583.274 277.798 584.289 277.506 585.284C273.269 588.779 269.522 592.772 266.166 596.935C265.851 597.321 265.542 597.706 265.237 598.096C264.94 598.474 264.648 598.854 264.362 599.235C264.231 599.405 264.103 599.575 263.974 599.745C262.603 600.28 261.134 600.644 259.691 600.644Z" fill="#5D3127"/>
  <path d="M259.047 592.833C258.538 592.833 258.033 592.729 257.642 592.457C256.936 591.969 256.797 591.056 257.064 590.31C257.33 589.563 257.923 588.942 258.493 588.336C259.749 586.999 260.965 585.634 262.138 584.241C264.272 581.712 266.267 579.094 268.112 576.4C268.771 575.438 269.383 573.851 270.422 573.14C270.649 572.985 270.885 572.919 271.12 572.919C271.99 572.919 272.837 573.828 273.112 574.477C273.522 575.45 273.358 576.532 273.058 577.534C272.197 580.431 270.299 583.007 268.358 585.486C266.881 587.373 265.352 589.249 263.461 590.837C262.374 591.75 261.098 592.591 259.599 592.794C259.418 592.82 259.232 592.833 259.047 592.833Z" fill="#854637"/>
  <path d="M308.684 566.344C308.523 569.222 309.367 571.899 311.176 574.32C311.538 574.805 310.619 575.223 310.259 574.741C308.359 572.198 307.478 569.328 307.645 566.309C307.678 565.734 308.716 565.768 308.684 566.344Z" fill="#713C2F"/>
  <path d="M303.7 566.4C304.456 568.983 305.839 571.302 307.836 573.336C308.269 573.775 307.5 574.377 307.066 573.936C304.957 571.79 303.483 569.322 302.686 566.594C302.522 566.035 303.537 565.842 303.7 566.4Z" fill="#713C2F"/>
  <path d="M299.242 568.73C300.574 571.161 302.701 573.129 305.416 574.454C305.995 574.737 305.554 575.547 304.971 575.263C302.003 573.816 299.722 571.695 298.266 569.04C297.981 568.518 298.959 568.212 299.242 568.73Z" fill="#713C2F"/>
  <path d="M328.836 583.725C330.999 580.012 333.635 576.503 336.683 573.284C337.849 572.051 339.232 570.798 340.897 570.228C340.015 572.047 339.511 574.4 339.236 576.497C336.36 579.22 334.074 582.325 332.368 585.69C331.07 585.128 329.683 584.422 328.836 583.725Z" fill="#713C2F"/>
  <path d="M339.233 576.497C338.884 579.149 338.898 581.384 338.969 581.616C337.296 582.806 334.645 584.582 334.091 586.377C333.58 586.19 332.982 585.956 332.367 585.69C334.072 582.325 336.358 579.219 339.233 576.497Z" fill="#4C251E"/>
  <path d="M358.973 628.132C356.748 634.254 349.877 638.312 342.835 640.399C332.111 643.576 320.699 643.211 309.25 642.845C303.639 642.666 298.02 642.487 292.469 642.726C283.485 643.113 273.844 644.491 265.994 640.716C257.863 636.81 254.042 628.099 254.776 620.104C254.78 620.048 254.788 619.991 254.793 619.935C255.062 617.205 255.768 614.543 256.794 611.964C258.578 607.48 261.315 603.228 264.361 599.234C264.648 598.854 264.94 598.474 265.237 598.097C265.542 597.706 265.851 597.321 266.165 596.934C272.79 588.72 280.939 581.159 291.363 576.802C298.124 573.978 305.895 572.705 313.37 573.553C324.583 574.827 333.597 580.698 341.109 587.646C349.81 595.691 356.054 605.73 358.807 616.48C359.79 620.316 360.334 624.38 358.973 628.132Z" fill="#FCCE7D"/>
  <path d="M265.158 589.852C265.146 589.846 265.133 589.839 265.121 589.833C265.143 589.885 265.154 589.885 265.158 589.852Z" fill="#713C2F"/>
  <path d="M285.667 606.109C290.096 604.229 295.215 604.589 299.244 607.042C299.792 607.376 300.123 606.923 299.577 606.59C295.246 603.953 289.945 603.295 285.192 605.313C284.591 605.568 285.065 606.365 285.667 606.109Z" fill="#F9AE54"/>
  <path d="M287.788 602.856C291.247 601.659 295.08 601.749 298.011 603.713C298.539 604.067 299.009 603.726 298.484 603.374C295.251 601.207 291.101 600.749 287.313 602.059C286.693 602.274 287.17 603.069 287.788 602.856Z" fill="#F9AE54"/>
  <path d="M289.979 582.383C291.767 587.84 292.263 593.511 290.296 598.918C290.096 599.466 290.503 599.606 290.7 599.063C292.724 593.501 292.793 587.682 290.955 582.077C290.773 581.522 289.798 581.83 289.979 582.383Z" fill="#F9AE54"/>
  <path d="M294.934 582.459C294.945 584.855 294.958 587.364 294.05 589.629C293.835 590.167 294.316 590.375 294.533 589.832C295.504 587.41 295.981 584.942 295.968 582.379C295.965 581.803 294.93 581.887 294.934 582.459Z" fill="#F9AE54"/>
  <path d="M300.861 585.287C298.761 590.094 297.126 595.019 295.967 600.057C295.838 600.622 296.461 600.676 296.592 600.111C297.734 595.151 299.73 590.407 301.798 585.674C302.032 585.139 301.096 584.749 300.861 585.287Z" fill="#F9AE54"/>
  <path d="M273.934 640.765C288.532 641.256 305.551 645.207 317.901 636.131C318.406 635.76 318.16 635.605 317.65 635.98C305.475 644.926 288.36 640.6 273.968 640.116C273.301 640.093 273.274 640.743 273.934 640.765Z" fill="#F9AE54"/>
  <path d="M298.225 624.711C298.792 625.42 297.453 626.1 296.861 625.475C296.601 625.202 296.637 624.753 296.943 624.518C297.368 624.193 297.959 624.377 298.225 624.711Z" fill="#4C251E"/>
  <path d="M275.124 623.812C274.631 628.342 276.266 633.305 280.506 636.018C283.851 638.158 288.275 638.605 292.435 638.399C296.267 638.209 300.236 637.455 303.175 635.329C307.055 632.52 308.424 627.704 307.567 623.4C306.713 619.095 303.937 615.242 300.7 611.881C299.388 610.52 297.968 609.201 296.213 608.283C286.049 602.96 275.919 616.512 275.124 623.812Z" fill="#AA7E4D"/>
  <path d="M279.694 624.868C279.085 625.551 280.379 626.291 281.01 625.695C281.286 625.434 281.279 624.984 280.986 624.736C280.582 624.39 279.981 624.548 279.694 624.868Z" fill="#4C251E"/>
  <path d="M300.519 624.733C299.909 625.416 301.203 626.156 301.834 625.559C302.11 625.298 302.103 624.849 301.811 624.601C301.407 624.255 300.805 624.413 300.519 624.733Z" fill="#4C251E"/>
  <path d="M284.996 623.906C284.837 624.316 285.311 624.8 285.808 624.734C286.305 624.668 286.587 624.084 286.292 623.734C285.997 623.383 285.265 623.433 285.038 623.819L284.996 623.906Z" fill="#4C251E"/>
  <path d="M284.048 627.065C284.419 626.883 284.964 627.155 284.964 627.523C284.966 627.89 284.422 628.164 284.05 627.985C283.678 627.804 283.669 627.261 284.034 627.071" fill="#4C251E"/>
  <path d="M296.773 623.5C296.906 623.917 296.403 624.378 295.912 624.29C295.419 624.202 295.173 623.605 295.489 623.269C295.806 622.932 296.533 623.016 296.737 623.411L296.773 623.5Z" fill="#4C251E"/>
  <path d="M297.523 626.698C297.164 626.499 296.602 626.747 296.579 627.114C296.556 627.48 297.082 627.78 297.463 627.617C297.845 627.453 297.888 626.911 297.536 626.706" fill="#4C251E"/>
  <path d="M276.155 630.87C275.661 629.76 275.328 628.583 275.148 627.386C275.161 627.402 275.174 627.418 275.186 627.435C275.357 628.614 275.677 629.774 276.155 630.87ZM305.825 618.66C304.521 616.219 302.699 613.957 300.7 611.881C299.388 610.521 297.968 609.201 296.213 608.283C294.613 607.444 293.011 607.074 291.449 607.074C290.369 607.074 289.305 607.252 288.273 607.572C288.262 607.572 288.251 607.572 288.24 607.572C288.156 607.572 288.073 607.573 287.989 607.575C288.968 607.136 290.054 606.94 291.154 606.94C292.536 606.94 293.941 607.25 295.185 607.777C297.425 608.728 299.218 610.293 300.816 611.941C302.804 613.987 304.572 616.227 305.825 618.66Z" fill="#FBC66E"/>
  <path d="M290.687 637.055C288.059 637.055 285.406 636.73 282.946 636.17C281.407 635.647 279.877 635.013 278.425 634.257C277.458 633.256 276.705 632.105 276.153 630.87C275.675 629.774 275.355 628.614 275.184 627.435C275.787 628.222 276.46 628.962 277.21 629.619C277.743 630.087 278.312 630.516 278.924 630.899C280.214 631.702 281.679 632.29 283.338 632.573C283.4 632.584 283.461 632.592 283.522 632.603C283.566 632.604 283.609 632.605 283.652 632.605C286.162 632.605 288.339 630.996 290.102 630.479C290.113 630.481 290.126 630.485 290.139 630.487C290.138 630.481 290.138 630.475 290.137 630.469C290.266 630.432 290.393 630.401 290.518 630.377C290.912 630.302 291.305 630.267 291.696 630.267C291.815 630.267 291.932 630.271 292.051 630.277C293.531 631.147 294.765 631.898 296.554 631.898C296.621 631.898 296.688 631.897 296.756 631.895C297.112 631.885 297.46 631.843 297.796 631.778C298.374 631.948 298.949 632.097 299.528 632.191C299.961 632.263 300.397 632.304 300.834 632.304C301.272 632.304 301.711 632.263 302.153 632.167C304.748 631.602 305.143 628.4 305.234 626.498C305.476 621.513 302.68 616.683 299.05 612.941C297.643 611.495 296.066 610.148 294.202 609.15C292.424 608.2 290.365 607.579 288.271 607.572C289.303 607.252 290.367 607.074 291.447 607.074C293.009 607.074 294.611 607.444 296.211 608.283C297.966 609.201 299.386 610.521 300.698 611.881C302.696 613.957 304.519 616.219 305.823 618.66C306.237 619.465 306.594 620.29 306.884 621.135C307.125 621.845 307.317 622.572 307.45 623.31C307.726 624.795 307.769 626.321 307.549 627.805C307.067 629.079 306.341 630.316 305.263 631.514C301.978 635.523 296.388 637.055 290.687 637.055Z" fill="#9E6C42"/>
  <path d="M290.415 638.443C290.4 638.443 290.385 638.443 290.37 638.443C290.385 638.443 290.4 638.443 290.415 638.443ZM290.119 638.44C289.816 638.435 289.513 638.426 289.21 638.412C289.513 638.426 289.816 638.435 290.119 638.44ZM289.188 638.41C289.073 638.406 288.958 638.399 288.844 638.392C288.958 638.399 289.073 638.406 289.188 638.41ZM303.186 635.319C303.188 635.318 303.19 635.316 303.191 635.315C303.19 635.316 303.188 635.318 303.186 635.319ZM303.198 635.31C304.702 634.216 305.827 632.819 306.589 631.267C305.853 632.796 304.744 634.184 303.198 635.31Z" fill="#FBC05E"/>
  <path d="M290.647 638.445C290.57 638.445 290.493 638.444 290.415 638.443C290.399 638.443 290.384 638.443 290.369 638.443C290.285 638.443 290.203 638.441 290.119 638.44C289.815 638.435 289.512 638.426 289.21 638.412C289.203 638.412 289.195 638.411 289.188 638.41C289.073 638.406 288.957 638.399 288.843 638.392C285.839 638.214 282.896 637.548 280.504 636.018C279.744 635.531 279.067 634.971 278.473 634.356C279.924 635.111 281.458 635.746 282.996 636.269C285.456 636.828 288.106 637.153 290.735 637.153C296.436 637.153 302.025 635.62 305.312 631.611C306.388 630.413 307.115 629.175 307.6 627.904C307.431 629.066 307.101 630.2 306.588 631.267C305.826 632.818 304.702 634.215 303.198 635.31C303.196 635.311 303.193 635.313 303.191 635.315C303.19 635.316 303.187 635.318 303.185 635.319C303.182 635.323 303.177 635.326 303.172 635.329C303 635.453 302.824 635.573 302.645 635.688C299.769 637.541 296.04 638.22 292.433 638.399C291.841 638.428 291.246 638.445 290.647 638.445Z" fill="#945B38"/>
  <path d="M303.736 626.826C303.273 629.183 301.773 631.224 299.527 632.191C299.211 632.325 298.879 632.438 298.537 632.531C297.137 632.9 295.632 632.863 294.227 632.434C293.553 632.227 292.944 631.921 292.344 631.561C292.024 631.372 291.726 631.079 291.378 630.933C290.987 630.765 290.572 630.696 290.152 630.711C289.842 630.725 289.533 630.776 289.226 630.858C288.851 630.962 288.482 631.116 288.152 631.3C285.488 632.763 282.901 634.628 279.745 632.838C278.396 632.083 277.555 630.919 277.209 629.619C276.91 628.511 276.973 627.304 277.393 626.16C277.591 625.623 278.438 626.003 278.246 626.541C277.621 628.247 277.991 629.793 278.924 630.898C279.926 632.083 281.573 632.761 283.337 632.573C283.797 632.528 284.259 632.422 284.723 632.248C286.217 631.696 287.622 630.045 289.237 629.612C289.53 629.535 289.833 629.497 290.14 629.514L290.159 629.517C290.817 629.557 291.361 629.868 291.913 630.195C291.962 630.223 292.006 630.248 292.05 630.277C293.584 631.179 294.857 631.953 296.755 631.895C297.111 631.885 297.459 631.842 297.795 631.778C300.411 631.276 302.317 629.225 302.817 626.67C302.928 626.107 303.847 626.263 303.736 626.826Z" fill="#4C251E"/>
  <path d="M290.136 630.487C289.79 630.412 289.442 630.369 289.095 630.362C289.063 629.966 289.038 629.567 289.016 629.171C288.687 623.673 288.819 618.167 289.411 612.675C289.472 612.1 290.508 612.157 290.447 612.731C289.855 618.227 289.715 623.736 290.051 629.243C290.077 629.655 290.101 630.071 290.136 630.487Z" fill="#4C251E"/>
  <path d="M293.516 613.792C294.342 613.29 295.104 612.52 294.988 611.655C294.881 610.853 294.054 610.268 293.217 609.907C291.449 609.147 289.336 609.002 287.451 609.514C286.393 609.802 285.322 610.38 285.031 611.302C284.766 612.144 285.241 613.055 285.971 613.658C288.169 615.474 291.133 615.243 293.516 613.792Z" fill="#4C251E"/>
  <path d="M289.19 613.733C289.19 613.733 289.19 613.733 289.189 613.733C288.168 613.733 287.141 613.52 286.251 613.066C286.241 613.061 286.23 613.056 286.22 613.05C285.69 612.649 285.26 612.142 284.969 611.591C284.982 611.494 284.999 611.397 285.029 611.302C285.117 611.028 285.278 610.787 285.482 610.572C285.77 611.519 286.473 612.282 287.567 612.589C288.15 612.753 288.774 612.848 289.394 612.848C289.792 612.848 290.189 612.809 290.573 612.722C291.341 612.551 292.414 612.117 292.844 611.503C293.114 611.116 293.283 610.518 293.215 609.907C293.67 610.104 294.118 610.369 294.454 610.696C294.45 610.707 294.447 610.717 294.444 610.727C294.443 610.729 294.443 610.73 294.443 610.731C294.441 610.737 294.438 610.743 294.437 610.749C294.436 610.751 294.436 610.752 294.435 610.754C293.822 612.628 291.519 613.732 289.193 613.733C289.191 613.733 289.191 613.733 289.19 613.733Z" fill="#3F1F1A"/>
  <path d="M289.195 614.937C288.048 614.857 286.934 614.456 285.968 613.658C285.92 613.618 285.873 613.576 285.826 613.534C285.873 613.576 285.92 613.618 285.968 613.658C286.934 614.456 288.048 614.857 289.195 614.937ZM285.821 613.529C285.821 613.528 285.82 613.528 285.82 613.528C285.82 613.528 285.821 613.528 285.821 613.529ZM294.934 612.24C294.992 612.052 295.012 611.855 294.985 611.655C294.982 611.632 294.978 611.609 294.975 611.586C294.978 611.608 294.982 611.632 294.985 611.655C295.012 611.855 294.992 612.052 294.934 612.24Z" fill="#945B38"/>
  <path d="M289.614 614.95C289.475 614.95 289.335 614.946 289.195 614.937C289.335 614.946 289.475 614.95 289.614 614.95Z" fill="#331916"/>
  <path d="M289.614 614.95C289.475 614.95 289.335 614.946 289.195 614.937C288.049 614.857 286.935 614.456 285.969 613.658C285.921 613.618 285.873 613.576 285.827 613.534C285.826 613.532 285.823 613.53 285.822 613.529C285.822 613.528 285.821 613.528 285.821 613.528C285.255 613.002 284.884 612.287 284.969 611.591C285.26 612.142 285.691 612.649 286.22 613.05C286.231 613.056 286.241 613.061 286.252 613.066C287.142 613.52 288.168 613.733 289.19 613.733C289.191 613.733 289.191 613.733 289.191 613.733C289.192 613.733 289.192 613.733 289.193 613.733C291.52 613.733 293.822 612.629 294.435 610.754C294.436 610.752 294.436 610.751 294.438 610.749C294.439 610.743 294.441 610.737 294.443 610.731C294.443 610.73 294.443 610.729 294.445 610.727C294.447 610.717 294.45 610.707 294.454 610.696C294.717 610.954 294.911 611.249 294.975 611.586C294.979 611.609 294.982 611.632 294.986 611.655C295.013 611.855 294.993 612.052 294.935 612.24C294.75 612.847 294.178 613.378 293.562 613.763C293.546 613.773 293.53 613.783 293.515 613.792C293.486 613.809 293.458 613.826 293.429 613.843C292.241 614.548 290.916 614.95 289.614 614.95Z" fill="#331916"/>
  <path d="M289.189 613.733C289.189 613.733 289.189 613.733 289.188 613.733C289.189 613.733 289.189 613.733 289.189 613.733ZM289.191 613.733C291.518 613.732 293.82 612.628 294.433 610.754C293.82 612.629 291.518 613.733 289.191 613.733ZM294.436 610.749C294.437 610.743 294.439 610.737 294.441 610.731C294.439 610.737 294.437 610.743 294.436 610.749ZM294.443 610.727C294.445 610.717 294.448 610.707 294.452 610.696C294.448 610.707 294.445 610.717 294.443 610.727Z" fill="#2A1513"/>
  <path d="M289.924 611.066C289.239 611.066 288.546 611.004 287.876 610.892C287.558 610.839 287.2 610.751 287.097 610.572C286.994 610.394 287.206 610.217 287.462 610.114C287.825 609.965 288.284 609.905 288.738 609.873C289.083 609.847 289.475 609.829 289.871 609.829C290.406 609.829 290.95 609.863 291.41 609.965C291.992 610.096 292.557 610.547 291.989 610.811C291.82 610.89 291.605 610.931 291.389 610.962C290.915 611.033 290.422 611.066 289.924 611.066Z" fill="#683328"/>
  <path d="M330.716 606.549C333.519 611.001 334.13 616.673 331.281 621.102C329.719 623.528 326.93 625.568 323.712 625.662C320.378 625.761 317.443 623.824 315.144 621.743C311.795 618.709 309.121 615.18 306.468 611.674C305.247 610.061 304.017 608.43 303.244 606.623C302.471 604.816 302.186 602.792 302.891 600.964C303.905 598.337 306.862 596.513 309.998 595.909C318.694 594.237 326.809 600.344 330.716 606.549Z" fill="#AA7E4D"/>
  <path d="M320.142 620.827C314.262 620.827 309.229 615.4 308.177 610.465C307.62 607.853 308.006 604.151 310.213 602.147C311.586 600.9 313.747 599.939 315.703 599.624C316.421 599.509 317.133 599.454 317.834 599.454C321.587 599.454 325.012 601.045 327.212 603.576C331.438 608.857 330.837 616.885 324.629 619.733C323.114 620.492 321.602 620.827 320.142 620.827Z" fill="#9E6C42"/>
  <path d="M319.909 586.54C318.648 586.142 317.114 586.168 315.982 586.845C314.807 587.547 314.191 588.87 315.115 589.938C315.546 590.437 316.177 590.776 316.817 591.06C319.31 592.171 321.825 593.261 324.194 594.569C326.468 595.824 328.609 597.25 330.588 598.832C331.294 599.398 332.419 598.85 332.66 598.122C332.878 597.461 331.869 596.405 331.489 595.916C330.464 594.597 329.273 593.367 328.039 592.191C326.327 590.559 324.581 588.892 322.437 587.668C321.772 587.287 320.867 586.844 319.909 586.54Z" fill="#713C2F"/>
  <path d="M310.895 586.904C310.4 588.843 311.799 590.687 313.964 592.013C314.426 592.297 313.743 592.81 313.277 592.524C310.847 591.035 309.791 588.986 310.349 586.804C310.455 586.387 310.895 586.904 310.895 586.904Z" fill="#F9AE54"/>
  <path d="M286.868 586.481C287.274 588.437 285.793 590.232 283.57 591.485C283.096 591.753 283.756 592.287 284.234 592.018C286.729 590.611 287.876 588.599 287.419 586.4C287.331 585.98 286.868 586.481 286.868 586.481Z" fill="#F9AE54"/>
  <path d="M283.935 607.268C282.884 608.964 281.406 610.438 279.942 611.894C276.759 615.056 273.554 618.235 269.756 620.848C267.152 622.64 263.933 624.216 260.651 623.724C258.159 623.354 256.119 621.827 254.793 619.935C255.062 617.204 255.768 614.543 256.794 611.965C258.578 607.479 261.316 603.229 264.362 599.233C264.648 598.854 264.94 598.473 265.237 598.096C265.542 597.706 265.851 597.32 266.166 596.935C270.157 595.166 274.636 594.48 278.941 595.859C281.951 596.826 284.591 598.98 285.183 601.704C285.59 603.594 284.987 605.566 283.935 607.268Z" fill="#AA7E4D"/>
  <path d="M266.089 619.42C264.268 619.42 262.423 618.917 260.679 617.742C258.443 616.348 257.186 614.268 256.793 611.965C258.577 607.48 261.315 603.228 264.361 599.234C265.83 598.667 267.43 598.36 269.072 598.36C270.27 598.36 271.49 598.524 272.698 598.869C274.586 599.411 276.576 600.619 277.742 602.015C279.608 604.258 279.407 607.973 278.441 610.494C276.738 614.948 271.519 619.42 266.089 619.42Z" fill="#9E6C42"/>
  <path d="M277.875 585.818C279.154 585.462 280.686 585.539 281.787 586.253C282.929 586.994 283.485 588.337 282.513 589.374C282.061 589.856 281.415 590.174 280.763 590.438C278.221 591.463 275.658 592.468 273.231 593.696C270.903 594.873 268.699 596.228 266.65 597.742C265.919 598.283 264.819 597.699 264.612 596.961C264.424 596.294 265.479 595.274 265.881 594.798C266.966 593.514 268.21 592.325 269.496 591.191C271.281 589.617 273.102 588.009 275.298 586.86C275.981 586.502 276.904 586.087 277.875 585.818Z" fill="#713C2F"/>
  <path d="M279.9 643.291H279.898H279.9ZM279.902 643.291C283.197 643.291 286.555 643.049 289.857 642.859C286.555 643.049 283.197 643.291 279.902 643.291ZM320.242 643.08C320.212 643.08 320.183 643.08 320.154 643.08C320.183 643.08 320.212 643.08 320.242 643.08ZM320.49 643.08C321.794 643.078 323.094 643.061 324.389 643.023C323.094 643.061 321.794 643.078 320.49 643.08ZM309.439 642.851C309.375 642.849 309.311 642.847 309.248 642.845C309.311 642.847 309.375 642.849 309.439 642.851ZM309.047 642.839C308.978 642.836 308.912 642.835 308.844 642.832C308.912 642.835 308.978 642.836 309.047 642.839ZM308.462 642.82C308.417 642.818 308.373 642.817 308.327 642.816C308.373 642.817 308.417 642.818 308.462 642.82ZM292.169 642.739C292.181 642.738 292.193 642.738 292.206 642.737C292.193 642.738 292.181 642.738 292.169 642.739ZM292.235 642.736C292.312 642.732 292.39 642.729 292.466 642.725C292.39 642.729 292.312 642.732 292.235 642.736ZM292.548 642.722C294.436 642.643 296.331 642.611 298.23 642.611C296.331 642.611 294.435 642.643 292.548 642.722ZM298.234 642.611C298.234 642.611 298.233 642.611 298.231 642.611C298.233 642.611 298.234 642.611 298.234 642.611Z" fill="#D1D2D0"/>
  <path d="M266.131 640.782C266.107 640.77 266.082 640.758 266.058 640.747C266.082 640.758 266.107 640.77 266.131 640.782ZM265.991 640.715C265.983 640.712 265.976 640.708 265.969 640.704C265.976 640.708 265.983 640.712 265.991 640.715ZM265.961 640.7C265.955 640.698 265.952 640.696 265.946 640.693C265.951 640.695 265.956 640.698 265.961 640.7ZM265.936 640.689C265.932 640.687 265.927 640.684 265.924 640.682C265.927 640.684 265.932 640.687 265.936 640.689ZM265.913 640.677C265.909 640.675 265.905 640.673 265.902 640.672C265.905 640.673 265.91 640.675 265.913 640.677ZM265.89 640.666C265.887 640.664 265.883 640.662 265.88 640.661C265.883 640.662 265.887 640.664 265.89 640.666ZM265.867 640.656C265.863 640.654 265.861 640.653 265.858 640.652C265.861 640.653 265.865 640.654 265.867 640.656ZM265.845 640.645C265.841 640.643 265.84 640.642 265.838 640.641C265.84 640.642 265.841 640.643 265.845 640.645ZM265.821 640.634C265.821 640.634 265.821 640.633 265.82 640.633C265.821 640.634 265.821 640.634 265.821 640.634Z" fill="#FAB74F"/>
  <path d="M324.391 643.022C330.614 642.84 336.739 642.181 342.655 640.451C336.739 642.182 330.614 642.84 324.391 643.022Z" fill="#FAB74F"/>
  <path d="M279.899 643.291H279.898C275.05 643.291 270.337 642.767 266.131 640.783C266.107 640.771 266.082 640.759 266.058 640.748C266.036 640.737 266.013 640.727 265.991 640.716C265.984 640.712 265.976 640.709 265.969 640.705C265.966 640.704 265.963 640.703 265.961 640.701C265.956 640.699 265.951 640.696 265.946 640.694C265.942 640.693 265.939 640.691 265.935 640.69C265.932 640.688 265.927 640.685 265.924 640.683C265.92 640.681 265.917 640.68 265.913 640.678C265.91 640.676 265.905 640.674 265.902 640.673C265.897 640.671 265.894 640.668 265.89 640.666C265.887 640.664 265.883 640.662 265.88 640.661C265.875 640.659 265.871 640.657 265.867 640.655C265.864 640.653 265.861 640.652 265.859 640.651C265.854 640.648 265.848 640.646 265.845 640.644C265.841 640.642 265.84 640.641 265.838 640.64C265.832 640.638 265.827 640.635 265.821 640.632C265.821 640.632 265.821 640.632 265.82 640.632C262.267 638.883 259.553 636.208 257.691 633.083C261.96 636.8 267.55 639.31 273.456 640.494C273.491 640.631 273.646 640.756 273.929 640.765C274.389 640.781 274.851 640.799 275.316 640.821C277.304 641.123 279.314 641.277 281.311 641.277C281.543 641.277 281.774 641.275 282.005 641.271C286.601 641.632 291.302 642.04 295.912 642.04C300.332 642.04 304.667 641.666 308.749 640.518C321.795 639.768 334.35 637.414 342.962 628.884C350.875 621.176 351.179 612.796 347.7 604.57C349.151 605.384 350.761 605.943 352.433 605.943C352.706 605.943 352.981 605.928 353.257 605.897C353.759 605.84 354.245 605.727 354.706 605.568C356.466 609.083 357.846 612.738 358.804 616.48C359.367 618.675 359.785 620.945 359.785 623.188C359.786 624.865 359.552 626.526 358.971 628.132C356.745 634.254 349.874 638.312 342.832 640.398C342.773 640.416 342.713 640.434 342.653 640.451C336.737 642.181 330.612 642.84 324.389 643.022C323.093 643.06 321.793 643.077 320.49 643.079C320.408 643.079 320.323 643.079 320.242 643.079C320.212 643.079 320.183 643.079 320.153 643.079C316.599 643.077 313.021 642.965 309.438 642.851C309.374 642.849 309.31 642.847 309.247 642.845C309.18 642.843 309.114 642.841 309.046 642.839C308.977 642.837 308.911 642.835 308.844 642.832C308.717 642.828 308.59 642.824 308.462 642.82C308.416 642.818 308.372 642.817 308.327 642.816C304.957 642.709 301.589 642.611 298.233 642.611C298.233 642.611 298.232 642.611 298.231 642.611C298.231 642.611 298.231 642.611 298.23 642.611C296.33 642.611 294.435 642.643 292.547 642.722C292.521 642.723 292.493 642.725 292.466 642.725C292.389 642.729 292.311 642.732 292.234 642.736C292.225 642.736 292.215 642.736 292.205 642.737C292.192 642.738 292.181 642.738 292.168 642.739C291.401 642.774 290.63 642.815 289.856 642.859C286.554 643.048 283.196 643.291 279.901 643.291C279.9 643.291 279.9 643.291 279.899 643.291ZM296.863 641.585C293.557 641.585 290.197 641.357 286.861 641.078C293.381 640.873 300.293 640.93 307.113 640.604C303.821 641.329 300.373 641.585 296.863 641.585Z" fill="#FBC66E"/>
  <path d="M295.914 642.04C291.303 642.04 286.602 641.633 282.006 641.271C282.342 641.264 282.678 641.254 283.013 641.239C284.278 641.172 285.562 641.121 286.862 641.078C290.199 641.357 293.558 641.586 296.865 641.586C300.374 641.586 303.823 641.329 307.114 640.604C307.66 640.579 308.206 640.55 308.751 640.518C304.669 641.666 300.333 642.04 295.914 642.04ZM275.317 640.821C274.853 640.799 274.39 640.781 273.931 640.765C273.648 640.756 273.492 640.632 273.457 640.494C274.074 640.618 274.694 640.727 275.317 640.821Z" fill="#F8A348"/>
  <path d="M337.304 589.102C333.434 584.707 329.131 580.537 325.109 576.746C329.533 578.684 333.554 581.309 337.233 584.282C337.215 584.408 337.198 584.533 337.184 584.657C337.116 585.23 337.085 585.806 337.085 586.383C337.085 587.292 337.164 588.202 337.304 589.102Z" fill="#FBC66E"/>
  <path d="M342.474 569.917C344.286 569.827 346.027 570.669 347.253 571.821C348.481 572.973 349.275 574.412 350.021 575.837C352.826 581.203 355.209 586.723 357.592 592.239C358.697 594.801 359.822 597.499 359.362 600.203C358.893 602.948 356.45 605.535 353.259 605.897C350.341 606.229 347.554 604.738 345.409 603C341.515 599.847 338.852 595.63 337.719 591.142C337.099 588.686 336.846 586.087 337.351 583.58C337.869 581.017 338.317 578.432 338.939 575.886C339.178 574.909 339.449 573.938 339.775 572.98C339.933 572.514 340.103 572.051 340.289 571.593C340.376 571.379 340.666 570.306 340.894 570.227C341.395 570.057 341.92 569.945 342.474 569.917Z" fill="#713C2F"/>
  <path d="M354.711 605.568C357.175 604.716 358.971 602.515 359.365 600.203C359.367 600.198 359.367 600.193 359.368 600.187C359.367 600.192 359.367 600.198 359.365 600.203C358.971 602.515 357.175 604.716 354.711 605.568Z" fill="#FBC66E"/>
  <path d="M347.702 604.57C346.88 604.11 346.111 603.568 345.409 603C341.513 599.848 338.851 595.63 337.717 591.141C337.549 590.47 337.407 589.79 337.301 589.102C337.407 589.79 337.549 590.47 337.717 591.141C338.851 595.63 341.513 599.848 345.409 603C346.111 603.568 346.88 604.11 347.702 604.57Z" fill="#FBC66E"/>
  <path d="M337.301 589.102C337.161 588.202 337.082 587.292 337.082 586.383C337.082 587.292 337.161 588.202 337.301 589.102Z" fill="#FBBF5D"/>
  <path d="M359.365 600.185C359.366 600.18 359.367 600.176 359.367 600.172C359.367 600.176 359.366 600.18 359.365 600.185ZM359.368 600.162C359.369 600.161 359.369 600.159 359.369 600.157C359.369 600.159 359.369 600.161 359.368 600.162ZM337.23 584.284C337.265 584.048 337.305 583.814 337.353 583.58C337.381 583.445 337.407 583.309 337.434 583.173C337.407 583.31 337.381 583.445 337.353 583.58C337.305 583.814 337.265 584.048 337.23 584.284Z" fill="#FBC66E"/>
  <path d="M337.18 584.658C337.194 584.533 337.21 584.408 337.229 584.282C337.21 584.408 337.194 584.533 337.18 584.658Z" fill="#FBBF5D"/>
  <path d="M352.434 605.944C350.764 605.944 349.153 605.384 347.702 604.57C346.88 604.11 346.112 603.569 345.41 603C341.514 599.849 338.851 595.631 337.719 591.142C337.55 590.471 337.408 589.79 337.301 589.103C337.161 588.203 337.082 587.293 337.082 586.383C337.082 585.807 337.113 585.231 337.182 584.658C337.196 584.533 337.212 584.409 337.231 584.283C337.266 584.049 337.306 583.815 337.353 583.581C337.38 583.445 337.408 583.31 337.435 583.174C337.914 580.76 338.345 578.334 338.928 575.937C339.337 583.969 342.621 591.757 348.277 598.423C349.746 600.011 351.888 601.352 354.1 601.352C355.012 601.352 355.936 601.124 356.83 600.593C357.963 599.931 358.812 599.141 359.44 598.259C359.489 598.891 359.474 599.524 359.37 600.157C359.37 600.159 359.37 600.161 359.369 600.163C359.368 600.166 359.368 600.169 359.368 600.172C359.367 600.177 359.365 600.181 359.365 600.185C359.365 600.186 359.365 600.186 359.364 600.188C359.364 600.193 359.363 600.198 359.362 600.203C358.968 602.515 357.173 604.717 354.707 605.568C354.246 605.729 353.761 605.841 353.259 605.897C352.984 605.928 352.708 605.944 352.434 605.944Z" fill="#5D3127"/>
  <path d="M354.272 598.117C353.87 598.117 353.459 598.032 353.084 597.901C351.631 597.395 350.575 596.293 349.726 595.156C348.252 593.177 347.218 590.981 346.243 588.786C344.959 585.901 343.744 582.927 343.66 579.838C343.631 578.769 343.757 577.647 344.433 576.75C344.84 576.211 345.769 575.554 346.589 575.554C346.926 575.554 347.245 575.667 347.502 575.943C348.355 576.867 348.544 578.588 348.947 579.689C350.077 582.77 351.376 585.805 352.84 588.781C353.645 590.418 354.501 592.036 355.404 593.634C355.814 594.359 356.242 595.104 356.31 595.908C356.376 596.713 355.99 597.604 355.146 597.956C354.872 598.069 354.574 598.117 354.272 598.117Z" fill="#854637"/>
  <path d="M273.004 607.414C272.47 609.621 271.841 613.01 269.162 614.081C264.737 615.851 261.44 612.325 262.118 608.679C262.258 607.927 260.924 607.604 260.783 608.362C260.145 611.786 262.068 615.567 266.533 615.723C271.821 615.909 273.456 611.387 274.339 607.732C274.521 606.982 273.186 606.662 273.004 607.414Z" fill="#713C2F"/>
  <path d="M313.482 607.82C314.016 610.027 314.646 613.415 317.323 614.487C321.749 616.256 325.047 612.731 324.368 609.085C324.227 608.334 325.562 608.01 325.703 608.768C326.341 612.192 324.418 615.973 319.953 616.13C314.666 616.315 313.03 611.793 312.146 608.138C311.965 607.388 313.3 607.067 313.482 607.82Z" fill="#713C2F"/>
  <path d="M413.419 640.284C413.419 639.09 410.188 639.09 408.341 639.09C408.802 637.101 409.725 634.318 406.956 633.521C405.571 633.124 403.724 634.318 402.339 634.318C400.029 633.919 401.876 631.135 400.491 629.544C398.182 627.555 394.951 629.942 393.104 630.339C391.63 630.763 390.416 629.382 389.186 628.299C389.926 629.471 390.344 630.715 389.98 631.993C389.49 633.703 387.71 634.892 385.948 635.787C383.083 637.243 379.947 638.303 376.697 638.915C374.829 639.266 372.883 639.483 371.208 640.276C369.532 641.069 368.162 642.635 368.464 644.261C368.738 645.747 370.917 646.809 372.356 646.121C371.116 646.91 369.995 647.99 370.045 649.29C370.092 650.528 371.909 651.509 373.023 651.006C372.248 651.877 372.757 653.464 373.952 654.076C375.338 654.789 377.087 654.582 378.672 654.321C385.564 653.183 392.295 651.426 399.01 649.673C404.812 648.159 410.716 646.596 415.884 643.918C414.542 643.044 413.072 642.669 413.419 640.284Z" fill="#AA7E4D"/>
  <path d="M430.955 597.651C426.425 590.403 420.792 583.392 412.808 578.869C404.824 574.349 394.087 572.744 385.61 576.541C379.166 579.429 374.755 585.136 373.22 591.254C371.687 597.37 372.828 603.834 375.512 609.65C378.194 615.466 382.355 620.694 386.935 625.552C387.735 626.401 388.572 627.325 389.187 628.299C390.417 629.382 391.63 630.762 393.104 630.339C394.95 629.941 398.184 627.555 400.492 629.544C401.878 631.135 400.031 633.919 402.339 634.318C403.724 634.318 405.571 633.124 406.956 633.521C409.726 634.318 408.803 637.101 408.341 639.09C410.188 639.09 413.419 639.09 413.419 640.283C413.074 642.669 414.544 643.044 415.885 643.918C416.738 643.476 417.572 643.006 418.381 642.499C426.481 637.413 431.387 629.13 432.968 620.603C434.545 612.076 430.955 597.651 430.955 597.651Z" fill="#FCCE7D"/>
  <path d="M392.551 630.418C391.361 630.418 390.331 629.324 389.295 628.399C390.331 629.324 391.361 630.417 392.551 630.418ZM393.138 630.332C393.143 630.331 393.147 630.33 393.153 630.328C393.147 630.33 393.143 630.331 393.138 630.332ZM393.158 630.327C393.16 630.326 393.162 630.325 393.165 630.325C393.162 630.325 393.16 630.326 393.158 630.327ZM393.183 630.321C393.526 630.238 393.914 630.093 394.333 629.923C393.914 630.093 393.526 630.238 393.183 630.321ZM399.243 628.878C398.944 628.797 398.636 628.762 398.326 628.762C398.636 628.762 398.944 628.797 399.243 628.878ZM398.323 628.762H398.324H398.323ZM389.242 628.352C389.235 628.346 389.23 628.341 389.224 628.335C389.23 628.341 389.235 628.346 389.242 628.352ZM389.219 628.331C389.216 628.328 389.212 628.325 389.211 628.323C389.212 628.325 389.216 628.328 389.219 628.331Z" fill="#FBC05E"/>
  <path d="M376.287 654.564C375.461 654.564 374.658 654.439 373.952 654.076C373.147 653.663 372.654 652.809 372.654 652.028C372.655 651.65 372.771 651.291 373.024 651.006C372.819 651.098 372.591 651.141 372.355 651.141C371.304 651.141 370.084 650.301 370.046 649.291C370.046 649.262 370.044 649.235 370.044 649.207C370.044 647.944 371.143 646.894 372.356 646.121C372.049 646.268 371.708 646.335 371.357 646.335C370.073 646.335 368.679 645.429 368.464 644.261C368.437 644.109 368.422 643.956 368.422 643.806C368.423 642.348 369.691 640.994 371.209 640.276C372.884 639.483 374.83 639.267 376.697 638.915C379.947 638.303 383.084 637.243 385.948 635.788C387.712 634.892 389.49 633.704 389.98 631.993C390.072 631.671 390.114 631.351 390.114 631.034C390.114 630.093 389.74 629.176 389.186 628.3C389.196 628.307 389.205 628.315 389.214 628.323C389.215 628.325 389.219 628.328 389.222 628.331C389.225 628.332 389.226 628.334 389.227 628.335C389.233 628.341 389.239 628.346 389.246 628.352C389.263 628.366 389.281 628.382 389.298 628.398C390.333 629.324 391.364 630.418 392.554 630.418C392.555 630.418 392.556 630.418 392.556 630.418C392.735 630.418 392.918 630.392 393.105 630.339C393.117 630.337 393.128 630.334 393.141 630.331C393.146 630.33 393.151 630.329 393.155 630.328C393.159 630.327 393.16 630.327 393.161 630.327C393.163 630.326 393.166 630.325 393.168 630.325C393.174 630.323 393.18 630.322 393.186 630.321C393.529 630.239 393.918 630.093 394.337 629.923C395.524 629.441 396.959 628.763 398.325 628.762C398.327 628.762 398.328 628.762 398.329 628.762C398.64 628.762 398.947 628.797 399.246 628.877C399.26 629.702 399.075 630.583 398.644 631.533C395.875 637.897 386.179 638.295 380.638 643.465C377.356 647.065 378.705 650.995 381.813 653.756C380.769 653.955 379.724 654.147 378.674 654.321C377.896 654.449 377.08 654.564 376.287 654.564Z" fill="#945B38"/>
  <path d="M373.227 591.234C373.227 591.232 373.227 591.231 373.227 591.23C373.227 591.231 373.227 591.232 373.227 591.234ZM373.231 591.213C373.231 591.213 373.231 591.213 373.232 591.213C373.231 591.213 373.231 591.213 373.231 591.213ZM373.237 591.195C373.237 591.194 373.237 591.194 373.237 591.194C373.237 591.194 373.237 591.194 373.237 591.195Z" fill="#FBC05E"/>
  <path d="M392.557 630.417C392.555 630.417 392.554 630.417 392.554 630.417C391.364 630.416 390.333 629.324 389.298 628.398C389.28 628.382 389.263 628.366 389.245 628.352C389.238 628.346 389.232 628.341 389.227 628.335C389.225 628.334 389.223 628.332 389.222 628.331C389.218 628.328 389.215 628.325 389.214 628.323C389.204 628.315 389.195 628.307 389.186 628.3C388.57 627.326 387.734 626.402 386.935 625.553C382.355 620.695 378.194 615.467 375.511 609.651C373.65 605.618 372.531 601.274 372.531 596.95C372.531 595.039 372.75 593.13 373.22 591.255C373.223 591.248 373.224 591.241 373.225 591.235C373.225 591.234 373.225 591.233 373.225 591.232C373.227 591.227 373.228 591.221 373.231 591.215V591.214C373.232 591.207 373.233 591.202 373.235 591.196C373.235 591.196 373.235 591.195 373.235 591.194C374.084 587.855 375.794 584.643 378.219 581.947C375.3 593.267 378.488 605.987 386.64 616.019C390.644 620.504 399.163 623.493 399.246 628.877C398.947 628.797 398.639 628.762 398.328 628.762H398.327H398.326C396.96 628.763 395.523 629.44 394.336 629.922C393.917 630.093 393.528 630.238 393.186 630.321C393.179 630.322 393.173 630.323 393.168 630.325C393.165 630.325 393.163 630.326 393.161 630.327C393.159 630.327 393.157 630.327 393.156 630.328C393.15 630.329 393.146 630.33 393.141 630.331C393.128 630.334 393.116 630.337 393.105 630.339C392.917 630.392 392.735 630.417 392.557 630.417Z" fill="#FBC05E"/>
</svg>
