<?xml version="1.0" encoding="UTF-8"?>
<svg xmlns="http://www.w3.org/2000/svg" xmlns:xlink="http://www.w3.org/1999/xlink" width="810pt" height="809.999993pt" viewBox="0 0 810 809.999993" version="1.2">
<defs>
<clipPath id="clip1">
  <path d="M 571.507812 368.078125 L 573.921875 368.078125 L 573.921875 370.972656 L 571.507812 370.972656 Z M 571.507812 368.078125 "/>
</clipPath>
<clipPath id="clip2">
  <path d="M 572.699219 370.84375 C 572.09375 370.84375 571.601562 370.230469 571.601562 369.476562 C 571.601562 368.71875 572.09375 368.105469 572.699219 368.105469 C 573.304688 368.105469 573.796875 368.71875 573.796875 369.476562 C 573.796875 370.230469 573.304688 370.84375 572.699219 370.84375 "/>
</clipPath>
<clipPath id="clip3">
  <path d="M 638.777344 602.929688 L 728.875 602.929688 L 728.875 605.664062 L 638.777344 605.664062 Z M 638.777344 602.929688 "/>
</clipPath>
<clipPath id="clip4">
  <path d="M 245.617188 515 L 328.980469 515 L 328.980469 622.265625 L 245.617188 622.265625 Z M 245.617188 515 "/>
</clipPath>
<clipPath id="clip5">
  <path d="M 74.210938 393 L 217 393 L 217 618 L 74.210938 618 Z M 74.210938 393 "/>
</clipPath>
</defs>
<g id="surface1">
<path style=" stroke:none;fill-rule:nonzero;fill:rgb(83.918762%,91.758728%,50.588989%);fill-opacity:1;" d="M 504.394531 493.371094 C 504.035156 493.421875 503.703125 493.175781 503.644531 492.816406 C 502.378906 484.683594 501.28125 476.398438 500.21875 468.386719 C 497.941406 451.222656 495.585938 433.472656 491.445312 416.332031 C 485.945312 393.5625 477.492188 381.445312 477.40625 381.324219 C 477.195312 381.027344 477.265625 380.613281 477.566406 380.402344 C 477.859375 380.195312 478.273438 380.265625 478.484375 380.5625 C 478.574219 380.6875 480.6875 383.6875 483.511719 389.582031 C 486.113281 395.003906 489.824219 403.992188 492.730469 416.023438 C 496.886719 433.230469 499.246094 451.015625 501.527344 468.214844 C 502.589844 476.21875 503.6875 484.496094 504.953125 492.613281 C 505.007812 492.972656 504.761719 493.3125 504.398438 493.367188 L 504.394531 493.371094 "/>
<path style=" stroke:none;fill-rule:nonzero;fill:rgb(100%,79.998779%,19.999695%);fill-opacity:1;" d="M 473.855469 355 C 467.488281 355.949219 477.65625 380.4375 477.65625 380.4375 C 477.65625 380.4375 480.21875 354.054688 473.855469 355 "/>
<path style=" stroke:none;fill-rule:nonzero;fill:rgb(100%,79.998779%,19.999695%);fill-opacity:1;" d="M 454.605469 369.675781 C 451.777344 375.453125 477.734375 380.976562 477.734375 380.976562 C 477.734375 380.976562 457.433594 363.902344 454.605469 369.675781 "/>
<path style=" stroke:none;fill-rule:nonzero;fill:rgb(100%,79.998779%,19.999695%);fill-opacity:1;" d="M 492.121094 359.578125 C 486.769531 356.007812 477.820312 380.960938 477.820312 380.960938 C 477.820312 380.960938 497.476562 363.148438 492.121094 359.578125 "/>
<path style=" stroke:none;fill-rule:nonzero;fill:rgb(100%,79.998779%,19.999695%);fill-opacity:1;" d="M 458.59375 396.902344 C 462.628906 401.914062 478.65625 380.785156 478.65625 380.785156 C 478.65625 380.785156 454.5625 391.894531 458.59375 396.902344 "/>
<path style=" stroke:none;fill-rule:nonzero;fill:rgb(100%,79.998779%,19.999695%);fill-opacity:1;" d="M 503.992188 376.253906 C 502.800781 369.9375 478.6875 381.003906 478.6875 381.003906 C 478.6875 381.003906 505.179688 382.574219 503.992188 376.253906 "/>
<path style=" stroke:none;fill-rule:nonzero;fill:rgb(83.918762%,91.758728%,50.588989%);fill-opacity:1;" d="M 500.441406 390.832031 C 500.441406 390.832031 502.253906 400.960938 501.242188 404.132812 C 500.136719 407.625 492.082031 415.566406 492.082031 415.566406 C 492.082031 415.566406 491.363281 405.265625 492.433594 402.058594 C 493.527344 398.789062 500.441406 390.832031 500.441406 390.832031 "/>
<path style=" stroke:none;fill-rule:nonzero;fill:rgb(83.918762%,91.758728%,50.588989%);fill-opacity:1;" d="M 479.8125 380.503906 C 479.972656 381.550781 479.25 382.523438 478.203125 382.679688 C 477.160156 382.835938 476.183594 382.113281 476.027344 381.070312 C 475.871094 380.023438 476.59375 379.050781 477.636719 378.894531 C 478.683594 378.738281 479.65625 379.460938 479.8125 380.503906 "/>
<path style=" stroke:none;fill-rule:nonzero;fill:rgb(37.649536%,65.879822%,63.139343%);fill-opacity:1;" d="M 659.164062 582.148438 L 678.113281 570.734375 C 678.113281 570.734375 692.273438 593.777344 684.578125 598.691406 C 679.042969 602.226562 659.164062 582.148438 659.164062 582.148438 "/>
<path style=" stroke:none;fill-rule:nonzero;fill:rgb(76.858521%,84.709167%,55.688477%);fill-opacity:1;" d="M 596.304688 529.570312 L 642.144531 505.878906 L 683.953125 576.378906 C 683.953125 576.378906 679.058594 581.855469 670.882812 585.238281 C 661.945312 588.941406 657.121094 586.449219 657.121094 586.449219 L 596.304688 529.570312 "/>
<path style=" stroke:none;fill-rule:nonzero;fill:rgb(95.689392%,63.919067%,47.839355%);fill-opacity:1;" d="M 681.058594 466.652344 C 681.058594 466.652344 693.398438 460.476562 697.871094 460.5625 C 702.089844 460.640625 713.503906 465.316406 713.496094 466.90625 C 713.476562 470.953125 701.339844 467.15625 697.3125 467.574219 C 695.488281 467.765625 690.605469 470.519531 690.605469 470.519531 C 690.605469 470.519531 698.691406 474.40625 697.679688 476.480469 C 695.652344 480.625 679.597656 472.679688 679.597656 472.679688 L 681.058594 466.652344 "/>
<path style=" stroke:none;fill-rule:nonzero;fill:rgb(95.689392%,63.919067%,47.839355%);fill-opacity:1;" d="M 512.324219 436.820312 L 510.472656 450.933594 C 510.472656 450.933594 488.773438 457.710938 490.472656 440.550781 C 491.957031 425.613281 512.324219 436.820312 512.324219 436.820312 "/>
<path style=" stroke:none;fill-rule:nonzero;fill:rgb(45.489502%,70.979309%,67.449951%);fill-opacity:1;" d="M 613.988281 408.933594 C 621.582031 408.058594 636.128906 426.492188 652.257812 439.136719 C 669.902344 452.964844 686.867188 462.226562 686.867188 462.226562 L 677.265625 481.496094 C 677.265625 481.496094 656.167969 477.820312 637.386719 464.269531 C 618.46875 450.617188 610.402344 432.308594 610.402344 432.308594 C 610.402344 432.308594 608.109375 409.609375 613.988281 408.933594 "/>
<path style=" stroke:none;fill-rule:nonzero;fill:rgb(83.918762%,91.758728%,55.288696%);fill-opacity:1;" d="M 574.714844 523.535156 L 630.042969 516.820312 C 630.042969 516.820312 626.773438 547.660156 624.539062 557.734375 C 622.375 567.492188 612.617188 595.898438 612.617188 595.898438 L 592.136719 595.898438 L 574.714844 523.535156 "/>
<path style=" stroke:none;fill-rule:nonzero;fill:rgb(49.409485%,75.689697%,74.119568%);fill-opacity:1;" d="M 508.960938 433.003906 L 508.960938 454.378906 C 508.960938 454.378906 520.59375 457.539062 539.621094 457.128906 C 553.730469 456.820312 563.070312 452.242188 563.070312 452.242188 L 543.808594 523.691406 C 543.808594 523.691406 557.746094 539.707031 597.304688 535.597656 C 635.515625 531.628906 666.695312 509.644531 666.695312 509.644531 C 666.695312 509.644531 645.816406 463.433594 637.960938 446.441406 C 632.125 433.816406 609.839844 396.671875 609.839844 396.671875 L 582.625 406.628906 L 581.105469 414.382812 C 581.105469 414.382812 567.699219 422.390625 540.851562 429.039062 C 527.289062 432.398438 508.960938 433.003906 508.960938 433.003906 "/>
<path style=" stroke:none;fill-rule:nonzero;fill:rgb(97.648621%,69.799805%,54.119873%);fill-opacity:1;" d="M 566.085938 347.375 C 566.085938 347.375 563.777344 365.722656 561.675781 371.476562 C 560.519531 374.644531 554.378906 379.875 554.972656 383.195312 C 555.367188 385.390625 562.125 388.539062 562.125 388.539062 C 562.125 388.539062 562.222656 396.742188 567.625 402.699219 C 590.347656 427.761719 621.695312 409.191406 621.695312 409.191406 L 644.214844 376.230469 L 620.730469 342.097656 L 566.085938 347.375 "/>
<path style=" stroke:none;fill-rule:nonzero;fill:rgb(5.879211%,13.328552%,27.839661%);fill-opacity:1;" d="M 561.863281 365.671875 C 559.597656 365.089844 559.628906 356.390625 559.628906 356.390625 C 559.628906 356.390625 554.230469 360.824219 552.40625 359.960938 C 550.074219 358.859375 549.808594 349.820312 549.808594 349.820312 C 549.808594 349.820312 540.597656 342.734375 554.941406 328.375 C 590.996094 292.289062 649.515625 297.988281 672.152344 344.820312 C 679.714844 360.472656 685.441406 373.847656 680.824219 377.628906 C 677.910156 380.015625 666.828125 375.839844 666.828125 375.839844 C 666.828125 375.839844 680.003906 394.777344 667.542969 405.574219 C 655.046875 416.40625 641.128906 402.488281 641.128906 402.488281 C 641.128906 402.488281 641.835938 414.273438 629.476562 415.308594 C 612.601562 416.71875 610.164062 385.566406 610.164062 385.566406 C 610.164062 385.566406 617.484375 377.90625 610.078125 369.058594 C 607.054688 365.449219 601.46875 376.492188 596.882812 375.738281 C 589.792969 374.574219 593.535156 351.25 587.019531 348.160156 C 580.09375 344.871094 569.261719 367.582031 561.863281 365.671875 "/>
<path style=" stroke:none;fill-rule:nonzero;fill:rgb(45.489502%,70.979309%,67.449951%);fill-opacity:1;" d="M 563.066406 452.242188 C 563.066406 452.242188 567.289062 450.667969 568.613281 449.964844 C 570.507812 448.957031 575.75 445.214844 575.75 445.214844 L 554.660156 483.433594 L 563.066406 452.242188 "/>
<path style=" stroke:none;fill-rule:nonzero;fill:rgb(4.708862%,9.01947%,15.689087%);fill-opacity:1;" d="M 575.378906 370.59375 C 575.625 372.757812 574.765625 374.625 573.457031 374.765625 C 572.144531 374.902344 570.882812 373.261719 570.632812 371.097656 C 570.382812 368.933594 571.242188 367.066406 572.554688 366.925781 C 573.863281 366.789062 575.128906 368.429688 575.378906 370.59375 "/>
<path style=" stroke:none;fill-rule:nonzero;fill:rgb(4.708862%,9.01947%,15.689087%);fill-opacity:1;" d="M 571.632812 363.367188 C 571.210938 364.277344 575.421875 364.988281 575.421875 364.988281 C 575.421875 364.988281 572.054688 362.457031 571.632812 363.367188 "/>
<g clip-path="url(#clip1)" clip-rule="nonzero">
<g clip-path="url(#clip2)" clip-rule="nonzero">
<path style=" stroke:none;fill-rule:nonzero;fill:rgb(83.918762%,84.709167%,85.879517%);fill-opacity:1;" d="M 571.601562 368.105469 L 573.796875 368.105469 L 573.796875 370.84375 L 571.601562 370.84375 "/>
</g>
</g>
<path style=" stroke:none;fill-rule:nonzero;fill:rgb(95.689392%,63.919067%,47.839355%);fill-opacity:1;" d="M 561.289062 372.304688 C 561.289062 372.304688 561.222656 376.039062 561.289062 379.554688 C 561.421875 386.421875 562.125 388.539062 562.125 388.539062 C 562.125 388.539062 555.421875 385.382812 554.972656 383.195312 C 554.339844 380.113281 561.289062 372.304688 561.289062 372.304688 "/>
<path style=" stroke:none;fill-rule:nonzero;fill:rgb(37.649536%,65.879822%,63.139343%);fill-opacity:1;" d="M 591.585938 593.617188 C 591.585938 593.617188 582.335938 596.652344 579.695312 597.894531 C 576.035156 599.617188 567.59375 603.53125 569.339844 606.371094 C 572.902344 612.167969 606.378906 610.417969 611.425781 607.90625 C 617.992188 604.636719 612.617188 595.898438 612.617188 595.898438 L 591.585938 593.617188 "/>
<path style=" stroke:none;fill-rule:nonzero;fill:rgb(32.548523%,62.748718%,57.649231%);fill-opacity:1;" d="M 578.042969 599.109375 C 578.042969 599.109375 569.957031 603.441406 570.386719 605.789062 C 571.117188 609.773438 585.535156 609.382812 585.535156 609.382812 C 585.535156 609.382812 577.953125 607.730469 576.332031 604.679688 C 575.148438 602.457031 578.042969 599.109375 578.042969 599.109375 "/>
<path style=" stroke:none;fill-rule:nonzero;fill:rgb(45.489502%,70.979309%,67.449951%);fill-opacity:1;" d="M 547.914062 508.464844 L 543.808594 523.691406 C 543.808594 523.691406 557.996094 539.503906 599.574219 535.339844 C 635.851562 531.707031 666.695312 509.644531 666.695312 509.644531 L 649.476562 471.640625 C 649.476562 471.640625 643.117188 500.960938 605.253906 509.933594 C 562.457031 520.074219 547.914062 508.464844 547.914062 508.464844 "/>
<path style=" stroke:none;fill-rule:nonzero;fill:rgb(94.898987%,61.569214%,46.669006%);fill-opacity:1;" d="M 582.640625 384.339844 C 582.640625 386.574219 579.089844 388.390625 574.714844 388.390625 C 570.335938 388.390625 566.785156 386.574219 566.785156 384.339844 C 566.785156 382.101562 570.335938 380.289062 574.714844 380.289062 C 579.089844 380.289062 582.640625 382.101562 582.640625 384.339844 "/>
<path style=" stroke:none;fill-rule:nonzero;fill:rgb(49.409485%,75.689697%,74.119568%);fill-opacity:1;" d="M 666.695312 615.765625 L 543.808594 615.765625 C 543.082031 615.765625 542.488281 615.171875 542.488281 614.445312 C 542.488281 613.71875 543.082031 613.125 543.808594 613.125 L 666.695312 613.125 C 667.425781 613.125 668.019531 613.71875 668.019531 614.445312 C 668.019531 615.171875 667.425781 615.765625 666.695312 615.765625 "/>
<g clip-path="url(#clip3)" clip-rule="nonzero">
<path style=" stroke:none;fill-rule:nonzero;fill:rgb(49.409485%,75.689697%,74.119568%);fill-opacity:1;" d="M 727.554688 605.570312 L 640.128906 605.570312 C 639.398438 605.570312 638.808594 604.980469 638.808594 604.25 C 638.808594 603.523438 639.398438 602.929688 640.128906 602.929688 L 727.554688 602.929688 C 728.28125 602.929688 728.875 603.523438 728.875 604.25 C 728.875 604.980469 728.28125 605.570312 727.554688 605.570312 "/>
</g>
<path style=" stroke:none;fill-rule:nonzero;fill:rgb(99.609375%,79.60968%,0%);fill-opacity:1;" d="M 390.878906 321.839844 C 384.183594 323.875 383.617188 329.851562 383.367188 332.574219 C 382.921875 337.5 385.925781 344.113281 388.941406 348.039062 C 394.488281 355.269531 402.40625 362.988281 411.734375 362.214844 C 411.734375 362.214844 409.09375 360.8125 408.054688 359.136719 C 405.203125 354.539062 409.171875 351.707031 411.242188 349.289062 C 413.3125 346.871094 416.101562 345.144531 418.164062 342.722656 C 420.914062 339.488281 422.195312 334.910156 421 330.839844 C 419.800781 326.765625 415.933594 323.480469 411.683594 323.445312 C 407.4375 323.410156 403.335938 327.011719 403.277344 331.253906 C 403.308594 327.585938 400.507812 324.414062 397.289062 322.644531 C 395.328125 321.570312 393.019531 321.1875 390.878906 321.839844 "/>
<path style=" stroke:none;fill-rule:nonzero;fill:rgb(89.7995%,68.629456%,1.179504%);fill-opacity:1;" d="M 400.230469 328.980469 C 400.230469 328.980469 393.867188 320.53125 388.789062 325.46875 C 380.382812 333.644531 395.667969 352.742188 395.667969 352.742188 C 395.667969 352.742188 387.378906 336.847656 390.777344 329.835938 C 393.164062 324.910156 400.230469 328.980469 400.230469 328.980469 "/>
<path style=" stroke:none;fill-rule:nonzero;fill:rgb(98.039246%,64.309692%,47.839355%);fill-opacity:1;" d="M 222.992188 533.988281 L 287.308594 521.90625 C 287.308594 521.90625 275.121094 554.097656 270.035156 563.207031 C 256.433594 587.585938 222.570312 621.160156 215.003906 614.6875 C 212.097656 612.203125 229.71875 590.519531 228.457031 561.609375 C 228.148438 554.570312 222.992188 533.988281 222.992188 533.988281 "/>
<path style=" stroke:none;fill-rule:nonzero;fill:rgb(97.648621%,69.799805%,54.119873%);fill-opacity:1;" d="M 315.644531 209.0625 C 315.644531 209.0625 307.769531 223.132812 305.695312 228.097656 C 301.84375 237.308594 298.566406 257.617188 293.480469 266.171875 C 281.671875 286.035156 251.5 278.707031 251.5 278.707031 C 251.5 278.707031 242.339844 278.707031 239.105469 290.8125 C 235.070312 305.910156 239.203125 310.75 239.203125 310.75 C 239.203125 310.75 229.25 315.390625 218.394531 308.425781 C 207.40625 301.375 201.207031 293.101562 201.207031 293.101562 C 201.207031 293.101562 223.488281 219.703125 243.5 208.578125 C 276.066406 190.46875 315.644531 209.0625 315.644531 209.0625 "/>
<g clip-path="url(#clip4)" clip-rule="nonzero">
<path style=" stroke:none;fill-rule:nonzero;fill:rgb(97.648621%,69.799805%,54.119873%);fill-opacity:1;" d="M 255.257812 528.96875 L 328.878906 515.136719 C 328.878906 515.136719 314.925781 551.980469 309.105469 562.410156 C 293.535156 590.320312 254.777344 628.746094 246.113281 621.339844 C 242.785156 618.492188 262.957031 593.675781 261.511719 560.582031 C 261.160156 552.523438 255.257812 528.96875 255.257812 528.96875 "/>
</g>
<path style=" stroke:none;fill-rule:nonzero;fill:rgb(5.879211%,13.328552%,27.839661%);fill-opacity:1;" d="M 319.265625 209.058594 C 340.523438 173.769531 299.074219 158.3125 283.53125 153.804688 C 239.644531 141.078125 192.214844 158.785156 173.164062 222.523438 C 148.648438 304.554688 197.496094 334.40625 197.496094 334.40625 C 197.496094 334.40625 204.375 253.632812 242.144531 217.378906 C 281.324219 179.78125 308.011719 227.738281 319.265625 209.058594 "/>
<path style=" stroke:none;fill-rule:nonzero;fill:rgb(96.859741%,59.999084%,45.489502%);fill-opacity:1;" d="M 251.5 278.707031 C 251.5 278.707031 246.621094 276.847656 242.886719 275.820312 C 237.011719 274.203125 228.292969 264.246094 228.292969 264.246094 C 228.292969 264.246094 229.179688 284.359375 226.785156 288.378906 C 220.90625 298.234375 204.289062 292.636719 204.289062 292.636719 C 204.289062 292.636719 209.425781 304.269531 231.898438 306.746094 C 236.601562 307.261719 237.15625 303.332031 237.15625 303.332031 C 237.15625 303.332031 237.304688 295.796875 239.871094 288.429688 C 242.363281 281.28125 251.5 278.707031 251.5 278.707031 "/>
<path style=" stroke:none;fill-rule:nonzero;fill:rgb(2.349854%,22.349548%,34.899902%);fill-opacity:1;" d="M 205.082031 291.722656 C 205.082031 291.722656 199.621094 292.722656 217.277344 301.917969 C 236.429688 311.886719 237.15625 303.335938 237.15625 303.335938 C 237.15625 303.335938 271.175781 358.09375 267.671875 376.875 C 264.566406 393.527344 234.820312 415.210938 226.289062 429.726562 C 220.957031 438.808594 215.703125 470.726562 215.703125 470.726562 L 128.128906 477.148438 C 128.128906 477.148438 159.746094 427.210938 165.660156 408.488281 C 169.25 397.132812 177.421875 358.8125 182.03125 347.605469 C 186.707031 336.242188 189.882812 321.238281 193.769531 309.566406 C 196.574219 301.152344 205.082031 291.722656 205.082031 291.722656 "/>
<path style=" stroke:none;fill-rule:nonzero;fill:rgb(97.648621%,69.799805%,54.119873%);fill-opacity:1;" d="M 206.539062 335.753906 C 217.726562 310.265625 279.320312 359.804688 303.941406 366.328125 C 351.519531 378.925781 411.625 367.464844 411.625 367.464844 C 411.625 367.464844 345.574219 405.816406 289.617188 401.855469 C 239.546875 398.3125 195.222656 361.53125 206.539062 335.753906 "/>
<path style=" stroke:none;fill-rule:nonzero;fill:rgb(98.81897%,77.648926%,23.919678%);fill-opacity:1;" d="M 118.960938 496.414062 C 122.515625 442.519531 297.625 442.4375 328.882812 480.605469 C 342.234375 496.90625 328.429688 520.179688 328.429688 520.179688 L 256.605469 534.550781 C 256.605469 534.550781 114.632812 562.109375 118.960938 496.414062 "/>
<g clip-path="url(#clip5)" clip-rule="nonzero">
<path style=" stroke:none;fill-rule:nonzero;fill:rgb(49.409485%,75.689697%,74.119568%);fill-opacity:1;" d="M 210.789062 549.097656 C 192.875 530.894531 121.484375 530.988281 93.253906 545.164062 C 96.066406 529.4375 98.035156 505.691406 98.382812 479.101562 C 99 431.644531 94.214844 393.101562 87.691406 393.015625 C 81.167969 392.933594 75.378906 431.335938 74.757812 478.796875 C 74.273438 516.152344 77.136719 547.984375 81.558594 559.882812 C 77.273438 580.347656 87.03125 617.652344 87.03125 617.652344 L 210.789062 617.652344 C 210.789062 617.652344 223.914062 562.429688 210.789062 549.097656 "/>
</g>
<path style=" stroke:none;fill-rule:nonzero;fill:rgb(89.7995%,68.629456%,1.179504%);fill-opacity:1;" d="M 245.742188 454.988281 C 338.46875 459.25 334.625 495.5 334.625 495.5 L 334.398438 502.398438 L 332.574219 510.511719 C 332.574219 510.511719 328.878906 486.625 243.707031 470.695312 C 198.894531 462.3125 135.71875 472.449219 135.71875 472.449219 L 143.222656 468.417969 C 143.222656 468.417969 171.476562 451.574219 245.742188 454.988281 "/>
</g>
</svg>
