<?xml version="1.0" encoding="UTF-8" standalone="no"?>
<!DOCTYPE svg PUBLIC "-//W3C//DTD SVG 1.1//EN" "http://www.w3.org/Graphics/SVG/1.1/DTD/svg11.dtd">
<svg width="100%" height="100%" viewBox="0 0 1436 102" version="1.1" xmlns="http://www.w3.org/2000/svg" xmlns:xlink="http://www.w3.org/1999/xlink" xml:space="preserve" xmlns:serif="http://www.serif.com/" style="fill-rule:evenodd;clip-rule:evenodd;stroke-linejoin:round;stroke-miterlimit:2;">
    <g id="Artboard3" transform="matrix(0.934279,0,0,0.160633,31.2223,16.2357)">
        <rect x="-33.419" y="-101.073" width="1536.64" height="632.649" style="fill:rgb(232,67,67);fill-opacity:0;"/>
        <clipPath id="_clip1">
            <rect x="-33.419" y="-101.073" width="1536.64" height="632.649"/>
        </clipPath>
        <g clip-path="url(#_clip1)">
            <g id="Artboard2" transform="matrix(1.07034,0,0,1.54397,-32.7959,-1211.62)">
                <rect x="-1.258" y="-1.43" width="1436.09" height="1139.36" style="fill:none;"/>
                <g transform="matrix(0.663829,0,0,3.2145,220.062,-3277.23)">
                    <g id="Artboard1">
                        <rect x="-330.386" y="-53.123" width="2160.93" height="1429.52" style="fill:rgb(245,42,53);fill-opacity:0;"/>
                        <g>
                            <g transform="matrix(1.50641,0,0,1.25434,-340.195,-76.2363)">
                                <path d="M1441,850.174L1433.1,884.215L1440.9,1064.06L4.932,1064.06L4.932,256.405L1441,130.55L1441,850.174Z" style="fill:rgb(245,248,255);"/>
                            </g>
                            <g transform="matrix(1.50641,0,0,1.25434,-340.195,-76.2363)">
                                <path d="M1441,1097.92C1324.72,1155.78 1182.74,1099.92 892.036,1067.56C668.168,1015.43 107.907,1186.21 4.932,1144.05L4.932,1064.06L4.942,1061.05C86.311,896.885 653.175,1066.3 953.347,914.52C1206.05,786.743 1360.33,795.297 1441,850.174L1441,1097.92Z" style="fill:rgb(245,248,255);"/>
                            </g>
                        </g>
                    </g>
                </g>
            </g>
        </g>
    </g>
</svg>
