<?xml version="1.0" encoding="UTF-8" standalone="no"?>
<!DOCTYPE svg PUBLIC "-//W3C//DTD SVG 1.1//EN" "http://www.w3.org/Graphics/SVG/1.1/DTD/svg11.dtd">
<svg width="100%" height="100%" viewBox="0 0 1436 179" version="1.1" xmlns="http://www.w3.org/2000/svg" xmlns:xlink="http://www.w3.org/1999/xlink" xml:space="preserve" xmlns:serif="http://www.serif.com/" style="fill-rule:evenodd;clip-rule:evenodd;stroke-linejoin:round;stroke-miterlimit:2;">
    <g id="Artboard3" transform="matrix(0.959436,0,0,0.234975,15.4571,7.20951)">
        <rect x="-16.111" y="-30.682" width="1496.63" height="759.503" style="fill:rgb(245,69,175);fill-opacity:0;"/>
        <clipPath id="_clip1">
            <rect x="-16.111" y="-30.682" width="1496.63" height="759.503"/>
        </clipPath>
        <g clip-path="url(#_clip1)">
            <g id="Artboard2" transform="matrix(0.955696,0,0,0.962686,30.4974,-20.6798)">
                <rect x="-48.46" y="-8.582" width="1564.82" height="1154.3" style="fill:none;"/>
                <g transform="matrix(0.72397,0,0,3.52436,192.099,174.473)">
                    <g id="Artboard1">
                        <rect x="-330.386" y="-53.123" width="2160.93" height="1429.52" style="fill:rgb(245,42,53);fill-opacity:0;"/>
                        <g>
                            <g transform="matrix(1.50641,0,0,1.25434,-340.195,-76.2363)">
                                <path d="M1441,850.174L1433.1,884.215L1440.9,1064.06L4.932,1064.06L4.932,256.405L1441,130.55L1441,850.174Z" style="fill:rgb(245,248,255);"/>
                            </g>
                            <g transform="matrix(1.50641,0,0,1.25434,-340.195,-76.2363)">
                                <path d="M1441.1,235.477C1434.69,249.852 1425.64,262.705 1414.31,273.104C1287.66,357.222 1150.23,293.718 830.795,253.675C632.42,205.752 180.551,313.261 10.134,308.237L5.823,273.804L4.957,256.409L4.932,183.849C186.075,122.515 637.32,227.492 896.784,110.496C1239.64,-44.1 1399.13,27.989 1441.12,124.632L1441.1,130.541L1441.1,235.477Z" style="fill:rgb(245,248,255);"/>
                            </g>
                        </g>
                    </g>
                </g>
            </g>
        </g>
    </g>
</svg>
