<?xml version="1.0" encoding="UTF-8" standalone="no"?>
<!DOCTYPE svg PUBLIC "-//W3C//DTD SVG 1.1//EN" "http://www.w3.org/Graphics/SVG/1.1/DTD/svg11.dtd">
<svg width="100%" height="100%" viewBox="0 0 1442 647" version="1.1" xmlns="http://www.w3.org/2000/svg" xmlns:xlink="http://www.w3.org/1999/xlink" xml:space="preserve" xmlns:serif="http://www.serif.com/" style="fill-rule:evenodd;clip-rule:evenodd;stroke-linejoin:round;stroke-miterlimit:2;">
    <g id="Artboard2" transform="matrix(0.770575,0,0,0.380421,196.402,20.3108)">
        <rect x="-254.877" y="-53.39" width="1870.63" height="1700.06" style="fill:none;"/>
        <clipPath id="_clip1">
            <rect x="-254.877" y="-53.39" width="1870.63" height="1700.06"/>
        </clipPath>
        <g clip-path="url(#_clip1)">
            <g id="Artboard1" transform="matrix(0.743107,0,0,2.36608,189.779,-1940.05)">
                <g>
                    <g transform="matrix(1.74636,0,0,1.11098,-586.498,-76.4009)">
                        <path d="M-7.998,1418.91L-7.998,782L1461,782L1461,1427L1439.84,1427C1385.81,1361.93 1237.34,1320.05 936.54,1403.35C625.664,1489.43 61.904,1244.31 -7.998,1418.91Z" style="fill:url(#_Linear2);"/>
                    </g>
                    <g transform="matrix(1.74636,0,0,1.11098,-586.498,-76.4009)">
                        <path d="M495.765,849.311C-31.463,1001.76 -89.85,750.984 18.33,681.929C146.173,624.127 512.4,253.698 812.443,308.931C1037.9,373.376 1433.53,704.613 1433.53,776.071C1433.54,976.849 828.445,753.113 495.765,849.311Z" style="fill:rgb(245,248,255);fill-rule:nonzero;"/>
                    </g>
                </g>
            </g>
        </g>
    </g>
    <defs>
        <linearGradient id="_Linear2" x1="0" y1="0" x2="1" y2="0" gradientUnits="userSpaceOnUse" gradientTransform="matrix(-0.001,961.172,-961.172,-0.001,726.502,598.618)"><stop offset="0" style="stop-color:rgb(220,183,254);stop-opacity:1"/><stop offset="1" style="stop-color:rgb(62,188,252);stop-opacity:1"/></linearGradient>
    </defs>
</svg>
