<?xml version="1.0" encoding="UTF-8" standalone="no"?>
<!DOCTYPE svg PUBLIC "-//W3C//DTD SVG 1.1//EN" "http://www.w3.org/Graphics/SVG/1.1/DTD/svg11.dtd">
<svg width="100%" height="100%" viewBox="0 0 3087 1921" version="1.1" xmlns="http://www.w3.org/2000/svg" xmlns:xlink="http://www.w3.org/1999/xlink" xml:space="preserve" xmlns:serif="http://www.serif.com/" style="fill-rule:evenodd;clip-rule:evenodd;stroke-linejoin:round;stroke-miterlimit:2;">
    <g transform="matrix(1.33333,0,0,1.33333,0,0)">
        <g id="Artboard1" transform="matrix(1,0,0,1.02041,0.842153,7.85258)">
            <rect x="-0.842" y="-7.696" width="2314.69" height="1411.32" style="fill:none;"/>
            <clipPath id="_clip1">
                <rect x="-0.842" y="-7.696" width="2314.69" height="1411.32"/>
            </clipPath>
            <g clip-path="url(#_clip1)">
                <g transform="matrix(1.60737,0,0,-1.57522,-1.0798,955.644)">
                    <rect x="0" y="0" width="1440" height="610" style="fill:rgb(219,244,255);"/>
                </g>
                <g transform="matrix(1.60737,0,0,1.57522,0.527568,-1066.93)">
                    <path d="M666.165,1499.03C58.466,1665.5 -79.173,1316.9 30.875,1037.68C151.205,875.399 406.552,1077.19 693.948,1230.93C910.5,1410.69 1390.25,1037.68 1438.25,1230.93C1438.08,1728.13 1042.44,1395.96 666.165,1499.03Z" style="fill:rgb(190,232,255);fill-rule:nonzero;"/>
                </g>
                <g transform="matrix(1.60737,0,0,1.57522,0.527568,-1066.93)">
                    <ellipse cx="714.749" cy="1478" rx="135" ry="89" style="fill:url(#_Linear2);"/>
                </g>
                <g transform="matrix(1.60737,0,0,1.57522,0.527568,-1066.93)">
                    <path d="M-1.39,1205.1C39.292,1253.8 94.085,1330.16 175.59,1362.36C332.511,1424.35 529.026,1299.18 480.367,1422.34C431.708,1545.51 265.052,1595.11 108.131,1533.11C66.264,1516.57 29.321,1493.76 -1.39,1466.79L-1.39,1205.1Z" style="fill:rgb(30,179,251);"/>
                </g>
            </g>
        </g>
    </g>
    <defs>
        <linearGradient id="_Linear2" x1="0" y1="0" x2="1" y2="0" gradientUnits="userSpaceOnUse" gradientTransform="matrix(1.62425e-14,265.26,-265.26,1.62425e-14,714.749,1338.39)"><stop offset="0" style="stop-color:rgb(220,183,254);stop-opacity:1"/><stop offset="1" style="stop-color:rgb(62,188,252);stop-opacity:1"/></linearGradient>
    </defs>
</svg>
