<svg width="29" height="40" viewBox="0 0 29 40" fill="none" xmlns="http://www.w3.org/2000/svg">
  <path
    d="M21.4421 20.2207H7.55623V25.0597H21.4421V20.2207ZM27.8788 8.80365L20.7985 1.39389C20.473 1.05365 20.0318 0.864624 19.569 0.864624H19.1278V10.5427H28.3851V10.0815C28.3851 9.60511 28.2043 9.14389 27.8788 8.80365ZM16.8135 11.1476V0.864624H2.34902C1.38713 0.864624 0.613281 1.67365 0.613281 2.67926V37.7622C0.613281 38.7678 1.38713 39.5768 2.34902 39.5768H26.6493C27.6112 39.5768 28.3851 38.7678 28.3851 37.7622V12.9622H18.5492C17.5946 12.9622 16.8135 12.1456 16.8135 11.1476ZM5.24191 6.30853C5.24191 5.97433 5.50083 5.70365 5.82049 5.70365H11.6063C11.9259 5.70365 12.1849 5.97433 12.1849 6.30853V7.51828C12.1849 7.85248 11.9259 8.12316 11.6063 8.12316H5.82049C5.50083 8.12316 5.24191 7.85248 5.24191 7.51828V6.30853ZM5.24191 11.1476C5.24191 10.8134 5.50083 10.5427 5.82049 10.5427H11.6063C11.9259 10.5427 12.1849 10.8134 12.1849 11.1476V12.3573C12.1849 12.6915 11.9259 12.9622 11.6063 12.9622H5.82049C5.50083 12.9622 5.24191 12.6915 5.24191 12.3573V11.1476ZM23.7564 34.1329C23.7564 34.4671 23.4975 34.7378 23.1779 34.7378H17.3921C17.0724 34.7378 16.8135 34.4671 16.8135 34.1329V32.9232C16.8135 32.589 17.0724 32.3183 17.3921 32.3183H23.1779C23.4975 32.3183 23.7564 32.589 23.7564 32.9232V34.1329ZM23.7564 19.011V26.2695C23.7564 26.9379 23.2386 27.4793 22.5993 27.4793H6.39907C5.75974 27.4793 5.24191 26.9379 5.24191 26.2695V19.011C5.24191 18.3426 5.75974 17.8012 6.39907 17.8012H22.5993C23.2386 17.8012 23.7564 18.3426 23.7564 19.011Z"
    fill="currentColor" />
</svg>