<svg width="26" height="23" viewBox="0 0 26 23" fill="none" xmlns="http://www.w3.org/2000/svg">
  <g clip-path="url(#clip0_12191_72335)">
    <path
      d="M3.97066 10.544C5.36319 10.544 6.49537 9.31753 6.49537 7.80895C6.49537 6.30037 5.36319 5.07385 3.97066 5.07385C2.57812 5.07385 1.44595 6.30037 1.44595 7.80895C1.44595 9.31753 2.57812 10.544 3.97066 10.544ZM21.6436 10.544C23.0362 10.544 24.1683 9.31753 24.1683 7.80895C24.1683 6.30037 23.0362 5.07385 21.6436 5.07385C20.2511 5.07385 19.1189 6.30037 19.1189 7.80895C19.1189 9.31753 20.2511 10.544 21.6436 10.544ZM22.906 11.9116H20.3813C19.687 11.9116 19.0597 12.215 18.6021 12.7065C20.1919 13.651 21.3201 15.3561 21.5647 17.3818H24.1683C24.8666 17.3818 25.4307 16.7707 25.4307 16.0142V14.6467C25.4307 13.1381 24.2985 11.9116 22.906 11.9116ZM12.8071 11.9116C15.249 11.9116 17.2254 9.77053 17.2254 7.12517C17.2254 4.47982 15.249 2.33875 12.8071 2.33875C10.3653 2.33875 8.3889 4.47982 8.3889 7.12517C8.3889 9.77053 10.3653 11.9116 12.8071 11.9116ZM15.8368 13.2791H15.5094C14.6888 13.7065 13.7776 13.9629 12.8071 13.9629C11.8367 13.9629 10.9294 13.7065 10.1049 13.2791H9.77749C7.26856 13.2791 5.23301 15.4843 5.23301 18.2023V19.4331C5.23301 20.5656 6.08116 21.4845 7.12654 21.4845H18.4877C19.5331 21.4845 20.3813 20.5656 20.3813 19.4331V18.2023C20.3813 15.4843 18.3457 13.2791 15.8368 13.2791ZM7.01214 12.7065C6.55454 12.215 5.92731 11.9116 5.23301 11.9116H2.7083C1.31577 11.9116 0.183594 13.1381 0.183594 14.6467V16.0142C0.183594 16.7707 0.747708 17.3818 1.44595 17.3818H4.04561C4.29414 15.3561 5.42236 13.651 7.01214 12.7065Z"
      fill="currentColor" />
  </g>
  <defs>
    <clipPath id="clip0_12191_72335">
      <rect width="25.2471" height="21.8808" fill="white"
        transform="translate(0.182617 0.970215)" />
    </clipPath>
  </defs>
</svg>