<svg width="695" height="595" viewBox="0 0 695 595" fill="none"
  xmlns="http://www.w3.org/2000/svg">
  <g filter="url(#filter0_d)">
    <ellipse cx="339.5" cy="482.5" rx="74.5" ry="3.5" fill="#DAE0E7"/>
  </g>
  <g filter="url(#filter1_d)">
    <ellipse cx="107" cy="505.5" rx="30" ry="2.5" fill="#C4C4C4"/>
  </g>
  <g filter="url(#filter2_d)">
    <ellipse cx="439.796" cy="517.777" rx="7" ry="1" transform="rotate(-24.1565 439.796 517.777)" fill="#C4C4C4"/>
  </g>
  <g filter="url(#filter3_d)">
    <ellipse cx="412.796" cy="516.777" rx="7" ry="1" transform="rotate(-24.1565 412.796 516.777)" fill="#C4C4C4"/>
  </g>
  <g filter="url(#filter4_d)">
    <path d="M59.1619 358.02C94.8786 344.199 138.633 343.361 195.722 344.547C272.813 346.148 297.725 379.412 374.062 377.989C431.987 376.909 441.89 355.557 499.814 354.476C569.745 353.171 625.83 361.908 667.203 382.201C702.09 399.313 679.228 410.396 667.203 429.5C655.411 448.235 614.819 453.566 612.267 472.951C609.569 493.438 660.157 494.345 667.203 515C675.376 538.958 692.778 569.514 626.816 576.893C577.906 582.364 543.82 579.542 492.936 565.102C452.055 553.5 419.992 548.546 368.543 547.024C318.465 545.543 289.846 549.702 246.944 557.07C188.455 567.114 105.401 578.047 52.6275 558.145C5.87493 540.513 3.69785 513.881 54.5098 500.496C108.807 486.192 128.783 484.733 133.637 464.743C138.491 444.752 87.4437 439.326 57.219 417.522C26.9507 395.686 15.5308 374.903 59.1619 358.02Z" fill="#E9EEFF"/>
  </g>
  <path d="M87.5566 431.561C88.6302 433.352 89.5236 435.319 90.4207 437.106C91.3141 439.076 92.3877 441.4 94.3583 442.117C96.5054 443.01 99.1894 441.58 100.263 439.433C101.513 437.466 101.513 434.962 101.337 432.458C100.439 423.874 95.9687 416.002 91.6708 408.671C87.2 400.979 82.9021 393.288 78.968 385.239C77.3577 382.559 75.7473 379.875 74.3135 377.191C71.2729 372.007 68.0522 366.639 64.1146 361.992C53.912 350.366 37.9886 344.285 22.7748 346.072C14.9032 346.965 6.67127 350.366 2.91377 357.341C2.01673 358.951 1.47994 360.558 1.12329 362.168C0.943158 362.529 0.766631 363.065 0.586501 363.422C-1.20399 368.786 1.30342 374.687 5.41757 378.802C7.92497 382.559 11.5023 385.956 15.44 388.28C25.9992 394.721 38.7019 396.328 50.1545 400.803C66.0816 407.24 79.1446 416.899 87.5566 431.561Z" fill="#5BC5C9"/>
  <path d="M62.8599 429.594L75.0295 506.859C75.2096 507.576 75.7464 508.109 76.4597 508.109H134.62C135.337 508.109 136.05 507.576 136.05 506.859L148.4 429.594C148.576 428.701 147.863 427.807 146.966 427.807H64.2938C63.3967 427.807 62.6798 428.524 62.8599 429.594Z" fill="#3093D0"/>
  <path d="M118.336 321.214C118.336 312.269 116.545 302.971 110.817 296.173C105.093 289.378 96.3241 285.801 88.629 290.091C82.0074 293.849 76.9962 301.897 75.3859 309.408C69.6614 335.52 75.7461 362.885 85.2282 387.923C90.2394 401.159 97.7544 419.579 110.997 426.377L113.681 427.627C118.512 427.808 113.681 422.8 112.431 420.833C102.766 406.704 103.839 387.923 107.777 371.114C111.714 354.657 118.336 338.384 118.336 321.214Z" fill="#5BC5C9"/>
  <path d="M188.483 323.718C182.938 320.677 176.493 318.71 171.305 318.53C150.01 317.813 132.83 334.09 123.168 352.333C119.767 358.771 116.903 365.746 115.292 372.9C111.715 389.353 114.219 406.523 116.903 423.157L117.439 424.23C119.23 427.451 139.271 394.185 143.926 390.784C152.158 384.706 162.537 382.735 172.022 378.801C178.64 375.941 184.725 372.007 189.916 367.356C196.714 361.275 202.443 353.047 202.623 343.928C203.159 335.343 196.538 328.189 188.483 323.718Z" fill="#5BC5C9"/>
  <path d="M524.017 78.5149C524.017 78.5149 532.069 87.8132 532.606 87.6367L541.375 84.5961C541.912 84.4159 542.272 72.0735 542.272 72.0735L546.566 68.3196C546.566 68.3196 559.092 69.213 559.272 68.6762L563.387 60.4515C563.743 59.9147 555.155 51.1496 555.155 51.1496L555.511 45.6053C555.511 45.6053 565.177 37.5571 564.817 37.0203L561.776 28.4353C561.596 27.8985 549.07 27.722 549.07 27.722L545.312 23.6078C545.312 23.6078 546.386 11.2654 545.849 11.0888L537.978 6.97469C537.441 6.61443 528.492 15.1994 528.492 15.1994L522.944 14.8427C522.944 14.8427 514.892 5.54446 514.355 5.72099L505.587 8.76157C505.05 8.9417 504.69 21.2806 504.69 21.2806L500.395 25.0381C500.395 25.0381 487.869 24.1446 487.689 24.6814L483.575 32.9061C483.218 33.4429 491.807 42.208 491.807 42.208L491.45 47.7524C491.45 47.7524 481.784 55.8006 482.145 56.3374L485.185 64.9223C485.365 65.4591 497.892 65.6356 497.892 65.6356L501.649 69.7498C501.649 69.7498 500.575 82.0923 501.112 82.2688L509.524 86.2028C510.061 86.5631 519.006 77.9781 519.006 77.9781L524.017 78.5149ZM517.576 30.0457C527.058 26.825 537.261 31.656 540.301 40.7778C543.522 49.8959 538.334 60.0913 529.029 63.312C519.723 66.5291 509.344 61.7016 506.3 52.5799C503.259 43.4581 508.271 33.2664 517.576 30.0457Z" fill="#D3AEFE"/>
  <path d="M102.588 188.149L96.5071 194.23L103.665 201.385L109.747 195.304C112.611 197.271 115.831 198.521 119.232 199.238V207.823H129.431V199.238C132.832 198.521 136.233 197.271 138.917 195.304L145.002 201.385L152.16 194.23L146.075 188.149C148.042 185.288 149.296 182.068 150.013 178.67H158.601V168.475H150.369C149.652 165.078 148.402 161.677 146.432 158.997L152.517 152.916L145.358 145.761L139.273 151.842C136.413 149.875 133.192 148.621 129.791 147.908V139.323H119.589V147.908C116.192 148.621 112.791 149.875 110.107 151.842L103.842 145.581L96.6836 152.735L102.768 158.817C100.801 161.677 99.5477 164.898 98.8308 168.295H90.2422V178.49H98.8308C99.3675 182.068 100.801 185.288 102.588 188.149ZM124.6 163.648C129.968 163.648 134.442 168.118 134.442 173.483C134.442 178.847 129.968 183.321 124.6 183.321C119.232 183.321 114.758 178.847 114.758 173.483C114.758 168.118 119.052 163.648 124.6 163.648Z" fill="#3EC6A4"/>
  <path d="M356.699 140.036C377.277 140.036 394.101 123.403 394.101 102.659C394.101 81.912 377.457 65.2788 356.699 65.2788C336.121 65.2788 319.297 81.912 319.297 102.659C319.297 123.403 335.941 140.036 356.699 140.036ZM356.699 78.8714C369.762 78.8714 380.498 89.4234 380.498 102.659C380.498 115.715 369.942 126.444 356.699 126.444C343.636 126.444 332.897 115.892 332.897 102.659C332.897 89.6035 343.456 78.8714 356.699 78.8714Z" fill="#96EEE6"/>
  <path d="M256.667 115.892L268.12 117.862C269.013 123.403 270.447 128.771 272.414 133.779L263.465 141.11C262.215 142.183 262.035 144.687 263.109 146.478L271.877 161.5C272.951 163.287 275.098 164.361 276.708 163.824L287.624 159.89C291.205 164.184 295.139 168.118 299.257 171.516L295.319 182.424C294.783 184.035 295.856 186.182 297.647 187.255L312.677 196.017C314.467 197.09 316.975 196.914 318.048 195.66L325.383 186.719C330.574 188.686 335.942 190.116 341.31 191.009L343.277 202.458C343.637 204.065 345.604 205.495 347.751 205.495H365.112C367.26 205.495 369.227 204.245 369.583 202.458L371.554 191.009C377.102 190.116 382.47 188.686 387.481 186.719L394.816 195.66C395.889 196.914 398.397 197.09 400.184 196.017L415.217 187.255C417.008 186.182 418.081 184.035 417.544 182.424L413.607 171.516C417.901 167.938 421.839 164.004 425.24 159.89L436.155 163.824C437.766 164.361 439.913 163.287 440.986 161.5L449.755 146.478C450.829 144.687 450.649 142.183 449.395 141.11L440.45 133.779C442.417 128.591 443.851 123.227 444.744 117.862L456.197 115.892C457.807 115.535 459.237 113.568 459.237 111.421V94.0744C459.237 91.9273 457.987 89.9603 456.197 89.6036L444.744 87.6366C443.851 82.0922 442.417 76.7243 440.45 71.7167L449.395 64.3855C450.649 63.3119 450.829 60.8081 449.755 59.0176L440.986 43.9948C439.913 42.2079 437.766 41.1344 436.155 41.6711L425.24 45.6052C421.659 41.3145 417.721 37.3769 413.607 33.9796L417.544 23.071C418.081 21.4606 417.008 19.3135 415.217 18.2399L400.184 9.47841C398.397 8.40484 395.889 8.58497 394.816 9.83507L387.481 18.7767C382.29 16.8097 376.922 15.3795 371.554 14.486L369.583 3.04059C369.227 1.43023 367.26 0 365.112 0H347.751C345.604 0 343.637 1.2501 343.277 3.04059L341.31 14.486C335.762 15.3795 330.394 16.8097 325.383 18.7767L318.048 9.83507C316.975 8.58497 314.467 8.40484 312.677 9.47841L297.647 18.2399C295.856 19.3135 294.783 21.4606 295.319 23.071L299.257 33.9796C294.963 37.557 291.025 41.491 287.624 45.6052L276.708 41.6711C275.098 41.1344 272.951 42.2079 271.877 43.9948L263.109 58.8411C262.035 60.628 262.215 63.1318 263.465 64.2053L272.414 71.5402C270.447 76.7243 269.013 82.0922 268.12 87.4565L256.667 89.4235C255.057 89.7801 253.623 91.7471 253.623 93.8943V111.244C253.803 113.568 255.057 115.535 256.667 115.892ZM356.7 40.7777C390.878 40.7777 418.618 68.4996 418.618 102.659C418.618 136.819 390.878 164.541 356.7 164.541C322.519 164.541 294.783 136.819 294.783 102.659C294.602 68.4996 322.342 40.7777 356.7 40.7777Z" fill="#3D96D3"/>
  <path d="M369.407 102.659C369.407 103.492 369.324 104.317 369.162 105.134C369 105.952 368.758 106.748 368.438 107.519C368.121 108.287 367.728 109.022 367.263 109.713C366.802 110.405 366.273 111.046 365.685 111.637C365.095 112.228 364.453 112.754 363.758 113.215C363.066 113.68 362.331 114.072 361.564 114.389C360.793 114.71 359.997 114.951 359.179 115.113C358.361 115.276 357.533 115.355 356.7 115.355C355.865 115.355 355.04 115.276 354.222 115.113C353.404 114.951 352.608 114.71 351.837 114.389C351.066 114.072 350.335 113.68 349.643 113.215C348.948 112.754 348.306 112.228 347.716 111.637C347.125 111.046 346.599 110.405 346.138 109.713C345.673 109.022 345.28 108.287 344.963 107.519C344.643 106.748 344.401 105.952 344.239 105.134C344.077 104.317 343.994 103.492 343.994 102.659C343.994 101.824 344.077 100.999 344.239 100.181C344.401 99.363 344.643 98.5704 344.963 97.7994C345.28 97.0285 345.673 96.2972 346.138 95.6019C346.599 94.9102 347.125 94.2689 347.716 93.6781C348.306 93.0909 348.948 92.5649 349.643 92.1001C350.335 91.6354 351.066 91.2463 351.837 90.9257C352.608 90.6087 353.404 90.3673 354.222 90.2052C355.04 90.0395 355.865 89.9602 356.7 89.9602C357.533 89.9602 358.361 90.0395 359.179 90.2052C359.997 90.3673 360.793 90.6087 361.564 90.9257C362.331 91.2463 363.066 91.6354 363.758 92.1001C364.453 92.5649 365.095 93.0909 365.685 93.6781C366.273 94.2689 366.802 94.9102 367.263 95.6019C367.728 96.2972 368.121 97.0285 368.438 97.7994C368.758 98.5704 369 99.363 369.162 100.181C369.324 100.999 369.407 101.824 369.407 102.659Z" fill="#69D1DC"/>
  <path d="M312.5 387.386H397.143V486.829H312.5V387.386Z" fill="#313062"/>
  <path d="M519.008 403.663H190.635C187.054 403.663 184.014 400.803 184.014 397.045V187.792C184.014 184.215 186.874 181.174 190.635 181.174H519.008C522.589 181.174 525.629 184.035 525.629 187.792V397.045C525.629 400.622 522.589 403.663 519.008 403.663Z" fill="#313062"/>
  <path d="M194.568 194.406H515.966V377.015H194.568V194.406Z" fill="#B5E6FF"/>
  <path d="M194.568 194.406H515.966V221.952H194.568V194.406Z" fill="white"/>
  <path d="M224.455 207.466C224.455 207.722 224.43 207.978 224.38 208.233C224.329 208.485 224.254 208.73 224.156 208.972C224.055 209.21 223.933 209.437 223.792 209.649C223.648 209.865 223.483 210.063 223.303 210.247C223.119 210.431 222.921 210.593 222.704 210.737C222.488 210.881 222.261 211 222.024 211.101C221.786 211.198 221.537 211.274 221.285 211.324C221.033 211.375 220.777 211.4 220.518 211.4C220.258 211.4 220.003 211.375 219.75 211.324C219.495 211.274 219.25 211.198 219.012 211.101C218.77 211 218.543 210.881 218.331 210.737C218.115 210.593 217.917 210.431 217.733 210.247C217.549 210.063 217.387 209.865 217.243 209.649C217.099 209.437 216.98 209.21 216.879 208.972C216.782 208.73 216.706 208.485 216.656 208.233C216.605 207.978 216.58 207.722 216.58 207.466C216.58 207.207 216.605 206.951 216.656 206.695C216.706 206.443 216.782 206.198 216.879 205.96C216.98 205.719 217.099 205.492 217.243 205.279C217.387 205.063 217.549 204.865 217.733 204.681C217.917 204.501 218.115 204.335 218.331 204.191C218.543 204.051 218.77 203.928 219.012 203.827C219.25 203.73 219.495 203.654 219.75 203.604C220.003 203.554 220.258 203.528 220.518 203.528C220.777 203.528 221.033 203.554 221.285 203.604C221.537 203.654 221.786 203.73 222.024 203.827C222.261 203.928 222.488 204.051 222.704 204.191C222.921 204.335 223.119 204.501 223.303 204.681C223.483 204.865 223.648 205.063 223.792 205.279C223.933 205.492 224.055 205.719 224.156 205.96C224.254 206.198 224.329 206.443 224.38 206.695C224.43 206.951 224.455 207.207 224.455 207.466Z" fill="#FFC400"/>
  <path d="M236.446 207.466C236.446 207.722 236.42 207.978 236.37 208.233C236.319 208.485 236.244 208.73 236.147 208.972C236.046 209.21 235.923 209.437 235.783 209.649C235.639 209.865 235.473 210.063 235.293 210.247C235.109 210.431 234.911 210.593 234.695 210.737C234.479 210.881 234.252 211 234.014 211.101C233.776 211.198 233.531 211.274 233.275 211.324C233.023 211.375 232.767 211.4 232.508 211.4C232.249 211.4 231.993 211.375 231.741 211.324C231.485 211.274 231.24 211.198 231.002 211.101C230.761 211 230.534 210.881 230.321 210.737C230.105 210.593 229.907 210.431 229.723 210.247C229.543 210.063 229.377 209.865 229.233 209.649C229.089 209.437 228.97 209.21 228.869 208.972C228.772 208.73 228.696 208.485 228.646 208.233C228.596 207.978 228.57 207.722 228.57 207.466C228.57 207.207 228.596 206.951 228.646 206.695C228.696 206.443 228.772 206.198 228.869 205.96C228.97 205.719 229.089 205.492 229.233 205.279C229.377 205.063 229.543 204.865 229.723 204.681C229.907 204.501 230.105 204.335 230.321 204.191C230.534 204.051 230.761 203.928 231.002 203.827C231.24 203.73 231.485 203.654 231.741 203.604C231.993 203.554 232.249 203.528 232.508 203.528C232.767 203.528 233.023 203.554 233.275 203.604C233.531 203.654 233.776 203.73 234.014 203.827C234.252 203.928 234.479 204.051 234.695 204.191C234.911 204.335 235.109 204.501 235.293 204.681C235.473 204.865 235.639 205.063 235.783 205.279C235.923 205.492 236.046 205.719 236.147 205.96C236.244 206.198 236.319 206.443 236.37 206.695C236.42 206.951 236.446 207.207 236.446 207.466Z" fill="#5BC5C9"/>
  <path d="M211.032 207.466C211.032 207.722 211.007 207.978 210.956 208.233C210.906 208.485 210.83 208.73 210.733 208.972C210.636 209.21 210.513 209.437 210.369 209.649C210.225 209.865 210.063 210.063 209.879 210.247C209.695 210.431 209.497 210.593 209.285 210.737C209.068 210.881 208.841 211 208.604 211.101C208.362 211.198 208.117 211.274 207.865 211.324C207.609 211.375 207.354 211.4 207.094 211.4C206.838 211.4 206.583 211.375 206.327 211.324C206.075 211.274 205.83 211.198 205.588 211.101C205.351 211 205.124 210.881 204.907 210.737C204.695 210.593 204.493 210.431 204.313 210.247C204.129 210.063 203.967 209.865 203.823 209.649C203.679 209.437 203.556 209.21 203.459 208.972C203.358 208.73 203.286 208.485 203.236 208.233C203.185 207.978 203.16 207.722 203.16 207.466C203.16 207.207 203.185 206.951 203.236 206.695C203.286 206.443 203.358 206.198 203.459 205.96C203.556 205.719 203.679 205.492 203.823 205.279C203.967 205.063 204.129 204.865 204.313 204.681C204.493 204.501 204.695 204.335 204.907 204.191C205.124 204.051 205.351 203.928 205.588 203.827C205.83 203.73 206.075 203.654 206.327 203.604C206.583 203.554 206.838 203.528 207.094 203.528C207.354 203.528 207.609 203.554 207.865 203.604C208.117 203.654 208.362 203.73 208.604 203.827C208.841 203.928 209.068 204.051 209.285 204.191C209.497 204.335 209.695 204.501 209.879 204.681C210.063 204.865 210.225 205.063 210.369 205.279C210.513 205.492 210.636 205.719 210.733 205.96C210.83 206.198 210.906 206.443 210.956 206.695C211.007 206.951 211.032 207.207 211.032 207.466Z" fill="#FF6E8B"/>
  <path d="M464.072 214.08V360.558C464.072 361.992 462.818 363.242 461.388 363.242H274.381C272.951 363.242 271.697 361.992 271.697 360.558V214.08C271.697 212.65 272.951 211.4 274.381 211.4H461.388C462.818 211.4 464.072 212.65 464.072 214.08Z" fill="#EEF3FA"/>
  <path d="M284.047 299.213H371.374V305.294H284.047V299.213Z" fill="#CCE0FF"/>
  <path d="M284.047 311.555H371.374V317.637H284.047V311.555Z" fill="#CCE0FF"/>
  <path d="M284.047 323.894H371.374V329.975H284.047V323.894Z" fill="#CCE0FF"/>
  <path d="M284.047 336.774H333.258V341.781H284.047V336.774Z" fill="#CCE0FF"/>
  <path d="M285.656 236.438H372.983V242.519H285.656V236.438Z" fill="#CCE0FF"/>
  <path d="M285.656 248.777H372.983V254.858H285.656V248.777Z" fill="#CCE0FF"/>
  <path d="M285.656 261.119H372.983V267.2H285.656V261.119Z" fill="#CCE0FF"/>
  <path d="M285.656 273.995H334.868V279.002H285.656V273.995Z" fill="#CCE0FF"/>
  <path d="M464.072 214.08V227.853H271.697V214.08C271.697 212.65 272.951 211.4 274.381 211.4H461.388C462.818 211.4 464.072 212.65 464.072 214.08Z" fill="#CCE0FF"/>
  <path d="M260.604 476.277H449.037V486.648H260.604V476.277Z" fill="#D3AEFE"/>
  <path d="M426.133 237.331C416.111 237.331 407.879 245.56 407.879 255.575C407.879 258.972 408.776 262.013 410.386 264.697C413.607 259.152 419.512 255.575 426.313 255.575C433.111 255.575 439.016 259.332 442.24 264.697C443.851 262.013 444.744 258.796 444.744 255.575C444.564 245.56 436.332 237.331 426.133 237.331ZM426.133 252.178C423.449 252.178 421.302 250.03 421.302 247.346C421.302 244.666 423.449 242.519 426.133 242.519C428.817 242.519 430.964 244.666 430.964 247.346C430.964 250.03 428.817 252.178 426.133 252.178Z" fill="#577DE8"/>
  <path d="M426.132 255.755C419.33 255.755 413.426 259.509 410.205 264.877C413.426 270.421 419.33 273.995 426.132 273.995C432.934 273.995 438.838 270.241 442.059 264.877C438.838 259.332 432.934 255.755 426.132 255.755Z" fill="#D7F1FF"/>
  <path d="M430.963 247.527C430.963 247.844 430.934 248.157 430.869 248.467C430.808 248.78 430.718 249.083 430.595 249.375C430.473 249.667 430.325 249.944 430.149 250.211C429.972 250.474 429.774 250.719 429.547 250.942C429.324 251.165 429.079 251.367 428.816 251.54C428.553 251.716 428.275 251.868 427.98 251.987C427.688 252.109 427.386 252.199 427.076 252.264C426.762 252.325 426.449 252.354 426.132 252.354C425.815 252.354 425.501 252.325 425.188 252.264C424.878 252.199 424.576 252.109 424.284 251.987C423.988 251.868 423.711 251.716 423.448 251.54C423.185 251.367 422.94 251.165 422.717 250.942C422.49 250.719 422.291 250.474 422.115 250.211C421.938 249.944 421.791 249.667 421.668 249.375C421.546 249.083 421.456 248.78 421.394 248.467C421.33 248.157 421.301 247.844 421.301 247.527C421.301 247.21 421.33 246.896 421.394 246.583C421.456 246.273 421.546 245.97 421.668 245.679C421.791 245.387 421.938 245.106 422.115 244.843C422.291 244.58 422.49 244.335 422.717 244.111C422.94 243.888 423.185 243.686 423.448 243.51C423.711 243.337 423.988 243.186 424.284 243.067C424.576 242.944 424.878 242.851 425.188 242.789C425.501 242.728 425.815 242.699 426.132 242.699C426.449 242.699 426.762 242.728 427.076 242.789C427.386 242.851 427.688 242.944 427.98 243.067C428.275 243.186 428.553 243.337 428.816 243.51C429.079 243.686 429.324 243.888 429.547 244.111C429.774 244.335 429.972 244.58 430.149 244.843C430.325 245.106 430.473 245.387 430.595 245.679C430.718 245.97 430.808 246.273 430.869 246.583C430.934 246.896 430.963 247.21 430.963 247.527Z" fill="#D7F1FF"/>
  <path d="M392.848 297.606H447.784V348.219H392.848V297.606Z" fill="#B5E6FF"/>
  <path d="M581.996 326.758C581.996 324.791 584.143 323.538 585.934 324.254C587.008 324.611 587.724 325.685 587.724 326.758L589.691 351.976C589.872 353.763 591.302 355.193 593.092 355.374L607.766 359.308C607.049 362.348 597.03 361.992 596.133 365.032C595.776 366.462 595.239 367.712 594.703 369.143L585.217 366.462C582.353 365.745 580.386 363.065 580.566 360.025L581.996 326.758Z" fill="#E8A2AC"/>
  <path d="M602.756 335.163L544.42 307.978L539.945 324.255L601.683 338.56L602.756 335.163Z" fill="#3093D0"/>
  <path d="M632.103 512.94C632.283 515.087 632.463 517.411 632.463 519.558C632.283 517.054 632.103 514.37 631.926 511.686C631.746 509.719 631.746 507.752 631.566 505.785H620.83C621.367 508.289 621.724 510.613 622.26 513.12C622.797 513.12 623.514 512.94 624.051 512.76H632.103V512.94Z" fill="#E8A2AC"/>
  <path d="M617.429 517.231L622.977 515.624L617.429 517.231C617.429 517.411 617.252 517.411 617.252 517.591C617.072 517.768 617.072 518.128 617.072 518.484C617.072 518.128 617.072 517.948 617.252 517.591C617.252 517.411 617.252 517.231 617.429 517.231Z" fill="#E8A2AC"/>
  <path d="M617.609 519.915C617.429 519.735 617.252 519.378 617.072 519.198C617.252 519.378 617.429 519.735 617.609 519.915C617.789 520.095 617.789 520.095 617.966 520.095C618.146 520.095 618.146 520.272 618.146 520.272L617.966 520.095C617.789 520.095 617.789 519.915 617.609 519.915Z" fill="#E8A2AC"/>
  <path d="M631.389 465.901C631.926 456.96 632.463 448.195 632.639 439.253C632.639 434.782 632.819 433.532 632.819 430.311L609.914 425.124L610.271 425.84L610.631 438.359H610.808C610.808 438.54 610.808 438.896 610.808 439.076C612.241 461.43 616.355 483.965 620.65 505.966H632.639C632.463 501.315 631.389 488.796 631.389 484.145C631.209 478.064 631.209 471.982 631.389 465.901Z" fill="#2062A9"/>
  <path d="M612.598 511.686C612.418 509.719 612.418 507.752 612.241 505.785H601.502C602.039 508.289 602.399 510.613 602.936 513.12C603.473 513.12 604.186 512.94 604.723 512.76H612.598C612.778 514.907 612.955 517.231 612.955 519.378C612.778 517.054 612.598 514.37 612.598 511.686Z" fill="#E8A2AC"/>
  <path d="M597.745 517.231L603.293 515.624L597.745 517.231C597.745 517.411 597.569 517.411 597.569 517.591C597.389 517.948 597.389 518.128 597.389 518.484C597.389 518.128 597.389 517.948 597.569 517.591C597.745 517.411 597.745 517.231 597.745 517.231Z" fill="#E8A2AC"/>
  <path d="M598.105 519.915C597.925 519.735 597.745 519.378 597.568 519.198C597.745 519.378 597.925 519.735 598.105 519.915C598.282 520.095 598.282 520.095 598.462 520.095C598.642 520.095 598.642 520.272 598.642 520.272L598.462 520.095C598.282 520.095 598.105 519.915 598.105 519.915Z" fill="#E8A2AC"/>
  <path d="M589.336 431.028C589.156 429.238 589.156 426.734 589.873 426.017C590.05 424.947 590.23 424.05 590.41 423.156C592.733 413.678 594.881 413.321 596.851 416.899C601.682 409.207 599.715 418.686 599.355 423.513C599.535 424.23 599.715 425.123 599.892 425.84C600.252 425.66 600.429 425.123 600.789 424.947C600.965 424.947 600.965 424.767 600.965 424.767C600.965 424.767 601.146 424.767 601.146 424.587C602.219 424.05 603.473 423.693 604.546 423.337C604.546 423.337 605.977 422.98 606.157 422.98C607.05 422.8 607.947 422.8 608.841 422.62C609.914 422.443 610.988 422.443 612.061 422.443C612.061 427.987 611.881 433.532 611.705 439.076C611.705 441.4 611.705 443.724 611.525 446.227L611.344 465.725H611.168C611.168 471.806 611.168 477.883 611.168 483.965C611.168 488.615 612.241 501.315 612.418 505.785H600.429C600.965 505.966 587.009 459.82 589.336 431.028Z" fill="#3093D0"/>
  <path d="M607.949 344.642L606.875 359.308L617.967 360.025L618.684 349.112L607.949 344.642Z" fill="#E8A2AC"/>
  <path d="M603.829 338.917C602.218 343.928 604.902 349.293 610.094 350.903C612.061 351.616 614.208 351.44 615.998 350.903C616.535 350.723 616.892 350.543 617.428 350.366C619.576 349.293 621.366 347.326 622.083 344.822C623.157 341.245 622.083 337.311 619.399 334.983C619.039 334.627 618.502 334.27 617.965 333.91C617.252 333.553 616.535 333.196 615.818 332.84C615.642 332.84 615.461 332.66 615.281 332.66C613.671 332.303 612.061 332.303 610.45 332.66C607.41 333.373 604.902 335.7 603.829 338.917Z" fill="#E8A2AC"/>
  <path d="M610.807 325.685C612.061 326.042 612.955 326.759 613.491 328.009C613.672 328.545 613.852 329.082 613.852 329.619C613.852 330.336 614.388 331.049 615.105 331.406C616.355 331.943 617.609 332.66 618.863 333.373C619.039 333.373 619.039 333.553 619.219 333.553C619.756 333.91 620.113 334.27 620.65 334.627C623.334 337.13 624.411 340.888 623.334 344.462C622.62 346.965 620.83 348.936 618.683 350.006H618.503L614.745 341.245L614.208 341.781L614.028 341.958C613.672 342.318 613.135 342.495 612.778 342.318C612.061 342.138 611.881 341.425 612.061 340.708L613.491 337.667V337.487C613.852 336.414 613.315 335.344 612.241 334.983C611.168 334.627 609.734 334.446 608.84 333.553C605.263 331.406 606.337 324.611 610.807 325.685Z" fill="#6F2677"/>
  <path d="M608.66 333.373C608.84 333.553 608.66 333.373 608.66 333.373V333.373Z" fill="#6F2677"/>
  <path d="M616.913 339.645C617.23 339.746 617.514 339.904 617.766 340.12C618.022 340.333 618.224 340.589 618.375 340.884C618.53 341.179 618.62 341.489 618.645 341.821C618.674 342.152 618.638 342.476 618.537 342.793C618.437 343.11 618.278 343.395 618.062 343.647C617.849 343.899 617.594 344.105 617.298 344.256C617.003 344.407 616.689 344.497 616.358 344.526C616.026 344.555 615.702 344.515 615.389 344.415C615.072 344.314 614.787 344.159 614.531 343.943C614.279 343.73 614.074 343.474 613.922 343.179C613.771 342.884 613.681 342.57 613.652 342.239C613.627 341.907 613.663 341.587 613.764 341.27C613.865 340.953 614.023 340.668 614.236 340.416C614.452 340.16 614.708 339.958 615 339.807C615.295 339.652 615.608 339.562 615.94 339.537C616.271 339.508 616.596 339.544 616.913 339.645Z" fill="#E8A2AC"/>
  <path d="M632.464 430.491L624.232 439.79L611.706 449.628L606.338 428.881L632.464 430.491Z" fill="#3093D0"/>
  <path d="M616.893 518.305C616.893 517.948 616.893 517.768 617.073 517.411C617.073 517.231 617.254 517.231 617.254 517.055L622.798 515.444C622.621 514.727 622.441 513.834 622.261 513.121C622.798 513.121 623.515 512.94 624.052 512.76H631.927C632.103 514.727 632.103 516.694 632.284 518.661H616.717C617.073 518.661 616.893 518.485 616.893 518.305Z" fill="#5BC5C9"/>
  <path d="M597.389 518.305C597.389 517.948 597.389 517.768 597.569 517.411C597.569 517.231 597.746 517.231 597.746 517.055L603.294 515.444C603.114 514.727 602.937 513.834 602.757 513.121C603.294 513.121 604.011 512.94 604.547 512.76H612.419C612.599 514.727 612.599 516.694 612.779 518.661H597.209C597.389 518.661 597.389 518.485 597.389 518.305Z" fill="#5BC5C9"/>
  <path d="M633.357 380.948V425.123L633.001 430.848L604.367 404.556L605.441 366.999L632.82 375.224C633.177 377.014 633.357 378.981 633.357 380.948Z" fill="#E4E9FF"/>
  <path d="M605.62 358.414L571.619 355.194C569.828 355.014 568.398 353.583 568.218 351.797L565.714 326.578C565.534 325.505 564.817 324.611 563.924 324.255C562.133 323.538 560.166 324.968 560.166 326.935L559.449 360.201C559.449 363.242 561.42 365.926 564.28 366.639L600.789 375.761L605.62 358.414Z" fill="#E8A2AC"/>
  <path d="M592.557 366.819C592.914 363.422 595.241 360.381 598.462 359.308C601.502 358.234 605.44 357.521 609.558 357.341V357.161C620.65 357.161 629.956 364.852 632.64 375.224C633.176 377.015 633.356 378.982 633.356 380.949V431.205L585.936 427.988L592.557 366.819Z" fill="#E4E9FF"/>
  <path d="M579.494 355.374L580.031 371.113L599.355 378.445C605.44 380.232 611.525 375.941 612.062 369.68L612.242 368.073C612.778 362.529 608.661 357.878 603.113 357.341L579.494 355.374Z" fill="#E4E9FF"/>
  <path d="M543.601 307.845C543.875 307.906 544.135 308.021 544.38 308.191C544.625 308.356 544.852 308.576 545.057 308.843C545.266 309.113 545.446 309.426 545.608 309.783C545.767 310.14 545.9 310.536 546.004 310.968C546.112 311.401 546.188 311.862 546.239 312.355C546.285 312.845 546.307 313.357 546.296 313.89C546.285 314.42 546.246 314.964 546.177 315.515C546.109 316.066 546.012 316.617 545.889 317.165C545.763 317.716 545.612 318.253 545.435 318.779C545.262 319.308 545.06 319.813 544.841 320.295C544.621 320.782 544.383 321.236 544.127 321.657C543.868 322.079 543.601 322.464 543.317 322.806C543.036 323.152 542.744 323.451 542.445 323.704C542.15 323.959 541.847 324.161 541.544 324.312C541.245 324.467 540.946 324.565 540.651 324.611C540.359 324.658 540.074 324.651 539.797 324.586C539.523 324.525 539.264 324.41 539.019 324.24C538.774 324.075 538.547 323.855 538.342 323.588C538.133 323.318 537.953 323.005 537.79 322.648C537.632 322.291 537.499 321.895 537.394 321.463C537.286 321.03 537.21 320.569 537.16 320.076C537.113 319.586 537.092 319.074 537.102 318.541C537.113 318.011 537.153 317.467 537.221 316.916C537.29 316.365 537.387 315.814 537.509 315.266C537.636 314.715 537.787 314.178 537.963 313.652C538.14 313.123 538.338 312.618 538.558 312.136C538.778 311.649 539.015 311.195 539.275 310.774C539.53 310.352 539.801 309.967 540.082 309.625C540.366 309.279 540.654 308.98 540.954 308.728C541.253 308.472 541.552 308.27 541.854 308.119C542.153 307.964 542.452 307.867 542.748 307.82C543.039 307.773 543.324 307.78 543.601 307.845Z" fill="#2062A9"/>
  <path d="M449.754 370.933L446.173 389.534L415.036 396.328L414.322 380.412C413.785 370.753 420.227 362.348 429.709 360.381L436.511 359.128L423.091 312.986L421.481 307.261C421.12 305.831 422.017 304.401 423.448 304.044C423.628 304.044 423.804 304.044 424.164 304.044C425.238 304.044 426.312 304.758 426.668 305.831L428.459 309.945L449.574 358.771C450.827 362.529 450.827 366.819 449.754 370.933Z" fill="#E4E9FF"/>
  <path d="M426.85 360.738V350.903C426.85 345.359 431.32 340.888 436.868 340.888H437.405C442.953 340.888 447.428 345.359 447.428 350.903C447.428 356.624 442.777 361.095 437.049 360.918L426.85 360.738Z" fill="#2062A9"/>
  <path d="M417.543 459.643C416.29 459.463 415.216 459.283 413.962 459.107C414.142 459.107 413.962 459.107 413.606 459.107C412.352 460.357 411.098 461.43 409.668 462.504C410.922 479.137 413.425 500.598 413.606 511.867C413.606 511.867 413.425 511.867 413.249 512.047C413.786 512.047 414.142 512.047 414.679 512.047C416.109 511.867 417.543 512.047 418.973 512.403C418.973 512.223 418.973 512.047 418.973 511.867C419.154 510.973 419.154 510.08 419.33 509.183C420.584 495.59 421.477 483.071 422.731 469.659C422.731 469.302 422.731 465.008 422.554 460.717C420.764 460.18 419.154 459.82 417.543 459.643Z" fill="#E8A2AC"/>
  <path d="M413.605 511.867L406.983 517.231C406.447 517.591 406.266 518.304 406.447 519.021C406.803 519.735 407.52 520.095 408.237 519.915L416.645 517.411C417.899 517.054 418.793 515.801 418.793 514.37L418.616 510.793L413.605 511.867Z" fill="#2062A9"/>
  <path d="M444.563 460C443.313 459.82 442.239 459.644 440.986 459.463C441.166 459.463 440.986 459.463 440.625 459.463C439.375 460.717 438.122 461.787 436.691 462.861C437.942 479.494 440.449 500.958 440.625 512.223C440.625 512.223 440.449 512.223 440.269 512.403C440.806 512.403 441.166 512.403 441.703 512.403C443.133 512.223 444.563 512.403 445.997 512.76C445.997 512.584 445.997 512.403 445.997 512.223C446.173 511.33 446.173 510.436 446.354 509.543C447.607 495.95 448.501 483.428 449.754 470.015C449.754 469.659 449.754 465.364 449.574 461.074C447.784 460.717 446.173 460.357 444.563 460Z" fill="#E8A2AC"/>
  <path d="M440.625 512.403L434.007 517.768C433.47 518.128 433.29 518.841 433.47 519.558C433.827 520.271 434.544 520.632 435.257 520.452L442.952 518.128C444.742 517.591 445.996 515.981 445.816 514.014V511.15L440.625 512.403Z" fill="#2062A9"/>
  <path d="M416.646 394.541C420.227 394.541 445.997 389.533 445.997 389.533L450.648 401.159C452.795 405.81 453.868 411.174 453.512 416.362L450.111 466.081L408.951 468.048L416.646 394.541Z" fill="#2062A9"/>
  <path d="M405.554 436.212C405.911 436.392 406.267 436.392 406.447 436.392C407.701 436.392 408.951 435.675 409.488 434.425L411.815 428.701L425.775 394.361L427.742 373.257C428.099 369.323 424.702 365.926 420.764 366.463C419.33 366.639 418.08 367.356 417.007 368.43C416.11 369.503 415.396 370.753 415.396 372.364L414.323 395.615L405.017 426.554L403.407 432.098C402.87 433.889 403.763 435.675 405.554 436.212Z" fill="#E4E9FF"/>
  <path d="M405.554 436.212C405.911 436.392 406.267 436.392 406.447 436.392C407.701 436.392 408.951 435.676 409.488 434.425L411.815 428.701L405.017 426.734L403.407 432.278C402.87 433.889 403.763 435.676 405.554 436.212Z" fill="#E8A2AC"/>
  <path d="M428.098 309.765L422.73 312.986L421.12 307.261C420.763 305.831 421.656 304.401 423.09 304.044C423.267 304.044 423.447 304.044 423.803 304.044C424.877 304.044 425.951 304.758 426.311 305.831L428.098 309.765Z" fill="#E8A2AC"/>
  <path d="M442.953 178.671C442.596 177.777 442.776 176.88 443.313 176.167L455.122 170.799C455.839 169.725 456.376 168.295 456.376 166.865C456.376 166.865 456.552 150.412 456.913 149.518C457.449 147.908 458.699 146.835 460.313 146.298C462.997 145.581 465.681 147.191 466.395 149.875C466.755 151.125 463.174 171.696 463.174 171.696C462.997 173.663 461.924 175.27 460.67 176.167L444.743 179.564C444.206 180.101 443.313 179.564 442.953 178.671Z" fill="#E8A2AC"/>
  <path d="M462.817 227.496L462.281 227.673L458.88 228.39C458.343 228.57 457.986 228.927 457.986 229.643C457.986 230 458.163 230.357 458.343 230.537C458.523 230.713 458.88 230.894 459.236 230.894H470.693V227.496H462.817Z" fill="#2062A9"/>
  <path d="M488.407 172.589C488.05 172.052 486.616 170.262 485.366 168.832C484.649 167.758 483.932 167.045 484.112 166.865C484.112 166.865 483.039 167.045 481.608 167.045C479.638 167.045 476.954 167.045 474.09 167.221C469.079 167.221 464.248 167.221 464.248 167.221C464.248 167.402 464.248 167.402 464.248 167.582C463.891 169.012 463.354 170.442 462.461 171.696C461.924 172.409 461.387 173.126 460.67 173.839C458.343 176.167 454.942 177.777 451.365 177.777H443.133C442.953 177.777 442.776 177.777 442.776 177.777C441.879 177.777 440.806 177.954 439.912 178.31C438.122 178.847 436.511 179.921 435.258 181.531C433.291 183.855 432.217 186.895 432.574 189.936C433.827 200.668 434.901 209.97 435.794 215.514C436.331 219.268 436.691 221.415 436.691 221.415L437.405 227.496H445.1V210.683L445.637 189.399H457.986C457.986 189.579 457.986 189.759 457.986 189.936C459.236 200.668 460.31 209.97 461.207 215.514C461.744 219.268 462.1 221.415 462.1 221.415L462.817 227.496H470.513V210.683L471.049 189.399H479.101C484.292 189.399 489.837 185.465 490.554 180.101C490.914 177.24 489.84 174.913 488.407 172.589Z" fill="#577DE8"/>
  <path d="M437.405 227.496L436.869 227.673L433.471 228.39C432.934 228.57 432.574 228.927 432.574 229.643C432.574 230 432.754 230.357 432.934 230.537C433.111 230.713 433.471 230.894 433.828 230.894H445.281V227.496H437.405Z" fill="#2062A9"/>
  <path d="M468.186 135.209L478.921 124.3C480.355 127.877 481.249 130.021 483.219 131.631C484.83 132.885 486.616 133.422 488.587 133.598C491.988 133.778 495.209 135.389 497.176 138.606C499.86 142.9 498.966 148.445 495.385 151.842C490.554 156.313 482.682 155.239 479.282 149.518C478.384 148.084 478.028 146.478 477.848 144.867C476.061 138.606 474.09 137.532 468.186 135.209Z" fill="#3A3677"/>
  <path d="M465.858 133.242C469.079 137.356 475.344 137.356 478.565 133.242C480.712 130.381 480.712 126.267 478.565 123.403C475.344 119.292 469.079 119.292 465.858 123.403C463.711 126.444 463.711 130.381 465.858 133.242Z" fill="#3A3677"/>
  <path d="M464.964 130.738C465.144 133.778 467.468 136.282 470.512 136.462C472.123 136.639 473.553 136.102 474.626 135.389C476.237 134.315 477.134 132.525 477.134 130.381C477.134 126.98 474.45 124.3 471.049 124.3C470.869 124.3 470.869 124.3 470.692 124.3C467.291 124.477 464.784 127.341 464.964 130.738Z" fill="#E8A2AC"/>
  <path d="M468.186 121.973C468.902 121.973 469.616 121.796 470.513 121.616C470.869 121.796 471.23 121.796 471.586 121.796C471.943 121.796 472.123 121.796 472.303 121.616L475.164 123.583C477.311 124.837 478.745 126.98 478.745 129.664C478.745 131.812 477.848 133.598 476.417 134.852C476.061 135.209 476.774 136.282 476.417 136.462L472.66 126.624L468.366 122.333C468.186 122.153 468.902 122.87 468.722 122.69C468.902 122.87 468.186 121.973 468.186 121.973Z" fill="#3A3677"/>
  <path d="M478.027 145.404H470.512L469.078 134.315L475.7 130.918L476.236 132.705L478.027 145.404Z" fill="#E8A2AC"/>
  <path d="M477.134 129.484C477.134 129.819 477.069 130.136 476.943 130.443C476.817 130.752 476.633 131.023 476.399 131.257C476.165 131.491 475.895 131.671 475.585 131.801C475.279 131.927 474.962 131.988 474.627 131.988C474.295 131.988 473.975 131.927 473.669 131.801C473.362 131.671 473.092 131.491 472.858 131.257C472.62 131.023 472.44 130.752 472.314 130.443C472.188 130.136 472.123 129.819 472.123 129.484C472.123 129.153 472.188 128.836 472.314 128.526C472.44 128.22 472.62 127.95 472.858 127.715C473.092 127.481 473.362 127.301 473.669 127.171C473.975 127.045 474.295 126.98 474.627 126.98C474.962 126.98 475.279 127.045 475.585 127.171C475.895 127.301 476.165 127.481 476.399 127.715C476.633 127.95 476.817 128.22 476.943 128.526C477.069 128.836 477.134 129.153 477.134 129.484Z" fill="#E8A2AC"/>
  <path d="M463.89 143.974C464.784 143.794 465.681 143.614 466.754 143.437C471.586 142.9 476.417 142.9 481.248 143.614C484.292 143.974 488.049 145.047 488.766 148.084C489.123 149.158 488.766 150.412 488.586 151.485C487.332 158.28 486.079 165.078 484.829 171.872C477.31 171.159 469.795 171.159 462.28 171.872C461.026 165.434 459.773 158.817 458.699 152.379C457.806 147.371 459.953 145.047 463.89 143.974Z" fill="white"/>
  <path d="M418.793 151.485L426.848 178.134H475.163V175.093H461.026L455.478 152.022L418.793 151.485Z" fill="#2062A9"/>
  <path d="M441.878 166.508C441.878 166.839 441.817 167.16 441.687 167.466C441.561 167.772 441.381 168.043 441.147 168.277C440.909 168.515 440.639 168.695 440.333 168.821C440.027 168.947 439.706 169.012 439.375 169.012C439.043 169.012 438.723 168.947 438.416 168.821C438.106 168.695 437.836 168.515 437.602 168.277C437.368 168.043 437.188 167.772 437.058 167.466C436.932 167.16 436.867 166.839 436.867 166.508C436.867 166.177 436.932 165.856 437.058 165.55C437.188 165.243 437.368 164.973 437.602 164.735C437.836 164.501 438.106 164.321 438.416 164.195C438.723 164.065 439.043 164.004 439.375 164.004C439.706 164.004 440.027 164.065 440.333 164.195C440.639 164.321 440.909 164.501 441.147 164.735C441.381 164.973 441.561 165.243 441.687 165.55C441.817 165.856 441.878 166.177 441.878 166.508Z" fill="#F7F7F7"/>
  <path d="M463.891 173.839C464.071 172.946 464.784 172.233 465.501 171.872L481.428 168.118C481.608 167.582 481.608 166.865 481.428 166.328C481.428 166.328 479.998 149.875 480.174 148.982C480.535 147.371 481.608 146.117 483.219 145.404C485.722 144.511 488.587 145.761 489.66 148.265C490.017 149.158 489.3 161.144 488.943 167.045C488.763 169.012 488.763 170.262 488.763 170.262C488.763 171.336 488.587 172.233 488.226 172.946C488.226 173.126 488.05 173.303 488.05 173.303H487.87C486.616 174.556 485.186 175.27 483.755 175.27L464.964 175.45C464.071 175.63 463.534 174.913 463.891 173.839Z" fill="#E8A2AC"/>
  <path d="M208.886 347.145V389.714C208.886 395.615 202.624 399.192 197.433 396.328L153.053 370.577L155.917 365.746C160.391 358.234 170.414 356.087 177.392 361.455L196.896 376.121L201.014 352.87L201.907 346.789C202.264 344.642 204.411 343.211 206.558 343.928C207.275 344.105 207.812 344.642 208.169 345.178C208.529 345.715 208.886 346.432 208.886 347.145Z" fill="white"/>
  <path d="M208.885 347.145V352.87H201.014L201.907 346.789C202.264 344.642 204.411 343.211 206.558 343.928C207.275 344.105 207.812 344.642 208.168 345.178C208.529 345.715 208.885 346.432 208.885 347.145Z" fill="#E8A2AC"/>
  <path d="M129.611 478.064H93.4622C92.9255 478.064 92.3887 477.527 92.3887 476.99V447.301C92.3887 446.764 92.9255 446.228 93.4622 446.228H129.791C130.328 446.228 130.864 446.764 130.864 447.301V476.99C130.864 477.527 130.328 478.064 129.611 478.064Z" fill="#6F2677"/>
  <path d="M111.536 457.316C106.349 457.316 102.051 452.669 102.051 446.764C102.051 441.043 106.349 436.212 111.536 436.212C116.728 436.212 121.022 440.863 121.022 446.764C121.022 452.489 116.728 457.316 111.536 457.316ZM111.536 439.076C107.779 439.076 104.915 442.474 104.915 446.764C104.915 451.059 107.959 454.456 111.536 454.456C115.294 454.456 118.158 451.059 118.158 446.764C118.158 442.474 115.294 439.076 111.536 439.076Z" fill="#6F2677"/>
  <path d="M107.598 463.041H115.473V466.081H107.598V463.041Z" fill="#D68DBC"/>
  <path d="M151.086 346.252H162.895V358.054H151.086V346.252Z" fill="#E8A2AC"/>
  <path d="M184.189 387.923C182.222 377.191 183.296 361.095 168.262 357.698C165.758 357.161 151.441 357.341 145.894 358.054C141.779 358.591 138.022 359.665 134.978 360.918C129.966 363.065 125.852 366.639 122.095 370.934C112.969 381.842 108.135 395.615 108.135 409.921V439.076C108.495 440.863 110.105 442.294 111.892 442.294C114.043 442.294 115.83 440.507 115.653 438.179L116.547 433.709L116.727 432.995L116.903 432.098L117.801 427.627L118.874 422.083L123.705 398.655L132.294 383.989C132.117 397.582 129.79 411.531 129.966 425.484C146.43 425.484 170.052 425.484 186.516 425.841H187.053C187.233 425.66 188.127 409.744 184.189 387.923ZM164.504 358.951V359.128V358.951ZM164.504 360.382C164.504 360.558 164.504 360.738 164.504 360.918V360.382Z" fill="white"/>
  <path d="M116.011 438.359C116.191 440.507 114.401 442.474 112.254 442.474C110.463 442.474 108.853 441.043 108.496 439.253V433.352H117.085L116.011 438.359Z" fill="#E8A2AC"/>
  <path d="M118.159 427.988L117.265 432.458L117.085 433.352L116.905 433.889H108.316V427.988H118.159Z" fill="#F7F7F7"/>
  <path d="M161.9 367.777L156.965 372.709L152.029 367.777L156.965 362.845L161.9 367.777Z" fill="#FF6E8B"/>
  <path d="M156.81 424.23L163.792 417.255L156.81 366.999L150.012 417.255L156.81 424.23Z" fill="#FF6E8B"/>
  <path d="M166.475 340.528C168.085 345.715 165.041 351.26 159.854 352.69C157.706 353.227 155.736 353.227 153.769 352.51C153.232 352.333 152.875 352.153 152.339 351.797C150.188 350.543 148.401 348.576 147.684 346.072C146.61 342.318 147.864 338.384 150.548 335.88C150.905 335.52 151.442 335.163 151.978 334.807C152.695 334.447 153.412 334.09 154.306 333.733C154.486 333.733 154.662 333.553 154.842 333.553C156.453 333.196 158.243 333.196 159.854 333.733C162.894 334.807 165.402 337.13 166.475 340.528Z" fill="#E8A2AC"/>
  <path d="M159.493 326.758C158.243 327.115 157.169 327.832 156.809 329.082C156.632 329.619 156.452 330.156 156.452 330.692C156.452 331.406 155.915 332.123 155.198 332.479C153.948 333.016 152.514 333.733 151.264 334.446C151.084 334.446 151.084 334.627 150.904 334.627C150.367 334.983 149.831 335.343 149.474 335.7C146.79 338.204 145.536 342.138 146.61 345.895C147.327 348.399 149.114 350.543 151.264 351.616C151.264 351.616 151.441 351.616 151.441 351.796L155.379 342.855L155.915 343.392L156.095 343.568C156.452 343.928 156.989 344.105 157.346 343.928C158.062 343.748 158.419 343.031 158.062 342.318L156.632 339.097V338.917C156.272 337.847 156.989 336.774 158.062 336.413C159.316 336.057 160.746 335.88 161.643 334.983C165.221 332.84 164.147 325.685 159.493 326.758Z" fill="#6F2677"/>
  <path d="M161.645 334.807C161.464 334.983 161.645 334.807 161.645 334.807V334.807Z" fill="#6F2677"/>
  <path d="M156.014 342.862C156.112 343.179 156.141 343.503 156.108 343.835C156.072 344.162 155.978 344.476 155.82 344.768C155.661 345.059 155.452 345.312 155.197 345.521C154.937 345.729 154.653 345.881 154.332 345.978C154.015 346.072 153.691 346.104 153.359 346.068C153.028 346.036 152.718 345.938 152.426 345.78C152.134 345.625 151.882 345.416 151.673 345.16C151.461 344.901 151.309 344.613 151.216 344.296C151.119 343.979 151.09 343.654 151.122 343.323C151.155 342.992 151.252 342.682 151.41 342.39C151.569 342.098 151.774 341.846 152.034 341.637C152.289 341.428 152.578 341.273 152.898 341.179C153.215 341.082 153.539 341.053 153.871 341.086C154.199 341.122 154.512 341.215 154.804 341.374C155.096 341.532 155.348 341.738 155.557 341.997C155.766 342.253 155.921 342.541 156.014 342.862Z" fill="#E8A2AC"/>
  <path d="M187.946 517.054C187.946 518.128 187.053 519.021 185.979 519.021H173.096L172.916 512.76V512.584L170.232 471.982C170.232 469.835 165.758 435.499 165.758 435.499H157.169L150.724 470.015L144.283 512.76V512.94H144.643L151.265 516.157C151.802 516.518 152.158 517.054 152.158 517.591C152.158 517.948 151.978 518.485 151.621 518.661C151.265 519.021 150.904 519.198 150.548 519.198H136.768L137.125 512.94V512.76L133.547 459.107L130.863 426.554L187.41 426.734C185.799 469.659 185.799 469.659 185.262 472.519L179.895 512.584V512.76H180.075L186.873 515.444C187.59 515.624 187.946 516.337 187.946 517.054Z" fill="#2062A9"/>
  <path d="M151.978 517.411C151.978 517.768 151.802 518.305 151.441 518.485C151.085 518.841 150.724 519.022 150.368 519.022H136.588L136.948 512.76H144.463L151.085 515.981C151.802 516.338 151.978 516.874 151.978 517.411Z" fill="#6F2677"/>
  <path d="M187.948 517.055C187.948 518.128 187.055 519.022 185.981 519.022H173.098L172.918 512.76H179.896L186.698 515.444C187.591 515.624 187.948 516.338 187.948 517.055Z" fill="#6F2677"/>
  <path d="M148.758 246.453H150.905V257.185H148.758V246.453Z" fill="#FFD22E"/>
  <path d="M141.064 258.796L141.961 258.435L137.843 248.6L136.95 248.957L136.053 249.314L140.17 259.152L141.064 258.796Z" fill="#FFD22E"/>
  <path d="M126.033 256.112L125.316 256.829L133.012 264.517L134.265 263.086L126.747 255.575L126.033 256.112Z" fill="#FFD22E"/>
  <path d="M118.875 267.201L118.338 268.094L128.357 272.028L128.717 271.135L129.074 270.241L119.231 266.127L118.875 267.201Z" fill="#FFD22E"/>
  <path d="M171.126 271.135L171.486 272.028L181.329 268.094L180.968 267.201L180.612 266.127L170.77 270.241L171.126 271.135Z" fill="#FFD22E"/>
  <path d="M166.833 264.517L174.348 256.829L173.811 256.112L173.097 255.575L165.402 263.086L166.833 264.517Z" fill="#FFD22E"/>
  <path d="M163.791 249.314L161.82 248.6L157.883 258.435L158.78 258.796L159.673 259.152L163.791 249.314Z" fill="#FFD22E"/>
  <path d="M167.725 279.719C167.725 283.477 166.475 287.231 163.968 290.271C162.894 291.702 161.464 292.955 159.853 294.029C159.493 294.206 159.137 294.386 158.78 294.566C158.063 294.922 157.706 295.459 157.706 296.173V307.622C157.706 309.589 156.989 311.375 155.559 312.629C154.305 313.879 152.515 314.773 150.548 314.773C146.61 314.773 143.39 311.556 143.39 307.622V296.173C143.39 295.459 143.033 294.742 142.316 294.566C141.959 294.386 141.599 294.206 141.242 294.029C139.632 292.955 138.198 291.702 137.125 290.271C134.801 287.231 133.367 283.477 133.367 279.719C133.367 270.241 141.062 262.55 150.548 262.55C160.03 262.55 167.725 270.241 167.725 279.719Z" fill="#FFD22E"/>
  <path d="M157.707 304.221V307.798C157.707 309.765 156.99 311.556 155.56 312.806C154.306 314.059 152.516 314.953 150.549 314.953C146.611 314.953 143.391 311.732 143.391 307.798V304.221H157.707Z" fill="#3093D0"/>
  <path d="M578.598 176.167L609.022 227.673L627.096 213.367L592.914 185.825L632.82 205.319V204.782L650.001 191.546L578.598 176.167Z" fill="#D7F1FF"/>
  <path d="M627.095 213.367L609.021 227.673L622.441 219.088L631.927 224.812L632.82 205.319L592.914 185.825L627.095 213.367Z" fill="#6CCEFF"/>
  <path d="M226.604 32.0125L273.668 10.1917L277.245 23.2474L227.497 34.873L226.604 32.0125Z" fill="#FF6E8B"/>
  <path d="M194.749 176.523C194.569 178.31 194.569 180.101 194.393 181.888C194.569 179.744 194.749 177.597 194.749 175.63C194.749 174.02 194.929 172.409 194.929 170.979H203.698C203.338 172.946 202.981 174.913 202.624 176.88C202.088 176.88 201.727 176.704 201.191 176.704H194.749V176.523Z" fill="#E8A2AC"/>
  <path d="M206.738 179.921L202.264 178.67L206.738 179.921C206.738 179.921 206.918 180.101 206.918 180.281C207.095 180.457 207.095 180.637 207.095 180.994C207.095 180.814 207.095 180.457 206.918 180.281C206.918 180.101 206.918 180.101 206.738 179.921Z" fill="#E8A2AC"/>
  <path d="M195.467 138.429C195.106 131.275 194.57 124.12 194.393 116.965C194.393 113.388 194.213 112.318 194.213 109.81L212.824 105.52L212.644 106.057L212.467 116.072H212.287C212.287 116.252 212.287 116.428 212.287 116.789C211.033 134.852 207.813 153.096 204.412 170.799H194.57C194.75 167.045 195.643 156.849 195.643 153.096C195.643 148.264 195.643 143.437 195.467 138.429Z" fill="#3093D0"/>
  <path d="M215.507 175.63C215.507 174.02 215.687 172.409 215.687 170.979H224.456C224.096 172.946 223.739 174.913 223.382 176.88C222.846 176.88 222.485 176.704 221.948 176.704H215.507C215.327 178.49 215.327 180.281 215.15 182.068C215.15 179.744 215.327 177.777 215.507 175.63Z" fill="#E8A2AC"/>
  <path d="M227.317 179.921L222.846 178.67L227.317 179.921C227.317 179.921 227.497 180.101 227.497 180.281C227.677 180.457 227.677 180.814 227.677 180.994C227.677 180.814 227.677 180.457 227.497 180.281C227.497 180.101 227.497 180.101 227.317 179.921Z" fill="#E8A2AC"/>
  <path d="M234.118 110.347C234.298 108.917 234.298 106.773 233.581 106.237C233.401 105.34 233.225 104.626 233.044 103.909C231.254 96.2179 229.467 96.0414 227.853 98.9018C223.919 92.6441 225.529 100.332 225.886 104.27C225.706 104.803 225.529 105.52 225.349 106.237C225.169 106.057 224.813 105.7 224.632 105.52L224.456 105.34H224.276C223.382 104.983 222.485 104.626 221.592 104.27C221.592 104.27 220.518 103.909 220.338 103.909C219.625 103.733 218.908 103.733 218.191 103.733C217.298 103.733 216.4 103.553 215.507 103.553C215.507 108.024 215.687 112.494 215.687 116.965C215.687 118.932 215.687 120.723 215.864 122.69L216.044 138.429H216.224C216.224 143.437 216.224 148.265 216.224 153.096C216.224 156.849 215.327 167.045 215.15 170.799H224.813C224.813 170.799 236.085 133.598 234.118 110.347Z" fill="#3093D0"/>
  <path d="M217.653 40.5977L218.37 52.4033L209.602 52.9365L208.885 44.175L217.653 40.5977Z" fill="#E8A2AC"/>
  <path d="M207.095 180.994C207.095 180.814 207.095 180.457 206.919 180.281C206.919 180.101 206.739 180.101 206.739 180.101L202.264 178.67C202.444 177.953 202.444 177.417 202.624 176.703C202.088 176.703 201.727 176.523 201.191 176.523H194.749C194.569 178.134 194.569 179.744 194.393 181.174H206.919C207.095 181.174 207.095 180.994 207.095 180.994Z" fill="#5BC5C9"/>
  <path d="M227.677 180.994C227.677 180.814 227.677 180.457 227.497 180.281C227.497 180.101 227.317 180.101 227.317 180.101L222.846 178.847C223.022 178.134 223.022 177.597 223.203 176.88C222.666 176.88 222.309 176.703 221.772 176.703H215.327C215.151 178.31 215.151 179.92 214.971 181.351H227.497C227.677 181.174 227.677 180.994 227.677 180.994Z" fill="#5BC5C9"/>
  <path d="M197.076 69.7496V105.34L197.433 109.991L220.518 88.7064L219.801 58.4807L197.789 65.2788C197.253 66.709 197.076 68.3194 197.076 69.7496Z" fill="#E4E9FF"/>
  <path d="M224.275 50.7929L251.655 48.2891C253.085 48.109 254.339 47.0354 254.339 45.6052L256.306 25.2182C256.306 24.3211 257.023 23.6078 257.74 23.2475C259.17 22.7108 260.78 23.7843 260.78 25.3947L261.497 52.4033C261.497 54.9071 259.887 56.8741 257.56 57.5874L228.033 64.9223L224.275 50.7929Z" fill="#E8A2AC"/>
  <path d="M229.824 62.0582C229.467 59.3779 228.39 56.694 226.603 54.7269C225.53 53.6534 224.456 52.7599 223.202 52.4033C220.699 51.5062 217.654 50.9694 214.254 50.7929V50.6128C205.308 50.6128 197.79 56.8741 195.643 65.2789C195.286 66.7092 195.106 68.3195 195.106 69.9299L194.393 110.527L235.192 107.844L229.824 62.0582Z" fill="#E4E9FF"/>
  <path d="M245.39 48.4656L245.034 61.1647L229.467 67.0657C224.632 68.4996 219.625 65.0987 219.088 60.0911L218.908 58.841C218.551 54.3702 221.772 50.6127 226.243 50.0759L245.39 48.4656Z" fill="#E4E9FF"/>
  <path d="M202.264 51.8666L174.708 53.1167C173.274 53.1167 172.024 52.2233 171.663 50.793L166.832 30.9392C166.652 30.0457 165.939 29.3288 165.042 29.1523C163.431 28.792 162.001 30.0457 162.181 31.6561L165.222 58.4809C165.579 60.8082 167.369 62.7752 169.873 62.9554L200.117 66.1725L202.264 51.8666Z" fill="#E8A2AC"/>
  <path d="M180.969 52.4032L183.116 64.9222L199.4 68.6761C204.411 69.393 208.885 65.2789 208.705 60.2713V59.0176C208.529 54.5468 204.771 51.1495 200.297 51.5062L180.969 52.4032Z" fill="#E4E9FF"/>
  <path d="M279.132 16.071C279.232 16.5177 279.312 16.9645 279.369 17.4148C279.427 17.8615 279.459 18.301 279.47 18.7333C279.481 19.1656 279.47 19.5799 279.431 19.9762C279.395 20.3761 279.337 20.7508 279.254 21.1038C279.171 21.4533 279.067 21.7739 278.944 22.0621C278.818 22.3503 278.674 22.6025 278.512 22.8223C278.35 23.0384 278.173 23.215 277.979 23.3483C277.784 23.4852 277.579 23.5788 277.363 23.6257C277.143 23.6761 276.92 23.6797 276.685 23.6437C276.451 23.604 276.213 23.5212 275.976 23.3951C275.734 23.2726 275.497 23.1033 275.259 22.8979C275.021 22.6926 274.79 22.4476 274.563 22.1666C274.34 21.8856 274.124 21.5722 273.919 21.2299C273.713 20.8841 273.522 20.5166 273.346 20.1239C273.169 19.7276 273.007 19.317 272.867 18.8882C272.723 18.4595 272.604 18.0236 272.503 17.5769C272.398 17.1302 272.319 16.6835 272.265 16.2331C272.207 15.7864 272.171 15.3469 272.164 14.9146C272.153 14.4859 272.164 14.068 272.2 13.6717C272.24 13.2718 272.297 12.8971 272.38 12.5477C272.463 12.1946 272.564 11.874 272.69 11.5858C272.816 11.2976 272.96 11.0454 273.122 10.8293C273.285 10.6095 273.461 10.4366 273.656 10.2997C273.85 10.1628 274.056 10.0727 274.272 10.0223C274.491 9.97184 274.715 9.96824 274.949 10.0079C275.183 10.0439 275.417 10.1267 275.659 10.2528C275.9 10.3789 276.138 10.5447 276.376 10.75C276.613 10.9589 276.844 11.2003 277.071 11.4813C277.294 11.7623 277.51 12.0758 277.716 12.4216C277.921 12.7638 278.112 13.1313 278.289 13.5276C278.465 13.9203 278.627 14.331 278.768 14.7597C278.908 15.1884 279.031 15.6243 279.132 16.071Z" fill="#2062A9"/>
  <path d="M265.076 15.5595C265.256 15.3794 265.436 15.1992 265.436 15.0227C265.436 15.1992 265.256 15.3794 265.076 15.5595C265.076 15.5595 264.899 15.736 264.719 15.736C264.539 15.736 264.539 15.9161 264.539 15.9161C264.539 15.9161 264.719 15.9161 264.719 15.736C264.899 15.736 264.899 15.736 265.076 15.5595Z" fill="#E8A2AC"/>
  <path d="M280.826 15.5595C281.002 15.3794 281.183 15.1992 281.183 15.0227C281.183 15.1992 281.002 15.3794 280.826 15.5595C280.826 15.5595 280.646 15.736 280.466 15.736C280.289 15.736 280.289 15.9161 280.289 15.9161C280.289 15.9161 280.466 15.9161 280.466 15.736C280.646 15.736 280.826 15.736 280.826 15.5595Z" fill="#E8A2AC"/>
  <path d="M205.484 113.388H230.54L230.18 107.844L195.822 110.708L205.484 113.388Z" fill="#3093D0"/>
  <path d="M235.011 109.454L191.885 112.674V68.8562C191.885 58.3042 200.477 49.7192 211.033 49.7192H215.864C226.423 49.7192 235.011 58.3042 235.011 68.8562V109.454Z" fill="#E4E9FF"/>
  <path d="M220.517 35.5899C221.591 40.0607 218.727 44.3514 214.432 45.425C212.642 45.7852 210.855 45.6051 209.421 45.0683C209.064 44.8882 208.704 44.7116 208.167 44.5315C206.381 43.4579 205.127 41.6711 204.59 39.5239C203.873 36.3032 205.127 33.0861 207.454 31.2956C207.811 30.939 208.348 30.7588 208.704 30.4022C209.245 30.0455 209.958 29.8654 210.675 29.6889C210.855 29.6889 211.031 29.6889 211.212 29.5087C212.642 29.3286 214.076 29.5087 215.326 29.8654C217.833 30.7588 219.8 32.906 220.517 35.5899Z" fill="#E8A2AC"/>
  <path d="M215.505 23.7841C214.432 23.9643 213.538 24.501 213.178 25.5746C213.002 25.9313 212.822 26.4681 212.822 26.8247C212.822 27.5416 212.285 28.0784 211.748 28.2549C210.674 28.6152 209.421 29.152 208.347 29.6888C208.167 29.6888 208.167 29.8653 207.99 29.8653C207.454 30.0454 207.093 30.4021 206.737 30.7587C204.233 32.7294 203.159 35.7699 203.873 38.9871C204.41 41.1342 205.663 42.9211 207.454 43.9946H207.63L211.391 36.6634L211.748 37.2002V37.3767C211.928 37.737 212.465 37.737 212.822 37.737C213.358 37.5568 213.715 37.02 213.538 36.4833L212.465 33.7993V33.6228C212.285 32.7294 212.822 31.8323 213.715 31.6558C214.789 31.4757 215.862 31.2955 216.759 30.7587C219.8 29.152 219.443 23.2473 215.505 23.7841Z" fill="#6F2677"/>
  <path d="M216.76 30.5823C216.58 30.7588 216.76 30.5823 216.76 30.5823V30.5823Z" fill="#6F2677"/>
  <path d="M212.105 37.3768C212.822 38.8106 211.748 40.4174 210.138 40.4174C209.421 40.4174 208.704 39.8806 208.348 39.3438C207.631 37.9136 208.704 36.3032 210.318 36.3032C211.032 36.3032 211.748 36.6635 212.105 37.3768Z" fill="#E8A2AC"/>
  <path d="M220.162 35.59L219.088 37.2003C218.548 38.0938 217.654 38.6306 216.581 38.8107C216.044 38.9872 215.327 38.9872 214.79 38.6306C214.253 38.4504 213.897 37.9137 213.716 37.3769L212.286 33.0862L209.959 35.0532L211.569 39.8807L214.077 47.3921C215.15 50.4326 218.371 52.2231 221.592 51.5062L225.529 50.7929L223.919 45.9618L222.129 40.4175L220.518 35.59C220.518 35.4099 220.338 35.4099 220.162 35.59Z" fill="#6F2677"/>
  <defs>
    <filter id="filter0_d" x="257" y="475" width="165" height="23" filterUnits="userSpaceOnUse" color-interpolation-filters="sRGB">
      <feFlood flood-opacity="0" result="BackgroundImageFix"/>
      <feColorMatrix in="SourceAlpha" type="matrix" values="0 0 0 0 0 0 0 0 0 0 0 0 0 0 0 0 0 0 127 0"/>
      <feOffset dy="4"/>
      <feGaussianBlur stdDeviation="4"/>
      <feColorMatrix type="matrix" values="0 0 0 0 0.6 0 0 0 0 0.6 0 0 0 0 0.6 0 0 0 1 0"/>
      <feBlend mode="normal" in2="BackgroundImageFix" result="effect1_dropShadow"/>
      <feBlend mode="normal" in="SourceGraphic" in2="effect1_dropShadow" result="shape"/>
    </filter>
    <filter id="filter1_d" x="73" y="503" width="68" height="13" filterUnits="userSpaceOnUse" color-interpolation-filters="sRGB">
      <feFlood flood-opacity="0" result="BackgroundImageFix"/>
      <feColorMatrix in="SourceAlpha" type="matrix" values="0 0 0 0 0 0 0 0 0 0 0 0 0 0 0 0 0 0 127 0"/>
      <feOffset dy="4"/>
      <feGaussianBlur stdDeviation="2"/>
      <feColorMatrix type="matrix" values="0 0 0 0 0 0 0 0 0 0 0 0 0 0 0 0 0 0 0.25 0"/>
      <feBlend mode="normal" in2="BackgroundImageFix" result="effect1_dropShadow"/>
      <feBlend mode="normal" in="SourceGraphic" in2="effect1_dropShadow" result="shape"/>
    </filter>
    <filter id="filter2_d" x="429.396" y="514.77" width="20.8007" height="15.0144" filterUnits="userSpaceOnUse" color-interpolation-filters="sRGB">
      <feFlood flood-opacity="0" result="BackgroundImageFix"/>
      <feColorMatrix in="SourceAlpha" type="matrix" values="0 0 0 0 0 0 0 0 0 0 0 0 0 0 0 0 0 0 127 0"/>
      <feOffset dy="5"/>
      <feGaussianBlur stdDeviation="2"/>
      <feColorMatrix type="matrix" values="0 0 0 0 0 0 0 0 0 0 0 0 0 0 0 0 0 0 0.52 0"/>
      <feBlend mode="normal" in2="BackgroundImageFix" result="effect1_dropShadow"/>
      <feBlend mode="normal" in="SourceGraphic" in2="effect1_dropShadow" result="shape"/>
    </filter>
    <filter id="filter3_d" x="402.396" y="513.77" width="20.8007" height="15.0144" filterUnits="userSpaceOnUse" color-interpolation-filters="sRGB">
      <feFlood flood-opacity="0" result="BackgroundImageFix"/>
      <feColorMatrix in="SourceAlpha" type="matrix" values="0 0 0 0 0 0 0 0 0 0 0 0 0 0 0 0 0 0 127 0"/>
      <feOffset dy="5"/>
      <feGaussianBlur stdDeviation="2"/>
      <feColorMatrix type="matrix" values="0 0 0 0 0 0 0 0 0 0 0 0 0 0 0 0 0 0 0.52 0"/>
      <feBlend mode="normal" in2="BackgroundImageFix" result="effect1_dropShadow"/>
      <feBlend mode="normal" in="SourceGraphic" in2="effect1_dropShadow" result="shape"/>
    </filter>
    <filter id="filter4_d" x="7.98242" y="341.166" width="686.758" height="253.326" filterUnits="userSpaceOnUse" color-interpolation-filters="sRGB">
      <feFlood flood-opacity="0" result="BackgroundImageFix"/>
      <feColorMatrix in="SourceAlpha" type="matrix" values="0 0 0 0 0 0 0 0 0 0 0 0 0 0 0 0 0 0 127 0"/>
      <feOffset dy="6"/>
      <feGaussianBlur stdDeviation="4.5"/>
      <feColorMatrix type="matrix" values="0 0 0 0 0.854902 0 0 0 0 0.878431 0 0 0 0 0.905882 0 0 0 1 0"/>
      <feBlend mode="normal" in2="BackgroundImageFix" result="effect1_dropShadow"/>
      <feBlend mode="normal" in="SourceGraphic" in2="effect1_dropShadow" result="shape"/>
    </filter>
  </defs>
</svg>
