<?xml version="1.0" encoding="UTF-8" standalone="no"?>
<!DOCTYPE svg PUBLIC "-//W3C//DTD SVG 1.1//EN" "http://www.w3.org/Graphics/SVG/1.1/DTD/svg11.dtd">
<svg width="100%" height="100%" viewBox="0 0 1432 721" version="1.1" xmlns="http://www.w3.org/2000/svg" xmlns:xlink="http://www.w3.org/1999/xlink" xml:space="preserve" xmlns:serif="http://www.serif.com/" style="fill-rule:evenodd;clip-rule:evenodd;stroke-linejoin:round;stroke-miterlimit:2;">
    <g id="Artboard1" transform="matrix(1.01253,0,0,1.01665,-80.5915,-8.54162)">
        <rect x="79.594" y="8.402" width="1414.22" height="708.62" style="fill:none;"/>
        <clipPath id="_clip1">
            <rect x="79.594" y="8.402" width="1414.22" height="708.62"/>
        </clipPath>
        <g clip-path="url(#_clip1)">
            <g transform="matrix(0.987625,0,0,0.983623,19.0722,5.74151)">
                <rect x="60" y="104" width="1439" height="618" style="fill:rgb(48,50,52);"/>
            </g>
            <g transform="matrix(0.987625,0,0,0.983623,19.0722,5.74151)">
                <path d="M758.78,230.19C758.329,229.037 757.955,227.812 757.586,226.659L859.81,127.946C861.003,128.308 862.273,128.669 863.466,129.098L758.78,230.19ZM847.87,125.427C846.454,125.212 844.963,125.065 843.547,124.924L754.375,211.023C754.527,212.39 754.673,213.837 754.895,215.203L847.87,125.427ZM882.643,138.685C881.678,138.035 880.707,137.385 879.735,136.809L766.689,245.967C767.286,246.904 767.959,247.842 768.625,248.78L882.643,138.685ZM870.334,131.838C869.211,131.335 868.094,130.833 866.977,130.398L760.119,233.573C760.57,234.658 761.09,235.737 761.611,236.816L870.334,131.838ZM876.676,135.08C875.628,134.504 874.587,133.928 873.54,133.426L763.109,240.058C763.629,241.069 764.226,242.081 764.823,243.086L876.676,135.08ZM803.03,131.188C799.519,132.702 796.085,134.431 792.804,136.38L766.238,162.031C764.15,165.2 762.36,168.516 760.868,171.9L803.03,131.188ZM834.146,124.562L754,201.946C754,203.533 754,205.041 754.076,206.628L838.92,124.636C837.352,124.562 835.708,124.562 834.146,124.562ZM917.79,203.245L835.486,282.718C837.13,282.718 838.843,282.718 840.488,282.571L917.644,208.069C917.714,206.488 917.79,204.826 917.79,203.245ZM888.165,142.791C887.27,142.068 886.375,141.351 885.48,140.701L770.72,251.52C771.386,252.384 772.135,253.248 772.878,254.113L888.165,142.791ZM828.992,124.851C827.132,124.992 825.336,125.212 823.476,125.5L754.971,191.642C754.673,193.444 754.451,195.173 754.298,196.975L828.992,124.851ZM817.502,126.579C815.262,127.082 813.027,127.658 810.787,128.381L757.885,179.396C757.212,181.553 756.539,183.643 756.019,185.881L817.502,126.579ZM855.932,126.941C854.586,126.653 853.323,126.365 851.977,126.076L755.568,219.163C755.866,220.462 756.165,221.688 756.463,222.982L855.932,126.941ZM916.298,218.734C916.673,216.858 916.971,215.056 917.193,213.187L845.782,282.136C847.724,281.922 849.666,281.633 851.526,281.272L916.298,218.734ZM917.644,198.703C917.568,197.263 917.415,195.822 917.269,194.382L826.307,282.136C827.798,282.283 829.29,282.43 830.788,282.498L917.644,198.703ZM916.597,190.275C916.374,188.976 916.076,187.677 915.778,186.383L817.953,280.769C819.293,281.057 820.638,281.345 821.978,281.56L916.597,190.275ZM893.243,147.186C892.418,146.395 891.599,145.672 890.78,144.881L775.119,256.558C775.868,257.355 776.687,258.146 777.506,258.936L893.243,147.186ZM898.017,255.118C902.117,250.509 905.552,245.611 908.389,240.42L873.991,273.635C879.361,270.901 884.439,267.585 889.213,263.619L898.017,255.118ZM914.807,182.638C914.432,181.412 914.058,180.26 913.689,179.034L810.412,278.753C811.682,279.114 812.875,279.476 814.145,279.831L914.807,182.638ZM912.42,231.918C913.315,229.614 914.134,227.309 914.807,224.931L857.944,279.831C860.407,279.188 862.8,278.391 865.187,277.527L912.42,231.918ZM902.27,157.275C901.597,156.411 900.924,155.473 900.181,154.609L785.116,265.642C786.012,266.359 786.983,267.009 787.878,267.659L902.27,157.275ZM912.42,175.577C911.969,174.419 911.525,173.34 910.998,172.261L803.328,276.233C804.445,276.736 805.639,277.165 806.756,277.6L912.42,175.577ZM897.941,152.016C897.198,151.152 896.449,150.355 895.63,149.564L779.892,261.315C780.718,262.111 781.613,262.829 782.431,263.552L897.941,152.016ZM906.078,162.896C905.475,161.958 904.879,160.946 904.212,160.009L790.715,269.602C791.686,270.251 792.658,270.827 793.699,271.404L906.078,162.896ZM909.506,169.019C908.986,168.007 908.465,166.929 907.869,165.917L796.834,273.132C797.875,273.708 798.923,274.211 800.04,274.72L909.506,169.019Z" style="fill:rgb(243,172,80);fill-rule:nonzero;"/>
            </g>
            <g transform="matrix(0.987625,0,0,0.983623,19.0722,5.74151)">
                <ellipse cx="60.5" cy="687" rx="60.5" ry="59" style="fill:rgb(244,202,80);"/>
            </g>
            <g transform="matrix(0.987625,0,0,0.983623,19.0722,5.74151)">
                <circle cx="101" cy="493" r="20" style="fill:rgb(93,178,198);"/>
            </g>
            <g transform="matrix(0.966841,0,0,0.933736,-105.235,18.4805)">
                <rect x="31.431" y="-11.107" width="1751.01" height="112.717" style="fill:rgb(48,50,52);"/>
            </g>
        </g>
    </g>
</svg>
