<svg width="1440" height="838" viewBox="0 0 1440 838" fill="none"
  xmlns="http://www.w3.org/2000/svg">
  <g clip-path="url(#clip0_13863_87601)">
    <rect width="1440" height="838" fill="white" />
    <rect width="1440" height="838" fill="#303234" />
    <circle cx="154.5" cy="233.5" r="2.5" fill="white" fill-opacity="0.14" />
    <circle cx="184.5" cy="233.5" r="2.5" fill="white" fill-opacity="0.14" />
    <circle cx="214.5" cy="233.5" r="2.5" fill="white" fill-opacity="0.14" />
    <circle cx="244.5" cy="233.5" r="2.5" fill="white" fill-opacity="0.14" />
    <circle cx="274.5" cy="233.5" r="2.5" fill="white" fill-opacity="0.14" />
    <circle cx="169.5" cy="228.5" r="2.5" fill="white" fill-opacity="0.14" />
    <circle cx="199.5" cy="228.5" r="2.5" fill="white" fill-opacity="0.14" />
    <circle cx="229.5" cy="228.5" r="2.5" fill="white" fill-opacity="0.14" />
    <circle cx="259.5" cy="228.5" r="2.5" fill="white" fill-opacity="0.14" />
    <circle cx="289.5" cy="228.5" r="2.5" fill="white" fill-opacity="0.14" />
    <circle cx="154.5" cy="243.5" r="2.5" fill="white" fill-opacity="0.14" />
    <circle cx="184.5" cy="243.5" r="2.5" fill="white" fill-opacity="0.14" />
    <circle cx="214.5" cy="243.5" r="2.5" fill="white" fill-opacity="0.14" />
    <circle cx="244.5" cy="243.5" r="2.5" fill="white" fill-opacity="0.14" />
    <circle cx="274.5" cy="243.5" r="2.5" fill="white" fill-opacity="0.14" />
    <circle cx="169.5" cy="238.5" r="2.5" fill="white" fill-opacity="0.14" />
    <circle cx="199.5" cy="238.5" r="2.5" fill="white" fill-opacity="0.14" />
    <circle cx="229.5" cy="238.5" r="2.5" fill="white" fill-opacity="0.14" />
    <circle cx="259.5" cy="238.5" r="2.5" fill="white" fill-opacity="0.14" />
    <circle cx="289.5" cy="238.5" r="2.5" fill="white" fill-opacity="0.14" />
    <circle cx="154.5" cy="253.5" r="2.5" fill="white" fill-opacity="0.14" />
    <circle cx="184.5" cy="253.5" r="2.5" fill="white" fill-opacity="0.14" />
    <circle cx="214.5" cy="253.5" r="2.5" fill="white" fill-opacity="0.14" />
    <circle cx="244.5" cy="253.5" r="2.5" fill="white" fill-opacity="0.14" />
    <circle cx="274.5" cy="253.5" r="2.5" fill="white" fill-opacity="0.14" />
    <circle cx="169.5" cy="248.5" r="2.5" fill="white" fill-opacity="0.14" />
    <circle cx="199.5" cy="248.5" r="2.5" fill="white" fill-opacity="0.14" />
    <circle cx="229.5" cy="248.5" r="2.5" fill="white" fill-opacity="0.14" />
    <circle cx="259.5" cy="248.5" r="2.5" fill="white" fill-opacity="0.14" />
    <circle cx="289.5" cy="248.5" r="2.5" fill="white" fill-opacity="0.14" />
    <circle cx="154.5" cy="263.5" r="2.5" fill="white" fill-opacity="0.14" />
    <circle cx="184.5" cy="263.5" r="2.5" fill="white" fill-opacity="0.14" />
    <circle cx="214.5" cy="263.5" r="2.5" fill="white" fill-opacity="0.14" />
    <circle cx="244.5" cy="263.5" r="2.5" fill="white" fill-opacity="0.14" />
    <circle cx="274.5" cy="263.5" r="2.5" fill="white" fill-opacity="0.14" />
    <circle cx="169.5" cy="258.5" r="2.5" fill="white" fill-opacity="0.14" />
    <circle cx="199.5" cy="258.5" r="2.5" fill="white" fill-opacity="0.14" />
    <circle cx="229.5" cy="258.5" r="2.5" fill="white" fill-opacity="0.14" />
    <circle cx="259.5" cy="258.5" r="2.5" fill="white" fill-opacity="0.14" />
    <circle cx="289.5" cy="258.5" r="2.5" fill="white" fill-opacity="0.14" />
    <circle cx="154.5" cy="273.5" r="2.5" fill="white" fill-opacity="0.14" />
    <circle cx="184.5" cy="273.5" r="2.5" fill="white" fill-opacity="0.14" />
    <circle cx="214.5" cy="273.5" r="2.5" fill="white" fill-opacity="0.14" />
    <circle cx="244.5" cy="273.5" r="2.5" fill="white" fill-opacity="0.14" />
    <circle cx="274.5" cy="273.5" r="2.5" fill="white" fill-opacity="0.14" />
    <circle cx="169.5" cy="268.5" r="2.5" fill="white" fill-opacity="0.14" />
    <circle cx="199.5" cy="268.5" r="2.5" fill="white" fill-opacity="0.14" />
    <circle cx="229.5" cy="268.5" r="2.5" fill="white" fill-opacity="0.14" />
    <circle cx="259.5" cy="268.5" r="2.5" fill="white" fill-opacity="0.14" />
    <circle cx="289.5" cy="268.5" r="2.5" fill="white" fill-opacity="0.14" />
    <circle cx="154.5" cy="283.5" r="2.5" fill="white" fill-opacity="0.14" />
    <circle cx="184.5" cy="283.5" r="2.5" fill="white" fill-opacity="0.14" />
    <circle cx="214.5" cy="283.5" r="2.5" fill="white" fill-opacity="0.14" />
    <circle cx="244.5" cy="283.5" r="2.5" fill="white" fill-opacity="0.14" />
    <circle cx="274.5" cy="283.5" r="2.5" fill="white" fill-opacity="0.14" />
    <circle cx="169.5" cy="278.5" r="2.5" fill="white" fill-opacity="0.14" />
    <circle cx="199.5" cy="278.5" r="2.5" fill="white" fill-opacity="0.14" />
    <circle cx="229.5" cy="278.5" r="2.5" fill="white" fill-opacity="0.14" />
    <circle cx="259.5" cy="278.5" r="2.5" fill="white" fill-opacity="0.14" />
    <circle cx="289.5" cy="278.5" r="2.5" fill="white" fill-opacity="0.14" />
    <circle cx="154.5" cy="293.5" r="2.5" fill="white" fill-opacity="0.14" />
    <circle cx="184.5" cy="293.5" r="2.5" fill="white" fill-opacity="0.14" />
    <circle cx="214.5" cy="293.5" r="2.5" fill="white" fill-opacity="0.14" />
    <circle cx="244.5" cy="293.5" r="2.5" fill="white" fill-opacity="0.14" />
    <circle cx="274.5" cy="293.5" r="2.5" fill="white" fill-opacity="0.14" />
    <circle cx="169.5" cy="288.5" r="2.5" fill="white" fill-opacity="0.14" />
    <circle cx="199.5" cy="288.5" r="2.5" fill="white" fill-opacity="0.14" />
    <circle cx="229.5" cy="288.5" r="2.5" fill="white" fill-opacity="0.14" />
    <circle cx="259.5" cy="288.5" r="2.5" fill="white" fill-opacity="0.14" />
    <circle cx="289.5" cy="288.5" r="2.5" fill="white" fill-opacity="0.14" />
    <circle cx="154.5" cy="303.5" r="2.5" fill="white" fill-opacity="0.14" />
    <circle cx="184.5" cy="303.5" r="2.5" fill="white" fill-opacity="0.14" />
    <circle cx="214.5" cy="303.5" r="2.5" fill="white" fill-opacity="0.14" />
    <circle cx="244.5" cy="303.5" r="2.5" fill="white" fill-opacity="0.14" />
    <circle cx="274.5" cy="303.5" r="2.5" fill="white" fill-opacity="0.14" />
    <circle cx="169.5" cy="298.5" r="2.5" fill="white" fill-opacity="0.14" />
    <circle cx="199.5" cy="298.5" r="2.5" fill="white" fill-opacity="0.14" />
    <circle cx="229.5" cy="298.5" r="2.5" fill="white" fill-opacity="0.14" />
    <circle cx="259.5" cy="298.5" r="2.5" fill="white" fill-opacity="0.14" />
    <circle cx="289.5" cy="298.5" r="2.5" fill="white" fill-opacity="0.14" />
    <circle cx="154.5" cy="313.5" r="2.5" fill="white" fill-opacity="0.14" />
    <circle cx="184.5" cy="313.5" r="2.5" fill="white" fill-opacity="0.14" />
    <circle cx="214.5" cy="313.5" r="2.5" fill="white" fill-opacity="0.14" />
    <circle cx="244.5" cy="313.5" r="2.5" fill="white" fill-opacity="0.14" />
    <circle cx="274.5" cy="313.5" r="2.5" fill="white" fill-opacity="0.14" />
    <circle cx="169.5" cy="308.5" r="2.5" fill="white" fill-opacity="0.14" />
    <circle cx="199.5" cy="308.5" r="2.5" fill="white" fill-opacity="0.14" />
    <circle cx="229.5" cy="308.5" r="2.5" fill="white" fill-opacity="0.14" />
    <circle cx="259.5" cy="308.5" r="2.5" fill="white" fill-opacity="0.14" />
    <circle cx="289.5" cy="308.5" r="2.5" fill="white" fill-opacity="0.14" />
    <circle cx="154.5" cy="323.5" r="2.5" fill="white" fill-opacity="0.14" />
    <circle cx="184.5" cy="323.5" r="2.5" fill="white" fill-opacity="0.14" />
    <circle cx="214.5" cy="323.5" r="2.5" fill="white" fill-opacity="0.14" />
    <circle cx="244.5" cy="323.5" r="2.5" fill="white" fill-opacity="0.14" />
    <circle cx="274.5" cy="323.5" r="2.5" fill="white" fill-opacity="0.14" />
    <circle cx="169.5" cy="318.5" r="2.5" fill="white" fill-opacity="0.14" />
    <circle cx="199.5" cy="318.5" r="2.5" fill="white" fill-opacity="0.14" />
    <circle cx="229.5" cy="318.5" r="2.5" fill="white" fill-opacity="0.14" />
    <circle cx="259.5" cy="318.5" r="2.5" fill="white" fill-opacity="0.14" />
    <circle cx="289.5" cy="318.5" r="2.5" fill="white" fill-opacity="0.14" />
    <circle cx="154.5" cy="333.5" r="2.5" fill="white" fill-opacity="0.14" />
    <circle cx="184.5" cy="333.5" r="2.5" fill="white" fill-opacity="0.14" />
    <circle cx="214.5" cy="333.5" r="2.5" fill="white" fill-opacity="0.14" />
    <circle cx="244.5" cy="333.5" r="2.5" fill="white" fill-opacity="0.14" />
    <circle cx="274.5" cy="333.5" r="2.5" fill="white" fill-opacity="0.14" />
    <circle cx="169.5" cy="328.5" r="2.5" fill="white" fill-opacity="0.14" />
    <circle cx="199.5" cy="328.5" r="2.5" fill="white" fill-opacity="0.14" />
    <circle cx="229.5" cy="328.5" r="2.5" fill="white" fill-opacity="0.14" />
    <circle cx="259.5" cy="328.5" r="2.5" fill="white" fill-opacity="0.14" />
    <circle cx="289.5" cy="328.5" r="2.5" fill="white" fill-opacity="0.14" />
    <circle cx="154.5" cy="343.5" r="2.5" fill="white" fill-opacity="0.14" />
    <circle cx="184.5" cy="343.5" r="2.5" fill="white" fill-opacity="0.14" />
    <circle cx="214.5" cy="343.5" r="2.5" fill="white" fill-opacity="0.14" />
    <circle cx="244.5" cy="343.5" r="2.5" fill="white" fill-opacity="0.14" />
    <circle cx="274.5" cy="343.5" r="2.5" fill="white" fill-opacity="0.14" />
    <circle cx="169.5" cy="338.5" r="2.5" fill="white" fill-opacity="0.14" />
    <circle cx="199.5" cy="338.5" r="2.5" fill="white" fill-opacity="0.14" />
    <circle cx="229.5" cy="338.5" r="2.5" fill="white" fill-opacity="0.14" />
    <circle cx="259.5" cy="338.5" r="2.5" fill="white" fill-opacity="0.14" />
    <circle cx="289.5" cy="338.5" r="2.5" fill="white" fill-opacity="0.14" />
    <circle cx="26.9099" cy="792.91" r="58.9099" fill="#F4CA50" />
    <circle cx="69" cy="599" r="20" fill="#5DB2C6" />
    <circle cx="1412" cy="821" r="28" fill="#F2C84C" />
    <rect x="306" y="637" width="27" height="26" fill="#F9F9F9" />
  </g>
  <defs>
    <clipPath id="clip0_13863_87601">
      <rect width="1440" height="838" fill="white" />
    </clipPath>
  </defs>
</svg>