<?xml version="1.0" encoding="UTF-8" standalone="no"?>
<!DOCTYPE svg PUBLIC "-//W3C//DTD SVG 1.1//EN" "http://www.w3.org/Graphics/SVG/1.1/DTD/svg11.dtd">
<svg width="100%" height="100%" viewBox="0 0 1441 832" version="1.1" xmlns="http://www.w3.org/2000/svg" xmlns:xlink="http://www.w3.org/1999/xlink" xml:space="preserve" xmlns:serif="http://www.serif.com/" style="fill-rule:evenodd;clip-rule:evenodd;stroke-linejoin:round;stroke-miterlimit:2;">
    <g id="Artboard1" transform="matrix(1.00878,0,0,0.961494,-45.8939,36.9531)">
        <rect x="45.495" y="-38.433" width="1428.08" height="865.009" style="fill:none;"/>
        <clipPath id="_clip1">
            <rect x="45.495" y="-38.433" width="1428.08" height="865.009"/>
        </clipPath>
        <g clip-path="url(#_clip1)">
            <g transform="matrix(0.991298,0,0,1.04005,14.161,-39.0315)">
                <rect x="32" y="0" width="1440" height="1440" style="fill:rgb(35,0,177);"/>
            </g>
            <g transform="matrix(0.991298,0,0,1.04005,14.161,-39.0315)">
                <circle cx="186.5" cy="233.5" r="2.5" style="fill:white;fill-opacity:0.14;"/>
            </g>
            <g transform="matrix(0.991298,0,0,1.04005,14.161,-39.0315)">
                <circle cx="216.5" cy="233.5" r="2.5" style="fill:white;fill-opacity:0.14;"/>
            </g>
            <g transform="matrix(0.991298,0,0,1.04005,14.161,-39.0315)">
                <circle cx="246.5" cy="233.5" r="2.5" style="fill:white;fill-opacity:0.14;"/>
            </g>
            <g transform="matrix(0.991298,0,0,1.04005,14.161,-39.0315)">
                <circle cx="276.5" cy="233.5" r="2.5" style="fill:white;fill-opacity:0.14;"/>
            </g>
            <g transform="matrix(0.991298,0,0,1.04005,14.161,-39.0315)">
                <circle cx="306.5" cy="233.5" r="2.5" style="fill:white;fill-opacity:0.14;"/>
            </g>
            <g transform="matrix(0.991298,0,0,1.04005,14.161,-39.0315)">
                <circle cx="201.5" cy="228.5" r="2.5" style="fill:white;fill-opacity:0.14;"/>
            </g>
            <g transform="matrix(0.991298,0,0,1.04005,14.161,-39.0315)">
                <circle cx="231.5" cy="228.5" r="2.5" style="fill:white;fill-opacity:0.14;"/>
            </g>
            <g transform="matrix(0.991298,0,0,1.04005,14.161,-39.0315)">
                <circle cx="261.5" cy="228.5" r="2.5" style="fill:white;fill-opacity:0.14;"/>
            </g>
            <g transform="matrix(0.991298,0,0,1.04005,14.161,-39.0315)">
                <circle cx="291.5" cy="228.5" r="2.5" style="fill:white;fill-opacity:0.14;"/>
            </g>
            <g transform="matrix(0.991298,0,0,1.04005,14.161,-39.0315)">
                <circle cx="321.5" cy="228.5" r="2.5" style="fill:white;fill-opacity:0.14;"/>
            </g>
            <g transform="matrix(0.991298,0,0,1.04005,14.161,-39.0315)">
                <circle cx="186.5" cy="243.5" r="2.5" style="fill:white;fill-opacity:0.14;"/>
            </g>
            <g transform="matrix(0.991298,0,0,1.04005,14.161,-39.0315)">
                <circle cx="216.5" cy="243.5" r="2.5" style="fill:white;fill-opacity:0.14;"/>
            </g>
            <g transform="matrix(0.991298,0,0,1.04005,14.161,-39.0315)">
                <circle cx="246.5" cy="243.5" r="2.5" style="fill:white;fill-opacity:0.14;"/>
            </g>
            <g transform="matrix(0.991298,0,0,1.04005,14.161,-39.0315)">
                <circle cx="276.5" cy="243.5" r="2.5" style="fill:white;fill-opacity:0.14;"/>
            </g>
            <g transform="matrix(0.991298,0,0,1.04005,14.161,-39.0315)">
                <circle cx="306.5" cy="243.5" r="2.5" style="fill:white;fill-opacity:0.14;"/>
            </g>
            <g transform="matrix(0.991298,0,0,1.04005,14.161,-39.0315)">
                <circle cx="201.5" cy="238.5" r="2.5" style="fill:white;fill-opacity:0.14;"/>
            </g>
            <g transform="matrix(0.991298,0,0,1.04005,14.161,-39.0315)">
                <circle cx="231.5" cy="238.5" r="2.5" style="fill:white;fill-opacity:0.14;"/>
            </g>
            <g transform="matrix(0.991298,0,0,1.04005,14.161,-39.0315)">
                <circle cx="261.5" cy="238.5" r="2.5" style="fill:white;fill-opacity:0.14;"/>
            </g>
            <g transform="matrix(0.991298,0,0,1.04005,14.161,-39.0315)">
                <circle cx="291.5" cy="238.5" r="2.5" style="fill:white;fill-opacity:0.14;"/>
            </g>
            <g transform="matrix(0.991298,0,0,1.04005,14.161,-39.0315)">
                <circle cx="321.5" cy="238.5" r="2.5" style="fill:white;fill-opacity:0.14;"/>
            </g>
            <g transform="matrix(0.991298,0,0,1.04005,14.161,-39.0315)">
                <circle cx="186.5" cy="253.5" r="2.5" style="fill:white;fill-opacity:0.14;"/>
            </g>
            <g transform="matrix(0.991298,0,0,1.04005,14.161,-39.0315)">
                <circle cx="216.5" cy="253.5" r="2.5" style="fill:white;fill-opacity:0.14;"/>
            </g>
            <g transform="matrix(0.991298,0,0,1.04005,14.161,-39.0315)">
                <circle cx="246.5" cy="253.5" r="2.5" style="fill:white;fill-opacity:0.14;"/>
            </g>
            <g transform="matrix(0.991298,0,0,1.04005,14.161,-39.0315)">
                <circle cx="276.5" cy="253.5" r="2.5" style="fill:white;fill-opacity:0.14;"/>
            </g>
            <g transform="matrix(0.991298,0,0,1.04005,14.161,-39.0315)">
                <circle cx="306.5" cy="253.5" r="2.5" style="fill:white;fill-opacity:0.14;"/>
            </g>
            <g transform="matrix(0.991298,0,0,1.04005,14.161,-39.0315)">
                <circle cx="201.5" cy="248.5" r="2.5" style="fill:white;fill-opacity:0.14;"/>
            </g>
            <g transform="matrix(0.991298,0,0,1.04005,14.161,-39.0315)">
                <circle cx="231.5" cy="248.5" r="2.5" style="fill:white;fill-opacity:0.14;"/>
            </g>
            <g transform="matrix(0.991298,0,0,1.04005,14.161,-39.0315)">
                <circle cx="261.5" cy="248.5" r="2.5" style="fill:white;fill-opacity:0.14;"/>
            </g>
            <g transform="matrix(0.991298,0,0,1.04005,14.161,-39.0315)">
                <circle cx="291.5" cy="248.5" r="2.5" style="fill:white;fill-opacity:0.14;"/>
            </g>
            <g transform="matrix(0.991298,0,0,1.04005,14.161,-39.0315)">
                <circle cx="321.5" cy="248.5" r="2.5" style="fill:white;fill-opacity:0.14;"/>
            </g>
            <g transform="matrix(0.991298,0,0,1.04005,14.161,-39.0315)">
                <circle cx="186.5" cy="263.5" r="2.5" style="fill:white;fill-opacity:0.14;"/>
            </g>
            <g transform="matrix(0.991298,0,0,1.04005,14.161,-39.0315)">
                <circle cx="216.5" cy="263.5" r="2.5" style="fill:white;fill-opacity:0.14;"/>
            </g>
            <g transform="matrix(0.991298,0,0,1.04005,14.161,-39.0315)">
                <circle cx="246.5" cy="263.5" r="2.5" style="fill:white;fill-opacity:0.14;"/>
            </g>
            <g transform="matrix(0.991298,0,0,1.04005,14.161,-39.0315)">
                <circle cx="276.5" cy="263.5" r="2.5" style="fill:white;fill-opacity:0.14;"/>
            </g>
            <g transform="matrix(0.991298,0,0,1.04005,14.161,-39.0315)">
                <circle cx="306.5" cy="263.5" r="2.5" style="fill:white;fill-opacity:0.14;"/>
            </g>
            <g transform="matrix(0.991298,0,0,1.04005,14.161,-39.0315)">
                <circle cx="201.5" cy="258.5" r="2.5" style="fill:white;fill-opacity:0.14;"/>
            </g>
            <g transform="matrix(0.991298,0,0,1.04005,14.161,-39.0315)">
                <circle cx="231.5" cy="258.5" r="2.5" style="fill:white;fill-opacity:0.14;"/>
            </g>
            <g transform="matrix(0.991298,0,0,1.04005,14.161,-39.0315)">
                <circle cx="261.5" cy="258.5" r="2.5" style="fill:white;fill-opacity:0.14;"/>
            </g>
            <g transform="matrix(0.991298,0,0,1.04005,14.161,-39.0315)">
                <circle cx="291.5" cy="258.5" r="2.5" style="fill:white;fill-opacity:0.14;"/>
            </g>
            <g transform="matrix(0.991298,0,0,1.04005,14.161,-39.0315)">
                <circle cx="321.5" cy="258.5" r="2.5" style="fill:white;fill-opacity:0.14;"/>
            </g>
            <g transform="matrix(0.991298,0,0,1.04005,14.161,-39.0315)">
                <circle cx="186.5" cy="273.5" r="2.5" style="fill:white;fill-opacity:0.14;"/>
            </g>
            <g transform="matrix(0.991298,0,0,1.04005,14.161,-39.0315)">
                <circle cx="216.5" cy="273.5" r="2.5" style="fill:white;fill-opacity:0.14;"/>
            </g>
            <g transform="matrix(0.991298,0,0,1.04005,14.161,-39.0315)">
                <circle cx="246.5" cy="273.5" r="2.5" style="fill:white;fill-opacity:0.14;"/>
            </g>
            <g transform="matrix(0.991298,0,0,1.04005,14.161,-39.0315)">
                <circle cx="276.5" cy="273.5" r="2.5" style="fill:white;fill-opacity:0.14;"/>
            </g>
            <g transform="matrix(0.991298,0,0,1.04005,14.161,-39.0315)">
                <circle cx="306.5" cy="273.5" r="2.5" style="fill:white;fill-opacity:0.14;"/>
            </g>
            <g transform="matrix(0.991298,0,0,1.04005,14.161,-39.0315)">
                <circle cx="201.5" cy="268.5" r="2.5" style="fill:white;fill-opacity:0.14;"/>
            </g>
            <g transform="matrix(0.991298,0,0,1.04005,14.161,-39.0315)">
                <circle cx="231.5" cy="268.5" r="2.5" style="fill:white;fill-opacity:0.14;"/>
            </g>
            <g transform="matrix(0.991298,0,0,1.04005,14.161,-39.0315)">
                <circle cx="261.5" cy="268.5" r="2.5" style="fill:white;fill-opacity:0.14;"/>
            </g>
            <g transform="matrix(0.991298,0,0,1.04005,14.161,-39.0315)">
                <circle cx="291.5" cy="268.5" r="2.5" style="fill:white;fill-opacity:0.14;"/>
            </g>
            <g transform="matrix(0.991298,0,0,1.04005,14.161,-39.0315)">
                <circle cx="321.5" cy="268.5" r="2.5" style="fill:white;fill-opacity:0.14;"/>
            </g>
            <g transform="matrix(0.991298,0,0,1.04005,14.161,-39.0315)">
                <circle cx="186.5" cy="283.5" r="2.5" style="fill:white;fill-opacity:0.14;"/>
            </g>
            <g transform="matrix(0.991298,0,0,1.04005,14.161,-39.0315)">
                <circle cx="216.5" cy="283.5" r="2.5" style="fill:white;fill-opacity:0.14;"/>
            </g>
            <g transform="matrix(0.991298,0,0,1.04005,14.161,-39.0315)">
                <circle cx="246.5" cy="283.5" r="2.5" style="fill:white;fill-opacity:0.14;"/>
            </g>
            <g transform="matrix(0.991298,0,0,1.04005,14.161,-39.0315)">
                <circle cx="276.5" cy="283.5" r="2.5" style="fill:white;fill-opacity:0.14;"/>
            </g>
            <g transform="matrix(0.991298,0,0,1.04005,14.161,-39.0315)">
                <circle cx="306.5" cy="283.5" r="2.5" style="fill:white;fill-opacity:0.14;"/>
            </g>
            <g transform="matrix(0.991298,0,0,1.04005,14.161,-39.0315)">
                <circle cx="201.5" cy="278.5" r="2.5" style="fill:white;fill-opacity:0.14;"/>
            </g>
            <g transform="matrix(0.991298,0,0,1.04005,14.161,-39.0315)">
                <circle cx="231.5" cy="278.5" r="2.5" style="fill:white;fill-opacity:0.14;"/>
            </g>
            <g transform="matrix(0.991298,0,0,1.04005,14.161,-39.0315)">
                <circle cx="261.5" cy="278.5" r="2.5" style="fill:white;fill-opacity:0.14;"/>
            </g>
            <g transform="matrix(0.991298,0,0,1.04005,14.161,-39.0315)">
                <circle cx="291.5" cy="278.5" r="2.5" style="fill:white;fill-opacity:0.14;"/>
            </g>
            <g transform="matrix(0.991298,0,0,1.04005,14.161,-39.0315)">
                <circle cx="321.5" cy="278.5" r="2.5" style="fill:white;fill-opacity:0.14;"/>
            </g>
            <g transform="matrix(0.991298,0,0,1.04005,14.161,-39.0315)">
                <circle cx="186.5" cy="293.5" r="2.5" style="fill:white;fill-opacity:0.14;"/>
            </g>
            <g transform="matrix(0.991298,0,0,1.04005,14.161,-39.0315)">
                <circle cx="216.5" cy="293.5" r="2.5" style="fill:white;fill-opacity:0.14;"/>
            </g>
            <g transform="matrix(0.991298,0,0,1.04005,14.161,-39.0315)">
                <circle cx="246.5" cy="293.5" r="2.5" style="fill:white;fill-opacity:0.14;"/>
            </g>
            <g transform="matrix(0.991298,0,0,1.04005,14.161,-39.0315)">
                <circle cx="276.5" cy="293.5" r="2.5" style="fill:white;fill-opacity:0.14;"/>
            </g>
            <g transform="matrix(0.991298,0,0,1.04005,14.161,-39.0315)">
                <circle cx="306.5" cy="293.5" r="2.5" style="fill:white;fill-opacity:0.14;"/>
            </g>
            <g transform="matrix(0.991298,0,0,1.04005,14.161,-39.0315)">
                <circle cx="201.5" cy="288.5" r="2.5" style="fill:white;fill-opacity:0.14;"/>
            </g>
            <g transform="matrix(0.991298,0,0,1.04005,14.161,-39.0315)">
                <circle cx="231.5" cy="288.5" r="2.5" style="fill:white;fill-opacity:0.14;"/>
            </g>
            <g transform="matrix(0.991298,0,0,1.04005,14.161,-39.0315)">
                <circle cx="261.5" cy="288.5" r="2.5" style="fill:white;fill-opacity:0.14;"/>
            </g>
            <g transform="matrix(0.991298,0,0,1.04005,14.161,-39.0315)">
                <circle cx="291.5" cy="288.5" r="2.5" style="fill:white;fill-opacity:0.14;"/>
            </g>
            <g transform="matrix(0.991298,0,0,1.04005,14.161,-39.0315)">
                <circle cx="321.5" cy="288.5" r="2.5" style="fill:white;fill-opacity:0.14;"/>
            </g>
            <g transform="matrix(0.991298,0,0,1.04005,14.161,-39.0315)">
                <circle cx="186.5" cy="303.5" r="2.5" style="fill:white;fill-opacity:0.14;"/>
            </g>
            <g transform="matrix(0.991298,0,0,1.04005,14.161,-39.0315)">
                <circle cx="216.5" cy="303.5" r="2.5" style="fill:white;fill-opacity:0.14;"/>
            </g>
            <g transform="matrix(0.991298,0,0,1.04005,14.161,-39.0315)">
                <circle cx="246.5" cy="303.5" r="2.5" style="fill:white;fill-opacity:0.14;"/>
            </g>
            <g transform="matrix(0.991298,0,0,1.04005,14.161,-39.0315)">
                <circle cx="276.5" cy="303.5" r="2.5" style="fill:white;fill-opacity:0.14;"/>
            </g>
            <g transform="matrix(0.991298,0,0,1.04005,14.161,-39.0315)">
                <circle cx="306.5" cy="303.5" r="2.5" style="fill:white;fill-opacity:0.14;"/>
            </g>
            <g transform="matrix(0.991298,0,0,1.04005,14.161,-39.0315)">
                <circle cx="201.5" cy="298.5" r="2.5" style="fill:white;fill-opacity:0.14;"/>
            </g>
            <g transform="matrix(0.991298,0,0,1.04005,14.161,-39.0315)">
                <circle cx="231.5" cy="298.5" r="2.5" style="fill:white;fill-opacity:0.14;"/>
            </g>
            <g transform="matrix(0.991298,0,0,1.04005,14.161,-39.0315)">
                <circle cx="261.5" cy="298.5" r="2.5" style="fill:white;fill-opacity:0.14;"/>
            </g>
            <g transform="matrix(0.991298,0,0,1.04005,14.161,-39.0315)">
                <circle cx="291.5" cy="298.5" r="2.5" style="fill:white;fill-opacity:0.14;"/>
            </g>
            <g transform="matrix(0.991298,0,0,1.04005,14.161,-39.0315)">
                <circle cx="321.5" cy="298.5" r="2.5" style="fill:white;fill-opacity:0.14;"/>
            </g>
            <g transform="matrix(0.991298,0,0,1.04005,14.161,-39.0315)">
                <circle cx="186.5" cy="313.5" r="2.5" style="fill:white;fill-opacity:0.14;"/>
            </g>
            <g transform="matrix(0.991298,0,0,1.04005,14.161,-39.0315)">
                <circle cx="216.5" cy="313.5" r="2.5" style="fill:white;fill-opacity:0.14;"/>
            </g>
            <g transform="matrix(0.991298,0,0,1.04005,14.161,-39.0315)">
                <circle cx="246.5" cy="313.5" r="2.5" style="fill:white;fill-opacity:0.14;"/>
            </g>
            <g transform="matrix(0.991298,0,0,1.04005,14.161,-39.0315)">
                <circle cx="276.5" cy="313.5" r="2.5" style="fill:white;fill-opacity:0.14;"/>
            </g>
            <g transform="matrix(0.991298,0,0,1.04005,14.161,-39.0315)">
                <circle cx="306.5" cy="313.5" r="2.5" style="fill:white;fill-opacity:0.14;"/>
            </g>
            <g transform="matrix(0.991298,0,0,1.04005,14.161,-39.0315)">
                <circle cx="201.5" cy="308.5" r="2.5" style="fill:white;fill-opacity:0.14;"/>
            </g>
            <g transform="matrix(0.991298,0,0,1.04005,14.161,-39.0315)">
                <circle cx="231.5" cy="308.5" r="2.5" style="fill:white;fill-opacity:0.14;"/>
            </g>
            <g transform="matrix(0.991298,0,0,1.04005,14.161,-39.0315)">
                <circle cx="261.5" cy="308.5" r="2.5" style="fill:white;fill-opacity:0.14;"/>
            </g>
            <g transform="matrix(0.991298,0,0,1.04005,14.161,-39.0315)">
                <circle cx="291.5" cy="308.5" r="2.5" style="fill:white;fill-opacity:0.14;"/>
            </g>
            <g transform="matrix(0.991298,0,0,1.04005,14.161,-39.0315)">
                <circle cx="321.5" cy="308.5" r="2.5" style="fill:white;fill-opacity:0.14;"/>
            </g>
            <g transform="matrix(0.991298,0,0,1.04005,14.161,-39.0315)">
                <circle cx="186.5" cy="323.5" r="2.5" style="fill:white;fill-opacity:0.14;"/>
            </g>
            <g transform="matrix(0.991298,0,0,1.04005,14.161,-39.0315)">
                <circle cx="216.5" cy="323.5" r="2.5" style="fill:white;fill-opacity:0.14;"/>
            </g>
            <g transform="matrix(0.991298,0,0,1.04005,14.161,-39.0315)">
                <circle cx="246.5" cy="323.5" r="2.5" style="fill:white;fill-opacity:0.14;"/>
            </g>
            <g transform="matrix(0.991298,0,0,1.04005,14.161,-39.0315)">
                <circle cx="276.5" cy="323.5" r="2.5" style="fill:white;fill-opacity:0.14;"/>
            </g>
            <g transform="matrix(0.991298,0,0,1.04005,14.161,-39.0315)">
                <circle cx="306.5" cy="323.5" r="2.5" style="fill:white;fill-opacity:0.14;"/>
            </g>
            <g transform="matrix(0.991298,0,0,1.04005,14.161,-39.0315)">
                <circle cx="201.5" cy="318.5" r="2.5" style="fill:white;fill-opacity:0.14;"/>
            </g>
            <g transform="matrix(0.991298,0,0,1.04005,14.161,-39.0315)">
                <circle cx="231.5" cy="318.5" r="2.5" style="fill:white;fill-opacity:0.14;"/>
            </g>
            <g transform="matrix(0.991298,0,0,1.04005,14.161,-39.0315)">
                <circle cx="261.5" cy="318.5" r="2.5" style="fill:white;fill-opacity:0.14;"/>
            </g>
            <g transform="matrix(0.991298,0,0,1.04005,14.161,-39.0315)">
                <circle cx="291.5" cy="318.5" r="2.5" style="fill:white;fill-opacity:0.14;"/>
            </g>
            <g transform="matrix(0.991298,0,0,1.04005,14.161,-39.0315)">
                <circle cx="321.5" cy="318.5" r="2.5" style="fill:white;fill-opacity:0.14;"/>
            </g>
            <g transform="matrix(0.991298,0,0,1.04005,14.161,-39.0315)">
                <circle cx="186.5" cy="333.5" r="2.5" style="fill:white;fill-opacity:0.14;"/>
            </g>
            <g transform="matrix(0.991298,0,0,1.04005,14.161,-39.0315)">
                <circle cx="216.5" cy="333.5" r="2.5" style="fill:white;fill-opacity:0.14;"/>
            </g>
            <g transform="matrix(0.991298,0,0,1.04005,14.161,-39.0315)">
                <circle cx="246.5" cy="333.5" r="2.5" style="fill:white;fill-opacity:0.14;"/>
            </g>
            <g transform="matrix(0.991298,0,0,1.04005,14.161,-39.0315)">
                <circle cx="276.5" cy="333.5" r="2.5" style="fill:white;fill-opacity:0.14;"/>
            </g>
            <g transform="matrix(0.991298,0,0,1.04005,14.161,-39.0315)">
                <circle cx="306.5" cy="333.5" r="2.5" style="fill:white;fill-opacity:0.14;"/>
            </g>
            <g transform="matrix(0.991298,0,0,1.04005,14.161,-39.0315)">
                <circle cx="201.5" cy="328.5" r="2.5" style="fill:white;fill-opacity:0.14;"/>
            </g>
            <g transform="matrix(0.991298,0,0,1.04005,14.161,-39.0315)">
                <circle cx="231.5" cy="328.5" r="2.5" style="fill:white;fill-opacity:0.14;"/>
            </g>
            <g transform="matrix(0.991298,0,0,1.04005,14.161,-39.0315)">
                <circle cx="261.5" cy="328.5" r="2.5" style="fill:white;fill-opacity:0.14;"/>
            </g>
            <g transform="matrix(0.991298,0,0,1.04005,14.161,-39.0315)">
                <circle cx="291.5" cy="328.5" r="2.5" style="fill:white;fill-opacity:0.14;"/>
            </g>
            <g transform="matrix(0.991298,0,0,1.04005,14.161,-39.0315)">
                <circle cx="321.5" cy="328.5" r="2.5" style="fill:white;fill-opacity:0.14;"/>
            </g>
            <g transform="matrix(0.991298,0,0,1.04005,14.161,-39.0315)">
                <circle cx="186.5" cy="343.5" r="2.5" style="fill:white;fill-opacity:0.14;"/>
            </g>
            <g transform="matrix(0.991298,0,0,1.04005,14.161,-39.0315)">
                <circle cx="216.5" cy="343.5" r="2.5" style="fill:white;fill-opacity:0.14;"/>
            </g>
            <g transform="matrix(0.991298,0,0,1.04005,14.161,-39.0315)">
                <circle cx="246.5" cy="343.5" r="2.5" style="fill:white;fill-opacity:0.14;"/>
            </g>
            <g transform="matrix(0.991298,0,0,1.04005,14.161,-39.0315)">
                <circle cx="276.5" cy="343.5" r="2.5" style="fill:white;fill-opacity:0.14;"/>
            </g>
            <g transform="matrix(0.991298,0,0,1.04005,14.161,-39.0315)">
                <circle cx="306.5" cy="343.5" r="2.5" style="fill:white;fill-opacity:0.14;"/>
            </g>
            <g transform="matrix(0.991298,0,0,1.04005,14.161,-39.0315)">
                <circle cx="201.5" cy="338.5" r="2.5" style="fill:white;fill-opacity:0.14;"/>
            </g>
            <g transform="matrix(0.991298,0,0,1.04005,14.161,-39.0315)">
                <circle cx="231.5" cy="338.5" r="2.5" style="fill:white;fill-opacity:0.14;"/>
            </g>
            <g transform="matrix(0.991298,0,0,1.04005,14.161,-39.0315)">
                <circle cx="261.5" cy="338.5" r="2.5" style="fill:white;fill-opacity:0.14;"/>
            </g>
            <g transform="matrix(0.991298,0,0,1.04005,14.161,-39.0315)">
                <circle cx="291.5" cy="338.5" r="2.5" style="fill:white;fill-opacity:0.14;"/>
            </g>
            <g transform="matrix(0.991298,0,0,1.04005,14.161,-39.0315)">
                <circle cx="321.5" cy="338.5" r="2.5" style="fill:white;fill-opacity:0.14;"/>
            </g>
            <g transform="matrix(0.991298,0,0,1.04005,14.161,-39.0315)">
                <circle cx="312" cy="755" r="35" style="fill:white;fill-opacity:0.25;"/>
            </g>
            <g transform="matrix(0.991298,0,0,1.04005,14.161,-39.0315)">
                <rect x="289.25" y="734" width="43.75" height="43.75" style="fill:none;"/>
            </g>
            <g transform="matrix(0.991298,0,0,1.04005,14.161,-39.0315)">
                <circle cx="58.91" cy="792.91" r="58.91" style="fill:rgb(244,202,80);"/>
            </g>
            <g transform="matrix(0.991298,0,0,1.04005,14.161,-39.0315)">
                <circle cx="101" cy="599" r="20" style="fill:rgb(93,178,198);"/>
            </g>
            <g transform="matrix(0.991298,0,0,1.04005,14.161,-39.0315)">
                <circle cx="1444" cy="821" r="28" style="fill:rgb(242,200,76);"/>
            </g>
        </g>
    </g>
</svg>
