<svg width="700" height="436" viewBox="0 0 700 436" fill="none"
  xmlns="http://www.w3.org/2000/svg">
  <path d="M116.815 433.518H674.404C625.847 401.929 618.597 364.478 661.755 312.952C707.86 257.912 727.451 158.235 631.731 93.848C566.608 50.0378 545.203 66.7508 457.949 55.5976C396.956 47.8052 313.771 -37.2937 205.721 19.5631C141.034 53.6034 192.294 166.911 89.027 205.359C17.2529 232.084 31.8512 334.483 57.5944 380.788C68.046 399.572 116.815 433.518 116.815 433.518Z" fill="#EFF6F8"/>
  <path d="M79.507 330.921C80.5056 332.589 80.5126 334.19 80.5551 335.482C80.6153 337.387 79.8788 338.913 78.126 339.069C76.3662 339.214 73.9087 338.025 71.8266 336.353C70.4102 335.217 69.0859 333.722 68.0201 332.108C66.9507 330.489 67.0109 328.995 66.8728 327.703C66.6745 325.801 66.9294 324.434 68.7778 324.204C70.6227 323.985 72.7119 325.047 74.8931 326.754C76.3768 327.915 78.5049 329.254 79.507 330.921Z" fill="#338161"/>
  <path d="M68.5405 323.873C68.5263 323.873 68.2466 324.21 68.2324 324.213C69.8861 326.635 69.964 326.625 71.5645 329.061C73.1402 331.501 73.381 331.476 74.893 333.93C76.3838 336.387 77.0105 336.327 78.4411 338.799C78.4517 338.795 77.9949 338.873 78.0091 338.873C79.7654 338.724 80.1868 337.315 80.123 335.41C80.077 334.118 79.9354 332.634 78.9297 330.963C77.9241 329.298 76.876 327.705 75.3887 326.543C73.2075 324.826 70.3889 323.643 68.5405 323.873Z" fill="#285B53"/>
  <path d="M50.7896 329.474C53.4383 329.775 55.8957 330.314 57.8149 331.047C60.6442 332.116 62.3686 333.532 62.2411 334.701C62.1207 335.88 60.2157 336.719 57.3688 336.96C55.4354 337.126 53.0133 336.79 50.4497 336.5C47.886 336.199 45.7331 335.558 43.8103 334.942C40.9917 334.042 39.2708 333.224 39.2637 332.027C39.2531 330.848 40.9705 330.207 43.8812 329.797C45.8606 329.517 48.1339 329.17 50.7896 329.474Z" fill="#338161"/>
  <path d="M39.0168 332.071C39.0204 332.078 38.6875 331.759 38.6875 331.763C42.6074 332.039 42.6003 332.432 46.4989 332.797C50.3904 333.2 50.394 333.105 54.2678 333.593C58.1381 334.128 58.1275 334.252 61.9765 334.872C61.973 334.865 62.6316 334.858 62.6351 334.85C62.7626 333.671 60.5778 331.961 57.7486 330.888C55.8258 330.152 53.1984 329.95 50.5569 329.649C47.9082 329.344 45.6101 329.511 43.6272 329.79C40.7129 330.201 39.0097 330.888 39.0168 332.071Z" fill="#285B53"/>
  <path d="M102.294 335.42C103.013 336.922 103.607 338.352 103.795 339.63C104.022 341.167 104.535 342.764 104.089 343.78C103.469 345.193 101.741 346.054 100.038 346.033C98.3313 346.008 95.8562 345.08 93.9511 343.685C92.5737 342.672 91.7734 341.096 90.5341 339.606C89.5037 338.366 88.9442 337.003 88.1616 335.548C87.3755 334.096 86.9188 332.793 86.6213 331.525C86.2637 330.01 86.0123 328.735 86.3522 327.673C86.8338 326.207 87.804 325.541 89.617 325.477C91.4406 325.42 93.0588 326.051 95.148 327.474C96.6564 328.498 98.388 329.663 99.6557 331.214C100.721 332.502 101.575 333.919 102.294 335.42Z" fill="#338161"/>
  <path d="M89.1447 325.5C89.1305 325.5 89.1589 325.5 89.1447 325.5C90.6001 328.057 91.4039 327.636 92.8096 330.21C94.1871 332.781 94.3145 332.781 95.6318 335.366C96.9242 337.951 95.7876 337.951 97.0376 340.535C98.2592 343.12 98.6735 343.124 99.842 345.716C99.8526 345.716 100.051 346.208 100.058 346.208C101.758 346.233 102.94 344.994 103.557 343.581C103.999 342.564 103.525 341.081 103.298 339.551C103.107 338.269 103.645 336.931 102.933 335.429C102.222 333.928 101.039 332.437 99.9801 331.145C98.7124 329.601 97.2606 328.121 95.7451 327.09C93.6559 325.66 90.9577 325.44 89.1447 325.5Z" fill="#285B53"/>
  <path d="M130.233 345.541C130.856 347.393 131.742 349.245 131.763 350.767C131.784 352.584 130.623 353.724 129.953 354.85C129.015 356.412 128.105 357.793 126.112 357.517C124.122 357.24 122.181 355.544 120.152 353.639C118.69 352.262 116.933 350.693 115.694 348.792C114.664 347.202 113.704 345.456 112.982 343.657C112.259 341.862 112.298 340.258 112.118 338.739C111.902 336.919 112.064 335.435 112.613 334.245C113.378 332.599 114.494 331.512 116.657 331.685C118.824 331.859 121.77 332.903 124.051 334.876C125.687 336.295 127.379 338.25 128.65 340.247C129.716 341.911 129.614 343.682 130.233 345.541Z" fill="#338161"/>
  <path d="M116.555 331.72C116.541 331.72 117.298 331.738 117.281 331.738C118.375 334.291 118.014 334.255 119.065 336.816C120.099 339.365 118.796 339.241 119.788 341.791C120.758 344.34 121.601 344.432 122.514 346.989C123.4 349.542 123.215 349.517 124.055 352.07C124.88 354.623 125.29 354.676 126.062 357.226C126.073 357.229 125.942 357.413 125.96 357.413C127.953 357.693 128.952 356.44 129.894 354.878C130.563 353.752 131.848 352.633 131.827 350.817C131.809 349.294 130.538 347.35 129.919 345.502C129.295 343.643 129.547 341.9 128.484 340.24C127.213 338.243 125.446 336.33 123.8 334.914C121.53 332.942 118.715 331.897 116.555 331.72Z" fill="#285B53"/>
  <path d="M155.888 359.905C156.295 361.916 156.784 363.85 156.603 365.436C156.387 367.338 155.753 368.821 154.89 369.901C153.693 371.399 152.184 372.663 150.13 372.114C148.073 371.566 145.343 369.565 143.466 367.341C142.11 365.73 142.202 363.637 141.158 361.495C140.287 359.7 138.771 357.763 138.247 355.798C137.723 353.836 138.208 352.267 138.219 350.667C138.233 348.747 137.719 346.803 138.449 345.628C139.461 344.006 141.437 343.772 143.693 344.233C145.941 344.693 148.799 345.674 150.945 348.022C152.482 349.714 152.924 351.892 154.011 354.123C154.911 355.989 155.477 357.887 155.888 359.905Z" fill="#338161"/>
  <path d="M143.764 344.478C143.749 344.478 143.516 343.742 143.498 343.742C144.323 346.539 144.146 346.5 144.932 349.291C145.686 352.088 144.985 351.929 145.697 354.712C146.384 357.488 147.928 357.856 148.544 360.632C149.135 363.412 149.181 363.423 149.712 366.192C150.226 368.957 149.422 368.752 149.893 371.503C149.911 371.51 150.063 371.833 150.081 371.84C152.134 372.378 154.358 371.882 155.569 370.388C156.44 369.315 156.217 367.251 156.426 365.349C156.607 363.763 156.327 361.914 155.923 359.899C155.516 357.885 154.613 355.951 153.703 354.085C152.616 351.851 152.159 349.786 150.615 348.097C148.477 345.757 146.012 344.939 143.764 344.478Z" fill="#285B53"/>
  <path d="M75.11 346.107C76.6503 345.094 78.3571 344.276 78.9873 343.165C79.9186 341.532 79.7345 339.666 78.2544 338.657C76.7813 337.644 73.7679 337.297 71.2291 337.903C69.4975 338.31 67.681 339.188 66.1584 340.261C64.6464 341.334 63.6124 342.651 63.0706 343.805C62.2739 345.509 62.9255 347.148 64.3596 348.058C65.8007 348.968 67.9041 348.887 70.3403 348.274C71.9939 347.853 73.5661 347.113 75.11 346.107Z" fill="#338161"/>
  <path d="M64.1052 348.28C64.0982 348.273 64.0344 347.929 64.0273 347.922C66.2157 346.308 66.1873 346.29 68.4252 344.711C70.6808 343.142 70.8933 343.28 73.1914 341.747C75.5143 340.231 75.9002 340.49 78.2727 339.02C78.2798 339.02 77.9434 338.868 77.9505 338.879C79.4271 339.884 79.1048 341.233 78.1806 342.869C77.5539 343.978 76.5624 345.043 75.0185 346.053C73.4818 347.062 72.0123 347.88 70.3622 348.298C67.9224 348.91 65.5429 349.19 64.1052 348.28Z" fill="#285B53"/>
  <path d="M95.1 355.266C96.4881 354.53 98.2904 354.165 99.2182 353.312C100.337 352.288 101.166 351.127 101.502 350.061C101.977 348.599 100.617 347.26 99.2996 346.162C97.9859 345.065 96.3677 343.949 94.0129 343.893C92.3239 343.854 90.9181 344.707 89.1157 345.221C87.6073 345.642 85.21 345.472 83.8432 346.283C82.487 347.09 82.4977 348.715 81.6443 349.64C80.6316 350.755 79.8419 351.739 79.6082 352.83C79.2789 354.335 79.0629 355.79 80.3412 356.768C81.616 357.741 83.9424 358.35 86.1236 358.315C87.6994 358.297 88.8679 357.168 90.61 356.668C92.0618 356.251 93.7155 355.992 95.1 355.266Z" fill="#338161"/>
  <path d="M80.7078 356.509C80.6971 356.498 80.7219 356.629 80.7148 356.622C83.0023 355.185 83.4024 355.5 85.736 354.108C88.0942 352.734 87.3011 352.104 89.6948 350.755C92.1062 349.423 92.0637 349.392 94.5176 348.092C96.9856 346.814 96.7874 346.647 99.2979 345.408C99.3085 345.415 100.013 345.773 100.024 345.78C101.341 346.888 101.677 348.46 101.214 349.926C100.877 350.985 100.523 352.373 99.4041 353.396C98.4729 354.246 96.7838 354.753 95.4028 355.486C94.0077 356.215 92.7471 357.047 91.2988 357.461C89.5602 357.95 87.5702 357.897 85.9944 357.922C83.8026 357.957 81.9825 357.486 80.7078 356.509Z" fill="#285B53"/>
  <path d="M119.372 368.415C121.1 367.767 122.155 366.5 123.37 365.639C124.829 364.609 126.185 363.628 126.752 362.442C127.534 360.806 127.485 358.847 126.114 357.367C124.74 355.891 122.173 355.558 119.439 355.165C117.471 354.882 115.08 354.287 112.896 354.651C111.069 354.952 109.443 355.7 107.74 356.457C106.03 357.215 103.884 357.601 102.769 358.585C101.434 359.768 100.856 361.337 100.428 362.576C99.8437 364.297 100.509 366.018 101.834 367.318C103.165 368.617 105.145 369.06 107.683 369.304C109.518 369.474 111.986 370.281 114.075 369.952C115.824 369.665 117.641 369.063 119.372 368.415Z" fill="#338161"/>
  <path d="M102.291 367.197C102.277 367.182 102.812 367.097 102.805 367.083C105.092 365.982 104.271 366.294 106.583 365.221C108.92 364.166 108.407 363.645 110.772 362.615C113.151 361.605 113.626 362.091 116.041 361.12C118.474 360.168 118.201 359.884 120.658 358.964C123.133 358.061 123.155 358.079 125.669 357.222C125.676 357.236 126.388 357.335 126.395 357.346C127.769 358.826 127.524 360.713 126.745 362.353C126.182 363.535 124.539 364.222 123.087 365.26C121.869 366.127 120.481 366.878 118.753 367.537C117.029 368.195 115.556 368.953 113.807 369.24C111.717 369.583 109.812 369.962 107.982 369.782C105.45 369.537 103.626 368.5 102.291 367.197Z" fill="#285B53"/>
  <path d="M141.065 381.724C142.966 381.26 145.041 381.108 146.44 380.372C148.115 379.49 148.734 377.889 149.482 376.724C150.516 375.113 151.195 373.52 149.953 371.802C148.71 370.088 146.153 368.927 143.334 368.176C141.295 367.635 139.386 368.01 137.053 368.098C135.105 368.183 133.165 368.318 131.274 368.899C129.387 369.469 127.198 369.593 125.902 370.482C124.351 371.547 124.004 373.205 123.388 374.44C122.535 376.154 121.391 377.826 122.609 379.33C123.827 380.832 126.656 382.092 129.266 382.663C131.153 383.073 133.275 382.832 135.509 382.74C137.379 382.663 139.16 382.184 141.065 381.724Z" fill="#338161"/>
  <path d="M122.799 379.313C122.788 379.299 123.581 379.26 123.571 379.249C126.106 378.367 126.22 378.516 128.787 377.691C131.368 376.884 131.014 376.42 133.627 375.651C136.255 374.897 136.626 375.382 139.289 374.681C141.963 374.005 141.86 373.863 144.565 373.229C147.288 372.613 146.562 371.625 149.321 371.052C149.328 371.066 150.468 371.703 150.475 371.717C151.715 373.442 150.373 374.876 149.339 376.487C148.595 377.652 147.876 379.022 146.201 379.908C144.81 380.648 143.383 381.575 141.481 382.032C139.583 382.493 137.721 382.974 135.847 383.045C133.613 383.133 131.343 383.098 129.463 382.691C126.846 382.117 124.017 380.814 122.799 379.313Z" fill="#285B53"/>
  <path d="M200.119 419.052C165.169 375.148 115.606 345.619 60.8522 335.549C60.3848 335.46 60.0342 335.163 60.0802 334.873C60.1227 334.586 60.5441 334.423 61.0186 334.511C116.038 344.632 165.846 374.305 200.965 418.429C201.27 418.808 201.319 419.254 201.086 419.428C200.852 419.601 200.416 419.431 200.119 419.052Z" fill="#338161"/>
  <path d="M664.316 290.19C664.607 292.109 665.619 293.352 666.413 294.375C667.574 295.883 669.118 296.599 670.566 295.6C672.018 294.598 673.158 292.119 673.7 289.499C674.068 287.725 674.146 285.731 673.937 283.805C673.735 281.879 672.737 280.763 672.022 279.68C670.966 278.086 669.893 277.194 668.325 278.189C666.763 279.191 665.821 281.337 665.23 284.042C664.819 285.884 664.026 288.263 664.316 290.19Z" fill="#338161"/>
  <path d="M668.245 277.787C668.256 277.779 668.688 277.861 668.698 277.854C668.964 280.772 668.897 280.818 669.212 283.714C669.548 286.597 669.35 286.731 669.739 289.585C670.154 292.429 669.633 292.783 670.101 295.598C670.093 295.601 670.494 295.375 670.486 295.382C669.035 296.38 667.81 295.559 666.645 294.05C665.858 293.023 665.023 291.788 664.739 289.858C664.453 287.939 664.254 286.041 664.658 284.203C665.246 281.487 666.673 278.782 668.245 277.787Z" fill="#285B53"/>
  <path d="M685.53 270.818C683.681 272.733 682.123 274.709 681.107 276.49C679.609 279.118 679.174 281.303 680.017 282.128C680.863 282.963 682.864 282.4 685.218 280.775C686.815 279.67 688.469 277.878 690.264 276.023C692.052 274.164 693.306 272.298 694.396 270.605C695.997 268.116 696.808 266.392 696.054 265.467C695.307 264.547 693.575 265.145 691.064 266.678C689.361 267.719 687.385 268.899 685.53 270.818Z" fill="#338161"/>
  <path d="M696.094 265.451C696.094 265.458 696.147 265.001 696.154 265.005C693.3 267.707 693.555 268.004 690.776 270.763C688.031 273.546 687.968 273.475 685.287 276.315C682.642 279.187 682.727 279.275 680.153 282.196C680.149 282.189 679.636 282.604 679.632 282.6C678.782 281.772 679.377 279.063 680.879 276.439C681.895 274.647 683.796 272.824 685.641 270.911C687.493 268.996 689.373 267.664 691.08 266.616C693.591 265.086 695.34 264.534 696.094 265.451Z" fill="#285B53"/>
  <path d="M649.532 308.15C649.935 309.761 650.388 311.245 651.054 312.35C651.858 313.681 652.478 315.239 653.469 315.742C654.847 316.44 656.73 316.004 658.03 314.906C659.329 313.805 660.65 311.518 661.234 309.223C661.652 307.573 661.263 305.845 661.273 303.908C661.281 302.297 660.849 300.888 660.523 299.266C660.204 297.648 659.726 296.355 659.152 295.19C658.462 293.788 657.846 292.641 656.907 292.042C655.604 291.214 654.429 291.316 652.991 292.425C651.546 293.537 650.697 295.052 649.992 297.478C649.482 299.223 648.887 301.224 648.891 303.225C648.891 304.896 649.131 306.536 649.532 308.15Z" fill="#338161"/>
  <path d="M653.399 292.295C653.413 292.284 653.392 292.305 653.399 292.295C653.905 295.191 653.013 295.379 653.569 298.254C654.142 301.115 654.047 301.197 654.67 304.026C655.318 306.845 656.196 306.126 656.876 308.913C657.577 311.682 657.258 311.951 658.005 314.691C657.998 314.702 658.161 315.205 658.158 315.212C656.858 316.306 655.155 316.104 653.785 315.403C652.793 314.9 652.216 313.452 651.419 312.128C650.75 311.019 649.486 310.329 649.075 308.718C648.668 307.107 648.632 305.209 648.629 303.534C648.625 301.537 648.806 299.469 649.316 297.716C650.021 295.28 651.961 293.399 653.399 292.295Z" fill="#285B53"/>
  <path d="M634.526 333.781C635.224 335.608 635.723 337.598 636.672 338.784C637.812 340.2 639.438 340.346 640.674 340.792C642.391 341.397 643.97 341.882 645.334 340.402C646.693 338.929 647.111 336.387 647.465 333.625C647.717 331.638 648.074 329.312 647.823 327.056C647.607 325.172 647.235 323.214 646.647 321.369C646.063 319.525 645.011 318.31 644.183 317.021C643.191 315.477 642.122 314.436 640.939 313.873C639.3 313.084 637.749 312.953 636.187 314.465C634.629 315.973 633.018 318.65 632.515 321.621C632.154 323.76 632.09 326.341 632.377 328.692C632.618 330.654 633.825 331.953 634.526 333.781Z" fill="#338161"/>
  <path d="M636.19 314.539C636.201 314.532 635.627 315.024 635.638 315.013C636.42 317.679 636.675 317.421 637.49 320.066C638.322 322.69 639.246 321.766 640.103 324.365C640.978 326.95 640.383 327.555 641.303 330.108C642.245 332.64 642.373 332.506 643.35 335.016C644.338 337.502 644.058 337.806 645.085 340.264C645.075 340.274 645.294 340.335 645.283 340.345C643.92 341.825 642.351 341.493 640.634 340.887C639.398 340.441 637.695 340.395 636.555 338.982C635.599 337.792 635.344 335.491 634.646 333.663C633.945 331.833 632.639 330.647 632.401 328.692C632.111 326.344 632.26 323.745 632.624 321.606C633.127 318.643 634.636 316.051 636.19 314.539Z" fill="#285B53"/>
  <path d="M623.822 361.118C624.788 362.931 625.642 364.737 626.789 365.845C628.163 367.177 629.601 367.917 630.953 368.2C632.83 368.597 634.799 368.614 636.038 366.883C637.274 365.155 638.11 361.879 638.141 358.965C638.159 356.865 636.76 355.307 636.201 352.988C635.737 351.048 635.666 348.594 634.823 346.745C633.981 344.893 632.61 343.994 631.58 342.765C630.351 341.296 629.508 339.469 628.198 339.022C626.382 338.41 624.707 339.49 623.259 341.278C621.814 343.059 620.235 345.637 620.079 348.806C619.966 351.09 621.007 353.052 621.591 355.46C622.083 357.478 622.855 359.302 623.822 361.118Z" fill="#338161"/>
  <path d="M623.296 341.537C623.31 341.526 623.019 340.815 623.03 340.797C624.174 343.484 624.283 343.343 625.463 345.991C626.649 348.63 627.091 348.067 628.317 350.662C629.556 353.243 628.593 354.508 629.889 357.043C631.203 359.564 631.171 359.599 632.52 362.078C633.887 364.536 634.375 363.866 635.76 366.288C635.756 366.303 635.841 366.65 635.831 366.667C634.588 368.388 632.555 369.415 630.675 369.036C629.319 368.756 628.175 367.025 626.805 365.69C625.654 364.578 624.691 362.978 623.724 361.165C622.757 359.348 622.223 357.284 621.738 355.262C621.157 352.854 620.194 350.967 620.311 348.683C620.473 345.513 621.854 343.322 623.296 341.537Z" fill="#285B53"/>
  <path d="M677.305 299.158C675.474 299.357 673.636 299.81 672.436 299.353C670.683 298.687 669.635 297.129 670.138 295.408C670.634 293.688 672.737 291.51 675.081 290.363C676.678 289.576 678.64 289.098 680.492 288.96C682.344 288.829 683.983 289.187 685.134 289.736C686.83 290.543 687.372 292.222 686.844 293.836C686.31 295.454 684.635 296.726 682.368 297.799C680.825 298.532 679.135 298.957 677.305 299.158Z" fill="#338161"/>
  <path d="M687.344 293.838C687.344 293.831 687.171 293.527 687.174 293.516C684.458 293.658 684.465 293.626 681.735 293.828C678.994 294.047 678.92 294.288 676.169 294.571C673.414 294.872 673.279 295.322 670.514 295.69C670.51 295.694 670.67 295.368 670.67 295.379C670.174 297.092 671.275 297.928 673.031 298.604C674.225 299.065 675.666 299.252 677.497 299.054C679.331 298.852 680.984 298.551 682.521 297.825C684.795 296.749 686.809 295.453 687.344 293.838Z" fill="#285B53"/>
  <path d="M667.719 318.897C666.178 319.212 664.557 320.072 663.293 320.008C661.784 319.924 660.4 319.555 659.465 318.95C658.165 318.118 658.367 316.223 658.682 314.538C658.994 312.859 659.536 310.965 661.317 309.428C662.599 308.323 664.227 308.093 665.945 307.342C667.375 306.712 669.117 305.055 670.686 304.814C672.251 304.573 673.271 305.834 674.525 306.011C676.015 306.227 677.248 306.482 678.122 307.176C679.337 308.129 680.427 309.116 680.063 310.682C679.701 312.243 678.296 314.187 676.589 315.55C675.357 316.538 673.738 316.407 672.078 317.126C670.69 317.725 669.249 318.581 667.719 318.897Z" fill="#338161"/>
  <path d="M679.541 310.777C679.545 310.763 679.609 310.876 679.609 310.869C676.932 311.213 676.818 311.712 674.131 312.119C671.44 312.558 671.649 311.567 668.947 312.041C666.234 312.547 666.245 312.498 663.526 313.054C660.81 313.635 660.856 313.38 658.129 314.021C658.122 314.035 657.807 314.757 657.803 314.768C657.492 316.46 658.232 317.887 659.528 318.719C660.463 319.325 661.617 320.175 663.133 320.249C664.39 320.316 666.018 319.637 667.552 319.318C669.088 318.999 670.593 318.843 671.974 318.238C673.624 317.512 675.129 316.205 676.365 315.228C678.075 313.861 679.18 312.342 679.541 310.777Z" fill="#285B53"/>
  <path d="M657.228 344.579C655.483 345.181 653.864 344.869 652.374 344.979C650.592 345.11 648.921 345.212 647.731 344.657C646.088 343.892 644.877 342.348 644.994 340.337C645.111 338.322 646.881 336.438 648.744 334.398C650.079 332.929 651.552 330.949 653.468 329.841C655.068 328.917 656.8 328.457 658.599 327.961C660.397 327.458 662.302 326.392 663.79 326.449C665.571 326.513 667.015 327.355 668.131 328.039C669.682 328.998 670.263 330.748 670.061 332.592C669.866 334.441 668.62 336.038 666.814 337.844C665.507 339.14 664.115 341.328 662.295 342.401C660.766 343.293 658.977 343.984 657.228 344.579Z" fill="#338161"/>
  <path d="M669.784 332.648C669.787 332.633 669.323 332.903 669.323 332.892C666.852 333.49 667.684 333.207 665.216 333.852C662.741 334.521 662.808 333.791 660.329 334.5C657.847 335.233 657.787 335.909 655.305 336.695C652.826 337.506 652.851 337.109 650.372 337.963C647.883 338.841 647.883 338.866 645.397 339.8C645.397 339.818 644.915 340.346 644.915 340.36C644.795 342.375 646.19 343.678 647.833 344.45C649.019 345.002 650.723 344.492 652.504 344.368C653.995 344.266 655.545 343.958 657.295 343.37C659.048 342.782 660.666 342.431 662.199 341.543C664.03 340.477 665.74 339.56 667.039 338.26C668.842 336.461 669.589 334.5 669.784 332.648Z" fill="#285B53"/>
  <path d="M648.943 368.596C647.179 369.449 645.48 370.649 643.932 370.972C642.08 371.354 640.582 370.515 639.265 370.086C637.442 369.499 635.905 368.702 635.77 366.588C635.632 364.477 636.872 361.956 638.568 359.584C639.796 357.87 641.51 356.942 643.366 355.536C644.924 354.357 646.51 353.235 648.334 352.481C650.154 351.723 651.924 350.427 653.489 350.289C655.363 350.126 656.683 351.188 657.951 351.748C659.7 352.527 661.648 353.09 661.662 355.027C661.676 356.96 660.299 359.729 658.645 361.832C657.448 363.344 655.66 364.506 653.875 365.855C652.385 366.984 650.703 367.746 648.943 368.596Z" fill="#338161"/>
  <path d="M661.725 355.026C661.725 355.009 661.085 355.483 661.085 355.469C658.574 356.397 658.581 356.588 656.071 357.583C653.564 358.596 653.546 358.015 651.039 359.077C648.528 360.168 648.549 360.777 646.053 361.928C643.553 363.103 643.546 362.93 641.053 364.158C638.56 365.415 638.493 364.187 636 365.497C636 365.515 635.529 366.729 635.529 366.747C635.667 368.864 637.622 369.116 639.442 369.707C640.756 370.132 642.186 370.73 644.038 370.352C645.589 370.04 647.278 369.849 649.035 368.995C650.791 368.142 652.537 367.331 654.027 366.198C655.812 364.845 657.536 363.379 658.733 361.867C660.387 359.764 661.74 356.96 661.725 355.026Z" fill="#285B53"/>
  <path d="M627.248 434.862C626.282 378.773 645.746 324.497 681.595 281.938C681.903 281.576 681.981 281.123 681.762 280.929C681.546 280.734 681.121 280.875 680.809 281.244C644.783 324.008 625.226 378.55 626.197 434.915C626.204 435.4 626.448 435.779 626.738 435.761C627.029 435.747 627.255 435.344 627.248 434.862Z" fill="#338161"/>
  <path d="M57.5588 208.883C60.7138 207.396 62.757 204.956 64.4567 203.022C66.9601 200.179 68.1216 196.95 66.1138 194.57C64.1132 192.191 59.3789 191.142 54.68 191.613C51.4825 191.929 48.0584 193.03 44.9388 194.726C41.8263 196.422 40.3957 199.064 38.912 201.17C36.7379 204.265 35.7429 206.871 37.701 208.946C39.6521 211.036 43.1046 211.184 47.4954 210.611C50.484 210.221 54.4003 210.363 57.5588 208.883Z" fill="#338161"/>
  <path d="M36.9939 209.281C36.9797 209.274 36.9833 208.431 36.9727 208.421C41.4201 205.797 41.5087 205.882 46.0765 203.389C50.701 200.935 50.9666 201.232 55.6974 198.92C60.4812 196.643 61.1859 197.465 66.0866 195.351C66.0901 195.365 65.6227 194.692 65.6333 194.703C67.6411 197.079 66.2813 199.749 63.785 202.599C62.0888 204.536 60.0421 206.65 56.8871 208.152C53.7286 209.649 50.7046 211.073 47.7266 211.455C43.3535 212.015 38.9485 211.356 36.9939 209.281Z" fill="#285B53"/>
  <path d="M17.6422 184.805C21.8984 186.055 25.9458 186.972 29.3841 187.234C34.43 187.616 38.2542 186.777 39.2315 184.599C40.1982 182.439 38.2153 179.129 33.9165 176.207C30.9987 174.224 26.7814 172.826 22.2773 171.498C17.7661 170.163 13.6302 169.975 9.96886 170.011C4.57595 170.067 1.18723 170.875 0.592345 173.166C0.00454298 175.467 2.59654 177.475 7.03339 179.886C10.0645 181.533 13.3894 183.555 17.6422 184.805Z" fill="#338161"/>
  <path d="M0.715291 173.144C0.718831 173.137 -0.00352778 173.597 1.29743e-05 173.586C6.75266 175.006 6.9722 174.259 13.6292 175.952C20.2367 177.758 20.173 177.938 26.6388 179.996C33.055 182.148 33.1471 181.929 39.4324 184.33C39.4288 184.347 40.3849 184.978 40.3813 184.988C39.3899 187.152 34.6237 188.094 29.5884 187.718C26.1572 187.453 22.1418 185.803 17.8749 184.549C13.6186 183.296 10.1308 181.603 7.1103 179.95C2.66991 177.538 0.123947 175.452 0.715291 173.144Z" fill="#285B53"/>
  <path d="M84.5873 231.481C87.3989 230.61 90.0688 229.75 92.2323 228.507C94.8172 227.02 97.781 225.965 99.1018 224.141C100.94 221.616 100.989 217.969 99.4736 215.398C97.9758 212.82 94.1798 210.186 90.1679 209.241C87.2714 208.554 84.1164 209.52 80.7241 209.878C77.8843 210.182 75.3879 211.358 72.594 212.434C69.7931 213.522 67.5942 214.871 65.6183 216.376C63.2458 218.192 61.355 219.817 60.3139 221.815C58.8692 224.584 58.9011 226.687 60.3777 228.893C61.8578 231.095 63.993 232.069 67.6013 232.643C70.211 233.068 73.1571 233.67 76.3581 233.312C79.0351 233.011 81.7723 232.356 84.5873 231.481Z" fill="#338161"/>
  <path d="M60.1851 228.333C60.1745 228.315 60.1922 228.354 60.1851 228.333C64.8274 226.269 64.9513 227.852 69.6856 225.936C74.4694 224.077 74.5757 224.247 79.4587 222.526C84.3806 220.869 83.4069 219.297 88.4174 217.739C93.4668 216.244 93.8351 216.853 98.9801 215.525C98.9907 215.543 99.9503 215.256 99.961 215.278C101.469 217.859 100.375 221.085 98.5516 223.617C97.2379 225.444 94.4901 226.439 91.9123 227.933C89.7594 229.187 88.0491 231.548 85.234 232.398C82.4225 233.252 79.3418 233.556 76.6719 233.857C73.4709 234.211 70.2982 234.378 67.7062 233.953C64.1262 233.372 61.683 230.536 60.1851 228.333Z" fill="#285B53"/>
  <path d="M114.357 263.121C117.774 262.724 121.262 262.905 124.038 261.977C127.366 260.865 129.282 258.259 131.222 256.436C133.913 253.914 136.311 251.538 135.202 248.203C134.087 244.878 130.195 242.562 125.84 240.575C122.706 239.134 119.038 237.491 115.051 237.194C111.729 236.942 108.195 237.088 104.761 237.785C101.319 238.479 98.6843 240.232 96.0994 241.592C93.001 243.224 90.71 245.115 89.0811 247.211C86.8149 250.133 85.6322 252.88 86.7866 255.681C87.9551 258.486 90.6179 261.464 94.5236 262.848C97.3422 263.843 101.05 264.559 104.761 264.831C107.855 265.051 110.943 263.514 114.357 263.121Z" fill="#338161"/>
  <path d="M87.0606 255.682C87.057 255.661 87.3828 256.702 87.3722 256.673C91.9365 255.498 91.7382 255.013 96.3734 253.961C101.04 252.97 100.322 251.146 105.052 250.243C109.815 249.404 110.286 250.643 115.105 249.963C119.949 249.344 119.85 249.053 124.754 248.558C129.683 248.126 129.914 248.798 134.892 248.533C134.903 248.558 135.207 248.218 135.218 248.235C136.333 251.571 134.18 254.035 131.489 256.55C129.545 258.373 127.693 261.174 124.365 262.282C121.592 263.203 117.874 262.463 114.457 262.863C111.047 263.263 108.037 265.016 104.939 264.793C101.232 264.524 97.5808 263.66 94.7551 262.665C90.8494 261.28 88.2256 258.49 87.0606 255.682Z" fill="#285B53"/>
  <path d="M138.507 297.658C142.101 297.941 145.528 298.54 148.574 298.143C152.224 297.662 155.298 296.599 157.681 295.123C160.985 293.087 163.995 290.484 163.534 286.791C163.095 283.094 159.756 278.2 155.634 275.251C152.663 273.119 148.62 273.781 144.608 272.662C141.251 271.72 137.607 269.907 133.925 269.946C130.253 270 127.37 271.625 124.435 272.521C120.919 273.587 117.406 273.976 115.317 275.853C112.417 278.438 111.992 281.575 112.594 284.698C113.21 287.832 114.481 291.507 118.196 293.692C120.876 295.268 124.693 295.102 128.468 296.104C131.612 296.939 134.913 297.368 138.507 297.658Z" fill="#338161"/>
  <path d="M113.181 284.698C113.178 284.677 111.893 284.758 111.893 284.73C116.811 284.372 116.761 284.117 121.733 283.915C126.733 283.788 126.545 282.74 131.595 282.75C136.665 282.821 137.062 285.25 142.154 285.537C147.263 285.891 147.278 285.962 152.416 286.479C157.571 287.074 157.387 285.679 162.578 286.422C162.585 286.451 163.166 286.723 163.169 286.752C163.633 290.441 161.824 294.333 158.499 296.348C156.109 297.799 152.281 297.414 148.634 297.906C145.581 298.306 142.239 298.047 138.648 297.761C135.054 297.467 131.8 296.521 128.645 295.686C124.867 294.691 121.248 294.79 118.564 293.207C114.839 291.029 113.791 287.842 113.181 284.698Z" fill="#285B53"/>
  <path d="M154.799 345.028C157.759 345.991 160.458 346.919 163.212 347.393C166.297 347.907 169.232 349.734 171.87 349.607C175.053 349.447 178.063 348.994 180.276 347.769C183.184 346.158 183.506 342.33 183.874 338.892C184.249 335.446 184.299 332.185 181.895 328.467C180.06 325.638 177.529 322.978 174.455 320.595C171.913 318.616 169.239 315.468 166.066 314.087C163.241 312.848 160.054 312.943 156.941 312.306C153.829 311.665 150.607 310.121 147.809 310.195C144.69 310.288 142.565 313.666 140.012 314.36C136.942 315.224 134.849 316.403 132.884 317.979C130.306 320.029 126.747 321.137 126.659 324.002C126.56 326.849 129.297 329.49 131.623 332.231C133.408 334.317 135.249 337.047 138.082 338.952C140.43 340.531 143.089 342.387 146.003 343.771C148.609 345.021 151.839 344.083 154.799 345.028Z" fill="#338161"/>
  <path d="M127.41 324.125C127.41 324.1 127.609 323.144 127.609 323.116C132.364 323.686 132.325 324.865 137.091 325.634C141.868 326.473 141.865 326.508 146.649 327.507C151.436 328.587 151.549 326.721 156.358 327.921C161.167 329.199 161.074 330.524 165.873 331.993C170.671 333.53 170.745 332.645 175.539 334.334C180.341 336.101 180.079 338.587 184.827 340.577C184.824 340.612 186.477 340.045 186.474 340.077C186.07 343.558 182.388 344.766 179.502 346.401C177.296 347.651 174.863 349.581 171.669 349.73C169.031 349.857 166.05 349.305 162.969 348.763C160.225 348.278 157.42 346.851 154.463 345.892C151.507 344.935 148.33 345.247 145.731 343.997C142.817 342.613 140.016 340.948 137.665 339.366C134.836 337.453 131.762 335.683 130.006 333.622C127.718 330.917 127.318 327.004 127.41 324.125Z" fill="#285B53"/>
  <path d="M70.9003 179.908C71.8068 183.424 73.0072 186.862 72.3521 189.344C71.3925 193.006 68.6765 195.559 65.5676 195.325C62.448 195.081 58.259 192.159 55.4722 188.374C53.592 185.789 51.9773 182.376 50.869 178.959C49.7606 175.549 49.4951 172.231 49.8314 169.681C50.3095 165.935 53.1104 163.782 56.5558 163.871C59.9905 163.952 63.4536 166.572 66.5024 170.538C68.5774 173.24 70.0044 176.395 70.9003 179.908Z" fill="#338161"/>
  <path d="M56.4846 163.206C56.4599 163.206 55.9747 163.726 55.957 163.723C57.8019 168.892 57.7275 168.892 59.3989 174.055C60.9923 179.214 61.4597 179.243 62.8584 184.406C64.1863 189.568 65.0219 189.628 66.1621 194.788C66.1798 194.788 65.5673 194.614 65.5814 194.618C68.7046 194.848 70.0855 192.44 71.0204 188.775C71.6507 186.286 71.7215 183.396 70.8221 179.88C69.9156 176.368 68.7506 173.234 66.6756 170.528C63.6339 166.563 59.9265 163.284 56.4846 163.206Z" fill="#285B53"/>
  <path d="M110.004 196.848C110.298 199.964 111.484 203.332 110.932 205.796C110.28 208.753 109.059 211.366 107.589 213.08C105.546 215.449 102.2 214.798 99.275 214.104C96.3467 213.406 93.1669 212.386 90.7944 209.054C89.0806 206.66 88.9141 203.527 87.6854 200.269C86.6621 197.539 83.6062 194.416 83.0609 191.392C82.512 188.361 84.8137 186.066 85.0226 183.545C85.2492 180.524 85.529 177.993 86.7364 176.088C88.4149 173.464 90.1889 171.045 93.5174 171.605C96.8495 172.161 101.173 174.986 104.062 178.552C106.148 181.119 105.854 184.423 107.161 187.851C108.244 190.715 109.721 193.732 110.004 196.848Z" fill="#338161"/>
  <path d="M93.4487 172.508C93.4274 172.501 93.6541 172.355 93.6328 172.355C94.7907 177.791 95.8247 177.982 96.7984 183.407C97.6837 188.821 95.7468 188.439 96.5045 193.814C97.1844 199.182 97.0888 199.161 97.5987 204.493C98.0307 209.815 97.5668 209.713 97.8537 214.992C97.8749 214.999 99.0611 215.644 99.0788 215.655C101.986 216.352 104.854 215.141 106.89 212.762C108.353 211.044 110.375 208.959 111.04 206.005C111.589 203.541 110.757 200.195 110.477 197.079C110.194 193.966 110.137 190.903 109.068 188.017C107.79 184.568 105.134 181.385 103.048 178.832C100.148 175.284 96.7666 173.071 93.4487 172.508Z" fill="#285B53"/>
  <path d="M153.459 229.858C153.045 233.558 151.019 236.214 149.823 238.958C148.381 242.237 146.905 245.233 144.805 246.865C141.884 249.128 138.18 250.063 135.018 248.583C131.852 247.095 130.4 242.914 128.421 238.484C127.008 235.293 124.674 231.685 123.973 227.645C123.393 224.263 123.602 220.807 123.662 217.156C123.725 213.509 122.578 209.402 123.304 206.498C124.175 203.014 126.364 200.432 128.162 198.471C130.641 195.737 134.465 195.319 138.215 196.721C141.965 198.127 144.766 201.64 147.369 206.441C149.252 209.894 152.701 214.267 153.406 218.615C154.004 222.238 153.866 226.154 153.459 229.858Z" fill="#338161"/>
  <path d="M138.129 197.341C138.097 197.33 138.458 198.421 138.43 198.406C138.554 203.69 138.373 201.873 138.412 207.128C138.377 212.358 137.01 211.816 136.854 216.997C136.642 222.156 137.853 222.662 137.47 227.775C137.021 232.86 136.341 232.566 135.774 237.594C135.133 242.594 135.176 242.612 134.418 247.562C134.443 247.573 134.846 248.752 134.871 248.763C138.03 250.253 141.528 248.83 144.446 246.55C146.549 244.921 147.35 241.55 148.773 238.264C149.963 235.516 150.816 232.478 151.199 228.777C151.578 225.081 152.194 221.759 151.588 218.144C150.859 213.82 150.126 209.791 148.249 206.317C145.636 201.487 141.861 198.736 138.129 197.341Z" fill="#285B53"/>
  <path d="M184.505 270.354C183.354 274.125 182.621 278.183 180.801 280.778C178.623 283.877 175.259 284.808 172.77 286.083C169.3 287.85 166.003 288.926 163.047 286.72C160.09 284.511 158.489 280.091 157.363 275.116C156.549 271.536 157.388 267.985 157.508 263.633C157.608 259.996 157.678 256.328 158.479 252.553C159.29 248.775 158.95 244.494 160.285 241.622C161.889 238.184 165.051 236.856 167.313 235.195C170.44 232.894 173.351 229.93 176.977 232.136C180.599 234.346 184.261 240.287 185.964 245.864C187.207 249.88 186.977 254.402 186.853 259.058C186.739 262.95 185.663 266.579 184.505 270.354Z" fill="#338161"/>
  <path d="M176.817 232.181C176.789 232.167 177.022 233.863 176.994 233.849C176.112 239.387 176.459 239.603 175.436 245.074C174.342 250.516 173.34 249.858 172.122 255.215C170.843 260.534 171.824 261.207 170.379 266.44C168.867 271.635 168.602 271.447 166.959 276.546C165.252 281.61 163.478 280.317 161.693 285.296C161.722 285.314 162.639 287.343 162.66 287.364C165.606 289.577 168.814 287.282 172.281 285.501C174.763 284.216 177.688 283.044 179.855 279.935C181.654 277.336 183.814 274.669 184.982 270.898C186.154 267.131 187.245 263.335 187.358 259.443C187.496 254.78 187.142 249.936 185.896 245.92C184.193 240.34 180.439 234.391 176.817 232.181Z" fill="#285B53"/>
  <path d="M195.992 400.419C194.063 300.691 130.052 214.358 38.3764 181.88C37.5867 181.604 36.7794 181.824 36.5811 182.372C36.3757 182.921 36.8502 183.587 37.6328 183.86C128.516 216.058 191.97 301.647 193.889 400.515C193.903 401.357 194.381 402.03 194.966 402.009C195.55 401.988 196.014 401.279 195.992 400.419Z" fill="#338161"/>
  <path d="M163.93 434.216H334.339V184.421H187.413L163.93 434.216Z" fill="#2E7DFB"/>
  <path d="M341.105 434.242H511.168V302.688H364.239L341.105 434.242Z" fill="#2E7DFB"/>
  <path d="M517.781 434.182H674.424V381.956H527.494L517.781 434.182Z" fill="#2E7DFB"/>
  <path d="M480.552 230.254C471.993 229.121 471.586 211.788 481.472 211.221C501.008 210.102 541.127 206.706 560.822 215.261C568.733 218.7 575.436 224.677 574.342 232.92C573.251 241.167 565.301 248.274 556.746 247.141L480.552 230.254Z" fill="#232C4C"/>
  <path d="M457.929 295.643C454.508 296.412 452.67 294.68 451.42 296.245C449.497 298.667 455.655 302.531 478.158 304.754C479.592 303.38 480.467 297.722 480.467 297.722L472.354 298.444L471.119 293.76C471.119 293.76 461.884 294.755 457.929 295.643Z" fill="#FF6FCA"/>
  <path d="M472.389 282.199L481.981 283.099L480.504 297.702L472.392 298.424L471.156 293.74L472.389 282.199Z" fill="#FC8B59"/>
  <path d="M483.03 280.35C481.968 285 481.483 288.895 476.727 288.551C471.965 288.211 471.31 284.295 471.653 279.543L473.02 219.176C473.363 214.424 477.492 210.844 482.251 211.181C487.007 211.524 488.859 215.848 490.254 220.405C495.806 238.56 486.405 265.521 483.03 280.35Z" fill="#232C4C"/>
  <path d="M577.37 378.329C574.392 380.178 572.087 379.14 571.421 381.028C570.387 383.942 577.476 385.588 599.469 380.344C600.379 378.581 599.352 372.944 599.352 372.944L591.924 376.272L589.218 372.25C589.218 372.25 580.819 376.201 577.37 378.329Z" fill="#FF6FCA"/>
  <path d="M586.561 360.924L595.916 358.644L599.294 372.932L591.865 376.26L589.16 372.238L586.561 360.924Z" fill="#FC8B59"/>
  <path d="M584.619 295.579C586.283 304.038 568.068 307.993 566.404 299.534L540.849 225.51C524.932 192.841 541.975 202.21 550.144 200.606L564.917 195.762C573.086 194.158 582.593 209.03 584.258 217.49L584.619 295.579Z" fill="#3F4662"/>
  <path d="M595.989 355.691C596.502 360.432 597.316 364.271 592.706 365.503C588.099 366.735 586.201 363.244 584.965 358.641L566.531 301.139C565.295 296.535 568.032 291.805 572.639 290.572C577.25 289.344 580.412 292.824 583.22 296.677C594.402 312.027 594.328 340.575 595.989 355.691Z" fill="#3F4662"/>
  <path d="M520.005 129.131C518.709 128.657 516.765 127.641 514.885 128.604C513.076 129.698 511.829 136.447 511.557 137.8C517.35 142.63 516.316 147.782 516.316 147.782L532.261 138.225C532.261 138.225 522.088 136.284 520.005 129.131Z" fill="#F6693B"/>
  <path d="M515.979 130.167C514.786 127.366 507.134 122.352 504.843 123.326C502.545 124.303 501.67 124.721 501.295 127.487C500.891 130.457 502.931 131.481 503.455 132.748C503.908 133.825 503.582 135.659 503.54 136.771C504.021 137.238 505.37 137.405 505.37 137.405C505.37 137.405 505.951 138.248 505.873 138.722C506.932 138.828 507.375 139.193 507.948 139.894C508.71 140.815 509.389 142.206 510.172 142.334C512.204 142.674 514.871 139.14 515.395 138.148C517.18 134.784 517.491 133.733 515.979 130.167Z" fill="#FC8B59"/>
  <path d="M520.153 134.899C520.801 134.864 521.541 134.428 522.186 134.428C530.627 129.457 528.765 110.009 519.179 110.59C519.179 110.59 513.804 108.696 509.162 111.429C503.114 114.992 496.776 121.634 501.372 127.07C501.552 126.245 501.843 125.299 502.271 124.984C503.751 124.354 503.206 125.229 507.484 126.029C515.298 127.484 518.383 134.991 520.153 134.899Z" fill="#232C4C"/>
  <path d="M513.52 128.979C515.053 125.834 517.188 129.981 517.085 131.333C517.05 131.836 516.929 132.842 516.441 133.161L513.52 128.979Z" fill="#FC8B59"/>
  <path d="M523.38 102.3C526.231 107.13 524.358 113.507 519.199 116.545C514.043 119.584 507.549 118.128 504.698 113.298C501.851 108.468 503.721 102.091 508.88 99.0529C514.039 96.0147 520.53 97.4701 523.38 102.3Z" fill="#232C4C"/>
  <path d="M522.672 106.725C525.466 104.583 525.653 101.803 524.396 99.7069C523.051 97.4371 520.097 95.8331 516.9 96.3005C515.37 96.5236 513.964 97.1716 512.654 97.8443C512.513 97.9116 512.442 98.071 512.502 98.1878C512.562 98.3082 512.722 98.3472 512.863 98.2763C514.156 97.6142 515.498 97.0051 516.903 96.7998C519.835 96.3607 522.65 97.8691 523.904 99.9973C525.051 101.977 524.903 104.385 522.357 106.353C522.233 106.452 522.204 106.608 522.289 106.715C522.367 106.807 522.516 106.817 522.636 106.746C522.647 106.739 522.661 106.736 522.672 106.725Z" fill="#232C4C"/>
  <path d="M486.491 166.593C483.099 167.443 479.823 166.034 478.977 162.649C478.131 159.257 480.355 156.477 483.747 155.634L529.064 142.228C532.457 141.385 536.221 144.753 537.07 148.145C538.42 163.775 486.491 166.593 486.491 166.593Z" fill="#FF6FCA"/>
  <path d="M483.434 167.091C474.132 167.859 440.252 151.464 440.252 151.464L442.621 145.561L486.823 157.006C486.823 157.006 491.384 166.673 483.434 167.091Z" fill="#FC8B59"/>
  <path d="M433.477 136.74C433.637 137.225 434.812 138.776 434.812 138.776C434.812 138.776 427.546 136.889 425.308 136.52C421.672 135.925 422.387 137.951 422.387 137.951L424.986 139.056L421.746 138.245C420.627 137.965 419.661 138.436 419.572 139.304C419.508 139.959 421.233 141.209 421.941 141.63C420.882 141.418 419.53 141.761 419.445 142.671C419.353 143.624 424.54 145.638 424.54 145.638C423.779 145.468 423.078 145.907 422.971 146.619C422.862 147.331 430.457 149.64 430.457 149.64C430.595 149.672 430.733 149.682 430.864 149.675L434.133 151.283L440.34 151.449C440.34 151.449 443.392 146.733 442.709 145.546C442.709 145.546 442.1 141.209 441.342 140.001C440.326 138.386 435.464 135.146 435.464 135.146L434.894 132.983C434.894 132.983 432.486 133.68 433.477 136.74Z" fill="#F6693B"/>
  <path d="M536.228 214.535C545.909 213.409 566.472 200.548 571.415 197.446C576.397 194.316 561.808 184.082 561.72 183.441C559.733 169.157 550.396 132.983 527.025 135.309C516.65 139.856 520.248 138.496 511.346 150.843C511.229 158.421 506.424 163.662 508.417 172.546C509.986 179.553 527.978 186.239 529.136 197.952C529.327 200.615 529.978 215.268 536.228 214.535Z" fill="#FFB1DF"/>
  <path d="M573.917 169.946C576.767 171.968 577.826 175.367 575.8 178.214C573.775 181.061 570.216 181.178 567.366 179.156L527.7 153.487C524.853 151.465 524.963 146.416 526.988 143.565C537.993 132.376 573.917 169.946 573.917 169.946Z" fill="#FFB1DF"/>
  <path d="M575.979 172.308C584.686 175.654 608.071 205.133 608.071 205.133L603.368 209.417L568.539 179.921C568.539 179.921 568.635 169.231 575.979 172.308Z" fill="#FF8A5F"/>
  <path d="M607.899 221.371C607.97 220.865 607.587 218.96 607.587 218.96C607.587 218.96 613.306 223.811 615.168 225.114C618.185 227.232 618.416 225.093 618.416 225.093L616.556 222.976L619.124 225.111C620.005 225.847 621.085 225.84 621.539 225.1C621.882 224.537 620.876 222.66 620.42 221.977C621.284 222.625 622.647 222.905 623.121 222.122C623.621 221.308 619.821 217.236 619.821 217.236C620.43 217.721 621.255 217.625 621.663 217.034C622.066 216.439 616.234 211.064 616.234 211.064C616.121 210.975 616.004 210.908 615.88 210.855L613.639 207.99L608.118 205.147C608.118 205.147 603.317 208.064 603.416 209.431C603.416 209.431 602.077 213.599 602.24 215.019C602.449 216.913 605.42 221.945 605.42 221.945L604.995 224.137C604.995 224.137 607.463 224.555 607.899 221.371Z" fill="#FF8A5F"/>
  <path d="M299.443 165.499C301.316 173.565 298.472 181.122 289.082 183.303C279.684 185.484 273.802 179.96 271.929 171.897L246.207 106.025C244.334 97.9582 257.319 89.2545 266.717 87.0768C276.111 84.8955 286.759 89.2722 288.635 97.3385L299.443 165.499Z" fill="#232C4C"/>
  <path d="M222.799 165.591C218.195 166.912 214.502 169.723 215.005 175.902C215.508 182.081 219.622 185.208 224.357 184.826L284.582 183.774C289.319 183.392 292.751 178.069 292.248 171.89C291.745 165.711 287.365 163.261 282.765 161.398C264.448 153.973 237.49 161.384 222.799 165.591Z" fill="#232C4C"/>
  <path d="M283.687 165.502C285.564 173.569 282.72 181.125 273.322 183.306C263.932 185.488 258.05 179.964 256.177 171.901C256.177 171.901 232.137 122.837 226.32 105.621C223.671 97.7776 226.667 73.3165 244.184 71.1317C244.184 71.1317 271.003 89.2757 272.883 97.342L283.687 165.502Z" fill="#3F4662"/>
  <path d="M207.189 165.591C202.586 166.912 198.893 169.723 199.396 175.902C199.895 182.081 204.013 185.208 208.747 184.826L268.972 183.774C273.707 183.392 277.134 178.069 276.638 171.89C276.132 165.711 271.752 163.261 267.152 161.398C248.835 153.973 221.881 161.384 207.189 165.591Z" fill="#3F4662"/>
  <path d="M183.286 199.402C182.054 203.198 183.824 205.468 181.916 206.718C178.962 208.647 175.22 201.257 175.057 175.514C176.767 174.031 183.289 173.631 183.289 173.631L181.618 182.756L186.809 184.65C186.809 184.65 184.709 195.015 183.286 199.402Z" fill="#3F4662"/>
  <path d="M205.728 184.612L200.045 173.076L183.353 173.678L181.682 182.803L186.873 184.697L205.728 184.612Z" fill="#FF8A5F"/>
  <path d="M331.605 89.1168C329.35 100.342 325.154 127.097 325.154 127.097C325.154 127.097 315.157 135.564 306.833 124.229C304.74 121.386 308.939 101.776 310.767 89.0991C312.934 74.0853 332.444 84.9066 331.605 89.1168Z" fill="#FF8A5F"/>
  <path d="M325.254 127.116L318.696 175.341L307.167 179.714L307.128 178.312C302.029 167.292 304.316 122.014 308.838 120.898C317.885 115.527 324.556 119.988 325.254 127.116Z" fill="#FF8A5F"/>
  <path d="M307.186 179.697C307.536 184.392 312.855 196.662 319.058 196.662C320.457 196.662 311.629 184.158 320.291 184.739C324.26 185.306 330.145 184.413 333.134 184.413C329.791 178.691 325.167 175.295 318.715 175.324L307.186 179.697Z" fill="#FF8A5F"/>
  <path d="M348.373 66.0874L355.646 82.468L364.764 77.0822L364.892 62.288L348.373 66.0874Z" fill="#F6693B"/>
  <path d="M384.662 62.7612C382.923 60.2932 380.699 57.5773 377.314 57.6906C375.257 57.7649 372.498 59.8293 369.938 61.6919C369.765 57.3011 364.864 61.9539 364.032 63.4517C363.851 63.7704 363.642 64.4645 363.554 65.1231C361.564 65.679 360.402 65.8986 360.19 69.0146C360.091 70.3744 362.98 81.7869 364.29 82.1587C366.684 82.8315 369.425 78.0335 372.421 79.4499C372.906 79.3826 373.242 77.9768 373.745 78.3238C374.719 78.9825 375.728 79.4676 376.068 79.0179C376.716 78.1645 376.248 76.1993 378.005 74.3792C382.286 73.4762 383.461 70.3106 383.879 69.7405C385.887 67.014 386.4 65.2328 384.662 62.7612Z" fill="#FC8B59"/>
  <path d="M392.621 64.2372C389.359 60.2111 388.435 62.2613 386.852 57.8245C384.583 51.4755 381.208 48.5719 377.632 47.7964C367.607 44.1386 362.377 52.2226 361.683 54.4287C360.957 56.7374 356.889 64.1203 356.889 64.1203L357.629 64.2266C361.085 64.3257 361.552 64.2832 363.599 64.2266C364.282 62.7712 368.694 57.9059 369.803 61.6735C370.953 61.9426 374.282 65.2818 375.95 64.0955C376.612 63.6211 377.812 60.9759 379.618 61.284C382.532 61.7868 383.46 67.1443 383.984 69.3822C385.227 74.6902 396.902 69.5132 392.621 64.2372Z" fill="#232C4C"/>
  <path d="M340.062 108.784C334.209 111.705 322.453 112.041 309.67 110.487C296.703 109.028 289.221 105.561 275.064 111.386C268.457 89.8925 231.843 76.9149 240.607 65.1553C280.443 51.4977 343.263 44.7627 359.446 71.1926C362.817 76.6988 362.477 89.9386 354.148 99.5665C349.814 104.761 344.202 106.755 340.062 108.784Z" fill="white"/>
  <path d="M355.98 87.4712C361.844 97.308 376.681 119.974 376.681 119.974C376.681 119.974 374.945 132.948 361.164 130.119C357.701 129.403 347.659 112.042 340.509 101.412C332.046 88.8203 353.781 83.7815 355.98 87.4712Z" fill="#FF8A5F"/>
  <path d="M371.844 116.122L416.244 136.146L414.049 145.207C402.027 146.953 360.984 134.719 361.203 130.07C358.629 119.872 364.808 114.755 371.844 116.122Z" fill="#FF8A5F"/>
  <path d="M427.549 137.057C427.078 137.383 424.978 137.957 424.978 137.957C424.978 137.957 432.701 141.232 434.939 142.432C438.572 144.38 436.55 145.687 436.55 145.687L433.494 144.893L436.922 146.384C438.097 146.894 438.632 147.974 438.122 148.803C437.732 149.426 435.353 149.362 434.436 149.252C435.519 149.787 436.482 151.009 435.941 151.873C435.378 152.779 429.397 151.033 429.397 151.033C430.19 151.398 430.509 152.266 430.119 152.974C429.73 153.671 421.426 150.552 421.426 150.552C421.281 150.481 421.15 150.396 421.04 150.3L417.046 149.5L411.434 145.424C411.434 145.424 411.943 139.164 413.36 138.573C413.36 138.573 416.855 135.145 418.353 134.593C420.353 133.856 426.876 134.295 426.876 134.295L428.855 132.766C428.855 132.766 430.512 135.025 427.549 137.057Z" fill="#FF8A5F"/>
  <path d="M643.501 128.73C644.372 127.303 645.36 125.628 646.412 123.737C650.123 117.044 654.634 107.608 657.803 96.712C662.13 81.8505 664.542 68.4125 664.528 61.327C664.563 59.6663 664.358 58.3384 664.173 57.609C663.791 57.9596 663.278 58.5438 662.718 59.3228C661.465 61.0544 659.96 63.742 658.38 67.113C655.215 73.8586 651.699 83.3555 648.597 94.0421C644.525 108.022 643.618 121.152 643.501 128.73ZM639.422 135.705C639.418 135.666 639.291 133.811 639.291 130.635C639.295 123.241 639.978 108.666 644.567 92.8701C647.329 83.3696 650.406 74.7863 653.338 68.0868C656.323 61.3589 658.933 56.6281 661.581 54.3053C662.371 53.6537 663.271 53.073 664.545 53.0482C664.85 53.0482 665.165 53.0907 665.466 53.1757C666.312 53.42 666.967 53.9972 667.367 54.585C667.782 55.1799 668.026 55.8102 668.217 56.4865C668.586 57.8356 668.72 59.422 668.72 61.327C668.709 69.2163 666.224 82.7322 661.829 97.8806C655.254 120.465 643.282 136.686 643.204 136.803L639.819 141.392L639.422 135.705Z" fill="#DFECF0"/>
  <path d="M630.629 151.778C630.47 152.327 630.396 152.876 630.396 153.411C630.396 155.942 632.056 158.29 634.62 159.03C635.169 159.189 635.718 159.264 636.256 159.264C638.788 159.26 641.135 157.599 641.879 155.046C642.038 154.494 642.113 153.949 642.113 153.411C642.113 150.875 640.448 148.527 637.885 147.791C637.336 147.632 636.787 147.557 636.249 147.557C633.717 147.561 631.369 149.218 630.633 151.778L628.618 151.194L630.629 151.778ZM636.256 163.456C635.328 163.456 634.383 163.325 633.452 163.056C629.057 161.771 626.2 157.773 626.203 153.411C626.203 152.483 626.334 151.541 626.603 150.61H626.607C627.882 146.219 631.886 143.365 636.249 143.365C637.177 143.365 638.126 143.496 639.057 143.768C643.448 145.047 646.305 149.048 646.305 153.411C646.305 154.335 646.178 155.277 645.905 156.215C644.62 160.599 640.622 163.456 636.26 163.456C636.26 163.456 636.26 163.456 636.256 163.456Z" fill="#DFECF0"/>
  <path d="M437.345 70.947C431.098 70.9435 426.038 65.8834 426.035 59.6407V48.4335L410.929 55.7421L408.348 52.5906L426.035 29.3866V11.2993C426.038 5.05652 431.098 0 437.345 0H524.8V4.18898H437.345C433.414 4.19606 430.234 7.37232 430.227 11.2993V30.803L417.005 48.1431L430.227 41.7446V59.6407C430.234 63.5676 433.414 66.7474 437.345 66.7545H524.8C528.727 66.7474 531.91 63.5676 531.917 59.6407V11.2993C531.91 7.37586 528.727 4.19606 524.8 4.18898V0C531.046 0 536.11 5.05652 536.113 11.2993V59.6407C536.11 65.8834 531.046 70.9435 524.8 70.947H437.345Z" fill="#DFECF0"/>
  <path d="M152.872 74.975C152.883 81.4302 158.109 86.6496 164.568 86.6638C171.027 86.6496 176.253 81.4302 176.264 74.975C176.253 68.5269 171.027 63.304 164.568 63.2898C158.109 63.304 152.883 68.5269 152.872 74.975ZM148.68 74.975C148.68 66.2111 155.794 59.1044 164.568 59.1008C173.343 59.1044 180.456 66.2111 180.46 74.975C180.456 83.746 173.343 90.8528 164.568 90.8528C155.794 90.8528 148.68 83.746 148.68 74.975Z" fill="#DFECF0"/>
  <path d="M385.171 216.005C385.189 225.789 393.11 233.703 402.901 233.721C412.692 233.703 420.613 225.789 420.63 216.005C420.613 206.225 412.692 198.311 402.901 198.293C393.11 198.311 385.189 206.225 385.171 216.005ZM380.979 216.005C380.982 203.909 390.794 194.108 402.901 194.104C415.007 194.108 424.823 203.909 424.823 216.005C424.823 228.101 415.007 237.906 402.901 237.91C390.794 237.906 380.982 228.101 380.979 216.005Z" fill="#DFECF0"/>
</svg>
