<svg width="650" height="431" viewBox="0 0 650 431" fill="none"
  xmlns="http://www.w3.org/2000/svg">
  <path d="M303.775 141.463H305.154V179.771H303.775V141.463Z" fill="#D3AEFE"/>
  <path d="M304.526 192.958C300.392 192.958 297.133 189.568 297.133 185.548C297.133 181.531 300.516 178.138 304.526 178.138C308.662 178.138 311.918 181.531 311.918 185.548C311.918 189.568 308.535 192.958 304.526 192.958ZM304.526 179.395C301.142 179.395 298.388 182.156 298.388 185.548C298.388 188.94 301.142 191.701 304.526 191.701C307.909 191.701 310.667 188.94 310.667 185.548C310.539 182.156 307.785 179.395 304.526 179.395Z" fill="#D3AEFE"/>
  <path d="M207.797 5.31042H401.253V155.654H207.797V5.31042Z" fill="#E9EEFF"/>
  <path d="M404.261 161.307H204.664C202.158 161.307 200.029 159.171 200.029 156.658C200.029 154.149 202.158 152.013 204.664 152.013H404.261C406.768 152.013 408.896 154.149 408.896 156.658C408.896 159.298 406.892 161.307 404.261 161.307Z" fill="#BEC9FF"/>
  <path d="M404.261 9.58284H204.664C202.158 9.58284 200.029 7.44663 200.029 4.93424C200.029 2.42185 202.158 0.285645 204.664 0.285645H404.261C406.768 0.285645 408.896 2.42185 408.896 4.93424C408.896 7.44663 406.892 9.58284 404.261 9.58284Z" fill="#BEC9FF"/>
  <path d="M411.655 55.4273C411.906 51.5311 410.651 48.142 408.897 44.2458C408.522 43.4934 400.628 31.4353 399.751 34.4515C403.887 20.1329 383.339 5.43809 373.189 18.8767C371.435 21.1372 370.682 24.15 370.431 27.0386C370.307 29.4267 370.056 33.9477 372.563 35.0796C373.313 35.4558 374.066 35.5801 374.819 35.832C377.449 36.712 379.705 38.5963 381.833 40.6049C382.837 41.4849 383.714 42.4892 384.467 43.6177C386.472 47.0101 384.34 50.6544 384.089 54.1711C383.965 56.6801 384.089 59.8206 385.468 61.9568C392.107 72.5069 405.514 72.883 410.4 60.8249C411.029 58.944 411.528 57.184 411.655 55.4273ZM412.03 44.8739L411.906 45.0015L411.779 44.8739C411.906 44.8739 412.03 44.8739 412.03 44.8739Z" fill="#35324C"/>
  <path d="M394.49 32.6914C394.49 33.1415 394.409 33.5748 394.249 33.9913C394.091 34.4044 393.864 34.7705 393.573 35.0896C393.278 35.4087 392.94 35.6539 392.555 35.8252C392.17 35.9965 391.772 36.0838 391.357 36.0838C390.942 36.0838 390.54 35.9965 390.156 35.8252C389.774 35.6539 389.436 35.4087 389.142 35.0896C388.847 34.7705 388.62 34.4044 388.462 33.9913C388.302 33.5748 388.225 33.1415 388.225 32.6914C388.225 32.2413 388.302 31.808 388.462 31.3949C388.62 30.9784 388.847 30.6123 389.142 30.2932C389.436 29.9775 389.774 29.7323 390.156 29.5576C390.54 29.3863 390.942 29.299 391.357 29.299C391.772 29.299 392.17 29.3863 392.555 29.5576C392.94 29.7323 393.278 29.9775 393.573 30.2932C393.864 30.6123 394.091 30.9784 394.249 31.3949C394.409 31.808 394.49 32.2413 394.49 32.6914Z" fill="#FDC5B6"/>
  <path d="M391.731 35.4557V51.4067C391.731 53.9191 389.978 56.1796 387.598 56.5558C386.47 56.6801 385.466 56.4315 384.589 55.9277L373.438 50.6544C373.94 50.5267 374.439 50.5267 374.941 50.5267C377.197 50.2748 378.827 48.5182 379.329 46.2577C379.329 45.8815 379.452 45.6296 379.452 45.2534V42.741C379.078 42.741 378.699 42.741 378.325 42.6134C377.448 42.4891 376.571 42.2372 375.818 41.6091C373.94 40.101 373.562 37.2124 373.311 34.7C373.187 33.5714 373.188 27.0385 373.188 25.7823C374.941 27.1662 377.324 28.0462 379.452 28.4224C381.832 28.9228 384.84 29.1747 387.347 28.2947L391.731 35.4557Z" fill="#FDC5B6"/>
  <path d="M392.485 34.0718C392.485 34.2801 392.411 34.4581 392.264 34.6059C392.116 34.7537 391.939 34.8276 391.732 34.8276C391.524 34.8276 391.347 34.7537 391.199 34.6059C391.052 34.4581 390.979 34.2801 390.979 34.0718C390.979 33.8669 391.052 33.6889 391.199 33.5411C391.347 33.3934 391.524 33.3195 391.732 33.3195C391.939 33.3195 392.116 33.3934 392.264 33.5411C392.411 33.6889 392.485 33.8669 392.485 34.0718Z" fill="white"/>
  <path d="M261.049 17.2443C260.922 17.3681 260.922 17.3681 261.049 17.2443C260.922 17.3681 260.922 17.3681 260.922 17.3681L261.049 17.2443Z" fill="#FDC5B6"/>
  <path d="M259.169 20.3815L264.931 26.7901C265.059 26.9144 265.059 26.9144 265.182 26.9144C265.31 26.9144 265.31 26.9144 265.433 26.7901C265.561 26.6625 265.561 26.4106 265.433 26.2863L259.42 19.6291C259.169 19.3772 259.169 19.001 259.42 18.7491C259.671 18.5006 260.045 18.5006 260.173 18.7491L266.437 25.0301C266.561 25.1544 266.561 25.1544 266.688 25.1544C266.812 25.1544 266.812 25.1544 266.939 25.0301C267.063 24.9058 267.063 24.6539 266.939 24.5296L260.798 18.3729C260.424 17.9968 260.424 17.4929 260.798 17.1167C261.049 16.9925 261.3 17.1167 261.551 17.2444L268.315 23.6496C268.442 23.7739 268.442 23.7739 268.566 23.7739C268.693 23.7739 268.693 23.7739 268.817 23.6496C268.944 23.522 268.944 23.2734 268.817 23.1458L262.177 16.8648C262.05 16.7406 262.177 16.4886 262.301 16.4886C262.803 16.4886 263.305 16.7406 263.68 16.9925C266.812 19.6291 269.945 22.2658 273.077 24.9058C274.58 26.162 276.21 27.9187 277.839 28.923C278.214 29.1749 278.338 29.1749 278.589 29.2992C278.589 28.6744 278.716 28.1706 278.84 27.5425C278.84 26.6625 278.84 25.6582 278.84 24.7782C278.84 23.7739 278.341 21.6377 279.218 20.8853C279.593 20.6334 279.844 20.6334 280.219 20.7611C281.096 21.1372 280.972 22.5177 281.223 23.2734C281.722 25.0301 282.351 26.9144 282.726 28.6744C282.977 29.9273 283.1 31.3111 282.977 32.5673C282.977 32.6916 282.977 32.8192 282.977 32.9435L283.351 32.6916C286.109 40.6049 288.863 48.6426 291.497 56.5559C293.375 62.0812 295.379 67.7341 297.26 73.2627C297.886 75.2712 298.763 77.1555 299.265 79.1641C300.392 83.1846 298.763 84.9412 295.004 86.5736C292.625 87.5813 290.118 87.9575 287.488 88.3336C285.982 88.5856 284.355 88.7098 283.1 87.9575C281.849 87.2017 281.223 85.697 280.721 84.3131C277.461 75.8993 275.835 66.854 274.707 57.8121C273.83 50.7788 274.081 41.4849 269.945 35.4559C266.812 30.9349 263.178 26.6625 259.794 22.3934C259.296 21.6377 258.67 20.8853 258.67 20.0053C259.169 20.3815 258.918 20.3815 259.169 20.3815Z" fill="#FDC5B6"/>
  <path d="M276.712 35.2038C276.334 33.0676 277.214 30.6828 278.841 29.5509L278.968 29.8028C277.338 30.9347 276.585 33.1952 276.963 35.0795L276.712 35.2038Z" fill="#171F3D"/>
  <path d="M364.919 66.6053C363.791 68.6139 362.663 70.6224 361.535 72.5067V72.6344C357.402 79.5401 352.764 86.1972 347.379 92.102C347.001 92.4782 346.626 92.8544 346.251 93.3582C343.243 96.623 339.859 99.5116 336.225 102.276C332.343 105.164 328.206 107.801 323.571 109.561C308.16 115.211 289.114 106.921 282.598 91.9744C281.721 89.8415 280.972 87.4534 281.095 85.193C281.095 85.0687 281.095 84.8168 281.095 84.6891C287.488 83.6848 293.501 80.5444 298.511 76.151C299.89 77.0277 301.142 77.9077 302.772 78.4115C326.201 86.953 335.348 40.729 358.403 43.2414C363.289 43.7452 367.8 47.2619 368.928 52.0348C369.932 57.0595 367.425 62.081 364.919 66.6053Z" fill="#D3AEFE"/>
  <path d="M361.412 72.6346C357.276 79.5403 352.64 86.1974 347.252 92.1022C346.878 92.4784 346.499 92.8546 346.125 93.3584C346.125 92.1022 346.125 90.846 346.125 89.4622C346.001 83.8127 339.234 49.2707 349.384 52.2869C356.526 54.4197 359.906 63.5893 361.412 72.6346Z" fill="#35324C"/>
  <path d="M387.847 38.3442C387.847 38.3442 386.221 43.4933 379.33 46.13C379.33 45.7538 379.454 45.5019 379.454 45.1257V42.6133C379.079 42.6133 378.701 42.6133 378.326 42.489C380.582 42.2371 385.468 41.2328 387.847 38.3442Z" fill="#35324C"/>
  <path d="M284.479 429.717C284.602 428.461 284.853 427.329 285.606 426.452C285.857 426.072 286.232 425.696 286.483 425.444C286.607 425.32 286.734 425.196 286.985 424.944C287.36 424.568 287.862 424.188 288.364 423.94C293.123 421.051 300.516 416.402 300.516 416.402L309.036 352.847C311.667 353.226 314.3 353.603 316.804 354.103C324.073 355.739 331.214 357.872 337.981 360.636L324.196 422.683C324.196 423.436 324.196 424.191 324.196 424.944V425.444C324.196 425.824 324.196 426.324 324.196 426.7C324.196 427.832 324.196 428.712 324.196 429.841V429.969C324.196 430.093 324.196 430.093 324.196 430.217H284.479C284.479 429.969 284.479 429.969 284.479 429.717C284.479 429.841 284.479 429.717 284.479 429.717Z" fill="#FDC5B6"/>
  <path d="M284.479 429.841C284.602 428.585 284.853 427.456 285.606 426.452C285.857 426.072 286.232 425.696 286.483 425.444H324.196C324.196 425.824 324.196 426.324 324.196 426.7C324.196 427.832 324.196 428.712 324.196 429.969C324.196 430.093 324.196 430.093 324.196 430.217H284.479C284.479 429.969 284.479 429.969 284.479 429.841Z" fill="#15203D"/>
  <path d="M436.335 430.093H398.997C398.997 429.968 398.997 429.968 398.997 429.841V429.716C399.124 428.585 399.124 427.708 399.248 426.7C399.248 426.324 399.375 425.948 399.375 425.572V425.195C399.499 424.44 399.499 423.687 399.626 422.935L393.736 365.661L393.361 361.516L393.234 360.26L392.983 357.62L392.859 356.115L391.982 347.197H424.81L424.559 353.727L422.681 416.906C422.681 417.03 429.194 421.299 433.454 424.064C433.956 424.315 434.331 424.692 434.582 425.068C434.709 425.195 434.833 425.32 434.96 425.444C435.208 425.824 435.459 426.072 435.71 426.452C436.335 427.328 436.463 428.46 436.463 429.589C436.463 429.589 436.463 429.589 436.463 429.716C436.335 429.968 436.335 429.968 436.335 430.093Z" fill="#FDC5B6"/>
  <path d="M436.336 429.841C436.336 428.584 436.213 427.58 435.587 426.576C435.336 426.2 435.085 425.948 434.834 425.572H399.376C399.376 425.948 399.249 426.324 399.249 426.7C399.125 427.708 399.125 428.584 398.998 429.841C398.998 429.968 398.998 429.968 398.998 430.092H436.336C436.336 429.968 436.336 429.968 436.336 429.841Z" fill="#15203D"/>
  <path d="M409.399 113.706C407.267 112.826 404.887 111.946 402.381 111.318C387.974 107.425 371.809 108.554 358.905 115.338C356.773 116.467 354.768 117.723 352.891 119.104C322.319 141.964 324.575 198.986 320.438 231.644C314.301 279.121 309.036 326.598 304.525 374.202C304.401 375.206 304.401 376.211 305.278 377.091C306.406 378.095 308.411 378.219 310.164 378.347C318.183 378.596 325.074 380.732 333.092 379.852C334.22 379.727 335.475 379.6 336.476 379.099L382.083 194.089L388.225 299.469C388.225 305.37 388.348 310.771 388.85 315.672C390.604 331.623 390.353 347.574 392.107 363.4C392.609 368.046 392.983 372.694 393.613 377.339C393.86 379.476 394.238 380.856 395.115 381.736L395.239 383.62L395.49 382.24C396.618 383.12 398.248 383.62 401.005 384.248C408.897 386.008 417.417 386.008 425.312 384.5C431.577 383.368 437.464 228.504 437.089 213.557C436.336 181.779 447.614 129.906 409.399 113.706Z" fill="#FF7382"/>
  <path d="M383.462 218.582L384.215 172.613L367.174 151.009L379.576 173.866L380.704 199.238L383.462 218.582Z" fill="#35324C"/>
  <path d="M365.545 113.706C371.559 116.467 388.225 117.095 391.481 117.223C391.983 117.223 392.485 117.223 392.984 117.471C393.613 117.723 393.988 118.351 394.363 118.979C395.869 121.367 401.883 130.285 404.262 131.918C406.518 133.55 406.143 129.277 409.148 128.777C409.275 127.521 406.893 117.975 405.263 111.194C403.636 110.438 401.756 109.81 399.878 109.182C390.605 106.545 378.828 106.669 369.179 106.669C366.171 106.669 362.54 109.057 363.667 111.822C363.667 112.574 364.417 113.202 365.545 113.706Z" fill="#35324C"/>
  <path d="M430.573 53.291C433.582 60.7005 425.815 68.2377 423.559 74.7672C422.431 77.7835 421.678 80.7963 421.303 83.8125C421.176 84.8168 421.052 85.8211 420.925 86.953C420.55 90.4697 420.426 94.1106 420.55 97.7516C420.55 98.1311 420.55 98.5073 420.55 98.8835C420.55 99.2597 420.55 99.6359 420.677 100.015C420.677 100.015 420.677 100.015 420.55 100.015C418.044 101.02 415.788 102.4 413.911 104.284C413.158 104.788 412.408 105.289 411.655 105.793C410.4 106.293 409.148 106.797 407.769 107.297C405.514 108.053 403.258 108.681 400.879 109.309C393.362 110.814 385.842 111.694 378.202 111.57C373.189 111.194 368.303 110.314 363.54 109.057C360.408 107.925 357.275 106.669 354.394 105.164C354.645 104.033 354.769 103.028 355.02 101.896C355.02 101.648 355.147 101.396 355.147 101.268C355.271 100.644 355.271 99.8878 355.398 99.2597C355.398 99.1354 355.398 98.8835 355.398 98.7592C355.398 98.5073 355.398 98.2554 355.398 98.0035C355.398 97.8792 355.398 97.6273 355.398 97.503C355.398 97.3754 355.398 97.1235 355.398 96.9992C355.398 96.7473 355.398 96.4988 355.398 96.2468C355.398 94.863 355.398 93.4825 355.398 92.1021C355.02 83.5606 353.644 75.0192 350.887 66.9815C353.517 63.0887 356.399 59.3201 359.407 55.5515C362.162 52.1591 364.668 48.3905 367.801 45.2534C370.809 49.5224 381.96 51.4067 386.846 51.6586C389.728 51.7829 392.485 51.4067 395.24 50.9029C397.997 50.5267 400.755 50.1505 403.385 49.5224C411.528 47.7624 419.797 43.6176 427.317 49.5224C428.318 50.2748 429.322 51.2824 429.948 52.411C430.199 52.5353 430.322 52.9148 430.573 53.291Z" fill="#E9EEFF"/>
  <path d="M376.573 77.4072C375.947 83.8125 374.943 90.2178 373.691 96.4987C372.436 102.904 370.81 109.182 369.056 115.338C367.928 119.104 367.048 123 365.924 126.768C364.418 131.917 363.541 135.686 357.527 133.802C354.143 132.67 339.86 130.157 341.115 126.013C341.363 125.385 343.12 123.752 343.618 123C344.371 121.744 344.997 120.235 345.499 118.855C346.751 115.839 347.879 112.826 348.632 109.561C351.888 97.1235 351.764 83.5606 347.755 71.3782C346.376 67.1058 344.495 62.961 343.869 58.44C342.49 48.1419 349.257 42.489 358.531 42.9895C362.413 43.2414 366.298 44.4976 369.933 46.13C372.185 47.1343 374.568 48.3905 376.071 50.5267C377.7 53.0391 377.7 56.1795 377.573 59.1924C377.573 65.3491 377.198 71.3782 376.573 77.4072Z" fill="#D3AEFE"/>
  <path d="M428.945 71.7544C431.328 67.7339 434.962 65.2215 435.461 60.0725C435.839 55.5515 433.958 50.9029 430.702 48.142C425.063 43.4934 405.264 41.7367 397.496 47.7624C397.245 47.8901 396.994 48.142 396.871 48.2663C388.226 58.0639 391.231 78.6601 392.985 90.7183C395.368 107.049 400.756 123 408.898 137.067C409.026 137.191 436.967 131.414 430.575 119.356C430.2 118.727 429.949 118.227 429.698 117.599C429.574 117.223 429.323 116.843 429.196 116.467C425.186 107.801 423.56 98.1312 424.437 88.7097C424.812 83.0568 426.063 76.6516 428.945 71.7544Z" fill="#D3AEFE"/>
  <path d="M377.823 35.0795L378.074 34.4514L377.073 33.9476L378.074 29.6785L377.448 29.5509L376.32 34.4514L377.823 35.0795Z" fill="#171F3D"/>
  <path d="M379.955 37.8405C380.079 37.8405 380.33 37.8405 380.454 37.7162C381.083 37.4643 381.581 36.9639 381.581 36.2081L380.832 36.0839C380.705 36.46 380.454 36.8362 380.206 36.9639C379.828 37.0881 379.202 36.9639 378.576 36.3358L378.074 36.8362C378.7 37.4643 379.329 37.8405 379.955 37.8405Z" fill="#171F3D"/>
  <path d="M375.193 31.3109C374.819 31.1832 374.691 30.9347 374.691 30.5552C374.819 30.179 375.07 30.0547 375.444 30.0547C375.819 30.179 375.946 30.4309 375.946 30.8071C375.819 31.1832 375.444 31.4352 375.193 31.3109Z" fill="#171F3D"/>
  <path d="M382.084 32.4395C381.709 32.3152 381.582 32.0633 381.582 31.6871C381.709 31.3109 381.96 31.1833 382.335 31.1833C382.71 31.3109 382.837 31.5628 382.837 31.939C382.71 32.3152 382.335 32.5671 382.084 32.4395Z" fill="#171F3D"/>
  <path d="M476.308 89.5897C476.934 93.2307 475.806 96.9993 474.176 100.14C472.547 103.28 470.542 106.041 468.286 108.681C462.651 115.338 456.258 120.988 449.244 125.512C446.362 127.397 426.189 139.579 427.441 127.397C427.692 125.512 428.819 124.128 430.071 122.748C436.714 115.463 442.979 107.925 448.993 100.015C451.998 95.995 454.88 91.9745 457.761 87.8297C460.268 84.1887 461.272 81.3002 465.532 80.7963C470.167 80.2959 475.053 83.6849 476.181 88.9616C476.181 89.2135 476.181 89.4621 476.308 89.5897Z" fill="#FDC5B6"/>
  <path d="M407.019 124.884C410.526 123.876 414.284 123.628 417.919 123.876C418.17 123.876 418.294 123.752 418.294 123.628C418.294 123.5 418.17 123.252 417.919 123.252C414.412 123 410.777 123.252 407.394 124.128C407.143 124.256 406.892 123.876 407.019 123.628C407.394 123.252 408.521 122.748 409.023 122.624C412.407 121.492 416.289 120.988 420.047 120.988C421.175 120.988 422.303 120.988 423.307 121.115C427.567 121.492 438.34 122.872 438.092 128.777C437.965 132.169 434.207 134.93 430.951 134.178C426.061 133.174 421.302 130.534 416.416 129.277H416.289C414.786 128.901 413.284 128.777 411.778 128.777C410.777 128.777 409.398 129.153 408.394 128.649C408.147 128.525 408.27 128.149 408.521 128.149C411.403 127.773 414.786 127.521 417.541 128.021C417.668 128.021 417.919 127.897 417.919 127.773C417.919 127.645 417.792 127.396 417.668 127.396C414.535 126.768 410.777 127.145 407.645 127.645C407.517 127.645 407.394 127.645 407.266 127.521C407.143 127.396 407.019 127.145 407.019 127.017C406.892 126.893 407.019 126.641 407.266 126.641C410.399 126.013 413.782 125.761 417.792 126.14C418.043 126.14 418.17 126.013 418.17 125.888C418.17 125.761 418.043 125.512 417.792 125.512C413.659 125.133 410.151 125.385 407.019 126.013C406.892 126.013 406.641 125.888 406.641 125.761C406.641 125.636 406.641 125.512 406.641 125.385C406.768 125.008 406.892 124.884 407.019 124.884Z" fill="#FDC5B6"/>
  <path d="M451.5 91.3459C451.249 91.0982 452.125 91.222 451.5 91.3459V91.3459Z" fill="#D3AEFE"/>
  <path d="M476.682 86.7014C475.179 78.4118 470.417 73.8909 464.778 68.238C453.627 56.9322 440.22 48.1422 425.06 45.126C421.928 44.4979 418.668 44.1217 415.412 44.6255C412.279 45.2536 409.147 46.886 407.266 49.647C404.133 54.4198 405.639 61.3289 409.274 65.7256C412.905 70.1223 418.042 72.6347 423.179 74.8952C433.202 79.5404 445.608 82.6809 453.627 90.8462C450.12 94.9909 464.025 97.1238 466.157 97.5033C468.787 97.8795 471.669 98.0038 473.8 96.3714C476.806 94.4871 477.308 90.3423 476.682 86.7014Z" fill="#D3AEFE"/>
  <path d="M82.001 138.575L84.5076 141.335C86.3884 143.472 89.6447 143.596 91.7731 141.587L94.1559 139.327L94.5308 138.951L97.7904 135.686L100.17 133.298L93.1519 127.145L91.2745 125.512L90.6487 125.008L82.7539 131.289C80.3711 133.046 80.1235 136.438 82.001 138.575Z" fill="#A0616B"/>
  <path d="M93.7773 138.071C93.9044 138.323 94.1554 138.575 94.4064 138.823L97.6627 135.558L100.042 133.174L93.0276 127.017C92.7766 127.397 92.5256 127.773 92.4018 128.273C91.6488 130.661 92.6528 136.187 93.7773 138.071Z" fill="#35324C"/>
  <path d="M81.8774 119.483C80.4986 116.091 81.8774 111.57 85.1337 109.81C87.2655 108.681 90.0198 108.554 92.1516 107.297C93.6542 106.421 94.6582 104.913 96.1608 104.16C98.4165 103.153 101.298 104.033 102.55 106.041C103.052 106.797 103.303 107.677 103.677 108.305C104.805 109.937 107.061 110.565 108.563 111.946C118.212 121.492 91.3986 130.033 85.1337 127.897C84.6317 127.773 84.133 127.521 83.882 127.145C83.2562 126.14 84.133 124.884 84.133 123.628C84.133 122.496 83.129 121.616 82.5032 120.739C82.3794 120.487 82.1284 119.984 81.8774 119.483Z" fill="#15203D"/>
  <path d="M108.563 125.761C108.563 124.632 108.439 123.628 108.312 122.496C107.686 119.104 105.18 116.215 102.047 114.959C101.672 115.463 101.421 115.839 101.046 116.343C98.7908 118.979 94.7815 120.111 93.6537 123.376C92.9007 125.512 93.9047 131.162 95.0325 132.922C98.165 137.695 104.932 136.69 107.435 132.042C108.563 130.158 108.69 128.021 108.563 125.761Z" fill="#A0616B"/>
  <path d="M96.0341 127.145C96.0341 127.373 96.014 127.605 95.9671 127.83C95.9236 128.055 95.8567 128.277 95.7697 128.488C95.6793 128.703 95.5722 128.905 95.4451 129.096C95.3146 129.291 95.1706 129.466 95.0067 129.63C94.846 129.795 94.6687 129.939 94.4745 130.067C94.2838 130.198 94.083 130.305 93.8688 130.393C93.658 130.48 93.4371 130.547 93.2129 130.594C92.9853 130.638 92.7577 130.661 92.5268 130.661C92.2959 130.661 92.0683 130.638 91.8441 130.594C91.6165 130.547 91.399 130.48 91.1848 130.393C90.9706 130.305 90.7698 130.198 90.5791 130.067C90.385 129.939 90.2109 129.795 90.0469 129.63C89.883 129.466 89.7391 129.291 89.6085 129.096C89.4814 128.905 89.3743 128.703 89.2873 128.488C89.1969 128.277 89.13 128.055 89.0865 127.83C89.043 127.605 89.0195 127.373 89.0195 127.145C89.0195 126.913 89.043 126.685 89.0865 126.456C89.13 126.231 89.1969 126.013 89.2873 125.798C89.3743 125.586 89.4814 125.381 89.6085 125.19C89.7391 124.998 89.883 124.82 90.0469 124.656C90.2109 124.495 90.385 124.347 90.5791 124.219C90.7698 124.092 90.9706 123.984 91.1848 123.893C91.399 123.806 91.6165 123.739 91.8441 123.695C92.0683 123.648 92.2959 123.628 92.5268 123.628C92.7577 123.628 92.9853 123.648 93.2129 123.695C93.4371 123.739 93.658 123.806 93.8688 123.893C94.083 123.984 94.2838 124.092 94.4745 124.219C94.6687 124.347 94.846 124.495 95.0067 124.656C95.1706 124.82 95.3146 124.998 95.4451 125.19C95.5722 125.381 95.6793 125.586 95.7697 125.798C95.8567 126.013 95.9236 126.231 95.9671 126.456C96.014 126.685 96.0341 126.913 96.0341 127.145Z" fill="#A0616B"/>
  <path d="M102.8 130.033C101.17 130.033 99.7949 127.521 99.7949 124.38C99.7949 121.24 101.047 118.727 102.8 118.727C104.43 118.727 105.809 121.24 105.809 124.38C105.809 127.521 104.43 130.033 102.8 130.033ZM102.8 119.607C101.8 119.607 100.672 121.616 100.672 124.38C100.672 127.269 101.8 129.153 102.8 129.153C103.804 129.153 104.932 127.145 104.932 124.38C105.056 121.616 103.804 119.607 102.8 119.607Z" fill="#E8F1F9"/>
  <path d="M109.817 130.033C108.187 130.033 106.809 127.521 106.809 124.38C106.809 121.24 108.064 118.727 109.817 118.727C111.444 118.727 112.822 121.24 112.822 124.38C112.699 127.521 111.444 130.033 109.817 130.033ZM109.817 119.607C108.813 119.607 107.685 121.616 107.685 124.38C107.685 127.269 108.813 129.153 109.817 129.153C110.818 129.153 111.946 127.145 111.946 124.38C111.946 121.616 110.818 119.607 109.817 119.607Z" fill="#E8F1F9"/>
  <path d="M578.922 408.617L565.516 379.6L576.794 403.968L578.922 408.617Z" fill="#423FAD"/>
  <path d="M565.517 379.6L545.096 397.687C541.334 393.29 536.699 388.017 531.813 382.364C526.803 376.587 521.415 370.433 516.027 364.277C498.233 343.805 480.817 323.961 479.314 322.829L501.365 284.27L505.251 285.902L516.027 290.299L526.05 294.444L530.434 303.989L531.813 304.994V307.006L565.517 379.6Z" fill="#423FAD"/>
  <path d="M516.027 290.175V364.153C498.233 343.681 480.817 323.833 479.314 322.705L501.365 284.146L505.251 285.778L516.027 290.175Z" fill="#36314C"/>
  <path d="M576.794 403.968L565.516 379.476L545.095 397.563C551.484 404.973 555.62 409.745 555.62 409.745L553.113 420.547L544.342 424.944V425.572H562.26L576.794 403.968Z" fill="#E9EEFF"/>
  <path d="M576.794 403.968L562.26 425.572H544.342V428.837L563.889 430.093L578.923 408.616L576.794 403.968Z" fill="#423FAD"/>
  <path d="M157.93 231.268C155.55 232.524 152.793 232.524 150.29 231.392L118.965 216.697C112.449 213.933 106.06 210.92 99.5445 208.408C91.526 205.267 65.5896 202.755 63.8359 190.949C65.2114 199.866 66.3392 208.66 66.965 218.205C67.5942 229.76 68.8459 237.925 72.1021 243.326L176.474 248.475C177.35 247.847 178.231 247.091 178.98 246.214C177.98 244.33 176.976 242.698 175.848 241.19C171.966 236.289 166.952 233.276 161.564 231.14C160.313 230.64 159.058 230.764 157.93 231.268Z" fill="#35324C"/>
  <path d="M34.1378 274.096C19.7306 189.944 40.4027 154.778 59.3246 140.079C71.8544 130.285 83.6312 129.657 83.6312 129.657C103.427 166.204 97.0378 154.902 102.677 179.646C107.436 200.242 111.823 288.667 111.823 288.667H34.014L34.1378 274.096Z" fill="#FFCC8A"/>
  <path d="M182.738 322.453L176.724 348.954L174.094 360.635L173.093 364.276L171.336 371.814L164.696 400.703L163.943 404.092H134.627L135.002 401.455V400.703L142.896 311.526L143.02 308.886L144.774 289.294L182.738 322.453Z" fill="#423FAD"/>
  <path d="M185.372 422.556C185.245 422.307 185.121 422.055 184.994 421.928L184.87 421.803C184.743 421.679 184.619 421.427 184.492 421.299L184.368 421.175C184.244 421.051 184.117 420.799 183.866 420.671C183.866 420.671 183.866 420.547 183.742 420.547C183.615 420.295 183.367 420.171 183.116 419.919L182.989 419.795C182.865 419.667 182.614 419.543 182.487 419.419C182.363 419.419 182.363 419.291 182.239 419.291C182.112 419.167 181.988 419.039 181.861 419.039C181.737 419.039 181.737 418.915 181.61 418.915C181.486 418.79 181.235 418.79 181.111 418.663C180.984 418.663 180.984 418.539 180.86 418.539C180.609 418.411 180.358 418.287 180.107 418.162L174.217 416.026L170.71 420.423L169.08 419.167L172.213 415.27L169.208 414.142L165.573 418.663L163.943 417.407L167.076 413.389L162.066 411.629L163.819 404.092H140.641L138.258 422.556H185.372Z" fill="#FF7382"/>
  <path d="M186.372 426.952C186.372 426.701 186.372 426.452 186.372 426.324C186.372 426.2 186.372 426.2 186.372 426.072C186.372 425.948 186.372 425.696 186.372 425.572C186.372 425.444 186.372 425.444 186.372 425.32C186.372 425.196 186.372 424.944 186.248 424.816V424.692C186.248 424.44 186.121 424.316 186.121 424.064C186.121 423.94 186.121 423.94 185.997 423.812C185.997 423.688 185.87 423.563 185.87 423.436C185.87 423.312 185.746 423.312 185.746 423.184C185.746 423.06 185.619 422.935 185.619 422.808C185.619 422.683 185.495 422.556 185.495 422.556H138.508L137.508 430.093H186.623V426.952H186.372Z" fill="#E7F0F8"/>
  <path d="M165.573 418.663L169.207 414.142L171.088 411.881L169.458 410.501L167.203 413.389L164.07 417.407L165.573 418.663Z" fill="#E7F0F8"/>
  <path d="M170.71 420.423L174.344 415.899L176.225 413.514L174.595 412.258L172.212 415.271L169.207 419.039L170.71 420.423Z" fill="#E7F0F8"/>
  <path d="M182.738 322.453L176.724 348.954L174.094 360.635L173.093 364.276L171.336 371.814L143.02 311.651L142.896 311.526L143.02 308.886L144.774 289.294L182.738 322.453Z" fill="#36314C"/>
  <path d="M197.901 250.107V249.98L229.851 177.134C226.217 175.501 221.956 177.258 220.327 180.902L193.513 244.078H124.225V250.107H197.901Z" fill="#36314C"/>
  <path d="M268.567 423.311L268.443 423.184C268.443 423.059 268.316 423.059 268.316 422.935C268.192 422.683 268.065 422.555 267.941 422.307L267.817 422.179C267.69 422.055 267.566 421.803 267.315 421.679L267.188 421.551C266.94 421.427 266.813 421.175 266.562 421.051C266.562 421.051 266.562 421.051 266.438 421.051C266.187 420.923 266.06 420.799 265.812 420.671C265.685 420.671 265.685 420.547 265.561 420.547C265.31 420.423 265.059 420.295 264.808 420.171L253.908 415.898L251.278 419.166L249.648 417.783L251.904 415.022L248.895 413.89L246.141 417.406L244.511 416.026L246.891 413.01L240.626 410.497L238.621 404.22H212.936L220.579 423.311H268.567Z" fill="#FF7382"/>
  <path d="M223.209 430.093H269.821L269.191 425.572C269.191 425.32 269.068 425.068 269.068 424.692C269.068 424.567 269.068 424.567 269.068 424.44C268.944 424.188 268.944 423.939 268.817 423.687V423.563C268.693 423.436 268.693 423.311 268.566 423.184H220.578L223.209 430.093Z" fill="#E7F0F8"/>
  <path d="M246.013 417.282L248.894 413.765L251.652 410.121L250.022 408.865L246.766 412.885L244.383 415.898L246.013 417.282Z" fill="#E7F0F8"/>
  <path d="M251.276 419.039L253.907 415.65L256.912 411.881L255.286 410.625L251.902 414.894L249.646 417.658L251.276 419.039Z" fill="#E7F0F8"/>
  <path d="M237.369 400.576L195.894 267.439C194.268 263.546 191.761 260.282 188.505 257.893C185.245 255.509 181.363 254.001 177.227 253.624L101.673 253.121V247.595H30.2559V274.724C30.2559 292.435 44.6631 306.626 62.2062 306.502C76.3625 306.378 93.2797 306.25 108.815 306.378C110.445 306.378 111.947 306.25 113.577 305.998C113.828 305.998 114.079 305.998 114.454 305.998H161.815C163.445 305.998 164.948 307.13 165.45 308.638L181.363 347.322L203.287 400.703L204.793 404.22H238.37L237.369 400.576Z" fill="#6575EA"/>
  <path d="M128.234 429.717L110.069 315.168L104.055 312.279L124.978 430.093L128.234 429.717Z" fill="#35324C"/>
  <path d="M24.1133 429.717L42.2822 315.168L48.2961 312.279L27.3729 430.093L24.1133 429.717Z" fill="#35324C"/>
  <path d="M114.077 370.434L41.1543 325.594L41.7801 324.841L114.703 369.806L114.077 370.434Z" fill="#35324C"/>
  <path d="M36.7717 370.057L36.1426 369.301L110.317 325.717L110.947 326.473L36.7717 370.057Z" fill="#35324C"/>
  <path d="M124.851 305.749H37.521L10.0819 201.122C9.32895 198.358 6.57467 196.726 3.81705 197.481C1.05942 198.234 -0.567048 200.998 0.182599 203.759C0.182599 203.759 28.3747 311.023 28.5018 311.275C30.2555 318.056 33.2607 316.048 40.4025 316.048H124.979C127.86 316.048 130.116 313.787 130.116 310.898C130.116 308.01 127.736 305.749 124.851 305.749Z" fill="#FFCC8A"/>
  <path d="M112.449 34.3239C112.322 18.2486 99.2937 5.18622 83.2566 5.18622C67.2162 5.18622 54.0605 18.2486 54.0605 34.4516C54.0605 50.5268 66.9652 63.5893 83.0056 63.5893H83.3804C99.1665 63.465 112.074 50.6545 112.322 34.7001H112.449V34.3239ZM83.3804 58.8164V54.1711H83.0056V58.8164C69.7228 58.6921 58.9466 48.0144 58.8228 34.7001H63.5851V34.3239H58.8228C58.8228 20.8853 69.7228 9.95909 83.1294 9.83146V15.7362H83.5042V9.83146C96.787 9.95909 107.687 20.8853 107.687 34.3239H103.176V34.7001H107.687C107.436 48.0144 96.6632 58.6921 83.3804 58.8164Z" fill="#BCCBFF"/>
  <path d="M81.75 18.3729H84.6315V32.3154H81.75V18.3729Z" fill="#BCCBFF"/>
  <path d="M83.041 37.5181L85.0791 35.476L94.9115 45.3341L92.8734 47.3762L83.041 37.5181Z" fill="#BCCBFF"/>
  <path d="M568.147 216.069C562.886 218.833 500.237 228.628 500.237 228.628C500.237 228.628 494.725 240.309 498.108 240.185C501.492 240.058 524.169 245.334 528.305 245.962C532.438 246.59 560.004 241.062 560.004 241.062L576.794 238.553L568.147 216.069Z" fill="#35324C"/>
  <path d="M577.296 136.314C591.078 139.327 643.951 159.299 623.152 288.919V304.241H546.096C546.096 304.241 550.483 210.544 555.242 188.688C560.757 163.067 554.867 173.993 572.909 138.195C573.662 136.69 575.539 135.935 577.296 136.314Z" fill="#E9EEFF"/>
  <path d="M626.786 251.364V271.711C626.786 294.067 608.366 312.279 585.565 312.531L500.989 313.411L447.362 401.331L438.34 416.026L436.088 425.696L435.084 430.217H392.983L392.608 425.948C392.608 425.824 392.608 425.824 392.608 425.696C392.484 423.687 393.736 421.927 395.617 421.175L418.042 412.133L421.302 401.331L457.513 278.493C460.769 267.566 470.166 259.525 481.568 257.893C514.519 253.12 575.415 250.608 584.685 250.359H583.309H585.94C585.94 250.359 585.565 250.359 584.685 250.359L626.786 251.364Z" fill="#1EB3FB"/>
  <path d="M544.968 250.608H467.286L438.719 172.361C442.601 170.977 446.988 172.989 448.367 176.882L472.547 243.074H544.844V250.608H544.968Z" fill="#36314C"/>
  <path d="M636.185 429.717L617.641 312.655L611.627 309.643L633.052 430.093L636.185 429.717Z" fill="#35324C"/>
  <path d="M532.188 429.717L550.233 315.168L556.37 312.279L535.32 430.093L532.188 429.717Z" fill="#35324C"/>
  <path d="M622.151 370.434L549.104 325.594L549.729 324.841L622.653 369.806L622.151 370.434Z" fill="#35324C"/>
  <path d="M544.717 370.057L544.219 369.301L618.394 325.717L619.019 326.473L544.717 370.057Z" fill="#35324C"/>
  <path d="M607.991 316.048C611 316.048 614.005 315.544 616.763 314.415C625.909 310.898 633.302 303.865 636.936 294.82C643.827 277.488 651.594 252.368 649.714 230.64C649.466 227.372 644.577 226.871 643.449 230.012C637.686 246.591 623.777 273.344 595.21 273.344C583.561 273.344 574.538 274.724 567.647 276.733C554.365 280.501 545.469 292.183 545.593 305.246L545.72 316.172L607.991 316.048Z" fill="#FFCC8A"/>
  <path d="M447.488 401.203L438.469 415.898L436.214 425.572L435.21 430.093H393.112L392.737 425.824C392.737 425.696 392.737 425.696 392.737 425.572C392.61 423.563 393.862 421.803 395.743 421.051L418.172 412.005L421.428 401.203H447.488Z" fill="#E9EEFF"/>
  <path d="M436.212 425.572L435.208 430.092H393.111L392.736 425.823C392.736 425.696 392.736 425.696 392.736 425.572H436.212Z" fill="#423FAD"/>
  <path d="M610.875 251.74C608.495 254.125 605.112 255.633 600.728 255.885C569.654 257.141 540.585 246.087 510.138 245.587C510.138 245.587 510.64 245.587 510.763 245.587C505.251 245.207 498.736 241.442 492.722 240.814C487.836 240.31 483.451 241.442 478.94 242.446C478.063 242.698 477.434 241.442 478.187 240.814C478.438 240.686 478.438 240.434 478.562 240.186C478.562 238.929 478.94 237.673 479.439 236.541V236.417L480.443 231.644C480.567 231.392 480.694 231.14 481.069 231.016C490.968 227.372 496.229 226.119 505.877 230.388C507.005 230.892 508.384 231.14 509.636 231.016L576.17 226.119C576.669 226.119 576.92 225.739 577.047 225.239C577.298 220.842 577.796 215.189 578.426 209.288C580.303 189.192 583.436 164.32 584.938 160.803C588.947 151.133 596.467 148.749 604.61 157.915C612.381 166.832 614.633 179.267 616.012 189.944C616.765 195.722 617.139 202.254 617.139 209.288C617.267 221.094 620.021 242.698 610.875 251.74Z" fill="#FDC5B6"/>
  <path d="M617.138 209.16H578.424C580.301 189.064 583.434 164.196 584.936 160.679C588.946 151.009 596.466 148.621 604.608 157.79C612.379 166.708 614.631 179.142 616.01 189.82C616.763 195.597 617.138 202.254 617.138 209.16Z" fill="#E9EEFF"/>
  <path d="M138.135 255.256H144.523V430.093H138.135V255.256Z" fill="#BCCBFF"/>
  <path d="M79.873 250.736H553.991V256.009H79.873V250.736Z" fill="#BCCBFF"/>
  <path d="M505.875 255.256H512.267V430.093H505.875V255.256Z" fill="#BCCBFF"/>
  <path d="M54.187 249.98C55.5658 251.488 57.1923 252.62 59.0731 253.372C63.0823 254.88 67.5936 254.753 71.8539 254.377C87.7638 253.248 93.4029 253.12 109.065 251.112C120.591 249.604 143.02 243.45 154.673 243.198C154.673 243.198 154.171 243.198 154.047 243.198C159.559 242.822 166.075 238.929 172.089 238.301C176.975 237.797 181.362 238.929 185.87 239.934C186.747 240.186 187.376 238.929 186.623 238.301C186.372 238.174 186.372 237.925 186.249 237.673C186.249 236.417 185.87 235.037 185.372 233.905V233.78L184.368 228.88C184.244 228.504 184.117 228.252 183.742 228.127L168.833 223.103C168.582 222.978 168.331 223.103 168.204 223.103L158.933 227.372C157.806 227.876 156.427 228.127 155.175 228L88.6406 222.978C88.142 222.978 87.891 222.599 87.7638 222.098C87.5161 217.45 87.0141 211.673 86.3883 205.392C84.5075 184.543 81.3751 158.543 79.8724 154.902C75.8632 144.852 68.3433 142.34 60.2009 151.886C52.4334 161.183 50.1777 174.118 48.7989 185.296C48.0459 191.325 47.6711 198.11 47.6711 205.392C47.7949 216.321 45.0406 240.186 54.187 249.98Z" fill="#A0616B"/>
  <path d="M87.0151 205.267C85.0105 183.791 82.0019 158.419 80.4992 154.65C78.3674 149.249 75.235 146.109 71.6039 145.481C67.9694 144.852 63.9602 146.989 60.2019 151.51C52.4344 160.803 50.1787 173.742 48.6727 185.047C47.9231 190.824 47.5449 197.482 47.5449 205.143V205.519H87.139L87.0151 205.267Z" fill="#FFCC8A"/>
  <path d="M582.055 144.604L579.549 147.365C577.544 149.501 574.164 149.625 572.159 147.617L569.777 145.232L569.402 144.852L568.398 143.976L566.018 141.588L563.512 139.203L570.402 133.298L570.781 132.922L572.658 131.289L573.287 130.786L581.43 137.191C583.809 138.951 584.187 142.468 582.055 144.604Z" fill="#FDC5B6"/>
  <path d="M568.398 143.976L566.018 141.587L563.512 139.203L570.402 133.298C570.653 136.563 569.653 141.463 568.398 143.976Z" fill="#35324C"/>
  <path d="M580.05 125.385C580.05 123.628 579.799 121.996 579.173 120.36C577.544 116.215 573.036 114.206 568.775 113.83C566.018 113.578 563.009 113.955 560.506 114.835C557.373 115.966 557.373 116.843 557.246 119.984C557.122 125.008 557.748 129.029 562.511 131.79C566.644 134.178 572.159 135.182 576.667 133.046C577.922 132.418 579.05 131.666 579.548 130.409C579.926 129.529 580.05 128.525 580.05 127.521C580.05 126.768 580.05 126.013 580.05 125.385Z" fill="#36314C"/>
  <path d="M554.867 131.414C554.867 130.285 554.991 129.153 555.118 128.021C555.868 124.632 554.616 118.479 557.872 117.095C558.25 117.599 562.26 121.24 562.635 121.616C564.89 124.38 569.027 125.512 570.154 128.901C570.904 131.162 569.903 136.815 568.648 138.699C565.516 143.596 558.501 142.592 555.868 137.819C554.867 136.062 554.74 133.674 554.867 131.414Z" fill="#FDC5B6"/>
  <path d="M574.914 131.162C574.914 131.404 574.891 131.639 574.844 131.874C574.797 132.109 574.73 132.337 574.64 132.556C574.546 132.777 574.435 132.989 574.302 133.187C574.171 133.385 574.02 133.57 573.85 133.738C573.682 133.909 573.498 134.057 573.301 134.191C573.1 134.326 572.893 134.437 572.672 134.527C572.451 134.618 572.223 134.689 571.989 134.736C571.755 134.783 571.52 134.806 571.28 134.806C571.042 134.806 570.808 134.783 570.573 134.736C570.339 134.689 570.112 134.618 569.891 134.527C569.67 134.437 569.462 134.326 569.262 134.191C569.064 134.057 568.88 133.909 568.713 133.738C568.542 133.57 568.391 133.385 568.261 133.187C568.127 132.989 568.017 132.777 567.923 132.556C567.833 132.337 567.762 132.109 567.719 131.874C567.672 131.639 567.648 131.404 567.648 131.162C567.648 130.923 567.672 130.688 567.719 130.453C567.762 130.218 567.833 129.99 567.923 129.768C568.017 129.55 568.127 129.338 568.261 129.14C568.391 128.942 568.542 128.757 568.713 128.589C568.88 128.418 569.064 128.266 569.262 128.135C569.462 128.001 569.67 127.89 569.891 127.796C570.112 127.706 570.339 127.638 570.573 127.591C570.808 127.544 571.042 127.521 571.28 127.521C571.52 127.521 571.755 127.544 571.989 127.591C572.223 127.638 572.451 127.706 572.672 127.796C572.893 127.89 573.1 128.001 573.301 128.135C573.498 128.266 573.682 128.418 573.85 128.589C574.02 128.757 574.171 128.942 574.302 129.14C574.435 129.338 574.546 129.55 574.64 129.768C574.73 129.99 574.797 130.218 574.844 130.453C574.891 130.688 574.914 130.923 574.914 131.162Z" fill="#FDC5B6"/>
  <path d="M573.787 120.111C573.285 122.624 544.219 130.913 545.471 117.223C545.595 115.715 546.85 114.835 547.727 115.463C549.731 116.971 552.864 116.467 555.37 115.086C558.754 113.326 562.01 110.314 565.517 109.81C571.033 108.805 574.915 114.583 573.787 120.111Z" fill="#36314C"/>
  <path d="M567.899 132.418C566.771 132.418 565.895 131.541 565.895 130.409V125.133C565.895 124.004 566.771 123.124 567.899 123.124C569.027 123.124 569.904 124.004 569.904 125.133V130.409C569.904 131.541 569.027 132.418 567.899 132.418Z" fill="#36314C"/>
  <path d="M562.511 129.906C562.132 129.906 561.885 129.657 561.885 129.278C561.885 128.901 562.132 128.649 562.511 128.649C562.885 128.649 563.136 128.901 563.136 129.278C563.136 129.657 562.885 129.906 562.511 129.906Z" fill="#150077"/>
  <path d="M559.877 136.563C559.754 136.563 559.754 136.563 559.63 136.563C558.626 136.438 558.124 135.686 558 135.558L558.502 135.182C558.502 135.182 558.877 135.81 559.63 135.81C560.256 135.81 560.881 135.558 561.507 134.93L562.009 135.434C561.256 136.186 560.507 136.563 559.877 136.563Z" fill="#35324C"/>
  <path d="M561.004 134.05H558.25V128.021H558.876V133.298H561.004V134.05Z" fill="#15203D"/>
  <path d="M555.493 129.405C555.118 129.405 554.867 129.153 554.867 128.777C554.867 128.401 555.118 128.149 555.493 128.149C555.868 128.149 556.119 128.401 556.119 128.777C556.119 129.153 555.868 129.405 555.493 129.405Z" fill="#150077"/>
</svg>
