<svg width="30" height="30" viewBox="0 0 30 30" fill="none" xmlns="http://www.w3.org/2000/svg">
<g clip-path="url(#clip0)">
<path d="M1.87659 2.04113C-0.480908 4.48988 0.00159185 7.09113 0.00159185 14.9936C0.00159185 21.5561 -1.14341 28.1349 4.84909 29.6836C6.72034 30.1649 23.3003 30.1649 25.1691 29.6811C27.6641 29.0374 29.6941 27.0136 29.9716 23.4849C30.0103 22.9924 30.0103 7.00363 29.9703 6.50113C29.6753 2.74238 27.3616 0.576125 24.3128 0.137375C23.6141 0.0361249 23.4741 0.00612489 19.8891 -0.000125106C7.17284 0.00612489 4.38534 -0.560125 1.87659 2.04113Z" fill="url(#paint0_linear)"/>
<path d="M14.9992 3.92353C10.4605 3.92353 6.15047 3.51978 4.50422 7.74478C3.82422 9.48978 3.92297 11.756 3.92297 15.001C3.92297 17.8485 3.83172 20.5248 4.50422 22.256C6.14672 26.4835 10.4917 26.0785 14.9967 26.0785C19.343 26.0785 23.8242 26.531 25.4905 22.256C26.1717 20.4935 26.0717 18.261 26.0717 15.001C26.0717 10.6735 26.3105 7.87978 24.2117 5.78228C22.0867 3.65728 19.213 3.92353 14.9942 3.92353H14.9992ZM14.0067 5.91978C23.4742 5.90478 24.6792 4.85228 24.0142 19.4735C23.778 24.6448 19.8405 24.0773 15.0005 24.0773C6.17547 24.0773 5.92172 23.8248 5.92172 14.996C5.92172 6.06478 6.62172 5.92478 14.0067 5.91728V5.91978ZM20.9117 7.75853C20.178 7.75853 19.583 8.35353 19.583 9.08728C19.583 9.82103 20.178 10.416 20.9117 10.416C21.6455 10.416 22.2405 9.82103 22.2405 9.08728C22.2405 8.35353 21.6455 7.75853 20.9117 7.75853ZM14.9992 9.31228C11.858 9.31228 9.31172 11.8598 9.31172 15.001C9.31172 18.1423 11.858 20.6885 14.9992 20.6885C18.1405 20.6885 20.6855 18.1423 20.6855 15.001C20.6855 11.8598 18.1405 9.31228 14.9992 9.31228ZM14.9992 11.3085C19.8805 11.3085 19.8867 18.6935 14.9992 18.6935C10.1192 18.6935 10.1117 11.3085 14.9992 11.3085Z" fill="white"/>
</g>
<defs>
<linearGradient id="paint0_linear" x1="1.93412" y1="28.0837" x2="29.8159" y2="3.95235" gradientUnits="userSpaceOnUse">
<stop stop-color="#FFDD55"/>
<stop offset="0.5" stop-color="#FF543E"/>
<stop offset="1" stop-color="#C837AB"/>
</linearGradient>
<clipPath id="clip0">
<rect width="30" height="30" fill="white" transform="translate(0 0.000244141)"/>
</clipPath>
</defs>
</svg>
