<?xml version="1.0" encoding="UTF-8" standalone="no"?>
<!DOCTYPE svg PUBLIC "-//W3C//DTD SVG 1.1//EN" "http://www.w3.org/Graphics/SVG/1.1/DTD/svg11.dtd">
<svg width="100%" height="100%" viewBox="0 0 60 60" version="1.1" xmlns="http://www.w3.org/2000/svg" xmlns:xlink="http://www.w3.org/1999/xlink" xml:space="preserve" xmlns:serif="http://www.serif.com/" style="fill-rule:evenodd;clip-rule:evenodd;stroke-linejoin:round;stroke-miterlimit:2;">
    <g id="Artboard1" transform="matrix(0.908648,0,0,0.925545,1.75117,0.148645)">
        <rect x="-1.927" y="-0.161" width="65.927" height="64.711" style="fill:none;"/>
        <clipPath id="_clip1">
            <rect x="-1.927" y="-0.161" width="65.927" height="64.711"/>
        </clipPath>
        <g clip-path="url(#_clip1)">
            <g id="Layer_9" transform="matrix(1.10054,0,0,1.08044,-4.0565,-2.37707)">
                <path d="M2,6L2,58C2,60.2 3.8,62 6,62L58,62C60.2,62 62,60.2 62,58L62,6C62,3.8 60.2,2 58,2L6,2C3.8,2 2,3.8 2,6ZM19.1,52L12,52L12,24.4L19.1,24.4L19.1,52ZM15.6,18.9C13.6,18.9 12,17.4 12,15.5C12,13.6 13.6,12.1 15.6,12.1C17.6,12.1 19.2,13.6 19.2,15.5C19.1,17.4 17.5,18.9 15.6,18.9ZM52.1,52L44.9,52L44.9,38.2C44.9,35.3 44.8,33.4 44.5,32.5C44.2,31.6 43.7,31 43.1,30.5C42.4,30 41.6,29.8 40.7,29.8C39.5,29.8 38.4,30.1 37.5,30.8C36.5,31.5 35.9,32.4 35.5,33.5C35.1,34.6 35,36.7 35,39.7L35,52L26.4,52L26.4,24.4L33.5,24.4L33.5,28.5C35.9,25.4 39,23.8 42.7,23.8C44.3,23.8 45.8,24.1 47.2,24.7C48.5,25.3 49.6,26 50.3,26.9C51,27.8 51.5,28.8 51.7,30C52,31.1 52.1,32.8 52.1,34.9L52.1,52Z" style="fill:rgb(0,119,181);fill-rule:nonzero;"/>
            </g>
        </g>
    </g>
</svg>
