<svg width="60" height="60" viewBox="0 0 60 60" fill="none"
  xmlns="http://www.w3.org/2000/svg">
  <path d="M42.5537 37.7072C49.4393 28.4612 48.7147 15.2979 40.3266 6.90985C31.1135 -2.30328 16.123 -2.30328 6.90985 6.90985C-2.30328 16.123 -2.30328 31.1135 6.90985 40.3266C15.2979 48.7147 28.4612 49.4393 37.7072 42.5537L54.1495 58.996C55.4881 60.3347 57.6574 60.3347 58.996 58.996C60.3347 57.6571 60.3347 55.4881 58.996 54.1495L42.5537 37.7072ZM37.0958 37.0958C29.6646 44.5271 17.5722 44.5271 10.141 37.0958C2.7094 29.6646 2.7094 17.5722 10.141 10.141C17.5722 2.7094 29.6646 2.7094 37.0958 10.141C44.5271 17.5722 44.5271 29.6646 37.0958 37.0958Z" fill="currentColor"/>
  <path d="M23.429 7.98108C14.6988 7.98108 7.5957 15.0842 7.5957 23.8147C7.5957 24.5511 8.19269 25.148 8.92902 25.148C9.66535 25.148 10.2623 24.5511 10.2623 23.8147C10.2623 16.5542 16.1692 10.6481 23.429 10.6481C24.1653 10.6481 24.7623 10.0511 24.7623 9.31477C24.7623 8.57807 24.1653 7.98108 23.429 7.98108Z" fill="currentColor"/>
</svg>
