<svg width="75" height="54" viewBox="0 0 75 54" fill="none"
  xmlns="http://www.w3.org/2000/svg">
  <path d="M11.25 23.25C15.3867 23.25 18.75 19.8867 18.75 15.75C18.75 11.6133 15.3867 8.25 11.25 8.25C7.11328 8.25 3.75 11.6133 3.75 15.75C3.75 19.8867 7.11328 23.25 11.25 23.25ZM63.75 23.25C67.8867 23.25 71.25 19.8867 71.25 15.75C71.25 11.6133 67.8867 8.25 63.75 8.25C59.6133 8.25 56.25 11.6133 56.25 15.75C56.25 19.8867 59.6133 23.25 63.75 23.25ZM67.5 27H60C57.9375 27 56.0742 27.832 54.7148 29.1797C59.4375 31.7695 62.7891 36.4453 63.5156 42H71.25C73.3242 42 75 40.3242 75 38.25V34.5C75 30.3633 71.6367 27 67.5 27ZM37.5 27C44.7539 27 50.625 21.1289 50.625 13.875C50.625 6.62109 44.7539 0.75 37.5 0.75C30.2461 0.75 24.375 6.62109 24.375 13.875C24.375 21.1289 30.2461 27 37.5 27ZM46.5 30.75H45.5273C43.0898 31.9219 40.3828 32.625 37.5 32.625C34.6172 32.625 31.9219 31.9219 29.4727 30.75H28.5C21.0469 30.75 15 36.7969 15 44.25V47.625C15 50.7305 17.5195 53.25 20.625 53.25H54.375C57.4805 53.25 60 50.7305 60 47.625V44.25C60 36.7969 53.9531 30.75 46.5 30.75ZM20.2852 29.1797C18.9258 27.832 17.0625 27 15 27H7.5C3.36328 27 0 30.3633 0 34.5V38.25C0 40.3242 1.67578 42 3.75 42H11.4727C12.2109 36.4453 15.5625 31.7695 20.2852 29.1797Z" fill="currentColor"/>
</svg>
