<svg width="61" height="77" viewBox="0 0 61 77" fill="none" xmlns="http://www.w3.org/2000/svg">
<path d="M5.04563 39.8603C3.85047 36.8285 3.2696 33.8155 3.31905 30.9049C3.32462 30.563 3.05091 30.2802 2.70824 30.2739C2.33493 30.2725 2.0828 30.5414 2.07723 30.8854C2.02569 33.9597 2.6365 37.1322 3.89226 40.32C5.72679 44.8896 7.19148 47.8218 8.26128 49.9655C11.2889 56.0277 11.7548 56.9589 11.1969 75.4031C11.1865 75.745 11.4553 76.032 11.7987 76.0431C11.8043 76.0431 11.8119 76.0431 11.8175 76.0431C12.1518 76.0431 12.4276 75.7771 12.4381 75.44C13.005 56.6831 12.5203 55.715 9.37147 49.409C8.25292 47.1678 6.85996 44.3784 5.04563 39.8603Z" fill="currentColor"/>
<path d="M59.8781 41.7302C59.2012 40.4786 58.4357 39.227 57.6947 38.0159C56.5608 36.1604 55.3893 34.2465 54.534 32.3172C55.3266 29.4582 55.0292 25.9619 53.6363 21.8819C49.0165 10.8928 39.869 5.05488 28.5365 5.87464C28.1952 5.89902 27.9375 6.19711 27.9626 6.53908C27.9877 6.88106 28.2886 7.13806 28.6264 7.11368C39.3835 6.34268 48.0923 11.8964 52.4766 22.3234C53.8062 26.2196 54.0772 29.5369 53.2811 32.1814C53.2386 32.3214 53.2483 32.4719 53.3055 32.6077C54.2025 34.6853 55.4395 36.7072 56.636 38.6636C57.3673 39.8601 58.1244 41.0985 58.7888 42.3257C59.4024 43.4421 59.408 43.9436 59.3056 44.1693C59.0786 44.6659 57.8514 44.9277 56.4306 45.2321C55.7369 45.3804 54.9512 45.5476 54.1078 45.774C53.8181 45.8527 53.6244 46.1271 53.6502 46.4266C53.8097 48.3461 53.9741 50.0998 54.1405 51.8521C54.307 53.6149 54.4721 55.3777 54.6336 57.3105C54.7562 58.7619 54.518 59.7802 53.9065 60.4223C52.6703 61.7178 49.7868 61.6119 46.4521 61.488L46.3003 61.4817C43.9099 61.4051 42.2272 61.9045 41.1505 63.0098C39.3097 64.9021 39.504 68.1881 39.7506 72.3496C39.8084 73.3337 39.8704 74.3687 39.9073 75.4427C39.9191 75.7791 40.1935 76.043 40.5278 76.043C40.5348 76.043 40.5418 76.043 40.5487 76.0423C40.8914 76.0312 41.1595 75.7428 41.1477 75.4009C41.1108 74.3151 41.0488 73.2703 40.9896 72.2758C40.7611 68.4207 40.5808 65.3764 42.0399 63.8769C42.8596 63.0355 44.2436 62.6664 46.2571 62.7235L46.4068 62.7298C50.0431 62.8635 53.1836 62.9805 54.8043 61.2797C55.6756 60.3652 56.0245 59.0329 55.8699 57.2067C55.7097 55.2705 55.5426 53.5035 55.3761 51.7358C55.2264 50.1472 55.0766 48.5585 54.9303 46.8451C55.5586 46.6891 56.1527 46.5617 56.6897 46.4461C58.5813 46.0421 59.9485 45.7503 60.4346 44.6861C60.7696 43.952 60.5976 43.0396 59.8781 41.7302Z" fill="currentColor"/>
<path d="M44.5671 28.3377C47.929 24.3274 46.3 18.7465 43.1957 14.9959C41.0791 12.4085 37.4672 10.5976 33.2862 10.0286C32.9429 9.97707 32.6329 10.2208 32.5876 10.56C32.541 10.9006 32.7792 11.2133 33.1184 11.2593C36.9929 11.7858 40.3158 13.4358 42.2381 15.7857C45.0156 19.1414 46.52 24.078 43.6164 27.5389C42.0277 29.4326 39.6911 30.0518 36.9838 30.7698C34.6931 31.3765 32.0966 32.0639 29.6158 33.6811C27.8223 34.8679 26.7686 36.3326 25.5497 38.0286C24.8769 38.9632 24.1818 39.9306 23.2673 41.0011C20.2488 44.5281 17.192 45.8716 14.4227 44.8812C10.6833 43.5468 7.75952 38.0077 7.62022 31.9991C7.61256 31.6606 7.33606 31.3918 6.99966 31.3918C6.99548 31.3918 6.9906 31.3918 6.98503 31.3918C6.64236 31.4001 6.37074 31.6843 6.37909 32.027C6.50655 37.5515 9.22352 44.3443 14.0063 46.0513C14.6519 46.2826 15.4034 46.4428 16.2461 46.4428C18.3976 46.4428 21.1403 45.3966 24.2111 41.8091C25.159 40.6982 25.9021 39.666 26.5568 38.7536C27.7527 37.0918 28.6964 35.7782 30.2969 34.7203C32.6072 33.2145 34.9933 32.5821 37.3007 31.9706C40.0915 31.2309 42.727 30.5323 44.5671 28.3377Z" fill="currentColor"/>
<path d="M11.5424 18.5124L19.85 9.21926C20.0791 8.96295 20.0575 8.57083 19.8019 8.34169C19.547 8.11325 19.1542 8.13414 18.9258 8.39045L10.6174 17.6836C10.3883 17.9392 10.4106 18.3313 10.6655 18.5604C10.7839 18.667 10.9329 18.7192 11.0799 18.7192C11.2498 18.7192 11.4191 18.6496 11.5424 18.5124Z" fill="currentColor"/>
<path d="M4.21382 20.599L7.57155 18.6559C8.35788 20.0112 9.13097 21.354 9.90128 22.7163L12.325 26.9635L12.0395 27.1279C12.0172 27.1376 11.9935 27.1404 11.9719 27.1529L8.94849 28.9171C7.86129 29.5502 6.5923 29.7202 5.36789 29.3914C4.13581 29.0606 3.10851 28.268 2.47471 27.1585C1.16602 24.8636 1.94678 21.9203 4.21382 20.599ZM11.9092 13.6893L12.8119 12.554C14.5106 10.4186 16.6759 7.69395 19.5482 4.11543C21.412 7.37914 23.2765 10.6456 25.1424 13.9337C25.9294 15.3114 26.722 16.6897 27.5132 18.0673L30.7483 23.7402L28.2891 24.1288C24.2028 24.7744 21.1306 25.2592 18.7257 25.6339L17.5431 25.8233C15.9551 26.0776 14.6165 26.2921 13.4714 26.4662C13.1002 25.8164 12.7283 25.1645 12.3571 24.5112C11.9141 23.7346 11.4704 22.9566 11.031 22.1898C10.9773 22.0958 10.9223 22.0031 10.8701 21.9084L8.56822 17.8751C9.47573 16.7447 10.572 15.381 11.9092 13.6893ZM20.0079 1.87903C20.0678 1.65964 20.2085 1.47925 20.4035 1.3713C20.4077 1.36851 20.4126 1.36573 20.4167 1.36294C20.5505 1.28354 20.6988 1.24384 20.8479 1.24384C20.9217 1.24384 20.9962 1.2529 21.0686 1.27379C21.2846 1.33299 21.4636 1.47577 21.5778 1.68332L33.8463 23.1565C33.9661 23.3627 33.9981 23.603 33.9354 23.8307C33.8748 24.0501 33.7341 24.2312 33.5259 24.3468C33.3295 24.4631 33.1017 24.4965 32.8789 24.4387C32.6511 24.3795 32.4596 24.2312 32.3412 24.0278L32.3126 23.9784C32.3029 23.9533 32.305 23.9254 32.291 23.9024C31.2832 22.1376 30.2692 20.3734 29.2544 18.6085C29.0803 18.3055 28.9068 18.0026 28.7327 17.6989L20.0971 2.55392C19.9773 2.34776 19.9452 2.10748 20.0079 1.87903ZM27.1225 8.80971C28.4952 8.80971 29.8074 9.54729 30.5018 10.7814C31.2185 12.0219 31.1927 13.5548 30.4948 14.7577L27.0995 8.80971C27.1078 8.80971 27.1155 8.80971 27.1225 8.80971ZM19.8979 36.9956L17.3871 38.5056L10.2008 29.6275L12.1711 28.4881L19.8979 36.9956ZM5.04681 30.5915C5.56151 30.73 6.08317 30.799 6.60135 30.799C7.46081 30.799 8.30495 30.5998 9.09197 30.2307L16.4371 39.303C16.6739 39.5754 17.0165 39.7209 17.3592 39.7209C17.566 39.7209 17.7729 39.6673 17.9554 39.5572L20.7016 37.9595C20.9886 37.8133 21.1877 37.5535 21.2476 37.2449C21.3075 36.9357 21.2219 36.6188 21.0032 36.366L13.2702 27.8522L13.4805 27.731C13.4861 27.7275 13.4888 27.7213 13.4944 27.7185C14.6798 27.5402 16.0665 27.318 17.7381 27.0505L18.9186 26.8611C21.3229 26.4864 24.3964 26.0009 28.4827 25.3553L31.4385 24.8887C31.7241 25.255 32.1106 25.5218 32.5648 25.6409C32.7417 25.6868 32.9214 25.7098 33.0983 25.7098C33.466 25.7098 33.8261 25.6123 34.1444 25.4243C34.6312 25.1533 34.9822 24.7034 35.1313 24.1608C35.2831 23.6092 35.2086 23.0305 34.9209 22.536L31.1613 15.9542C32.445 14.3091 32.6372 11.9961 31.5799 10.1651C30.5464 8.32914 28.4715 7.34292 26.4079 7.63614L22.6608 1.07808C22.3906 0.580792 21.942 0.225587 21.3988 0.0758436C20.8534 -0.0752928 20.2823 0.00132023 19.792 0.288967C19.3072 0.562684 18.9597 1.00913 18.8114 1.55029C18.6839 2.01345 18.7264 2.49263 18.9089 2.92793C15.8743 6.70704 13.6031 9.5647 11.841 11.7809L10.9369 12.9169C9.59692 14.6114 8.49996 15.9772 7.59175 17.1069L7.43922 17.2963L3.59047 19.5244C0.735597 21.189 -0.24853 24.8901 1.39656 27.7742C2.19542 29.1734 3.49227 30.1743 5.04681 30.5915Z" fill="currentColor"/>
</svg>
