<svg width="60" height="74" viewBox="0 0 60 74" fill="none" xmlns="http://www.w3.org/2000/svg">
<path d="M0.729532 37.4095C1.42699 36.1146 2.2061 34.8233 2.95915 33.5717C4.12825 31.632 5.33556 29.6278 6.2328 27.6192C5.40418 24.5666 5.70992 20.9204 7.15348 16.7407C14.1959 -0.340237 30.3617 -2.69684 42.3975 2.33788C54.7694 7.51392 64.1465 20.7181 58.1316 35.9406C56.259 40.698 54.8241 43.6331 53.6715 45.9924C50.5716 52.3344 50.0948 53.3086 50.6671 72.5518C50.6776 72.9087 50.4014 73.2072 50.0496 73.2196C49.6709 73.2364 49.4042 72.9484 49.3938 72.5907C48.8136 53.0224 49.3087 52.0084 52.532 45.4156C53.675 43.0776 55.0977 40.168 56.9504 35.4575C62.6569 21.0184 53.7045 8.46963 41.9146 3.5365C30.0577 -1.42491 15.0714 0.888411 8.33995 17.2071C6.965 21.1933 6.68793 24.6505 7.51828 27.4814C7.56171 27.6307 7.55216 27.7888 7.49049 27.9301C6.55069 30.0889 5.2765 32.2043 4.044 34.2491C3.29876 35.4866 2.52834 36.7656 1.84825 38.0287C1.22288 39.2079 1.22114 39.7379 1.32971 39.9746C1.56857 40.4993 2.84103 40.7704 4.31152 41.0831C5.01593 41.2315 5.81154 41.4011 6.66534 41.6281C6.965 41.7076 7.16477 41.9947 7.13872 42.3091C6.94416 44.7028 6.74004 46.858 6.53158 49.053C6.39088 50.5413 6.24843 52.0491 6.10599 53.6558C5.98699 55.1697 6.23627 56.2314 6.86772 56.9027C8.14192 58.255 11.0994 58.1437 14.5198 58.0148L14.6753 58.0095C17.1255 57.9326 18.8497 58.4493 19.9536 59.6011C21.8428 61.5762 21.643 65.0104 21.3902 69.3588C21.3303 70.3887 21.2669 71.4707 21.2295 72.5934C21.2174 72.944 20.9351 73.2196 20.5929 73.2196C20.5868 73.2196 20.5781 73.2196 20.5712 73.2178C20.2203 73.2064 19.9449 72.906 19.9562 72.5492C19.9953 71.4142 20.0587 70.3216 20.1204 69.2819C20.3532 65.2524 20.5382 62.0708 19.0416 60.5056C18.2017 59.6276 16.779 59.2478 14.7196 59.3035L14.5667 59.3097C10.838 59.4519 7.6173 59.572 5.94877 57.7992C5.05154 56.8453 4.68848 55.4559 4.83787 53.5454C4.98032 51.9298 5.12276 50.4203 5.26434 48.9302C5.45629 46.9084 5.64391 44.921 5.82544 42.749C5.19312 42.5926 4.59815 42.4672 4.05268 42.3497C2.09666 41.9355 0.684367 41.6343 0.175384 40.5213C-0.175519 39.7546 -0.00441005 38.7963 0.729532 37.4095Z" fill="currentColor"/>
<path d="M24.1973 25.9816C26.5459 26.6193 29.2081 27.3419 31.7522 29.0413C33.6074 30.2717 34.7044 31.8104 35.9734 33.5938C36.6587 34.5557 37.3675 35.5511 38.2908 36.6517C41.4367 40.3924 44.6157 41.7791 47.4881 40.6556C51.4861 39.0931 54.4931 32.7917 54.3333 26.312C54.0397 15.0934 44.7608 6.33561 32.2698 5.48501C26.8126 5.12021 21.5256 7.02811 18.8165 10.3546C15.9859 13.8621 14.458 19.0134 17.426 22.6128C19.0511 24.5843 21.4361 25.2317 24.1973 25.9816ZM16.4514 23.4457C13.0145 19.2766 14.6691 13.454 17.8351 9.52957C20.7977 5.8922 26.4956 3.78822 32.355 4.19276C45.5155 5.08841 55.2939 14.3761 55.6066 26.2784C55.7569 32.4093 52.9323 39.9163 47.9441 41.8648C47.2405 42.1395 46.4162 42.3339 45.4869 42.3339C43.2712 42.3339 40.4665 41.2297 37.3232 37.4935C36.366 36.3531 35.6095 35.2914 34.9424 34.3543C33.6986 32.6062 32.7163 31.2257 31.0564 30.1269C28.6818 28.5405 26.235 27.8763 23.869 27.2332C21.0227 26.4595 18.3345 25.7299 16.4514 23.4457Z" fill="currentColor"/>
<path d="M29.427 16.2493C29.4274 16.2498 29.4279 16.2498 29.4284 16.2498C29.4345 16.2538 29.4409 16.2583 29.447 16.2625C29.4723 16.2781 29.4977 16.2945 29.5226 16.3106C29.5314 16.317 29.5399 16.3227 29.5487 16.3287C29.5728 16.3451 29.5962 16.3612 29.6199 16.3778C29.6301 16.385 29.6399 16.3922 29.6502 16.3996C29.6719 16.4153 29.6936 16.4312 29.715 16.447C29.727 16.4565 29.7389 16.4654 29.7509 16.4748C29.7702 16.4892 29.7892 16.5041 29.808 16.519C29.8226 16.5309 29.8368 16.5425 29.8509 16.5542C29.867 16.5673 29.8829 16.58 29.8985 16.5936C29.9163 16.6088 29.9341 16.6241 29.9519 16.64C29.9634 16.6499 29.9753 16.6604 29.987 16.6708C30.0092 16.6909 30.0314 16.7112 30.0536 16.7321C30.06 16.7383 30.0665 16.7442 30.0731 16.7504C30.1017 16.778 30.13 16.8055 30.1575 16.8335L31.0518 17.7412C31.0518 17.7417 31.0523 17.7417 31.0523 17.7417L32.4661 19.1765C32.4737 19.1842 32.482 19.1919 32.491 19.1986C32.4971 19.204 32.5044 19.2085 32.5115 19.2132C32.5137 19.215 32.5154 19.2167 32.5176 19.2182C32.6496 19.3015 32.8684 19.3015 33.1313 19.215C33.467 19.1043 33.8256 18.8729 34.1505 18.5591C34.1722 18.5382 34.1942 18.5166 34.2159 18.4951C34.5571 18.148 34.8091 17.7573 34.9252 17.3941C35.023 17.0883 35.0091 16.8422 34.8874 16.7184L33.4736 15.2838V15.2836L32.5496 14.3457C32.1202 13.9098 31.7931 13.3556 31.5772 12.6987C31.4533 12.3224 31.2469 11.9908 30.9642 11.7137C30.5034 11.2622 29.8904 11.0355 29.2782 11.0355C28.6893 11.0355 28.1002 11.2448 27.6465 11.6655C27.1515 12.1247 26.871 12.7511 26.8559 13.4293C26.8408 14.108 27.0927 14.746 27.5652 15.2258C27.8355 15.4997 28.1553 15.6999 28.5168 15.8204C28.8386 15.9273 29.1442 16.0724 29.427 16.2493ZM35.3577 17.5368C35.2199 17.9682 34.9286 18.4236 34.5376 18.821C34.5118 18.8468 34.4861 18.8726 34.4598 18.8979C34.45 18.9069 34.4408 18.9158 34.431 18.925C34.4144 18.9401 34.3981 18.956 34.3813 18.9714C34.3695 18.9818 34.3586 18.9917 34.3469 19.0021C34.3317 19.0155 34.3169 19.0292 34.3012 19.0425C34.2895 19.052 34.2781 19.0619 34.2666 19.0716C34.251 19.085 34.2349 19.0981 34.2195 19.1113C34.2088 19.1197 34.1981 19.1279 34.1878 19.1366C34.17 19.151 34.152 19.1648 34.1342 19.1787C34.1261 19.1847 34.1181 19.1911 34.1105 19.1968C34.0888 19.2132 34.0671 19.2293 34.0451 19.2452C34.0412 19.2479 34.0373 19.2509 34.0332 19.2537C33.7822 19.4342 33.5226 19.5714 33.2718 19.6538C33.0928 19.7131 32.9242 19.7423 32.7706 19.7423C32.59 19.7423 32.43 19.7007 32.2964 19.621C32.2954 19.6205 32.2946 19.62 32.2942 19.6196C32.2795 19.6111 32.2656 19.6019 32.252 19.5925C32.2429 19.5863 32.2341 19.5799 32.2251 19.5732C32.2163 19.566 32.2071 19.559 32.1985 19.5518C32.1797 19.5367 32.1617 19.5203 32.1449 19.5032L30.9567 18.2974C30.5229 19.2827 30.5288 20.1556 30.9862 20.6203C31.7577 21.4034 33.6287 20.8276 35.0718 19.3633C36.5145 17.899 37.0811 15.9998 36.3096 15.2166C36.0764 14.9797 35.7385 14.8621 35.3346 14.8621C34.946 14.8621 34.4966 14.971 34.0212 15.1866L35.2092 16.3922C35.4599 16.6467 35.5124 17.0528 35.3577 17.5368ZM28.4532 23.191C29.1955 23.9443 30.4288 24.1239 31.9256 23.6978C32.3154 23.5861 32.7106 23.4373 33.106 23.2542C33.1145 23.2488 33.1235 23.2433 33.1333 23.2393C33.4443 23.0932 33.7551 22.9263 34.0629 22.7407C34.1537 22.6859 34.2439 22.6293 34.3342 22.5718C34.3527 22.5594 34.371 22.5477 34.3896 22.5356C34.4266 22.5118 34.4635 22.4872 34.5003 22.4629C34.5301 22.4425 34.5603 22.4227 34.5901 22.4021C34.6057 22.3917 34.6208 22.3808 34.6364 22.3704C34.6381 22.3696 34.6389 22.3679 34.6408 22.3669C34.7777 22.2726 34.9211 22.1689 35.0692 22.0571C35.0723 22.0548 35.0757 22.0528 35.0794 22.0506C35.0853 22.0466 35.0909 22.0422 35.0962 22.038C35.1092 22.028 35.1216 22.0181 35.1345 22.0082C35.1404 22.0027 35.1465 21.9975 35.1528 21.9926C35.298 21.8809 35.4297 21.776 35.5558 21.6703C35.5568 21.6698 35.5578 21.6696 35.558 21.6686C35.5768 21.6532 35.5953 21.6373 35.6141 21.6217C35.6575 21.585 35.7012 21.5473 35.7466 21.5076C35.8244 21.4399 35.9061 21.3667 35.9946 21.2856C35.9963 21.2841 35.9985 21.2833 36.0002 21.2816C36.0266 21.2575 36.0527 21.2337 36.079 21.2094C36.0812 21.2067 36.0834 21.204 36.0861 21.2007C36.1808 21.1127 36.2647 21.0325 36.343 20.9566C36.3932 20.907 36.444 20.8574 36.4937 20.807C36.543 20.7569 36.5913 20.7058 36.6398 20.6552C36.7145 20.5763 36.794 20.4908 36.8821 20.3933C36.8848 20.39 36.8884 20.3878 36.8913 20.3846C36.9145 20.359 36.9377 20.3327 36.9609 20.3067C36.9626 20.3045 36.9638 20.3022 36.9657 20.3002C37.0955 20.1536 37.2087 20.0212 37.3124 19.8947C37.3221 19.8825 37.3324 19.8703 37.3426 19.8582C37.3429 19.857 37.3438 19.8555 37.3448 19.8547C37.4492 19.726 37.5551 19.5898 37.6673 19.4387C37.67 19.435 37.6732 19.4323 37.6758 19.4293C37.6849 19.4174 37.6941 19.4057 37.7024 19.3936C37.7078 19.3869 37.7132 19.3797 37.718 19.3725C37.7207 19.3688 37.7224 19.3648 37.7256 19.3606C37.8337 19.2132 37.9364 19.0669 38.0315 18.925L38.0342 18.9222L38.0688 18.8694C38.0869 18.8419 38.1052 18.8138 38.1235 18.786C38.1483 18.7476 38.1732 18.7091 38.1976 18.6704C38.2091 18.6523 38.2203 18.6345 38.2315 18.6164C38.2847 18.5305 38.3371 18.444 38.3884 18.3574C38.5755 18.0394 38.7438 17.7181 38.8901 17.3961C38.8945 17.3862 38.8994 17.377 38.9053 17.3681C39.0855 16.967 39.2324 16.5661 39.3417 16.1699C39.762 14.651 39.5849 13.3993 38.8426 12.6459C38.3576 12.1537 37.6644 11.9146 36.8479 11.9146C35.5875 11.9146 34.0341 12.4849 32.5061 13.5734C32.5522 13.6409 32.6003 13.7049 32.6501 13.7674C32.6684 13.7905 32.6866 13.8133 32.7057 13.8359C32.7215 13.855 32.7376 13.8738 32.754 13.8924C32.7923 13.9359 32.8311 13.9788 32.8713 14.0195L33.6795 14.8398C34.8891 14.244 36.0095 14.2596 36.6313 14.8902C37.61 15.8834 37.066 17.992 35.3931 19.69C34.6123 20.4828 33.7034 21.0556 32.834 21.3037C32.523 21.3925 32.2288 21.4364 31.9568 21.4364C31.4282 21.4364 30.984 21.2707 30.6647 20.9465C30.0429 20.3159 30.0278 19.178 30.6144 17.9501L29.8358 17.1602C29.8043 17.1277 29.7714 17.0962 29.7385 17.065L29.7119 17.0407C29.6816 17.0131 29.6509 16.9856 29.6194 16.9585C29.6158 16.9556 29.6128 16.9528 29.6092 16.9496C29.5723 16.9184 29.535 16.8883 29.4972 16.8586L29.4826 16.8477C29.4457 16.8189 29.4079 16.7909 29.3696 16.7638C29.3687 16.7628 29.3679 16.7618 29.3665 16.7616C27.5999 19.3157 27.2203 21.9395 28.4532 23.1912V23.191ZM35.2616 28.54C36.4435 29.7399 38.0154 30.4008 39.6871 30.4008C41.359 30.4008 42.9304 29.7399 44.1125 28.54C45.2946 27.3399 45.9457 25.7448 45.9457 24.0483C45.9457 22.351 45.2946 20.7559 44.1125 19.556C42.9314 18.3569 41.3451 17.696 39.69 17.696C39.5434 17.696 39.3958 17.7015 39.2482 17.7119C39.1385 17.9458 39.0172 18.18 38.886 18.413L39.1007 18.6313C40.7328 18.4489 42.3247 19.0143 43.4856 20.1926C45.58 22.3185 45.58 25.7778 43.4856 27.9035C43.3544 28.0364 43.2161 28.1632 43.0743 28.2805C43.0321 28.3153 42.9817 28.3324 42.9309 28.3324C42.8648 28.3324 42.7994 28.3031 42.7545 28.2471C42.675 28.1483 42.6901 28.003 42.7875 27.9223C42.9173 27.8149 43.0436 27.6991 43.1641 27.5773C45.0812 25.6312 45.0812 22.4649 43.1641 20.519C42.1896 19.5298 40.8806 19.012 39.5207 19.0619C39.5256 19.0674 39.5297 19.0733 39.5346 19.0788C39.539 19.0845 39.5439 19.0904 39.5488 19.0964C39.5573 19.107 39.5651 19.1175 39.5732 19.1284C39.5775 19.1341 39.5822 19.14 39.5866 19.1465C39.5949 19.1577 39.6024 19.1688 39.6105 19.1802C39.6141 19.1862 39.618 19.1914 39.6217 19.1973C39.63 19.21 39.638 19.2231 39.6461 19.236C39.6488 19.2408 39.6519 19.2452 39.6546 19.2502C39.6754 19.2857 39.6949 19.3224 39.7122 19.3598C39.7146 19.3643 39.7168 19.3693 39.7185 19.3737C39.7246 19.3876 39.7315 19.4017 39.7371 19.4161C39.7398 19.4228 39.7424 19.4293 39.7446 19.436C39.7495 19.4486 39.7546 19.4608 39.759 19.4734C39.762 19.4811 39.7644 19.4888 39.7671 19.496C39.771 19.5082 39.7749 19.5198 39.7785 19.532C39.7812 19.5397 39.7834 19.5479 39.7856 19.556C39.7893 19.5677 39.7922 19.5799 39.7954 19.5915C39.7976 19.5997 39.7995 19.6079 39.8017 19.6163C39.8044 19.6282 39.8068 19.6404 39.8093 19.652C39.811 19.6607 39.8127 19.6692 39.8144 19.6774C39.8168 19.6895 39.8186 19.7017 39.8207 19.7138C39.822 19.7225 39.8234 19.7304 39.8244 19.7391C39.8266 19.7518 39.8278 19.7644 39.8293 19.7771L39.832 19.8014C39.8332 19.8153 39.8342 19.8294 39.8349 19.8433C39.8354 19.85 39.8359 19.857 39.8364 19.8641C39.8371 19.8847 39.8376 19.9061 39.8376 19.9272C39.8376 20.2804 39.7022 20.6133 39.4553 20.8634L36.5491 23.8131C36.5337 23.829 36.5176 23.8444 36.5015 23.8593C36.4964 23.8642 36.4906 23.8687 36.4852 23.8736C36.474 23.8831 36.4635 23.893 36.4527 23.9019C36.4457 23.9074 36.4391 23.9128 36.4318 23.9183C36.422 23.9265 36.4118 23.9344 36.4015 23.9421C36.394 23.9476 36.3869 23.953 36.3793 23.958C36.3691 23.9652 36.3593 23.9724 36.3496 23.9791C36.3418 23.9845 36.3337 23.9895 36.3257 23.9945C36.3159 24.0012 36.3061 24.0076 36.2959 24.0133C36.2874 24.0183 36.2791 24.0235 36.271 24.0284C36.2608 24.0336 36.251 24.0396 36.2413 24.0451C36.2322 24.0495 36.2234 24.054 36.2149 24.0585C36.2052 24.0634 36.1954 24.0684 36.1852 24.0733C36.1764 24.0776 36.1669 24.0815 36.1581 24.086C36.1483 24.0902 36.1386 24.0947 36.1283 24.0991C36.119 24.1029 36.1095 24.1063 36.1003 24.1103C36.0905 24.114 36.0807 24.118 36.0705 24.1217C36.0612 24.1249 36.0515 24.1284 36.0417 24.1316C36.032 24.1349 36.0222 24.1383 36.0122 24.1411C36.0024 24.1443 35.9922 24.1475 35.9824 24.15C35.9727 24.1527 35.9629 24.1554 35.9532 24.1582C35.9429 24.1609 35.9327 24.1631 35.9229 24.1659C35.9132 24.1681 35.9029 24.1703 35.8932 24.1723C35.8829 24.1745 35.8727 24.1763 35.8624 24.1785C35.8527 24.1803 35.8429 24.1817 35.8327 24.1835C35.8224 24.1852 35.8124 24.1867 35.8022 24.1879C35.7919 24.1894 35.7822 24.1907 35.7724 24.1917C35.7622 24.1929 35.7514 24.1944 35.7407 24.1949C35.7309 24.1956 35.7212 24.1966 35.7114 24.1971C35.7012 24.1979 35.6905 24.1984 35.68 24.1989C35.67 24.1994 35.6602 24.1994 35.65 24.1999C35.6426 24.1999 35.6351 24.2001 35.627 24.2001H35.6185C35.6087 24.1999 35.598 24.1999 35.5878 24.1994C35.578 24.1989 35.5678 24.1989 35.558 24.1984L35.5248 24.1956C35.5158 24.1951 35.5065 24.1944 35.4973 24.1934C35.4853 24.1924 35.4731 24.1907 35.4612 24.1894C35.4531 24.1879 35.4448 24.1872 35.4368 24.1862C35.4229 24.184 35.4092 24.1817 35.3955 24.179C35.3892 24.178 35.3829 24.1768 35.3763 24.1753C35.3577 24.1723 35.3389 24.1676 35.3206 24.1631C35.3194 24.1626 35.3177 24.1626 35.3163 24.1624C35.2958 24.1574 35.2758 24.152 35.2558 24.1455C35.2536 24.1453 35.2509 24.1443 35.2487 24.1433C35.2314 24.1383 35.214 24.1329 35.1972 24.1267C35.1914 24.1244 35.1853 24.1222 35.1794 24.12C35.166 24.115 35.1528 24.1101 35.1389 24.1046L35.1177 24.0952C35.106 24.0902 35.094 24.0852 35.0821 24.0798C35.074 24.0761 35.0665 24.0721 35.0589 24.0684C35.0479 24.0627 35.0367 24.0577 35.026 24.0518C35.0177 24.0473 35.0096 24.0428 35.0016 24.0386C34.9913 24.0329 34.9811 24.0274 34.9711 24.021C34.9626 24.016 34.9545 24.0111 34.946 24.0059C34.9367 23.9999 34.9269 23.994 34.9177 23.9878C34.9091 23.9823 34.9008 23.9763 34.8923 23.9701C34.883 23.9642 34.874 23.958 34.8652 23.9513L34.8399 23.9322L34.8145 23.9118C34.8057 23.9051 34.7972 23.898 34.7886 23.8908C34.7842 23.887 34.7794 23.8831 34.775 23.8791C34.7447 24.7406 34.9323 25.5883 35.326 26.356H35.3265C35.4043 26.5081 35.4909 26.657 35.5834 26.7996C35.6526 26.9055 35.6243 27.0489 35.5195 27.1193C35.4807 27.1451 35.4372 27.1578 35.3941 27.1578C35.3204 27.1578 35.248 27.1211 35.2043 27.0539C35.1031 26.8983 35.0084 26.7353 34.923 26.5694V26.5689C34.43 25.6086 34.2337 24.534 34.3505 23.4537L34.1354 23.2349C33.9056 23.3683 33.6751 23.4911 33.4443 23.603C33.3177 25.4422 33.9758 27.2349 35.2616 28.5398V28.54ZM35.0265 23.4869C35.3577 23.8225 35.8963 23.8225 36.2278 23.4869L39.1341 20.5367C39.2946 20.3739 39.3829 20.1574 39.3829 19.9272C39.3829 19.6967 39.2946 19.4806 39.1341 19.3174L38.6447 18.821C38.302 19.3747 37.902 19.9182 37.4526 20.4407C37.4504 20.4434 37.4487 20.4456 37.4465 20.4478C37.4087 20.4915 37.3704 20.5354 37.3319 20.5791C37.3199 20.5932 37.3075 20.6066 37.2953 20.6203C37.266 20.653 37.2372 20.6855 37.208 20.718C37.1875 20.7401 37.1665 20.7626 37.146 20.7847C37.1238 20.8093 37.1021 20.8331 37.0799 20.8569C37.0616 20.8765 37.0433 20.8954 37.0253 20.9147C37.0133 20.9279 37.0006 20.941 36.9882 20.9539C36.975 20.9675 36.9621 20.9814 36.9487 20.9956C36.9377 21.0067 36.9265 21.0182 36.9155 21.0298C36.8816 21.065 36.8484 21.0993 36.815 21.133C36.7816 21.167 36.7474 21.2012 36.7123 21.236C36.7011 21.2469 36.6911 21.2575 36.6799 21.2685C36.6662 21.2818 36.6518 21.2955 36.6381 21.3089C36.6257 21.3215 36.6128 21.3339 36.5998 21.3463C36.5813 21.3645 36.562 21.3836 36.5435 21.4014C36.5171 21.4262 36.4915 21.451 36.4652 21.4756C36.4457 21.4939 36.4262 21.5128 36.4066 21.5314C36.3732 21.5627 36.3391 21.5937 36.3052 21.6244C36.2937 21.6356 36.2817 21.647 36.2696 21.6577C36.2266 21.6969 36.183 21.7363 36.139 21.775C36.1369 21.7767 36.1349 21.7787 36.1327 21.7805C35.6185 22.2364 35.0826 22.642 34.5371 22.9898L35.0265 23.4869ZM27.244 15.552C26.6824 14.9824 26.3829 14.2249 26.4012 13.4191C26.419 12.6134 26.7522 11.87 27.3398 11.325C28.4395 10.3049 30.2071 10.3302 31.2799 11.3815C31.6163 11.7109 31.8612 12.1049 32.0088 12.5526C32.0817 12.7754 32.1688 12.9843 32.2693 13.1788C34.9647 11.2694 37.7754 10.9099 39.1638 12.3195C40.0278 13.1959 40.2464 14.6079 39.7795 16.295C39.6932 16.6075 39.5849 16.9223 39.4558 17.2386C41.3146 17.1724 43.1117 17.8873 44.434 19.2298C45.702 20.5168 46.4004 22.228 46.4004 24.0483C46.4004 25.8679 45.702 27.5795 44.434 28.8665C43.1661 30.1534 41.4802 30.8622 39.6868 30.8622C37.8934 30.8622 36.2078 30.1534 34.9399 28.8665C33.617 27.5234 32.9135 25.7007 32.9779 23.8136C32.6669 23.9443 32.3561 24.054 32.0483 24.1421C31.4767 24.3048 30.9367 24.3857 30.4393 24.3857C29.4918 24.3857 28.6983 24.0924 28.1317 23.5172C26.7429 22.1079 27.0971 19.2551 28.9781 16.5195C28.7864 16.4163 28.5842 16.3287 28.3749 16.2587C27.945 16.1159 27.5648 15.8777 27.2437 15.552" fill="currentColor"/>
<path d="M41.1932 28.8002C41.482 28.706 41.764 28.5842 42.0302 28.4371C42.1404 28.3765 42.2787 28.4177 42.3387 28.5298C42.3985 28.6417 42.3575 28.7821 42.2473 28.8432C41.9558 29.0032 41.6484 29.1366 41.3323 29.2396C41.3093 29.2473 41.2857 29.2505 41.2625 29.2505C41.1666 29.2505 41.0773 29.1887 41.0461 29.0902C41.0078 28.9689 41.0737 28.8389 41.1932 28.8002Z" fill="currentColor"/>
<path d="M37.6352 28.5854C37.9109 28.7136 38.1997 28.8163 38.4944 28.8908C38.6161 28.9215 38.6905 29.047 38.6603 29.1706C38.6344 29.2758 38.5415 29.3455 38.4397 29.3455C38.4214 29.3455 38.4029 29.3432 38.3846 29.3383C38.0629 29.2571 37.747 29.1448 37.4459 29.0049C37.3318 28.9518 37.2815 28.8151 37.334 28.699C37.3864 28.5831 37.5216 28.5325 37.6352 28.5854Z" fill="currentColor"/>
<path d="M39.394 29.0297C39.493 29.0362 39.5989 29.0394 39.6913 29.0389C39.8948 29.0389 40.1009 29.0258 40.3041 29C40.428 28.9848 40.5424 29.0736 40.5578 29.1999C40.5734 29.3267 40.4853 29.4423 40.3607 29.4579C40.1392 29.4859 39.9138 29.5008 39.6916 29.5008H39.6877C39.5811 29.5008 39.474 29.4971 39.3671 29.4909C39.242 29.4832 39.1464 29.3741 39.1534 29.2468C39.161 29.1195 39.2659 29.0225 39.394 29.0297Z" fill="currentColor"/>
<path d="M36.1556 27.5218L36.2092 27.5774C36.4066 27.7776 36.6208 27.9616 36.8466 28.1236C36.9488 28.1975 36.9732 28.3414 36.9003 28.4456C36.8564 28.5089 36.7861 28.5426 36.7152 28.5426C36.6693 28.5426 36.6234 28.5292 36.5834 28.5002C36.3373 28.3231 36.1031 28.1224 35.8875 27.9036L35.8289 27.843C35.7416 27.7515 35.744 27.6054 35.8341 27.5168C35.9238 27.428 36.068 27.4303 36.1556 27.5218Z" fill="currentColor"/>
<path d="M34.5726 13.6679C34.4548 13.7118 34.324 13.6505 34.2806 13.5309C34.2374 13.4111 34.2979 13.2787 34.4158 13.2347C35.9018 12.6796 37.1903 12.8039 37.9513 13.5758C38.0397 13.6659 38.0397 13.812 37.9513 13.9023C37.9067 13.9474 37.8487 13.97 37.7904 13.97C37.7321 13.97 37.674 13.9474 37.6294 13.9023C36.9998 13.2633 35.8855 13.1774 34.5726 13.6679Z" fill="currentColor"/>
<path d="M28.0486 12.1564C28.7326 11.4619 29.8459 11.4619 30.5299 12.1564C30.6189 12.2465 30.6189 12.3926 30.5299 12.4826C30.4416 12.5729 30.2974 12.5727 30.2086 12.4826C29.7015 11.9682 28.8765 11.9684 28.3699 12.4826C28.2016 12.6538 28.0828 12.8676 28.0264 13.1008C28.001 13.2063 27.9081 13.2772 27.8054 13.2772C27.7881 13.2772 27.7696 13.2747 27.7517 13.2705C27.6295 13.2402 27.5549 13.1152 27.5847 12.9914C27.6608 12.6759 27.821 12.3871 28.0486 12.1564Z" fill="currentColor"/>
</svg>
