<?xml version="1.0" encoding="UTF-8" standalone="no"?>
<!DOCTYPE svg PUBLIC "-//W3C//DTD SVG 1.1//EN" "http://www.w3.org/Graphics/SVG/1.1/DTD/svg11.dtd">
<svg width="100%" height="100%" viewBox="0 0 1439 717" version="1.1" xmlns="http://www.w3.org/2000/svg" xmlns:xlink="http://www.w3.org/1999/xlink" xml:space="preserve" xmlns:serif="http://www.serif.com/" style="fill-rule:evenodd;clip-rule:evenodd;stroke-linejoin:round;stroke-miterlimit:2;">
    <g id="Artboard1" transform="matrix(0.931643,0,0,0.944329,38.6902,60.8382)">
        <rect x="-41.529" y="-64.425" width="1544.18" height="758.449" style="fill:none;"/>
        <clipPath id="_clip1">
            <rect x="-41.529" y="-64.425" width="1544.18" height="758.449"/>
        </clipPath>
        <g clip-path="url(#_clip1)">
            <g transform="matrix(1.07337,0,0,1.05895,-106.308,5.6969)">
                <rect x="60" y="36" width="1439" height="618" style="fill:rgb(48,50,52);"/>
            </g>
            <g transform="matrix(1.07337,0,0,1.05895,-106.308,5.6969)">
                <path d="M758.78,58.774C758.329,58.139 757.955,57.464 757.586,56.829L859.81,2.464C861.003,2.664 862.273,2.863 863.466,3.099L758.78,58.774ZM847.87,1.077C846.454,0.959 844.963,0.878 843.547,0.8L754.375,48.218C754.527,48.971 754.673,49.767 754.895,50.52L847.87,1.077ZM882.643,8.379C881.678,8.021 880.707,7.663 879.735,7.346L766.689,67.463C767.286,67.979 767.959,68.496 768.625,69.012L882.643,8.379ZM870.334,4.608C869.211,4.331 868.094,4.054 866.977,3.815L760.119,60.637C760.57,61.234 761.09,61.829 761.611,62.423L870.334,4.608ZM876.676,6.394C875.628,6.076 874.587,5.759 873.54,5.482L763.109,64.208C763.629,64.765 764.226,65.322 764.823,65.876L876.676,6.394ZM803.03,4.25C799.519,5.084 796.085,6.036 792.804,7.109L766.238,21.236C764.15,22.982 762.36,24.808 760.868,26.671L803.03,4.25ZM834.146,0.601L754,43.219C754,44.093 754,44.923 754.076,45.798L838.92,0.642C837.352,0.601 835.708,0.601 834.146,0.601ZM917.79,43.934L835.486,87.703C837.13,87.703 838.843,87.703 840.488,87.622L917.644,46.591C917.714,45.72 917.79,44.805 917.79,43.934ZM888.165,10.64C887.27,10.242 886.375,9.847 885.48,9.489L770.72,70.521C771.386,70.997 772.135,71.473 772.878,71.949L888.165,10.64ZM828.992,0.76C827.132,0.837 825.336,0.959 823.476,1.118L754.971,37.544C754.673,38.537 754.451,39.489 754.298,40.481L828.992,0.76ZM817.502,1.712C815.262,1.988 813.027,2.306 810.787,2.704L757.885,30.8C757.212,31.988 756.539,33.139 756.019,34.371L817.502,1.712ZM855.932,1.911C854.586,1.752 853.323,1.594 851.977,1.435L755.568,52.701C755.866,53.417 756.165,54.092 756.463,54.804L855.932,1.911ZM916.298,52.465C916.673,51.432 916.971,50.439 917.193,49.41L845.782,87.382C847.724,87.264 849.666,87.105 851.526,86.906L916.298,52.465ZM917.644,41.433C917.568,40.64 917.415,39.846 917.269,39.053L826.307,87.382C827.798,87.463 829.29,87.544 830.788,87.581L917.644,41.433ZM916.597,36.791C916.374,36.076 916.076,35.36 915.778,34.648L817.953,86.629C819.293,86.788 820.638,86.947 821.978,87.065L916.597,36.791ZM893.243,13.061C892.418,12.625 891.599,12.227 890.78,11.791L775.119,73.296C775.868,73.735 776.687,74.17 777.506,74.605L893.243,13.061ZM898.017,72.502C902.117,69.964 905.552,67.267 908.389,64.408L873.991,82.7C879.361,81.195 884.439,79.369 889.213,77.184L898.017,72.502ZM914.807,32.585C914.432,31.91 914.058,31.276 913.689,30.601L810.412,85.519C811.682,85.718 812.875,85.917 814.145,86.113L914.807,32.585ZM912.42,59.726C913.315,58.456 914.134,57.187 914.807,55.877L857.944,86.113C860.407,85.759 862.8,85.32 865.187,84.844L912.42,59.726ZM902.27,18.617C901.597,18.141 900.924,17.625 900.181,17.148L785.116,78.298C786.012,78.693 786.983,79.051 787.878,79.409L902.27,18.617ZM912.42,28.697C911.969,28.059 911.525,27.465 910.998,26.87L803.328,84.132C804.445,84.408 805.639,84.645 806.756,84.884L912.42,28.697ZM897.941,15.721C897.198,15.245 896.449,14.806 895.63,14.37L779.892,75.915C780.718,76.354 781.613,76.749 782.431,77.147L897.941,15.721ZM906.078,21.712C905.475,21.196 904.879,20.639 904.212,20.122L790.715,80.479C791.686,80.837 792.658,81.154 793.699,81.472L906.078,21.712ZM909.506,25.085C908.986,24.528 908.465,23.934 907.869,23.377L796.834,82.423C797.875,82.741 798.923,83.018 800.04,83.298L909.506,25.085Z" style="fill:rgb(243,172,80);fill-rule:nonzero;"/>
            </g>
            <g transform="matrix(1.07337,0,0,1.05895,-106.308,5.6969)">
                <ellipse cx="60.5" cy="619" rx="60.5" ry="59" style="fill:rgb(244,202,80);"/>
            </g>
            <g transform="matrix(1.07337,0,0,1.05895,-106.308,5.6969)">
                <circle cx="101" cy="425" r="20" style="fill:rgb(93,178,198);"/>
            </g>
            <g transform="matrix(1.21627,0,0,0.971127,-258.288,-122.717)">
                <rect x="144.527" y="56.985" width="1307.17" height="116.677" style="fill:rgb(48,50,52);"/>
            </g>
        </g>
    </g>
</svg>
