<svg width="648" height="601" viewBox="0 0 648 601" fill="none"
  xmlns="http://www.w3.org/2000/svg">
  <path d="M72.975 482.311C85.0414 405.053 34.6429 386.127 7.87732 319.354C-21.693 245.596 38.475 239.784 81.0375 191.116C122.823 143.338 107.096 45.6898 158.487 10.6156C208.381 -23.4391 282.491 34.7484 334.389 41.4125C408.639 50.9437 502.186 8.95935 568.534 57.2679C647.987 115.112 568.678 197.346 546.541 261.373C517.135 346.432 599.932 397.299 634.588 467.979C677.092 554.651 609.987 582.561 508.241 596.748C342.311 619.881 370.342 529.018 204.061 550.178C189.397 552.041 80.4203 627.295 44.1273 590.588C-5.16565 540.729 72.975 482.311 72.975 482.311Z" fill="#DDEFFB"/>
  <path d="M505.658 78.9203H114.326V464.159H505.658V78.9203Z" fill="#7EB3C3"/>
  <path d="M486.846 88.7601H133.139V474.006H486.846V88.7601Z" fill="#141C22"/>
  <path d="M486.846 88.7601H452.58V474.006H486.846V88.7601Z" fill="#B8DDDA"/>
  <path d="M300.9 199.534H142.232V94.3969H300.9V199.534ZM133.139 88.7601V478.94H142.232V206.784H300.9V478.94H309.998V88.7601H133.139Z" fill="#B8DDDA"/>
  <path d="M341.295 168.662C341.295 171.026 339.373 172.94 337.006 172.94C334.643 172.94 332.725 171.026 332.725 168.662C332.725 166.295 334.643 164.377 337.006 164.377C339.373 164.377 341.295 166.295 341.295 168.662Z" fill="#7EB3C3"/>
  <path d="M388.615 295.26C388.615 297.623 386.697 299.545 384.33 299.545C381.963 299.545 380.045 297.623 380.045 295.26C380.045 292.897 381.963 290.983 384.33 290.983C386.697 290.983 388.615 292.897 388.615 295.26Z" fill="#7EB3C3"/>
  <path d="M337.662 378.381C337.662 380.745 335.744 382.662 333.373 382.662C331.006 382.662 329.088 380.745 329.088 378.381C329.088 376.018 331.006 374.1 333.373 374.1C335.744 374.1 337.662 376.018 337.662 378.381Z" fill="#7EB3C3"/>
  <path d="M182.588 151.534C182.588 152.838 181.529 153.901 180.217 153.901C178.908 153.901 177.85 152.838 177.85 151.534C177.85 150.225 178.908 149.162 180.217 149.162C181.529 149.162 182.588 150.225 182.588 151.534Z" fill="#7EB3C3"/>
  <path d="M210.037 256.155C210.037 257.87 208.646 259.256 206.932 259.256C205.213 259.256 203.822 257.87 203.822 256.155C203.822 254.44 205.213 253.049 206.932 253.049C208.646 253.049 210.037 254.44 210.037 256.155Z" fill="#7EB3C3"/>
  <path d="M425.619 336.69C425.752 338.448 425.107 339.752 424.611 340.819C423.884 342.389 422.666 343.334 421.177 342.745C419.689 342.151 418.177 340.182 417.166 337.971C416.482 336.475 416.009 334.725 415.806 332.975C415.595 331.233 416.252 330.041 416.67 328.936C417.283 327.311 418.049 326.303 419.646 326.87C421.232 327.44 422.498 329.155 423.572 331.428C424.306 332.975 425.49 334.924 425.619 336.69Z" fill="#83C2B4"/>
  <path d="M419.592 326.506C419.584 326.506 419.217 326.666 419.205 326.659C419.561 329.299 419.631 329.327 419.936 331.952C420.221 334.573 420.428 334.655 420.658 337.256C420.861 339.862 421.393 340.069 421.549 342.659C421.561 342.659 421.158 342.537 421.166 342.541C422.654 343.131 423.572 342.162 424.299 340.596C424.787 339.526 425.275 338.256 425.143 336.495C425.002 334.733 424.799 333.014 424.068 331.463C422.998 329.182 421.186 327.073 419.592 326.506Z" fill="#0CA492"/>
  <path d="M402.826 323.811C404.85 325.135 406.631 326.569 407.893 327.944C409.752 329.967 410.58 331.815 409.998 332.717C409.42 333.627 407.533 333.53 405.119 332.569C403.479 331.912 401.647 330.659 399.686 329.377C397.725 328.092 396.236 326.694 394.928 325.412C393.006 323.534 391.943 322.166 392.42 321.198C392.897 320.233 394.553 320.412 397.084 321.26C398.807 321.842 400.795 322.487 402.826 323.811Z" fill="#83C2B4"/>
  <path d="M392.404 321.19C392.404 321.198 392.264 320.799 392.264 320.803C395.338 322.623 395.17 322.936 398.189 324.819C401.186 326.733 401.225 326.655 404.174 328.631C407.096 330.639 407.041 330.733 409.916 332.803C409.916 332.795 410.451 333.057 410.459 333.053C411.041 332.147 409.967 329.869 408.104 327.846C406.842 326.467 404.791 325.237 402.764 323.912C400.74 322.588 398.807 321.791 397.08 321.209C394.545 320.358 392.881 320.225 392.404 321.19Z" fill="#0CA492"/>
  <path d="M442.362 349.631C442.331 351.139 442.237 352.545 441.866 353.662C441.421 354.998 441.191 356.502 440.409 357.151C439.335 358.045 437.573 358.037 436.202 357.326C434.827 356.619 433.194 354.854 432.214 352.944C431.507 351.561 431.499 349.955 431.105 348.244C430.773 346.815 430.87 345.483 430.827 343.983C430.784 342.483 430.944 341.241 431.218 340.092C431.542 338.713 431.862 337.576 432.569 336.858C433.558 335.858 434.616 335.709 436.116 336.401C437.62 337.092 438.679 338.264 439.8 340.272C440.605 341.717 441.534 343.366 441.937 345.139C442.273 346.619 442.39 348.119 442.362 349.631Z" fill="#83C2B4"/>
  <path d="M435.767 336.256C435.755 336.248 435.779 336.26 435.767 336.256C435.908 338.92 436.732 338.905 436.826 341.565C436.892 344.217 436.998 344.268 437.017 346.901C437.013 349.526 436.087 349.065 436.048 351.674C435.99 354.268 436.326 354.44 436.216 357.022C436.224 357.026 436.185 357.502 436.189 357.506C437.564 358.221 439.025 357.694 440.103 356.795C440.876 356.151 441.095 354.756 441.537 353.42C441.904 352.303 442.884 351.436 442.919 349.928C442.955 348.416 442.603 346.725 442.267 345.244C441.865 343.471 441.29 341.678 440.486 340.229C439.369 338.217 437.263 336.94 435.767 336.256Z" fill="#0CA492"/>
  <path d="M460.897 369.205C460.643 370.963 460.604 372.83 460.002 374.069C459.279 375.557 457.869 376.01 456.865 376.655C455.467 377.538 454.166 378.288 452.662 377.252C451.154 376.221 450.272 374.053 449.4 371.678C448.772 369.967 447.986 367.983 447.756 365.932C447.561 364.221 447.498 362.413 447.647 360.659C447.791 358.905 448.479 357.62 448.951 356.311C449.514 354.745 450.252 353.604 451.186 352.87C452.479 351.838 453.826 351.409 455.514 352.432C457.197 353.452 459.17 355.498 460.217 358.03C460.971 359.85 461.545 362.127 461.768 364.26C461.951 366.049 461.143 367.444 460.897 369.205Z" fill="#83C2B4"/>
  <path d="M455.51 352.479C455.503 352.475 456.112 352.795 456.1 352.788C455.944 355.307 455.663 355.131 455.479 357.635C455.276 360.127 454.268 359.498 454.038 361.971C453.784 364.436 454.432 364.854 454.128 367.299C453.807 369.737 453.667 369.639 453.311 372.053C452.936 374.463 453.253 374.674 452.838 377.057C452.846 377.069 452.667 377.163 452.678 377.17C454.182 378.205 455.51 377.592 456.905 376.709C457.909 376.065 459.409 375.682 460.135 374.202C460.741 372.952 460.503 370.866 460.749 369.104C461.003 367.342 461.92 366.03 461.733 364.245C461.514 362.112 460.858 359.838 460.1 358.018C459.057 355.495 457.198 353.502 455.51 352.479Z" fill="#0CA492"/>
  <path d="M475.876 391.319C475.388 393.12 474.998 394.893 474.201 396.104C473.251 397.561 472.13 398.506 470.99 399.03C469.404 399.76 467.662 400.174 466.22 398.893C464.775 397.612 463.369 394.877 462.751 392.303C462.306 390.444 463.236 388.784 463.259 386.616C463.283 384.803 462.845 382.62 463.22 380.807C463.595 379.002 464.623 377.924 465.287 376.627C466.083 375.073 466.458 373.288 467.529 372.631C469.013 371.725 470.716 372.342 472.357 373.635C474.001 374.92 475.919 376.881 476.701 379.659C477.267 381.659 476.736 383.608 476.708 385.858C476.681 387.745 476.365 389.514 475.876 391.319Z" fill="#83C2B4"/>
  <path d="M472.314 373.873C472.307 373.87 472.416 373.178 472.404 373.166C471.932 375.776 471.807 375.67 471.299 378.26C470.779 380.834 470.271 380.424 469.717 382.971C469.139 385.506 470.248 386.432 469.611 388.936C468.959 391.436 468.99 391.459 468.299 393.928C467.588 396.377 467.018 395.889 466.279 398.315C466.287 398.327 466.283 398.651 466.291 398.662C467.74 399.936 469.752 400.436 471.342 399.717C472.486 399.198 473.15 397.428 474.092 395.975C474.889 394.76 475.416 393.143 475.904 391.342C476.396 389.541 476.451 387.604 476.475 385.717C476.502 383.463 476.975 381.6 476.408 379.6C475.623 376.827 473.955 375.162 472.314 373.873Z" fill="#0CA492"/>
  <path d="M415.851 347.248C417.515 347.057 419.234 347.084 420.202 346.44C421.624 345.494 422.238 343.905 421.445 342.483C420.659 341.061 418.355 339.553 416.042 339.01C414.472 338.639 412.632 338.612 410.964 338.866C409.296 339.116 407.921 339.768 407.007 340.483C405.667 341.541 405.527 343.139 406.324 344.463C407.124 345.787 408.866 346.576 411.089 347.069C412.605 347.405 414.187 347.44 415.851 347.248Z" fill="#83C2B4"/>
  <path d="M406.018 344.514C406.01 344.51 406.104 344.202 406.1 344.194C408.538 343.772 408.518 343.745 410.983 343.37C413.456 343.018 413.569 343.213 416.065 342.909C418.569 342.623 418.776 342.987 421.303 342.76C421.307 342.76 421.096 342.502 421.096 342.514C421.889 343.932 421.077 344.893 419.659 345.846C418.694 346.495 417.456 346.952 415.795 347.147C414.131 347.338 412.604 347.409 411.092 347.073C408.862 346.577 406.815 345.838 406.018 344.514Z" fill="#0CA492"/>
  <path d="M428.424 362.811C429.854 362.784 431.463 363.217 432.569 362.905C433.893 362.526 435.041 361.92 435.748 361.198C436.733 360.198 436.174 358.557 435.549 357.127C434.932 355.705 434.073 354.135 432.182 353.135C430.823 352.416 429.334 352.538 427.663 352.217C426.264 351.952 424.385 350.834 422.948 350.936C421.514 351.041 420.862 352.366 419.791 352.772C418.51 353.268 417.471 353.741 416.838 354.53C415.952 355.62 415.186 356.713 415.823 358.026C416.463 359.338 418.104 360.776 419.889 361.639C421.178 362.264 422.588 361.823 424.202 362.127C425.553 362.373 427.002 362.842 428.424 362.811Z" fill="#83C2B4"/>
  <path d="M416.209 357.987C416.209 357.979 416.17 358.092 416.166 358.084C418.611 357.846 418.814 358.268 421.275 358.084C423.748 357.932 423.361 357.092 425.857 356.971C428.361 356.869 428.338 356.83 430.861 356.772C433.385 356.741 433.291 356.522 435.838 356.537C435.846 356.549 436.271 357.127 436.279 357.135C436.893 358.573 436.529 359.987 435.553 360.987C434.842 361.713 433.994 362.694 432.666 363.069C431.564 363.381 429.986 363.104 428.561 363.131C427.135 363.162 425.771 363.326 424.428 363.073C422.814 362.764 421.221 361.909 419.928 361.287C418.135 360.428 416.846 359.307 416.209 357.987Z" fill="#0CA492"/>
  <path d="M442.859 383.416C444.527 383.596 445.898 382.998 447.238 382.787C448.847 382.545 450.347 382.299 451.288 381.569C452.593 380.557 453.347 378.948 452.839 377.19C452.331 375.428 450.378 374.116 448.316 372.69C446.835 371.659 445.132 370.198 443.206 369.604C441.605 369.108 439.98 369.049 438.285 368.975C436.589 368.897 434.687 368.334 433.378 368.682C431.816 369.096 430.702 370.131 429.851 370.967C428.671 372.127 428.511 373.791 429.062 375.389C429.609 376.987 431.038 378.155 433.003 379.381C434.425 380.268 436.097 381.928 437.929 382.506C439.464 382.987 441.187 383.241 442.859 383.416Z" fill="#83C2B4"/>
  <path d="M429.33 375.393C429.33 375.377 429.795 375.526 429.791 375.514C432.104 375.545 431.307 375.463 433.627 375.534C435.955 375.627 435.744 374.994 438.088 375.123C440.436 375.272 440.623 375.858 442.979 376.053C445.342 376.268 445.236 375.928 447.607 376.178C449.99 376.455 449.994 376.475 452.389 376.803C452.393 376.819 452.928 377.19 452.932 377.201C453.439 378.959 452.471 380.397 451.17 381.412C450.229 382.139 448.619 382.034 447.01 382.284C445.67 382.494 444.236 382.534 442.568 382.366C440.896 382.198 439.389 382.217 437.854 381.737C436.014 381.166 434.314 380.698 432.9 379.807C430.939 378.58 429.881 376.994 429.33 375.393Z" fill="#0CA492"/>
  <path d="M455.052 403.053C456.783 403.451 458.533 404.17 459.97 404.147C461.693 404.112 462.845 403.065 463.927 402.42C465.423 401.534 466.626 400.514 466.318 398.616C466.009 396.717 464.408 394.733 462.419 392.975C460.986 391.709 459.283 391.233 457.349 390.362C455.732 389.635 454.099 388.959 452.333 388.659C450.568 388.354 448.736 387.561 447.318 387.76C445.626 387.991 444.669 389.198 443.662 389.951C442.271 390.994 440.658 391.885 441.037 393.6C441.415 395.319 443.197 397.491 445.087 399.018C446.455 400.116 448.271 400.784 450.123 401.619C451.673 402.323 453.322 402.659 455.052 403.053Z" fill="#83C2B4"/>
  <path d="M441.037 393.6C441.033 393.588 441.697 393.877 441.693 393.866C444.107 394.178 444.139 394.346 446.564 394.725C448.99 395.116 448.889 394.596 451.326 395.034C453.772 395.491 453.873 396.037 456.322 396.553C458.772 397.088 458.744 396.932 461.201 397.518C463.662 398.127 463.475 397.03 465.947 397.686C465.951 397.702 466.619 398.682 466.619 398.694C466.924 400.6 465.244 401.217 463.748 402.108C462.67 402.748 461.525 403.569 459.807 403.608C458.369 403.643 456.838 403.819 455.107 403.412C453.377 403.01 451.666 402.643 450.119 401.944C448.264 401.104 446.436 400.155 445.072 399.061C443.182 397.53 441.416 395.319 441.037 393.6Z" fill="#0CA492"/>
  <path d="M487.682 457.35C477.194 407.479 448.971 363.334 408.6 332.877C408.257 332.62 408.093 332.233 408.249 332.018C408.401 331.803 408.807 331.838 409.159 332.1C449.725 362.705 478.085 407.065 488.628 457.186C488.718 457.616 488.581 457.998 488.319 458.045C488.057 458.088 487.776 457.78 487.682 457.35Z" fill="#83C2B4"/>
  <path d="M460.105 295.967C462.292 295.912 464.077 295.03 465.542 294.346C467.695 293.354 469.175 291.791 468.624 289.924C468.077 288.057 465.632 286.264 462.82 285.346C460.909 284.721 458.667 284.491 456.452 284.674C454.238 284.858 452.749 286.018 451.37 286.846C449.339 288.073 448.113 289.311 448.71 290.994C449.3 292.682 451.242 293.643 453.902 294.42C455.71 294.952 457.921 296.022 460.105 295.967Z" fill="#83C2B4"/>
  <path d="M448.264 291.049C448.264 291.041 448.479 290.561 448.475 290.549C451.686 290.17 451.713 290.241 454.963 289.963C458.232 289.725 458.307 289.963 461.604 289.83C464.92 289.737 465.115 290.377 468.459 290.405C468.463 290.412 468.361 289.909 468.365 289.92C468.916 291.787 467.463 292.971 465.311 293.975C463.85 294.659 462.143 295.354 459.955 295.416C457.764 295.479 455.67 295.534 453.869 295.002C451.221 294.221 448.865 292.729 448.264 291.049Z" fill="#0CA492"/>
  <path d="M443.44 272.17C445.565 273.955 447.651 275.502 449.553 276.522C452.35 278.01 454.756 278.498 455.862 277.494C456.967 276.502 456.667 274.104 454.94 271.35C453.768 269.475 451.702 267.612 449.46 265.713C447.21 263.811 444.889 262.662 442.78 261.756C439.674 260.428 437.53 260.041 436.612 261.205C435.694 262.373 436.671 264.178 438.604 266.678C439.924 268.385 441.319 270.385 443.44 272.17Z" fill="#83C2B4"/>
  <path d="M436.6 261.194C436.604 261.186 436.072 261.268 436.08 261.264C439.588 263.78 439.9 263.405 443.291 266.057C446.623 268.756 446.537 268.846 449.725 271.655C452.854 274.506 452.967 274.397 455.959 277.362C455.955 277.37 456.342 277.967 456.338 277.975C455.221 278.967 452.256 278.303 449.463 276.819C447.565 275.803 445.682 273.846 443.553 272.049C441.428 270.26 439.858 268.409 438.541 266.702C436.608 264.198 435.674 262.362 436.6 261.194Z" fill="#0CA492"/>
  <path d="M470.007 315.791C471.839 316.002 473.585 316.182 475.136 316.014C476.995 315.815 478.96 315.959 480.179 315.248C481.87 314.264 482.819 312.186 482.6 310.33C482.393 308.479 480.882 306.01 478.823 304.455C477.339 303.334 475.284 303.092 473.249 302.44C471.546 301.901 469.815 301.944 467.944 301.858C466.065 301.772 464.464 301.991 462.948 302.358C461.132 302.795 459.636 303.252 458.534 304.135C457.007 305.354 456.495 306.573 456.784 308.205C457.077 309.842 458.058 310.936 459.975 312.178C461.366 313.077 462.905 314.166 464.827 314.764C466.436 315.268 468.171 315.584 470.007 315.791Z" fill="#83C2B4"/>
  <path d="M456.736 307.823C456.732 307.807 456.736 307.834 456.736 307.823C459.916 307.807 459.588 308.744 462.783 308.846C465.998 308.983 466.017 309.108 469.248 309.354C472.49 309.647 472.33 308.498 475.592 308.869C478.865 309.287 478.92 309.729 482.205 310.264C482.209 310.28 482.826 310.354 482.83 310.369C483.041 312.229 481.599 313.803 479.916 314.791C478.697 315.51 476.877 315.385 475.017 315.592C473.467 315.768 471.892 316.686 470.064 316.467C468.232 316.248 466.396 315.643 464.787 315.143C462.865 314.537 461.002 313.83 459.623 312.936C457.72 311.701 457.037 309.459 456.736 307.823Z" fill="#0CA492"/>
  <path d="M479.025 341.412C481.083 342.045 483.04 343.034 484.865 343.202C487.052 343.401 488.81 342.393 490.38 341.834C492.56 341.069 494.533 340.311 494.744 338.123C494.943 335.94 493.298 333.627 491.306 331.393C489.873 329.78 488.185 327.909 485.978 326.733C484.134 325.756 482.072 324.948 479.927 324.479C477.783 324.01 475.83 324.35 474.001 324.475C471.814 324.627 470.025 325.135 468.56 325.924C466.525 327.03 465.154 328.303 465.107 330.198C465.068 332.1 465.837 334.479 467.728 336.256C469.091 337.537 471.04 338.885 473.095 339.971C474.814 340.885 476.97 340.776 479.025 341.412Z" fill="#83C2B4"/>
  <path d="M465.162 330.209C465.166 330.194 465.088 330.873 465.088 330.854C468.002 331.33 468.014 331.002 470.932 331.569C473.861 332.178 473.908 330.955 476.85 331.627C479.787 332.346 479.748 333.178 482.682 334.006C485.615 334.87 485.631 334.678 488.564 335.631C491.498 336.627 491.463 337.069 494.381 338.174C494.381 338.19 494.643 338.073 494.643 338.084C494.439 340.276 492.584 341.143 490.404 341.905C488.83 342.463 487.061 343.6 484.873 343.397C483.053 343.221 481.107 341.862 479.049 341.233C476.994 340.6 474.826 340.846 473.107 339.936C471.049 338.846 469.174 337.432 467.811 336.151C465.916 334.373 465.119 332.112 465.162 330.209Z" fill="#0CA492"/>
  <path d="M484.147 367.299C486.131 368.37 487.948 369.573 489.792 370.116C492.006 370.76 494.034 370.928 495.776 370.682C498.186 370.35 500.565 369.612 501.237 367.385C501.917 365.159 501.241 361.514 499.624 358.784C498.463 356.811 495.975 356.17 493.956 354.518C492.272 353.131 490.639 351.178 488.518 350.268C486.401 349.373 484.342 349.581 482.432 349.35C480.147 349.073 478.038 348.413 476.366 348.959C474.049 349.713 473.014 351.405 472.569 353.342C472.127 355.295 471.928 357.721 473.51 359.909C474.647 361.487 476.874 362.354 478.784 363.881C480.374 365.151 482.159 366.229 484.147 367.299Z" fill="#83C2B4"/>
  <path d="M472.838 353.436C472.842 353.42 472.084 353.143 472.088 353.127C474.998 354.166 475.037 354.002 477.939 355.143C480.834 356.33 480.994 355.686 483.885 356.959C486.768 358.28 486.385 359.776 489.229 361.217C492.068 362.709 492.061 362.756 494.873 364.35C497.678 365.987 497.924 365.143 500.713 366.877C500.709 366.897 500.971 367.198 500.967 367.213C500.303 369.448 498.279 371.217 495.869 371.534C494.131 371.764 492.033 370.577 489.818 369.94C487.967 369.401 486.119 368.409 484.131 367.338C482.15 366.268 480.521 364.901 478.928 363.627C477.01 362.108 474.908 361.252 473.771 359.666C472.186 357.479 472.393 355.385 472.838 353.436Z" fill="#0CA492"/>
  <path d="M481.396 398.487C482.849 399.784 484.158 400.998 485.619 401.963C487.259 403.034 488.478 404.823 490.021 405.416C491.884 406.123 493.724 406.623 495.302 406.479C497.376 406.287 498.529 404.178 499.611 402.299C500.697 400.42 501.548 398.565 501.107 395.826C500.771 393.744 499.994 391.588 498.83 389.444C497.876 387.67 497.142 385.19 495.669 383.6C494.365 382.178 492.517 381.432 490.892 380.28C489.271 379.127 487.814 377.432 486.189 376.764C484.38 376.034 482.31 377.432 480.669 377.19C478.693 376.909 477.193 377.057 475.673 377.463C473.677 377.987 471.357 377.725 470.58 379.346C469.806 380.951 470.708 383.155 471.345 385.311C471.841 386.951 472.205 388.987 473.349 390.791C474.294 392.287 475.349 394.018 476.669 395.549C477.849 396.92 479.939 397.198 481.396 398.487Z" fill="#83C2B4"/>
  <path d="M471.104 379.647C471.112 379.635 471.467 379.139 471.475 379.123C474.057 380.651 473.737 381.311 476.272 382.955C478.795 384.639 478.787 384.662 481.276 386.44C483.744 388.264 484.283 387.225 486.737 389.123C489.17 391.069 488.78 391.803 491.158 393.854C493.522 395.948 493.787 395.459 496.112 397.635C498.416 399.854 497.635 401.213 499.854 403.553C499.846 403.573 500.936 403.666 500.928 403.682C499.815 405.573 497.397 405.338 495.33 405.545C493.752 405.709 491.866 406.198 490.002 405.479C488.455 404.885 486.889 403.819 485.26 402.733C483.807 401.76 482.561 400.237 481.108 398.944C479.658 397.647 477.76 397.026 476.584 395.659C475.264 394.127 474.076 392.467 473.131 390.967C471.991 389.162 470.682 387.37 470.194 385.748C469.565 383.623 470.326 381.276 471.104 379.647Z" fill="#0CA492"/>
  <path d="M475.199 282.787C474.831 285.034 474.648 287.303 473.644 288.565C472.167 290.416 469.968 291.194 468.245 290.276C466.519 289.35 464.855 286.62 464.214 283.748C463.792 281.795 463.73 279.432 463.952 277.198C464.179 274.963 464.87 272.995 465.706 271.62C466.929 269.596 469.077 269.065 471.027 269.987C472.976 270.897 474.296 273.272 475.046 276.315C475.55 278.381 475.57 280.549 475.199 282.787Z" fill="#83C2B4"/>
  <path d="M471.053 269.549C471.042 269.545 470.635 269.717 470.624 269.713C470.378 273.135 470.335 273.116 469.987 276.502C469.596 279.858 469.858 279.991 469.354 283.303C468.811 286.596 469.276 286.838 468.624 290.08C468.631 290.084 468.323 289.83 468.338 289.834C470.065 290.756 471.467 289.725 472.928 287.862C473.917 286.592 474.69 284.955 475.061 282.713C475.428 280.475 475.553 278.381 475.045 276.311C474.307 273.272 473.01 270.463 471.053 269.549Z" fill="#0CA492"/>
  <path d="M493.174 302.307C492.553 304.163 492.385 306.397 491.444 307.67C490.323 309.198 488.963 310.385 487.69 310.995C485.92 311.838 484.167 310.623 482.667 309.487C481.163 308.35 479.596 306.963 479.081 304.455C478.702 302.655 479.397 300.815 479.518 298.639C479.624 296.815 478.659 294.256 479.112 292.389C479.561 290.514 481.463 289.78 482.217 288.385C483.116 286.713 483.913 285.33 485.085 284.549C486.71 283.467 488.338 282.53 490.104 283.686C491.874 284.846 493.635 287.557 494.393 290.33C494.936 292.323 493.936 294.143 493.819 296.436C493.717 298.354 493.799 300.448 493.174 302.307Z" fill="#83C2B4"/>
  <path d="M489.994 284.233C489.982 284.225 490.15 284.198 490.135 284.19C489.428 287.596 489.975 287.967 489.158 291.319C488.303 294.647 487.287 293.936 486.361 297.209C485.396 300.455 485.346 300.42 484.291 303.6C483.193 306.76 482.955 306.584 481.783 309.686C481.795 309.69 482.311 310.358 482.318 310.37C483.807 311.502 485.756 311.53 487.529 310.682C488.799 310.065 490.482 309.381 491.611 307.858C492.549 306.584 492.92 304.459 493.545 302.6C494.166 300.748 494.912 298.979 495.025 297.057C495.162 294.756 494.451 292.264 493.896 290.276C493.131 287.514 491.756 285.389 489.994 284.233Z" fill="#0CA492"/>
  <path d="M509.822 332.186C508.65 334.202 506.818 335.213 505.439 336.483C503.787 337.998 502.182 339.342 500.564 339.745C498.318 340.303 495.959 339.909 494.521 338.26C493.084 336.612 493.307 333.85 493.295 330.815C493.291 328.627 492.861 325.971 493.482 323.487C494.002 321.397 494.994 319.475 495.951 317.397C496.912 315.323 497.295 312.682 498.443 311.198C499.822 309.424 501.728 308.495 503.252 307.823C505.369 306.885 507.662 307.608 509.459 309.358C511.252 311.108 511.971 313.827 512.248 317.233C512.455 319.69 513.326 323.061 512.631 325.729C512.061 327.955 510.994 330.162 509.822 332.186Z" fill="#83C2B4"/>
  <path d="M509.314 309.721C509.302 309.713 509.232 310.424 509.22 310.412C507.955 313.467 508.314 312.385 507.005 315.405C505.665 318.393 505.017 317.733 503.619 320.662C502.193 323.561 502.759 324.159 501.247 326.991C499.705 329.795 499.388 329.455 497.794 332.194C496.165 334.893 496.185 334.92 494.497 337.561C494.509 337.573 494.443 338.35 494.455 338.362C495.888 340.014 498.255 340.076 500.501 339.51C502.119 339.104 503.431 337.377 505.076 335.854C506.451 334.58 507.708 333.053 508.865 331.03C510.017 329.006 511.205 327.26 511.771 325.037C512.447 322.373 513.044 319.881 512.849 317.416C512.572 313.994 511.103 311.463 509.314 309.721Z" fill="#0CA492"/>
  <path d="M517.339 363.225C515.722 365.096 514.277 367.237 512.581 368.264C510.546 369.491 508.386 369.174 506.636 369.28C504.199 369.416 502.038 369.202 500.902 367.19C499.765 365.178 499.968 362.248 500.577 359.112C501.015 356.854 502.394 355.034 503.562 352.569C504.538 350.514 505.503 348.428 506.917 346.467C508.335 344.506 509.222 341.967 510.71 340.659C512.499 339.092 514.648 339.131 516.367 338.748C518.738 338.217 521.156 337.256 522.679 339.436C524.199 341.612 524.792 345.94 524.359 349.565C524.054 352.182 522.784 354.709 521.534 357.35C520.488 359.549 518.952 361.358 517.339 363.225Z" fill="#83C2B4"/>
  <path d="M522.678 339.436C522.662 339.42 522.369 340.452 522.357 340.432C520.455 343.385 520.596 343.596 518.627 346.475C516.623 349.311 516.217 348.682 514.162 351.448C512.092 354.17 512.482 354.803 510.33 357.436C508.15 360.034 508.045 359.854 505.814 362.366C503.561 364.834 502.865 363.647 500.588 366.049C500.596 366.065 500.611 367.463 500.623 367.479C501.748 369.491 504.166 368.983 506.604 368.834C508.35 368.729 510.326 368.791 512.35 367.557C514.041 366.518 515.951 365.541 517.572 363.67C519.197 361.807 520.779 359.909 521.83 357.709C523.088 355.073 524.107 352.209 524.408 349.592C524.842 345.967 524.197 341.612 522.678 339.436Z" fill="#0CA492"/>
  <path d="M491.027 440.612C515.116 382.995 500.245 317.397 455.909 275.678C455.53 275.315 455.011 275.241 454.757 275.506C454.503 275.768 454.605 276.268 454.984 276.623C498.941 317.983 513.675 383.014 489.792 440.135C489.589 440.623 489.694 441.131 490.034 441.268C490.374 441.405 490.819 441.112 491.027 440.612Z" fill="#83C2B4"/>
  <path d="M458.517 434.393H517.299C517.299 434.393 526.154 461.62 504.365 478.526H471.451C448.373 460.166 458.517 434.393 458.517 434.393Z" fill="#F6F7F9"/>
  <path d="M461.799 430.666H467.51C469.033 430.666 470.291 431.983 470.553 433.721C470.814 431.983 472.072 430.666 473.596 430.666H479.307C480.607 430.666 481.717 431.627 482.174 432.991C482.635 431.627 483.744 430.666 485.041 430.666H490.756C492.166 430.666 493.354 431.799 493.725 433.354C494.1 431.799 495.287 430.666 496.697 430.666H502.408C503.928 430.666 505.189 431.983 505.451 433.721C505.713 431.983 506.971 430.666 508.49 430.666H514.209C515.912 430.666 517.299 432.33 517.299 434.393H458.705C458.705 432.33 460.092 430.666 461.799 430.666Z" fill="#644859"/>
  <path d="M350.787 437.502C317.303 422.311 249.611 409.659 240.682 418.139C224.178 443.897 123.072 519.381 380.775 499.631V499.627C382.104 500.155 383.471 500.662 384.893 501.147C438.951 513.916 476.412 510.596 518.873 512.76C520.799 512.862 521.783 472.202 521.783 472.202C505.873 469.893 365.522 439.647 350.787 437.502Z" fill="#EF5835"/>
  <path d="M604.893 472.162C611.248 469.116 611.979 464.092 615.9 464.998C621.963 466.408 617.092 480.182 584.416 511.741C580.443 511.369 574.947 500.51 574.947 500.51L585.674 494.561L581.939 485.908C581.939 485.908 597.549 475.698 604.893 472.162Z" fill="#FDBB45"/>
  <path d="M581.939 485.909L585.674 494.561L574.947 500.51L520.674 499.436L521.783 472.202L581.939 485.909Z" fill="#FFAA90"/>
  <path d="M170.179 396.01C143.155 419.631 102.351 441.53 106.163 446.85C110.593 488.088 145.733 516.401 184.929 513.881C230.128 510.967 258.878 469.405 263.991 388.514C266.468 344.143 274.511 273.561 263.714 265.143C230.151 258.635 177.921 389.241 170.179 396.01Z" fill="#F16D4E"/>
  <path d="M232.568 325.452C243.654 379.815 263.713 424.952 279.174 458.26C279.986 460.014 323.521 442.397 323.521 442.397C318.955 427.241 289.787 277.995 266.533 265.733C260.31 262.452 226.822 271.373 232.568 325.452Z" fill="#F16D4E"/>
  <path d="M338.236 493.452L333.678 502.053L318.123 496.948L298.502 452.174L323.521 442.397L338.236 493.452Z" fill="#FFAA90"/>
  <path d="M363.189 503.147C369.537 506.217 373.927 503.659 375.658 507.299C378.322 512.909 364.502 517.67 319.427 511.772C317.248 508.436 318.123 496.948 318.123 496.948L333.677 502.053L338.236 493.452C338.236 493.452 355.853 499.604 363.189 503.147Z" fill="#FDBB45"/>
  <path d="M193.013 351.42C196.759 362.131 198.275 379.799 191.47 379.799C184.666 379.799 168.365 362.768 168.365 351.42C168.365 340.077 168.091 329.467 174.896 329.467C181.705 329.467 188.599 338.807 193.013 351.42Z" fill="#FFAA90"/>
  <path d="M118.65 252.901C120.564 250.369 124.307 250.014 129.143 249.553C134.006 249.428 143.58 256.936 145.787 259.209C140.561 275.752 146.596 282.967 146.596 282.967C146.596 282.967 140.939 291.616 130.564 292.244C120.189 292.873 106.346 284.475 106.346 284.475C106.346 284.475 123.502 269.33 118.65 252.901Z" fill="#FF9A83"/>
  <path d="M128.655 246.436C128.218 239.17 139.249 220.268 145.21 219.905C151.171 219.545 153.499 219.514 157.261 225.037C161.304 230.967 158.022 235.338 158.241 238.608C158.433 241.393 161.093 244.983 162.37 247.315C161.839 248.834 159.132 250.627 159.132 250.627C159.132 250.627 158.776 253.049 159.452 253.987C157.304 255.35 156.737 256.596 156.257 258.705C155.628 261.498 155.647 265.202 154.104 266.315C150.108 269.205 140.624 264.483 138.436 262.916C131.015 257.608 129.222 255.694 128.655 246.436Z" fill="#FFAA90"/>
  <path d="M124.814 261.041C123.392 261.659 121.337 261.518 119.951 262.209C96.5561 260.565 79.7592 216.916 100.919 207.932C82.3959 178.33 134.552 181.565 123.283 199.045C140.06 200.225 160.74 207.698 156.701 224.245C155.431 222.663 153.802 220.952 152.54 220.729C148.693 220.963 150.798 222.252 142.49 228.522C127.29 239.983 128.708 259.354 124.814 261.041Z" fill="#3A3677"/>
  <path d="M132.71 241.354C126.057 236.248 125.92 247.409 127.581 250.213C128.194 251.241 129.526 253.264 130.917 253.432L132.71 241.354Z" fill="#FFAA90"/>
  <path d="M107.909 446.834C135.752 444.85 181.225 406.155 183.682 376.194C184.62 364.764 173.452 347.366 173.452 347.366C173.452 347.366 186.366 318.545 185.78 312.862C184.307 298.455 145.917 271.526 145.284 271.576C132.827 284.873 102.604 259.037 87.5142 322.455C87.5142 322.455 73.2993 449.307 107.909 446.834Z" fill="#F6F7F9"/>
  <path d="M143.498 422.487C137.506 419.127 144.221 394.647 144.221 394.647L113.127 323.19L175.396 398.514C175.396 398.514 150.26 426.28 143.498 422.487Z" fill="#E7ECF2"/>
  <path d="M108.143 315.819C121.561 335.315 157.904 401.135 175.396 398.514C186.283 396.889 203.541 379.647 187.436 363.561C165.564 342.518 160.018 293.006 151.225 288.03C114.35 267.139 108.143 315.819 108.143 315.819Z" fill="#F6F7F9"/>
  <path d="M393.955 542.467C393.967 541.686 394.158 541.03 394.572 540.491C394.986 539.948 395.646 539.487 396.756 539.19C397.244 539.069 397.717 539.01 398.166 539.01C399.619 539.01 400.939 539.6 402.186 540.577C403.424 541.553 404.549 542.916 405.51 544.287C405.51 544.287 407.064 552.127 408.811 556.28C408.678 556.139 405.576 553.467 403.908 552.373C400.58 550.217 396.896 548.151 395.611 546.565C394.572 545.334 393.951 543.756 393.955 542.467ZM391.662 542.467C391.674 544.448 392.521 546.44 393.854 548.037C395.26 549.694 397.674 551.155 400.17 552.725C402.662 554.276 405.236 555.897 406.783 557.471C407.822 558.522 408.314 559.479 408.311 560.229C408.303 560.745 408.127 561.295 407.518 562.01C406.986 562.639 406.178 563.217 405.326 563.705L406.471 565.698C407.443 565.135 408.459 564.444 409.268 563.506C410.135 562.498 410.607 561.366 410.6 560.229C410.6 560.08 410.58 559.924 410.568 559.776C412.865 563.62 416.232 566.905 421.15 568.659C430.557 568.659 437.514 568.858 448.338 568.659C466.639 559.436 462.479 535.311 462.479 535.311H405.896C405.896 535.311 405.666 537.549 405.771 540.885C405.115 540.127 404.4 539.409 403.604 538.78C402.096 537.584 400.268 536.713 398.166 536.713C397.525 536.713 396.857 536.795 396.182 536.975C394.686 537.354 393.51 538.096 392.756 539.092C391.99 540.084 391.662 541.284 391.662 542.467Z" fill="white"/>
</svg>
