<svg width="711" height="526" viewBox="0 0 711 526" fill="none" xmlns="http://www.w3.org/2000/svg">
<path d="M394.983 316.434H308.937V153.734H394.983V316.434ZM304.605 316.434H218.558V153.734H304.605V316.434ZM214.226 316.434H128.179V153.734H214.226V316.434ZM416.901 15.9062C409.558 13.8633 402.249 12.0273 394.983 10.3945V149.047H308.937V0.03125C307.495 0.015625 306.05 0.003906 304.605 0V149.047H218.558V9.87109C217.108 10.2148 215.663 10.5781 214.226 10.9453V149.047H128.179V46.7734C29.4366 107.004 -20.8134 218.742 22.5265 342.422C75.8546 494.629 192.499 445.156 243.112 465.113C300.101 487.578 296.917 495.422 319.769 503.27C367.671 519.727 416.3 510.023 455.429 497.246C541.511 469.125 603.323 389.312 611.929 298.523C628.585 122.75 469.448 30.5117 416.901 15.9062Z" fill="#D9ECFF"/>
<path d="M188.273 493.379C188.273 503.121 282.578 511.02 398.914 511.02C515.246 511.02 609.559 503.121 609.559 493.379C609.559 483.637 515.246 475.738 398.914 475.738C282.578 475.738 188.273 483.637 188.273 493.379Z" fill="#3A3677"/>
<path d="M550.926 261.953C549.727 252.777 547.055 227.848 541.504 209.66C535.95 191.465 527.719 171.137 515.137 153.566C508.977 144.973 503.274 138.535 497.196 133.102C496.903 141.984 493.325 146.047 493.325 146.047C493.325 146.047 490.11 151.637 491.325 148.746C492.536 145.856 493.985 141.945 493.836 134.508C493.809 132.961 493.579 131.344 493.231 129.738C488.02 125.539 482.426 121.871 475.973 118.063C460.094 108.703 459.063 114.246 459.063 114.246C459.063 114.246 456.129 116.52 461.211 119.277C466.29 122.031 467.501 125.258 479.512 140.688C491.524 156.125 500.489 187.215 506.411 205.078C512.333 222.938 527.508 261.328 527.508 261.328C527.508 261.328 532.61 278.984 544.481 275.922C551.993 273.984 552.118 271.133 550.926 261.953Z" fill="#45A88A"/>
<path d="M472.82 125.086C478.059 130.48 482.844 136.309 487.309 142.359C491.758 148.426 495.953 154.691 499.812 161.148C503.676 167.602 507.348 174.184 510.77 180.887C514.168 187.609 517.441 194.391 520.461 201.289C523.477 208.188 526.387 215.133 529.047 222.176C529.734 223.93 530.402 225.691 531.035 227.465L532.973 232.766C534.207 236.328 535.48 239.871 536.629 243.461C541.371 257.758 545.426 272.289 548.793 286.98C552.113 301.684 554.77 316.559 556.234 331.594C556.988 339.113 557.352 346.668 557.582 354.188C557.832 361.715 558.012 369.242 558.16 376.77C558.723 406.867 558.945 436.957 559.055 467.062L555.535 467.051C555.719 436.973 555.789 406.887 555.52 376.809C555.445 369.293 555.344 361.77 555.164 354.262C555.008 346.742 554.719 339.258 554.039 331.801C552.734 316.867 550.242 302.031 547.07 287.363C543.867 272.695 539.961 258.176 535.375 243.867C534.262 240.281 533.023 236.73 531.836 233.172L529.953 227.859C529.336 226.086 528.687 224.324 528.02 222.566C525.434 215.512 522.598 208.555 519.648 201.637C516.707 194.73 513.508 187.926 510.18 181.188C506.832 174.461 503.234 167.859 499.438 161.371C495.641 154.883 491.52 148.594 487.133 142.496C482.727 136.402 478.008 130.531 472.82 125.086Z" fill="#267256"/>
<path d="M660.434 169.008C658.203 170.73 649.203 175.008 636.168 176.812C625.121 178.34 613.828 176.352 602.938 182.988C603.649 185.894 604.68 188.996 606.164 191.5C609.965 197.891 613.25 200.453 615.805 202.266C618.36 204.082 612.684 201.031 612.684 201.031C612.684 201.031 607.953 199.691 602.621 190.055C601.551 188.125 600.871 186.32 600.465 184.656C599.344 185.488 598.223 186.418 597.11 187.469C584.465 199.422 575.906 206.957 577.75 220.977C579.59 235 572.996 238.191 578.961 248.781C584.926 259.371 602.438 256.734 608.938 244.707C613.207 236.797 616.035 216.863 626.563 208.641C646.801 192.832 656.305 196.152 661.469 179.133C664.332 169.703 662.66 167.285 660.434 169.008Z" fill="#45A88A"/>
<path d="M543.544 278.875C544.849 262.199 538.962 253.668 525.888 240.094C518.052 231.961 509.638 229.922 501.341 229.258C506.153 238.707 503.727 245.152 503.727 245.152C503.727 245.152 503.188 251.578 503.063 248.441C502.934 245.313 502.591 241.152 499.302 234.484C498.356 232.57 497.013 230.688 495.552 228.957C491.977 228.836 488.45 228.77 485.032 228.363C471.958 226.813 462.806 223.027 460.516 221.086C458.231 219.148 456.958 222 459.868 233.109C467.212 261.16 486.493 262.543 497.934 270.691C509.376 278.836 509.509 297.07 514.075 306.234C521.016 320.176 537.829 322.012 543.384 309.215C548.942 296.414 542.235 295.551 543.544 278.875Z" fill="#267256"/>
<path d="M540.366 349.008C534.722 336.77 528.351 325.77 509.015 314.18C501.042 309.402 493.952 307.32 487.53 306.172C492.542 314.422 491.636 318.73 491.636 318.73C491.636 318.73 491.702 325.18 491.28 322.07C490.862 318.965 490.132 314.855 486.23 308.52C485.624 307.535 484.905 306.566 484.109 305.633C474.796 304.352 466.921 304.496 459.788 300.137C456.112 297.887 453.081 296.074 454.917 299.418C474.866 335.758 493.941 326.629 522.499 358.031C524.96 360.73 527.085 362.609 528.823 363.918C531.972 366.277 539.39 365.914 541.015 362.32C542.409 359.234 543.03 354.789 540.366 349.008Z" fill="#267256"/>
<path d="M582.067 236.676C584.622 222.238 581.833 197.574 580.501 182.07C579.411 169.422 575.298 162.578 571.43 155.035C568.2 156.34 566.009 156.273 566.009 156.273C566.009 156.273 559.755 157.84 562.677 156.707C564.7 155.922 567.149 154.879 570.196 152.566C569.759 151.648 569.321 150.715 568.899 149.754C564.509 139.711 562.942 133.434 560.118 129.043C560.118 129.043 554.165 118.996 551.032 118.687C547.891 118.375 548.52 121.195 546.325 119.941C544.126 118.687 538.802 121.512 537.235 125.902C536.262 128.621 535.653 132.66 535.329 137.863C536.067 139.027 536.876 140.125 537.751 141.082C542.446 146.207 545.95 147.918 548.63 149.094C551.321 150.266 545.54 148.559 545.54 148.559C545.54 148.559 541.368 148.258 535.157 141.484C535.075 143.75 535.04 146.195 535.04 148.809C535.04 159.48 531.38 169.605 529.95 184.266C528.95 194.434 533.942 211.617 535.048 218.469C538.094 237.519 529.544 252.59 540.844 276.836C547.653 291.437 560.434 280.125 560.434 280.125C560.434 280.125 562.942 282.801 568.27 281.543C573.602 280.285 576.106 271.504 577.989 263.344C579.872 255.184 581.079 242.242 582.067 236.676Z" fill="#267256"/>
<path d="M608.937 253.41C614.566 243.461 620.75 234.078 633.258 223.457C645.769 212.832 653.316 204.945 663.347 200.867C673.012 196.93 680.355 193.551 689.883 192.082C699.164 190.652 704.746 191.184 706.019 189.281C706.93 187.906 705.578 187.293 699.504 187.602C690.199 188.082 688.117 185.641 675.601 187.141C663.082 188.648 655.129 186.195 646.543 191.254C637.949 196.32 625.68 199.641 617.133 206.523C608.582 213.41 601.57 218.141 598.676 222.961C592.957 232.504 588.445 238.707 586.457 246.137C582.289 261.723 584.504 262.41 584.019 267.891C583.539 273.371 587.476 276.316 590.367 277.242C599.332 280.109 601.16 267.164 608.937 253.41Z" fill="#267256"/>
<path d="M547.324 128.16C548.246 131.676 548.891 135.27 549.547 138.848C550.191 142.434 550.781 146.023 551.328 149.625C552.43 156.824 553.391 164.047 554.25 171.277C555.094 178.508 555.828 185.758 556.484 193.012C557.105 200.27 557.672 207.535 558.105 214.805C559.012 229.344 559.672 243.895 560.227 258.453C560.777 273.004 561.223 287.562 561.566 302.125C561.887 316.691 562.176 331.254 562.125 345.84C562.133 349.48 562.02 353.16 561.945 356.781L561.738 367.691L561.426 389.523L560.512 476.891L556.988 476.84L558.785 389.48L559.316 367.641L559.633 356.711C559.75 353.055 559.895 349.453 559.926 345.816C560.129 331.281 559.984 316.711 559.805 302.16C559.609 287.602 559.312 273.051 558.906 258.496C558.5 243.945 557.988 229.391 557.227 214.855C556.867 207.586 556.371 200.324 555.828 193.066C555.246 185.813 554.586 178.562 553.812 171.328C553.031 164.09 552.141 156.863 551.113 149.652C550.598 146.059 550.047 142.457 549.441 138.871C548.82 135.277 548.207 131.688 547.324 128.16Z" fill="#45A88A"/>
<path d="M462.633 229.535C462.762 229.922 463.105 230.152 463.398 230.402C463.723 230.625 464.055 230.832 464.395 231.02C465.078 231.406 465.777 231.754 466.48 232.09L470.742 234.062C473.582 235.375 476.395 236.742 479.156 238.23C484.66 241.211 489.941 244.66 494.676 248.793C497.039 250.855 499.273 253.07 501.32 255.457C502.352 256.645 503.32 257.875 504.328 259.074L507.242 262.766C511.062 267.734 514.629 272.91 517.871 278.293C524.371 289.035 529.465 300.633 533.184 312.633C536.68 324.68 540.406 336.605 543.934 348.648C547.457 360.672 550.754 372.781 553.426 385.062C554.738 391.203 555.867 397.395 556.738 403.637C557.566 409.883 557.969 416.238 558.129 422.492C558.488 435.035 558.562 447.574 558.523 460.102C558.484 472.645 558.328 485.168 558.074 497.703L554.551 497.605C554.957 485.105 555.25 472.586 555.441 460.082C555.625 447.57 555.699 435.055 555.484 422.555C555.402 416.289 555.086 410.133 554.34 403.945C553.551 397.773 552.508 391.625 551.27 385.512C548.766 373.281 545.621 361.176 542.238 349.129C538.867 337.09 535.27 325.066 531.918 313.023C528.363 301.059 523.449 289.504 517.113 278.742C513.957 273.355 510.465 268.164 506.715 263.168L503.855 259.453C502.871 258.246 501.91 257 500.906 255.812C498.902 253.43 496.711 251.199 494.387 249.121C489.73 244.961 484.512 241.461 479.051 238.426C476.316 236.902 473.52 235.508 470.691 234.16L466.461 232.137C465.754 231.793 465.059 231.434 464.379 231.047C464.039 230.855 463.711 230.645 463.395 230.41C463.102 230.16 462.754 229.922 462.633 229.535Z" fill="#45A88A"/>
<path d="M660.176 172.816C656.078 178.102 651.066 182.648 645.535 186.406C639.992 190.16 633.969 193.117 628.332 196.664C625.52 198.453 622.777 200.359 620.332 202.609C619.051 203.672 617.961 204.934 616.793 206.105C616.234 206.723 615.734 207.387 615.199 208.023C614.684 208.668 614.133 209.293 613.66 209.98C609.676 215.328 606.035 220.934 602.625 226.656C600.906 229.516 599.32 232.449 597.723 235.375L595.441 239.824C594.68 241.305 593.988 242.828 593.258 244.324C590.406 250.348 587.809 256.492 585.438 262.723C580.727 275.199 576.937 288.012 573.945 301.004C570.953 313.996 568.766 327.168 567.359 340.414C566.66 347.039 566.148 353.684 565.91 360.332C565.781 363.645 565.777 366.992 565.742 370.332L565.652 380.352L564.938 460.547L561.414 460.508L563.016 380.297L563.211 370.277C563.281 366.934 563.32 363.594 563.488 360.23C563.805 353.523 564.395 346.836 565.172 340.172C566.73 326.852 569.082 313.629 572.23 300.598C575.391 287.574 579.34 274.734 584.203 262.25C586.652 256.012 589.336 249.871 592.27 243.844C593.02 242.348 593.73 240.832 594.512 239.348L596.852 234.906C598.488 231.984 600.109 229.055 601.871 226.207C605.359 220.488 609.07 214.906 613.133 209.586C613.613 208.902 614.18 208.27 614.711 207.625C615.262 206.984 615.773 206.316 616.344 205.703C617.539 204.523 618.66 203.254 619.965 202.199C622.465 199.949 625.258 198.059 628.098 196.289C633.801 192.789 639.844 189.902 645.414 186.223C650.973 182.539 656.023 178.059 660.176 172.816Z" fill="#267256"/>
<path d="M458.656 301.375C464.406 308.09 471.359 313.66 478.84 318.301C486.344 322.926 494.281 326.781 502.129 330.824C506.066 332.828 509.937 334.969 513.762 337.207L516.578 338.965C517.523 339.547 518.461 340.137 519.363 340.789L522.098 342.688C523 343.332 523.855 344.043 524.738 344.723C526.531 346.047 528.148 347.578 529.82 349.047L530.441 349.609L531.023 350.203L532.195 351.398C532.965 352.211 533.781 352.973 534.5 353.82L536.652 356.383L537.727 357.668L538.699 359.035L540.637 361.766C540.977 362.211 541.266 362.688 541.551 363.172L542.406 364.605C547.027 372.262 550.227 380.699 552.426 389.32C553.605 393.621 554.316 398.02 555.105 402.406C555.641 406.816 556.312 411.219 556.539 415.66C557.867 433.398 557.078 451.191 555.355 468.824L551.859 468.453C553.855 450.98 554.93 433.367 553.906 415.844C553.75 411.453 553.164 407.105 552.715 402.75C552.008 398.43 551.387 394.09 550.293 389.848C548.27 381.348 545.281 373.051 540.895 365.508L540.078 364.09C539.812 363.609 539.539 363.137 539.219 362.699L537.363 360.004L536.434 358.652L535.406 357.387L533.348 354.84C532.656 353.996 531.863 353.238 531.125 352.434L530.004 351.238L529.438 350.645L528.836 350.094C527.219 348.621 525.66 347.078 523.914 345.758C523.055 345.074 522.227 344.363 521.344 343.707L518.68 341.789C517.801 341.125 516.875 340.531 515.957 339.938L513.191 338.148C509.43 335.863 505.617 333.668 501.715 331.605C493.953 327.434 486.055 323.437 478.602 318.668C471.176 313.895 464.289 308.188 458.656 301.375Z" fill="#45A88A"/>
<path d="M694.352 189.699C687.145 190.543 680.016 191.953 673.067 194C671.344 194.555 669.598 195.047 667.891 195.652L662.817 197.582C659.501 199.027 656.161 200.449 653.001 202.215C646.63 205.629 640.528 209.586 635.001 214.262C633.555 215.355 632.247 216.602 630.907 217.812C629.587 219.047 628.192 220.203 626.969 221.539L623.188 225.43C621.981 226.773 620.821 228.16 619.633 229.527C619.051 230.215 618.446 230.883 617.872 231.586L616.227 233.738C615.141 235.184 614.008 236.59 612.95 238.059L609.899 242.543C609.399 243.293 608.86 244.023 608.391 244.797L606.985 247.113L604.18 251.754L601.606 256.531L600.321 258.914C599.883 259.711 599.524 260.543 599.122 261.348L596.778 266.242C590.68 279.363 586.059 293.137 582.305 307.109C578.54 321.086 575.79 335.328 573.645 349.641C573.376 351.434 573.079 353.215 572.837 355.012L572.153 360.398C571.719 363.996 571.192 367.574 570.876 371.188L569.794 381.992L568.965 392.828C568.837 394.629 568.669 396.43 568.575 398.242L568.294 403.668C568.114 407.285 567.872 410.898 567.755 414.516C567.536 421.758 567.227 428.996 567.208 436.238C567.176 439.863 567.11 443.484 567.098 447.105C567.098 450.727 567.126 454.344 567.2 457.957C567.27 461.566 567.391 465.18 567.61 468.758C567.731 470.547 567.864 472.336 568.075 474.082C568.176 474.961 568.305 475.828 568.458 476.652C568.536 477.066 568.622 477.469 568.727 477.824C568.77 478.031 568.825 478.129 568.876 478.285C568.891 478.336 568.903 478.328 568.911 478.363C568.915 478.367 568.86 478.27 568.813 478.234C568.798 478.223 568.786 478.195 568.622 478.059C568.391 477.98 568.653 477.875 567.594 477.742L567.653 481.258C566.536 481.121 566.755 480.965 566.481 480.855C566.266 480.687 566.219 480.613 566.173 480.559C566.067 480.43 565.926 480.242 565.883 480.152C565.794 479.977 565.688 479.773 565.622 479.613C565.528 479.34 565.403 479.023 565.356 478.785C565.204 478.262 565.114 477.781 565.02 477.301C564.856 476.34 564.727 475.406 564.633 474.484C564.426 472.625 564.309 470.793 564.204 468.965C564.02 465.301 563.938 461.648 563.899 458.008C563.86 454.359 563.872 450.727 563.911 447.09C563.954 443.449 564.059 439.82 564.133 436.184C564.223 428.914 564.61 421.652 564.899 414.391C565.048 410.754 565.333 407.129 565.548 403.5L565.891 398.059C565.997 396.246 566.188 394.434 566.333 392.621L567.278 381.754L568.469 370.914C568.825 367.289 569.391 363.699 569.864 360.094L570.602 354.688C570.868 352.887 571.184 351.098 571.473 349.305C573.774 334.945 576.68 320.66 580.606 306.641C584.528 292.633 589.313 278.824 595.583 265.68L597.997 260.781C598.407 259.969 598.774 259.137 599.223 258.348L603.184 251.176L606.055 246.531L607.493 244.211C607.969 243.438 608.52 242.711 609.032 241.961L612.153 237.48C613.231 236.012 614.38 234.602 615.489 233.16L617.173 231.012C617.755 230.309 618.368 229.637 618.965 228.953C620.173 227.59 621.356 226.207 622.583 224.867L626.426 220.988C627.676 219.66 629.087 218.508 630.43 217.281C631.79 216.074 633.118 214.836 634.583 213.746C640.188 209.102 646.364 205.191 652.798 201.82C655.989 200.082 659.348 198.688 662.692 197.27L667.801 195.395C669.52 194.801 671.274 194.328 673.008 193.789C679.989 191.805 687.141 190.473 694.352 189.699Z" fill="#45A88A"/>
<path d="M668.968 212.996C667.608 209.809 666.3 208.98 660.964 210.176C655.632 211.371 650.269 220.293 640.999 227.59C640.761 227.781 640.511 227.98 640.265 228.18C640.038 229.32 639.886 230.461 639.847 231.559C639.624 238.164 640.866 241.66 641.909 244.246C642.808 246.473 637.515 239.703 636.46 231.527C627.417 239.937 615.632 253.777 607.312 263.988C597.515 276.02 593.23 285.344 588.151 297.906C583.085 310.469 586.98 312.098 586.995 321.973C587.007 331.836 589.827 336.262 591.573 337.508C591.573 337.508 595.862 342.109 605.175 338.719C611.386 336.457 614.476 332.922 620.355 327.426C626.23 321.922 635.089 306.051 638.944 296.734C641.163 291.371 642.569 287.375 644.101 283.418C634.862 285.277 631.101 283.078 631.101 283.078C631.101 283.078 624.612 280.953 627.874 281.586C631.128 282.223 635.495 282.879 643.163 281.121C643.858 280.961 644.558 280.758 645.253 280.527C646.069 278.543 646.968 276.492 648.073 274.207C651.968 266.18 665.085 240.125 667.503 233.199C669.913 226.281 670.323 216.184 668.968 212.996Z" fill="#45A88A"/>
<path d="M664.964 214.188C662.886 219.609 660.253 224.805 657.491 229.91C654.706 235.008 651.694 239.977 648.511 244.84C645.335 249.711 641.921 254.402 638.792 259.281C635.647 264.156 632.605 269.094 629.616 274.066C623.663 284.016 617.933 294.113 612.241 304.223C609.39 309.281 606.542 314.34 603.62 319.363L600.437 325.035L599.448 326.961L597.464 330.82C596.812 332.105 596.226 333.426 595.601 334.734C593.101 339.941 590.94 345.312 588.851 350.699C586.87 356.129 584.976 361.594 583.366 367.145C581.683 372.676 580.292 378.293 578.964 383.91C577.718 389.559 576.565 395.223 575.632 400.926C573.73 412.332 572.48 423.844 571.788 435.379C571.456 441.148 571.269 446.922 571.245 452.699C571.233 458.457 571.339 464.273 571.749 469.949L568.233 470.227C567.886 464.313 567.862 458.508 567.948 452.664C568.042 446.824 568.304 441 568.714 435.18C569.558 423.543 570.968 411.953 573.03 400.48C574.046 394.738 575.276 389.035 576.612 383.359C578.022 377.707 579.491 372.059 581.261 366.508C582.952 360.926 584.929 355.434 587.003 349.988C589.179 344.578 591.425 339.199 594.011 333.973C594.655 332.668 595.261 331.344 595.944 330.055L597.987 326.191L599.015 324.254L600.105 322.367L602.296 318.582C605.269 313.605 608.179 308.586 611.097 303.566C616.917 293.527 622.776 283.496 628.866 273.605C631.921 268.664 635.034 263.762 638.241 258.918C641.44 254.062 644.917 249.41 648.147 244.594C651.382 239.781 654.448 234.855 657.304 229.805C660.12 224.738 662.815 219.582 664.964 214.188Z" fill="#267256"/>
<path d="M702.575 308.195C695.095 310.199 690.798 305.836 677.427 309.008C665.02 311.961 654.43 311.711 646.774 314.91C646.337 315.418 645.927 315.934 645.555 316.461C641.251 322.523 640.243 326.574 639.618 329.648C639.145 331.988 638.489 324.777 641.126 317.328C634.153 319.598 625.169 319.902 606.727 327.551C584.372 336.824 572.376 363.621 585.743 375.379C590.282 379.371 595.696 374.449 595.696 374.449C605.848 365.996 624.11 340.246 691.048 316.457C703.559 312.004 706.93 310.883 709.774 308.715C712.618 306.559 710.063 306.203 702.575 308.195Z" fill="#267256"/>
<path d="M700.808 312.484C690.457 314.539 680.281 317.434 670.296 320.816C665.308 322.523 660.371 324.391 655.496 326.391C650.625 328.398 645.836 330.613 641.117 332.945C631.722 337.695 622.632 343.098 614.324 349.543C605.957 355.895 598.461 363.383 592.296 371.832C591.546 372.898 590.847 374.004 590.117 375.09L589.035 376.723C588.691 377.281 588.386 377.859 588.062 378.426L586.136 381.828C585.566 383 585.019 384.188 584.461 385.367L583.625 387.137C583.371 387.734 583.136 388.348 582.894 388.953C582.414 390.172 581.886 391.371 581.464 392.609C581.031 393.852 580.566 395.074 580.156 396.312L578.961 400.059C575.968 410.102 573.968 420.449 572.773 430.875C571.562 441.309 571.062 451.828 571.129 462.332C571.222 472.82 571.781 483.387 573.097 493.723L569.609 494.195C568.402 483.551 567.996 472.965 568.054 462.332C568.129 451.715 568.781 441.094 570.152 430.555C571.511 420.016 573.679 409.562 576.863 399.41L578.129 395.617C578.566 394.359 579.054 393.121 579.511 391.871C579.957 390.621 580.504 389.402 581.011 388.168C581.269 387.559 581.515 386.941 581.789 386.328L582.664 384.527C583.257 383.328 583.832 382.117 584.437 380.926L586.453 377.469C586.796 376.891 587.113 376.309 587.476 375.746L588.601 374.09C589.363 372.992 590.089 371.875 590.875 370.797C597.277 362.266 604.992 354.789 613.523 348.492C622.004 342.098 631.23 336.797 640.726 332.148C645.504 329.875 650.328 327.723 655.25 325.777C660.164 323.84 665.136 322.039 670.156 320.398C680.203 317.152 690.429 314.395 700.808 312.484Z" fill="#45A88A"/>
<path d="M530.742 427.191C529.871 427.191 529.152 427.887 529.137 428.762C529.125 429.727 529.121 430.691 529.121 431.664C529.121 457.484 533.789 480.68 541.211 496.605C541.473 497.168 542.039 497.523 542.664 497.523H584.27C584.887 497.523 585.461 497.168 585.719 496.605C593.141 480.68 597.812 457.484 597.812 431.664C597.812 430.691 597.805 429.727 597.789 428.762C597.777 427.887 597.062 427.191 596.188 427.191H530.742Z" fill="url(#paint0_linear)"/>
<path d="M597.422 444.434H536.273L596.539 454.582C596.918 451.277 597.211 447.887 597.422 444.434Z" fill="#3A3677"/>
<path d="M298.266 497.703H304.391C305.707 497.703 306.777 496.629 306.777 495.316L322.496 436.309C322.496 434.996 321.426 433.918 320.113 433.918H306.016C304.707 433.918 303.629 434.996 303.629 436.309L295.875 495.316C295.875 496.629 296.953 497.703 298.266 497.703Z" fill="#DAA074"/>
<path d="M335.758 484.145H339.32C340.086 484.145 340.707 483.523 340.707 482.754L349.844 448.465C349.844 447.703 349.223 447.078 348.457 447.078H340.27C339.504 447.078 338.879 447.703 338.879 448.465L334.375 482.754C334.375 483.523 334.996 484.145 335.758 484.145Z" fill="#BC7E55"/>
<path d="M485.906 497.703H479.777C478.469 497.703 477.391 496.629 477.391 495.316L461.672 436.309C461.672 434.996 462.746 433.918 464.062 433.918H478.152C479.469 433.918 480.539 434.996 480.539 436.309L488.293 495.316C488.293 496.629 487.219 497.703 485.906 497.703Z" fill="#BC7E55"/>
<path d="M448.41 484.145H444.848C444.09 484.145 443.461 483.523 443.461 482.754L434.324 448.465C434.324 447.703 434.953 447.078 435.715 447.078H443.906C444.668 447.078 445.293 447.703 445.293 448.465L449.797 482.754C449.797 483.523 449.172 484.145 448.41 484.145Z" fill="#BC7E55"/>
<path d="M84.9414 493.379C84.9414 499.234 123.297 503.984 170.605 503.984C217.922 503.984 256.277 499.234 256.277 493.379C256.277 487.523 217.922 482.777 170.605 482.777C123.297 482.777 84.9414 487.523 84.9414 493.379Z" fill="#3A3677"/>
<path d="M0 496.68C0 499.609 14.9141 501.988 33.3086 501.988C51.7031 501.988 66.6133 499.609 66.6133 496.68C66.6133 493.75 51.7031 491.375 33.3086 491.375C14.9141 491.375 0 493.75 0 496.68Z" fill="#3A3677"/>
<path d="M218.043 512.512C218.043 519.957 242.062 525.988 271.688 525.988C301.32 525.988 325.332 519.957 325.332 512.512C325.332 505.066 301.32 499.031 271.688 499.031C242.062 499.031 218.043 505.066 218.043 512.512Z" fill="#3A3677"/>
<path d="M535.192 306.664C515.363 293.426 502.774 300.711 500.996 295.48C498.891 289.297 501.238 268.156 498.727 258.48C497.258 252.801 493.93 247.57 472.903 244.121C447.61 239.977 420.051 238.137 392.086 238.281C364.117 238.137 336.563 239.977 311.266 244.121C290.242 247.57 286.91 252.801 285.442 258.48C282.93 268.156 285.278 289.297 283.176 295.48C281.399 300.711 268.805 293.426 248.977 306.664C217.821 327.457 261.824 432.648 285.235 450.871C292.598 456.602 304.613 455.75 306.879 455.836C348.539 457.375 371.328 458.156 391.832 458.156C391.914 458.156 392 458.156 392.086 458.156C392.172 458.156 392.254 458.156 392.336 458.156C412.848 458.156 435.629 457.375 477.297 455.836C479.555 455.75 491.57 456.602 498.934 450.871C522.344 432.648 566.348 327.457 535.192 306.664Z" fill="#DAA074"/>
<path d="M540.872 313.738C539.345 312.918 537.7 312.172 535.942 311.531C530.313 309.477 524.626 310.098 522.595 310.324C522.595 310.324 513.02 311.422 504.106 319.305C478.165 342.231 492.653 406.336 476.126 410.793C458.509 415.535 425.462 415.266 392.704 415.145C392.497 415.145 392.294 415.145 392.087 415.145C391.876 415.145 391.673 415.145 391.466 415.145C358.708 415.266 325.661 415.535 308.044 410.793C291.516 406.336 306.009 342.231 280.063 319.305C271.149 311.422 261.575 310.324 261.575 310.324C259.544 310.098 253.86 309.477 248.227 311.531C246.47 312.172 244.829 312.918 243.302 313.738C225.048 344.223 264.052 434.707 285.602 451.48C292.966 457.207 304.981 456.352 307.247 456.445C343.052 457.973 366.856 459.098 391.466 459.176V459.18C391.673 459.18 391.876 459.18 392.087 459.18C392.294 459.18 392.497 459.18 392.704 459.18V459.176C417.321 459.098 441.118 457.973 476.931 456.445C479.192 456.352 491.208 457.207 498.567 451.48C520.118 434.707 559.13 344.223 540.872 313.738Z" fill="#FFCC8A"/>
<path d="M500.996 295.48C498.891 289.297 501.238 268.156 498.727 258.48C497.258 252.801 493.93 247.57 472.902 244.121C447.609 239.977 420.051 238.137 392.086 238.281C364.117 238.137 336.562 239.977 311.266 244.121C290.242 247.57 286.91 252.801 285.441 258.48C282.93 268.156 285.277 289.297 283.176 295.48C282.758 296.719 281.723 297.254 280.141 297.523C284.277 297.68 292.227 298.715 300.164 303.766C320.078 316.457 320.57 365.172 320.715 365.152C320.719 365.145 320.703 365.078 320.707 365.035C320.801 364.398 463.09 364.398 463.184 365.035C463.187 365.078 463.172 365.145 463.176 365.152C463.32 365.172 463.812 316.457 483.727 303.766C491.812 298.613 499.918 297.641 503.988 297.52C502.426 297.242 501.41 296.707 500.996 295.48Z" fill="#FFCC8A"/>
<path d="M482.32 368.602C477.027 359.785 464.093 357.195 456.679 356.469C432.625 354.117 351.547 354.117 327.496 356.469C320.078 357.195 307.14 359.785 301.851 368.602C297.007 376.684 305.047 400.965 307.351 404.934C308.82 407.473 310.777 408.148 311.543 408.293C329.453 411.711 454.714 411.711 472.625 408.293C473.39 408.148 475.347 407.473 476.816 404.934C479.121 400.965 487.164 376.684 482.32 368.602Z" fill="#FFCC8A"/>
<path d="M174.871 125.324H274.504C281.004 125.324 286.273 130.594 286.273 137.102V183.961C286.273 190.465 281.004 195.742 274.504 195.742H201.727L188.309 208.008V195.742H174.871C168.375 195.742 163.102 190.465 163.102 183.961V137.102C163.102 130.594 168.375 125.324 174.871 125.324Z" fill="url(#paint1_linear)"/>
<path d="M245.852 180.148C245.852 181.578 244.691 182.738 243.258 182.738C241.832 182.738 240.668 181.578 240.668 180.148C240.668 178.715 241.832 177.551 243.258 177.551C244.691 177.551 245.852 178.715 245.852 180.148Z" fill="white"/>
<path d="M256.594 180.148C256.594 181.578 255.434 182.738 254.004 182.738C252.57 182.738 251.41 181.578 251.41 180.148C251.41 178.715 252.57 177.551 254.004 177.551C255.434 177.551 256.594 178.715 256.594 180.148Z" fill="white"/>
<path d="M267.336 180.148C267.336 181.578 266.172 182.738 264.746 182.738C263.312 182.738 262.156 181.578 262.156 180.148C262.156 178.715 263.312 177.551 264.746 177.551C266.172 177.551 267.336 178.715 267.336 180.148Z" fill="white"/>
<path d="M267.211 145.445H207.535C206.098 145.445 204.93 144.285 204.93 142.844C204.93 141.406 206.098 140.238 207.535 140.238H267.211C268.645 140.238 269.812 141.406 269.812 142.844C269.812 144.285 268.645 145.445 267.211 145.445Z" fill="white"/>
<path d="M267.211 157.887H180.398C178.961 157.887 177.797 156.719 177.797 155.285C177.797 153.844 178.961 152.676 180.398 152.676H267.211C268.645 152.676 269.812 153.844 269.812 155.285C269.812 156.719 268.645 157.887 267.211 157.887Z" fill="white"/>
<path d="M267.211 170.328H180.398C178.961 170.328 177.797 169.16 177.797 167.727C177.797 166.285 178.961 165.117 180.398 165.117H267.211C268.645 165.117 269.812 166.285 269.812 167.727C269.812 169.16 268.645 170.328 267.211 170.328Z" fill="white"/>
<path d="M233.016 182.766H180.398C178.961 182.766 177.797 181.598 177.797 180.16C177.797 178.727 178.961 177.559 180.398 177.559H233.016C234.449 177.559 235.617 178.727 235.617 180.16C235.617 181.598 234.449 182.766 233.016 182.766Z" fill="white"/>
<path d="M347.434 113.75H266.633C261.363 113.75 257.094 118.023 257.094 123.301V161.305C257.094 166.578 261.363 170.855 266.633 170.855H325.656L336.535 180.805V170.855H347.434C352.703 170.855 356.977 166.578 356.977 161.305V123.301C356.977 118.023 352.703 113.75 347.434 113.75Z" fill="#3A3677"/>
<path d="M324.195 158.207C324.195 159.371 323.258 160.316 322.098 160.316C320.934 160.316 319.992 159.371 319.992 158.207C319.992 157.047 320.934 156.105 322.098 156.105C323.258 156.105 324.195 157.047 324.195 158.207Z" fill="white"/>
<path d="M332.902 158.207C332.902 159.371 331.965 160.316 330.805 160.316C329.645 160.316 328.707 159.371 328.707 158.207C328.707 157.047 329.645 156.105 330.805 156.105C331.965 156.105 332.902 157.047 332.902 158.207Z" fill="white"/>
<path d="M341.617 158.207C341.617 159.371 340.68 160.316 339.52 160.316C338.359 160.316 337.414 159.371 337.414 158.207C337.414 157.047 338.359 156.105 339.52 156.105C340.68 156.105 341.617 157.047 341.617 158.207Z" fill="white"/>
<path d="M341.52 130.07H293.121C291.953 130.07 291.012 129.125 291.012 127.957C291.012 126.793 291.953 125.848 293.121 125.848H341.52C342.68 125.848 343.629 126.793 343.629 127.957C343.629 129.125 342.68 130.07 341.52 130.07Z" fill="white"/>
<path d="M341.52 140.16H271.117C269.949 140.16 269.004 139.215 269.004 138.047C269.004 136.879 269.949 135.934 271.117 135.934H341.52C342.68 135.934 343.629 136.879 343.629 138.047C343.629 139.215 342.68 140.16 341.52 140.16Z" fill="white"/>
<path d="M341.52 150.25H271.117C269.949 150.25 269.004 149.305 269.004 148.137C269.004 146.969 269.949 146.023 271.117 146.023H341.52C342.68 146.023 343.629 146.969 343.629 148.137C343.629 149.305 342.68 150.25 341.52 150.25Z" fill="white"/>
<path d="M313.781 160.336H271.117C269.949 160.336 269.004 159.391 269.004 158.227C269.004 157.059 269.949 156.113 271.117 156.113H313.781C314.949 156.113 315.891 157.059 315.891 158.227C315.891 159.391 314.949 160.336 313.781 160.336Z" fill="white"/>
<path d="M291.477 344.918C293.481 336.75 307.095 325.84 318.493 323.937C329.688 322.07 335.481 323.684 345.095 324.711C378.903 328.336 411.638 360.215 447.263 361.266C447.856 361.281 448.845 361.133 449.97 361.594C453.997 363.234 455.927 373.379 454.059 375.027C453.622 375.41 453.059 375.457 452.903 375.441C404.688 369.875 358.364 379.148 316.177 373.504C304.04 371.875 300.626 368.68 297.177 365.836C291.38 361.047 289.727 352.031 291.477 344.918Z" fill="#F9B09B"/>
<path d="M308.641 438.637C320.895 411.805 334.297 352.84 339.098 342.449C343.75 332.371 346.578 329.16 348.594 327.242C354.715 321.402 361.684 319.504 369.492 317.73C389.344 313.215 400.484 313.785 425.426 310.125C428.898 309.613 441.434 307.746 457.73 308.227C466.504 308.477 469.371 310.754 471.977 312.621C483.066 320.559 478.875 339.738 477.68 343.398C476.723 346.316 472.852 355.863 462.477 360.102C458.355 361.781 452.129 362.766 439.68 361.648C430.816 360.848 425.848 360.332 417.945 359.742C410.844 359.215 382.105 356.93 375.312 364.68C371.848 368.621 371.871 374.785 371.516 379.531C369.598 405.055 349.578 425.043 334.277 445.094C325.156 444.445 316.102 442.711 308.641 438.637Z" fill="#312553"/>
<path d="M348.984 375.406C359.761 375.406 370.527 374.973 381.921 374.516C393.359 374.062 405.183 373.59 417.058 373.59H418.644L418.71 373.289C420.027 367.414 420.39 361.121 419.788 354.59L419.769 354.352L419.546 354.262C410.527 350.781 401.507 346.191 392.781 341.754C377.222 333.84 361.144 325.656 345.132 323.945C343.171 323.727 341.378 323.496 339.648 323.273C335.667 322.754 332.238 322.305 328.226 322.305C325.116 322.305 321.913 322.59 318.429 323.172C307.234 325.039 293.183 335.973 291.097 344.438C289.476 351.043 290.609 360.527 296.929 365.746L297.359 366.102C300.648 368.832 304.378 371.926 316.124 373.5C325.843 374.801 336.284 375.406 348.984 375.406Z" fill="#403DA1"/>
<path d="M353.844 344.816C351.691 342.973 349.262 341.559 346.727 340.375C344.195 339.203 341.527 338.309 338.809 337.664C336.086 337.023 333.305 336.656 330.512 336.578C327.715 336.512 324.91 336.707 322.168 337.406C324.891 338.18 327.543 338.727 330.176 339.32C332.809 339.898 335.414 340.48 338.012 341.082C340.605 341.691 343.199 342.316 345.816 342.973C348.438 343.605 351.059 344.293 353.844 344.816Z" fill="#3A3677"/>
<path d="M285.312 472.059C287.152 467.375 296.91 462.871 308.32 439.359C308.351 439.293 308.371 439.219 308.406 439.152C320.722 412.566 334.265 352.906 339.097 342.449C343.75 332.371 346.578 329.16 348.594 327.242C354.715 321.402 361.683 319.504 369.492 317.73C389.344 313.215 400.484 313.785 425.426 310.125C428.898 309.613 441.433 307.746 457.73 308.227C466.504 308.477 469.371 310.754 471.976 312.621C483.066 320.559 478.875 339.738 477.68 343.398C476.722 346.316 472.851 355.863 462.476 360.102C458.355 361.781 452.129 362.766 439.68 361.648C430.816 360.848 425.847 360.332 417.945 359.742C410.844 359.215 382.105 356.93 375.312 364.68C371.847 368.621 371.871 374.785 371.515 379.531C368.789 415.852 329.41 440.961 319.109 470.98C316.07 479.836 312.215 482.059 308.918 484.777C301.086 491.258 287.582 493.473 283.496 488.414C280.406 484.59 283.262 477.289 285.312 472.059Z" fill="#F9B09B"/>
<path d="M334.582 445.328C337.242 441.836 340.109 438.281 342.879 434.832C356.363 418.086 370.305 400.758 371.898 379.559C371.937 379.02 371.969 378.465 372.008 377.891C372.297 373.41 372.621 368.332 375.602 364.93C378.773 361.316 387.695 359.402 401.406 359.402C408.25 359.402 414.535 359.875 417.559 360.102L417.918 360.125C423.609 360.555 427.742 360.938 432.977 361.422C434.992 361.605 437.168 361.809 439.645 362.027C443.184 362.348 446.398 362.512 449.191 362.512C454.93 362.512 459.195 361.859 462.621 360.461C473.215 356.129 477.105 346.402 478.047 343.523C478.602 341.809 480.012 335.973 479.824 329.602C479.578 321.684 476.945 315.699 472.203 312.305L471.938 312.109C469.309 310.227 466.328 308.086 457.742 307.836C455.992 307.785 454.207 307.758 452.438 307.758C438.883 307.758 428.793 309.238 425.477 309.727L425.371 309.742C415.336 311.215 407.449 312.012 400.496 312.715C390.188 313.754 381.285 314.656 369.41 317.352C361.5 319.148 354.457 321.113 348.328 326.957C346.117 329.063 343.246 332.539 338.742 342.289C336.875 346.336 333.781 357.457 329.859 371.539C323.59 394.039 315.793 422.047 308.289 438.473L308.141 438.801L308.457 438.977C315.082 442.59 323.52 444.719 334.25 445.477L334.453 445.496L334.582 445.328Z" fill="#282582"/>
<path d="M460.579 348.719C463.177 348.734 463.735 350.121 468.177 350.621C469.72 350.797 469.149 350.793 470.43 350.621C472.438 350.359 474.138 347.973 478.618 347.656C489.427 346.887 500.391 363.934 500.477 367.734C500.622 373.926 495.473 376.352 490.977 377.246C484.907 378.453 479.973 377.602 477.68 377.246C460.411 374.566 451.282 378.02 449.177 373.445C448.255 371.434 449.333 369.297 447.278 365.836C446.243 364.09 445.2 363.34 445.38 362.031C445.583 360.527 447.134 360.242 449.177 358.23C451.626 355.824 450.876 354.766 452.981 352.52C453.466 352.004 456.552 348.695 460.579 348.719Z" fill="white"/>
<path d="M468.176 354.422C469.453 354.75 470.727 355.016 471.941 355.422C473.152 355.805 474.309 356.313 475.359 356.941C477.523 358.27 479.562 359.781 481.438 361.473C483.328 363.16 485.039 365.039 486.637 367.035C487.426 368.035 488.199 369.063 488.91 370.137C489.648 371.199 490.32 372.301 490.977 373.445C490.715 372.148 490.246 370.902 489.727 369.688C489.457 369.074 489.148 368.492 488.855 367.898C488.531 367.32 488.203 366.734 487.844 366.18C486.426 363.93 484.699 361.855 482.711 360.066C480.719 358.273 478.473 356.762 476.047 355.633C474.797 355.051 473.465 354.707 472.141 354.523C470.809 354.352 469.492 354.332 468.176 354.422Z" fill="url(#paint2_linear)"/>
<path d="M465.874 365.43C465.788 366.547 465.976 367.641 466.304 368.691C466.636 369.738 467.124 370.73 467.742 371.645C468.359 372.555 469.105 373.383 469.952 374.078C470.808 374.766 471.757 375.344 472.835 375.668C472.242 374.719 471.624 373.883 471.034 373.051C470.441 372.223 469.874 371.402 469.308 370.582C468.749 369.754 468.202 368.918 467.648 368.062C467.085 367.207 466.542 366.328 465.874 365.43Z" fill="#1E1735"/>
<path d="M461.628 365.43C461.538 366.547 461.726 367.641 462.054 368.691C462.39 369.738 462.878 370.73 463.495 371.645C464.116 372.555 464.854 373.383 465.71 374.078C466.558 374.766 467.507 375.344 468.585 375.668C467.991 374.719 467.374 373.883 466.792 373.051C466.198 372.223 465.624 371.402 465.058 370.582C464.499 369.754 463.956 368.918 463.397 368.062C462.839 367.207 462.292 366.328 461.628 365.43Z" fill="#1E1735"/>
<path d="M457.386 365.43C457.296 366.547 457.483 367.641 457.808 368.691C458.144 369.738 458.632 370.73 459.249 371.645C459.866 372.555 460.612 373.383 461.46 374.078C462.315 374.766 463.265 375.344 464.339 375.668C463.749 374.719 463.132 373.883 462.542 373.051C461.948 372.223 461.382 371.402 460.815 370.582C460.257 369.754 459.706 368.918 459.155 368.062C458.593 367.207 458.046 366.328 457.386 365.43Z" fill="#1E1735"/>
<path d="M453.136 365.43C453.046 366.547 453.233 367.641 453.562 368.691C453.897 369.738 454.386 370.73 455.003 371.645C455.616 372.555 456.366 373.383 457.21 374.078C458.065 374.766 459.022 375.344 460.093 375.668C459.499 374.719 458.882 373.883 458.296 373.051C457.702 372.223 457.136 371.402 456.569 370.582C456.007 369.754 455.464 368.918 454.905 368.062C454.351 367.207 453.8 366.328 453.136 365.43Z" fill="#1E1735"/>
<path d="M473.636 294C471.597 288.902 469.859 281.293 468.437 276.047C467.964 272.723 467.476 269.453 466.96 266.262C466.835 262.594 462.277 205.73 448.62 200.492C430.71 193.633 417.495 197.074 409.566 199.848C397.941 203.918 389.554 220.164 391.476 237.113C393.956 258.98 405.538 289.258 406.066 294.461C406.277 296.535 405.976 301.914 403.538 307C398.913 316.496 404.644 310.438 425.55 312.426C450.218 314.773 476.636 326.664 481.183 318.992C485.464 312.965 480.167 310.309 473.636 294Z" fill="white"/>
<path d="M420.945 196.742C416.214 194.547 411.777 195.312 405.66 196.375C400.906 197.203 397.367 198.637 394.019 200.016C391.886 200.895 389.421 201.895 382.011 206.207C362 217.859 360.179 220.047 356.543 222.227C355.765 222.699 325.601 250.566 333.558 251.531C343.632 252.75 424.726 226.434 428.586 221.137C431.504 217.129 431.203 212.434 431.132 211.305C430.711 204.656 426.117 199.141 420.945 196.742Z" fill="#FBF1E8"/>
<path d="M436.223 179.754C442.227 193.41 449.504 198.508 451.141 199.781C452.071 200.508 450.782 203.789 449.688 205.246C443.301 213.766 420.829 222.164 420.946 213.984C421.125 201.059 413.008 197.484 410.395 191.41C410.192 190.949 406.594 185.461 409.297 178.297C412.207 170.609 431.903 162.789 434.043 164.461C434.602 164.895 432.743 171.832 436.223 179.754Z" fill="#FDB9A5"/>
<path d="M421.606 178.797C421.707 181.453 421.125 183.512 420.868 184.391C420.7 184.957 420.063 187.008 418.629 189.231C417.071 191.656 409.321 198.555 401.125 200.789C400.184 201.043 399.317 201.199 398.52 200.789C397.532 200.281 397.309 199.246 396.657 197.809C395.996 196.348 395.977 196.867 394.047 193.707C391.782 189.988 390.649 188.125 390.321 186.625C390.028 185.234 390.055 184.16 389.203 183.645C388.485 183.199 387.95 183.66 386.227 183.266C385.293 183.063 384.496 182.867 383.989 182.148C383.457 181.387 383.582 180.488 383.618 180.289C383.793 179.258 386.973 172.09 386.227 168.731C385.684 166.289 385.215 163.469 383.618 157.918C382.903 155.418 381.383 144.5 389.203 137.793C392.977 134.555 396.59 133.133 399.637 132.199C406.305 130.16 412.02 130.711 414.532 131.082C417.969 131.59 425.262 132.5 431.293 138.535C435.203 142.449 440.996 153.199 432.411 160.531C429.481 163.035 429.575 162.359 427.2 162.395C423.899 162.438 420.305 169.293 420.868 172.461C421.118 173.902 421.469 174.945 421.606 178.797Z" fill="#FDB9A5"/>
<path d="M388.196 150.02C404.895 144.051 414.419 162.906 422.169 173.633C425.266 177.918 431.532 181.293 436.59 179.57C439.422 178.613 443.516 174.91 444.012 168.594C444.528 161.867 445.145 155.207 443.321 147.945C442.051 142.898 437.235 135.262 429.54 130.926C424.215 127.93 415.165 127.629 410.895 127.824C406.493 128.031 403.411 128.168 399.547 129.488C397.262 130.258 391.754 132.262 387.383 137.152C386.696 137.926 384.301 140.699 382.516 145.039C381.473 147.59 381.212 148.891 381.708 150.437C382.075 151.57 382.258 152.457 383.329 152.926C384.751 153.551 384.512 151.34 388.196 150.02Z" fill="#3A3677"/>
<path d="M413.743 159.976C414.665 158.519 415.716 157.887 415.974 157.734C416.497 157.441 417.606 156.801 418.958 156.992C420.813 157.258 421.868 158.91 422.306 159.605C423.591 161.605 423.485 163.684 423.431 164.824C423.267 167.945 421.829 170.047 420.817 171.531C419.935 172.82 419.259 173.391 418.579 173.766C418.013 174.09 416.97 174.711 415.974 174.512C414.208 174.156 413.458 171.383 412.997 169.664C412.661 168.426 411.388 163.695 413.743 159.976Z" fill="#F9B09B"/>
<path d="M356.907 188.496C358.97 186.051 361.157 183.437 363.458 180.121C365.634 176.973 367.294 174.578 368.915 171.016C370.263 168.055 373.212 160.687 375.099 157.91C375.622 157.141 376.192 156.445 376.192 156.445C377.302 155.105 378.302 154.273 378.743 153.902C381.989 151.109 381.813 149.863 384.196 148.437C384.735 148.113 386.005 147.734 388.56 146.98C388.974 146.859 393.739 145.48 396.563 146.25C396.927 146.352 398.388 147.707 397.298 148.805C396.313 149.781 395.341 150.02 392.567 150.988C391.72 151.281 389.224 152.148 389.29 152.445C389.356 152.715 390.845 152.59 394.747 152.445C399.06 152.289 401.298 152.078 402.751 152.445C403.173 152.551 404.149 152.891 404.571 153.539C404.899 154.047 404.821 154.816 404.571 155.355C404.181 156.191 403.47 156.273 403.477 156.812C403.489 157.23 403.919 157.254 404.208 157.91C404.474 158.504 404.438 159.207 404.208 159.727C403.923 160.363 403.356 160.687 403.118 160.82C400.747 162.121 395.477 161.551 391.11 162.637C389.899 162.945 388.56 164.094 388.56 164.094C388.56 164.094 389.161 164.41 392.927 164.094C398.442 163.633 401.102 164.133 401.657 165.191C401.845 165.535 401.747 165.941 401.657 166.281C401.352 167.543 397.286 167.91 395.114 168.102C393.864 168.215 392.2 168.363 390.384 168.832C387.743 169.508 386.024 170.539 385.286 171.016C384.435 171.566 383.563 172.145 382.739 173.199C382.024 174.121 381.786 174.852 381.286 176.113C380.138 179.016 379.352 181 378.009 182.668C376.985 183.937 376.075 184.484 375.099 185.219C372.212 187.379 370.685 189.715 367.821 193.957C362.692 201.566 363.411 203.824 360.548 204.883C357.868 205.867 354.427 204.941 352.177 203.062C351.329 202.344 349.95 201.199 349.63 199.422C349.149 196.742 351.477 194.945 356.907 188.496Z" fill="#FFA48A"/>
<path d="M401.652 157.168C401.75 157.176 401.766 157.32 401.672 157.336C400.074 157.668 398.445 157.863 396.82 157.957C394.93 158.063 393.082 158.07 391.215 158.086L388.453 158.059C388.262 158.063 388.09 158.09 387.887 158.152C387.684 158.207 387.465 158.285 387.25 158.359C386.82 158.516 386.395 158.676 385.965 158.836C384.473 159.438 383.008 160.098 381.559 160.844C381.473 160.895 381.391 160.77 381.469 160.711C382.735 159.66 384.149 158.805 385.617 158.059C386.039 157.848 386.465 157.648 386.91 157.465C387.133 157.375 387.356 157.285 387.59 157.203C387.828 157.113 388.121 157.047 388.395 157.023C388.539 157.012 388.656 157.012 388.766 157.012H389.117L389.817 157.004L391.215 156.992L394.016 157.023L396.801 157.113C398.414 157.152 400.024 157.156 401.652 157.168Z" fill="#C95E28"/>
<path d="M381.202 155.98C381.124 156.012 381.05 155.914 381.105 155.852C381.534 155.324 382.023 154.875 382.534 154.449C383.12 153.973 383.749 153.543 384.417 153.18C384.749 152.988 385.093 152.816 385.449 152.668C385.62 152.594 385.804 152.523 385.988 152.457C386.156 152.395 386.378 152.316 386.581 152.281C387.312 152.16 387.976 152.238 388.636 152.379C388.722 152.395 388.726 152.512 388.648 152.539C388.003 152.75 387.359 152.879 386.82 153.105C386.55 153.227 386.214 153.43 385.898 153.602L384.945 154.129C384.304 154.484 383.659 154.836 382.995 155.168C382.417 155.457 381.827 155.742 381.202 155.98Z" fill="#C95E28"/>
<path d="M353.996 188.859C353.996 188.859 350.906 193.055 346.715 200.148C345.406 202.379 342.93 205.52 337.984 211.801C330.078 221.848 330.305 220.66 327.434 224.91C326.555 226.211 322.117 232.91 319.797 242.387C318.906 246.008 318.875 247.809 319.797 249.309C321.734 252.461 327.199 253.145 331.078 252.223C334.266 251.465 337.602 249.324 347.445 231.828C356.582 215.598 355.086 217.625 359.453 209.98C362.59 204.488 367.094 198.324 367.094 198.324C367.094 198.324 364.543 197.418 361.273 195.414C356.391 192.422 353.996 188.859 353.996 188.859Z" fill="#FBF1E8"/>
<path d="M433.813 177.938C431.942 191.383 453.742 198.66 458.207 181.566C462.684 164.449 436.821 156.352 433.813 177.938Z" fill="#3A3677"/>
<path d="M460.969 204.863C465.926 207.957 466.703 216.426 468.047 233.234C468.817 242.766 468.66 248.887 468.047 267.629C467.184 294.41 466.606 298.551 459.547 306.809C456.985 309.805 454.946 312.195 451.399 313.195C433.59 318.207 410.469 288.531 407.809 283.945C399.563 269.746 387.328 248.676 395.766 233.938C397.149 231.52 399.102 229.246 420.567 218.691C454.032 202.234 458.407 203.266 460.969 204.863Z" fill="white"/>
<path d="M459.512 201.238C454.352 198.469 448.965 200.133 446.778 200.508C442.719 201.215 441.008 201.914 434.403 205.605C429.364 208.43 422.985 210.547 415.852 213.254C409.215 215.773 403.688 217.602 399.84 218.352C389.766 220.32 388.375 219.633 380.559 221.266C376.129 222.195 374.102 223.398 370.004 223.449C366.524 223.5 365.668 223.195 359.454 222C347.887 219.77 347.852 221.145 343.079 219.082C338.215 216.98 336.668 215.207 332.532 215.441C329.661 215.605 327.583 216.965 326.708 217.625C322.907 220.508 320.895 226.105 322.708 230.008C323.25 231.184 324.04 231.883 325.618 233.285C328.676 236.008 330.922 236.535 333.981 238.387C337.036 240.227 336.903 240.965 340.536 243.844C343.602 246.281 351.083 252.07 360.907 252.949C363.008 253.141 364.653 253.051 366.004 252.949C387.184 251.387 400.934 245.016 420.946 245.301C430.399 245.441 435.165 244.34 445.688 242.387C455.102 240.645 459.102 237.137 460.602 235.836C461.911 234.699 468.559 229.664 468.969 220.176C469.258 213.574 466.532 205.012 459.512 201.238Z" fill="white"/>
<path d="M362 253.316C363.789 253.355 365.562 253.234 367.32 252.988C369.09 252.734 370.855 252.551 372.609 252.238C376.125 251.715 379.613 251.027 383.094 250.316L388.316 249.199L393.543 248.047C397.031 247.297 400.547 246.578 404.094 245.992C407.645 245.43 411.23 245.016 414.832 244.812C418.43 244.633 422.074 244.746 425.578 244.801C429.109 244.805 432.629 244.574 436.164 244.129C439.691 243.719 443.223 243.16 446.777 242.754C443.312 243.641 439.844 244.473 436.328 245.191C434.57 245.535 432.793 245.828 431.004 246.059C429.215 246.289 427.414 246.426 425.617 246.508C423.816 246.598 422 246.59 420.246 246.637C418.48 246.641 416.719 246.773 414.957 246.875C411.441 247.156 407.934 247.586 404.438 248.148C400.941 248.688 397.453 249.391 393.953 250.066C390.449 250.719 386.945 251.441 383.402 251.984C382.516 252.133 381.633 252.273 380.746 252.395C379.855 252.516 378.973 252.656 378.086 252.754C376.301 252.957 374.52 253.168 372.73 253.293C370.949 253.457 369.156 253.516 367.367 253.59C366.473 253.621 365.574 253.629 364.672 253.59C363.777 253.539 362.883 253.457 362 253.316Z" fill="#FDDEB6"/>
<path d="M399.469 486.344V486.758H400.695V486.344H399.469Z" fill="url(#paint3_linear)"/>
<path d="M185.376 305.129H87.4148C83.282 305.129 79.6492 302.379 78.532 298.391L55.4031 216.102C54.6335 213.367 56.6882 210.648 59.5281 210.648H158.598C162.77 210.648 166.43 213.43 167.559 217.445L190.356 298.551C191.286 301.855 188.802 305.129 185.376 305.129Z" fill="#1D1D1B"/>
<path d="M183.906 300.82H91.441C87.5972 300.82 84.2183 298.262 83.1754 294.555L61.5464 217.613C61.0386 215.797 62.4019 213.988 64.2925 213.988H156.761C160.605 213.988 163.98 216.551 165.023 220.254L186.652 297.203C187.164 299.02 185.796 300.82 183.906 300.82Z" fill="white"/>
<path d="M109.058 237.219C119.159 241.648 123.902 255.895 127.741 261.453C134.523 271.293 137.659 270.738 141.574 275.027C142.245 275.762 148.788 279.691 146.835 286.801C146.574 287.77 145.652 290.293 143.652 291.098C134.659 294.699 109.472 271.426 104.491 255.918C101.894 247.832 100.359 239.453 104.491 237.496C106.156 236.707 107.511 236.547 109.058 237.219Z" fill="#F9B09B"/>
<path d="M73.4225 262.223C74.5162 259.008 75.4693 253.711 73.4225 249.059C72.0397 245.918 68.6803 241.348 64.4264 241.027C58.8951 240.613 55.274 246.918 51.0006 257.09C42.2818 277.867 33.4303 302.109 39.3795 303.906C43.5943 305.184 49.3404 301.82 52.942 297.953C54.817 295.941 54.6217 294.555 56.817 290.059C58.9889 285.605 60.1568 284.961 64.4264 278.703C69.6178 271.098 71.5592 267.691 73.4225 262.223Z" fill="#F9B09B"/>
<path d="M132.074 266.73C130.758 265.277 129.422 263.57 128 261.512C127.023 260.086 125.992 258.113 124.805 255.828C121.859 250.191 116.387 235.473 95.6992 231.375C89.0312 230.055 81.1211 230.363 72.8672 234.289C69.1758 236.039 65.9805 238.398 63.3164 240.898C58.4063 241.344 54.9961 247.191 50.8633 257.035C49.1562 261.098 47.5898 264.949 46.207 268.484L46.168 268.59L46.2539 268.664C48.6523 270.598 51.2188 272.348 53.9219 273.918C62.5586 292.582 79.4375 307.559 103.824 311.359C103.863 310.73 103.918 310.02 104.004 309.219C104.504 304.484 105.074 299.082 108.02 293.844C110.969 288.59 113.316 286.523 114.801 281.906C115.91 278.418 115.207 275.313 114.105 272.051C115.645 273.898 117.316 275.746 119.086 277.547L119.16 277.625L119.254 277.578C123.938 275.574 127.906 272.992 132.086 266.918L132.152 266.824L132.074 266.73Z" fill="url(#paint4_linear)"/>
<path d="M164.48 239.086C164.098 240.031 164.062 240.684 164.062 241.027C164.074 242.293 164.352 242.66 164.617 243.105C165.617 244.766 166.469 247.547 170.844 248.23C171.688 248.363 172.922 247.262 179.285 247.262C183.258 247.262 185.234 246.68 186.207 246.152C187.707 245.34 188.562 245.008 189.906 243.305C190.496 242.551 192.57 241.027 192.938 239.699C193.105 239.082 192.816 238.707 193.129 238.258C196.031 233.961 194.094 233.828 194.512 232.855C194.598 232.645 194.961 231.434 194.371 230.914C193.934 230.539 193.215 230.75 193.129 230.777C192.438 230.992 192.09 231.586 191.746 232.164C191.41 232.711 190.332 234.633 189.668 234.934C188.145 235.625 185.863 237.008 183.852 236.457C182.332 236.039 177.266 236.078 176.938 234.516C176.836 234.055 179.348 232.629 180.398 232.301C181.23 232.043 182.91 230.926 183.992 229.113C184.406 228.426 184.324 227.715 183.719 227.312C183.586 227.23 183.34 227.117 182.746 227.18C181.875 227.262 181.492 227.602 180.809 227.871C179.266 228.48 178.902 228.625 177.488 229.391C177.121 229.594 173.879 231.57 172.367 232.301C170.223 233.34 169.562 233.293 167.523 234.516C166.141 235.352 165.273 237.117 164.48 239.086Z" fill="#F9B09B"/>
<path d="M172.922 246.984C174.371 245.945 166.715 238.168 164.898 239.504C163.859 240.266 163.305 242.203 162.82 243.66C160.25 251.387 152.543 259.441 146.629 264.574C143.043 267.687 139.777 270.605 137.91 273.16C133.41 279.324 134.234 283.457 137.078 287.84C137.477 288.453 139.332 291.316 142.203 291.582C142.203 291.582 143.402 291.691 144.691 291.164C151.691 288.301 161.559 269.785 167.801 254.879C169.273 251.371 170.984 248.371 172.922 246.984Z" fill="#F9B09B"/>
<path d="M183.023 243.488C183.945 243.656 184.934 243.504 185.824 243.16C186.719 242.816 187.527 242.289 188.262 241.695C188.996 241.098 189.652 240.414 190.289 239.758C190.445 239.594 190.613 239.438 190.777 239.285C190.937 239.133 191.113 238.992 191.301 238.871C191.477 238.746 191.68 238.652 191.891 238.598C192.105 238.547 192.34 238.543 192.57 238.535C192.352 238.477 192.117 238.418 191.867 238.43C191.621 238.438 191.379 238.504 191.148 238.602C190.707 238.809 190.316 239.098 189.961 239.402C189.238 240.008 188.578 240.645 187.875 241.215C187.168 241.793 186.43 242.316 185.629 242.723C184.828 243.129 183.957 243.395 183.023 243.488Z" fill="#F9B09B"/>
<path d="M111.093 285.863C111.73 283.813 111.804 283.051 112.022 282.059C112.265 280.949 111.901 278.121 110.718 277.93C110.163 277.848 109.522 278.152 109.218 278.625C108.702 279.418 108.757 280.43 108.718 281.008C108.366 285.656 102.698 287.508 101.23 288.516C98.6826 290.258 98.8584 292.25 100.108 292.781C106.042 295.316 110.401 288.09 111.093 285.863Z" fill="#F9B09B"/>
<path d="M113.765 271.52C113.25 269.32 112.707 267.145 112.449 264.949C112.324 263.855 112.257 262.762 112.261 261.664C112.273 260.57 112.343 259.488 112.527 258.414C112.699 257.348 112.976 256.297 113.332 255.258C113.679 254.219 114.117 253.195 114.496 252.117C114.687 251.578 114.867 251.027 115 250.465C115.132 249.898 115.226 249.324 115.273 248.746C115.304 248.164 115.3 247.586 115.226 247.02C115.156 246.445 115.039 245.891 114.871 245.352C114.906 245.914 114.918 246.473 114.89 247.031C114.859 247.578 114.789 248.129 114.679 248.664C114.461 249.738 114.054 250.75 113.601 251.754C113.144 252.766 112.644 253.785 112.234 254.863C112.027 255.402 111.851 255.953 111.691 256.512C111.535 257.07 111.414 257.641 111.316 258.215C111.218 258.785 111.164 259.371 111.125 259.949C111.093 260.527 111.078 261.105 111.101 261.684C111.14 262.832 111.273 263.984 111.5 265.105C111.73 266.23 112.054 267.324 112.433 268.398C112.824 269.465 113.261 270.504 113.765 271.52Z" fill="#AA79CC"/>
<path d="M86.3203 241.184C86.3984 242.828 86.8398 244.449 87.5312 245.984C87.875 246.75 88.3281 247.473 88.8242 248.168C89.0977 248.496 89.3516 248.848 89.6562 249.148C89.8086 249.305 89.9531 249.465 90.1055 249.613L90.5977 250.047C91.2461 250.609 91.9453 251.137 92.7109 251.578C93.4727 252.016 94.3125 252.328 95.1797 252.477C96.0391 252.633 96.9219 252.656 97.7773 252.555C98.6328 252.453 99.4766 252.238 100.242 251.832L100.215 251.637C98.5547 251.332 97.0625 251.039 95.6445 250.566C94.9375 250.332 94.2461 250.086 93.5508 249.824C92.8555 249.566 92.1797 249.23 91.5586 248.805C90.3164 247.945 89.2344 246.824 88.3906 245.508C87.5234 244.207 86.8984 242.715 86.5156 241.152L86.3203 241.184Z" fill="#AA79CC"/>
<path d="M99.8867 210.578C97.0938 211.293 100.832 216.613 88.4649 231.289C83.3711 237.328 93.0391 249.633 100.215 248.059C106.875 246.602 103.324 241.305 106.73 238.059C109.664 235.27 111.746 235.578 113.313 233.09C115.91 228.941 113.777 218.836 107.957 214.211C105.438 212.211 102.855 209.816 99.8867 210.578Z" fill="#F9B09B"/>
<path d="M104.027 218.781C104.191 218.363 105.219 215.801 106.82 213.719C107.258 214.066 107.691 214.422 108.125 214.762C113.812 219.281 115.894 229.141 113.351 233.195C111.828 235.625 109.656 235.191 106.93 238.047C106.914 238.062 106.89 238.086 106.875 238.109C102.969 235.066 101.297 225.758 104.027 218.781Z" fill="#F9B09B"/>
<path d="M107.472 209.41C107.636 209.199 106.019 207.242 104.074 207.148C102.492 207.074 101.293 208.258 101.148 208.41C99.5817 210.004 99.6637 212.512 99.7496 214.902C99.816 216.926 99.3824 220.644 101.714 220.914C102.175 220.973 102.953 220.297 103.187 220.422C103.597 220.644 103.347 223.234 103.359 223.41C103.519 226.273 105.453 231.305 109.339 234.824C112.312 237.508 116.656 239.926 118.453 239.207C120.375 238.445 121.066 236.25 121.66 235.613C124.23 232.871 124.285 230.816 125.023 230.098C125.441 229.691 125.785 228.699 125.984 227.859C126.32 226.48 128.589 227.656 129.113 227.68C129.851 227.707 130.613 227.73 130.961 226.617C131.355 225.336 128.746 218.969 131.699 215.566C134.406 212.457 135.5 205.562 134.105 200.648C132.812 196.074 129.597 189.621 116.488 185.828C106.64 182.984 99.6871 192.727 99.9723 197.418C100.398 204.578 107.097 209.914 107.472 209.41Z" fill="#F9B09B"/>
<path d="M118.621 207.242C118.554 207.156 118.48 207.078 118.414 206.992C118.41 206.984 118.41 206.98 118.406 206.98C118.343 207.031 118.289 207.086 118.226 207.148C118.359 207.176 118.492 207.207 118.621 207.242ZM115.965 210.203C115.965 210.199 115.961 210.203 115.957 210.211C115.965 210.203 115.972 210.203 115.965 210.203ZM115.898 210.316V210.309C115.898 210.32 115.894 210.324 115.898 210.316ZM115.465 211.801C115.465 211.805 115.465 211.805 115.461 211.805L115.472 211.82V211.816C115.465 211.805 115.461 211.793 115.465 211.801ZM113.687 215.078C113.679 215.074 113.687 215.094 113.707 215.129C113.707 215.102 113.695 215.078 113.687 215.078ZM90.0895 196.43C94.3161 188.766 100.828 185.27 103.793 184.328C109.722 182.449 113.89 182.477 117.289 184.133C119.5 185.207 120.863 186.246 121.871 186.93C126.207 189.902 127.496 189.422 130.257 191.355C133.988 193.977 137.011 200.066 135.726 202.422C134.179 205.273 129.05 200.324 121.461 204.723C120.554 205.25 119.902 205.707 119.297 206.195L119.922 206.73C120.031 206.828 120.144 206.934 120.265 207.059C120.328 207.125 120.386 207.191 120.453 207.273C120.515 207.359 120.586 207.465 120.648 207.637C120.683 207.719 120.711 207.836 120.711 207.98C120.711 208.129 120.664 208.313 120.57 208.457C120.468 208.621 120.347 208.707 120.226 208.781C120.183 208.805 120.125 208.824 120.078 208.848C120.027 208.871 119.992 208.875 119.949 208.887C119.636 208.957 119.465 208.938 119.289 208.938C118.945 208.914 118.656 208.863 118.367 208.82C118.082 208.781 117.808 208.738 117.554 208.703C117.422 208.691 117.293 208.68 117.172 208.676C117.281 208.902 117.425 209.172 117.554 209.516C117.617 209.691 117.675 209.902 117.703 210.148C117.711 210.293 117.722 210.414 117.695 210.57C117.672 210.727 117.636 210.875 117.558 211.027C117.437 211.328 117.187 211.57 116.953 211.723C116.711 211.883 116.5 211.945 116.304 212C116.039 212.066 115.804 212.098 115.629 212.129C115.632 212.145 115.644 212.156 115.648 212.172C115.734 212.332 115.828 212.555 115.871 212.832C115.91 213.117 115.882 213.41 115.777 213.672C115.734 213.813 115.656 213.922 115.582 214.043C115.504 214.141 115.418 214.25 115.332 214.324C115.25 214.402 115.16 214.477 115.078 214.527C114.988 214.59 114.91 214.641 114.832 214.68C114.515 214.855 114.238 214.957 114.027 215.055C113.898 215.113 113.812 215.168 113.761 215.199C113.765 215.207 113.773 215.211 113.777 215.219C113.922 215.383 114.156 215.586 114.379 215.824C114.593 216.063 114.824 216.355 114.949 216.719C115.09 217.078 115.105 217.465 115.043 217.809C114.918 218.492 114.574 219.016 114.195 219.469C113.816 219.93 113.394 220.324 112.933 220.676C113.246 220.188 113.539 219.703 113.773 219.203C113.996 218.703 114.172 218.18 114.156 217.73C114.148 217.504 114.093 217.309 113.988 217.148C113.89 216.984 113.75 216.84 113.554 216.691C113.363 216.539 113.14 216.402 112.867 216.18C112.734 216.063 112.574 215.918 112.433 215.656C112.402 215.586 112.371 215.512 112.351 215.434C112.328 215.344 112.316 215.262 112.304 215.172C112.304 215.086 112.316 215 112.328 214.91C112.34 214.828 112.367 214.766 112.39 214.695C112.433 214.551 112.511 214.441 112.59 214.316C112.66 214.227 112.757 214.117 112.836 214.055L112.957 213.949L113.074 213.863C113.156 213.805 113.226 213.762 113.3 213.719C113.59 213.543 113.832 213.43 114.007 213.305C114.183 213.188 114.234 213.094 114.207 213.105C114.207 213.102 114.199 213.105 114.195 213.105C114.187 213.102 114.172 213.063 114.121 212.977C114.074 212.887 113.996 212.773 113.894 212.57L113.855 212.492L113.816 212.398C113.793 212.344 113.773 212.262 113.75 212.184C113.711 212.023 113.707 211.816 113.738 211.617C113.761 211.52 113.789 211.426 113.828 211.336C113.867 211.254 113.91 211.164 113.961 211.086C114.066 210.938 114.211 210.793 114.34 210.711C114.609 210.531 114.843 210.465 115.023 210.414C115.394 210.324 115.656 210.305 115.84 210.25C115.855 210.25 115.871 210.242 115.882 210.238C115.879 210.203 115.867 210.164 115.851 210.121C115.804 209.98 115.715 209.805 115.621 209.594C115.59 209.621 115.554 209.648 115.523 209.68C109.195 215.414 98.9254 219.121 92.2848 214.707C89.8473 213.09 88.8239 210.777 88.5231 210.07C86.1598 204.535 88.3473 199.598 90.0895 196.43Z" fill="#3A3677"/>
<path d="M119.515 228.879C119.848 228.582 120.769 229.422 122.055 229.902C123.492 230.441 124.379 230.148 124.902 230.297C124.863 230.355 124.82 230.41 124.773 230.453C124.359 230.895 124.336 232.379 123.277 233.512C122.043 233.184 119.98 231.598 119.414 229.227C119.375 229.059 119.441 228.949 119.515 228.879Z" fill="#D65B5B"/>
<path d="M122.027 211.871C122.852 211.512 123.754 211.332 124.68 211.27C125.609 211.215 126.57 211.348 127.484 211.676C127.719 211.75 127.934 211.855 128.168 211.937C128.391 212.039 128.613 212.148 128.84 212.262C129.273 212.5 129.664 212.828 129.961 213.223C130.562 214.012 130.941 214.973 130.84 215.984L130.68 216.051C129.895 215.445 129.309 214.91 128.695 214.43C128.395 214.184 128.117 213.937 127.836 213.668C127.695 213.543 127.551 213.41 127.402 213.285C127.242 213.172 127.086 213.051 126.914 212.949C126.57 212.762 126.207 212.582 125.82 212.461C125.441 212.316 125.043 212.215 124.629 212.137C123.809 211.973 122.941 211.961 122.07 212.039L122.027 211.871Z" fill="#3A3677"/>
<path d="M86.1805 212.734C86.1532 212.723 86.1258 212.707 86.0985 212.688C85.911 212.602 85.7157 212.504 85.5321 212.426C85.161 212.273 84.7782 212.145 84.4969 212.106C84.4383 212.09 84.3993 212.09 84.3524 212.09C84.3485 212.121 84.3485 212.168 84.3446 212.215C84.3446 212.367 84.3602 212.563 84.3836 212.762C84.411 212.961 84.45 213.172 84.4891 213.395C85.0633 213.145 85.6297 212.918 86.1805 212.734ZM84.3719 211.988C84.3836 211.973 84.3875 211.953 84.3875 211.949C84.3875 211.949 84.3758 211.965 84.3719 211.988ZM80.6336 215.289C80.45 215.164 80.2703 215.039 80.0985 214.93C79.9266 214.816 79.7547 214.719 79.6102 214.656C79.5711 214.641 79.5321 214.621 79.5008 214.613C79.4891 214.707 79.4774 214.84 79.4774 214.973C79.4735 215.18 79.4852 215.406 79.4852 215.656C79.4891 215.809 79.4852 215.961 79.4735 216.137C79.8836 215.875 80.3016 215.613 80.7235 215.363C80.6922 215.34 80.661 215.316 80.6336 215.289ZM79.5282 214.496C79.5555 214.461 79.5438 214.461 79.5282 214.496V214.496ZM78.0399 216.363C78.0438 216.363 78.0516 216.363 78.0516 216.356C78.0711 216.356 78.0633 216.352 78.0399 216.363ZM75.5946 216.563C75.4188 216.453 75.2352 216.348 75.0828 216.289C75.0633 216.281 75.0399 216.273 75.0243 216.27C75.0243 216.301 75.0164 216.34 75.0243 216.387C75.0282 216.563 75.0672 216.781 75.1063 216.992C75.1883 217.43 75.3016 217.891 75.3563 218.398C75.3797 218.621 75.3953 218.852 75.3641 219.109C75.95 218.625 76.6219 218.109 77.3602 217.574C77.1453 217.496 76.9618 217.402 76.7899 217.301C76.3446 217.059 75.9696 216.785 75.5946 216.563ZM75.0399 216.152C75.0399 216.156 75.0399 216.164 75.036 216.168C75.0399 216.164 75.0438 216.152 75.0438 216.152C75.0438 216.145 75.0438 216.152 75.0399 216.152ZM55.9618 246.867C56.2235 245.816 60.4227 247.125 62.8953 245.051C65.0633 243.234 63.9032 240.504 64.7078 235.824C66.0203 228.254 71.1922 223.109 73.9422 220.383C73.9305 220.383 73.9188 220.383 73.9071 220.383C73.618 220.359 73.3758 220.293 73.1414 220.219C72.6805 220.082 72.2625 219.922 71.8563 219.844C71.4539 219.77 71.0789 219.785 70.786 219.981C70.6375 220.074 70.5243 220.203 70.4305 220.359C70.3485 220.516 70.2899 220.723 70.2469 220.926C70.1571 221.356 70.1141 221.84 69.9539 222.309C69.8797 222.551 69.7625 222.781 69.6297 222.996C69.5516 223.094 69.4813 223.207 69.3914 223.293L69.2625 223.434C69.2196 223.477 69.1766 223.523 69.1258 223.563C68.9344 223.727 68.7078 223.856 68.4735 223.957C68.243 224.055 67.9969 224.102 67.7586 224.133C67.2821 224.199 66.8328 224.207 66.3875 224.277C65.95 224.352 65.5086 224.484 65.1102 224.672C64.7274 224.875 64.4227 225.223 64.1727 225.602C63.9149 225.981 63.6922 226.387 63.4696 226.785L62.8211 228.008L63.4032 226.75C63.6063 226.336 63.7977 225.918 64.036 225.52C64.2782 225.117 64.575 224.731 64.9969 224.473C65.4188 224.246 65.8641 224.082 66.3328 223.977C66.7938 223.879 67.2664 223.84 67.6961 223.754C67.9149 223.711 68.118 223.66 68.3094 223.566C68.493 223.473 68.6688 223.367 68.8211 223.215C68.8602 223.184 68.8914 223.145 68.9266 223.106L69.0321 222.988C69.0985 222.91 69.1493 222.816 69.2078 222.734C69.3016 222.551 69.3875 222.359 69.4422 222.156C69.5516 221.75 69.575 221.301 69.6414 220.82C69.6844 220.578 69.7313 220.324 69.8524 220.07C69.9696 219.82 70.1571 219.574 70.3953 219.414C70.6258 219.242 70.9032 219.137 71.1727 219.094C71.4539 219.043 71.7196 219.059 71.9735 219.086C72.4813 219.152 72.9344 219.305 73.3641 219.41C73.575 219.457 73.7782 219.496 73.95 219.504C74.036 219.504 74.1063 219.492 74.161 219.477C74.2196 219.457 74.2508 219.438 74.2782 219.402C74.3446 219.344 74.3914 219.246 74.4071 219.082C74.4227 218.926 74.4071 218.731 74.368 218.523C74.3016 218.121 74.1727 217.688 74.0555 217.223C74.0008 216.984 73.9461 216.75 73.911 216.469C73.9032 216.328 73.8953 216.168 73.9227 215.984C73.9305 215.941 73.9344 215.895 73.95 215.84C73.9696 215.785 73.9813 215.742 74.0086 215.68C74.0555 215.574 74.1297 215.453 74.2352 215.356C74.286 215.309 74.3328 215.262 74.4032 215.231C74.4578 215.191 74.5164 215.156 74.5828 215.141C74.6532 215.117 74.7118 215.102 74.7743 215.09C74.8289 215.086 74.8914 215.078 74.9461 215.078C75.161 215.078 75.3289 215.125 75.4735 215.168C75.7625 215.262 75.9852 215.379 76.2078 215.496C76.6336 215.731 77.0243 215.969 77.3953 216.152C77.5789 216.242 77.7625 216.316 77.8993 216.348C77.9383 216.356 77.9657 216.356 77.993 216.363C78.0008 216.363 78.0047 216.363 78.0125 216.363C78.0164 216.34 78.0282 216.301 78.0321 216.25C78.0516 216.113 78.0438 215.914 78.0321 215.703C78.0164 215.488 77.993 215.258 77.9852 215C77.9774 214.746 77.9657 214.469 78.0516 214.102C78.0946 213.918 78.1766 213.699 78.3485 213.488C78.5243 213.277 78.7821 213.117 79.0399 213.055C79.0672 213.043 79.0985 213.039 79.1336 213.027L79.2235 213.016C79.2821 213.012 79.3446 213.004 79.3993 213.004C79.5047 213.004 79.618 213.012 79.7039 213.027C79.8993 213.055 80.0516 213.106 80.2 213.156C80.4813 213.262 80.7157 213.391 80.9422 213.512C81.1649 213.641 81.3719 213.766 81.5711 213.895C81.8563 214.078 82.1336 214.258 82.3953 214.418C82.4891 214.367 82.5868 214.313 82.6805 214.262C82.5985 213.898 82.5008 213.512 82.4227 213.078C82.3719 212.828 82.325 212.563 82.3172 212.25C82.3094 211.945 82.3172 211.59 82.4813 211.156C82.5711 210.938 82.7118 210.711 82.9032 210.516C83.0047 210.422 83.1102 210.336 83.2196 210.266C83.2782 210.231 83.3328 210.203 83.3914 210.176C83.45 210.148 83.5086 210.113 83.5594 210.106C83.6649 210.066 83.786 210.027 83.8836 210.008C83.9891 209.988 84.0868 209.977 84.1883 209.965C84.3641 209.953 84.5477 209.949 84.7039 209.965C85.3446 210.02 85.8485 210.188 86.3328 210.359C86.8211 210.531 87.2703 210.731 87.7157 210.941C88.5243 211.332 89.2977 211.762 90.0594 212.203C90.2703 212.238 90.4696 212.293 90.6571 212.367C94.7586 213.918 93.8641 223.039 93.6024 226.098C93.0555 232.461 92.325 241.004 85.0946 246.957C75.7743 254.621 63.5672 251.5 59.0907 249.41C57.6493 248.731 55.7782 247.59 55.9618 246.867Z" fill="#3A3677"/>
<path d="M124.063 216.781C124.024 216.973 124.485 217.68 126.235 218.047C127.02 218.215 127.836 218.18 127.918 217.793C127.996 217.414 127.641 216.625 126.992 216.375C125.864 215.934 124.149 216.391 124.063 216.781Z" fill="#E6E6E6"/>
<path d="M125.258 216.863C125.879 215.773 127.887 216.473 127.246 217.981C126.61 219.488 124.258 218.621 125.258 216.863Z" fill="#3A3677"/>
<path d="M127.574 218.266C127.73 218.285 127.895 218.242 128.047 218.16C128.191 218.074 128.328 217.93 128.387 217.73C128.418 217.637 128.414 217.531 128.402 217.426C128.391 217.375 128.387 217.336 128.367 217.269C128.352 217.207 128.324 217.156 128.297 217.109C128.234 217.008 128.168 216.934 128.098 216.867C128.023 216.797 127.953 216.742 127.879 216.691C127.578 216.492 127.273 216.355 126.965 216.262C126.652 216.164 126.34 216.098 126.031 216.051C125.406 215.961 124.781 215.953 124.164 216.019C123.852 216.047 123.547 216.102 123.242 216.172C122.937 216.25 122.637 216.34 122.336 216.484C122.641 216.617 122.941 216.703 123.242 216.781C123.543 216.852 123.844 216.918 124.137 216.969C124.73 217.07 125.312 217.129 125.891 217.184C126.469 217.242 127.051 217.273 127.57 217.363C127.691 217.387 127.82 217.418 127.902 217.453C127.918 217.457 127.98 217.508 127.996 217.531C128.023 217.574 128.035 217.625 128.039 217.68C128.062 217.887 127.863 218.164 127.574 218.266Z" fill="#3A3677"/>
<path d="M45.4688 290.336C46.0743 289.969 49.3516 287.773 53.9102 287.84C57.8594 287.898 61.543 288.859 64.1485 290.059C65.5977 290.727 79.9922 296.219 94.1797 292.965C95.5235 292.656 98.0547 291.027 99.5782 291.859C101.434 292.871 102.625 295.684 102.344 297.953C101.902 301.531 98.129 302.695 97.3594 302.938C94.1133 303.977 91.6837 303.801 83.6641 304.461C82.1094 304.59 81.3594 304.723 79.2344 305.016C79.2344 305.016 55.9571 308.254 40.0704 303.773C39.6563 303.656 38.7071 303.371 38.1329 302.523C36.2071 299.676 39.9727 293.648 45.4688 290.336Z" fill="#F9B09B"/>
<path d="M97.3667 292.605C99.144 290.277 100.238 288.875 102.253 287.57C103.527 286.746 104.636 286.348 106.859 285.551C111.105 284.035 113.968 283.859 114.621 283.828C115.246 283.793 114.812 283.844 116.925 283.828C117.597 283.824 122.492 283.785 124.835 284.691C125.121 284.801 125.558 284.996 125.703 285.406C125.871 285.902 125.507 286.418 125.414 286.562C125.042 287.102 124.484 287.297 124.121 287.426C123.343 287.691 122.675 287.648 122.531 287.641C120.765 287.523 118.57 287.387 117.07 287.426C115.011 287.48 113.832 287.754 112.179 288.293C111.855 288.391 111.441 288.66 111.46 288.719C111.605 289.152 113.906 288.547 116.492 288.293C120.605 287.875 125.742 288.062 126.273 288.863C126.562 289.297 126.707 290.016 126.273 290.449C125.874 290.855 124.718 291.367 124.691 291.453C124.648 291.609 125.558 291.598 125.847 292.031C126.128 292.461 126.257 293.273 125.703 293.762C125.417 294.004 125.109 294.301 121.96 294.766C119.242 295.172 117.886 295.375 116.781 295.484C115.093 295.664 113.792 295.73 112.179 296.496C111.746 296.695 111.128 296.996 111.171 297.215C111.25 297.602 113.015 297.379 115.054 296.926C116.867 296.523 117.332 296.375 119.226 296.062C119.738 295.98 122.105 295.629 122.679 296.352C122.914 296.645 122.847 297.574 122.246 297.93C119.371 299.66 115.332 299.562 113.328 300.527C112.062 301.133 107.429 303.977 100.671 302.398C98.8042 301.961 98.3823 302.75 97.0776 302.25C95.9448 301.828 94.4565 300.766 94.0542 299.23C93.6128 297.52 94.8628 295.883 97.3667 292.605Z" fill="#F9B09B"/>
<path d="M147.43 302.277C147.43 302.277 144.52 297.375 143.68 297.375H79.6602C80.9922 301.75 84.3203 304.688 88.0703 304.688H146.426C146.43 304.688 146.441 304.684 146.445 304.684C147.523 304.668 148.078 303.227 147.43 302.277Z" fill="#1D1D1B"/>
<path d="M233.578 302.277C233.578 302.277 230.66 297.375 229.828 297.375H118.305C119.137 297.375 122.055 302.277 122.055 302.277C122.703 303.227 122.148 304.668 121.07 304.684C121.066 304.684 121.055 304.688 121.047 304.688H232.566C232.578 304.688 232.582 304.684 232.594 304.684C233.672 304.668 234.223 303.227 233.578 302.277Z" fill="url(#paint5_linear)"/>
<path d="M14.9215 497.703H18.1793C18.9058 497.703 19.5386 497.23 19.7379 496.539L64.7457 308.848C65.2144 307.191 63.941 305.551 62.191 305.551H55.4176C54.1949 305.551 53.1324 306.367 52.8472 307.531L13.3511 495.734C13.0972 496.734 13.8746 497.703 14.9215 497.703Z" fill="#BC7E55"/>
<path d="M235.903 497.703H232.649C231.922 497.703 231.286 497.23 231.09 496.539L186.079 308.848C185.61 307.191 186.879 305.551 188.633 305.551H195.407C196.625 305.551 197.688 306.367 197.981 307.531L237.469 495.734C237.727 496.734 236.954 497.703 235.903 497.703Z" fill="#BC7E55"/>
<path d="M191.605 331.898L203.297 332.848L200.141 317.824H188.23L191.605 331.898Z" fill="#1D1D1B"/>
<path d="M50.1406 320.41L61.75 321.348L62.5938 317.824H50.6836L50.1406 320.41Z" fill="#1D1D1B"/>
<path d="M234.75 318.23H7.29688C3.89453 318.23 1.12891 315.469 1.12891 312.059V311.184C1.12891 307.77 3.89453 305.008 7.29688 305.008H234.75C238.152 305.008 240.914 307.77 240.914 311.184V312.059C240.914 315.469 238.152 318.23 234.75 318.23Z" fill="#BC7E55"/>
<path d="M320.481 469.363C322.091 469.648 325.633 484.785 322.204 489.941C320.997 491.75 305.462 502.527 298.149 507.141C296.782 508 292.954 510.332 287.841 512.297C285.446 513.215 278.864 516.355 267.606 515.734C263.602 515.512 257.36 513.434 253.481 510.898C251.04 509.297 250.352 508.012 250.051 507.457C248.423 504.496 251.176 499.48 251.766 498.543C254.344 494.398 257.493 493.539 263.79 489.941C274.067 484.082 279.848 477.223 286.122 469.313C287.868 467.117 287.008 465.711 288.54 464.852C291.083 463.422 297.926 468.391 304.001 474.473C305.719 476.191 308.145 478.047 311.895 476.883C317.669 475.105 318.587 469.031 320.481 469.363Z" fill="white"/>
<path d="M322.203 483.066C319.426 484.852 316.586 486.5 313.742 488.164L305.219 493.129L296.688 498.078C293.848 499.734 291.012 501.402 288.16 503.016C287.457 503.414 286.734 503.84 286.039 504.207C285.684 504.406 285.375 504.563 285.012 504.715C284.656 504.871 284.289 505.016 283.918 505.156C282.434 505.711 280.891 506.145 279.332 506.512C276.215 507.25 273.004 507.562 269.801 507.48C266.605 507.355 263.406 506.785 260.398 505.629C260.016 505.496 259.641 505.332 259.27 505.18C258.898 505.023 258.535 504.859 258.176 504.672C257.453 504.312 256.754 503.895 256.055 503.477C255.355 503.051 254.672 502.598 254 502.125C253.332 501.648 252.656 501.176 252.09 500.582C253.098 501.898 254.406 502.953 255.699 503.984C256.355 504.5 257.035 504.977 257.746 505.43C258.102 505.656 258.477 505.867 258.844 506.062C259.215 506.262 259.582 506.461 259.965 506.633C262.996 508.09 266.328 508.941 269.695 509.227C273.07 509.523 276.469 509.234 279.781 508.586C281.441 508.242 283.066 507.785 284.68 507.211C285.078 507.063 285.48 506.914 285.879 506.738C286.277 506.574 286.699 506.367 287.066 506.168C287.832 505.773 288.539 505.371 289.266 504.961C292.125 503.301 294.961 501.621 297.77 499.898C300.57 498.152 303.375 496.422 306.129 494.609C308.895 492.816 311.633 490.969 314.336 489.086C317.02 487.164 319.719 485.25 322.203 483.066Z" fill="url(#paint6_linear)"/>
<path d="M294.5 481.586C293.461 480.836 292.445 480.258 291.438 479.676L288.457 477.984C287.473 477.426 286.5 476.867 285.527 476.277C284.559 475.684 283.602 475.117 282.629 474.305C282.684 474.949 282.957 475.555 283.262 476.117C283.59 476.664 283.973 477.18 284.406 477.641C285.27 478.562 286.273 479.324 287.352 479.938C288.434 480.543 289.59 481.016 290.789 481.309C291.992 481.598 293.23 481.738 294.5 481.586Z" fill="#1E1735"/>
<path d="M290.832 485.25C289.801 484.504 288.777 483.922 287.773 483.344L284.789 481.652C283.809 481.094 282.836 480.535 281.863 479.949C280.891 479.352 279.937 478.785 278.965 477.973C279.02 478.617 279.293 479.219 279.598 479.781C279.926 480.332 280.309 480.848 280.742 481.305C281.602 482.23 282.605 482.992 283.684 483.605C284.77 484.211 285.922 484.684 287.121 484.977C288.328 485.266 289.57 485.406 290.832 485.25Z" fill="#1E1735"/>
<path d="M287.168 488.918C286.133 488.176 285.113 487.59 284.105 487.012L281.129 485.324C280.148 484.762 279.168 484.207 278.199 483.617C277.227 483.02 276.27 482.449 275.297 481.645C275.355 482.281 275.625 482.887 275.93 483.449C276.258 484 276.641 484.516 277.074 484.977C277.937 485.902 278.941 486.664 280.023 487.27C281.102 487.879 282.258 488.352 283.457 488.648C284.664 488.93 285.906 489.074 287.168 488.918Z" fill="#1E1735"/>
<path d="M283.5 492.586C282.469 491.844 281.445 491.258 280.441 490.68L277.465 488.992C276.48 488.43 275.504 487.875 274.539 487.285C273.559 486.691 272.605 486.117 271.637 485.305C271.695 485.949 271.961 486.559 272.27 487.117C272.594 487.668 272.977 488.184 273.41 488.641C274.27 489.57 275.277 490.324 276.359 490.938C277.441 491.547 278.594 492.02 279.797 492.316C280.996 492.598 282.242 492.742 283.5 492.586Z" fill="#1E1735"/>
<path d="M298.164 477.918C297.133 477.168 296.109 476.59 295.105 476.012L292.121 474.316C291.137 473.762 290.16 473.199 289.195 472.609C288.219 472.016 287.262 471.449 286.297 470.637C286.352 471.281 286.621 471.883 286.93 472.449C287.258 473 287.641 473.516 288.074 473.973C288.934 474.895 289.938 475.656 291.016 476.27C292.098 476.875 293.254 477.348 294.453 477.641C295.66 477.93 296.898 478.07 298.164 477.918Z" fill="#1E1735"/>
<path d="M39.4334 262.895C34.7615 255.918 38.2771 243.543 49.4646 237.852C52.0974 236.508 55.6443 233.949 56.8318 230.402C57.1717 229.383 56.867 228.469 57.1287 228.484C57.4607 228.508 57.5545 230.711 57.5779 231.305C57.7771 235.879 56.7732 239.637 56.3396 241.801C54.9178 248.969 57.2459 258.414 50.7342 264.816C46.0584 269.422 41.7498 266.363 39.4334 262.895Z" fill="#45A88A"/>
<path d="M29.4138 234.871C29.656 234.895 29.1091 235.211 29.363 236.02C29.7185 237.156 30.6638 237.836 31.2419 238.465C33.2966 240.723 33.7575 243.617 33.613 246.578C33.5075 248.746 31.8513 251.883 30.3083 250.797C22.906 245.594 28.0193 238.207 28.6247 236.906C29.3513 235.324 29.0974 234.84 29.4138 234.871Z" fill="#45A88A"/>
<path d="M36.1599 274.301C39.6325 270.863 35.0505 251.5 19.3669 241.949C17.7458 240.965 15.0857 239.094 14.5896 239.477C14.3396 239.672 16.0466 239.977 15.5349 241.617C9.87471 259.66 28.8005 259.66 29.781 271.191C30.07 274.602 34.2067 276.23 36.1599 274.301Z" fill="#267256"/>
<path d="M74.8951 243.793C73.8638 244.758 70.6802 244.379 67.7037 245.684C64.9263 246.902 63.731 249.672 62.5045 253.645C60.3951 260.477 54.3795 270.91 45.9537 270.988C32.3248 271.105 44.6607 255.605 56.8443 247.223C62.106 243.605 69.3404 243.539 72.5904 243.496C74.5162 243.473 75.3795 243.344 74.8951 243.793Z" fill="#267256"/>
<path d="M38.3052 228.598C39.3403 228.098 37.9497 232.223 43.1489 237.512C54.2466 248.793 51.9536 271.566 40.3325 272.715C35.7192 273.168 18.5435 254.766 37.063 233.223C39.2505 230.676 37.9185 228.785 38.3052 228.598Z" fill="#267256"/>
<path d="M50.7022 245.777C50.7725 244.984 53.5342 253.148 53.8623 257.141C54.5732 265.809 53.4561 270.57 50.0967 274.18C46.1787 278.375 39.5381 280.105 35.5928 276.324C32.0732 272.945 31.8779 266.957 34.9209 262.781C37.0928 259.805 37.8311 259.688 43.8232 253.305C47.5303 249.363 50.3936 249.441 50.7022 245.777Z" fill="#267256"/>
<path d="M58.6562 272.816C58.5664 271.723 57.6484 270.883 56.5547 270.883H26.9961C25.9023 270.883 24.9922 271.723 24.8984 272.816L23.582 287.641V289.77C23.582 297.84 30.125 305.129 38.1953 305.129H45.3594C53.4297 305.129 59.9727 297.84 59.9727 289.77V287.641L58.6562 272.816Z" fill="white"/>
<defs>
<linearGradient id="paint0_linear" x1="563.467" y1="407.195" x2="563.467" y2="512.004" gradientUnits="userSpaceOnUse">
<stop stop-color="#DCB7FE"/>
<stop offset="1" stop-color="#3EBCFC"/>
</linearGradient>
<linearGradient id="paint1_linear" x1="224.688" y1="101.816" x2="224.687" y2="225.031" gradientUnits="userSpaceOnUse">
<stop stop-color="#DCB7FE"/>
<stop offset="1" stop-color="#3EBCFC"/>
</linearGradient>
<linearGradient id="paint2_linear" x1="479.576" y1="348.946" x2="479.576" y2="377.373" gradientUnits="userSpaceOnUse">
<stop stop-color="#DCB7FE"/>
<stop offset="1" stop-color="#3EBCFC"/>
</linearGradient>
<linearGradient id="paint3_linear" x1="399.468" y1="486.55" x2="400.696" y2="486.55" gradientUnits="userSpaceOnUse">
<stop stop-color="#FFBC50"/>
<stop offset="0.25" stop-color="#FFBC50"/>
<stop offset="0.375" stop-color="#FFBC50"/>
<stop offset="0.390625" stop-color="#FFBC51"/>
<stop offset="0.394531" stop-color="#FFBD52"/>
<stop offset="0.398438" stop-color="#FFBE52"/>
<stop offset="0.40625" stop-color="#FFBE52"/>
<stop offset="0.414062" stop-color="#FFBE53"/>
<stop offset="0.421875" stop-color="#FFBF54"/>
<stop offset="0.429688" stop-color="#FFC054"/>
<stop offset="0.4375" stop-color="#FFC055"/>
<stop offset="0.441406" stop-color="#FFC156"/>
<stop offset="0.445312" stop-color="#FFC257"/>
<stop offset="0.449219" stop-color="#FFC257"/>
<stop offset="0.453125" stop-color="#FFC258"/>
<stop offset="0.457031" stop-color="#FFC358"/>
<stop offset="0.460938" stop-color="#FFC359"/>
<stop offset="0.46875" stop-color="#FFC459"/>
<stop offset="0.476562" stop-color="#FFC459"/>
<stop offset="0.480469" stop-color="#FFC55A"/>
<stop offset="0.484375" stop-color="#FFC55B"/>
<stop offset="0.488281" stop-color="#FFC55C"/>
<stop offset="0.492188" stop-color="#FFC55C"/>
<stop offset="0.5" stop-color="#FFC55D"/>
<stop offset="0.507812" stop-color="#FFC65D"/>
<stop offset="0.515625" stop-color="#FFC75E"/>
<stop offset="0.519531" stop-color="#FFC75F"/>
<stop offset="0.523438" stop-color="#FFC85F"/>
<stop offset="0.527344" stop-color="#FFC85F"/>
<stop offset="0.53125" stop-color="#FFC960"/>
<stop offset="0.539062" stop-color="#FFC960"/>
<stop offset="0.546875" stop-color="#FFC961"/>
<stop offset="0.550781" stop-color="#FFCA61"/>
<stop offset="0.554688" stop-color="#FFCB62"/>
<stop offset="0.5625" stop-color="#FFCB62"/>
<stop offset="0.566406" stop-color="#FFCB63"/>
<stop offset="0.570313" stop-color="#FFCC64"/>
<stop offset="0.574219" stop-color="#FFCC64"/>
<stop offset="0.578125" stop-color="#FFCD65"/>
<stop offset="0.59375" stop-color="#FFCD65"/>
<stop offset="0.597656" stop-color="#FFCE66"/>
<stop offset="0.601562" stop-color="#FFCF67"/>
<stop offset="0.605469" stop-color="#FFCF67"/>
<stop offset="0.609375" stop-color="#FFCF68"/>
<stop offset="0.613281" stop-color="#FFD069"/>
<stop offset="0.617188" stop-color="#FFD069"/>
<stop offset="0.625" stop-color="#FFD069"/>
<stop offset="0.632812" stop-color="#FFD16A"/>
<stop offset="0.636719" stop-color="#FFD26B"/>
<stop offset="0.640625" stop-color="#FFD26B"/>
<stop offset="0.644531" stop-color="#FFD26C"/>
<stop offset="0.648438" stop-color="#FFD26C"/>
<stop offset="0.65625" stop-color="#FFD36D"/>
<stop offset="0.660156" stop-color="#FFD36D"/>
<stop offset="0.664062" stop-color="#FFD46D"/>
<stop offset="0.671875" stop-color="#FFD46D"/>
<stop offset="0.679688" stop-color="#FFD46E"/>
<stop offset="0.683594" stop-color="#FFD56F"/>
<stop offset="0.6875" stop-color="#FFD670"/>
<stop offset="0.691406" stop-color="#FFD670"/>
<stop offset="0.695312" stop-color="#FFD671"/>
<stop offset="0.703125" stop-color="#FFD671"/>
<stop offset="0.710938" stop-color="#FFD771"/>
<stop offset="0.71875" stop-color="#FFD772"/>
<stop offset="0.722656" stop-color="#FFD873"/>
<stop offset="0.726562" stop-color="#FFD974"/>
<stop offset="0.730469" stop-color="#FFD975"/>
<stop offset="0.734375" stop-color="#FFD975"/>
<stop offset="0.742188" stop-color="#FFDA75"/>
<stop offset="0.746094" stop-color="#FFDB76"/>
<stop offset="0.75" stop-color="#FFDB76"/>
<stop offset="0.757812" stop-color="#FFDB77"/>
<stop offset="0.765625" stop-color="#FFDC78"/>
<stop offset="0.773438" stop-color="#FFDC78"/>
<stop offset="0.777344" stop-color="#FFDD79"/>
<stop offset="0.78125" stop-color="#FFDD79"/>
<stop offset="0.789062" stop-color="#FFDE7A"/>
<stop offset="0.796875" stop-color="#FFDE7A"/>
<stop offset="0.804688" stop-color="#FFDF7B"/>
<stop offset="0.8125" stop-color="#FFDF7B"/>
<stop offset="0.816406" stop-color="#FFE07C"/>
<stop offset="0.820312" stop-color="#FFE07D"/>
<stop offset="0.828125" stop-color="#FFE07D"/>
<stop offset="0.835938" stop-color="#FFE17E"/>
<stop offset="0.839844" stop-color="#FFE17E"/>
<stop offset="0.84375" stop-color="#FFE27F"/>
<stop offset="0.851562" stop-color="#FFE27F"/>
<stop offset="0.855469" stop-color="#FFE380"/>
<stop offset="0.859375" stop-color="#FFE381"/>
<stop offset="0.867188" stop-color="#FFE381"/>
<stop offset="0.871094" stop-color="#FFE482"/>
<stop offset="0.875" stop-color="#FFE482"/>
<stop offset="0.878906" stop-color="#FFE483"/>
<stop offset="0.882812" stop-color="#FFE583"/>
<stop offset="0.890625" stop-color="#FFE584"/>
<stop offset="0.898438" stop-color="#FFE684"/>
<stop offset="0.90625" stop-color="#FFE785"/>
<stop offset="0.914062" stop-color="#FFE786"/>
<stop offset="0.921875" stop-color="#FFE886"/>
<stop offset="0.9375" stop-color="#FFE987"/>
<stop offset="1" stop-color="#FFE988"/>
</linearGradient>
<linearGradient id="paint4_linear" x1="89.1602" y1="207.731" x2="89.1599" y2="327.972" gradientUnits="userSpaceOnUse">
<stop stop-color="#DCB7FE"/>
<stop offset="1" stop-color="#3EBCFC"/>
</linearGradient>
<linearGradient id="paint5_linear" x1="176.079" y1="295.296" x2="176.079" y2="306.193" gradientUnits="userSpaceOnUse">
<stop stop-color="#DCB7FE"/>
<stop offset="1" stop-color="#3EBCFC"/>
</linearGradient>
<linearGradient id="paint6_linear" x1="287.146" y1="475.596" x2="287.146" y2="514.753" gradientUnits="userSpaceOnUse">
<stop stop-color="#DCB7FE"/>
<stop offset="1" stop-color="#3EBCFC"/>
</linearGradient>
</defs>
</svg>
