<?xml version="1.0" encoding="UTF-8" standalone="no"?>
<svg
   xmlns:dc="http://purl.org/dc/elements/1.1/"
   xmlns:cc="http://creativecommons.org/ns#"
   xmlns:rdf="http://www.w3.org/1999/02/22-rdf-syntax-ns#"
   xmlns:svg="http://www.w3.org/2000/svg"
   xmlns="http://www.w3.org/2000/svg"
   xmlns:sodipodi="http://sodipodi.sourceforge.net/DTD/sodipodi-0.dtd"
   xmlns:inkscape="http://www.inkscape.org/namespaces/inkscape"
   width="702.65405"
   height="495.99557"
   viewBox="0 0 702.65405 495.99557"
   fill="none"
   version="1.1"
   id="svg1275"
   sodipodi:docname="surface1.svg"
   inkscape:version="1.0.2 (e86c8708, 2021-01-15)">
  <metadata
     id="metadata1281">
    <rdf:RDF>
      <cc:Work
         rdf:about="">
        <dc:format>image/svg+xml</dc:format>
        <dc:type
           rdf:resource="http://purl.org/dc/dcmitype/StillImage" />
        <dc:title></dc:title>
      </cc:Work>
    </rdf:RDF>
  </metadata>
  <defs
     id="defs1279">
    <filter
       id="filter0_d"
       x="0.70507801"
       y="0.74229401"
       width="700.27698"
       height="243.86501"
       filterUnits="userSpaceOnUse"
       color-interpolation-filters="sRGB">
      <feFlood
         flood-opacity="0"
         result="BackgroundImageFix"
         id="feFlood1697" />
      <feColorMatrix
         in="SourceAlpha"
         type="matrix"
         values="0 0 0 0 0 0 0 0 0 0 0 0 0 0 0 0 0 0 127 0"
         id="feColorMatrix1699" />
      <feOffset
         dy="4"
         id="feOffset1701" />
      <feGaussianBlur
         stdDeviation="5"
         id="feGaussianBlur1703" />
      <feColorMatrix
         type="matrix"
         values="0 0 0 0 0.854902 0 0 0 0 0.878431 0 0 0 0 0.905882 0 0 0 0.29 0"
         id="feColorMatrix1705" />
      <feBlend
         mode="normal"
         in2="BackgroundImageFix"
         result="effect1_dropShadow"
         id="feBlend1707" />
      <feBlend
         mode="normal"
         in="SourceGraphic"
         in2="effect1_dropShadow"
         result="shape"
         id="feBlend1709" />
    </filter>
    <linearGradient
       id="paint0_linear"
       x1="359.16101"
       y1="32.819099"
       x2="337.34201"
       y2="184.284"
       gradientUnits="userSpaceOnUse">
      <stop
         offset="0.138598"
         stop-color="#D5ADFE"
         id="stop1712" />
      <stop
         offset="1"
         stop-color="#1EB3FB"
         id="stop1714" />
    </linearGradient>
  </defs>
  <sodipodi:namedview
     pagecolor="#ffffff"
     bordercolor="#666666"
     borderopacity="1"
     objecttolerance="10"
     gridtolerance="10"
     guidetolerance="10"
     inkscape:pageopacity="0"
     inkscape:pageshadow="2"
     inkscape:window-width="1792"
     inkscape:window-height="983"
     id="namedview1277"
     showgrid="false"
     inkscape:zoom="1.1094386"
     inkscape:cx="348.5"
     inkscape:cy="212.5"
     inkscape:window-x="0"
     inkscape:window-y="25"
     inkscape:window-maximized="1"
     inkscape:current-layer="svg1275"
     fit-margin-top="0"
     fit-margin-left="0"
     fit-margin-right="0"
     fit-margin-bottom="0" />
  <g
     style="fill:none"
     id="g1738"
     transform="translate(1.672015,251.38827)">
    <path
       d="M 41.0983,14.8863 C 91.394,-9.24151 157.355,26.561 224.462,40.7065 292.799,55.111 377.978,24.1974 425.633,70.4069 c 38.453,37.2861 22.766,36.7211 75.652,54.4491 68.273,22.886 167.121,-10.924 185.841,34.667 6.919,16.851 4.308,27.695 -6.089,42.267 -31.224,43.763 -139.487,36.023 -208.515,-11.99 -57.02,-39.661 -91.405,-0.708 -158.69,-8.937 C 264.356,174.812 235.307,145.861 185.814,140.038 143.192,135.024 108.09,157.051 71.8409,139.889 38.5713,124.137 28.7096,117.345 17.5144,93.1442 4.80164,65.6632 8.39274,30.5758 41.0983,14.8863 Z"
       fill="url(#paint0_linear)"
       id="path1693"
       style="fill:url(#paint0_linear);filter:url(#filter0_d)" />
  </g>
  <path
     d="m 458.771,376.66 c -1.739,-1.857 -3.346,-3.557 -4.688,-5.262 -0.803,-1.7 0.402,-4.174 2.278,-4.795 1.876,-0.616 4.021,0.464 5.359,2.011 1.341,1.547 1.876,3.558 2.414,5.726 0.534,2.163 2.008,6.499 0.936,8.973 -2.009,-2.011 -4.286,-4.332 -6.299,-6.653 z"
     fill="#7adcfb"
     id="path833" />
  <path
     d="m 446.044,371.708 c 0.133,0 0.133,-0.153 0.269,-0.153 2.41,-1.7 5.624,-1.237 7.637,0.927 1.607,1.705 3.213,3.558 4.82,5.262 2.547,2.784 4.692,5.105 6.432,6.958 -2.411,1.705 -12.594,-2.473 -15.273,-3.4 -2.411,-0.774 -5.09,-1.857 -5.628,-4.642 -0.535,-2.01 0.269,-3.868 1.743,-4.952 z"
     fill="#7adcfb"
     id="path835" />
  <path
     d="m 424.069,379.908 c 1.072,-5.722 2.277,-11.6 3.752,-17.479 2.145,-0.931 4.555,-1.241 6.965,-1.084 1.206,0.153 2.414,0.311 3.351,1.084 2.008,1.237 2.815,4.021 2.679,6.342 -0.269,6.495 -5.491,11.6 -10.316,15.778 -3.619,3.095 -6.431,6.342 -8.842,6.963 0.936,-3.868 1.74,-7.736 2.411,-11.604 z"
     fill="#7adcfb"
     id="path837" />
  <path
     d="m 414.288,362.735 c 0.136,-1.853 0.269,-3.71 1.208,-5.258 1.74,-2.784 5.625,-3.71 8.441,-2.01 2.141,1.237 3.482,3.405 3.884,5.878 -1.876,6.342 -3.081,12.842 -4.286,19.183 -0.671,3.711 -1.342,7.426 -1.744,11.137 0,0.157 0,0.463 -0.132,0.621 -0.269,0.31 -0.804,0.31 -1.073,0 -1.607,-1.237 -2.547,-3.868 -3.217,-5.726 -2.411,-7.736 -3.483,-15.931 -3.081,-23.825 z"
     fill="#7adcfb"
     id="path839" />
  <path
     d="m 442.159,393.365 0.667,-24.13 c 0,-2.632 0.137,-5.416 -0.936,-8.047 -0.671,-1.7 -1.876,-3.09 -3.214,-3.711 -1.209,-0.62 -2.683,-0.62 -4.29,-0.31 -2.278,0.463 -4.821,1.705 -5.491,4.178 h 0.265 c 0.538,-2.32 3.085,-3.557 5.226,-4.021 1.607,-0.31 3.081,-0.157 4.154,0.306 1.341,0.621 2.414,1.858 3.081,3.558 0.94,2.478 0.94,5.415 0.803,7.893 l -0.667,24.131 z"
     fill="#86a2f8"
     id="path841" />
  <path
     d="m 446.445,393.365 h 0.269 l -0.402,-13.3 h -0.269 z"
     fill="#86a2f8"
     id="path843" />
  <path
     d="m 439.079,345.1 c 1.205,-2.784 2.679,-4.795 5.09,-4.332 0,-0.153 1.341,0 1.341,-0.153 0.133,0 0.266,0.153 0.402,0.153 9.376,2.942 20.363,10.21 27.734,18.567 0,0.153 0,0.153 0,0.153 -7.773,0.927 -16.08,-0.31 -23.849,-0.616 -3.752,-0.158 -7.906,-0.468 -10.184,-4.179 -1.743,-2.631 -1.876,-6.499 -0.534,-9.593 z"
     fill="#7adcfb"
     id="path845" />
  <path
     d="m 446.579,340.615 c -0.266,-0.153 -0.667,-0.153 -0.936,-0.31 0,-2.937 0.534,-5.879 2.948,-6.962 0.804,-0.307 1.607,-0.464 2.41,-0.307 6.03,0.927 11.12,5.722 15.005,11.6 2.012,3.558 4.824,7.889 6.431,12.221 0.136,0.62 -0.265,1.084 -0.667,0.62 -7.235,-7.425 -16.748,-13.925 -25.191,-16.862 z"
     fill="#7adcfb"
     id="path847" />
  <path
     d="m 456.36,388.571 c -4.287,0.157 -23.179,0.773 -26.931,0.93 -0.402,0 -0.534,0.306 -0.534,0.774 l 3.081,14.231 c 0,0.31 0.269,0.463 0.534,0.463 l 18.893,-0.153 c 0.269,0 0.401,-0.157 0.534,-0.467 l 4.957,-15.158 c 0.137,-0.31 -0.132,-0.62 -0.534,-0.62 z"
     fill="#26a4fb"
     id="path849" />
  <path
     d="m 255.33,226.76 c 0.265,2.011 0.667,4.948 1.338,9.283 l 2.41,19.647 c 2.547,17.478 5.496,36.351 8.175,53.833 0.133,0.927 0,1.548 -0.402,2.011 -1.205,1.857 -4.422,1.857 -3.483,3.094 1.607,0.311 6.565,0.464 8.71,-0.157 0.803,-0.306 0.803,-0.463 1.205,-1.237 0.269,-0.463 0.269,-1.08 0.269,-1.547 0,-0.306 0,-0.463 0,-0.774 -0.671,-15.778 -2.816,-71.622 -3.752,-88.484 l -10.854,-0.464 -1.876,-0.157 c -0.402,1.705 -0.804,2.321 -1.206,2.478 -0.269,0.617 -0.401,1.543 -0.534,2.474 z"
     fill="#26a4fb"
     id="path851" />
  <path
     d="m 275.692,233.412 c 0.269,6.032 1.205,12.068 2.145,17.946 2.812,19.026 5.628,38.056 8.573,56.928 0,0.153 0,0.306 0,0.464 0.136,1.857 -0.133,3.404 1.611,4.021 l 3.482,1.237 c 1.475,0.62 3.082,1.084 4.689,0.773 0.401,-0.153 0.803,-0.31 0.939,-0.773 v -0.153 c 0,-0.153 -0.136,-0.311 -0.136,-0.464 -0.133,-0.157 -0.265,-0.31 -0.265,-0.31 -0.807,-0.62 -1.475,-1.084 -2.013,-1.547 -1.072,-0.774 -1.739,-1.394 -1.876,-3.558 -0.265,-2.168 -0.401,-4.331 -0.534,-6.499 -0.804,-13.61 -0.269,-27.378 -0.538,-41.15 -0.133,-10.826 -1.069,-21.657 -1.471,-32.483 -0.269,-7.889 -8.443,-12.531 -12.597,-5.262 -2.142,3.094 -2.142,7.115 -2.009,10.83 z"
     fill="#26a4fb"
     id="path853" />
  <path
     d="m 294.452,311.534 c -0.671,0 -1.342,-0.153 -2.012,-0.31 -0.936,-0.311 -2.009,-0.617 -2.949,-1.084 -0.936,-0.464 -2.278,-1.548 -3.214,-1.39 0.133,1.857 -0.132,3.404 1.607,4.021 l 3.483,1.237 c 1.474,0.62 3.085,1.084 4.692,0.773 0.402,-0.153 0.803,-0.31 0.936,-0.773 0,-0.306 -0.133,-0.464 -0.133,-0.774 z"
     fill="#2300b1"
     id="path855" />
  <path
     d="m 263.367,314.628 c 1.607,0.311 6.564,0.464 8.709,-0.157 0.803,-0.306 0.803,-0.463 1.205,-1.237 0.269,-0.463 0.269,-1.079 0.269,-1.547 0,-0.306 0,-0.463 0,-0.774 h -0.136 l -6.564,0.774 c -1.205,1.704 -4.423,1.857 -3.483,2.941 z"
     fill="#2300b1"
     id="path857" />
  <path
     d="m 260.285,199.067 c 2.41,-4.947 4.821,-6.031 4.821,-6.031 l 8.038,-0.157 6.299,-0.153 c 6.966,4.021 10.047,15.161 11.923,23.667 2.414,10.983 3.487,22.434 4.154,33.724 0.269,5.262 0.939,10.831 0.538,16.089 -7.235,0.93 -14.47,-0.306 -21.841,-0.927 -1.073,-0.153 -16.346,-0.621 -16.479,-1.39 -5.226,-38.986 -1.205,-56.775 2.547,-64.822 z"
     fill="#2300b1"
     id="path859" />
  <path
     d="m 260.285,199.067 c 2.41,-4.947 4.821,-6.031 4.821,-6.031 l 8.038,-0.157 6.299,-0.153 c 6.966,4.021 10.047,15.161 11.923,23.667 2.414,10.983 3.487,22.434 4.154,33.724 0.269,5.262 0.939,10.831 0.538,16.089 -7.235,0.93 -14.47,-0.306 -21.841,-0.927 -1.073,-0.153 -16.346,-0.621 -16.479,-1.39 -5.226,-38.986 -1.205,-56.775 2.547,-64.822 z"
     fill="#2300b1"
     id="path861" />
  <path
     d="m 260.287,199.067 c 2.141,-0.153 4.286,-0.31 6.432,-0.616 1.337,-0.157 7.5,-1.547 12.726,-3.558 -1.607,-0.773 -4.286,-1.241 -5.893,-1.704 -0.137,0 -0.269,-0.153 -0.406,-0.153 l -8.038,0.153 c 0,-0.153 -2.41,0.931 -4.821,5.878 z"
     fill="#150077"
     id="path863" />
  <path
     d="m 256.398,166.274 c 0.538,-1.241 1.743,-1.547 2.816,-1.704 2.679,-0.464 5.492,-0.153 8.038,0.773 1.876,0.774 3.885,1.084 5.894,1.237 1.61,-0.153 3.217,-0.306 4.691,-0.463 2.009,-0.464 4.154,-0.927 6.296,-0.617 2.145,0.307 4.153,2.011 4.555,4.332 0.402,2.163 -0.667,4.174 -1.338,6.189 -1.743,4.947 -1.743,10.673 -2.145,15.931 0,0.62 -0.133,1.084 -0.402,1.547 -0.401,0.621 -1.205,0.774 -1.876,0.927 -6.295,1.394 -12.863,2.941 -19.294,2.321 -0.803,0 -1.607,-0.153 -2.278,-0.774 -0.803,-0.616 -1.205,-1.853 -1.47,-2.937 -1.073,-4.179 -1.209,-8.663 -1.744,-12.841 -0.401,-4.021 -1.876,-7.889 -2.008,-12.068 0,-0.616 0.132,-1.237 0.265,-1.853 z"
     fill="#ffb1df"
     id="path865" />
  <path
     d="m 298.338,193.499 c 2.411,-0.62 3.214,-3.558 2.411,-6.495 -0.535,-1.857 -1.607,-3.405 -2.547,-4.952 -3.081,-5.105 -5.492,-10.983 -9.778,-14.698 -2.948,-2.627 -5.628,-2.011 -6.568,2.168 -2.141,5.568 7.235,15.467 9.782,19.025 1.607,2.321 2.948,4.952 5.761,4.952 0.269,0.153 0.538,0.153 0.939,0 z"
     fill="#ffb1df"
     id="path867" />
  <path
     d="m 283.73,194.12 h -7.368 c -0.402,0 -0.671,-0.311 -0.671,-0.774 v -16.088 c 0,-0.468 0.269,-0.774 0.671,-0.774 h 7.368 c 0.401,0 0.671,0.306 0.671,0.774 v 16.088 c 0,0.463 -0.27,0.774 -0.671,0.774 z"
     fill="#2300b1"
     id="path869" />
  <path
     d="m 281.052,178.958 c 0,0.144 -0.022,0.28 -0.07,0.412 -0.048,0.136 -0.115,0.251 -0.203,0.353 -0.088,0.102 -0.192,0.178 -0.306,0.234 -0.114,0.055 -0.232,0.085 -0.357,0.085 -0.126,0 -0.244,-0.03 -0.362,-0.085 -0.114,-0.056 -0.213,-0.132 -0.302,-0.234 -0.088,-0.102 -0.155,-0.217 -0.203,-0.353 -0.047,-0.132 -0.073,-0.268 -0.073,-0.412 0,-0.145 0.026,-0.281 0.073,-0.417 0.048,-0.131 0.115,-0.246 0.203,-0.348 0.089,-0.102 0.188,-0.179 0.302,-0.234 0.118,-0.055 0.236,-0.085 0.362,-0.085 0.125,0 0.243,0.03 0.357,0.085 0.114,0.055 0.218,0.132 0.306,0.234 0.088,0.102 0.155,0.217 0.203,0.348 0.048,0.136 0.07,0.272 0.07,0.417 z"
     fill="#ffffff"
     id="path871" />
  <path
     d="m 279.579,163.18 h -4.556 c -0.265,0 -0.667,0 -0.936,0 -2.278,0 -4.423,0 -6.701,0 -0.803,0 -1.739,0 -2.543,0 -0.269,0 -0.538,-0.464 -0.269,-0.621 0.269,-0.31 0.402,-0.463 0.535,-0.774 0.269,-0.616 0.136,-1.236 0.136,-1.857 0,-0.616 0.402,-1.39 0.804,-1.853 0.401,-0.464 0.936,-0.774 1.337,-1.237 0.27,-0.311 0.27,-0.774 0.402,-1.241 0.804,-2.317 2.949,-4.021 5.226,-3.864 0.804,0.153 1.607,0.306 2.411,0.616 0.538,0.31 1.341,0.931 1.474,1.547 0.269,0.774 0.269,1.548 0.671,2.321 0.402,0.621 0.94,1.237 1.205,2.011 0.269,0.773 0.136,2.167 0.538,2.784 0.133,0.31 0.402,0.62 0.535,0.773 0.132,0.311 0.269,0.774 0.132,1.084 0,0.153 -0.265,0.311 -0.401,0.311 z"
     fill="#2300b1"
     id="path873" />
  <path
     d="m 270.603,163.49 -2.68,5.878 c -0.136,0.307 0.133,0.617 0.402,0.617 l 4.556,-0.927 4.286,1.547 c 0.269,0.153 0.534,-0.157 0.402,-0.463 l -2.547,-6.189 z"
     fill="#ffffff"
     id="path875" />
  <path
     d="m 275.159,160.859 v 5.415 c 0,0.774 -0.269,1.39 -0.671,1.853 -0.402,0.468 -0.936,0.774 -1.607,0.774 -1.205,0 -2.277,-1.237 -2.277,-2.627 v -6.499 l 1.205,0.31 0.534,0.153 z"
     fill="#26a4fb"
     id="path877" />
  <path
     d="m 271.809,158.691 v 0.774 c 0,0.463 0.132,0.93 0.132,1.394 0.402,1.7 1.611,2.937 3.081,3.247 v -4.794 l -2.543,-0.621 z"
     fill="#150077"
     id="path879" />
  <path
     d="m 274.087,155.444 -0.535,2.473 c -0.136,0.774 -0.807,1.242 -1.474,1.084 l -1.209,-0.31 0.137,-3.558 2.008,0.158 z"
     fill="#2300b1"
     id="path881" />
  <path
     d="m 272.479,159.312 -0.538,1.857 c -0.133,0.616 -0.936,1.08 -1.74,0.927 l 0.535,-3.405 z"
     fill="#150077"
     id="path883" />
  <path
     d="m 272.427,159.21 c 0.077,0.136 0.129,0.289 0.155,0.45 0.026,0.157 0.022,0.319 -0.008,0.48 -0.029,0.162 -0.084,0.311 -0.162,0.447 -0.081,0.132 -0.18,0.246 -0.302,0.336 -0.118,0.089 -0.247,0.148 -0.387,0.178 -0.14,0.03 -0.28,0.026 -0.416,-0.008 -0.141,-0.034 -0.27,-0.098 -0.387,-0.187 -0.118,-0.094 -0.214,-0.209 -0.292,-0.349 -0.077,-0.136 -0.129,-0.285 -0.154,-0.446 -0.026,-0.162 -0.026,-0.323 0.007,-0.485 0.029,-0.161 0.081,-0.31 0.162,-0.442 0.081,-0.136 0.181,-0.251 0.302,-0.34 0.118,-0.089 0.247,-0.149 0.387,-0.179 0.14,-0.029 0.28,-0.025 0.417,0.009 0.14,0.034 0.269,0.098 0.387,0.191 0.118,0.094 0.214,0.209 0.291,0.345 z"
     fill="#150077"
     id="path885" />
  <path
     d="m 275.424,158.384 c 0.136,0 0.136,-0.157 0.136,-0.157 0,-0.152 -0.136,-0.152 -0.136,-0.152 -0.133,0 -0.133,0.152 -0.133,0.152 z"
     fill="#150077"
     id="path887" />
  <path
     d="m 275.829,161.169 v -0.157 c -0.269,0 -0.405,-0.153 -0.538,-0.31 l -0.133,0.157 c 0.266,0.153 0.402,0.31 0.671,0.31 z"
     fill="#150077"
     id="path889" />
  <path
     d="m 268.997,158.848 c 0.265,-0.62 0.803,-1.084 1.471,-1.084 0.538,0 1.072,0.464 1.61,0.464 0.936,-0.153 1.338,-1.237 1.876,-2.011 0.402,-0.62 1.338,-1.547 2.142,-1.237 0.136,0 0.269,0.153 0.269,0.153 l 0.132,2.321 c 0,0.157 0,0.31 0,0.31 v 3.711 c 0,0.157 0,0.31 -0.132,0.468 0,0.306 -0.133,0.773 -0.402,0.926 -0.133,0.153 -0.402,0.311 -0.671,0.311 -0.671,0.153 -2.547,0 -3.616,0 v 1.547 h -1.341 v -3.868 c -0.402,0 -0.804,-0.157 -1.073,-0.464 -0.265,0 -0.401,-0.773 -0.265,-1.547 z"
     fill="#26a4fb"
     id="path891" />
  <path
     d="m 277.838,159.159 c 0,0.182 -0.033,0.361 -0.092,0.531 -0.063,0.17 -0.148,0.319 -0.262,0.45 -0.114,0.132 -0.243,0.234 -0.391,0.302 -0.147,0.073 -0.302,0.107 -0.46,0.107 -0.162,0 -0.317,-0.034 -0.465,-0.107 -0.147,-0.072 -0.276,-0.17 -0.39,-0.302 -0.111,-0.131 -0.199,-0.28 -0.262,-0.45 -0.059,-0.17 -0.092,-0.349 -0.092,-0.531 0,-0.187 0.033,-0.366 0.092,-0.536 0.063,-0.17 0.151,-0.319 0.262,-0.451 0.114,-0.131 0.243,-0.229 0.39,-0.301 0.148,-0.073 0.303,-0.107 0.465,-0.107 0.158,0 0.313,0.034 0.46,0.107 0.148,0.072 0.277,0.17 0.391,0.301 0.114,0.132 0.199,0.281 0.262,0.451 0.059,0.17 0.092,0.349 0.092,0.536 z"
     fill="#26a4fb"
     id="path893" />
  <path
     d="m 272.88,158.538 c 0.133,0 0.266,-0.153 0.266,-0.31 0,-0.153 -0.133,-0.311 -0.266,-0.311 -0.136,0 -0.269,0.158 -0.269,0.311 0,0.157 0.133,0.31 0.269,0.31 z"
     fill="#150077"
     id="path895" />
  <path
     d="m 273.55,161.012 c 0.133,0 0.265,0 0.402,-0.153 l -0.137,-0.31 c -0.132,0.153 -0.265,0.153 -0.402,0 -0.132,0 -0.132,-0.154 -0.132,-0.311 h -0.269 c 0,0.157 0.132,0.464 0.269,0.464 0.132,0.157 0.132,0.31 0.269,0.31 z"
     fill="#150077"
     id="path897" />
  <path
     d="m 274.219,159.775 h 0.538 v -2.474 h -0.137 v 2.164 h -0.401 z"
     fill="#150077"
     id="path899" />
  <path
     d="m 275.424,158.385 c 0.136,0 0.269,-0.157 0.269,-0.31 0,-0.158 -0.133,-0.311 -0.269,-0.311 -0.133,0 -0.266,0.153 -0.266,0.311 0.133,0.153 0.133,0.31 0.266,0.31 z"
     fill="#150077"
     id="path901" />
  <path
     d="m 298.199,187.931 c -4.154,-1.7 -8.974,-4.021 -13.397,-4.489 -0.402,0 -0.936,0 -1.338,0 -1.611,0 -3.218,0.311 -4.555,0.931 -0.269,0.153 -0.671,0.31 -0.804,0.616 -0.136,0.158 0,0.311 0.133,0.158 1.474,-0.464 2.948,-0.621 4.423,-0.621 0.132,0 0.132,0.157 0.132,0.157 0,0.153 -0.132,0.153 -0.132,0.153 -1.475,-0.153 -3.085,0.153 -4.556,0.621 l -0.136,0.153 v 0.153 c 0,0.157 0.136,0.157 0.136,0.157 1.338,-0.463 2.812,-0.463 4.556,-0.31 0.132,0 0.132,0.153 0.132,0.153 0,0.157 -0.132,0.157 -0.132,0.157 -1.611,-0.157 -3.085,0 -4.423,0.311 -0.133,0 -0.133,0.153 -0.133,0.153 0,0.153 0.133,0.153 0.133,0.31 0,0 0.132,0.153 0.132,0 1.342,-0.31 2.949,-0.463 4.154,-0.157 0.137,0 0.137,0.157 0.137,0.157 0,0.153 -0.137,0.153 -0.137,0.153 -1.205,-0.31 -2.547,-0.153 -3.752,0.153 -0.132,0 -0.132,0.157 0,0.31 0.402,0.311 0.94,0 1.342,0 4.017,0.158 7.367,2.321 10.987,4.489 2.141,1.237 4.286,2.321 6.564,2.163 0.803,0 1.607,-0.31 2.277,-0.773 0.671,-0.616 1.073,-1.547 0.937,-2.627 -0.133,-1.394 -1.471,-2.168 -2.68,-2.631 z"
     fill="#26a4fb"
     id="path903" />
  <path
     d="m 264.302,111.046 c -8.841,-5.725 -37.648,-11.293701 -43.542,-20.883101 -11.388,-18.2563 -4.555,-43.7811 11.791,-58.3224 35.636,-31.71370134 124.736,-34.1875503 93.383,40.5294 -6.163,14.8516 -19.026,26.2984 -33.359,30.324101 -15.542,4.331 0,26.761 -1.876,36.04 -6.97,-4.484 -11.79,-18.252 -26.397,-27.688 z"
     fill="#ffb1df"
     id="path905" />
  <path
     d="m 245.949,193.499 c -0.136,0 -0.269,0 -0.269,0.153 -0.936,0.31 -2.145,0.621 -2.948,-0.153 -1.206,-1.084 -0.667,-3.094 0,-4.642 2.679,-6.031 5.628,-11.91 8.845,-17.635 0.936,-1.854 2.009,-3.558 3.483,-4.948 1.474,-1.241 3.483,-2.01 5.226,-1.084 2.68,1.237 2.68,4.952 1.74,7.579 -0.269,0.621 -7.504,12.531 -11.12,18.409 -0.132,1.237 -3.752,2.011 -4.957,2.321 z"
     fill="#ffb1df"
     id="path907" />
  <path
     d="m 241.929,191.178 c -0.132,-1.237 0.137,-2.321 0.804,-3.247 0.94,-1.084 2.278,-1.394 3.619,-0.927 1.205,0.306 2.411,1.237 3.35,2.164 2.812,2.631 4.821,5.878 7.637,8.509 2.547,2.474 5.628,4.332 8.307,6.653 1.475,1.237 3.214,2.32 4.556,3.868 0.265,0.306 0.534,0.773 0.936,1.237 0.94,1.39 1.743,3.094 2.145,4.641 0.133,0.306 0.269,0.77 0.133,1.08 0,0.157 -0.133,0.157 -0.269,0 -0.535,-1.547 -1.338,-2.937 -2.411,-4.331 h -0.132 v 0.157 c 1.072,1.39 1.876,2.784 2.41,4.484 v 0.153 c 0,0 -0.133,0 -0.133,0.158 h -0.136 c -0.535,-1.395 -1.338,-2.785 -2.543,-4.332 0,0 -0.137,-0.157 -0.137,0 v 0.153 c 1.073,1.394 1.876,2.784 2.415,4.179 0,0.153 0,0.153 -0.137,0.153 -0.133,0 -0.133,0 -0.265,0 0,0 -0.137,0 -0.137,-0.153 -0.667,-1.395 -1.474,-2.942 -2.41,-4.022 h -0.133 v 0.153 c 0.804,0.927 1.607,2.321 2.278,3.558 0,0.153 0,0.311 -0.136,0.153 -0.402,-0.153 -0.671,-0.926 -0.936,-1.237 -0.402,-0.616 -0.804,-1.079 -1.342,-1.547 -1.474,-1.39 -3.35,-2.474 -4.821,-3.864 -2.683,-2.788 -6.299,-4.178 -9.649,-5.725 -2.812,-1.394 -5.491,-3.248 -7.905,-5.569 -1.475,-1.547 -3.483,-2.784 -4.42,-4.951 -0.401,-0.311 -0.538,-0.927 -0.538,-1.548 z"
     fill="#26a4fb"
     id="path909" />
  <path
     d="m 255.639,316.313 h 56.405 v 0.31 h -56.405 z"
     fill="#26a4fb"
     id="path911" />
  <path
     d="M 213.166,230.613 H 8.9745 C 4.01733,230.613 0,225.971 0,220.246 V 111.341 c 0,-5.725 4.01733,-10.367 8.9745,-10.367 H 213.166 c 4.957,0 8.978,4.642 8.978,10.367 v 108.905 c -0.137,5.725 -4.154,10.367 -8.978,10.367 z"
     fill="#c0eaff"
     id="path913" />
  <path
     d="m 137.6,174.922 h 17.551 v 19.646 H 137.6 Z"
     fill="#ffde17"
     id="path915" />
  <path
     d="m 104.104,120.467 h 17.55 v 19.646 h -17.55 z"
     fill="#80a5f8"
     id="path917" />
  <path
     d="m 146.844,121.551 h 17.554 v 19.646 h -17.554 z"
     fill="#e2fbff"
     id="path919" />
  <path
     d="m 127.818,165.328 c -0.132,-0.774 -0.132,-0.463 -0.132,-0.774 0,-0.153 0,-0.153 0,-0.306 0,-0.157 0.132,-0.157 0.132,0 0.137,0.153 0.269,0.306 0.402,0.464 0.94,0.926 1.743,1.853 2.547,2.473 h 0.132 0.137 c 0,-0.153 0,-0.153 0,-0.31 -0.804,-0.616 -1.607,-1.547 -2.414,-2.474 -0.133,-0.153 -0.266,-0.31 -0.535,-0.463 -0.132,-0.157 -0.132,-0.31 -0.132,-0.463 0.132,-0.311 0.401,-0.311 0.534,-0.158 0.133,0.158 0.269,0.311 0.402,0.464 0.94,0.931 1.876,2.015 2.679,2.478 0,0 0,0 0.137,0 0,0 0.132,0 0.132,-0.157 0,-0.153 0,-0.153 0,-0.306 -0.803,-0.468 -1.743,-1.548 -2.547,-2.479 -0.265,-0.153 -0.401,-0.463 -0.534,-0.616 -0.136,-0.157 -0.136,-0.467 0,-0.621 0.133,-0.153 0.402,-0.153 0.534,0 1.073,1.084 2.146,2.168 3.218,3.248 h 0.133 0.132 c 0,-0.153 0,-0.153 0,-0.306 -1.068,-1.084 -2.277,-2.168 -3.346,-3.405 -0.137,-0.157 0,-0.31 0,-0.31 0.133,0 0.265,-0.153 0.265,-0.153 0.671,0 1.474,0.926 1.876,1.39 0.804,0.773 2.145,1.857 3.752,2.941 -0.133,0 -0.269,-3.251 0,-3.251 0.133,0 0.269,0.157 0.269,0.31 0,0.157 0.133,0.31 0.133,0.463 0.133,1.241 0.538,2.478 1.072,3.562 0.535,0.927 2.813,3.401 3.483,4.174 l 0.133,0.157 c 0.405,0.774 -0.265,2.164 -1.607,3.091 -0.936,0.62 1.607,4.488 1.073,4.178 4.957,3.558 -0.671,-0.463 -0.671,-0.463 0,0 -2.945,-3.095 -3.081,-3.248 -0.133,-0.157 -0.269,-0.157 -0.402,-0.467 0,0 0,0 0,-0.153 -1.474,-1.701 -2.949,-3.405 -4.556,-4.952 -1.876,-1.39 -3.213,-3.248 -3.35,-3.558 z"
     fill="#ff90c8"
     id="path921" />
  <path
     d="m 199.23,305.487 1.342,5.105 h 6.295 l -0.402,-9.283 z"
     fill="#ff90c8"
     id="path923" />
  <path
     d="m 167.21,300.535 -2.145,15.778 -7.368,-0.616 3.752,-23.204 z"
     fill="#ff90c8"
     id="path925" />
  <path
     d="m 150.594,314.46 h 15.944 v 1.853 h -15.944 z"
     fill="#8869b9"
     id="path927" />
  <path
     d="m 190.659,212.357 c 0,0.463 -0.136,1.083 -0.269,1.547 -1.607,9.126 -5.089,17.172 -7.769,25.525 -0.94,3.094 -1.876,6.188 -2.414,9.593 -1.876,10.21 -4.286,20.42 -5.761,30.32 -1.205,8.046 -0.936,14.694 -4.017,22.277 -0.671,1.547 -1.342,3.094 -2.547,4.021 -0.94,0.621 -2.008,0.774 -3.217,0.774 -8.039,-0.311 -8.171,-3.558 -7.099,-12.531 0.936,-7.579 0.936,-15.162 2.009,-22.584 2.812,-20.887 8.307,-52.907 11.119,-65.284 1.876,-8.2 6.163,-14.231 12.462,-11.447 1.743,0.773 3.482,1.547 4.957,3.094 0.132,0.153 0.401,0.464 0.534,0.617 l 0.136,0.157 c 0.535,0.773 0.937,1.7 1.338,2.627 1.209,3.404 0.94,7.583 0.538,11.294 z"
     fill="#8c66b9"
     id="path929" />
  <path
     d="m 181.411,233.55 c 0,0.621 0,1.237 0,1.858 -0.133,3.557 -0.402,-1.701 0,-1.858 z"
     fill="#2e7dfb"
     id="path931" />
  <path
     d="m 209.145,303.63 c -0.133,0.463 -0.266,0.773 -0.667,1.083 -0.538,0.464 -1.342,0.774 -2.013,0.927 -3.346,0.927 -7.367,1.547 -9.645,-1.547 -1.743,-2.321 -2.41,-5.415 -3.214,-8.2 -0.136,-0.616 -0.405,-1.236 -0.538,-1.7 -1.739,-6.189 -3.081,-13.151 -4.154,-17.325 0,-0.157 0,-0.157 0,-0.31 -0.132,-0.621 -0.269,-1.237 -0.401,-1.701 -1.876,-7.272 -4.154,-24.908 -5.761,-35.428 -0.269,-1.854 -0.534,-3.401 -0.803,-4.795 -0.137,-0.927 -0.269,-1.237 -0.402,-1.237 0.133,-7.579 0.402,-15.005 0.534,-22.588 0,-1.547 0,-3.094 0,-4.641 0,-5.105 4.021,-5.879 8.175,-5.258 1.338,0.153 2.543,0.463 3.752,0.773 1.607,0.464 3.214,1.237 4.419,2.474 1.342,1.547 1.876,4.952 2.278,7.889 0.136,1.084 0.269,2.015 0.401,2.789 0,0.306 0.137,0.463 0.137,0.773 3.752,17.015 1.739,36.351 2.812,53.213 0.534,9.594 3.35,18.257 4.423,27.693 0,0.31 0,0.616 0.132,0.927 -0.132,1.857 0.94,4.488 0.535,6.189 z"
     fill="#8c66b9"
     id="path933" />
  <path
     d="m 199.767,308.424 -6.834,3.715 c -0.939,0.464 -1.606,1.39 -1.341,2.627 h 15.811 l -0.401,-4.795 h -5.359 z"
     fill="#26a4fb"
     id="path935" />
  <path
     d="m 191.461,314.766 h 15.944 v 1.858 h -15.944 z"
     fill="#8869b9"
     id="path937" />
  <path
     d="m 149.256,316.003 h 67.661 v 0.621 h -67.661 z"
     fill="#26a4fb"
     id="path939" />
  <path
     d="m 192.534,157.439 c 0.133,-0.153 0.133,-0.153 0,0 1.338,-4.485 -0.94,-5.105 -3.619,-6.342 -1.876,-0.927 -6.564,-4.021 -8.308,-3.868 -1.205,0.157 -1.607,2.168 -0.936,3.405 0.671,1.237 1.876,1.857 2.812,2.473 2.949,2.011 1.205,6.342 4.154,8.51 0.94,0.774 2.145,2.937 3.217,2.164 0.535,-0.464 1.338,-2.784 1.607,-3.401 0.402,-1.084 0.804,-2.01 1.073,-2.941 z"
     fill="#150077"
     id="path941" />
  <path
     d="m 189.853,159.449 2.68,8.663 c 0,1.705 -4.021,1.547 -5.761,1.547 -1.743,0 -3.217,-1.39 -3.217,-3.094 v -7.269 h 6.298 z"
     fill="#ff90c8"
     id="path943" />
  <path
     d="m 187.979,159.449 v 0.621 c 0,0.463 -0.136,0.927 -0.269,1.237 -0.534,1.7 -2.278,2.941 -4.286,3.094 v -4.952 z"
     fill="#150077"
     id="path945" />
  <path
     d="m 182.349,159.296 1.205,-6.189 c 0,-0.153 0.133,-0.31 0.133,-0.463 l 6.969,1.7 c 0,0.158 0,0.311 0,0.468 l -0.939,5.105 c 0,0.306 -0.133,0.463 0,0.774 -0.133,0 -0.133,0.153 -0.266,0.153 -0.136,0 -0.269,0 -0.402,-0.153 -0.939,0.926 -3.751,2.473 -5.627,1.7 -1.073,-0.464 -1.206,-1.858 -1.073,-3.095 z"
     fill="#ff90c8"
     id="path947" />
  <path
     d="m 186.904,152.644 0.269,3.248 c 0.133,1.084 0.936,1.857 1.876,1.704 l 1.74,-0.157 0.538,-4.642 -2.816,-0.306 z"
     fill="#150077"
     id="path949" />
  <path
     d="m 188.242,158.212 0.269,2.632 c 0.133,0.926 0.94,1.547 2.145,1.7 v -4.642 z"
     fill="#150077"
     id="path951" />
  <path
     d="m 188.513,160.533 c 0.671,0.621 1.607,0.621 2.145,-0.153 0.535,-0.773 0.535,-1.857 -0.136,-2.478 -0.667,-0.616 -1.607,-0.616 -2.141,0.157 -0.539,0.774 -0.539,1.858 0.132,2.474 z"
     fill="#150077"
     id="path953" />
  <path
     d="m 184.496,156.202 c -0.137,0 -0.269,-0.153 -0.269,-0.31 0,-0.153 0.132,-0.311 0.269,-0.153 0.132,0 0.265,0.153 0.265,0.31 0,0.153 -0.133,0.153 -0.265,0.153 z"
     fill="#150077"
     id="path955" />
  <path
     d="m 183.153,155.428 -0.671,2.168 c 0,0.153 0,0.306 0.137,0.306 l 0.534,0.157 0.535,-3.094 z"
     fill="#ff90c8"
     id="path957" />
  <path
     d="m 188.245,160.223 c 0.671,0.621 1.61,0.621 2.145,-0.153 0.534,-0.774 0.534,-1.858 -0.133,-2.474 -0.671,-0.621 -1.61,-0.621 -2.145,0.153 -0.534,0.774 -0.534,1.858 0.133,2.474 z"
     fill="#ff90c8"
     id="path959" />
  <path
     d="m 182.35,160.07 c 0.132,0 0.269,0 0.401,0 0.535,-0.153 0.936,-0.621 0.936,-1.084 -0.265,0.157 -0.667,0.31 -0.936,0.31 -0.132,0 -0.269,0 -0.401,-0.153 z"
     fill="#ffffff"
     id="path961" />
  <path
     d="m 200.572,212.357 c -3.35,0.157 -6.564,0.157 -9.914,0 -2.949,-0.153 -5.897,-0.464 -8.709,-1.39 -1.205,-0.311 -2.547,-0.774 -3.752,-1.395 -1.073,-0.463 -1.607,-1.084 -1.744,-1.857 -0.265,-1.08 0.27,-2.321 1.073,-3.711 1.876,-3.094 4.957,-5.105 8.307,-6.189 0.804,-0.153 1.607,-0.31 2.278,-0.31 0.133,0.157 0.402,0.468 0.535,0.621 l 0.136,0.153 c 0.534,0.773 0.936,1.704 1.338,2.631 1.341,0.153 2.547,0.463 3.752,0.773 1.607,0.464 3.217,1.237 4.422,2.474 1.206,1.858 1.876,5.262 2.278,8.2 z"
     fill="#150077"
     id="path963" />
  <path
     d="m 169.62,171.674 c 0.269,-1.241 0.401,-2.321 0.807,-3.562 0.534,-1.39 1.205,-2.784 2.274,-3.558 2.547,-1.853 6.7,-1.079 9.38,0.158 3.619,1.547 6.162,2.01 10.05,1.547 3.347,-0.31 6.966,-0.31 10.047,1.7 2.949,1.858 5.227,6.032 4.287,9.9 l -1.876,-0.927 c -0.133,3.868 -1.069,7.579 -2.009,11.294 -1.205,4.642 -2.547,9.126 -2.948,14.078 -0.133,2.163 1.743,4.484 0.269,5.721 -0.402,0.31 -0.804,0.621 -1.338,0.774 -0.671,0.31 -1.474,0.31 -2.278,0.31 -5.226,0.31 -13.534,0.153 -18.76,-0.31 -3.081,-0.311 -6.697,-1.084 -7.905,-4.332 -0.402,-1.237 -0.402,-2.631 -0.535,-3.868 0.269,-9.589 -1.072,-19.799 0.535,-28.925 z"
     fill="#ffffff"
     id="path965" />
  <path
     d="m 179.403,165.638 c -0.401,-3.094 -6.7,-1.857 -8.307,-1.237 -2.68,1.084 -5.359,3.095 -6.966,5.879 -2.145,3.405 -5.226,6.189 -9.111,6.189 -0.803,0 -1.607,-0.158 -2.41,-0.464 -0.269,0 -0.538,-0.157 -0.94,-0.157 -2.41,-0.463 -4.824,-1.547 -6.966,-2.784 -1.205,-0.621 -2.278,-1.7 -3.217,-2.631 -0.402,-0.153 -0.667,-0.306 -1.073,-0.306 -0.133,0 -0.265,0 -0.265,0 -1.205,2.163 -2.816,3.711 -2.949,6.342 0.535,1.237 2.547,3.094 3.483,4.021 5.226,5.725 12.329,8.816 19.427,7.426 5.764,-1.237 10.987,-4.795 15.008,-9.747 2.679,-3.558 4.957,-8.042 4.286,-12.531 z"
     fill="#ffffff"
     id="path967" />
  <path
     d="m 201.91,218.082 c 0,-0.157 0.137,-0.157 0.137,-0.157 -0.137,0.157 -0.137,0.157 -0.137,0.157 z"
     fill="#ff90c8"
     id="path969" />
  <path
     d="m 191.193,170.9 1.474,-4.178 h -0.269 l -1.338,3.558 -3.483,-4.178 -3.619,2.941 -0.535,-3.715 h -0.269 l 0.535,4.331 3.888,-3.247 z"
     fill="#c0f3ff"
     id="path971" />
  <path
     d="m 172.701,176.469 0.137,-1.705 6.431,0.931 -0.136,1.7 z m 0.406,-1.237 -0.137,1.079 5.897,0.774 0.133,-1.08 z"
     fill="#ffffff"
     id="path973" />
  <path
     d="m 140.949,180.8 c 1.74,-2.321 3.214,-4.642 4.556,-7.273 0.132,-0.153 0.132,-0.31 0.269,-0.463 -0.137,0 -0.137,-0.153 -0.269,-0.153 -0.133,0.153 -0.133,0.306 -0.27,0.463 -1.072,2.164 -2.41,4.332 -3.751,6.189 -0.266,0.306 -0.535,0.617 -0.668,0.927 z"
     fill="#c0f3ff"
     id="path975" />
  <path
     d="m 200.17,207.872 c -0.402,0.31 -0.803,0.617 -1.342,0.774 0.137,-0.464 -0.132,-1.084 -0.401,-1.547 -0.402,-0.464 -0.936,-0.774 -1.205,-1.237 -0.269,-0.468 -0.269,-0.931 -0.402,-1.237 -0.133,-0.931 -0.269,-2.015 -0.269,-2.942 0,-2.163 0.803,-4.178 1.072,-6.342 0.269,-2.01 0.133,-4.178 0.133,-6.341 0.136,-3.869 0.94,-7.89 2.547,-11.294 0.803,3.557 1.743,7.115 2.547,10.52 -1.206,4.642 -2.547,9.126 -2.949,14.078 -0.269,1.853 1.743,4.331 0.269,5.568 z"
     fill="#e8f1f9"
     id="path977" />
  <path
     d="m 207.137,230.923 c 0,-0.31 0.136,-0.467 0.136,-0.773 0.266,-1.858 0.535,-3.715 0.804,-5.573 1.607,0.31 3.214,0.931 4.821,1.547 -0.535,1.547 -1.069,2.942 -1.338,4.489 -0.137,0.773 -0.269,1.39 -0.269,2.163 -0.133,2.011 -0.804,3.868 -0.937,5.879 0,0.621 0,1.237 0,1.857 0,0.464 0.266,0.927 0.133,1.395 0,0.153 -0.133,0.153 -0.269,0 -0.402,-1.241 -0.667,-2.478 -0.667,-3.715 0,-0.153 0,-0.153 -0.136,-0.153 -0.133,0 -0.133,0 -0.133,0.153 0,1.394 0.269,2.941 0.671,4.178 v 0.153 c 0,0 -0.137,0.157 -0.269,0.157 h -0.133 c -0.405,-1.241 -0.807,-2.631 -0.807,-4.335 0,-0.153 -0.133,-0.153 -0.133,-0.153 -0.133,0 -0.133,0 -0.133,0.153 0.133,1.704 0.402,3.251 0.937,4.488 0,0 0,0.153 -0.133,0.153 h -0.136 -0.133 c -0.671,-1.39 -0.936,-2.937 -1.073,-4.484 0,-0.157 -0.132,-0.157 -0.132,-0.157 -0.133,0 -0.133,0 -0.133,0.157 0.133,1.547 0.402,2.937 0.936,4.331 0,0.153 0,0.153 -0.133,0.153 -0.136,-0.153 -0.401,-0.463 -0.538,-0.773 -0.67,-1.39 -1.072,-2.937 -1.337,-4.485 0,-0.463 -0.137,-0.926 -0.137,-1.394 -0.133,-1.547 0.402,-3.558 0.671,-5.411 z"
     fill="#ff90c8"
     id="path979" />
  <path
     d="m 201.778,167.496 c 0.269,0.153 0.401,0.31 0.671,0.463 8.709,6.189 13.397,18.256 14.602,29.703 1.073,10.053 -0.402,21.504 -4.286,30.63 -0.133,0.153 -0.133,0.463 -0.402,0.616 -0.269,0.158 -0.535,0.311 -0.804,0.311 -3.619,-1.084 -4.286,-0.311 -4.286,-3.558 0,-3.558 0.936,-6.652 0.803,-10.053 -0.136,-4.025 -0.538,-8.046 -1.208,-11.914 -1.206,-7.736 -3.483,-15.315 -6.697,-22.278 -1.474,-3.247 -5.761,-9.742 -2.949,-12.994 0.671,-0.773 1.475,-1.39 2.411,-1.547 0.807,-0.153 1.474,0.157 2.145,0.621 z"
     fill="#ffffff"
     id="path981" />
  <path
     d="m 214.372,223.961 v -0.311 l -6.833,-1.237 v 0.311 c 1.073,0.306 3.752,0.926 6.833,1.237 z"
     fill="#c0f3ff"
     id="path983" />
  <path
     d="m 152.068,311.982 c -0.936,0.463 -1.607,1.394 -1.338,2.631 h 15.807 l -0.401,-4.795 h -5.359 l -1.876,-1.547 z"
     fill="#26a4fb"
     id="path985" />
  <path
     d="M 54.7969,130.524 H 72.3478 V 150.17 H 54.7969 Z"
     fill="#e2fbff"
     id="path987" />
  <path
     d="M 97.1387,185.131 H 114.69 v 19.647 H 97.1387 Z"
     fill="#ffb1df"
     id="path989" />
  <path
     d="M 83.0697,103.915 C 71.5447,95.715899 68.3308,78.233199 67.5274,62.608099 c -0.6708,-12.5265 -0.2691,-26.1412 6.026,-36.5084 C 84.0058,8.6212587 122.056,-3.4461813 139.342,0.88517166 147.111,2.7426787 152.47,10.942099 156.355,19.141499 c 6.431,13.4574 24.387,59.402 13.533,73.633 C 149.658,119.383 118.304,111.957 91.9115,113.815 c -10.7178,0.774 -20.7685,4.642 -30.5502,8.816 2.1451,-2.011 20.0978,-19.8 21.7084,-18.716 z"
     fill="#26a4fb"
     id="path991" />
  <path
     d="m 431.958,148.779 c 10.183,0 27.469,-0.306 32.828,-12.063 9.513,-21.041 10.316,-52.907401 -4.957,-68.685601 -12.73,-13.3044 -38.051,-15.3149 -55.2,-15.7825 -13.803,-0.306 -28.943,3.5578 -37.251,16.2458 -5.76,8.8157 -7.234,20.4199 -7.098,31.4034 0,7.888901 0.803,16.088901 4.286,22.893901 3.483,7.115 9.513,12.22 15.675,16.246 15.41,9.899 31.888,9.589 41.136,24.751 5.76,-8.51 0,-15.009 10.581,-15.009 z"
     fill="#1eb3fb"
     id="path993" />
  <path
     d="m 331.743,150.794 c -0.136,2.01 0.667,4.331 0.936,6.184 0.133,0.774 0.133,1.395 0.133,2.168 -0.265,2.321 -2.41,3.405 -4.017,2.474 -1.876,-0.927 -2.145,-4.021 -2.411,-6.189 -0.405,-2.627 -2.816,-10.363 -1.341,-12.526 0.67,1.39 0.803,3.09 1.341,4.637 0,0 0,0.157 0.133,0.157 h 0.133 c 0.136,0 0.136,-0.157 0.136,-0.31 -0.402,-1.084 -0.671,-2.474 -1.073,-3.868 0,-0.31 -0.136,-0.616 -0.136,-0.774 0,-0.153 0,-0.463 0.136,-0.463 0.266,-0.153 0.535,0 0.535,0.31 0,0.306 0.136,0.464 0.136,0.774 0.402,1.547 0.804,3.094 1.205,4.021 0,0 0,0 0.133,0.153 h 0.133 c 0.136,0 0.136,-0.153 0,-0.306 -0.402,-0.931 -0.804,-2.478 -1.205,-4.025 -0.133,-0.306 -0.133,-0.617 -0.266,-0.927 0,-0.153 0,-0.463 0.266,-0.621 0.136,-0.153 0.401,0 0.538,0.311 0.401,1.7 0.936,3.404 1.338,5.105 0,0 0,0.157 0.136,0.157 h 0.133 c 0.132,0 0.132,-0.157 0.132,-0.31 -0.534,-1.705 -0.936,-3.558 -1.474,-5.263 0,-0.153 0,-0.306 0.136,-0.306 0.133,0 0.266,0 0.266,0.153 0.538,0.311 0.807,1.858 1.072,2.474 0.402,1.237 1.206,3.095 2.013,5.105 -0.137,-0.153 1.205,-3.247 1.47,-3.094 0.137,0.157 0.137,0.31 0.137,0.467 0,0.153 0,0.306 -0.137,0.464 -0.534,1.084 -0.667,2.474 -0.667,3.868 z"
     fill="#fdc5b6"
     id="path995" />
  <path
     d="m 375.42,194.26 c 2.41,-2.627 1.337,-6.958 -0.804,-9.279 -0.538,-0.463 -1.072,-1.084 -1.876,-1.547 -2.679,-1.704 -5.764,-2.168 -8.845,-2.631 -7.235,-1.084 -15.808,-2.164 -21.838,-7.269 -4.422,-3.715 -6.969,-12.377 -9.512,-17.793 -2.414,0.158 -4.154,0.311 -6.432,0.774 1.475,5.568 1.876,11.294 3.885,16.709 1.072,3.095 2.145,6.189 3.752,8.816 2.278,4.025 5.628,7.426 8.978,10.21 3.214,2.478 7.5,3.094 11.252,3.868 3.752,0.773 7.504,1.547 11.256,1.394 3.081,-0.157 7.906,-0.621 10.184,-3.252 z"
     fill="#7adcfb"
     id="path997" />
  <path
     d="m 328.793,153.421 c -0.538,-2.011 0.269,-4.332 1.876,-5.258 l 0.265,0.616 c -1.337,0.774 -2.008,2.788 -1.607,4.489 z"
     fill="#f7903c"
     id="path999" />
  <path
     d="m 386.539,312.295 6.564,23.361 h 7.102 l -2.679,-20.419 z"
     fill="#fdc5b6"
     id="path1001" />
  <path
     d="m 370.462,317.247 -3.619,24.751 -8.308,-0.616 4.287,-26.145 z"
     fill="#fdc5b6"
     id="path1003" />
  <path
     d="m 359.878,333.025 -7.636,4.179 c -1.073,0.463 -1.876,1.547 -1.475,2.937 h 17.684 l -0.534,-5.258 h -6.03 z"
     fill="#ff4d76"
     id="path1005" />
  <path
     d="m 350.498,339.988 h 17.953 v 2.01 h -17.953 z"
     fill="#2300b1"
     id="path1007" />
  <path
     d="m 379.437,224.121 c -0.133,-0.468 -0.402,-0.931 -0.671,-1.394 -3.214,-6.032 -12.192,-6.189 -15.538,-0.153 -1.475,2.626 -1.876,5.721 -2.145,8.815 -2.009,18.099 -3.483,36.198 -4.154,54.302 -0.269,9.279 -0.671,16.241 -0.402,25.524 0.133,4.021 -1.205,12.374 0.535,16.089 2.012,4.174 7.234,3.094 11.657,2.627 1.205,-0.153 2.145,-1.237 2.145,-2.627 0,-10.367 2.68,-48.886 3.214,-52.754 1.073,-9.59 2.411,-19.183 4.021,-28.619 1.338,-6.342 6.03,-16.705 1.338,-21.81 z"
     fill="#2300b1"
     id="path1009" />
  <path
     d="m 400.608,324.052 c 0.269,1.241 0.401,2.478 -0.133,3.558 -0.807,1.704 -2.679,2.321 -4.29,2.478 -1.607,0.31 -3.214,0.31 -4.821,0.463 -1.341,0 -2.816,0 -4.021,-0.773 -5.359,-3.248 -6.833,-20.577 -7.769,-26.609 -1.209,-7.268 -2.145,-14.694 -2.816,-21.967 -0.671,-7.426 -0.804,-14.694 -0.671,-22.12 0,-8.2 0.402,-16.399 0.402,-24.598 0,-0.311 0,-0.774 0,-1.084 0,-0.311 0,-0.617 0,-1.084 0,-5.105 3.752,-5.568 7.504,-4.948 0.94,0.153 1.876,0.463 2.679,0.774 1.342,0.463 2.816,1.084 3.752,2.321 0.671,0.773 1.073,2.163 1.342,3.868 0,0.306 0.133,0.463 0.133,0.773 0.401,2.011 0.534,4.021 0.803,5.569 0,0.31 0.133,0.463 0.133,0.773 3.085,16.242 1.474,34.341 2.414,50.429 0.534,10.21 2.008,21.351 5.09,30.787 0,0.311 0.136,0.774 0.269,1.39 z"
     fill="#2300b1"
     id="path1011" />
  <path
     d="m 392.167,333.336 -3.752,4.178 c -1.072,0.463 -1.876,1.547 -1.474,2.937 h 13.799 l -0.534,-5.258 h -6.03 z"
     fill="#ff4d76"
     id="path1013" />
  <path
     d="m 386.809,340.298 h 14.068 v 2.011 h -14.068 z"
     fill="#2300b1"
     id="path1015" />
  <path
     d="m 398.329,337.357 h -6.7 v -2.785 c 0,-2.163 1.474,-3.868 3.35,-3.868 1.876,0 3.35,1.705 3.35,3.868 z"
     fill="#ff4d76"
     id="path1017" />
  <path
     d="m 374.48,233.4 c -0.269,0 -0.534,-0.153 -0.671,-0.153 -2.944,-0.774 -5.76,-2.011 -8.44,-3.248 1.607,-4.799 4.287,-8.667 7.773,-9.746 0.266,0.153 0.535,0.153 0.936,0.306 2.145,0.773 4.423,1.704 6.03,3.562 l 0.133,0.153 c 0.671,0.926 1.205,1.857 1.61,3.094 0.937,0.153 2.009,0.464 2.945,0.774 1.474,0.463 2.949,1.084 4.021,2.321 0.671,0.773 1.073,2.163 1.474,3.868 0,0.306 0.133,0.463 0.133,0.773 -1.072,0.153 -2.145,0.153 -3.081,0.153 -1.607,0 -3.081,0 -4.688,-0.153 -1.342,-0.157 -2.547,-0.31 -3.889,-0.467 -5.222,-0.927 -9.914,-2.164 -14.871,-4.948 -0.936,-0.621 -2.009,-1.547 -1.876,-2.784 0,-0.31 0.136,-0.468 0.402,-0.621 z"
     fill="#150077"
     id="path1019" />
  <path
     d="m 381.312,187.765 c 0.133,-0.157 0.133,-0.157 0,0 0.402,-0.62 0.539,-1.083 0.804,-1.7 z"
     fill="#150077"
     id="path1021" />
  <path
     d="m 381.313,187.765 c -0.936,1.084 -1.607,2.474 -2.008,4.021 z"
     fill="#150077"
     id="path1023" />
  <path
     d="m 389.489,185.908 c -4.824,-2.474 -12.594,-3.868 -17.82,-3.405 -3.35,0.31 -6.431,2.631 -8.175,5.879 -5.628,11.141 0.402,23.824 -2.277,35.428 -0.133,0.774 -0.402,1.701 -0.133,2.627 0.402,1.395 1.607,2.168 2.948,2.631 5.223,2.168 10.851,2.474 16.479,2.942 2.41,0.153 5.761,0.463 8.307,-0.621 1.607,-0.616 2.812,-1.857 3.351,-3.868 0.667,-2.474 0.265,-5.258 0.534,-7.889 0.402,-4.948 2.679,-9.283 4.154,-13.921 0.401,-1.394 0.67,-2.631 0.939,-4.025 0.133,-0.773 0.133,-1.547 0.133,-2.474 -0.133,-6.499 -3.752,-10.983 -8.44,-13.304 z"
     fill="#7adcfb"
     id="path1025" />
  <path
     d="m 384.129,177.245 c 0,-0.153 0,-0.153 0,0 1.205,-3.868 -0.807,-4.331 -3.085,-5.415 -1.607,-0.774 -5.624,-3.401 -7.098,-3.248 -1.073,0.154 -1.342,1.858 -0.804,2.938 0.535,1.084 1.607,1.547 2.411,2.167 2.546,1.858 1.072,5.416 3.483,7.273 0.803,0.617 1.876,2.474 2.815,1.853 0.402,-0.31 1.206,-2.473 1.338,-2.937 0.269,-1.084 0.671,-1.857 0.94,-2.631 z"
     fill="#150077"
     id="path1027" />
  <path
     d="m 377.159,189.313 c 1.342,-0.931 2.547,-2.011 3.752,-3.095 0.133,-0.153 0.402,-0.31 0.534,-0.463 0.538,-0.463 1.073,-0.931 1.475,-1.394 l -1.206,-5.416 h -5.359 v 8.047 c 0,0.926 0.27,1.7 0.804,2.321 z"
     fill="#fdc5b6"
     id="path1029" />
  <path
     d="m 380.107,178.945 v 0.621 c 0,0.31 -0.132,0.774 -0.132,1.084 -0.538,1.547 -1.876,2.627 -3.62,2.627 v -4.332 z"
     fill="#150077"
     id="path1031" />
  <path
     d="m 375.421,178.792 1.069,-5.258 c 0,-0.157 0,-0.31 0.136,-0.467 l 6.03,1.394 c 0,0.153 0,0.31 0,0.463 l -0.804,4.332 c 0,0.31 0,0.463 0,0.62 l -0.136,0.153 c -0.133,0 -0.133,0 -0.269,-0.153 -0.804,0.927 -3.214,2.164 -4.821,1.39 -1.341,-0.153 -1.474,-1.39 -1.205,-2.474 z"
     fill="#fdc5b6"
     id="path1033" />
  <path
     d="m 379.168,173.067 0.269,2.788 c 0,0.927 0.803,1.543 1.607,1.543 l 1.474,-0.153 0.538,-4.021 -2.546,-0.157 z"
     fill="#150077"
     id="path1035" />
  <path
     d="m 380.377,177.866 0.265,2.163 c 0.137,0.774 0.804,1.395 1.876,1.395 v -4.026 z"
     fill="#150077"
     id="path1037" />
  <path
     d="m 380.641,179.876 c 0.538,0.617 1.342,0.464 1.876,-0.157 0.538,-0.616 0.402,-1.547 -0.132,-2.011 -0.535,-0.616 -1.342,-0.463 -1.876,0.158 -0.535,0.463 -0.402,1.39 0.132,2.01 z"
     fill="#150077"
     id="path1039" />
  <path
     d="m 377.16,176.161 c -0.133,0 -0.133,-0.153 -0.133,-0.306 0,-0.157 0.133,-0.157 0.269,-0.157 0.133,0 0.133,0.157 0.133,0.31 -0.133,0.153 -0.269,0.153 -0.269,0.153 z"
     fill="#150077"
     id="path1041" />
  <path
     d="m 375.954,175.545 -0.671,1.853 c 0,0.157 0,0.157 0.137,0.157 l 0.534,0.154 0.534,-2.627 z"
     fill="#fdc5b6"
     id="path1043" />
  <path
     d="m 380.377,179.566 c 0.534,0.621 1.338,0.463 1.876,-0.153 0.534,-0.621 0.402,-1.547 -0.136,-2.015 -0.535,-0.616 -1.338,-0.463 -1.876,0.157 -0.535,0.617 -0.402,1.548 0.136,2.011 z"
     fill="#fdc5b6"
     id="path1045" />
  <path
     d="m 375.283,179.413 c 0.137,0 0.269,0 0.402,0 0.402,-0.157 0.803,-0.468 0.803,-0.931 -0.265,0.157 -0.534,0.31 -0.803,0.31 -0.133,0 -0.265,0 -0.265,-0.153 z"
     fill="#ffffff"
     id="path1047" />
  <path
     d="m 385.335,192.25 c 0.265,-0.774 0.667,-1.7 0.936,-2.474 -1.073,1.084 -1.474,2.631 -1.607,4.178 0.269,-0.467 0.402,-1.084 0.671,-1.704 z"
     fill="#7adcfb"
     id="path1049" />
  <path
     d="m 396.587,205.401 c -1.338,4.642 -3.752,9.126 -4.154,13.921 -0.265,2.631 0.137,5.415 -0.534,7.889 -0.534,2.015 -1.743,3.252 -3.35,3.868 0,-0.774 0,-1.547 0.136,-2.321 0.266,-1.853 0.804,-3.558 1.205,-5.258 0.937,-4.178 0.667,-8.816 0.266,-13.151 -0.133,-2.937 -0.804,-6.652 -0.266,-9.279 1.74,0.153 4.821,1.857 6.697,4.331 z"
     fill="#2300b1"
     id="path1051" />
  <path
     d="m 428.073,263.724 h -51.182 c -2.141,0 -3.748,-2.015 -3.748,-4.336 v -34.651 c 0,-2.474 1.739,-4.331 3.748,-4.331 h 51.182 c 2.145,0 3.752,2.01 3.752,4.331 v 34.651 c 0.133,2.321 -1.607,4.336 -3.752,4.336 z"
     fill="#e7f0f8"
     id="path1053" />
  <path
     d="m 377.158,234.794 h 50.648 v 2.011 h -50.648 z"
     fill="#7adcfb"
     id="path1055" />
  <path
     d="m 377.158,228.758 h 50.648 v 2.015 h -50.648 z"
     fill="#7adcfb"
     id="path1057" />
  <path
     d="m 377.158,240.826 h 50.648 v 2.01 h -50.648 z"
     fill="#7adcfb"
     id="path1059" />
  <path
     d="m 377.158,247.014 h 50.648 v 2.011 h -50.648 z"
     fill="#7adcfb"
     id="path1061" />
  <path
     d="m 377.158,252.74 h 17.953 v 2.627 h -17.953 z"
     fill="#7adcfb"
     id="path1063" />
  <path
     d="m 412.932,211.896 c 1.743,4.025 2.815,8.046 2.679,11.604 -0.133,2.011 -0.534,3.868 -1.069,5.726 -1.61,6.031 -2.948,12.683 -5.897,18.099 -0.803,1.39 -2.145,2.937 -3.35,2.163 -0.936,-0.616 -1.073,-2.01 -1.205,-3.247 -0.133,-7.889 -0.269,-15.778 -0.402,-23.667 0,-1.084 0,-2.321 -0.534,-3.405 -0.671,-1.547 -2.013,-2.321 -3.351,-3.095 -5.897,-3.557 -15.542,-10.057 -16.076,-18.409 -0.406,-7.579 4.957,-13.457 10.983,-8.816 5.897,4.174 14.068,13.611 18.222,23.047 z"
     fill="#7adcfb"
     id="path1065" />
  <path
     d="m 403.821,243.92 c 0,3.094 -0.265,6.032 -1.205,8.663 -0.402,1.084 -1.072,2.168 -1.876,2.941 -0.133,0.153 -0.133,0.153 -0.265,0.306 0,0.157 -0.137,0.31 0,0.468 0.132,0.306 2.141,-1.394 2.141,-1.705 v 0.158 c 0,0.153 0,0.153 0,0.306 0,1.704 0.136,3.251 0,4.331 0,0.621 -0.265,2.015 0.136,2.478 0,0.153 0.133,0.153 0.266,0.31 0.136,0 0.269,0 0.269,-0.157 0.132,-1.547 0.269,-3.247 0.402,-4.795 0,-0.153 0.132,-0.153 0.132,-0.153 h 0.137 c 0,0 0,0 0,0.153 -0.137,1.548 -0.269,3.095 -0.402,4.642 0,0.153 0.133,0.463 0.265,0.463 0.137,0 0.269,-0.153 0.402,-0.31 0,-0.31 0,-0.616 0.136,-0.927 0.133,-1.394 0.269,-2.784 0.269,-3.715 0,-0.153 0,-0.153 0.133,-0.153 h 0.133 c 0,0 0,0 0,0.153 0.136,0.931 -0.133,2.321 -0.266,3.715 0,0.153 0,0.464 -0.136,0.617 0,0.31 0.136,0.467 0.402,0.467 0.136,0 0.269,-0.157 0.269,-0.31 0,-0.31 0,-0.463 0.132,-0.774 0.137,-1.237 0.27,-2.473 0.402,-3.557 0,-0.158 0.137,-0.158 0.137,-0.158 h 0.132 c 0,0 0,0 0,0.158 0,1.084 -0.132,2.32 -0.401,3.557 0,0.153 0,0.464 -0.133,0.617 0,0.157 0.133,0.157 0.133,0.157 l 0.132,-0.157 c 0.137,-0.153 0,0 0.402,-0.617 0.136,-0.31 0.671,-2.631 0.94,-4.952 0.269,-2.01 0.534,-3.868 0.803,-5.878 0.269,-0.774 0.535,-1.547 0.671,-2.164 0.265,-0.931 0.671,-2.167 0.936,-3.404 -2.008,-0.464 -3.884,-0.774 -5.893,-1.084 0.265,0.31 0.265,0.31 0.265,0.31 z"
     fill="#f8c208"
     id="path1067" />
  <path
     d="m 332.275,342.462 h 77.845 v 0.309 h -77.845 z"
     fill="#26a4fb"
     id="path1069" />
  <path
     d="m 17.821,202.457 c -0.269,0.773 -0.4017,1.547 -0.269,2.321 0.1327,0.616 0.6708,1.084 1.0725,1.547 3.3502,3.405 7.9057,5.721 12.5938,6.962 1.4742,0.464 3.0812,0.774 4.4227,0.306 1.3379,-0.463 2.6795,-1.853 2.5431,-3.247 -4.1537,-2.321 -8.0383,-5.105 -11.6539,-8.199 -1.4743,-1.237 22.5081,-23.668 8.171,-24.441 -10.1834,-0.464 -14.8715,18.099 -16.8802,24.751 z"
     fill="#ffffff"
     id="path1071" />
  <path
     d="m 15.9434,316.313 h 63.6397 v 0.31 H 15.9434 Z"
     fill="#26a4fb"
     id="path1073" />
  <path
     d="M 64.0398,316.471 H 50.6426 c 0,-0.468 0,-1.084 0,-1.705 0,-0.773 0,-1.39 0,-2.01 l 1.4742,-12.068 h 8.1747 l -2.414,8.82 c 0,0 2.8158,2.474 4.5554,3.868 0.4017,0.31 0.8035,0.774 1.0725,1.39 0.2691,0.468 0.4018,1.084 0.5344,1.705 z"
     fill="#fdc401"
     id="path1075" />
  <path
     d="M 64.5791,316.471 H 50.1094 c 0,-0.774 0,-1.705 0,-2.631 h 11.923 c 1.3415,0.153 2.5467,1.236 2.5467,2.631 z"
     fill="#150077"
     id="path1077" />
  <path
     d="M 46.6275,316.471 H 33.2266 c 0,-0.468 0,-1.084 0,-1.705 0,-0.773 0,-1.39 0,-2.01 v -12.068 h 8.3074 l -0.9362,8.82 c 0,0 2.8122,2.474 4.5555,3.868 0.4017,0.31 0.8034,0.774 1.0725,1.39 0.1327,0.468 0.4017,1.084 0.4017,1.705 z"
     fill="#fdc401"
     id="path1079" />
  <path
     d="M 47.1613,316.471 H 32.8242 c 0,-0.774 0,-1.705 0,-2.631 h 11.9267 c 1.3379,0.153 2.4104,1.236 2.4104,2.631 z"
     fill="#150077"
     id="path1081" />
  <path
     d="m 42.8765,289.088 c 0,2.164 -0.5381,10.363 -0.8034,13.615 0,0.773 -0.6708,1.39 -1.3416,1.547 -1.6069,0.153 -4.4228,0.463 -5.7606,0.306 -0.5381,0 -1.0726,-0.153 -1.607,-0.306 -1.6106,-0.931 -1.3415,-9.44 -1.6106,-11.604 -0.5344,-4.795 -1.0688,-9.436 -1.4706,-14.231 -0.9398,-9.283 -1.8759,-18.567 -2.8158,-27.846 -0.6708,-6.652 -1.2052,-13.304 -1.2052,-20.113 0,-1.854 0,-3.711 0.1327,-5.569 0,-0.616 0.1364,-1.237 0.1364,-1.857 0.2653,-2.474 0.6671,-5.105 1.3379,-7.579 0.1363,-0.31 0.1363,-0.774 0.269,-1.084 0.1327,-0.616 0.4017,-1.39 0.6708,-2.164 0.9361,-3.404 2.4104,-7.272 4.2864,-9.283 2.8121,-3.247 6.1623,-0.153 6.9658,3.405 2.6795,11.91 5.2262,24.131 5.4953,36.355 0.2653,10.363 -0.8035,20.726 -1.7433,30.936 -0.4018,5.105 -0.9362,10.21 -0.9362,15.472 z"
     fill="#38a0fb"
     id="path1083" />
  <path
     d="m 35.5032,208.182 c 0.1364,-1.083 0.2691,-2.167 0.5381,-3.404 4.0174,-0.311 8.0384,-0.774 12.0557,-1.084 1.876,-0.153 2.4141,0.31 4.021,1.237 -1.4742,4.641 0.1327,8.662 1.4743,12.53 2.5468,7.584 5.0898,15.009 7.6366,22.588 2.145,6.342 5.2262,13.768 5.0899,20.73 0,1.701 -0.2654,3.558 -1.0689,5.105 -4.29,8.2 -14.6061,-6.962 -17.4182,-10.677 -5.0936,-6.648 -9.9144,-13.921 -12.3285,-22.431 -2.1413,-8.199 -1.2052,-16.241 0,-24.594 z"
     fill="#23affc"
     id="path1085" />
  <path
     d="m 79.3195,168.112 c 0,-0.153 0.1327,-0.306 0.2654,-0.463 0.1364,-0.311 0.4017,-0.464 0.5381,-0.617 0.5344,-0.62 0.9362,-1.547 1.0725,-2.478 0.1327,-0.306 0.1327,-0.463 0.1327,-0.773 -0.1327,-1.237 -1.7433,-1.39 -1.876,-2.784 -0.1327,-1.237 1.3416,-2.011 2.0087,-2.785 0.1364,-0.153 0,-0.31 -0.1327,-0.31 -0.269,0 -0.6708,0.31 -0.8035,0.468 -1.2052,1.079 -2.2777,2.474 -3.2175,4.021 -0.2654,0.463 -0.5344,0.926 -0.6671,1.39 -0.9398,1.857 -1.0725,4.178 -1.6106,6.189 -0.1327,0.62 -0.4018,1.237 -0.5344,1.857 -0.6708,2.474 -1.3416,4.952 -1.876,7.426 -0.4018,1.547 -0.8035,4.484 -1.0726,6.031 -0.1326,0.621 -0.269,1.395 -0.4017,2.011 -7.7693,-0.774 -14.3371,-6.652 -21.7046,-9.279 -1.4743,-0.468 -4.0211,-1.237 -5.628,-0.468 -0.1327,0.158 -0.269,0.158 -0.4017,0.311 -1.2052,0.931 -1.4743,3.251 -1.0725,4.641 0.4017,1.395 1.3415,2.631 2.414,3.715 3.8847,4.174 9.1109,6.495 14.3334,7.889 4.5555,1.08 11.1233,2.938 15.5423,0.617 4.1537,-2.164 3.752,-7.116 4.0211,-11.447 0.1326,-2.164 0.1326,-5.726 0.269,-8.042 0.1327,-2.015 0.2654,-4.025 0.4017,-6.189 -0.1363,-0.31 -0.1363,-0.621 0,-0.931 z"
     fill="#fdc401"
     id="path1087" />
  <path
     d="m 71.9473,186.057 c 0,-0.152 0,-0.152 0,-0.309 0.1363,0.157 0.1363,0.157 0,0.309 0.1363,0 0,0 0,0 z"
     fill="#fdc401"
     id="path1089" />
  <path
     d="m 59.0837,194.257 h -0.1326 c -6.0297,-1.547 -10.8542,-4.178 -14.3371,-7.889 -0.9362,-0.926 -2.0087,-2.167 -2.4104,-3.71 -0.4018,-1.548 0,-3.868 1.0725,-4.799 0.1327,-0.153 0.2654,-0.153 0.5344,-0.306 1.6069,-0.774 4.021,-0.158 5.7606,0.463 2.9485,1.08 5.897,2.627 8.7092,4.174 3.7519,2.168 7.773,4.331 11.9267,4.952 0.5344,0.153 1.0688,-0.31 1.2052,-0.927 0,-0.31 0.1326,-0.467 0.1326,-0.773 0.2691,-1.394 0.6708,-4.332 1.0726,-6.036 0.5344,-2.321 1.2052,-4.795 1.876,-7.426 v -0.153 l 0.1326,0.153 c 0.9399,0.621 1.7433,1.394 2.6795,2.168 0.5381,0.463 0.9398,0.774 1.4742,1.237 v 0.153 c -0.1326,1.394 -0.1326,2.784 -0.1326,4.178 0,0.774 0,2.942 -0.1327,3.711 0,0.468 0,1.084 0,1.547 -0.1364,4.026 -0.2691,8.047 -4.021,10.057 -4.2864,2.168 -10.9869,0.463 -15.4097,-0.774 z"
     fill="#ffffff"
     id="path1091" />
  <path
     d="m 55.1989,192.71 c 0,2.168 -0.5344,4.179 -1.0725,6.189 -0.6671,2.474 -1.4742,4.795 -2.4104,7.116 0,0.153 -0.1327,0.31 -0.269,0.463 -0.1327,0.157 -0.4018,0.157 -0.5344,0.157 -6.4315,0 -11.5213,-0.31 -17.6874,-0.467 -1.4742,0 -2.6794,-1.08 -2.8121,-2.317 -0.6708,-5.415 -2.0087,-10.52 -0.6708,-18.566 0.2691,-1.701 0.4017,-3.711 1.4743,-5.105 3.3502,-4.332 10.5851,-3.095 14.7388,-0.774 5.3589,2.784 9.2435,7.583 9.2435,13.304 z"
     fill="#ffffff"
     id="path1093" />
  <path
     d="m 41.6696,226.745 h 0.2654 c 2.145,0 3.8846,-2.011 3.8846,-4.489 v -7.268 h -7.902 v 7.268 c -0.1363,2.478 1.607,4.489 3.752,4.489 z"
     fill="#a1dcff"
     fill-opacity="0.5294"
     id="path1095" />
  <path
     d="m 30.8153,214.677 -0.8034,6.81 c -0.2691,1.853 -1.7433,3.247 -3.6193,3.4 0,-0.616 0.1363,-1.237 0.1363,-1.857 0.2654,-2.474 0.6671,-5.105 1.3379,-7.579 0.1364,-0.31 0.1364,-0.774 0.2691,-1.084 z"
     fill="#a1dcff"
     fill-opacity="0.5294"
     id="path1097" />
  <path
     d="m 49.8417,300.845 c 0,0.617 0,1.084 -0.1327,1.701 0,1.237 0.9361,2.474 2.1413,2.32 1.7433,-0.153 4.9572,0.464 6.5678,-0.31 2.5431,-1.237 2.1414,-4.947 2.8122,-8.042 1.0725,-4.952 4.1537,-23.671 5.0898,-28.003 1.876,-8.195 -3.4829,-19.646 -10.047,-11.6 -3.3502,4.174 -2.9485,-3.404 -3.8847,1.858 -1.3415,8.662 -2.145,33.103 -2.5467,42.076 z"
     fill="#23affc"
     id="path1099" />
  <path
     d="m 41.1332,173.217 c -1.4743,0.468 -2.9485,-0.616 -3.2139,-2.317 l -0.4017,-2.167 2.6794,-0.774 z"
     fill="#150077"
     id="path1101" />
  <path
     d="m 46.2251,178.632 -1.6106,-8.042 -2.6794,0.153 h -1.607 l 1.0725,9.126 v 0.158 z"
     fill="#fdc401"
     id="path1103" />
  <path
     d="m 40.8633,169.97 0.1363,0.773 c 0.1327,0.464 0.2654,0.931 0.5345,1.394 0.8034,1.548 2.2777,2.474 3.8846,2.321 l -0.9361,-4.799 h -2.8122 z"
     fill="#150077"
     id="path1105" />
  <path
     d="m 47.6937,165.796 c 0.1364,0.769 0.2691,1.389 0.5381,2.163 0.2691,0.774 0.4017,1.7 0.4017,2.631 -0.1326,1.853 -1.6069,3.558 -3.2175,3.558 -2.1414,0 -4.5554,-1.394 -5.6243,-3.558 -0.1363,-0.31 -0.5381,-1.237 -0.6708,-1.547 -0.6707,-2.631 0.2691,-5.262 2.2778,-6.499 1.4742,-0.927 3.4829,-0.774 4.8244,0.463 0.8035,0.621 1.2052,1.705 1.4706,2.789 z"
     fill="#fdc401"
     id="path1107" />
  <path
     d="m 48.2337,163.317 c 0.2691,-0.153 0.5345,-0.463 0.6708,-0.773 0.4018,-0.617 0.5344,-1.547 0,-2.164 -0.5381,-0.62 -1.6106,-0.463 -2.2777,-0.157 -2.145,1.084 -4.2901,1.704 -6.5678,2.168 -2.0086,0.463 -3.2138,2.631 -2.8121,4.794 l 0.5344,2.632 1.4743,-1.395 c 0.1363,0.311 0.1363,0.621 0.269,0.931 0,-0.157 1.6069,0.306 1.876,0.464 1.2052,-1.705 1.4742,-4.021 3.2139,-4.952 0.8034,-0.464 1.6106,-0.617 2.414,-1.084 0.4018,0 0.8035,-0.153 1.2052,-0.464 z"
     fill="#150077"
     id="path1109" />
  <path
     d="m 41.4821,169.999 c 0.0516,0.26 0.0553,0.523 0.0184,0.787 -0.0369,0.263 -0.1179,0.506 -0.2396,0.731 -0.1253,0.225 -0.2801,0.416 -0.468,0.574 -0.188,0.153 -0.3944,0.259 -0.6192,0.318 -0.2249,0.06 -0.4534,0.068 -0.6782,0.026 -0.2285,-0.047 -0.4423,-0.136 -0.6376,-0.281 -0.1953,-0.14 -0.3612,-0.318 -0.4939,-0.535 -0.1327,-0.217 -0.2248,-0.459 -0.2801,-0.719 -0.0516,-0.259 -0.0553,-0.518 -0.0184,-0.782 0.0368,-0.263 0.1179,-0.51 0.2396,-0.735 0.1253,-0.225 0.2801,-0.417 0.468,-0.57 0.188,-0.157 0.3944,-0.263 0.6192,-0.323 0.2248,-0.059 0.4534,-0.068 0.6782,-0.021 0.2285,0.043 0.4422,0.136 0.6376,0.276 0.1953,0.145 0.3612,0.323 0.4939,0.54 0.1326,0.217 0.2285,0.455 0.2801,0.714 z"
     fill="#150077"
     id="path1111" />
  <path
     d="m 41.8881,169.366 c 0.0516,0.259 0.059,0.519 0.0221,0.782 -0.0405,0.264 -0.1179,0.51 -0.2432,0.735 -0.1216,0.226 -0.2764,0.417 -0.4644,0.57 -0.188,0.157 -0.3944,0.264 -0.6192,0.323 -0.2248,0.06 -0.4533,0.068 -0.6818,0.021 -0.2249,-0.042 -0.4386,-0.136 -0.634,-0.276 -0.1953,-0.14 -0.3611,-0.323 -0.4938,-0.54 -0.1327,-0.217 -0.2285,-0.455 -0.2801,-0.714 -0.0516,-0.259 -0.059,-0.523 -0.0185,-0.786 0.0369,-0.264 0.118,-0.506 0.2396,-0.731 0.1216,-0.226 0.2801,-0.417 0.4681,-0.574 0.1879,-0.153 0.3943,-0.259 0.6192,-0.319 0.2248,-0.059 0.4496,-0.068 0.6781,-0.025 0.2285,0.046 0.4386,0.136 0.6376,0.28 0.1954,0.14 0.3575,0.319 0.4939,0.536 0.1327,0.216 0.2248,0.459 0.2764,0.718 z"
     fill="#fdc401"
     id="path1113" />
  <path
     d="m 46.3586,166.412 c -0.1327,0.31 -0.1327,0.62 -0.1327,0.926 -0.5381,3.869 3.2139,7.894 1.4706,11.452 -0.6671,1.39 -2.1413,2.163 -2.9448,3.557 -0.9398,1.548 -0.6708,3.248 -0.8035,4.948 -0.1363,1.547 -0.4054,2.631 -1.0725,4.025 -1.3416,2.627 -3.4829,4.948 -6.0297,6.185 -1.876,0.931 -4.021,1.241 -5.7606,0.31 -2.4141,-1.39 -3.3503,-4.947 -2.9485,-7.889 0.5344,-3.094 2.2777,-5.568 4.1537,-7.736 1.2052,-1.39 2.5467,-2.937 2.8121,-4.795 0.2691,-1.7 -0.4017,-3.557 0.4017,-4.952 0.5381,-1.079 1.4743,-1.7 1.6107,-3.09 0,-1.084 -0.4055,-2.168 -0.1364,-3.404 0.269,-1.237 0.8035,-2.632 1.7433,-3.405 1.876,-1.547 4.4191,-1.237 6.4314,-0.31 0.4018,0.157 0.6671,0.31 0.9362,0.62 0.5381,0.621 0.5381,1.394 0.5381,2.321 0,0.31 -0.1364,0.774 -0.2691,1.237 z"
     fill="#150077"
     id="path1115" />
  <path
     d="m 527.901,199.721 c 1.743,-0.62 3.483,-0.463 5.359,-0.157 14.47,1.858 29.076,1.705 43.546,-0.153 3.35,-0.463 6.966,-1.084 9.512,-3.711 2.547,-2.478 3.62,-6.346 4.556,-10.057 2.679,-10.83 4.957,-21.814 6.966,-32.797 0.67,-4.174 1.341,-8.506 0.538,-12.684 -2.278,-11.447 -13.936,-16.242 -23.983,-18.562 -26.665,-6.5 -53.861,-10.678 -81.061,-12.688 -2.278,-0.153 -4.825,-0.306 -6.833,1.084 -2.278,1.547 -3.351,4.794 -4.154,7.736 -6.432,22.277 -10.047,45.481 -10.585,68.995 0,1.854 0,3.868 0.671,5.569 1.606,3.71 5.76,4.641 9.379,5.105 10.184,1.236 21.034,1.547 30.949,4.178 -0.937,2.937 0.136,8.505 -0.937,11.447 7.103,-1.548 9.244,-10.521 16.077,-13.305 z"
     fill="#f7c108"
     id="path1117" />
  <path
     d="m 479.03,403.46 -0.804,1.084 -12.726,-13.458 1.205,-1.547 9.513,-12.067 5.09,5.258 -5.894,7.425 4.154,8.82 c 0.534,1.237 0.534,2.627 -0.136,3.711 -0.133,0.621 -0.266,0.774 -0.402,0.774 z"
     fill="#2300b1"
     id="path1119" />
  <path
     d="m 481.978,382.113 -5.359,6.652 -5.09,-5.262 5.359,-6.805 z"
     fill="#f7c108"
     id="path1121" />
  <path
     d="m 479.03,403.46 -0.804,1.084 -12.726,-13.458 1.205,-1.547 12.594,13.304 c 0,0.464 -0.133,0.617 -0.269,0.617 z"
     fill="#7adcfb"
     id="path1123" />
  <path
     d="m 517.619,332.607 c -0.132,-1.543 -0.269,-3.091 -0.534,-4.638 -1.744,-13.767 -4.423,-27.229 -6.97,-40.839 -1.739,-9.441 -4.153,-15.936 -13.264,-17.793 -1.073,-0.154 -2.278,-0.464 -3.483,-0.617 -0.269,0 -0.535,0 -0.804,-0.157 -1.205,-0.153 -2.546,-0.153 -3.884,-0.153 -5.359,0.153 -5.094,3.094 -7.235,7.579 0.132,1.084 0.401,2.167 0.667,3.247 1.743,7.894 4.021,11.757 7.235,18.256 3.888,7.89 4.961,18.253 8.444,26.609 1.474,3.401 2.277,6.963 1.739,10.673 -0.803,6.653 -9.243,13.305 -12.863,18.257 -5.222,7.115 -10.179,14.541 -14.735,22.273 -0.671,1.237 -1.474,2.784 -1.072,4.178 0.269,0.927 0.936,1.547 1.607,2.011 1.607,1.394 3.081,2.941 4.688,4.331 1.474,1.394 3.35,2.784 5.226,2.321 1.205,-0.31 2.009,-1.39 2.948,-2.321 11.12,-13.147 30.683,-28.619 32.423,-48.418 0,-1.395 0,-3.095 -0.133,-4.799 z"
     fill="#2e7dfb"
     id="path1125" />
  <path
     d="m 504.757,402.686 v 1.394 h -17.15 v -18.256 h 6.834 v 10.21 l 8.307,3.247 c 1.072,0.468 1.876,1.548 2.141,2.942 -0.265,0 -0.132,0.153 -0.132,0.463 z"
     fill="#2300b1"
     id="path1127" />
  <path
     d="m 487.473,383.967 h 6.833 v 9.13 h -6.833 z"
     fill="#f7c108"
     id="path1129" />
  <path
     d="m 504.757,402.686 v 1.394 h -17.15 v -2.01 h 17.15 c -0.133,0.153 0,0.306 0,0.616 z"
     fill="#7adcfb"
     id="path1131" />
  <path
     d="m 477.959,282.951 c 0.667,0.153 1.471,0.31 2.141,0.31 4.021,0.464 8.175,0.774 12.192,0.464 0.804,0 1.607,-0.158 2.414,-0.311 1.74,-0.31 4.42,-0.773 6.834,-1.547 -0.402,-3.711 -2.68,-7.115 -5.496,-8.973 -2.948,-2.01 -6.431,-2.474 -9.781,-2.01 -1.607,0.157 -3.081,0.62 -4.287,1.857 -2.145,1.547 -3.214,7.116 -4.017,10.21 z"
     fill="#150077"
     id="path1133" />
  <path
     d="m 454.777,404.544 h 71.148 v 0.463 h -71.148 z"
     fill="#26a4fb"
     id="path1135" />
  <path
     d="m 495.913,296.409 c -0.269,0.62 -0.269,1.236 -0.269,1.704 0,12.684 0.269,25.368 0.804,38.209 0.538,15.778 1.205,31.403 1.474,47.181 0,2.011 0,4.489 -1.338,5.726 -0.94,0.773 -2.145,1.084 -3.218,1.237 -2.41,0.31 -4.688,0.62 -7.102,0.926 -0.803,0.158 -1.607,0.158 -2.41,-0.153 -3.885,-1.547 -3.752,-23.361 -4.154,-27.845 -1.205,-11.757 -2.278,-23.515 -2.679,-35.272 -0.402,-12.531 -3.214,-25.372 -2.145,-38.055 0.136,-1.701 0.401,-3.405 0.67,-4.952 1.206,-6.342 3.752,-12.684 9.513,-14.542 4.423,-1.39 6.162,0.311 9.247,3.252 2.68,2.627 11.389,5.721 12.727,9.279 0,0.157 0.132,0.31 0.132,0.31 1.209,4.952 -6.431,9.437 -9.512,11.294 -0.667,0.617 -1.338,0.927 -1.74,1.701 z"
     fill="#23affc"
     id="path1137" />
  <path
     d="m 507.032,283.414 c -0.402,0.153 -0.803,0.311 -1.205,0.464 -0.402,-0.311 -0.94,-0.311 -1.342,0.157 -4.82,4.637 -11.79,6.032 -17.683,6.342 -3.752,0.31 -8.039,0.31 -11.927,-0.463 0.136,-1.705 0.402,-3.405 0.671,-4.952 1.205,-6.342 3.752,-12.684 9.512,-14.542 4.423,-1.394 6.163,0.311 9.248,3.248 2.679,2.631 11.388,5.725 12.726,9.283 0,0.31 0,0.463 0,0.463 z"
     fill="#2300b1"
     id="path1139" />
  <path
     d="m 481.624,256.028 c 0.07,0.212 0.1,0.429 0.096,0.654 -0.003,0.226 -0.048,0.443 -0.129,0.647 -0.077,0.208 -0.188,0.386 -0.331,0.544 -0.14,0.157 -0.303,0.272 -0.487,0.352 -0.181,0.081 -0.369,0.119 -0.564,0.115 -0.195,-0.008 -0.383,-0.055 -0.564,-0.149 -0.177,-0.089 -0.331,-0.216 -0.468,-0.382 -0.133,-0.166 -0.236,-0.353 -0.306,-0.561 -0.07,-0.213 -0.103,-0.43 -0.099,-0.655 0.007,-0.225 0.048,-0.442 0.129,-0.646 0.081,-0.208 0.191,-0.387 0.331,-0.544 0.144,-0.157 0.306,-0.272 0.487,-0.353 0.184,-0.081 0.372,-0.119 0.568,-0.115 0.195,0.009 0.383,0.056 0.56,0.149 0.177,0.09 0.335,0.221 0.468,0.383 0.136,0.166 0.239,0.353 0.309,0.561 z"
     fill="#ee80be"
     id="path1141" />
  <path
     d="m 514.939,262.531 c -0.402,-5.568 -1.342,-11.141 -4.021,-15.625 l -0.133,-0.153 c -0.269,-0.467 -0.671,-0.774 -1.073,-1.241 0,0 -0.269,-0.306 -0.401,-0.463 -0.133,-0.153 -0.269,-0.311 -0.402,-0.311 -0.402,-0.306 -0.803,-0.616 -1.342,-0.773 -0.132,0 -0.132,-0.153 -0.265,-0.153 h -0.136 c -0.266,-0.153 -0.535,-0.153 -0.804,-0.311 -0.534,-0.153 -1.072,-0.306 -1.607,-0.463 -0.132,0 -0.269,0 -0.269,0 -1.876,0.31 -3.884,0.774 -5.893,0.774 -0.136,0 -0.269,0 -0.538,0 -0.133,0 -0.266,0 -0.402,0 -6.697,-0.153 -16.209,-3.558 -22.508,-0.774 -3.081,1.394 -5.226,4.642 -6.295,8.199 -1.342,4.795 -2.012,10.363 -0.405,14.699 1.341,3.558 3.217,6.958 4.824,10.516 0.94,2.168 1.205,8.51 2.679,9.747 0.94,0.773 2.145,0.93 3.351,1.083 7.235,0.774 14.739,1.548 21.973,0.154 1.74,-0.307 3.351,-0.774 4.825,-1.854 3.885,-2.478 3.346,-5.725 4.555,-9.746 1.069,-3.715 4.154,-6.81 4.018,-10.984 0.136,-1.857 0.401,-0.463 0.269,-2.321 z"
     fill="#ff6fca"
     id="path1143" />
  <path
     d="m 496.179,235.612 -3.483,-2.937 c -0.534,-0.62 -1.205,-1.084 -1.876,-1.547 l -3.081,11.294 c -0.671,2.316 2.414,3.09 5.897,4.637 l 1.205,0.468 0.269,-0.468 1.474,-4.174 z"
     fill="#ffb1df"
     id="path1145" />
  <path
     d="m 493.366,237.623 c 2.41,-0.927 4.824,-3.248 4.423,-6.652 0,-0.306 -0.137,-0.774 -0.402,-1.08 -0.402,-0.468 -0.94,-0.468 -1.474,-0.468 -0.538,0 -1.073,0 -1.744,0 -2.41,0 -4.824,0.468 -5.359,3.715 -0.132,0.774 -0.132,1.701 0,2.474 0,0.621 0,1.237 0.27,1.858 0.401,0.773 1.337,1.084 2.008,1.084 0.535,0 1.073,0 1.474,0 0.269,-0.621 0.402,-0.774 0.804,-0.931 z"
     fill="#150077"
     id="path1147" />
  <path
     d="m 489.885,233.449 v 4.484 c 0,0.31 0,0.621 0.132,0.927 0,0.157 0.137,0.31 0.137,0.62 0.534,1.858 2.141,3.248 3.884,3.248 h 0.535 c 1.205,0 2.278,-1.237 2.278,-2.627 v -6.036 c 0,-1.7 -1.206,-3.094 -2.68,-3.094 h -2.009 c -1.341,0 -2.277,1.084 -2.277,2.478 z"
     fill="#ffb1df"
     id="path1149" />
  <path
     d="m 494.307,238.243 v -0.463 h 0.803 v -2.321 h 0.265 v 2.631 z"
     fill="#150077"
     id="path1151" />
  <path
     d="m 496.046,236.543 c 0.133,0 0.269,-0.157 0.269,-0.31 0,-0.157 -0.136,-0.31 -0.269,-0.31 -0.132,0 -0.269,0.153 -0.269,0.31 0,0.153 0.137,0.31 0.269,0.31 z"
     fill="#150077"
     id="path1153" />
  <path
     d="m 493.636,236.543 c 0.133,0 0.266,-0.157 0.266,-0.31 0,-0.157 -0.133,-0.31 -0.266,-0.31 -0.136,0 -0.269,0.153 -0.269,0.31 0,0.153 0,0.31 0.269,0.31 z"
     fill="#150077"
     id="path1155" />
  <path
     d="m 494.169,238.554 c -0.132,0 -0.269,-0.158 -0.401,-0.158 -0.671,-0.306 -1.338,-0.926 -1.607,-1.853 l -0.804,-1.857 -0.402,-1.084 c -0.136,-0.927 0.402,-1.7 1.206,-1.858 0.401,-0.153 0.803,0 1.072,0.311 l 0.667,0.62 c 0.807,0.306 1.611,0.463 2.145,0 0.269,-0.157 0.402,-0.463 0.538,-0.773 v -0.158 c -0.136,-0.306 -0.269,-0.773 -0.269,-1.237 -0.136,-0.153 -0.269,-0.31 -0.538,-0.463 l -0.401,-0.153 c -1.206,-0.621 -2.68,-0.621 -3.885,0 l -1.338,0.616 -1.474,2.784 0.667,3.095 1.474,0.62 v 3.711 c 0,1.705 1.073,3.095 2.414,3.252 2.68,0.306 3.35,-1.241 3.35,-3.094 v -2.942 c -0.269,0.621 -1.474,0.774 -2.414,0.621 z"
     fill="#150077"
     id="path1157" />
  <path
     d="m 490.554,237.006 v 0.774 c 0,0.616 -0.402,0.927 -0.804,0.927 -0.405,0 -0.67,-0.153 -0.939,-0.464 v -2.32 c 0.132,-0.153 0.401,-0.311 0.534,-0.311 0.269,0 0.671,0.158 0.807,0.464 0.265,0.157 0.402,0.467 0.402,0.93 z"
     fill="#150077"
     id="path1159" />
  <path
     d="m 490.957,238.243 h -1.205 c -0.808,0 -1.475,-0.773 -1.475,-1.7 v -0.157 c 0,-0.616 0.402,-1.237 1.069,-1.237 h 0.269 c 0.671,0 1.342,0.621 1.342,1.547 z"
     fill="#ffb1df"
     id="path1161" />
  <path
     d="m 492.832,234.686 h 0.667 v 0.309 h -0.667 z"
     fill="#150077"
     id="path1163" />
  <path
     d="m 495.645,234.686 h 0.67 v 0.309 h -0.67 z"
     fill="#150077"
     id="path1165" />
  <path
     d="m 499.396,232.365 c 0.67,-0.621 1.205,-1.237 1.072,-2.168 -0.269,-1.7 -2.948,-2.01 -4.021,-1.39 -0.671,0.31 -1.338,0.774 -2.141,0.927 -0.406,0 -0.94,-0.153 -1.342,0 -0.402,0.157 -0.803,0.62 -0.671,1.084 0,0.153 0.137,0.31 0.269,0.463 0.937,1.084 2.278,2.01 3.616,2.168 0.671,0 2.145,-0.311 3.218,-1.084 z"
     fill="#150077"
     id="path1167" />
  <path
     d="m 504.621,276.452 c -2.012,-0.153 -4.021,0.621 -5.761,1.857 -4.29,-1.857 -8.576,-2.631 -12.999,-4.178 -3.081,-1.079 -8.842,-2.163 -10.987,-1.237 -0.667,0.311 -1.205,0.931 -1.607,1.547 -1.739,2.168 -2.812,5.105 -2.277,7.426 0.401,1.547 1.474,2.474 2.815,3.095 4.018,1.7 10.18,0.62 14.735,0.31 3.752,-0.31 10.32,-0.157 13.401,-2.941 1.069,-0.927 1.876,-2.321 3.082,-2.785 0.67,-0.31 1.474,-0.463 1.607,-1.237 0,-1.236 -1.073,-1.857 -2.009,-1.857 z"
     fill="#ffb1df"
     id="path1169" />
  <path
     d="m 511.32,265.468 c 0,0 0,0.157 0.137,0.157 -0.137,0 -0.137,0 -0.137,-0.157 z"
     fill="#ffb1df"
     id="path1171" />
  <path
     d="m 513.331,280.783 c 0.804,-4.947 -2.145,-14.231 -2.948,-17.015 -1.876,-6.962 -4.688,-15.162 -10.051,-19.803 -0.534,-0.464 -1.471,-0.927 -2.009,-0.306 -0.401,0.616 0,1.39 0.538,1.853 1.069,1.084 1.206,2.788 1.607,4.331 0.804,2.942 0.535,6.346 0.535,9.441 0,8.195 -2.009,17.789 5.226,22.894 1.338,0.926 3.081,1.857 4.688,1.547 1.474,0 2.145,-1.237 2.414,-2.942 z"
     fill="#ffb1df"
     id="path1173" />
  <path
     d="m 467.777,262.684 v 12.994 c 0,5.263 3.752,9.594 8.573,9.594 h 3.35 v -21.504 c -4.017,-0.773 -8.038,-0.926 -11.923,-1.084 z"
     fill="#ffb1df"
     id="path1175" />
  <path
     d="m 503.953,278.93 c 0,0.153 0,0.306 0,0.616 0,0.158 0,0.158 0,0.311 0.132,0.153 0.132,0.31 0.269,0.31 0.265,0.31 0.534,0.616 0.803,0.927 0,0 0.133,0.157 0.265,0.157 0.137,0 0.137,0.153 0.269,0.153 0.402,0.31 0.671,0.463 1.073,0.774 0.671,0.463 1.342,0.773 2.009,1.083 0.136,0 0.269,0.153 0.269,0.153 0.269,0.153 0.401,0.153 0.67,0.311 0.671,0.31 1.338,0.153 2.009,-0.311 2.278,-1.7 3.752,-4.641 3.752,-7.889 v -12.994 c -4.021,0 -7.906,0.311 -11.79,1.084 v 12.994 c 0.269,0.774 0.534,1.547 0.402,2.321 z"
     fill="#ffb1df"
     id="path1177" />
  <path
     d="m 503.28,248.3 c 0,-0.931 -0.534,-1.857 -0.936,-2.631 -1.474,-2.631 -3.888,-4.952 -6.833,-5.105 -0.94,0 -1.611,0.464 -1.611,1.084 1.209,0.774 2.547,1.547 3.487,2.784 0.133,0.153 0.265,0.306 0.402,0.617 0.265,0.31 0.534,0.62 0.803,1.083 0.269,0.464 0.402,1.084 0.535,1.548 0.269,0.31 0.538,0.62 0.803,0.926 0.136,0.158 0.269,0.158 0.269,0.311 0.402,0.31 0.804,0.463 1.205,0.62 0.402,0.153 1.206,0.306 1.607,0.153 0.406,-0.31 0.269,-0.926 0.269,-1.39 z"
     fill="#ffb1df"
     id="path1179" />
  <path
     d="m 553.41,338.292 20.23,-1.547 v 87.095 h 1.342 v -88.642 l -22.508,1.547 -26.931,87.095 h 1.474 z"
     fill="#26a4fb"
     id="path1181" />
  <path
     d="m 594.678,349.739 -1.342,0.157 12.192,73.944 h 1.342 z"
     fill="#26a4fb"
     id="path1183" />
  <path
     d="m 605.527,356.701 h -66.721 c -1.072,0 -1.876,-1.083 -1.61,-2.32 l 17.687,-101.794 c 0.269,-1.237 1.341,-2.316 2.41,-2.316 h 66.725 c 1.072,0 1.876,1.079 1.607,2.316 l -17.551,101.794 c -0.269,1.237 -1.342,2.32 -2.547,2.32 z"
     fill="#2e7dfb"
     id="path1185" />
  <path
     d="m 603.25,355.618 h -66.721 c -1.073,0 -1.876,-1.084 -1.611,-2.321 l 17.555,-101.789 c 0.265,-1.237 1.338,-2.321 2.41,-2.321 h 66.725 c 1.069,0 1.876,1.084 1.607,2.321 l -17.551,101.789 c -0.137,1.237 -1.209,2.321 -2.414,2.321 z"
     fill="#ebf7ff"
     id="path1187" />
  <path
     d="m 580.742,269.296 h 27.735 v 1.548 h -27.735 z"
     fill="#26a4fb"
     id="path1189" />
  <path
     d="m 562.25,263.881 h 46.092 v 1.858 H 562.25 Z"
     fill="#26a4fb"
     id="path1191" />
  <path
     d="m 561.984,258.776 h 46.089 v 1.858 h -46.089 z"
     fill="#26a4fb"
     id="path1193" />
  <path
     d="m 580.76,307.981 0.376,-1.649 0.906,0.276 -0.376,1.645 z"
     fill="#26a4fb"
     id="path1195" />
  <path
     d="m 576.989,328.703 -0.803,-0.311 z m 0.671,-2.942 -0.804,-0.31 0.671,-2.937 0.804,0.31 z m 1.338,-5.878 -0.804,-0.31 0.671,-2.938 0.803,0.311 z m 1.209,-5.726 -0.804,-0.306 0.667,-2.941 0.804,0.31 z"
     fill="#26a4fb"
     id="path1197" />
  <path
     d="m 575.389,331.636 0.372,-1.645 0.907,0.272 -0.373,1.645 z"
     fill="#26a4fb"
     id="path1199" />
  <path
     d="m 571.395,288.326 0.372,-1.645 0.906,0.277 -0.372,1.645 z"
     fill="#26a4fb"
     id="path1201" />
  <path
     d="m 563.19,328.545 -0.94,-0.153 0.402,-1.704 0.807,0.31 z m 1.072,-4.641 -0.803,-0.31 0.667,-2.938 0.803,0.311 z m 1.206,-5.879 -0.804,-0.306 0.667,-2.941 0.807,0.31 z m 1.337,-5.721 -0.803,-0.31 0.671,-2.942 0.803,0.311 z m 1.342,-5.879 -0.803,-0.31 0.67,-2.941 0.804,0.31 z m 1.338,-5.878 -0.804,-0.31 0.671,-2.942 0.804,0.31 z m 1.341,-5.879 -0.803,-0.31 0.671,-2.941 0.803,0.31 z"
     fill="#26a4fb"
     id="path1203" />
  <path
     d="m 561.561,331.593 0.372,-1.645 0.91,0.272 -0.376,1.649 z"
     fill="#26a4fb"
     id="path1205" />
  <path
     d="m 598.467,314.302 0.372,-1.645 0.907,0.272 -0.373,1.645 z"
     fill="#26a4fb"
     id="path1207" />
  <path
     d="m 596.686,326.225 -0.803,-0.311 0.671,-2.784 0.803,0.311 z m 1.342,-5.722 -0.807,-0.31 0.67,-2.784 0.804,0.31 z"
     fill="#26a4fb"
     id="path1209" />
  <path
     d="m 594.617,331.538 0.372,-1.645 0.911,0.272 -0.376,1.649 z"
     fill="#26a4fb"
     id="path1211" />
  <path
     d="m 557.294,280.743 -0.937,-1.084 3.351,-3.4 1.876,3.4 -1.073,0.774 -1.072,-1.853 z"
     fill="#26a4fb"
     id="path1213" />
  <path
     d="m 599.096,314.157 -6.163,-14.073 -11.79,8.505 -8.709,-21.967 -17.82,15.472 -0.803,-1.237 19.161,-16.556 8.709,22.124 11.654,-8.509 6.299,14.078 7.906,-5.879 0.667,1.237 z"
     fill="#ff4d76"
     id="path1215" />
  <path
     d="m 546.443,332.724 12.325,-54.765 1.205,0.463 -11.923,52.755 54.127,-0.621 v 1.547 z"
     fill="#26a4fb"
     id="path1217" />
  <path
     d="m 600.838,334.424 -0.936,-1.237 2.274,-2.168 -1.205,-2.163 1.073,-0.927 1.876,3.401 z"
     fill="#26a4fb"
     id="path1219" />
  <path
     d="m 527.016,423.219 h 95.395 v 0.621 h -95.395 z"
     fill="#26a4fb"
     id="path1221" />
  <path
     d="m 655.156,212.951 c 7.504,0 20.367,-0.153 24.251,-8.973 6.97,-15.625 7.637,-39.139 -3.615,-50.896 -9.513,-9.9 -28.136,-11.294 -40.867,-11.6 -10.183,-0.311 -21.435,2.627 -27.601,12.063 -4.287,6.499 -5.359,15.009 -5.359,23.208 0,5.879 0.671,11.91 3.081,16.862 2.547,5.258 6.97,8.969 11.658,11.91 11.388,7.273 23.58,7.116 30.55,18.257 4.286,-6.036 0.133,-10.831 7.902,-10.831 z"
     fill="#7adcfb"
     id="path1223" />
  <path
     d="m 653.149,275.448 c -0.402,-0.311 -0.804,-0.617 -1.205,-0.927 -1.744,-1.084 -3.885,-1.084 -5.897,-0.774 -2.142,0.311 -4.287,0.927 -6.163,2.011 -2.546,1.237 -4.957,3.094 -7.367,4.484 -2.009,1.242 -4.154,2.015 -6.564,2.321 -4.825,0.311 -5.094,-4.021 -5.628,-8.505 -0.269,-2.168 -0.402,-4.489 -0.538,-6.81 -0.133,-3.4 -0.133,-6.342 1.205,-9.436 0.136,-0.463 0.405,-0.927 0.269,-1.39 -0.133,-0.31 -0.671,-1.237 -1.073,-1.394 0,-0.153 0,-0.153 0,-0.31 l 0.804,-5.569 c 0,-0.31 -0.266,-0.463 -0.535,-0.463 -0.269,0 -0.401,0.31 -0.401,0.621 l -0.804,4.484 c -0.402,0 0.269,0 -0.132,0.153 -0.137,0 -0.137,0.157 -1.475,0.468 -1.072,0.306 -2.012,0.773 -2.145,2.01 -0.534,5.568 -1.743,10.984 -2.145,16.705 -0.265,5.105 0,10.52 2.278,14.851 3.081,5.726 8.576,5.879 13.803,5.105 3.615,-0.616 7.234,-1.39 10.717,-2.784 2.145,-0.773 4.287,-1.857 6.295,-3.094 0.269,-0.153 0.671,-0.463 1.073,-0.616 0.94,-0.621 2.145,-1.237 3.218,-2.011 3.482,-2.321 6.295,-5.415 2.41,-9.13 z"
     fill="#ffb1df"
     id="path1225" />
  <path
     d="m 616.171,258.122 c -0.136,0 -0.401,-0.153 -0.401,-0.463 -0.137,-0.31 0,-0.463 0,-0.774 l 0.132,-2.01 h 0.269 l -0.136,2.01 c 0,0.153 0,0.311 0,0.464 0,0.157 0.136,0.157 0.136,0.157 l 0.133,-0.157 c 0.402,-0.774 0.803,-1.701 0.94,-2.631 h 0.265 c -0.132,0.62 -0.132,1.547 0,2.167 0,0.153 0,0.153 0.137,0.153 0.132,0 0.132,-0.153 0.265,-0.306 0.269,-0.931 0.538,-2.014 0.671,-2.941 l 0.269,0.153 c -0.269,0.931 -0.402,2.015 -0.671,2.941 0,0.153 -0.133,0.464 -0.402,0.621 -0.132,0 -0.269,0 -0.269,0 -0.132,-0.157 -0.265,-0.31 -0.265,-0.468 0,-0.153 -0.137,-0.463 -0.137,-0.773 -0.132,0.467 -0.401,0.931 -0.534,1.241 0,0.153 -0.136,0.306 -0.269,0.306 0,0.31 0,0.31 -0.133,0.31 z"
     fill="#e58200"
     id="path1227" />
  <path
     d="m 617.646,257.812 0.133,-0.306 c 0.535,-1.084 1.474,-1.858 2.411,-2.168 l 0.136,0.31 c -0.804,0.311 -1.611,0.927 -2.145,1.858 0.534,0 1.205,-0.157 1.607,-0.621 l 0.136,0.311 c -0.671,0.463 -1.341,0.616 -2.145,0.616 z"
     fill="#e58200"
     id="path1229" />
  <path
     d="m 619.521,259.98 c -0.269,-0.464 -0.402,-0.931 -0.402,-1.547 0,-0.621 0.266,-1.084 0.667,-1.395 l 0.137,0.311 c -0.269,0.31 -0.538,0.773 -0.538,1.237 0,0.463 0.136,0.93 0.401,1.237 z"
     fill="#e58200"
     id="path1231" />
  <path
     d="m 658.241,290.61 -10.854,-0.311 -7.102,-0.153 -4.821,-0.157 -3.085,-9.747 c 2.547,-1.39 4.824,-3.247 7.371,-4.484 2.009,-0.927 4.017,-1.7 6.163,-2.011 2.008,-0.31 4.153,-0.153 5.897,0.774 0.936,-0.463 1.876,-0.31 2.944,0.31 0.402,0.306 0.804,0.617 1.209,1.08 1.471,1.705 1.873,4.489 2.009,6.963 0.402,2.631 0.402,5.104 0.269,7.736 z"
     fill="#7adcfb"
     id="path1233" />
  <path
     d="m 648.863,423.496 h -6.432 c 0,0 -4.153,0.306 -7.504,0.153 -3.483,-0.153 0.269,-2.321 0.269,-2.321 l 0.937,-0.773 5.226,-4.175 c -1.338,-7.893 -5.628,-35.428 -8.039,-48.575 -0.132,-0.621 -0.132,-1.237 -0.132,-1.858 -0.137,-4.952 3.081,-9.589 7.235,-11.604 1.47,-0.774 3.214,-1.08 4.82,-1.08 h 1.073 l 4.824,66.055 0.133,1.237 c -0.133,1.704 -1.072,2.941 -2.41,2.941 z"
     fill="#ffb1df"
     id="path1235" />
  <path
     d="m 648.862,423.496 h -6.432 c 0,0 -4.153,0.306 -7.504,0.153 -3.482,-0.153 0.27,-2.321 0.27,-2.321 l 0.936,-0.773 14.871,-1.084 0.137,1.241 c 0,1.547 -0.94,2.784 -2.278,2.784 z"
     fill="#150077"
     id="path1237" />
  <path
     d="m 677.533,423.959 c -3.483,0.153 -6.432,-0.157 -6.432,-0.157 h -6.564 c -1.205,0 -2.547,-1.237 -2.812,-2.627 l -0.136,-0.931 v -0.306 l -9.778,-65.127 h 1.068 c 1.744,-0.158 3.487,0.306 5.227,1.079 4.555,2.011 8.841,6.499 9.781,11.294 0.133,0.621 0.133,1.237 0.269,1.858 0.402,12.994 2.278,40.066 2.543,47.802 l 4.825,3.4 c 0,0 0.671,0.468 1.474,1.084 1.338,0.931 2.812,2.474 0.535,2.631 z"
     fill="#ffb1df"
     id="path1239" />
  <path
     d="m 677.532,423.959 c -3.483,0.153 -6.432,-0.157 -6.432,-0.157 h -6.564 c -1.205,0 -2.546,-1.237 -2.812,-2.627 l -0.136,-0.931 15.409,1.084 c 1.338,0.931 2.813,2.474 0.535,2.631 z"
     fill="#150077"
     id="path1241" />
  <path
     d="m 646.181,273.284 c -0.538,-0.62 -1.205,-0.931 -1.876,-1.547 -2.278,-2.168 -2.679,-5.105 -1.607,-8.199 0.803,-2.632 2.812,-4.795 5.223,-5.105 3.888,-0.621 6.7,2.631 7.636,6.652 0.671,2.474 1.073,5.415 2.683,7.268 1.74,2.168 4.688,2.784 6.295,5.105 1.607,2.321 1.342,5.726 2.68,8.2 0.538,1.084 1.341,1.857 1.743,2.941 0.936,2.321 0.133,5.258 -1.474,6.805 -1.607,1.7 -4.021,2.168 -6.162,1.858 -10.586,-1.7 -8.846,-16.399 -14.739,-23.515 0,-0.31 -0.137,-0.463 -0.402,-0.463 z"
     fill="#150077"
     id="path1243" />
  <path
     d="m 656.366,286.121 c -0.671,8.973 2.141,21.814 5.09,25.372 -7.769,0.463 -18.623,-3.558 -26.396,-4.174 -0.402,-5.726 -0.804,-11.757 0.538,-17.33 3.483,-15.005 22.375,-26.762 20.768,-3.868 z"
     fill="#a1dcff"
     id="path1245" />
  <path
     d="m 647.656,267.095 v 6.342 c 0,0.774 0.535,1.237 1.069,1.237 h 1.611 c 0.667,0 1.072,-0.616 1.072,-1.237 v -1.7 l -0.405,-3.558 -0.133,-1.857 v -0.153 l -1.205,0.306 h -0.133 z"
     fill="#ffb1df"
     id="path1247" />
  <path
     d="m 647.656,267.869 v 2.937 c 0.804,-0.463 1.475,-1.39 1.876,-2.474 0.133,-0.31 0.133,-0.616 0.133,-0.926 z"
     fill="#150077"
     id="path1249" />
  <path
     d="m 651.409,265.701 c -2.012,-1.08 -3.487,-2.937 -4.154,-5.258 -0.402,0.31 -0.807,0.621 -1.072,0.927 l -0.137,0.157 c -0.265,0.31 -0.401,0.616 -0.667,0.927 -0.94,1.547 -1.209,3.557 -0.538,5.262 0.538,1.39 2.145,2.163 3.483,2.01 0.94,-0.157 1.876,-0.62 2.547,-1.237 0,-0.157 0.132,-0.157 0.132,-0.31 0.137,-0.157 0.137,-0.31 0.27,-0.31 0.136,-0.621 0.136,-1.547 0.269,-1.858 0,-0.153 -0.133,-0.31 -0.133,-0.31 z"
     fill="#ffb1df"
     id="path1251" />
  <path
     d="m 646.183,265.395 0.132,-0.31 -0.401,-0.158 0.401,-1.7 -0.269,-0.153 -0.401,2.011 z"
     fill="#150077"
     id="path1253" />
  <path
     d="m 646.987,266.475 c 0.133,0 0.133,0 0.269,0 0.266,-0.153 0.402,-0.306 0.402,-0.617 h -0.269 c 0,0.153 -0.133,0.311 -0.269,0.311 -0.133,0 -0.402,0 -0.671,-0.311 l -0.133,0.153 c 0.133,0.311 0.402,0.464 0.671,0.464 z"
     fill="#150077"
     id="path1255" />
  <path
     d="m 645.242,263.848 c -0.133,0 -0.133,-0.157 -0.133,-0.31 0,-0.158 0.133,-0.158 0.269,-0.158 0.133,0 0.133,0.158 0.133,0.311 -0.133,0.157 -0.269,0.157 -0.269,0.157 z"
     fill="#150077"
     id="path1257" />
  <path
     d="m 647.789,264.311 c -0.133,0 -0.133,-0.157 -0.133,-0.31 0,-0.153 0.133,-0.153 0.266,-0.153 0.136,0 0.136,0.153 0.136,0.306 0,0.157 -0.136,0.157 -0.269,0.157 z"
     fill="#150077"
     id="path1259" />
  <path
     d="m 650.199,266.475 c 0,0.773 0.402,1.394 0.94,1.704 l -0.136,-1.857 z"
     fill="#150077"
     id="path1261" />
  <path
     d="m 651.304,264.273 c 0.188,0.051 0.365,0.144 0.52,0.28 0.158,0.132 0.287,0.294 0.39,0.489 0.1,0.192 0.166,0.4 0.196,0.621 0.029,0.225 0.022,0.446 -0.026,0.667 -0.044,0.217 -0.126,0.417 -0.24,0.6 -0.118,0.182 -0.258,0.331 -0.424,0.45 -0.169,0.115 -0.35,0.191 -0.541,0.225 -0.192,0.034 -0.384,0.026 -0.575,-0.029 -0.188,-0.051 -0.365,-0.145 -0.52,-0.277 -0.159,-0.136 -0.288,-0.297 -0.391,-0.493 -0.099,-0.191 -0.166,-0.399 -0.195,-0.62 -0.03,-0.226 -0.022,-0.447 0.026,-0.663 0.044,-0.221 0.125,-0.421 0.239,-0.604 0.118,-0.183 0.258,-0.332 0.424,-0.451 0.17,-0.114 0.35,-0.191 0.542,-0.225 0.192,-0.034 0.383,-0.025 0.575,0.03 z"
     fill="#ffb1df"
     id="path1263" />
  <path
     d="m 651.273,288.909 v -0.467 c 0.137,0.157 0.137,0.157 0.269,0.31 -0.132,0 -0.132,0 -0.269,0.157 z"
     fill="#ffb1df"
     id="path1265" />
  <path
     d="m 671.37,373.063 c -0.133,-0.464 -0.133,-0.774 0,-0.774 -1.475,-10.52 -2.411,-30.009 -3.885,-40.219 -0.94,-6.499 -1.205,-13.151 -3.483,-19.183 -1.342,-3.558 -4.555,-6.963 -6.166,-10.367 -4.419,1.394 -8.44,0.931 -12.859,0.62 -3.487,-0.31 -7.504,-0.62 -10.854,-2.631 0,0.311 -0.133,0.774 -0.402,1.547 -3.214,9.747 -4.957,19.647 -4.957,30.32 0,7.893 1.474,23.361 2.679,31.097 0.535,3.711 1.073,7.732 1.876,11.29 0.133,0.31 0.133,0.62 0.269,0.931 0.133,0.616 0.266,1.39 0.402,2.01 0.265,0 -0.402,0.153 0,0 0.803,0.464 2.812,0.621 4.286,0.621 6.833,0.306 13.667,0.306 20.367,-1.084 0.402,0 2.278,-0.463 4.555,-0.931 4.42,-0.774 8.441,-2.163 8.172,-3.247 z"
     fill="#2e7dfb"
     id="path1267" />
  <path
     d="m 658.242,290.61 c -0.137,4.794 -0.807,9.589 -2.013,14.231 -0.401,1.704 -0.936,3.404 -1.875,4.794 -1.475,2.168 -3.885,3.252 -6.03,4.026 -4.957,2.01 -11.389,3.094 -16.479,6.031 -1.876,2.168 -4.422,3.248 -6.298,5.726 -0.266,0.306 -0.535,0.926 -0.937,1.079 -0.132,0 -0.269,-0.153 -0.132,-0.153 0.534,-1.237 1.338,-2.474 2.141,-3.247 v -0.157 h -0.133 c -0.939,0.93 -1.743,2.32 -2.41,3.715 0,0 -0.136,0.153 -0.136,0 -0.133,0 -0.133,0 -0.266,0 -0.136,0 -0.136,-0.158 -0.136,-0.158 0.538,-1.237 1.342,-2.627 2.41,-3.863 v -0.158 h -0.132 c -1.073,1.394 -1.876,2.631 -2.411,4.021 0,0.158 -0.136,0.158 -0.136,0 0,0 -0.133,0 -0.133,-0.153 0,0 -0.132,-0.153 0,-0.153 0.535,-1.547 1.342,-2.941 2.411,-4.178 v -0.153 h -0.133 c -0.936,1.237 -1.743,2.474 -2.278,4.021 0,0.153 -0.132,0.153 -0.269,0 0,-0.31 0.137,-0.774 0.137,-1.084 0.401,-1.547 1.205,-3.094 2.141,-4.484 1.341,-2.015 3.217,-4.026 5.093,-5.262 4.287,-2.938 9.111,-4.948 13.53,-7.89 3.62,-2.473 4.154,-4.331 3.889,-8.973 -0.137,-2.473 -0.137,-4.947 -0.137,-7.578 0,-1.237 0.137,-2.632 0.137,-3.868 0.132,-2.011 0.401,-4.179 0.803,-6.032 0.402,-2.321 1.876,-4.952 3.616,-5.726 0.94,-0.463 1.876,-0.31 2.948,0.311 0.402,0.31 0.804,0.616 1.205,1.084 1.475,1.7 1.876,4.484 2.009,6.958 0.137,2.168 0.137,4.641 0.004,7.273 z"
     fill="#ffb1df"
     id="path1269" />
  <path
     d="m 658.243,290.61 -10.854,-0.311 c 0,-1.237 0.132,-2.631 0.132,-3.868 0.137,-2.01 0.402,-4.174 0.804,-6.031 0.402,-2.321 1.876,-4.952 3.619,-5.726 0.936,-0.463 1.876,-0.31 2.949,0.31 0.401,0.311 0.803,0.621 1.205,1.084 1.474,1.701 1.876,4.485 2.008,6.963 0.27,2.474 0.27,4.947 0.137,7.579 z"
     fill="#a1dcff"
     id="path1271" />
  <path
     d="M 631.215,424.379 H 697 V 425 h -65.785 z"
     fill="#26a4fb"
     id="path1273" />
</svg>
