<?xml version="1.0" encoding="UTF-8" standalone="no"?>
<svg
   xmlns:dc="http://purl.org/dc/elements/1.1/"
   xmlns:cc="http://creativecommons.org/ns#"
   xmlns:rdf="http://www.w3.org/1999/02/22-rdf-syntax-ns#"
   xmlns:svg="http://www.w3.org/2000/svg"
   xmlns="http://www.w3.org/2000/svg"
   xmlns:sodipodi="http://sodipodi.sourceforge.net/DTD/sodipodi-0.dtd"
   xmlns:inkscape="http://www.inkscape.org/namespaces/inkscape"
   width="1505.2037"
   height="880.53638"
   viewBox="0 0 1505.2037 880.53638"
   fill="none"
   version="1.1"
   id="svg959"
   sodipodi:docname="image-iniziale.svg"
   inkscape:version="1.0.2 (e86c8708, 2021-01-15)">
  <metadata
     id="metadata963">
    <rdf:RDF>
      <cc:Work
         rdf:about="">
        <dc:format>image/svg+xml</dc:format>
        <dc:type
           rdf:resource="http://purl.org/dc/dcmitype/StillImage" />
        <dc:title></dc:title>
      </cc:Work>
    </rdf:RDF>
  </metadata>
  <sodipodi:namedview
     pagecolor="#ffffff"
     bordercolor="#666666"
     borderopacity="1"
     objecttolerance="10"
     gridtolerance="10"
     guidetolerance="10"
     inkscape:pageopacity="0"
     inkscape:pageshadow="2"
     inkscape:window-width="1920"
     inkscape:window-height="943"
     id="namedview961"
     showgrid="false"
     inkscape:zoom="0.2803883"
     inkscape:cx="904.78707"
     inkscape:cy="465.96214"
     inkscape:window-x="0"
     inkscape:window-y="25"
     inkscape:window-maximized="1"
     inkscape:current-layer="g1428"
     fit-margin-top="0"
     fit-margin-left="0"
     fit-margin-right="0"
     fit-margin-bottom="0" />
  <g
     style="fill:none"
     id="g1428"
     transform="translate(117.40507,-463.75399)">
    <path
       d="m 1354.8178,1049.874 v 66.227 c 0,17.331 -14.04,31.379 -31.37,31.379 h -76.09 c -17.32,0 -31.37,-14.048 -31.37,-31.379 v -66.227 z"
       fill="#fcd5e5"
       id="path1363" />
    <path
       d="m 1343.7578,1109.999 c -0.3,-0.298 -0.83,-0.298 -1.13,0 l -10.99,10.998 -11,-10.998 c -0.31,-0.311 -0.81,-0.311 -1.12,0 l -11,10.998 -10.99,-10.998 c -0.32,-0.311 -0.82,-0.311 -1.13,0 l -11,10.998 -10.99,-10.998 c -0.31,-0.311 -0.81,-0.311 -1.13,0 l -10.99,10.998 -11,-10.998 c -0.31,-0.311 -0.81,-0.311 -1.12,0 l -11,10.998 -11,-10.998 c -0.29,-0.298 -0.82,-0.298 -1.12,0 l -11.55,11.558 c -0.32,0.311 -0.32,0.814 0,1.122 0.3,0.311 0.81,0.311 1.11,0 l 11,-10.999 11,10.999 c 0.3,0.297 0.82,0.297 1.12,0 l 11,-10.999 11,10.999 c 0.31,0.311 0.81,0.311 1.12,0 l 11,-10.999 10.99,10.999 c 0.31,0.311 0.81,0.311 1.12,0 l 11,-10.999 11,10.999 c 0.31,0.311 0.81,0.311 1.12,0 l 11,-10.999 11,10.999 c 0.14,0.149 0.35,0.233 0.56,0.233 0.21,0 0.41,-0.084 0.56,-0.233 l 10.99,-10.999 11.01,10.999 c 0.3,0.311 0.81,0.311 1.12,0 0.31,-0.308 0.31,-0.811 0,-1.122 z m 0,-17.642 c -0.3,-0.297 -0.83,-0.297 -1.13,0 l -10.99,11.004 -11,-11.004 c -0.31,-0.308 -0.81,-0.308 -1.12,0 l -11,11.004 -10.99,-11.004 c -0.32,-0.308 -0.82,-0.308 -1.13,0 l -11,11.004 -10.99,-11.004 c -0.31,-0.308 -0.81,-0.308 -1.13,0 l -10.99,11.004 -11,-11.004 c -0.31,-0.308 -0.81,-0.308 -1.12,0 l -11,11.004 -11,-11.004 c -0.29,-0.297 -0.82,-0.297 -1.12,0 l -11.55,11.561 c -0.32,0.314 -0.32,0.817 0,1.125 0.3,0.311 0.81,0.311 1.11,0 l 11,-11.002 11,11.002 c 0.3,0.297 0.82,0.297 1.12,0 l 11,-11.002 11,11.002 c 0.31,0.311 0.81,0.311 1.12,0 l 11,-11.002 10.99,11.002 c 0.31,0.311 0.81,0.311 1.12,0 l 11,-11.002 11,11.002 c 0.31,0.311 0.81,0.311 1.12,0 l 11,-11.002 11,11.002 c 0.14,0.149 0.35,0.23 0.56,0.23 0.21,0 0.41,-0.081 0.56,-0.23 l 10.99,-11.002 11.01,11.002 c 0.3,0.311 0.81,0.311 1.12,0 0.31,-0.308 0.31,-0.811 0,-1.125 z m -125.36,66.811 h 134.01 v -11.688 h -134.01 z m 125.36,-84.45 c -0.3,-0.297 -0.83,-0.297 -1.13,0 l -10.99,11.004 -11,-11.004 c -0.31,-0.311 -0.81,-0.311 -1.12,0 l -11,11.004 -10.99,-11.004 c -0.32,-0.311 -0.82,-0.311 -1.13,0 l -11,11.004 -10.99,-11.004 c -0.31,-0.311 -0.81,-0.311 -1.13,0 l -10.99,11.004 -11,-11.004 c -0.31,-0.311 -0.81,-0.311 -1.12,0 l -11,11.004 -11,-11.004 c -0.29,-0.297 -0.82,-0.297 -1.12,0 l -11.55,11.564 c -0.32,0.311 -0.32,0.811 0,1.122 0.3,0.308 0.81,0.308 1.11,0 l 11,-11.004 11,11.004 c 0.3,0.297 0.82,0.297 1.12,0 l 11,-11.004 11,11.004 c 0.31,0.308 0.81,0.308 1.12,0 l 11,-11.004 10.99,11.004 c 0.31,0.308 0.81,0.308 1.12,0 l 11,-11.004 11,11.004 c 0.31,0.308 0.81,0.308 1.12,0 l 11,-11.004 11,11.004 c 0.14,0.149 0.35,0.232 0.56,0.232 0.21,0 0.41,-0.083 0.56,-0.232 l 10.99,-11.004 11.01,11.004 c 0.3,0.308 0.81,0.308 1.12,0 0.31,-0.311 0.31,-0.811 0,-1.122 z m 14.4,-17.098 c 0,0.441 -0.36,0.795 -0.8,0.795 h -144.71 c -0.45,0 -0.8,-0.354 -0.8,-0.795 0,-0.435 0.35,-0.792 0.8,-0.792 h 144.71 c 0.44,0 0.8,0.357 0.8,0.792 z"
       fill="#f6a8c1"
       id="path1365" />
    <path
       d="m 1346.6078,986.97699 c -0.06,0.006 -0.11,0.017 -0.16,0.025 0.08,-0.065 0.15,-0.133 0.23,-0.198 z m 40.44,13 c -0.05,-0.003 -0.09,-0.003 -0.13,-0.008 -0.82,-5.402 -5.95,-11.318 -20.19,-13.116 0.03,-0.295 -0.09,-0.595 -0.36,-0.765 -0.37,-0.23 -0.86,-0.116 -1.09,0.251 l -0.21,0.33 c -3.66,-0.362 -7.87,-0.468 -12.72,-0.249 -1.36,0.065 -2.72,0.179 -4.06,0.338 -0.03,-0.278 -0.2,-0.532 -0.48,-0.646 -0.1,-0.038 -0.2,-0.054 -0.29,-0.054 0,-0.003 0,-0.005 0.01,-0.011 3.17,-2.825 6.08,-5.648 8.6,-8.411 0.01,-0.024 0.04,-0.046 0.06,-0.07 0.99,-1.092 1.92,-2.177 2.78,-3.245 0.01,-0.019 0.03,-0.037 0.05,-0.056 1.12,-1.404 2.13,-2.788 2.99,-4.14 0.4,-0.616 0.77,-1.227 1.13,-1.83 0.11,-0.184 0.21,-0.368 0.32,-0.549 0.25,-0.427 0.5,-0.854 0.74,-1.279 0.1,-0.197 0.21,-0.392 0.31,-0.584 0.24,-0.427 0.46,-0.849 0.68,-1.271 0.08,-0.167 0.17,-0.329 0.25,-0.497 0.26,-0.506 0.5,-1.011 0.74,-1.509 0.03,-0.07 0.06,-0.138 0.09,-0.205 0.57,-1.214 1.07,-2.404 1.51,-3.569 0,-0.011 0.01,-0.016 0.01,-0.022 0.22,-0.573 0.42,-1.141 0.61,-1.698 0.01,-0.032 0.02,-0.062 0.03,-0.094 0.38,-1.125 0.71,-2.228 0.99,-3.304 0.3,-1.16 0.55,-2.29 0.74,-3.399 0.01,-0.057 0.02,-0.119 0.03,-0.181 0.09,-0.497 0.16,-0.987 0.23,-1.473 0.01,-0.049 0.01,-0.095 0.02,-0.141 0.14,-1.065 0.24,-2.103 0.29,-3.115 0.01,-0.048 0.01,-0.1 0.01,-0.146 0.02,-0.443 0.04,-0.881 0.04,-1.314 0.01,-0.081 0.01,-0.159 0.01,-0.238 0.01,-0.454 0.01,-0.908 -0.01,-1.351 0,-0.014 0,-0.03 0,-0.046 -0.01,-0.487 -0.03,-0.966 -0.05,-1.441 -0.03,-0.536 -0.08,-1.06 -0.13,-1.577 0,0 0,0 0,-0.002 -0.16,-1.677 -0.42,-3.258 -0.75,-4.735 0,-0.008 0,-0.01 0,-0.016 -0.15,-0.716 -0.33,-1.406 -0.5,-2.076 -0.01,-0.038 -0.02,-0.079 -0.03,-0.114 -0.18,-0.67 -0.37,-1.322 -0.57,-1.941 -0.11,-0.346 -0.23,-0.687 -0.36,-1.025 -0.04,-0.1 -0.08,-0.197 -0.12,-0.297 -0.09,-0.238 -0.19,-0.471 -0.3,-0.703 -0.04,-0.106 -0.09,-0.211 -0.14,-0.314 -0.12,-0.232 -0.23,-0.462 -0.35,-0.684 -0.05,-0.084 -0.09,-0.17 -0.14,-0.254 -0.16,-0.289 -0.33,-0.573 -0.5,-0.849 -0.01,-0.013 -0.02,-0.024 -0.02,-0.038 -0.21,-0.313 -0.42,-0.616 -0.63,-0.911 0,-0.003 0,-0.003 0,-0.003 -0.21,-0.284 -0.43,-0.554 -0.65,-0.822 -0.04,-0.035 -0.07,-0.073 -0.1,-0.11 -0.2,-0.236 -0.41,-0.468 -0.62,-0.693 -0.03,-0.032 -0.06,-0.064 -0.09,-0.094 -0.61,-0.633 -1.27,-1.209 -1.96,-1.733 -1.15,-0.868 -2.4,-1.582 -3.73,-2.134 -0.01,-0.002 -0.02,-0.008 -0.02,-0.01 -1.32,-0.549 -2.71,-0.933 -4.13,-1.139 -0.02,-0.005 -0.05,-0.008 -0.07,-0.01 -0.33,-0.049 -0.66,-0.087 -1,-0.114 -0.03,-0.003 -0.05,-0.003 -0.07,-0.008 -1.08,-0.087 -2.17,-0.07 -3.27,0.049 -0.02,0.002 -0.04,0.002 -0.06,0.005 -0.34,0.038 -0.67,0.084 -1.01,0.143 -0.04,0.008 -0.08,0.014 -0.12,0.022 -0.34,0.062 -0.69,0.13 -1.03,0.214 -0.01,0.002 -0.03,0.005 -0.04,0.008 -0.98,0.238 -1.96,0.557 -2.92,0.973 -0.25,0.108 -0.5,0.235 -0.75,0.354 0,0 0,0 0,0 -2.01,0.941 -3.98,2.163 -5.92,3.629 -0.01,0.005 -0.02,0.013 -0.03,0.024 -0.61,0.457 -1.21,0.943 -1.81,1.452 -0.04,0.035 -0.08,0.073 -0.13,0.105 -0.29,0.254 -0.59,0.511 -0.89,0.779 -0.05,0.049 -0.1,0.1 -0.16,0.149 -0.51,0.462 -1.01,0.938 -1.52,1.427 -0.12,0.119 -0.24,0.238 -0.36,0.357 -0.26,0.254 -0.51,0.511 -0.76,0.771 -0.14,0.14 -0.27,0.283 -0.41,0.424 -0.4,0.425 -0.8,0.857 -1.2,1.301 -0.17,0.181 -0.33,0.367 -0.5,0.554 -0.22,0.254 -0.44,0.508 -0.67,0.765 -0.31,0.362 -0.62,0.727 -0.93,1.1 -4.37,5.291 -8.49,11.645 -12.31,18.531 -0.34,0.609 -0.67,1.217 -1.01,1.834 0,0.005 0,0.008 0,0.008 -1.47,2.717 -2.89,5.507 -4.26,8.338 -0.01,0.022 -0.02,0.046 -0.03,0.068 -0.68,1.4 -1.35,2.809 -2,4.225 -0.02,0.03 -0.03,0.06 -0.04,0.087 -0.66,1.425 -1.31,2.858 -1.94,4.291 0,0.002 0,0.008 0,0.008 -1.04,2.363 -2.05,4.731 -3.02,7.086 -0.01,0.022 -0.02,0.038 -0.02,0.057 -0.7,1.676 -1.37,3.347 -2.02,5.002 1.73,-5.397 3.44,-10.793 5.01,-15.876 l 0.93,-0.763 c 0.34,-0.278 0.39,-0.778 0.11,-1.116 -0.1,-0.125 -0.24,-0.198 -0.38,-0.241 1.14,-3.728 2.2,-7.257 3.12,-10.453 0.65,-2.252 1.33,-4.531 2.03,-6.834 l 0.81,-0.555 c 0.36,-0.243 0.46,-0.741 0.21,-1.1 -0.11,-0.157 -0.26,-0.252 -0.43,-0.303 1.98,-6.508 4.06,-13.216 5.94,-20.08 l 0.75,-0.498 c 0.36,-0.24 0.46,-0.733 0.22,-1.1 -0.11,-0.165 -0.28,-0.271 -0.46,-0.322 1.7,-6.37 3.19,-12.872 4.24,-19.48 l 0.56,-0.327 c 0.38,-0.225 0.5,-0.711 0.28,-1.09 -0.13,-0.216 -0.34,-0.335 -0.57,-0.37 0.79,-5.397 1.27,-10.864 1.31,-16.379 l 0.7,-0.3 c 0.41,-0.176 0.59,-0.641 0.42,-1.044 -0.18,-0.4 -0.64,-0.589 -1.04,-0.414 l -0.07,0.03 c -0.01,-0.752 -0.03,-1.498 -0.05,-2.247 -0.15,-4.899 -3.24,-8.8 -7.38,-10.395 0.13,-0.338 0.02,-0.725 -0.29,-0.933 -0.37,-0.238 -0.86,-0.138 -1.1,0.232 -0.05,0.073 -0.1,0.152 -0.14,0.23 -1.87,-0.435 -3.87,-0.433 -5.89,0.146 -2.25,0.646 -5.06,2.15 -8.06,4.288 -0.18,-0.249 -0.48,-0.381 -0.8,-0.313 -0.43,0.089 -0.7,0.508 -0.61,0.938 l 0.07,0.362 c -4.57,3.482 -9.43,8.333 -13.33,13.824 -0.2,-0.141 -0.45,-0.197 -0.7,-0.111 -0.41,0.143 -0.63,0.598 -0.49,1.009 l 0.19,0.554 c -0.64,0.971 -1.26,1.955 -1.83,2.955 -2.74,4.767 -5.6,10.58 -8.05,17.525 -0.2,-0.067 -0.42,-0.064 -0.63,0.041 -0.38,0.203 -0.54,0.679 -0.34,1.071 l 0.35,0.684 c -2.04,6.11 -3.74,13.059 -4.79,20.918 -0.18,-0.021 -0.37,0.006 -0.54,0.111 -0.36,0.241 -0.47,0.73 -0.23,1.101 l 0.52,0.786 c -0.5,4.291 -0.81,8.839 -0.87,13.662 0,-0.008 -0.01,-0.013 -0.01,-0.016 -0.31,-0.811 -0.63,-1.625 -0.96,-2.436 -0.36,-0.895 -0.73,-1.79 -1.1,-2.688 -0.25,-0.586 -0.51,-1.168 -0.77,-1.735 -0.08,-0.182 -0.16,-0.355 -0.24,-0.53 -0.18,-0.392 -0.36,-0.776 -0.54,-1.152 -0.09,-0.197 -0.19,-0.392 -0.29,-0.587 -0.18,-0.351 -0.35,-0.7 -0.53,-1.046 -0.1,-0.192 -0.19,-0.376 -0.29,-0.565 -0.19,-0.344 -0.37,-0.687 -0.55,-1.02 -0.09,-0.173 -0.19,-0.346 -0.29,-0.516 -0.2,-0.351 -0.4,-0.7 -0.6,-1.044 -0.08,-0.137 -0.16,-0.281 -0.25,-0.421 -0.23,-0.392 -0.47,-0.776 -0.71,-1.158 -0.05,-0.081 -0.1,-0.164 -0.15,-0.246 -3.12,-4.891 -6.55,-8.665 -10.12,-11.531 -0.03,-0.024 -0.06,-0.051 -0.1,-0.078 -0.93,-0.746 -1.87,-1.431 -2.82,-2.058 -0.06,-0.032 -0.11,-0.07 -0.17,-0.105 -0.47,-0.306 -0.94,-0.603 -1.42,-0.882 -0.48,-0.289 -0.97,-0.559 -1.46,-0.819 -1.56,-0.822 -3.12,-1.5 -4.66,-2.044 -0.02,-0.008 -0.02,-0.008 -0.03,-0.011 -1.54,-0.54 -3.06,-0.957 -4.56,-1.257 -0.03,-0.005 -0.05,-0.013 -0.08,-0.016 -1.54,-0.308 -3.06,-0.498 -4.53,-0.59 0,0 0,0 0,0 -5.88,-0.351 -11.06,0.904 -14.51,2.683 0,0 0,0 0,0.002 -0.77,0.392 -1.45,0.811 -2.03,1.247 -0.21,0.151 -0.41,0.319 -0.6,0.497 -0.07,0.065 -0.14,0.141 -0.21,0.206 -0.12,0.116 -0.24,0.232 -0.35,0.359 -0.08,0.089 -0.16,0.192 -0.24,0.287 -0.1,0.113 -0.19,0.222 -0.29,0.34 -0.08,0.109 -0.16,0.228 -0.24,0.341 -0.08,0.116 -0.17,0.23 -0.24,0.352 -0.08,0.127 -0.16,0.256 -0.24,0.386 -0.07,0.122 -0.14,0.244 -0.21,0.371 -0.08,0.138 -0.16,0.284 -0.23,0.432 -0.06,0.125 -0.13,0.246 -0.18,0.376 -0.08,0.157 -0.15,0.319 -0.22,0.481 -0.06,0.125 -0.11,0.249 -0.16,0.376 -0.07,0.176 -0.14,0.357 -0.2,0.535 -0.04,0.125 -0.09,0.249 -0.13,0.376 -0.06,0.195 -0.13,0.39 -0.19,0.592 -0.03,0.117 -0.06,0.236 -0.09,0.355 -0.07,0.219 -0.13,0.435 -0.18,0.659 -0.03,0.108 -0.05,0.217 -0.07,0.322 -0.06,0.243 -0.11,0.489 -0.16,0.744 -0.02,0.081 -0.03,0.167 -0.05,0.248 -0.04,0.281 -0.09,0.565 -0.13,0.855 -0.01,0.038 -0.01,0.073 -0.02,0.108 -0.31,2.233 -0.36,4.707 -0.09,7.338 v 0.002 c 0.06,0.617 0.15,1.241 0.24,1.874 0.02,0.143 0.05,0.292 0.07,0.438 0.1,0.627 0.22,1.263 0.36,1.906 0,0.003 0,0.006 0,0.008 0.14,0.657 0.31,1.32 0.49,1.987 0.04,0.133 0.08,0.268 0.11,0.406 0.38,1.341 0.83,2.698 1.37,4.064 0.05,0.121 0.1,0.243 0.15,0.362 0.55,1.379 1.19,2.769 1.92,4.15 0.06,0.111 0.12,0.225 0.18,0.338 0.92,1.701 1.96,3.396 3.15,5.059 0.01,0.011 0.02,0.016 0.02,0.027 0.37,0.505 0.75,1.014 1.14,1.519 0,0.008 0.01,0.011 0.01,0.016 0,0.003 0.01,0.006 0.01,0.014 0.24,0.306 0.5,0.627 0.76,0.957 0.08,0.1 0.17,0.203 0.25,0.306 0.2,0.248 0.4,0.5 0.62,0.759 0.09,0.111 0.18,0.219 0.28,0.336 0.24,0.297 0.5,0.6 0.76,0.911 0.06,0.07 0.12,0.135 0.17,0.205 0.35,0.403 0.7,0.817 1.07,1.241 0.01,0.011 0.02,0.027 0.03,0.041 0.35,0.405 0.72,0.819 1.08,1.241 0.07,0.078 0.14,0.157 0.21,0.232 0.34,0.387 0.69,0.784 1.05,1.187 0.05,0.06 0.1,0.117 0.15,0.173 0.85,0.955 1.74,1.947 2.67,2.972 0,0.002 0,0.002 0.01,0.002 0.42,0.474 0.86,0.949 1.3,1.431 0.01,0.002 0.01,0.005 0.01,0.008 0.7,0.762 1.41,1.544 2.15,2.336 0.01,0.013 0.02,0.021 0.03,0.032 0.72,0.782 1.46,1.574 2.22,2.382 0.01,0.011 0.02,0.022 0.03,0.035 -2.41,-1.414 -4.87,-2.703 -7.37,-3.85 l -0.26,-0.722 c -0.15,-0.413 -0.61,-0.627 -1.02,-0.478 -0.21,0.075 -0.37,0.24 -0.45,0.438 -3.79,-1.617 -7.67,-2.888 -11.62,-3.702 -3.08,-0.635 -6.4,-0.743 -9.64,-0.338 l -0.12,-0.237 c -0.18,-0.398 -0.65,-0.568 -1.05,-0.379 -0.33,0.154 -0.49,0.511 -0.43,0.854 -5.67,1.017 -10.95,3.648 -14.08,7.852 l -0.09,-0.046 c -0.39,-0.206 -0.86,-0.057 -1.07,0.335 -0.19,0.365 -0.06,0.809 0.28,1.028 -0.83,1.419 -1.45,2.993 -1.78,4.723 -0.75,3.993 -0.49,8.993 1.39,13.781 -0.36,0.148 -0.57,0.524 -0.48,0.908 0.09,0.363 0.42,0.606 0.77,0.606 0.07,0 0.13,-0.008 0.19,-0.022 l 0.15,-0.035 c 2.27,4.85901 6.3,9.37101 12.77,12.21501 1.54,0.674 3.09,1.325 4.66,1.952 -0.07,0.165 -0.09,0.355 -0.03,0.541 0.11,0.333 0.42,0.541 0.75,0.541 0.09,0 0.17,-0.014 0.26,-0.041 l 0.89,-0.302 c 9.23,3.568 18.89,6.356 28.16,8.527 -0.03,0.141 -0.04,0.289 0.01,0.435 0.11,0.327 0.42,0.536 0.74,0.536 0.09,0 0.18,-0.014 0.26,-0.044 l 1.22,-0.416 c 5.95,1.346 11.7,2.436 17.03,3.32 -1.9,0.106 -3.86,0.273 -5.87,0.514 -0.13,0.016 -0.25,0.035 -0.37,0.046 -1.06,0.135 -2.13,0.284 -3.22,0.459 0,0 0,0 -0.01,0 -0.66,0.108 -1.32,0.235 -1.97,0.379 -0.08,0.016 -0.16,0.038 -0.24,0.054 -0.59,0.132 -1.17,0.27 -1.75,0.43 -0.02,0 -0.05,0.013 -0.07,0.021 -1.29,0.352 -2.56,0.765 -3.8,1.236 -0.67,0.251 -1.32,0.519 -1.98,0.806 -0.45,0.197 -0.91,0.402 -1.36,0.616 -0.32,0.151 -0.63,0.311 -0.94,0.468 -0.21,0.105 -0.42,0.211 -0.63,0.319 -0.33,0.173 -0.66,0.354 -0.98,0.532 -0.17,0.092 -0.34,0.187 -0.51,0.282 -0.35,0.205 -0.7,0.411 -1.05,0.621 -0.08,0.049 -0.16,0.101 -0.25,0.152 -3.29,2.028 -6.25,4.431 -8.74,7.065 -0.01,0 -0.01,0.013 -0.02,0.021 -0.39,0.414 -0.78,0.836 -1.14,1.266 -0.02,0.027 -0.05,0.054 -0.07,0.081 -0.35,0.408 -0.69,0.822 -1.02,1.235 -0.04,0.057 -0.08,0.117 -0.12,0.173 -0.31,0.39 -0.6,0.782 -0.88,1.182 -0.07,0.092 -0.12,0.181 -0.19,0.273 -0.25,0.37 -0.5,0.738 -0.73,1.114 -0.08,0.119 -0.15,0.243 -0.22,0.365 -0.21,0.349 -0.43,0.697 -0.62,1.049 -0.07,0.13 -0.13,0.265 -0.21,0.397 -0.43,0.828 -0.83,1.66 -1.16,2.501 -0.18,0.436 -0.33,0.874 -0.47,1.312 -0.04,0.127 -0.09,0.254 -0.12,0.381 -0.12,0.376 -0.23,0.754 -0.32,1.133 -0.02,0.075 -0.04,0.148 -0.05,0.224 -0.11,0.435 -0.19,0.876 -0.26,1.311 -0.02,0.122 -0.03,0.244 -0.05,0.36 -0.05,0.362 -0.09,0.727 -0.12,1.084 0,0.097 -0.01,0.195 -0.02,0.289 -0.02,0.438 -0.03,0.871 -0.02,1.306 0,0.108 0.01,0.214 0.01,0.322 0.02,0.352 0.05,0.706 0.08,1.06 0.01,0.108 0.02,0.213 0.04,0.322 0.06,0.43 0.13,0.857 0.23,1.281 0.01,0.084 0.04,0.171 0.06,0.254 0.09,0.357 0.19,0.711 0.3,1.063 0.04,0.108 0.07,0.222 0.11,0.33 0.15,0.422 0.31,0.835 0.5,1.249 0.02,0.051 0.05,0.105 0.07,0.157 0.17,0.365 0.37,0.727 0.57,1.087 0.06,0.108 0.13,0.213 0.19,0.324 0.24,0.403 0.5,0.806 0.79,1.198 0.04,0.046 0.07,0.089 0.11,0.135 0.49,0.662 1.01,1.249 1.55,1.774 0.01,0 0.01,0 0.02,0.013 0.17,0.17 0.36,0.338 0.54,0.495 0.01,0 0.03,0.019 0.04,0.027 0.17,0.151 0.35,0.295 0.54,0.435 0.01,0.011 0.03,0.025 0.05,0.035 0.17,0.136 0.35,0.263 0.54,0.387 0.01,0.011 0.04,0.024 0.06,0.038 0.18,0.119 0.36,0.23 0.54,0.338 0.02,0.013 0.05,0.027 0.07,0.04 0.18,0.103 0.36,0.203 0.55,0.295 0.03,0.016 0.05,0.027 0.08,0.041 0.18,0.089 0.37,0.175 0.55,0.256 0.03,0.014 0.06,0.025 0.09,0.038 0.18,0.079 0.37,0.152 0.56,0.219 0.03,0.011 0.06,0.022 0.09,0.033 0.19,0.067 0.37,0.13 0.57,0.186 0.03,0.01 0.06,0.017 0.09,0.027 0.19,0.054 0.38,0.106 0.58,0.152 0.03,0.01 0.06,0.016 0.09,0.024 0.2,0.043 0.39,0.084 0.59,0.122 0.03,0 0.06,0.011 0.09,0.016 0.21,0.035 0.41,0.065 0.61,0.092 0.03,0 0.06,0 0.09,0.01 0.2,0.03 0.41,0.049 0.62,0.062 0.02,0 0.05,0.01 0.08,0.011 0.21,0.014 0.42,0.024 0.64,0.03 0.02,0 0.04,0 0.06,0 0.23,0.01 0.45,0.01 0.68,0 0.01,0 0.02,0 0.04,0 0.24,0 0.47,-0.01 0.71,-0.024 0,0 0.01,0 0.01,0 0.52,-0.032 1.05,-0.086 1.58,-0.159 0.51,-0.076 1.03,-0.168 1.55,-0.284 0,0 0.01,0 0.01,0 0.51,-0.111 1.03,-0.241 1.55,-0.384 0.02,-0.01 0.05,-0.019 0.08,-0.025 0.49,-0.14 0.99,-0.294 1.49,-0.465 0.04,-0.016 0.09,-0.027 0.13,-0.043 0.49,-0.167 0.97,-0.346 1.46,-0.538 0.05,-0.022 0.1,-0.04 0.15,-0.059 0.49,-0.192 0.97,-0.398 1.46,-0.614 0.05,-0.022 0.1,-0.043 0.15,-0.065 0.49,-0.216 0.98,-0.449 1.47,-0.687 0.04,-0.024 0.08,-0.04 0.12,-0.059 0.51,-0.252 1.01,-0.508 1.52,-0.776 0.02,-0.011 0.04,-0.025 0.07,-0.038 1.02,-0.541 2.03,-1.117 3.04,-1.722 0,0 0,0 0,0 0.59,-0.354 1.17,-0.719 1.75,-1.087 0.03,-0.022 0.07,-0.041 0.1,-0.062 0.56,-0.36 1.12,-0.728 1.68,-1.101 0.01,-0.01 0.03,-0.019 0.04,-0.027 0.57,-0.384 1.14,-0.768 1.69,-1.154 0.02,-0.014 0.03,-0.027 0.05,-0.038 0.55,-0.381 1.08,-0.763 1.61,-1.147 0.02,-0.016 0.04,-0.032 0.07,-0.051 1.07,-0.779 2.11,-1.56 3.11,-2.325 0.02,-0.019 0.04,-0.035 0.06,-0.054 1.95,-1.506 3.73,-2.942 5.25,-4.185 0.94,-0.763 1.85,-1.52 2.75,-2.266 0.02,-0.022 0.05,-0.041 0.07,-0.06 0.89,-0.743 1.76,-1.476 2.61,-2.2 0.03,-0.022 0.05,-0.041 0.07,-0.063 0.87,-0.732 1.7,-1.457 2.52,-2.168 0.01,-0.01 0.02,-0.016 0.03,-0.027 1.93,-1.674 3.74,-3.282 5.42,-4.805 0.07,-0.067 0.15,-0.132 0.22,-0.202 0.36,-0.325 0.72,-0.646 1.06,-0.966 0.08,-0.075 0.16,-0.148 0.25,-0.221 0.35,-0.325 0.7,-0.646 1.04,-0.963 0.05,-0.048 0.11,-0.1 0.16,-0.148 0.81,-0.747 1.58,-1.466 2.31,-2.15 0,0 0,-0.01 0.01,-0.011 0.34,-0.324 0.68,-0.643 1.01,-0.957 0.05,-0.048 0.11,-0.1 0.15,-0.149 0.29,-0.273 0.57,-0.535 0.84,-0.794 0.05,-0.049 0.1,-0.095 0.15,-0.141 0.29,-0.281 0.57,-0.552 0.84,-0.814 0.02,-0.011 0.02,-0.019 0.03,-0.03 l -4.54,17.464 h 1.64 l 5.1,-19.608 c 0.22,-0.219 0.43,-0.424 0.62,-0.619 0.01,-0.01 0.02,-0.019 0.03,-0.027 0.18,-0.181 0.35,-0.349 0.51,-0.508 0.03,-0.024 0.05,-0.051 0.07,-0.076 0.16,-0.151 0.3,-0.297 0.43,-0.43 0.01,0 0.02,-0.013 0.02,-0.021 0.31,-0.303 0.56,-0.565 0.76,-0.765 0.02,-0.014 0.03,-0.036 0.05,-0.049 0.29,-0.292 0.44,-0.457 0.48,-0.492 0.06,0.054 0.07,0.054 0.01,-0.014 l 0.16,-0.013 c 0.09,0.14 0.21,0.332 0.36,0.562 0.07,0.092 0.13,0.195 0.2,0.303 0,0 0.01,0.01 0.01,0.016 0.07,0.106 0.14,0.219 0.22,0.338 0.03,0.046 0.06,0.092 0.09,0.141 0.29,0.435 0.62,0.941 1,1.519 0,0 0.01,0.01 0.01,0.011 0,0 0.01,0.01 0.01,0.014 0.22,0.324 0.45,0.673 0.69,1.04 0.01,0.01 0.01,0.01 0.01,0.017 0.25,0.367 0.51,0.754 0.79,1.157 0,0.01 0,0.011 0.01,0.016 0,0.01 0.01,0.016 0.01,0.022 0.35,0.511 0.71,1.041 1.1,1.603 l 2.19,15.863 h 1.6 l -1.79,-12.994 c 0,0 0,0 0,0 0.14,0.203 0.29,0.408 0.44,0.614 0.18,0.257 0.35,0.511 0.54,0.776 0.23,0.313 0.47,0.638 0.7,0.962 0.1,0.146 0.21,0.292 0.32,0.441 0.28,0.392 0.57,0.789 0.86,1.19 0.06,0.081 0.12,0.159 0.18,0.24 0.32,0.444 0.66,0.892 1,1.341 0.02,0.038 0.05,0.073 0.07,0.111 0.36,0.476 0.72,0.96 1.09,1.444 0.01,0 0.01,0.013 0.02,0.024 1.6,2.115 3.3,4.267 5.03,6.367 0.86,1.041 1.73,2.063 2.61,3.064 0.04,0.04 0.07,0.081 0.11,0.121 0.85,0.976 1.72,1.925 2.57,2.839 0.05,0.046 0.09,0.09 0.13,0.136 0.86,0.913 1.73,1.787 2.58,2.614 0.03,0.032 0.07,0.062 0.1,0.092 0.86,0.83 1.71,1.603 2.55,2.32 0.03,0.021 0.06,0.046 0.08,0.07 0.84,0.703 1.65,1.344 2.46,1.912 0.03,0.029 0.07,0.056 0.11,0.083 0.57,0.4 1.13,0.776 1.67,1.095 1.1,0.644 2.27,1.19 3.49,1.641 0.01,0 0.01,0 0.02,0.01 0.97,0.354 1.96,0.648 2.98,0.878 0,0 0.01,0 0.01,0 2.56,0.576 5.22,0.738 7.81,0.438 0,0 0,0 0,0 0.51,-0.059 1.02,-0.141 1.52,-0.235 0.06,-0.014 0.13,-0.022 0.19,-0.035 0.5,-0.1 1,-0.217 1.49,-0.355 0.04,-0.01 0.09,-0.024 0.13,-0.035 0.5,-0.143 0.98,-0.3 1.46,-0.478 0.01,0 0.02,-0.01 0.03,-0.01 0.49,-0.187 0.97,-0.392 1.44,-0.617 0.04,-0.019 0.08,-0.04 0.13,-0.059 0.94,-0.46 1.84,-1.001 2.69,-1.628 0.03,-0.013 0.05,-0.032 0.07,-0.049 0.87,-0.651 1.68,-1.389 2.42,-2.219 0.34,-0.392 0.68,-0.809 0.99,-1.241 0,0 0,0 0,0 0.2,-0.276 0.39,-0.56 0.58,-0.849 0,0 0,0 0,0 0.18,-0.289 0.36,-0.584 0.52,-0.889 0.04,-0.062 0.06,-0.125 0.1,-0.187 0.13,-0.251 0.26,-0.503 0.39,-0.765 0.14,-0.316 0.28,-0.638 0.41,-0.973 0.01,-0.019 0.02,-0.035 0.03,-0.054 0.16,-0.425 0.32,-0.86 0.46,-1.301 0.04,-0.132 0.08,-0.265 0.12,-0.397 0.09,-0.325 0.19,-0.649 0.27,-0.982 0.04,-0.143 0.07,-0.284 0.11,-0.427 0.08,-0.365 0.16,-0.735 0.23,-1.103 0.02,-0.1 0.04,-0.195 0.06,-0.295 0.08,-0.489 0.15,-0.981 0.21,-1.481 0,-0.01 0,-0.011 0,-0.019 0.05,-0.482 0.09,-0.971 0.12,-1.466 0,-0.092 0.01,-0.189 0.01,-0.281 0.02,-0.424 0.02,-0.852 0.02,-1.279 0,-0.084 0,-0.17 0,-0.257 -0.02,-1.046 -0.1,-2.092 -0.25,-3.136 -0.07,-0.522 -0.16,-1.041 -0.27,-1.56 0,0 0,0 0,0 -0.09,-0.435 -0.19,-0.87 -0.3,-1.303 0,-0.013 -0.01,-0.024 -0.01,-0.038 -0.11,-0.421 -0.23,-0.84 -0.36,-1.254 -0.01,-0.022 -0.02,-0.043 -0.03,-0.065 -0.13,-0.408 -0.27,-0.811 -0.43,-1.214 0,-0.03 -0.02,-0.054 -0.03,-0.078 -0.15,-0.401 -0.32,-0.793 -0.49,-1.185 -0.01,-0.027 -0.03,-0.054 -0.04,-0.083 -0.17,-0.39 -0.36,-0.774 -0.57,-1.155 -0.01,-0.024 -0.02,-0.054 -0.04,-0.078 -0.2,-0.384 -0.41,-0.765 -0.64,-1.141 -0.01,-0.017 -0.02,-0.035 -0.04,-0.057 -0.23,-0.381 -0.47,-0.757 -0.73,-1.13 -0.01,-0.01 -0.02,-0.022 -0.02,-0.03 -0.27,-0.381 -0.55,-0.752 -0.84,-1.119 0,0 0,0 0,0 -0.36,-0.452 -0.73,-0.895 -1.13,-1.322 v 0 c -0.38,-0.403 -0.78,-0.787 -1.19,-1.165 -0.11,-0.1 -0.22,-0.195 -0.33,-0.295 -0.34,-0.295 -0.68,-0.581 -1.04,-0.863 -0.1,-0.078 -0.21,-0.159 -0.31,-0.24 -0.96,-0.719 -2.01,-1.376 -3.14,-1.966 -0.03,-0.021 -0.07,-0.038 -0.11,-0.057 -0.56,-0.286 -1.13,-0.554 -1.73,-0.803 -0.03,-0.016 -0.06,-0.027 -0.09,-0.04 -1.91,-0.798 -4.04,-1.401 -6.39,-1.779 0,0 0,0 0,0 -0.26,-0.041 -0.51,-0.089 -0.77,-0.127 -0.1,-0.011 -0.19,-0.022 -0.29,-0.033 l 10.04,-0.705 c 0.1,-0.01 0.19,-0.022 0.29,-0.033 l 0.8,0.517 c 0.14,0.083 0.28,0.124 0.43,0.124 0.26,0 0.52,-0.127 0.67,-0.362 0.11,-0.165 0.13,-0.355 0.11,-0.53 7.63,-0.982 14.11,-2.19 19.58,-3.548 l 0.62,0.401 c 0.14,0.086 0.29,0.127 0.43,0.127 0.26,0 0.52,-0.127 0.67,-0.363 0.13,-0.197 0.15,-0.421 0.09,-0.63 6.28,-1.665 11.13,-3.522 14.79,-5.442 l 0.5,0.251 c 0.11,0.057 0.23,0.084 0.35,0.084 0.29,0 0.57,-0.159 0.71,-0.435 0.12,-0.249 0.1,-0.522 -0.03,-0.744 3.4,-1.987 5.59,-4.007 6.79,-5.918 0.96,-1.514 1.59,-3.504 1.59,-5.662 0.41,-0.01 0.74,-0.329 0.76,-0.74 0.02,-0.441 -0.31,-0.81201 -0.75,-0.83301 z"
       fill="#285b53"
       id="path1367" />
    <path
       d="m 1288.9378,1023.986 0.29,-0.409 0.92,-1.278 0.64,-0.879 9.01,-12.47 -1.29,-13.72101 c -3.78,11.54201 -7.25,21.85701 -9.15,27.50201 -0.16,0.449 -0.29,0.868 -0.42,1.255 z m 6.03,-5.638 c 2.52,-2.838 5.66,-6.115 9.35,-9.471 l -3.21,0.976 z m -12.48,8.539 c -5.07,-0.425 -13.39,-1.271 -23.38,-2.855 l 16.76,4.336 c 2.57,-0.676 4.81,-1.149 6.62,-1.481 z m 1.5,-9.62 c -2.96,-8.179 -5.32,-15.933 -7.16,-23.28701 l -1.35,6.99401 c 3.5,6.422 6.36,11.997 8.51,16.293 z m 66.65,26.461 c 0.05,0.427 -0.25,0.808 -0.67,0.876 0,0 -0.01,0 -0.02,0 l -16.94,2.085 c 4.72,3.915 9.33,8.552 13.57,14.057 0.04,0.054 0.09,0.11 0.13,0.167 0.27,0.346 0.2,0.846 -0.15,1.111 -0.14,0.111 -0.31,0.165 -0.48,0.165 -0.18,0 -0.35,-0.081 -0.49,-0.202 -0.05,-0.036 -0.1,-0.063 -0.13,-0.109 -4.18,-5.445 -8.73,-10.033 -13.38,-13.902 l 1.94,19.729 v 0.073 c 0.05,0.435 -0.27,0.825 -0.71,0.865 -0.03,0 -0.05,0 -0.08,0 -0.4,0 -0.74,-0.305 -0.78,-0.713 l -0.02,-0.106 -2.08,-21.262 c -4.61,-3.639 -9.28,-6.591 -13.76,-8.984 l 3.91,27.037 c 0.02,0.181 -0.02,0.346 -0.11,0.492 -0.11,0.208 -0.31,0.37 -0.56,0.408 -0.04,0.01 -0.08,0.01 -0.12,0.01 -0.39,0 -0.73,-0.283 -0.78,-0.681 l -0.1,-0.668 -3.97,-27.499 c -4.7,-2.387 -9.13,-4.158 -13.01,-5.467 l 3.18,18.439 c 0.05,0.29 -0.08,0.56 -0.29,0.738 -0.1,0.087 -0.22,0.155 -0.36,0.179 -0.05,0.011 -0.09,0.013 -0.14,0.013 -0.37,0 -0.71,-0.273 -0.78,-0.659 l -0.24,-1.398 -3.08,-17.869 c -2.59,-0.822 -4.89,-1.43 -6.78,-1.868 -0.59,-0.138 -1.14,-0.262 -1.65,-0.365 -0.07,-0.014 -0.13,-0.027 -0.19,-0.041 -0.59,-0.121 -1.11,-0.224 -1.58,-0.308 -0.54,-0.1 -1,-0.176 -1.36,-0.232 -0.08,-0.011 -0.16,-0.025 -0.24,-0.033 0.07,0.092 0.13,0.195 0.2,0.303 l -3.3,21.757 h -1.61 l 3.3,-21.695 c 0.15,-0.151 0.29,-0.292 0.4,-0.408 -0.1,0.011 -0.22,0.024 -0.35,0.035 -0.39,0.043 -0.91,0.108 -1.55,0.203 -0.5,0.07 -1.07,0.157 -1.71,0.265 -1.89,0.324 -4.36,0.819 -7.31,1.584 l -3.16,11.285 -0.33,1.193 c -0.1,0.351 -0.41,0.578 -0.76,0.578 -0.07,0 -0.14,-0.01 -0.22,-0.027 -0.15,-0.043 -0.27,-0.135 -0.37,-0.249 -0.17,-0.194 -0.25,-0.459 -0.18,-0.73 l 3.24,-11.566 c -3.9,1.087 -8.48,2.617 -13.5,4.764 l -0.98,17.217 -0.04,0.714 c -0.03,0.422 -0.37,0.752 -0.79,0.752 -0.02,0 -0.03,0 -0.05,0 -0.23,-0.014 -0.43,-0.133 -0.57,-0.298 -0.11,-0.148 -0.19,-0.335 -0.18,-0.54 l 0.98,-17.131 c -4.44,1.974 -9.19,4.423 -14.1,7.465 l 0.29,19.494 0.01,0.454 c 0,0.438 -0.35,0.797 -0.79,0.806 0,0 0,0 -0.01,0 -0.29,0 -0.54,-0.165 -0.68,-0.403 -0.06,-0.114 -0.11,-0.241 -0.11,-0.379 l -0.28,-18.985 c -4.12,2.641 -8.34,5.699 -12.56,9.236 l 0.17,15.03 v 0.091 c 0,0.441 -0.35,0.801 -0.79,0.803 0,0 -0.01,0 -0.01,0 -0.41,0 -0.75,-0.327 -0.78,-0.735 0,-0.019 -0.01,-0.03 -0.01,-0.049 l -0.16,-13.802 c -3.41,2.955 -6.81,6.224 -10.17,9.85 -0.02,0.021 -0.05,0.027 -0.07,0.046 -0.15,0.129 -0.33,0.208 -0.52,0.208 -0.19,0 -0.38,-0.071 -0.54,-0.211 -0.32,-0.298 -0.34,-0.8 -0.04,-1.122 0.03,-0.033 0.06,-0.06 0.09,-0.092 3.5,-3.769 7.05,-7.162 10.6,-10.212 l -12.23,-5.973 -0.04,-0.018 c -0.39,-0.192 -0.56,-0.671 -0.37,-1.063 0.19,-0.384 0.65,-0.546 1.04,-0.37 0.01,0 0.02,0 0.03,0.01 l 12.9,6.294 c 4.23,-3.536 8.47,-6.6 12.6,-9.244 l -16.95,-7.546 c -0.11,-0.046 -0.19,-0.116 -0.26,-0.197 -0.2,-0.228 -0.27,-0.555 -0.14,-0.849 0.18,-0.401 0.65,-0.582 1.05,-0.403 l 0.36,0.162 17.55,7.816 c 4.75,-2.936 9.35,-5.329 13.67,-7.281 l -20.03,-6.616 c -0.22,-0.075 -0.38,-0.246 -0.47,-0.448 -0.07,-0.171 -0.09,-0.363 -0.03,-0.555 0.14,-0.416 0.59,-0.646 1,-0.503 l 0.91,0.298 20.79,6.87 c 4.54,-1.944 8.73,-3.396 12.4,-4.475 l -17.98,-4.65 c -0.33,-0.089 -0.56,-0.376 -0.58,-0.7 -0.01,-0.09 -0.01,-0.179 0.01,-0.268 0.04,-0.132 0.11,-0.241 0.2,-0.338 -4.62,-0.803 -9.53,-1.76 -14.57,-2.901 l 20.35,-6.984 24.06,12.629 0.83,0.441 c 0.26,-0.038 0.5,-0.068 0.72,-0.097 0.27,-0.035 0.52,-0.068 0.73,-0.092 -0.03,-0.073 -0.07,-0.141 -0.1,-0.222 -0.1,-0.222 -0.23,-0.47 -0.36,-0.752 -0.02,-0.046 -0.04,-0.094 -0.06,-0.143 -0.24,-0.487 -0.5,-1.049 -0.81,-1.69 -0.06,-0.124 -0.13,-0.257 -0.19,-0.384 -2.12,-4.39 -5.87,-11.939 -10.97,-21.302 l -7.45,-1.349 -7.18,-1.30101 c 10.62,10.78301 20.45,20.52101 25.27,25.22601 0.08,0.073 0.16,0.151 0.23,0.222 l -0.25,-0.133 -23.76,-12.475 -6.28,-17.72001 c 1.09,1.122 2.19,2.239 3.27,3.345 0.18,-0.173 0.43,-0.274 0.69,-0.228 l 6.17,1.117 8.31,1.506 c -1.96,-3.582 -4.12,-7.403 -6.44,-11.396 l -14.46,-1.939 -5.65,-0.751 c 2.06,2.13 4.15,4.285 6.24,6.429 -0.22,0.211 -0.31,0.53 -0.2,0.83 l 6.28,17.72301 -19.15,-10.061 c 0.04,-0.162 0.05,-0.327 0,-0.486 l -10.22,-28.47301 c 2.5,1.147 4.96,2.436 7.37,3.85 2.61,2.79 5.4,5.719 8.26,8.703 0.17,-0.162 0.39,-0.254 0.65,-0.224 l 4.09,0.549 15.78,2.111 c -2.7,-4.599 -5.62,-9.406 -8.72,-14.318 l -24.5,-1.614 -0.83,-0.055 c -0.43,-0.029 -0.77,-0.405 -0.73,-0.84 0.01,-0.214 0.11,-0.401 0.26,-0.536 0.15,-0.138 0.36,-0.219 0.58,-0.205 l 24.16,1.592 c -2.95,-4.615 -6.06,-9.309 -9.33,-13.999 l -26.75,-1.058 -0.55,-0.021 c -0.44,-0.019 -0.78,-0.387 -0.76,-0.825 0.01,-0.265 0.17,-0.489 0.38,-0.624 0.14,-0.09 0.29,-0.149 0.45,-0.138 l 26.09,1.035 c -4.01,-5.699 -8.24,-11.38 -12.65,-16.887 l -19.95,-1.603 -0.14,-0.011 c -0.43,-0.035 -0.76,-0.417 -0.72,-0.855 0.03,-0.397 0.35,-0.686 0.74,-0.716 0.04,0 0.07,-0.014 0.11,-0.011 l 18.59,1.495 c -4.63,-5.688 -9.45,-11.171 -14.43,-16.284 -0.02,-0.019 -0.02,-0.041 -0.03,-0.057 -0.26,-0.316 -0.25,-0.779 0.05,-1.065 0.31,-0.308 0.81,-0.3 1.12,0.011 0.03,0.035 0.06,0.067 0.09,0.1 4.95,5.091 9.75,10.547 14.36,16.203 l 1.52,-19.678 v -0.002 c 0.04,-0.436 0.42,-0.768 0.85,-0.73 0.44,0.032 0.77,0.413 0.73,0.851 v 0.017 l -1.65,21.343 c 4.29,5.358 8.41,10.877 12.32,16.419 l 1.51,-33.642 c 0.01,-0.124 0.04,-0.235 0.1,-0.338 0.14,-0.268 0.42,-0.446 0.73,-0.419 0.43,0.019 0.78,0.392 0.75,0.827 l -0.02,0.411 -1.57,35.292 c 3.16,4.542 6.18,9.087 9.04,13.559 l 3.81,-37.957 c 0.02,-0.228 0.14,-0.417 0.3,-0.544 0.16,-0.119 0.36,-0.184 0.57,-0.165 0.43,0.043 0.75,0.43 0.71,0.865 l -0.09,0.871 -3.92,39.093 c 3.04,4.788 5.88,9.479 8.53,13.975 l 4.02,-24.541 c 0.06,-0.373 0.37,-0.63 0.74,-0.649 -0.02,-0.314 -0.04,-0.625 -0.05,-0.936 l 5.56,7.898 10.28,14.589 c -0.47,7.414 -0.7,14.265 -0.78,20.27201 l -2.74,-4.67401 -8.49,-14.525 c -0.2,-0.346 -0.62,-0.467 -0.98,-0.319 -1.22,-6.37 -2.04,-12.407 -2.51,-18.125 l -3.8,23.16 c 2.25,3.863 4.34,7.562 6.25,11.044 l 1.32,-6.797 c 0.06,-0.316 0.3,-0.551 0.6,-0.619 -0.48,-2.02 -0.92,-4.01 -1.33,-5.97 l 9.63,16.45801 2.02,3.458 c -0.04,4.961 0.02,9.241 0.1,12.658 0.02,0.706 0.04,1.385 0.06,2.012 0.03,1.052 0.07,1.984 0.1,2.812 0,0.051 0.01,0.105 0.01,0.159 0.22,0.463 0.42,0.887 0.6,1.266 0.04,0.075 0.07,0.146 0.1,0.216 0.17,0.346 0.31,0.66 0.44,0.927 l 0.52,-0.722 c -0.04,-0.905 -0.09,-2.06 -0.14,-3.466 -0.12,-3.734 -0.23,-9.154 -0.18,-15.814 l 9.81,-10.30601 0.5,-0.53 0.45,-0.468 0.29,-0.303 c 0.24,-0.256 0.27,-0.63 0.11,-0.922 -0.04,-0.07 -0.08,-0.14 -0.14,-0.2 -0.04,-0.035 -0.09,-0.054 -0.14,-0.083 -0.04,-0.03 -0.08,-0.065 -0.14,-0.084 -0.28,-0.106 -0.62,-0.041 -0.84,0.197 l -9.87,10.36901 c 0.09,-6.15901 0.32,-13.25101 0.82,-20.97801 l 18.64,-15.338 c -1.57,5.083 -3.28,10.479 -5.01,15.876 -1.08,3.352 -2.16,6.705 -3.24,9.979 0.29,0.097 0.52,0.36 0.55,0.681 l 1.29,13.73801 9.24,-12.78301 -3.67,-21.716 -0.21,-1.201 c -0.07,-0.432 0.22,-0.841 0.65,-0.916 0.16,-0.025 0.31,0.013 0.45,0.073 0.23,0.105 0.42,0.305 0.47,0.578 l 3.62,21.379 8.37,-11.575 -4.19,-27.407 -0.15,-1.031 c -0.07,-0.432 0.23,-0.838 0.66,-0.903 0.18,-0.027 0.35,0.019 0.5,0.1 0.21,0.114 0.37,0.311 0.4,0.565 l 4.11,26.846 11.28,-15.609 -4.64,-28.886 -0.11,-0.714 c -0.07,-0.43 0.22,-0.838 0.65,-0.908 0.24,-0.041 0.46,0.035 0.62,0.175 0.15,0.119 0.26,0.284 0.29,0.482 l 4.5,28.031 13.68,-18.909 -3.18,-22.441 -0.04,-0.243 c -0.06,-0.433 0.24,-0.836 0.68,-0.895 0.36,-0.057 0.7,0.165 0.83,0.495 0.02,0.056 0.06,0.113 0.06,0.178 l 2.98,21.054 13.68,-18.918 c 0.01,-0.008 0.02,-0.014 0.03,-0.024 0.26,-0.328 0.73,-0.406 1.08,-0.154 0.36,0.256 0.43,0.751 0.18,1.108 l -0.05,0.057 -13.71,18.972 20.3,-2.572 c 0.01,0 0.02,0.003 0.03,0.003 0.43,-0.035 0.81,0.26 0.86,0.684 0.06,0.436 -0.25,0.83 -0.69,0.887 l -0.04,0.005 -21.73,2.753 -13.5,18.666 33.52,-8.59 c 0.14,-0.037 0.27,-0.021 0.4,0.017 0.27,0.07 0.49,0.267 0.57,0.554 0.11,0.424 -0.15,0.857 -0.57,0.965 l -0.45,0.116 -34.92,8.947 -11.2,15.49 37.93,-8.863 c 0.22,-0.052 0.44,0.002 0.62,0.121 0.16,0.109 0.28,0.268 0.33,0.468 0.1,0.43 -0.17,0.855 -0.59,0.955 l -0.9,0.208 -38.81,9.073 -8.37,11.575 18.46,-3.001 c 0.37,-0.06 0.72,0.157 0.85,0.492 4.45,-1.747 9.16,-3.077 14.08,-3.812 0.05,-0.008 0.1,-0.019 0.16,-0.025 l -7.3,18.24001 c -5.88,1.495 -11.43,3.203 -16.56,4.985 l 2.82,-6.97 4.36,-10.78501 c 0.04,-0.087 0.05,-0.176 0.05,-0.268 l -1.31,0.214 -0.46,0.076 -16.47,2.676 -9.09,12.58301 2.84,-0.865 c 0.31,-0.092 0.63,0.014 0.82,0.243 1.65,-1.424 3.38,-2.855 5.21,-4.258 l -6.22,13.881 -0.22,0.481 c -0.68,0.303 -1.33,0.6 -1.98,0.898 -4.32,1.99 -7.87,3.793 -10.5,5.199 -0.32,0.17 -0.62,0.335 -0.91,0.495 -0.2,0.108 -0.39,0.208 -0.58,0.311 -0.18,0.1 -0.35,0.194 -0.52,0.289 l -0.54,0.746 -0.86,1.193 c 0.06,0.01 0.13,0.018 0.19,0.032 0.16,0.024 0.32,0.051 0.5,0.084 0.04,0.01 0.08,0.013 0.12,0.024 0.03,0 0.07,0.01 0.1,0.016 0.41,0.073 0.87,0.16 1.38,0.265 0.03,0.01 0.07,0.014 0.1,0.019 0.25,0.052 0.51,0.108 0.78,0.165 0.25,0.054 0.51,0.111 0.77,0.171 2.08,0.467 4.68,1.138 7.66,2.092 l 22.23,-4.401 3.23,-0.641 c -1.94,-0.165 -4.06,-0.252 -6.28,-0.273 0.01,-0.303 -0.16,-0.592 -0.46,-0.728 l -11.82,-5.388 c 4.05,-1.768 8.63,-3.618 13.64,-5.41 l 17.61,11.312 c -0.1,0.011 -0.19,0.024 -0.29,0.033 l -8.98,0.63 c 0.02,0.081 0.02,0.159 0,0.235 -0.05,0.316 -0.28,0.586 -0.62,0.651 l -25.24,4.997 c 3.6,1.279 7.61,2.936 11.81,5.077 l 28.38,-3.517 0.54,-0.068 c 0.44,-0.059 0.83,0.254 0.88,0.69 0.04,0.278 -0.09,0.532 -0.29,0.7 -0.11,0.095 -0.24,0.165 -0.39,0.184 l -26.66,3.306 c 4.32,2.355 8.8,5.221 13.22,8.709 l 18.4,-2.263 0.06,-0.01 c 0.43,-0.065 0.83,0.257 0.88,0.692 z m -61.48,6.146 h 1.59 l 0.63,-17.488 c -0.56,-0.827 -1.07,-1.576 -1.51,-2.244 z m 18.57,-34.681 -0.48,1.06 c 4.02,-1.749 8.55,-3.574 13.5,-5.348 l 2.43,-5.997 4.96,-12.27401 c -5.33,2.49 -10.25,5.529 -14.68,8.76801 0.16,0.221 0.22,0.516 0.1,0.786 z m -16.11,10.447 c -0.1,0.054 -0.18,0.103 -0.27,0.152 -0.38,0.211 -0.72,0.403 -1.03,0.581 0.34,-0.065 0.7,-0.135 1.08,-0.2 0.07,-0.011 0.13,-0.024 0.2,-0.035 0.44,-0.076 0.89,-0.154 1.36,-0.227 6.27,-0.993 15.75,-1.915 24.33,-2.015 l -11.54,-5.261 c -5.5,2.466 -9.9,4.715 -12.92,6.346 -0.43,0.232 -0.83,0.457 -1.21,0.659 z m 75,-38.45701 -8.98,14.32701 c 9.36,-1.382 19.21,-2.03601 29.28,-1.54101 -0.82,-5.402 -5.95,-11.318 -20.19,-13.116 -0.01,0.116 -0.05,0.227 -0.11,0.33 z m -25.41,17.55501 c 4.61,-1.125 9.41,-2.117 14.36,-2.909 l 9.5,-15.16001 c -3.66,-0.362 -7.87,-0.468 -12.72,-0.249 -1.36,0.065 -2.72,0.179 -4.06,0.338 0.02,0.127 0.01,0.257 -0.04,0.387 z m 0.93,1.392 19.87,12.819 c 0.18,0.11 0.28,0.281 0.33,0.467 6.28,-1.665 11.13,-3.523 14.79,-5.442 l -21.15,-10.618 c -4.76,0.757 -9.39,1.701 -13.84,2.774 z m 44.83,-4.572 c -9.71,-0.492 -19.22,0.1 -28.27,1.387 l 19.64,9.861 c 0.14,0.076 0.24,0.189 0.32,0.324 3.4,-1.987 5.59,-4.007 6.79,-5.918 0.96,-1.514 1.59,-3.504 1.59,-5.662 -0.03,0 -0.05,0.014 -0.07,0.01 z m -63.74,10.139 17.37,11.164 c 0.21,0.13 0.32,0.343 0.35,0.568 7.63,-0.982 14.11,-2.19 19.58,-3.548 l -20.51,-13.229 c -5.97,1.512 -11.6,3.239 -16.79,5.045 z m -51.16,-54.15501 3.5,4.972 11.92,16.928 c 0.2,-2.974 0.45,-6.029 0.74,-9.152 0.23,-2.471 0.49,-5.029 0.79,-7.654 l -16.84,-25.872 c -0.5,4.291 -0.81,8.839 -0.87,13.662 -0.03,2.209 0,4.472 0.08,6.797 0.26,-0.008 0.52,0.092 0.68,0.319 z m 16.96,-67.041 8.83,25.577 c 2.16,-7.673 4.72,-15.303 7.77,-22.66 l -3.58,-17.122 c -4.57,3.482 -9.43,8.333 -13.33,13.824 0.14,0.092 0.26,0.216 0.31,0.381 z m 17.69,0.362 c 3.05,-7.021 6.56,-13.759 10.62,-19.988 -1.87,-0.435 -3.87,-0.433 -5.89,0.146 -2.25,0.646 -5.06,2.149 -8.06,4.288 0.06,0.087 0.11,0.189 0.14,0.3 z m 7.3,54.499 c 1.98,-6.508 4.06,-13.216 5.94,-20.08 l -26.43,17.441 c -1.06,6.105 -1.93,12.148 -2.63,18.02 l 22.45,-15.289 c 0.21,-0.138 0.45,-0.157 0.67,-0.092 z m 10.96,-43.267 c 0.79,-5.397 1.27,-10.864 1.31,-16.379 l -19.2,8.319 c -3.07,7.386 -5.65,15.105 -7.82,22.938 l 25.2,-14.789 c 0.16,-0.095 0.34,-0.114 0.51,-0.089 z m 1.32,-18.107 c -0.01,-0.752 -0.03,-1.498 -0.05,-2.247 -0.15,-4.899 -3.24,-8.8 -7.38,-10.396 -0.02,0.055 -0.03,0.114 -0.06,0.168 -4.13,6.327 -7.72,13.2 -10.82,20.402 z m -37.18,95.903 18.42,-15.152 c 0.22,-0.175 0.49,-0.208 0.74,-0.132 1.14,-3.728 2.2,-7.257 3.12,-10.453 0.65,-2.252 1.33,-4.531 2.03,-6.835 l -22.76,15.506 c -0.67,5.908 -1.17,11.629 -1.55,17.066 z m -10.84,-67.455 14.1,27.456 c 1.28,-6.916 2.84,-14.013 4.74,-21.105 l -9.4,-27.215 c -0.64,0.97 -1.26,1.955 -1.83,2.955 -2.74,4.767 -5.6,10.58 -8.05,17.525 0.18,0.065 0.35,0.195 0.44,0.384 z m 11.03,47.737 c 0.68,-5.651 1.54,-11.594 2.61,-17.709 l -14.7,-28.616 c -2.04,6.11 -3.74,13.059 -4.79,20.918 0.22,0.027 0.43,0.141 0.56,0.344 z m 31.16,-36.811 c 1.7,-6.37 3.19,-12.872 4.24,-19.48 l -26.04,15.281 c -1.9,7.105 -3.46,14.292 -4.75,21.403 l 25.91,-17.107 c 0.2,-0.127 0.43,-0.151 0.64,-0.097 z m -115.49,44.124 c -0.03,-0.065 -0.04,-0.135 -0.05,-0.2 -5.67,1.017 -10.95,3.648 -14.08,7.852 l 23.55,12.369 z m 32.9,32.345 -10.12,-28.165 c -0.06,-0.197 -0.05,-0.4 0.03,-0.578 -3.79,-1.617 -7.67,-2.888 -11.62,-3.702 -3.08,-0.635 -6.4,-0.743 -9.64,-0.338 l 10.2,21.681 z m 0.29,19.44501 20.15,-6.916 -20.24,-10.626 -28.57,9.587 c 9.23,3.569 18.89,6.357 28.16,8.528 0.06,-0.257 0.23,-0.479 0.5,-0.573 z m -48.14,-42.78101 c -0.02,-0.008 -0.04,-0.027 -0.06,-0.04 -0.83,1.419 -1.45,2.993 -1.78,4.723 -0.75,3.993 -0.49,8.992 1.39,13.781 0.03,-0.014 0.07,-0.041 0.11,-0.049 l 24.21,-5.878 z m 46.11,24.21401 -28.03,9.412 c -0.23,0.076 -0.39,0.254 -0.47,0.462 -1.57,-0.627 -3.12,-1.278 -4.66,-1.952 -6.47,-2.844 -10.5,-7.356 -12.77,-12.21501 l 25.81,-6.264 z"
       fill="#378e66"
       id="path1369" />
    <path
       d="m 1211.8478,1147.48 c 0,-0.441 0.35,-0.792 0.8,-0.792 h 144.71 c 0.44,0 0.8,0.351 0.8,0.792 0,0.438 -0.36,0.792 -0.8,0.792 h -144.71 c -0.45,0 -0.8,-0.354 -0.8,-0.792 z m 126.67,66.835 h -52.32 v -54.355 h 35.96 z m -53.91,0 h -52.32 l 16.35,-54.355 h 35.97 z m 72.75,-55.942 h -144.71 c -0.45,0 -0.8,0.354 -0.8,0.795 0,0.435 0.35,0.792 0.8,0.792 h 34.34 l -31.76,105.555 c -0.13,0.417 0.11,0.86 0.53,0.987 0.08,0.022 0.15,0.033 0.23,0.033 0.34,0 0.66,-0.222 0.76,-0.565 l 15.06,-50.067 h 52.8 v 49.84 c 0,0.438 0.36,0.792 0.79,0.792 0.44,0 0.8,-0.354 0.8,-0.792 v -49.84 h 52.8 l 15.06,50.067 c 0.1,0.343 0.42,0.565 0.76,0.565 0.08,0 0.15,-0.011 0.23,-0.033 0.42,-0.127 0.66,-0.57 0.53,-0.987 l -31.76,-105.555 h 33.54 c 0.44,0 0.8,-0.357 0.8,-0.792 0,-0.441 -0.36,-0.795 -0.8,-0.795 z"
       fill="#25201f"
       id="path1371" />
    <g
       style="fill:none"
       id="g1787"
       transform="translate(-109.40507,917.08213)">
      <path
         d="m 241.231,340.732 c 0,0.243 -0.01,0.484 -0.016,0.727 -0.09,3.733 -0.234,7.555 -0.465,11.4 -0.048,0.737 -0.096,1.471 -0.144,2.208 -0.195,3.06 -0.458,6.142 -0.762,9.192 -0.202,2.006 -0.423,4.005 -0.683,5.982 -0.538,4.358 -1.198,8.632 -2.009,12.733 -0.041,0.256 -0.093,0.522 -0.147,0.762 -0.817,4.143 -1.782,8.1 -2.9,11.785 -0.227,0.775 -0.471,1.547 -0.727,2.303 -1.179,3.586 -2.512,6.876 -4.005,9.776 -1.256,2.435 -2.634,4.595 -4.133,6.446 -0.625,0.763 -1.263,1.458 -1.923,2.109 -16.552,16.174 -72.709,13.767 -94.317,-1.817 -1.179,-0.855 -2.262,-1.743 -3.226,-2.672 0,0 -0.234,-1.4 -0.638,-3.899 -0.403,-2.41 -0.951,-5.822 -1.614,-9.984 -0.113,-0.75 -0.238,-1.522 -0.356,-2.313 -0.519,-3.301 -1.089,-7.001 -1.692,-10.961 -0.035,-0.257 -0.077,-0.5 -0.118,-0.757 -0.571,-3.796 -1.167,-7.827 -1.763,-11.999 -0.291,-2.005 -0.589,-4.043 -0.874,-6.097 -0.465,-3.297 -0.923,-6.648 -1.365,-10.006 -0.1,-0.763 -0.202,-1.535 -0.298,-2.304 -0.487,-3.649 -0.939,-7.299 -1.375,-10.881 -0.029,-0.25 -0.054,-0.506 -0.083,-0.756 -0.487,-4.085 -0.936,-8.077 -1.317,-11.893 -0.208,-2.083 -0.404,-4.108 -0.577,-6.065 -0.314,-3.544 -0.564,-6.876 -0.714,-9.901 -0.048,-0.778 -0.083,-1.525 -0.119,-2.262 -0.179,-4.344 -0.153,-7.946 0.132,-10.519 v -0.012 c 0.029,-0.231 0.064,-0.459 0.118,-0.683 1.859,-7.866 20.541,-12.419 42.947,-14.091 3.531,-0.263 7.155,-0.458 10.81,-0.583 0.584,-0.02 1.157,-0.042 1.74,-0.055 4.06,-0.106 8.158,-0.131 12.224,-0.077 28.4,0.394 55.4,4.816 57.563,12.49 0.141,0.493 0.272,1.047 0.41,1.643 0.048,0.231 0.096,0.465 0.138,0.708 0.577,2.775 1.07,6.537 1.458,11.013 0.064,0.714 0.118,1.429 0.173,2.165 0.208,2.762 0.375,5.752 0.5,8.93 0.07,1.874 0.131,3.823 0.16,5.822 0.077,3.954 0.077,8.119 -0.013,12.393 z"
         fill="#f5b334"
         id="path1629" />
      <path
         d="m 241.242,328.339 c -27.221,5.466 -51.03,7.222 -70.369,7.222 -11.141,0 -20.798,-0.583 -28.769,-1.365 -11.83,-1.173 -21.185,-2.887 -27.824,-4.38 -0.208,-2.083 -0.404,-4.108 -0.577,-6.065 18.625,4.38 64.148,11.643 127.379,-1.234 0.071,1.874 0.132,3.822 0.16,5.822 z"
         fill="#742d7e"
         id="path1631" />
      <path
         d="m 239.844,364.259 c -0.202,2.006 -0.423,4.005 -0.683,5.982 -25.645,4.886 -48.156,6.482 -66.583,6.482 -11.146,0 -20.797,-0.583 -28.765,-1.375 -9.824,-0.971 -17.94,-2.316 -24.22,-3.595 -0.291,-2.005 -0.589,-4.043 -0.874,-6.097 20.047,4.3 62.879,9.997 121.125,-1.397 z"
         fill="#742d7e"
         id="path1633" />
      <path
         d="m 229.373,407.6 c -1.256,2.435 -2.633,4.594 -4.133,6.446 -19.231,2.839 -36.366,3.836 -50.96,3.836 -11.14,0 -20.804,-0.59 -28.775,-1.365 -6.187,-0.619 -11.705,-1.381 -16.504,-2.179 -1.179,-0.856 -2.262,-1.743 -3.227,-2.672 0,0 -0.234,-1.4 -0.637,-3.9 19.958,3.775 56.246,7.591 104.236,-0.166 z"
         fill="#742d7e"
         id="path1635" />
      <g
         filter="url(#filter0_d)"
         id="g1639"
         style="filter:url(#filter0_d-9)">
        <path
           d="m 241.231,340.731 c 0,0.244 -0.01,0.484 -0.016,0.728 -25.924,5.12 -48.852,6.892 -68.156,6.892 -26.494,0 -46.167,-3.326 -57.378,-5.886 -0.029,-0.25 -0.055,-0.506 -0.083,-0.756 19.166,4.405 63.898,11.239 125.633,-0.978 z"
           fill="#742d7e"
           id="path1637" />
      </g>
      <g
         filter="url(#filter1_d)"
         id="g1643">
        <path
           d="m 237.152,382.974 c -0.042,0.256 -0.093,0.522 -0.147,0.762 -23.511,4.268 -44.418,5.774 -62.248,5.774 -23.53,0 -41.665,-2.621 -53.283,-5.002 -0.035,-0.256 -0.077,-0.499 -0.119,-0.756 20.285,4.191 60.992,9.215 115.797,-0.778 z"
           fill="#742d7e"
           id="path1641" />
      </g>
      <g
         filter="url(#filter2_d)"
         id="g1647">
        <path
           d="m 240.583,313.587 c -26.25,5.127 -49.245,6.786 -68.005,6.786 -11.076,0 -20.672,-0.583 -28.599,-1.361 -13.819,-1.365 -24.344,-3.512 -30.989,-5.162 -0.048,-0.779 -0.084,-1.525 -0.119,-2.262 17.106,4.268 62.934,12.512 127.539,-0.167 0.065,0.715 0.119,1.429 0.173,2.166 z"
           fill="#742d7e"
           id="path1645" />
      </g>
      <path
         d="m 240.749,352.859 c -0.048,0.737 -0.096,1.471 -0.144,2.208 -25.558,4.876 -47.977,6.465 -66.32,6.465 -11.086,0 -20.679,-0.573 -28.596,-1.358 -12.111,-1.202 -21.685,-2.993 -28.336,-4.524 -0.1,-0.763 -0.202,-1.535 -0.298,-2.304 18.654,4.335 62.69,11.24 123.694,-0.487 z"
         fill="#742d7e"
         id="path1649" />
      <path
         d="m 234.107,395.521 c -0.227,0.775 -0.471,1.547 -0.727,2.303 -21.874,3.643 -41.213,4.877 -57.394,4.877 -11.076,0 -20.678,-0.577 -28.599,-1.368 -9.615,-0.955 -17.635,-2.275 -23.863,-3.55 -0.113,-0.75 -0.237,-1.522 -0.356,-2.314 19.625,4.053 58.537,8.917 110.939,0.052 z"
         fill="#742d7e"
         id="path1651" />
      <ellipse
         cx="176.14799"
         cy="300"
         rx="57.5"
         ry="11"
         fill="#634747"
         id="ellipse1653" />
      <path
         d="m 257.983,154.972 -50.835,137.369 8.299,-0.076 44.69,-115.24"
         fill="#27ad97"
         id="path1655" />
      <path
         fill-rule="evenodd"
         clip-rule="evenodd"
         d="m 81.0521,116.694 -0.6537,11.079 76.7396,170.845 9.455,0.564 z"
         fill="#27ad97"
         id="path1657" />
      <path
         d="m 231.825,158.416 -36.567,141.833 8.241,-0.923 32.716,-119.193"
         fill="#62c2a8"
         id="path1659" />
      <path
         fill-rule="evenodd"
         clip-rule="evenodd"
         d="m 223.026,64.0483 c 0.673,7.4718 9.222,15.1134 11.766,22.5435 -0.25,-0.0608 -0.478,-0.0961 -0.693,-0.1377 61.159,42.2639 114.073,47.0799 127.575,47.5859 -3.851,-2.922 -4.995,-8.558 -6.097,-14.629 -10.09,-2.926 -19.868,-0.122 -29.75,-4.592 9.347,-4.953 23.185,-4.662 29.465,3.047 -10.83,-13.29 -4.717,-32.8826 -26.863,-38.6787 -4.043,-1.0605 -36.647,2.3101 -37.958,5.4949 4.252,-10.3105 36.481,-11.6979 45.859,-7.0969 -3.877,-9.4999 -32.95,-39.9606 -44.776,-35.7761 -8.577,3.0406 -8.721,3.9409 -12.698,4.9887 -0.394,0.0833 -0.829,0.2146 -1.227,0.3332 -7.125,2.2332 -12.659,7.0905 -18.349,11.5377 -1.448,-8.228 6.482,-14.1106 12.098,-18.2469 1.231,-0.9228 2.583,-1.7847 4.025,-2.5665 -6.21,-0.8811 -12.791,-1.0893 -20.186,-0.8683 -9.346,0.2852 -17.933,4.0788 -24.024,10.5253 -1.63,1.7365 -3.53,4.0402 -5.084,6.5714 -1.958,3.172 -3.374,6.7028 -3.083,9.9645 z"
         fill="#27ad97"
         id="path1661" />
      <path
         fill-rule="evenodd"
         clip-rule="evenodd"
         d="m 234.099,86.4539 c 61.158,42.2641 114.073,47.0801 127.574,47.5861 l 0.221,0.157 c 1.401,1.006 -11.361,21.281 -17.205,19.577 -14.905,-4.31 -23.175,-20.388 -36.51,-24.232 6.321,15.892 22.957,30.137 39.563,31.12 -13.998,12.912 -27.734,13.339 -41.739,-2.589 -3.678,-4.203 -19.246,-36.058 -25.593,-32.924 -12.708,6.261 26.564,49.246 37.89,53.728 -20.262,4.226 -27.67,10.423 -41.219,-10.499 -8.901,-13.704 -19.333,-42.242 -18.427,-43.498 -5.347,5.302 11.211,52.395 22.041,62.337 -10.948,-0.102 -23.726,-3.441 -35.11,-9 -2.288,-17.276 -4.329,-40.723 -6.152,-53.831 -0.999,0.846 -2.643,2.749 -4.774,6.03 -5.549,7.03 -1.656,28.721 4.178,44.123 -4.709,-2.836 -9.032,-6.056 -12.681,-9.609 -17.302,-16.735 -10.615,-21.585 -6.107,-42.575 -9.218,-3.005 -9.051,20.301 -9.147,25.847 -18.997,-26.709 -13.627,-69.0757 23.197,-61.7481 z"
         fill="#27ad97"
         id="path1663" />
      <path
         fill-rule="evenodd"
         clip-rule="evenodd"
         d="m 185.151,137.821 c -7.446,0.922 -14.79,9.727 -22.124,12.518 0.055,-0.25 0.077,-0.481 0.119,-0.702 -40.166,62.581 -43.184,115.643 -43.232,129.145 2.788,-3.941 8.379,-5.28 14.409,-6.585 2.579,-10.185 -0.542,-19.868 3.585,-29.893 5.264,9.167 5.437,23.018 -2.054,29.554 12.909,-11.269 32.704,-5.831 37.737,-28.16 0.923,-4.079 -3.55,-36.558 -6.77,-37.766 10.442,3.906 12.919,36.074 8.644,45.609 9.359,-4.2 38.808,-34.293 34.229,-45.971 -3.329,-8.478 -4.233,-8.59 -5.412,-12.531 -0.102,-0.388 -0.243,-0.817 -0.381,-1.214 -2.47,-7.049 -7.507,-12.413 -12.146,-17.959 8.17,-1.721 14.325,6.011 18.641,11.486 0.964,1.199 1.871,2.519 2.704,3.932 0.666,-6.235 0.66,-12.829 0.179,-20.205 -0.596,-9.34 -4.681,-17.798 -11.326,-23.662 -1.791,-1.566 -4.156,-3.393 -6.738,-4.863 -3.233,-1.839 -6.818,-3.137 -10.064,-2.733 z"
         fill="#148e77"
         id="path1665" />
      <path
         fill-rule="evenodd"
         clip-rule="evenodd"
         d="m 163.146,149.637 c -40.165,62.581 -43.183,115.643 -43.231,129.145 l -0.154,0.227 c -0.952,1.439 -21.6434,-10.637 -20.1375,-16.526 3.7995,-15.049 19.5825,-23.87 22.9765,-37.33 -15.665,6.86 -29.3397,23.973 -29.7626,40.605 -13.3736,-13.553 -14.2611,-27.27 1.1791,-41.813 4.0723,-3.816 35.3785,-20.454 32.0205,-26.693 -6.68,-12.492 -48.2938,28.218 -52.3949,39.695 -4.9118,-20.108 -11.3487,-27.305 9.1026,-41.563 13.38,-9.359 41.5463,-20.752 42.8283,-19.887 -5.479,-5.168 -51.9662,12.976 -61.5398,24.142 1.7846,-2.082 1.0894,-14.101 1.8455,-17.314 0.958,-4.101 2.4767,-7.52 4.0595,-11.358 3.9249,-9.542 7.4846,-18.811 14.5207,-26.603 16.1351,-17.866 21.2041,-11.339 42.3351,-7.549 2.685,-9.321 -20.596,-8.363 -26.139,-8.273 26.042,-19.89 68.56,-15.956 62.491,21.095 z"
         fill="#148e77"
         id="path1667" />
      <path
         fill-rule="evenodd"
         clip-rule="evenodd"
         d="m 206.752,91.7887 c -3.067,-1.0189 -6.239,-1.6437 -8.799,-1.9897 -9.528,-1.2976 -19.269,0.9836 -27.192,6.4657 -6.258,4.3283 -11.551,8.5063 -16.059,12.9603 1.734,-0.263 3.454,-0.423 5.114,-0.458 7.526,-0.208 18.196,-0.478 22.745,6.796 -7.805,0.006 -15.776,-0.391 -23.219,2.226 -0.417,0.145 -0.859,0.305 -1.24,0.478 -4.024,1.611 -4.774,1.006 -13.986,3.88 -3.989,6.196 -7.167,13.216 -9.955,21.723 4.745,-1.704 49.919,-20.448 51.21,-7.875 -14.492,2.438 -36.128,1.387 -47.541,12.492 -6.325,6.145 -8.67,46.529 -1.65,44.212 5.097,-1.685 42.059,-22.69 44.536,-17.369 -9.997,5.261 -38.743,12.262 -41.999,24.912 -1.781,6.876 2.083,13.501 5.925,19.692 -0.199,-9.798 11.025,-18.456 22.2,-20.295 -5.043,9.471 -15.068,13.252 -21.361,21.676 3.339,5.37 6.328,10.441 5.191,15.049 10.794,-8.616 51.12,-44.568 72.097,-114.608 -0.145,0.167 -0.311,0.333 -0.478,0.529 -3.095,-7.306 -1.374,-18.436 -6.036,-24.6393 -2.038,-2.7139 -5.681,-4.5882 -9.503,-5.857 z"
         fill="#62c2a8"
         id="path1669" />
      <path
         fill-rule="evenodd"
         clip-rule="evenodd"
         d="m 222.769,121.756 c -20.977,70.04 -61.303,105.992 -72.097,114.608 l -0.064,0.266 c -0.458,1.63 24.248,9.573 27.881,4.697 9.295,-12.422 4.893,-29.929 13.217,-41.031 5.882,16.168 2.095,37.346 -10.919,48.227 2.351,-1.964 13.344,-0.154 17.071,-1.612 4.892,-1.928 8.638,-4.69 11.473,-9.202 4.781,-7.59 -2.387,-30.784 4.656,-34.686 16.504,-9.132 6.728,36.865 3.844,41.697 4.121,-6.886 28.228,-7.001 35.2,-11.435 11.374,-7.257 18.458,-21.297 24.376,-33.377 -10.192,-14.78 -24.892,-34.209 -32.537,-45.478 1.423,0.042 4.101,0.523 8.151,1.772 9.497,2.067 21.438,21.253 27.388,36.754 1.91,-5.066 3.22,-10.199 3.755,-15.175 l 0.007,-0.048 c 2.329,-21.226 2.246,-39.544 -14.313,-55.045 -9.102,-8.516 -40.755,-22.072 -47.089,-0.932 z"
         fill="#62c2a8"
         id="path1671" />
      <path
         fill-rule="evenodd"
         clip-rule="evenodd"
         d="M 48.4453,74.0544 C 52.4439,75.8294 80.6489,85.4895 75.8076,92.218 76.3683,91.449 52.5753,77.9472 49.3841,77.8223 37.6734,77.3769 31.7683,88.4789 26.1421,96.8414 c 3.1175,2.3453 31.8223,8.3886 30.6977,12.0026 0.5832,-1.859 -25.4047,-7.424 -28.1858,-6.828 -6.1261,1.32 -9.5319,4.767 -13.1877,9.654 -6.63236,8.846 -8.83032,24.318 -23.4663,21.745 7.36605,1.298 8.407357,9.186 19.0768,7.876 5.5782,-0.679 11.7235,-4.143 16.9813,-6.203 24.5076,-9.59 15.9336,13.264 -2.1723,8.929 15.0204,3.602 31.9473,29.516 45.731,9.103 5.7864,-8.526 12.5565,-26.824 11.967,-27.721 3.4764,3.867 -7.2699,34.078 -14.306,40.002 9.3237,-7.859 22.88,-4.454 33.1612,-11.531 12.182,-8.382 9.045,-14.002 6.229,-27.68 5.995,-1.406 5.883,14.066 5.953,17.757 12.339,-16.526 8.843,-45.0262 -15.0812,-42.514 l -0.4517,0.057 c 1.6499,-4.7736 7.2059,-9.3041 7.6379,-14.2255 0.193,-2.1499 -0.73,-4.5945 -1.999,-6.8213 -1.012,-1.7815 -2.246,-3.4347 -3.31,-4.6907 -6.4012,-7.5551 -17.1603,-9.8524 -26.6378,-9.4839 -5.1457,0.2018 -23.6842,8.9648 -26.3339,7.7858 z"
         fill="#27ad97"
         id="path1673" />
      <path
         fill-rule="evenodd"
         clip-rule="evenodd"
         d="m 96.8606,26.9935 c -2.3165,1.5412 -4.4408,3.3739 -6.0364,4.9278 -5.9499,5.7993 -9.58,13.6556 -10.0574,21.9668 -0.3877,6.5651 -0.3557,12.3932 0.2755,17.84 0.7433,-1.3232 1.554,-2.5792 2.4094,-3.7327 3.8641,-5.2385 9.3558,-12.643 16.7253,-11.8869 -4.1495,5.3315 -8.6511,10.5477 -10.8299,17.007 -0.1249,0.362 -0.2563,0.7497 -0.3332,1.0989 -1.0477,3.5982 -1.8583,3.7808 -4.806,11.5922 2.1018,6.0172 5.1937,11.9158 9.5031,18.3394 1.3585,-4.142 12.624,-44.8783 21.88,-39.0726 -10.378,19.1536 -32.2578,47.4296 -0.291,58.1566 -3.912,-8.03 -1.868,-36.7217 7.526,-41.1273 -2.06,18.4003 -15.254,38.0673 5.674,48.0863 1.388,-4.864 6.537,-42.2229 11.397,-41.0246 -1.74,9.6121 -12.265,32.9186 -5.376,41.8706 3.726,4.863 10.297,5.757 16.561,6.44 -6.786,-5.082 -6.709,-17.334 -2.018,-25.924 3.764,8.471 1.012,17.318 3.396,26.074 5.434,0.59 10.477,1.25 13.008,4.476 -0.125,-11.935 -3.149,-58.534 -39.678,-110.0771 0.032,0.189 0.061,0.3909 0.102,0.6055 -6.619,-1.7846 -13.284,-8.8751 -19.986,-8.9937 -2.926,-0.0544 -6.1458,1.429 -9.0454,3.3578 z"
         fill="#88ceba"
         id="path1675" />
      <path
         fill-rule="evenodd"
         clip-rule="evenodd"
         d="m 125.79,32.024 c 36.529,51.5431 39.553,98.142 39.678,110.077 l 0.148,0.189 c 0.865,1.173 19.422,-11.422 18.029,-16.494 -3.512,-12.941 -17.773,-19.256 -20.91,-30.8354 14.152,4.5913 26.555,18.4484 27.036,33.1044 11.957,-13.233 12.672,-25.437 -1.304,-36.8371 -3.698,-2.999 -31.976,-14.7738 -29,-20.6019 5.947,-11.6658 43.655,20.4193 47.423,30.176 4.293,-18.2282 10.044,-25.1937 -8.449,-35.8727 -12.105,-7.0232 -37.523,-14.4598 -38.682,-13.5723 4.905,-5.0719 46.862,6.6131 55.545,15.5844 0.176,-9.7018 -2.509,-20.8165 -7.235,-30.56 -15.492,-0.9291 -36.539,-1.2463 -48.275,-2.0313 0.785,-0.9452 2.531,-2.5184 5.536,-4.6138 6.466,-5.37 25.876,-3.297 39.596,0.8939 C 202.5,26.6412 199.697,23.011 196.595,19.9993 181.959,5.71892 177.429,11.9668 158.435,17.2951 155.959,9.30742 176.923,7.97455 181.908,7.5324 158.352,-7.60982 120.093,-0.15726 125.79,32.024 Z"
         fill="#88ceba"
         id="path1677" />
      <path
         fill-rule="evenodd"
         clip-rule="evenodd"
         d="m 91.2227,229.661 55.2313,71.145 11.858,-3.527 -63.5585,-72.155"
         fill="#88ceba"
         id="path1679" />
      <path
         fill-rule="evenodd"
         clip-rule="evenodd"
         d="m 134.406,254.851 c -0.558,-1.631 2.467,-10 2.864,-12.54 0.763,-4.89 1.788,-9.09 1.497,-14.085 -0.548,-9.417 -3.919,-19.824 -10.833,-26.549 -9.728,-9.455 -23.851,-12.002 -34.0365,-0.971 l -0.3589,0.375 c -2.0762,-5.475 -0.4934,-13.642 -3.7615,-18.34 -1.4226,-2.06 -4.0563,-3.543 -6.847,-4.591 -2.2268,-0.833 -4.5497,-1.387 -6.4241,-1.721 -6.9911,-1.223 -14.2483,0.186 -20.243,4.002 -4.7355,3.012 -8.7598,5.947 -12.2073,9.113 1.2912,-0.154 2.56,-0.218 3.7807,-0.196 5.5622,0.055 13.4313,0.16 16.5873,5.649 -5.7577,-0.215 -11.621,-0.731 -17.1832,0.983 -0.314,0.1 -0.6472,0.202 -0.9388,0.327 -3.0086,1.07 -3.5436,0.596 -10.4259,2.458 -3.1207,4.46 -5.6519,9.548 -7.9492,15.751 3.5437,-1.131 37.3846,-13.672 37.9933,-4.364 -0.0897,-1.291 -30.2171,4.78 -32.838,5.995 -14.6584,6.805 -5.293,23.764 -6.3984,35.497 6.4657,-1.964 12.454,-5.674 18.6282,-8.375 3.377,-1.465 7.1642,-3.602 10.82,-4.233 0.7978,-0.138 4.995,0.112 5.2321,-0.006 -7.5134,3.601 -28.9131,7.946 -31.675,17.186 -1.5123,5.018 1.1503,10.013 3.8096,14.697 0.1314,-7.238 8.6573,-13.31 16.9461,-14.348 -3.9826,6.841 -11.4896,9.353 -16.3661,15.383 2.3101,4.059 4.3702,7.882 3.3994,11.246 l -0.0544,0.195 c -0.3813,1.186 17.6125,7.751 20.4352,4.262 7.2027,-8.904 4.4536,-21.941 10.9129,-29.894 3.8801,12.095 0.487,27.609 -9.4262,35.264 15.1358,1.679 23.9469,-3.922 24.8632,-19.305 0.2339,-4.059 -5.7448,-29.531 -0.2147,-30.383 11.0507,-1.708 7.6641,40.451 2.7875,47.932 5.4309,-2.256 11.4448,-2.72 16.6967,-5.171 4.822,-2.246 8.692,-6.216 12.729,-9.574 6.501,-5.418 11.531,-8.728 15.777,-16.619 -7.084,-11.192 -17.385,-25.937 -22.707,-34.466 1.048,0.071 3.012,0.493 5.959,1.535 6.953,1.791 15.213,16.286 19.17,27.881 z"
         fill="#88ceba"
         id="path1681" />
    </g>
  </g>
  <rect
     x="1089.9128"
     y="57.000008"
     width="320"
     height="347"
     rx="9"
     fill="#1eb3fb"
     id="rect833" />
  <rect
     x="1113.9128"
     y="82.000008"
     width="273"
     height="156"
     rx="20"
     fill="url(#paint0_linear)"
     id="rect835"
     style="fill:url(#paint0_linear)" />
  <rect
     x="1113.9128"
     y="268"
     width="273"
     height="115"
     rx="20"
     fill="url(#paint1_linear)"
     id="rect837"
     style="fill:url(#paint1_linear)" />
  <line
     x1="1297.5619"
     y1="348"
     x2="1223.3918"
     y2="348"
     stroke="#48bdfd"
     stroke-width="6"
     id="line839" />
  <ellipse
     cx="1045.2098"
     cy="14.9282"
     rx="15.375"
     ry="14.9282"
     fill="#ebd5c9"
     id="ellipse841" />
  <ellipse
     cx="1045.2098"
     cy="14.9282"
     rx="15.375"
     ry="14.9282"
     fill="#ebd5c9"
     id="ellipse843" />
  <ellipse
     cx="1045.2098"
     cy="14.9282"
     rx="15.375"
     ry="14.9282"
     fill="url(#paint2_linear)"
     id="ellipse845"
     style="fill:url(#paint2_linear)" />
  <ellipse
     cx="938.33484"
     cy="117.969"
     rx="24.75"
     ry="24.0308"
     fill="#ebd5c9"
     id="ellipse847" />
  <ellipse
     cx="938.33484"
     cy="117.969"
     rx="24.75"
     ry="24.0308"
     fill="#ebd5c9"
     id="ellipse849" />
  <ellipse
     cx="938.33484"
     cy="117.969"
     rx="24.75"
     ry="24.0308"
     fill="url(#paint3_linear)"
     id="ellipse851"
     style="fill:url(#paint3_linear)" />
  <path
     fill-rule="evenodd"
     clip-rule="evenodd"
     d="m 766.29186,596.044 57.836,169.72001 -7.469,-0.21 -66.736,-169.72101 z"
     fill="#4b3361"
     id="path853" />
  <path
     fill-rule="evenodd"
     clip-rule="evenodd"
     d="m 697.72886,590.074 25.135,169.72001 -7.431,-0.21 -34.028,-169.71701 z"
     fill="#974351"
     id="path855" />
  <path
     fill-rule="evenodd"
     clip-rule="evenodd"
     d="m 581.58976,576.093 -53.0479,169.72001 7.4653,-0.21 61.9447,-169.72001 z"
     fill="#974351"
     id="path857" />
  <path
     fill-rule="evenodd"
     clip-rule="evenodd"
     d="m 616.73286,609.927 -33.4644,169.72001 7.4384,-0.21 42.361,-169.72101 z"
     fill="#4b3361"
     id="path859" />
  <path
     fill-rule="evenodd"
     clip-rule="evenodd"
     d="m 670.55886,367.493 c 14.576,8.878 29.151,17.756 43.727,26.635 6.971,11.095 13.943,22.194 20.914,33.289 1.393,9.374 -5.578,9.862 -4.186,19.236 -0.559,15.206 7.172,40.815 24.715,46.233 23.692,7.319 41.574,1.972 56.659,-4.434 4.055,13.684 8.113,27.368 12.168,41.055 -15.972,25.151 -31.944,50.306 -47.909,75.46 -13.569,2.465 -27.126,4.93 -40.691,7.398 -13.179,0.736 -26.361,1.48 -39.54,2.221 -16.478,-1.485 -32.956,-2.961 -49.433,-4.441 -24.842,-12.456 -49.684,-24.907 -74.5258,-37.358 -11.9136,-15.54 -23.8271,-31.072 -35.7407,-46.605 -6.3387,-19.485 -12.6775,-38.966 -19.0124,-58.443 3.5494,-13.075 7.0988,-26.143 10.6443,-39.21 12.0409,-10.115 24.0818,-20.225 36.1227,-30.332 35.3629,-10.235 70.7249,-20.466 106.0879,-30.704 z"
     fill="#e99c22"
     id="path861" />
  <path
     fill-rule="evenodd"
     clip-rule="evenodd"
     d="m 1120.3949,620.582 -31.169,154.86801 7.214,0.62 38.58,-155.69801 z"
     fill="#974351"
     id="path863" />
  <path
     fill-rule="evenodd"
     clip-rule="evenodd"
     d="m 1158.9419,624.85 23.557,145.03201 -7.839,0.831 -31.208,-150.44301 z"
     fill="#974351"
     id="path865" />
  <path
     fill-rule="evenodd"
     clip-rule="evenodd"
     d="m 719.23586,622.479 c -8.002,12.121 -15.903,24.306 -24.005,36.363 -1.805,2.686 -3.291,5.752 -0.602,7.875 3.546,2.791 7.662,4.914 11.879,6.601 6.416,2.57 13.472,5.26 19.85,7.92 10.81,4.513 20.54,9.54001 31.558,13.53801 10.417,3.772 11.856,-0.82 9.333,-3.795 -5.799,-6.85301 -13.256,-12.20001 -20.019,-18.15901 -6.312,-5.557 -9.364,-11.576 -9.333,-17.989 0.031,-7.06 2.037,-13.977 3.056,-20.965 -7.242,-3.795 -14.48,-7.59 -21.717,-11.389 z"
     fill="#4b3361"
     id="path867" />
  <path
     fill-rule="evenodd"
     clip-rule="evenodd"
     d="m 850.59086,708.27101 c 1.477,14.259 3.082,28.533 4.448,42.769 0.305,3.178 1.111,6.567 4.676,7.409 4.695,1.108 9.418,1.375 13.928,1.21 6.875,-0.252 14.34,-0.658 21.242,-0.812 11.69,-0.259 22.851,0.384 34.375,-0.432 10.887,-0.774 9.043,-5.53 5.05,-7.225 -9.182,-3.889 -18.715,-5.741 -28.086,-8.427 -8.743,-2.51 -15.155,-6.752 -19.341,-12.598 -4.598,-6.433 -7.519,-13.537 -11.281,-20.304 -8.337,-0.53 -16.678,-1.06 -25.011,-1.59 z"
     fill="#4b3361"
     id="path869" />
  <path
     fill-rule="evenodd"
     clip-rule="evenodd"
     d="m 721.56286,518.811 c 0,0 66.682,-33.128 89.29,-41.239 22.604,-8.116 46.531,4.268 42.585,25.402 -3.955,21.146 -29.638,59.36 -29.638,59.36 0,0 18.885,4.054 27.878,31.177 8.997,27.112 36.216,125.76201 36.216,125.76201 l -37.751,8.968 c 0,0 -37.971,-100.35501 -43.681,-113.38101 -5.706,-13.019 -16.026,-12.166 -16.026,-12.166 l -42.357,43.557 -34.02,-20.927 14.039,-23.701 -61.67,4.272 c 0,0 -48.237,-13.18 -53.122,-39.713 -4.872,-26.534 108.257,-47.371 108.257,-47.371 z"
     fill="#50bdfd"
     id="path871" />
  <path
     fill-rule="evenodd"
     clip-rule="evenodd"
     d="m 1039.5369,541.749 c 0,0 -49.03204,5.293 -43.82004,39.631 5.21204,34.325 59.69204,123.50301 65.37104,135.25101 5.69,11.753 2.141,46.319 -0.236,52.537 8.534,-5.989 9.009,-25.571 15.401,-34.1 6.393,-8.525 11.841,-7.837 11.841,-7.837 0,0 -5.683,-5.069 -6.864,-15.21 -1.188,-10.137 -10.193,-74.42201 -34.583,-114.06101 5.679,-0.458 12.793,-0.917 12.793,-0.917 0,0 -18.954,-31.564 -19.903,-55.294 z"
     fill="#f08b78"
     id="path873" />
  <path
     fill-rule="evenodd"
     clip-rule="evenodd"
     d="m 1134.9499,372.238 c 4.865,2.217 9.734,4.441 14.603,6.662 14.811,23.633 26.593,52.928 35.59,87.441 -9.437,7.545 -18.866,15.089 -28.295,22.637 -7.295,-38.913 -14.598,-77.826 -21.898,-116.74 z"
     fill="#313062"
     id="path875" />
  <path
     fill-rule="evenodd"
     clip-rule="evenodd"
     d="m 1052.8549,374.312 c 0,0 -19.579,4.701 -24.656,28.687 -5.074,23.986 -15.236,74.55 -15.236,74.55 l -16.97504,-17.723 -19.329,11.249 c 0,0 25.91504,57.039 42.59704,53.51 16.678,-3.528 29.004,-53.622 29.004,-53.622 0,0 9.19,5.41 16.933,7.063 7.732,1.642 19.823,26.808 21.023,39.034 1.211,12.23 -13.592,15.22 -13.592,15.22 l -56.987,13.695 c 0,0 -3.708,34.848 19.903,55.295 24.441,15.491 49.939,3.506 49.939,3.506 l 81.373,-136.436 c 0,0 -10.579,-50.568 -26.485,-79.686 -9.19,-34.338 -62.847,-43.039 -87.512,-14.342 z"
     fill="#304d89"
     id="path877" />
  <path
     fill-rule="evenodd"
     clip-rule="evenodd"
     d="m 628.09986,294.13 c 0,0 7.368,-2.724 8.846,-11.467 1.474,-8.754 -5.011,-13.631 -4.421,-20.511 0.586,-6.875 8.549,-14.762 -0.151,-26.811 -8.692,-12.038 -20.486,-6.019 -26.975,-6.166 -6.478,-0.139 -20.332,-10.039 -35.6636,1.146 -15.324,11.189 -16.2152,20.218 -13.4182,31.546 -7.9514,6.887 -10.162,17.208 -4.2708,24.948 5.9028,7.743 12.8279,10.756 13.1134,16.204 0.3009,5.441 3.8349,26.951 25.0582,19.064 21.227,-7.882 37.882,-27.953 37.882,-27.953 z"
     fill="#4b3361"
     id="path879" />
  <path
     fill-rule="evenodd"
     clip-rule="evenodd"
     d="m 579.59896,533.22 c 0,0 22.3609,3.092 39.1469,23.978 16.775,20.879 43.642,57.752 104.472,52.665 l -3.6,6.079 c 0,0 -48.31,7.116 -95.1,1.54 -46.7939,-5.579 -110.5555,-60.472 -131.89033,-116.037 -21.33097,-55.562 -0.0617,-118.198 61.79013,-127.824 -21.6512,59.548 -38.0787,132.667 25.1813,159.599 z"
     fill="#fabb33"
     id="path881" />
  <path
     fill-rule="evenodd"
     clip-rule="evenodd"
     d="m 1047.8429,322.245 2.975,24.253 c 0,0 -15.594,19.902 -6.011,36.685 9.595,16.791 29.402,8.544 40.266,13.834 10.872,5.283 30.837,12.902 44.101,4.509 13.268,-8.394 31.96,-16.63 26.524,-36.227 -5.432,-19.579 -35.474,-27.045 -37.708,-49.423 -2.238,-22.385 9.267,-57.353 -23.16,-70.725 -32.45,-13.361 -71.663,5.786 -56.94,32.293 8.04,27.394 9.953,44.801 9.953,44.801 z"
     fill="#4b3361"
     id="path883" />
  <path
     fill-rule="evenodd"
     clip-rule="evenodd"
     d="m 1106.8719,604.509 v 19.706 l 87.589,1.06 0.876,-28.818 z"
     fill="#4b3361"
     id="path885" />
  <path
     fill-rule="evenodd"
     clip-rule="evenodd"
     d="m 1135.0229,620.372 -17.6,169.72001 7.419,-0.21 26.501,-169.71701 z"
     fill="#4b3361"
     id="path887" />
  <path
     fill-rule="evenodd"
     clip-rule="evenodd"
     d="m 1178.4849,619.342 36.875,162.71001 -7.636,1.856 -41.967,-163.33001 z"
     fill="#4b3361"
     id="path889" />
  <path
     fill-rule="evenodd"
     clip-rule="evenodd"
     d="m 1075.4099,727.35501 c 0,0 7.955,-4.028 12.685,-0.124 4.738,3.907 5.459,8.111 -0.015,21.972 -5.467,13.871 -5.903,26.612 -16.844,29.133 -10.946,2.525 -22.743,4.625 -22.894,-0.977 -0.143,-5.602 12.512,-8.191 12.512,-8.191 0,0 6.188,-35.453 14.556,-41.813 z"
     fill="#2e1f3f"
     id="path891" />
  <path
     fill-rule="evenodd"
     clip-rule="evenodd"
     d="m 1051.5059,731.58101 c 0,0 7.963,-4.027 12.689,-0.124 4.737,3.908 5.459,8.112 -0.016,21.972 -5.466,13.872 -5.899,26.609 -16.844,29.134 -10.941,2.525 -22.747,4.625 -22.889,-0.977 -0.143,-5.602 12.515,-8.191 12.515,-8.191 0,0 6.181,-35.456 14.545,-41.814 z"
     fill="#4b3361"
     id="path893" />
  <path
     fill-rule="evenodd"
     clip-rule="evenodd"
     d="m 603.56586,354.674 -16.616,1.112 c 0,0 -39.3368,12.921 -51.3044,41.209 -11.9598,28.295 -36.9791,96.977 -28.2021,122.019 8.777,25.038 77.0563,22.355 116.2265,19.729 l 6.702,-14.961 c 0,0 -62.6546,-13.136 -84.9424,-24.028 10.2739,-41.517 17.7353,-54.844 17.7353,-54.844 0,0 12.9939,75.704 55.5831,112.288 68.618,5.347 92.349,-21.04 102.816,-38.387 -12.199,-38.887 -19.144,-87.66 -19.144,-87.66 0,0 34.306,45.726 55.004,51.455 20.714,5.73 39.796,-18.286 31.347,-112.765 l -18.307,-1.886 c 0,0 -7.129,66.57 -13.649,68.366 -6.536,1.789 -30.378,-57.992 -57.277,-74.351 -26.905,-16.359 -67.218,-14.105 -67.218,-14.105 z"
     fill="#fde8e5"
     id="path895" />
  <path
     fill-rule="evenodd"
     clip-rule="evenodd"
     d="m 1028.0889,552.468 c 0,0 -0.926,56.816 89.518,60.239 90.44,3.434 130.139,-17.561 141.906,-61.37 11.782,-43.813 3.075,-76.839 -16.188,-89.024 -19.256,-12.18 -65.533,-12.098 -92.543,0.17 -27.002,12.267 -38.098,17.58 -37.542,42.155 0.551,24.584 -9.09,32.418 -33.669,28.751 -24.572,-3.679 -49.441,-11.208 -51.482,19.079 z"
     fill="#fde7e2"
     id="path897" />
  <path
     fill-rule="evenodd"
     clip-rule="evenodd"
     d="m 620.03586,260.097 c 0,0 21.593,39.736 11.25,59.721 -10.336,19.999 -38.777,16.227 -50.023,-1.255 -5.1621,-12.444 -1.8056,-19.361 -2.9669,-28.292 -1.1651,-8.923 -7.1103,-15.964 -3.2291,-21.75 3.8773,-5.787 32.442,0.631 44.969,-8.424 z"
     fill="#f9b09b"
     id="path899" />
  <path
     fill-rule="evenodd"
     clip-rule="evenodd"
     d="m 586.94786,355.786 c 0,0 38.781,34.833 44.464,30.805 5.691,-4.024 0.907,-38.726 0.907,-38.726 0,0 -7.624,-1.382 -8.53,-6.417 -0.899,-5.027 -3.226,-14.461 -3.226,-14.461 l -30.922,0.233 c 0,0 5.324,23.666 -2.693,28.566 z"
     fill="#f9b09b"
     id="path901" />
  <path
     fill-rule="evenodd"
     clip-rule="evenodd"
     d="m 770.46386,367.951 c 0,0 3.897,-8.664 15.494,-12.842 11.612,-4.189 36.269,-21.901 34.27,-13.672 -1.99,8.224 -13.395,20.987 -31.458,28.404 -9.305,2.202 -18.306,-1.89 -18.306,-1.89 z"
     fill="#f9b09b"
     id="path903" />
  <path
     fill-rule="evenodd"
     clip-rule="evenodd"
     d="m 1025.2559,293.465 c -1.034,11.121 1.867,19.071 9.467,23.223 0.139,-1.334 0.274,-2.671 0.413,-4.001 -4.926,-3.641 -6.72,-9.375 -6.312,-16.585 -1.192,-0.879 -2.376,-1.754 -3.568,-2.637 z"
     fill="#cb3455"
     id="path905" />
  <path
     fill-rule="evenodd"
     clip-rule="evenodd"
     d="m 1037.8869,277.444 c 0,0 -15.791,58.519 12.928,69.054 14.445,-14.341 -3.306,-51.639 -1.354,-61.735 -6.308,-2.194 -11.574,-7.319 -11.574,-7.319 z"
     fill="#f9b09b"
     id="path907" />
  <path
     fill-rule="evenodd"
     clip-rule="evenodd"
     d="m 1050.1969,293.465 c -8.31,0 -16.624,0 -24.938,0 0.05,0.887 0.092,1.781 0.139,2.667 8.445,-0.033 16.894,-0.067 25.347,-0.101 -0.189,-0.857 -0.367,-1.713 -0.548,-2.566 z"
     fill="#cb3455"
     id="path909" />
  <path
     fill-rule="evenodd"
     clip-rule="evenodd"
     d="m 976.65886,471.072 c 0,0 11.856,-2.349 19.329,-11.249 -8.079,-14.95 -12.643,-31.508 -23.974,-32.996 -11.319,-1.484 -21.817,-2.142 -29.861,-3.615 -8.044,-1.472 -4.564,1.661 0.999,3.528 5.563,1.856 14.95,1.24 11.061,3.307 -3.877,2.062 -11.701,2.784 -18.395,1.484 -6.697,-1.285 -16.67,-2.6 -14.147,0.612 2.507,3.22 11.045,7.214 17.696,8.815 6.656,1.589 23.55,-1.943 26.644,-0.613 3.09,1.334 10.648,30.727 10.648,30.727 z"
     fill="#f9b09b"
     id="path911" />
  <path
     fill-rule="evenodd"
     clip-rule="evenodd"
     d="m 1015.6359,545.975 c 0,0 -49.03204,5.294 -43.81904,39.631 5.208,34.33 59.69104,123.50701 65.37004,135.25201 5.691,11.753 2.141,46.319 -0.231,52.537 8.534,-5.989 9.004,-25.571 15.397,-34.1 6.393,-8.525 11.84,-7.838 11.84,-7.838 0,0 -5.675,-5.068 -6.867,-15.209 -1.184,-10.133 -10.181,-74.42301 -34.58,-114.05701 5.68,-0.459 12.794,-0.921 12.794,-0.921 0,0 -18.955,-31.564 -19.904,-55.295 z"
     fill="#f9b09b"
     id="path913" />
  <path
     fill-rule="evenodd"
     clip-rule="evenodd"
     d="m 589.64186,327.219 c 0,0 13.148,9.04 31.605,2.653 0.652,2.743 0.91,3.889 0.91,3.889 0,0 -19.417,13.916 -30.853,6.049 -0.659,-6.868 -1.662,-12.591 -1.662,-12.591 z"
     fill="#f08b78"
     id="path915" />
  <path
     fill-rule="evenodd"
     clip-rule="evenodd"
     d="m 1048.2609,470.963 c 0,0 9.19,5.41 16.933,7.063 7.735,1.642 19.822,26.804 21.026,39.03 -4.194,-45.883 -4.078,-41.171 -28.889,-80.445 -1.539,-0.932 -2.658,-0.729 -3.206,0.961 -1.956,11.129 -3.908,22.258 -5.864,33.391 z"
     fill="#313062"
     id="path917" />
  <path
     fill-rule="evenodd"
     clip-rule="evenodd"
     d="m 823.80086,562.334 c 0,0 3.788,0.816 8.781,4.152 -11.451,3.569 -20.517,20.852 -28.569,43.937 -5.787,-8.371 -13.576,-7.729 -13.576,-7.729 11.118,-13.454 22.245,-26.905 33.364,-40.36 z"
     fill="#313062"
     id="path919" />
  <path
     fill-rule="evenodd"
     clip-rule="evenodd"
     d="m 728.09786,601.623 -3.021,0.211 c 7.149,-23.983 36.292,-46.169 25.594,-49.261 -6.2,-1.792 -12.62,-2.164 -19.086,-2.1 -6.956,0.075 -12.037,4.294 -17.681,7.307 -1.57,0.838 -2.785,0.32 -1.211,-0.71 8.341,-5.451 16.315,-10.621 20.829,-17.906 1.022,-1.646 2.477,-1.255 1.698,0.236 -1.879,3.603 -4.665,8.007 -1.212,8.247 9.063,0.643 13.858,0.485 22.099,0.35 0,0 10.698,-3.254 19.853,-13.068 8.716,-9.34 31.27,-33.495 28.773,-26.158 -27.762,28.991 -53.476,59.789 -76.635,92.852 z"
     fill="#313062"
     id="path921" />
  <path
     fill-rule="evenodd"
     clip-rule="evenodd"
     d="m 1124.6419,612.925 c 85.47,2.089 123.414,-18.936 134.872,-61.588 11.783,-43.813 3.075,-76.839 -16.188,-89.023 -5.787,-3.66 -14.008,-6.211 -23.426,-7.661 21.432,103.097 -17.446,149.108 -95.258,158.272 z"
     fill="#ebc7cc"
     id="path923" />
  <path
     fill-rule="evenodd"
     clip-rule="evenodd"
     d="m 602.59986,539.907 c 7.539,-0.308 14.691,-0.736 21.069,-1.164 l 6.701,-14.962 c 0,0 -21.805,-4.572 -44.263,-10.557 l 0.008,0.011 -0.047,-0.094 c -6.0721,-13.105 -1.172,-2.363 -6.6315,-14.424 l -0.008,-0.022 c 53.6762,15.205 66.8552,8.115 92.9742,55.084 -13.885,3.543 -31.412,5.151 -53.657,3.419 -4.911,-4.223 -9.421,-8.961 -13.569,-14.044 0.019,-0.012 0.425,0.42 -2.527,-3.186 -0.49,-0.639 -0.972,-1.285 -1.45,-1.932 0.532,0.786 1.003,1.424 1.4,1.871 z"
     fill="#ebc7cc"
     id="path925" />
  <path
     fill-rule="evenodd"
     clip-rule="evenodd"
     d="m 615.50886,312.01 c 3.275,-0.736 5.934,0.015 5.934,1.676 0,1.653 -2.659,3.596 -5.934,4.328 -3.272,0.737 -5.926,-0.015 -5.926,-1.672 0,-1.657 2.654,-3.599 5.926,-4.332 z"
     fill="#cb3455"
     id="path927" />
  <path
     fill-rule="evenodd"
     clip-rule="evenodd"
     d="m 630.36986,523.782 c -2.234,4.985 -4.468,9.971 -6.702,14.961 -8.445,0.443 -16.89,0.887 -25.335,1.33 -6.258,-5.489 -12.52,-10.979 -18.7773,-16.468 2.1836,-3.46 4.3673,-6.921 6.5513,-10.381 14.753,3.517 29.51,7.037 44.263,10.558 z"
     fill="#fde7e2"
     id="path929" />
  <path
     fill-rule="evenodd"
     clip-rule="evenodd"
     d="m 630.37086,523.781 c 0,0 19.904,13.876 25.008,22.224 5.1,8.349 7.673,28.153 5.559,31.948 -2.122,3.798 -16.586,-11.031 -18.079,-17.817 -1.497,-6.785 -16.936,-15.927 -19.189,-21.393 -2.273,-5.46 2.237,-18.223 6.701,-14.962 z"
     fill="#f8b09d"
     id="path931" />
  <path
     fill-rule="evenodd"
     clip-rule="evenodd"
     d="m 702.41786,431.148 -9.259,-34.751 22.489,51.016 z"
     fill="#ebc7cc"
     id="path933" />
  <path
     fill-rule="evenodd"
     clip-rule="evenodd"
     d="m 563.16296,444.91 4.2284,-10.419 c 0,0 22.1995,60.059 30.5595,71.808 -11.836,6.936 -11.836,6.936 -11.836,6.936 0,0 -20.9457,-40.375 -22.9519,-68.325 z"
     fill="#ebc7cc"
     id="path935" />
  <defs
     id="defs957">
    <linearGradient
       id="paint0_linear"
       x1="684.828"
       y1="205.5"
       x2="939.328"
       y2="115"
       gradientUnits="userSpaceOnUse"
       gradientTransform="translate(484.58486)">
      <stop
         offset="0.510201"
         stop-color="#D9EAFC"
         id="stop937" />
      <stop
         offset="0.921875"
         stop-color="#FAFAFA"
         id="stop939" />
    </linearGradient>
    <linearGradient
       id="paint1_linear"
       x1="684.828"
       y1="359.04199"
       x2="917.39398"
       y2="246.85699"
       gradientUnits="userSpaceOnUse"
       gradientTransform="translate(484.58486)">
      <stop
         offset="0.510201"
         stop-color="#D9EAFC"
         id="stop942" />
      <stop
         offset="0.921875"
         stop-color="#FAFAFA"
         id="stop944" />
    </linearGradient>
    <linearGradient
       id="paint2_linear"
       x1="560.625"
       y1="0"
       x2="560.625"
       y2="29.8564"
       gradientUnits="userSpaceOnUse"
       gradientTransform="translate(484.58486)">
      <stop
         stop-color="#DFCCFD"
         id="stop947" />
      <stop
         offset="1"
         stop-color="#73BEDE"
         id="stop949" />
    </linearGradient>
    <linearGradient
       id="paint3_linear"
       x1="453.75"
       y1="93.938499"
       x2="453.75"
       y2="142"
       gradientUnits="userSpaceOnUse"
       gradientTransform="translate(484.58486)">
      <stop
         stop-color="#DFCCFD"
         id="stop952" />
      <stop
         offset="1"
         stop-color="#73BEDE"
         id="stop954" />
    </linearGradient>
    <filter
       id="filter0_d"
       x="-4"
       y="604"
       width="1448"
       height="478.09201"
       filterUnits="userSpaceOnUse"
       color-interpolation-filters="sRGB">
      <feFlood
         flood-opacity="0"
         result="BackgroundImageFix"
         id="feFlood1373" />
      <feColorMatrix
         in="SourceAlpha"
         type="matrix"
         values="0 0 0 0 0 0 0 0 0 0 0 0 0 0 0 0 0 0 127 0"
         id="feColorMatrix1375" />
      <feOffset
         dy="4"
         id="feOffset1377" />
      <feGaussianBlur
         stdDeviation="2"
         id="feGaussianBlur1379" />
      <feColorMatrix
         type="matrix"
         values="0 0 0 0 0 0 0 0 0 0 0 0 0 0 0 0 0 0 0.25 0"
         id="feColorMatrix1381" />
      <feBlend
         mode="normal"
         in2="BackgroundImageFix"
         result="effect1_dropShadow"
         id="feBlend1383" />
      <feBlend
         mode="normal"
         in="SourceGraphic"
         in2="effect1_dropShadow"
         result="shape"
         id="feBlend1385" />
    </filter>
    <linearGradient
       id="paint0_linear-7"
       x1="720"
       y1="1141.78"
       x2="720"
       y2="-0.00012207"
       gradientUnits="userSpaceOnUse">
      <stop
         offset="0.771823"
         stop-color="#D9EAFC"
         id="stop1388" />
      <stop
         offset="1"
         stop-color="#D9EAFC"
         stop-opacity="0"
         id="stop1390" />
    </linearGradient>
    <linearGradient
       id="paint1_linear-9"
       x1="720"
       y1="604"
       x2="720"
       y2="1074.09"
       gradientUnits="userSpaceOnUse">
      <stop
         stop-color="#E0C0FE"
         id="stop1393" />
      <stop
         offset="1"
         stop-color="#3DBCFC"
         id="stop1395" />
    </linearGradient>
    <filter
       id="filter0_d-9"
       x="107.598"
       y="319.73099"
       width="177.633"
       height="59.619202"
       filterUnits="userSpaceOnUse"
       color-interpolation-filters="sRGB">
      <feFlood
         flood-opacity="0"
         result="BackgroundImageFix"
         id="feFlood1683" />
      <feColorMatrix
         in="SourceAlpha"
         type="matrix"
         values="0 0 0 0 0 0 0 0 0 0 0 0 0 0 0 0 0 0 127 0"
         id="feColorMatrix1685" />
      <feOffset
         dx="18"
         dy="5"
         id="feOffset1687" />
      <feGaussianBlur
         stdDeviation="13"
         id="feGaussianBlur1689" />
      <feColorMatrix
         type="matrix"
         values="0 0 0 0 0.454902 0 0 0 0 0.176471 0 0 0 0 0.494118 0 0 0 1 0"
         id="feColorMatrix1691" />
      <feBlend
         mode="normal"
         in2="BackgroundImageFix"
         result="effect1_dropShadow"
         id="feBlend1693" />
      <feBlend
         mode="normal"
         in="SourceGraphic"
         in2="effect1_dropShadow"
         result="shape"
         id="feBlend1695" />
    </filter>
    <filter
       id="filter1_d"
       x="113.355"
       y="361.974"
       width="167.797"
       height="58.536201"
       filterUnits="userSpaceOnUse"
       color-interpolation-filters="sRGB">
      <feFlood
         flood-opacity="0"
         result="BackgroundImageFix"
         id="feFlood1698" />
      <feColorMatrix
         in="SourceAlpha"
         type="matrix"
         values="0 0 0 0 0 0 0 0 0 0 0 0 0 0 0 0 0 0 127 0"
         id="feColorMatrix1700" />
      <feOffset
         dx="18"
         dy="5"
         id="feOffset1702" />
      <feGaussianBlur
         stdDeviation="13"
         id="feGaussianBlur1704" />
      <feColorMatrix
         type="matrix"
         values="0 0 0 0 0.454902 0 0 0 0 0.176471 0 0 0 0 0.494118 0 0 0 1 0"
         id="feColorMatrix1706" />
      <feBlend
         mode="normal"
         in2="BackgroundImageFix"
         result="effect1_dropShadow"
         id="feBlend1708" />
      <feBlend
         mode="normal"
         in="SourceGraphic"
         in2="effect1_dropShadow"
         result="shape"
         id="feBlend1710" />
    </filter>
    <filter
       id="filter2_d"
       x="104.871"
       y="290.42099"
       width="179.71201"
       height="60.952"
       filterUnits="userSpaceOnUse"
       color-interpolation-filters="sRGB">
      <feFlood
         flood-opacity="0"
         result="BackgroundImageFix"
         id="feFlood1713" />
      <feColorMatrix
         in="SourceAlpha"
         type="matrix"
         values="0 0 0 0 0 0 0 0 0 0 0 0 0 0 0 0 0 0 127 0"
         id="feColorMatrix1715" />
      <feOffset
         dx="18"
         dy="5"
         id="feOffset1717" />
      <feGaussianBlur
         stdDeviation="13"
         id="feGaussianBlur1719" />
      <feColorMatrix
         type="matrix"
         values="0 0 0 0 0.454902 0 0 0 0 0.176471 0 0 0 0 0.494118 0 0 0 1 0"
         id="feColorMatrix1721" />
      <feBlend
         mode="normal"
         in2="BackgroundImageFix"
         result="effect1_dropShadow"
         id="feBlend1723" />
      <feBlend
         mode="normal"
         in="SourceGraphic"
         in2="effect1_dropShadow"
         result="shape"
         id="feBlend1725" />
    </filter>
  </defs>
</svg>
