<svg width="650" height="429" viewBox="0 0 650 429" fill="none" xmlns="http://www.w3.org/2000/svg">
<path d="M303.775 140.666H305.154V178.834H303.775V140.666Z" fill="#D3AEFE"/>
<path d="M304.526 191.973C300.392 191.973 297.133 188.597 297.133 184.591C297.133 180.588 300.516 177.208 304.526 177.208C308.662 177.208 311.918 180.588 311.918 184.591C311.918 188.597 308.535 191.973 304.526 191.973ZM304.526 178.46C301.142 178.46 298.388 181.211 298.388 184.591C298.388 187.971 301.142 190.722 304.526 190.722C307.909 190.722 310.667 187.971 310.667 184.591C310.539 181.211 307.785 178.46 304.526 178.46Z" fill="#D3AEFE"/>
<path d="M207.797 5.00659H401.253V154.805H207.797V5.00659Z" fill="#E9EEFF"/>
<path d="M404.261 160.438H204.664C202.158 160.438 200.029 158.309 200.029 155.806C200.029 153.306 202.158 151.177 204.664 151.177H404.261C406.768 151.177 408.896 153.306 408.896 155.806C408.896 158.436 406.892 160.438 404.261 160.438Z" fill="#BEC9FF"/>
<path d="M404.261 9.26349H204.664C202.158 9.26349 200.029 7.13503 200.029 4.63174C200.029 2.12846 202.158 0 204.664 0H404.261C406.768 0 408.896 2.12846 408.896 4.63174C408.896 7.13503 406.892 9.26349 404.261 9.26349Z" fill="#BEC9FF"/>
<path d="M411.655 54.9418C411.906 51.0597 410.651 47.6829 408.897 43.8008C408.522 43.0512 400.628 31.0368 399.751 34.042C403.887 19.7753 383.339 5.13381 373.189 18.5237C371.435 20.776 370.682 23.7779 370.431 26.656C370.307 29.0355 370.056 33.54 372.563 34.6679C373.313 35.0427 374.066 35.1665 374.819 35.4175C377.449 36.2943 379.705 38.1718 381.833 40.1731C382.837 41.0499 383.714 42.0505 384.467 43.175C386.472 46.5551 384.34 50.1862 384.089 53.6901C383.965 56.1901 384.089 59.3192 385.468 61.4476C392.107 71.9594 405.514 72.3343 410.4 60.3198C411.029 58.4457 411.528 56.6921 411.655 54.9418ZM412.03 44.4267L411.906 44.5538L411.779 44.4267C411.906 44.4267 412.03 44.4267 412.03 44.4267Z" fill="#35324C"/>
<path d="M394.49 32.2883C394.49 32.7368 394.409 33.1685 394.249 33.5835C394.091 33.9951 393.864 34.3599 393.573 34.6778C393.278 34.9957 392.94 35.24 392.555 35.4107C392.17 35.5814 391.772 35.6684 391.357 35.6684C390.942 35.6684 390.54 35.5814 390.156 35.4107C389.774 35.24 389.436 34.9957 389.142 34.6778C388.847 34.3599 388.62 33.9951 388.462 33.5835C388.302 33.1685 388.225 32.7368 388.225 32.2883C388.225 31.8399 388.302 31.4081 388.462 30.9965C388.62 30.5815 388.847 30.2167 389.142 29.8988C389.436 29.5842 389.774 29.3399 390.156 29.1659C390.54 28.9952 390.942 28.9082 391.357 28.9082C391.772 28.9082 392.17 28.9952 392.555 29.1659C392.94 29.3399 393.278 29.5842 393.573 29.8988C393.864 30.2167 394.091 30.5815 394.249 30.9965C394.409 31.4081 394.49 31.8399 394.49 32.2883Z" fill="#FDC5B6"/>
<path d="M391.731 35.0426V50.9358C391.731 53.4391 389.978 55.6914 387.598 56.0662C386.47 56.19 385.466 55.9423 384.589 55.4404L373.438 50.1861C373.94 50.059 374.439 50.059 374.941 50.059C377.197 49.808 378.827 48.0577 379.329 45.8054C379.329 45.4306 379.452 45.1796 379.452 44.8047V42.3015C379.078 42.3015 378.699 42.3015 378.325 42.1743C377.448 42.0505 376.571 41.7995 375.818 41.1736C373.94 39.671 373.562 36.7929 373.311 34.2896C373.187 33.1651 373.188 26.6559 373.188 25.4043C374.941 26.7831 377.324 27.6599 379.452 28.0348C381.832 28.5334 384.84 28.7844 387.347 27.9076L391.731 35.0426Z" fill="#FDC5B6"/>
<path d="M392.485 33.6637C392.485 33.8712 392.411 34.0486 392.264 34.1958C392.116 34.3431 391.939 34.4167 391.732 34.4167C391.524 34.4167 391.347 34.3431 391.199 34.1958C391.052 34.0486 390.979 33.8712 390.979 33.6637C390.979 33.4596 391.052 33.2822 391.199 33.1349C391.347 32.9877 391.524 32.9141 391.732 32.9141C391.939 32.9141 392.116 32.9877 392.264 33.1349C392.411 33.2822 392.485 33.4596 392.485 33.6637Z" fill="white"/>
<path d="M261.049 16.8972C260.922 17.021 260.922 17.021 261.049 16.8972C260.922 17.021 260.922 17.021 260.922 17.021L261.049 16.8972Z" fill="#FDC5B6"/>
<path d="M259.169 20.023L264.931 26.4084C265.059 26.5322 265.059 26.5322 265.182 26.5322C265.31 26.5322 265.31 26.5322 265.433 26.4084C265.561 26.2812 265.561 26.0302 265.433 25.9064L259.42 19.2734C259.169 19.0224 259.169 18.6476 259.42 18.3966C259.671 18.1489 260.045 18.1489 260.173 18.3966L266.437 24.6548C266.561 24.7786 266.561 24.7786 266.688 24.7786C266.812 24.7786 266.812 24.7786 266.939 24.6548C267.063 24.531 267.063 24.28 266.939 24.1561L260.798 18.0217C260.424 17.6469 260.424 17.1449 260.798 16.7701C261.049 16.6463 261.3 16.7701 261.551 16.8973L268.315 23.2793C268.442 23.4031 268.442 23.4031 268.566 23.4031C268.693 23.4031 268.693 23.4031 268.817 23.2793C268.944 23.1521 268.944 22.9045 268.817 22.7773L262.177 16.5191C262.05 16.3953 262.177 16.1443 262.301 16.1443C262.803 16.1443 263.305 16.3953 263.68 16.6463C266.812 19.2734 269.945 21.9005 273.077 24.531C274.58 25.7826 276.21 27.5329 277.839 28.5335C278.214 28.7845 278.338 28.7845 278.589 28.9084C278.589 28.2859 278.716 27.7839 278.84 27.1581C278.84 26.2812 278.84 25.2806 278.84 24.4038C278.84 23.4031 278.341 21.2747 279.218 20.525C279.593 20.274 279.844 20.274 280.219 20.4012C281.096 20.776 280.972 22.1515 281.223 22.9045C281.722 24.6548 282.351 26.5322 282.726 28.2859C282.977 29.5342 283.1 30.913 282.977 32.1646C282.977 32.2885 282.977 32.4156 282.977 32.5395L283.351 32.2885C286.109 40.1731 288.863 48.1816 291.497 56.0663C293.375 61.5715 295.379 67.2039 297.26 72.7125C297.886 74.7138 298.763 76.5912 299.265 78.5925C300.392 82.5984 298.763 84.3487 295.004 85.9752C292.625 86.9792 290.118 87.354 287.488 87.7288C285.982 87.9798 284.355 88.1036 283.1 87.354C281.849 86.601 281.223 85.1017 280.721 83.7229C277.461 75.3396 275.835 66.3271 274.707 57.3179C273.83 50.3101 274.081 41.0499 269.945 35.0427C266.812 30.5382 263.178 26.2812 259.794 22.0277C259.296 21.2747 258.67 20.525 258.67 19.6482C259.169 20.023 258.918 20.023 259.169 20.023Z" fill="#FDC5B6"/>
<path d="M276.712 34.7916C276.334 32.6631 277.214 30.287 278.841 29.1592L278.968 29.4102C277.338 30.538 276.585 32.7903 276.963 34.6677L276.712 34.7916Z" fill="#171F3D"/>
<path d="M364.919 66.0792C363.791 68.0805 362.663 70.0818 361.535 71.9593V72.0865C357.402 78.9671 352.764 85.6002 347.379 91.4836C347.001 91.8584 346.626 92.2332 346.251 92.7352C343.243 95.9881 339.859 98.8662 336.225 101.621C332.343 104.499 328.206 107.126 323.571 108.879C308.16 114.508 289.114 106.249 282.598 91.3564C281.721 89.2313 280.972 86.8518 281.095 84.5995C281.095 84.4757 281.095 84.2247 281.095 84.0975C287.488 83.0969 293.501 79.9678 298.511 75.5904C299.89 76.4639 301.142 77.3407 302.772 77.8427C326.201 86.3532 335.348 40.2968 358.403 42.8C363.289 43.302 367.8 46.806 368.928 51.5615C369.932 56.5681 367.425 61.5713 364.919 66.0792Z" fill="#D3AEFE"/>
<path d="M361.412 72.0867C357.276 78.9673 352.64 85.6004 347.252 91.4838C346.878 91.8586 346.499 92.2334 346.125 92.7354C346.125 91.4838 346.125 90.2321 346.125 88.8533C346.001 83.2243 339.234 48.8075 349.384 51.8127C356.526 53.9379 359.906 63.0742 361.412 72.0867Z" fill="#35324C"/>
<path d="M387.847 37.9207C387.847 37.9207 386.221 43.051 379.33 45.6782C379.33 45.3033 379.454 45.0523 379.454 44.6775V42.1742C379.079 42.1742 378.701 42.1742 378.326 42.0504C380.582 41.7994 385.468 40.7988 387.847 37.9207Z" fill="#35324C"/>
<path d="M284.479 427.874C284.602 426.623 284.853 425.495 285.606 424.621C285.857 424.243 286.232 423.868 286.483 423.617C286.607 423.494 286.734 423.37 286.985 423.119C287.36 422.744 287.862 422.366 288.364 422.118C293.123 419.24 300.516 414.608 300.516 414.608L309.036 351.283C311.667 351.661 314.3 352.036 316.804 352.535C324.073 354.165 331.214 356.29 337.981 359.044L324.196 420.866C324.196 421.616 324.196 422.369 324.196 423.119V423.617C324.196 423.996 324.196 424.494 324.196 424.869C324.196 425.997 324.196 426.874 324.196 427.998V428.125C324.196 428.249 324.196 428.249 324.196 428.373H284.479C284.479 428.125 284.479 428.125 284.479 427.874C284.479 427.998 284.479 427.874 284.479 427.874Z" fill="#FDC5B6"/>
<path d="M284.479 427.998C284.602 426.746 284.853 425.622 285.606 424.621C285.857 424.243 286.232 423.868 286.483 423.617H324.196C324.196 423.995 324.196 424.494 324.196 424.869C324.196 425.997 324.196 426.873 324.196 428.125C324.196 428.249 324.196 428.249 324.196 428.373H284.479C284.479 428.125 284.479 428.125 284.479 427.998Z" fill="#15203D"/>
<path d="M436.335 428.249H398.997C398.997 428.125 398.997 428.125 398.997 427.998V427.874C399.124 426.746 399.124 425.873 399.248 424.869C399.248 424.494 399.375 424.119 399.375 423.744V423.369C399.499 422.616 399.499 421.867 399.626 421.117L393.736 364.05L393.361 359.921L393.234 358.669L392.983 356.038L392.859 354.539L391.982 345.654H424.81L424.559 352.16L422.681 415.11C422.681 415.234 429.194 419.487 433.454 422.242C433.956 422.493 434.331 422.867 434.582 423.242C434.709 423.369 434.833 423.493 434.96 423.617C435.208 423.995 435.459 424.243 435.71 424.621C436.335 425.494 436.463 426.622 436.463 427.747C436.463 427.747 436.463 427.747 436.463 427.874C436.335 428.125 436.335 428.125 436.335 428.249Z" fill="#FDC5B6"/>
<path d="M436.336 427.998C436.336 426.746 436.213 425.745 435.587 424.745C435.336 424.37 435.085 424.119 434.834 423.744H399.376C399.376 424.119 399.249 424.494 399.249 424.869C399.125 425.873 399.125 426.746 398.998 427.998C398.998 428.125 398.998 428.125 398.998 428.249H436.336C436.336 428.125 436.336 428.125 436.336 427.998Z" fill="#15203D"/>
<path d="M409.399 113.009C407.267 112.133 404.887 111.256 402.381 110.63C387.974 106.751 371.809 107.876 358.905 114.636C356.773 115.76 354.768 117.012 352.891 118.387C322.319 141.165 324.575 197.98 320.438 230.52C314.301 277.824 309.036 325.129 304.525 372.561C304.401 373.562 304.401 374.562 305.278 375.439C306.406 376.44 308.411 376.564 310.164 376.691C318.183 376.938 325.074 379.067 333.092 378.19C334.22 378.066 335.475 377.939 336.476 377.44L382.083 193.101L388.225 298.098C388.225 303.978 388.348 309.36 388.85 314.243C390.604 330.136 390.353 346.029 392.107 361.798C392.609 366.427 392.983 371.058 393.613 375.687C393.86 377.815 394.238 379.191 395.115 380.068L395.239 381.945L395.49 380.569C396.618 381.446 398.248 381.945 401.005 382.571C408.897 384.324 417.417 384.324 425.312 382.822C431.577 381.694 437.464 227.391 437.089 212.498C436.336 180.836 447.614 129.15 409.399 113.009Z" fill="#FF7382"/>
<path d="M383.462 217.505L384.215 171.703L367.174 150.177L379.576 172.951L380.704 198.231L383.462 217.505Z" fill="#35324C"/>
<path d="M365.545 113.009C371.559 115.76 388.225 116.386 391.481 116.513C391.983 116.513 392.485 116.513 392.984 116.761C393.613 117.012 393.988 117.638 394.363 118.263C395.869 120.643 401.883 129.528 404.262 131.155C406.518 132.781 406.143 128.524 409.148 128.026C409.275 126.774 406.893 117.263 405.263 110.506C403.636 109.753 401.756 109.127 399.878 108.501C390.605 105.874 378.828 105.998 369.179 105.998C366.171 105.998 362.54 108.377 363.667 111.132C363.667 111.881 364.417 112.507 365.545 113.009Z" fill="#35324C"/>
<path d="M430.573 52.8132C433.582 60.1959 425.815 67.7057 423.559 74.2116C422.431 77.2169 421.678 80.2188 421.303 83.2241C421.176 84.2247 421.052 85.2253 420.925 86.3532C420.55 89.8571 420.426 93.4848 420.55 97.1126C420.55 97.4908 420.55 97.8656 420.55 98.2404C420.55 98.6152 420.55 98.9901 420.677 99.3682C420.677 99.3682 420.677 99.3682 420.55 99.3682C418.044 100.369 415.788 101.744 413.911 103.622C413.158 104.124 412.408 104.622 411.655 105.124C410.4 105.623 409.148 106.125 407.769 106.624C405.514 107.377 403.258 108.003 400.879 108.628C393.362 110.128 385.842 111.004 378.202 110.881C373.189 110.506 368.303 109.629 363.54 108.377C360.408 107.25 357.275 105.998 354.394 104.499C354.645 103.371 354.769 102.37 355.02 101.242C355.02 100.995 355.147 100.744 355.147 100.617C355.271 99.9941 355.271 99.2411 355.398 98.6152C355.398 98.4914 355.398 98.2404 355.398 98.1166C355.398 97.8656 355.398 97.6146 355.398 97.3636C355.398 97.2398 355.398 96.9888 355.398 96.8649C355.398 96.7378 355.398 96.4868 355.398 96.363C355.398 96.112 355.398 95.8643 355.398 95.6133C355.398 94.2345 355.398 92.859 355.398 91.4836C355.02 82.9731 353.644 74.4626 350.887 66.4541C353.517 62.5753 356.399 58.8204 359.407 55.0655C362.162 51.6854 364.668 47.9304 367.801 44.8047C370.809 49.0583 381.96 50.9357 386.846 51.1867C389.728 51.3105 392.485 50.9357 395.24 50.4337C397.997 50.0589 400.755 49.6841 403.385 49.0583C411.528 47.3046 419.797 43.1749 427.317 49.0583C428.318 49.8079 429.322 50.8119 429.948 51.9364C430.199 52.0602 430.322 52.4384 430.573 52.8132Z" fill="#E9EEFF"/>
<path d="M376.573 76.842C375.947 83.2241 374.943 89.6061 373.691 95.8643C372.436 102.246 370.81 108.501 369.056 114.636C367.928 118.387 367.048 122.269 365.924 126.024C364.418 131.155 363.541 134.91 357.527 133.032C354.143 131.904 339.86 129.401 341.115 125.271C341.363 124.645 343.12 123.019 343.618 122.269C344.371 121.018 344.997 119.515 345.499 118.14C346.751 115.134 347.879 112.132 348.632 108.879C351.888 96.4868 351.764 82.9731 347.755 70.8348C346.376 66.5779 344.495 62.4482 343.869 57.9436C342.49 47.6828 349.257 42.0504 358.531 42.5491C362.413 42.8001 366.298 44.0517 369.933 45.6782C372.185 46.6788 374.568 47.9305 376.071 50.0589C377.7 52.5622 377.7 55.6913 377.573 58.6932C377.573 64.8276 377.198 70.8348 376.573 76.842Z" fill="#D3AEFE"/>
<path d="M428.945 71.2097C431.328 67.2038 434.962 64.7005 435.461 59.5701C435.839 55.0655 433.958 50.4338 430.702 47.6828C425.063 43.0511 405.264 41.3008 397.496 47.3047C397.245 47.4318 396.994 47.6828 396.871 47.8067C388.226 57.5688 391.231 78.0904 392.985 90.1048C395.368 106.376 400.756 122.269 408.898 136.285C409.026 136.409 436.967 130.653 430.575 118.638C430.2 118.012 429.949 117.514 429.698 116.888C429.574 116.513 429.323 116.135 429.196 115.76C425.186 107.126 423.56 97.4908 424.437 88.1035C424.812 82.4711 426.063 76.0891 428.945 71.2097Z" fill="#D3AEFE"/>
<path d="M377.823 34.6677L378.074 34.0419L377.073 33.5399L378.074 29.2864L377.448 29.1592L376.32 34.0419L377.823 34.6677Z" fill="#171F3D"/>
<path d="M379.955 37.4187C380.079 37.4187 380.33 37.4187 380.454 37.2949C381.083 37.0439 381.581 36.5453 381.581 35.7923L380.832 35.6685C380.705 36.0433 380.454 36.4181 380.206 36.5453C379.828 36.6691 379.202 36.5453 378.576 35.9195L378.074 36.4181C378.7 37.0439 379.329 37.4187 379.955 37.4187Z" fill="#171F3D"/>
<path d="M375.193 30.9128C374.819 30.7856 374.691 30.538 374.691 30.1598C374.819 29.785 375.07 29.6611 375.444 29.6611C375.819 29.785 375.946 30.036 375.946 30.4108C375.819 30.7856 375.444 31.0366 375.193 30.9128Z" fill="#171F3D"/>
<path d="M382.084 32.0373C381.709 31.9135 381.582 31.6625 381.582 31.2876C381.709 30.9128 381.96 30.7856 382.335 30.7856C382.71 30.9128 382.837 31.1638 382.837 31.5386C382.71 31.9135 382.335 32.1645 382.084 32.0373Z" fill="#171F3D"/>
<path d="M476.308 88.9803C476.934 92.6081 475.806 96.363 474.176 99.4921C472.547 102.621 470.542 105.372 468.286 108.003C462.651 114.636 456.258 120.265 449.244 124.773C446.362 126.65 426.189 138.788 427.441 126.65C427.692 124.773 428.819 123.394 430.071 122.018C436.714 114.759 442.979 107.25 448.993 99.3683C451.998 95.3624 454.88 91.3564 457.761 87.2267C460.268 83.5989 461.272 80.7208 465.532 80.2188C470.167 79.7202 475.053 83.0969 476.181 88.3545C476.181 88.6055 476.181 88.8532 476.308 88.9803Z" fill="#FDC5B6"/>
<path d="M407.019 124.147C410.526 123.143 414.284 122.895 417.919 123.143C418.17 123.143 418.294 123.019 418.294 122.895C418.294 122.768 418.17 122.52 417.919 122.52C414.412 122.269 410.777 122.52 407.394 123.394C407.143 123.521 406.892 123.143 407.019 122.895C407.394 122.52 408.521 122.018 409.023 121.894C412.407 120.767 416.289 120.265 420.047 120.265C421.175 120.265 422.303 120.265 423.307 120.392C427.567 120.767 438.34 122.142 438.092 128.025C437.965 131.406 434.207 134.157 430.951 133.407C426.061 132.406 421.302 129.776 416.416 128.524H416.289C414.786 128.149 413.284 128.025 411.778 128.025C410.777 128.025 409.398 128.4 408.394 127.898C408.147 127.774 408.27 127.4 408.521 127.4C411.403 127.025 414.786 126.774 417.541 127.273C417.668 127.273 417.919 127.149 417.919 127.025C417.919 126.898 417.792 126.65 417.668 126.65C414.535 126.024 410.777 126.399 407.645 126.898C407.517 126.898 407.394 126.898 407.266 126.774C407.143 126.65 407.019 126.399 407.019 126.272C406.892 126.148 407.019 125.897 407.266 125.897C410.399 125.271 413.782 125.02 417.792 125.398C418.043 125.398 418.17 125.271 418.17 125.147C418.17 125.02 418.043 124.773 417.792 124.773C413.659 124.394 410.151 124.645 407.019 125.271C406.892 125.271 406.641 125.147 406.641 125.02C406.641 124.896 406.641 124.773 406.641 124.645C406.768 124.271 406.892 124.147 407.019 124.147Z" fill="#FDC5B6"/>
<path d="M451.5 90.7306C451.249 90.483 452.125 90.6068 451.5 90.7306V90.7306Z" fill="#D3AEFE"/>
<path d="M476.682 86.1024C475.179 77.8429 470.417 73.3384 464.778 67.706C453.627 56.4412 440.22 47.6831 425.06 44.6778C421.928 44.052 418.668 43.6771 415.412 44.1791C412.279 44.805 409.147 46.4314 407.266 49.1824C404.133 53.9379 405.639 60.822 409.274 65.2027C412.905 69.5834 418.042 72.0867 423.179 74.339C433.202 78.9674 445.608 82.0965 453.627 90.2322C450.12 94.3619 464.025 96.4871 466.157 96.8652C468.787 97.24 471.669 97.3639 473.8 95.7374C476.806 93.8599 477.308 89.7302 476.682 86.1024Z" fill="#D3AEFE"/>
<path d="M82.001 137.788L84.5076 140.539C86.3884 142.667 89.6447 142.791 91.7731 140.79L94.1559 138.537L94.5308 138.162L97.7904 134.909L100.17 132.53L93.1519 126.399L91.2745 124.773L90.6487 124.271L82.7539 130.529C80.3711 132.279 80.1235 135.659 82.001 137.788Z" fill="#A0616B"/>
<path d="M93.7773 137.286C93.9044 137.537 94.1554 137.788 94.4064 138.035L97.6627 134.782L100.042 132.406L93.0276 126.272C92.7766 126.65 92.5256 127.025 92.4018 127.524C91.6488 129.903 92.6528 135.408 93.7773 137.286Z" fill="#35324C"/>
<path d="M81.8774 118.765C80.4986 115.385 81.8774 110.881 85.1337 109.127C87.2655 108.003 90.0198 107.875 92.1516 106.624C93.6542 105.75 94.6582 104.248 96.1608 103.498C98.4165 102.494 101.298 103.371 102.55 105.372C103.052 106.125 103.303 107.002 103.677 107.628C104.805 109.254 107.061 109.88 108.563 111.255C118.212 120.767 91.3986 129.277 85.1337 127.149C84.6317 127.025 84.133 126.774 83.882 126.399C83.2562 125.398 84.133 124.147 84.133 122.895C84.133 121.767 83.129 120.89 82.5032 120.017C82.3794 119.766 82.1284 119.264 81.8774 118.765Z" fill="#15203D"/>
<path d="M108.563 125.02C108.563 123.896 108.439 122.895 108.312 121.767C107.686 118.387 105.18 115.509 102.047 114.258C101.672 114.76 101.421 115.134 101.046 115.636C98.7908 118.263 94.7815 119.391 93.6537 122.644C92.9007 124.773 93.9047 130.402 95.0325 132.155C98.165 136.911 104.932 135.91 107.435 131.279C108.563 129.401 108.69 127.273 108.563 125.02Z" fill="#A0616B"/>
<path d="M96.0341 126.399C96.0341 126.627 96.014 126.858 95.9671 127.082C95.9236 127.306 95.8567 127.527 95.7697 127.738C95.6793 127.952 95.5722 128.153 95.4451 128.344C95.3146 128.538 95.1706 128.712 95.0067 128.876C94.846 129.04 94.6687 129.184 94.4745 129.311C94.2838 129.441 94.083 129.548 93.8688 129.635C93.658 129.722 93.4371 129.789 93.2129 129.836C92.9853 129.88 92.7577 129.903 92.5268 129.903C92.2959 129.903 92.0683 129.88 91.8441 129.836C91.6165 129.789 91.399 129.722 91.1848 129.635C90.9706 129.548 90.7698 129.441 90.5791 129.311C90.385 129.184 90.2109 129.04 90.0469 128.876C89.883 128.712 89.7391 128.538 89.6085 128.344C89.4814 128.153 89.3743 127.952 89.2873 127.738C89.1969 127.527 89.13 127.306 89.0865 127.082C89.043 126.858 89.0195 126.627 89.0195 126.399C89.0195 126.168 89.043 125.941 89.0865 125.713C89.13 125.489 89.1969 125.271 89.2873 125.057C89.3743 124.846 89.4814 124.642 89.6085 124.451C89.7391 124.261 89.883 124.083 90.0469 123.919C90.2109 123.759 90.385 123.611 90.5791 123.484C90.7698 123.357 90.9706 123.25 91.1848 123.16C91.399 123.073 91.6165 123.006 91.8441 122.962C92.0683 122.915 92.2959 122.895 92.5268 122.895C92.7577 122.895 92.9853 122.915 93.2129 122.962C93.4371 123.006 93.658 123.073 93.8688 123.16C94.083 123.25 94.2838 123.357 94.4745 123.484C94.6687 123.611 94.846 123.759 95.0067 123.919C95.1706 124.083 95.3146 124.261 95.4451 124.451C95.5722 124.642 95.6793 124.846 95.7697 125.057C95.8567 125.271 95.9236 125.489 95.9671 125.713C96.014 125.941 96.0341 126.168 96.0341 126.399Z" fill="#A0616B"/>
<path d="M102.8 129.277C101.17 129.277 99.7949 126.774 99.7949 123.645C99.7949 120.516 101.047 118.012 102.8 118.012C104.43 118.012 105.809 120.516 105.809 123.645C105.809 126.774 104.43 129.277 102.8 129.277ZM102.8 118.889C101.8 118.889 100.672 120.891 100.672 123.645C100.672 126.523 101.8 128.4 102.8 128.4C103.804 128.4 104.932 126.399 104.932 123.645C105.056 120.891 103.804 118.889 102.8 118.889Z" fill="#E8F1F9"/>
<path d="M109.817 129.277C108.187 129.277 106.809 126.774 106.809 123.645C106.809 120.516 108.064 118.012 109.817 118.012C111.444 118.012 112.822 120.516 112.822 123.645C112.699 126.774 111.444 129.277 109.817 129.277ZM109.817 118.889C108.813 118.889 107.685 120.891 107.685 123.645C107.685 126.523 108.813 128.4 109.817 128.4C110.818 128.4 111.946 126.399 111.946 123.645C111.946 120.891 110.818 118.889 109.817 118.889Z" fill="#E8F1F9"/>
<path d="M578.922 406.851L565.516 377.939L576.794 402.219L578.922 406.851Z" fill="#423FAD"/>
<path d="M565.517 377.939L545.096 395.96C541.334 391.58 536.699 386.325 531.813 380.693C526.803 374.937 521.415 368.806 516.027 362.671C498.233 342.274 480.817 322.502 479.314 321.374L501.365 282.955L505.251 284.581L516.027 288.962L526.05 293.092L530.434 302.603L531.813 303.603V305.608L565.517 377.939Z" fill="#423FAD"/>
<path d="M516.027 288.838V362.548C498.233 342.15 480.817 322.375 479.314 321.25L501.365 282.831L505.251 284.458L516.027 288.838Z" fill="#36314C"/>
<path d="M576.794 402.219L565.516 377.815L545.095 395.837C551.484 403.22 555.62 407.975 555.62 407.975L553.113 418.738L544.342 423.119V423.745H562.26L576.794 402.219Z" fill="#E9EEFF"/>
<path d="M576.794 402.219L562.26 423.744H544.342V426.997L563.889 428.249L578.923 406.85L576.794 402.219Z" fill="#423FAD"/>
<path d="M157.93 230.145C155.55 231.396 152.793 231.396 150.29 230.269L118.965 215.627C112.449 212.873 106.06 209.871 99.5445 207.367C91.526 204.238 65.5896 201.735 63.8359 189.972C65.2114 198.857 66.3392 207.618 66.965 217.13C67.5942 228.642 68.8459 236.778 72.1021 242.159L176.474 247.29C177.35 246.664 178.231 245.911 178.98 245.037C177.98 243.16 176.976 241.533 175.848 240.031C171.966 235.148 166.952 232.146 161.564 230.018C160.313 229.519 159.058 229.643 157.93 230.145Z" fill="#35324C"/>
<path d="M34.1378 272.818C19.7306 188.971 40.4027 153.932 59.3246 139.287C71.8544 129.528 83.6312 128.902 83.6312 128.902C103.427 165.317 97.0378 154.056 102.677 178.71C107.436 199.232 111.823 287.335 111.823 287.335H34.014L34.1378 272.818Z" fill="#FFCC8A"/>
<path d="M182.738 320.999L176.724 347.404L174.094 359.043L173.093 362.671L171.336 370.181L164.696 398.965L163.943 402.342H134.627L135.002 399.715V398.965L142.896 310.112L143.02 307.482L144.774 287.961L182.738 320.999Z" fill="#423FAD"/>
<path d="M185.372 420.739C185.245 420.492 185.121 420.241 184.994 420.113L184.87 419.99C184.743 419.866 184.619 419.615 184.492 419.488L184.368 419.364C184.244 419.24 184.117 418.989 183.866 418.862C183.866 418.862 183.866 418.738 183.742 418.738C183.615 418.487 183.367 418.363 183.116 418.112L182.989 417.988C182.865 417.861 182.614 417.737 182.487 417.613C182.363 417.613 182.363 417.486 182.239 417.486C182.112 417.362 181.988 417.235 181.861 417.235C181.737 417.235 181.737 417.111 181.61 417.111C181.486 416.988 181.235 416.988 181.111 416.86C180.984 416.86 180.984 416.737 180.86 416.737C180.609 416.609 180.358 416.486 180.107 416.362L174.217 414.233L170.71 418.614L169.08 417.362L172.213 413.48L169.208 412.356L165.573 416.86L163.943 415.609L167.076 411.606L162.066 409.853L163.819 402.343H140.641L138.258 420.739H185.372Z" fill="#FF7382"/>
<path d="M186.372 425.12C186.372 424.869 186.372 424.621 186.372 424.494C186.372 424.37 186.372 424.37 186.372 424.243C186.372 424.119 186.372 423.868 186.372 423.745C186.372 423.617 186.372 423.617 186.372 423.494C186.372 423.37 186.372 423.119 186.248 422.992V422.868C186.248 422.617 186.121 422.493 186.121 422.242C186.121 422.118 186.121 422.118 185.997 421.991C185.997 421.867 185.87 421.743 185.87 421.616C185.87 421.492 185.746 421.492 185.746 421.365C185.746 421.241 185.619 421.117 185.619 420.99C185.619 420.866 185.495 420.739 185.495 420.739H138.508L137.508 428.249H186.623V425.12H186.372Z" fill="#E7F0F8"/>
<path d="M165.573 416.86L169.207 412.356L171.088 410.103L169.458 408.728L167.203 411.606L164.07 415.609L165.573 416.86Z" fill="#E7F0F8"/>
<path d="M170.71 418.614L174.344 414.106L176.225 411.73L174.595 410.479L172.212 413.48L169.207 417.235L170.71 418.614Z" fill="#E7F0F8"/>
<path d="M182.738 320.999L176.724 347.404L174.094 359.043L173.093 362.671L171.336 370.181L143.02 310.236L142.896 310.112L143.02 307.482L144.774 287.961L182.738 320.999Z" fill="#36314C"/>
<path d="M197.901 248.916V248.789L229.851 176.207C226.217 174.581 221.956 176.331 220.327 179.962L193.513 242.909H124.225V248.916H197.901Z" fill="#36314C"/>
<path d="M268.567 421.492L268.443 421.365C268.443 421.241 268.316 421.241 268.316 421.117C268.192 420.866 268.065 420.739 267.941 420.491L267.817 420.364C267.69 420.24 267.566 419.989 267.315 419.866L267.188 419.738C266.94 419.615 266.813 419.364 266.562 419.24C266.562 419.24 266.562 419.24 266.438 419.24C266.187 419.113 266.06 418.989 265.812 418.862C265.685 418.862 265.685 418.738 265.561 418.738C265.31 418.614 265.059 418.487 264.808 418.363L253.908 414.106L251.278 417.362L249.648 415.983L251.904 413.233L248.895 412.105L246.141 415.609L244.511 414.233L246.891 411.228L240.626 408.725L238.621 402.47H212.936L220.579 421.492H268.567Z" fill="#FF7382"/>
<path d="M223.209 428.249H269.821L269.191 423.744C269.191 423.493 269.068 423.242 269.068 422.867C269.068 422.744 269.068 422.744 269.068 422.616C268.944 422.365 268.944 422.118 268.817 421.867V421.743C268.693 421.616 268.693 421.492 268.566 421.365H220.578L223.209 428.249Z" fill="#E7F0F8"/>
<path d="M246.013 415.485L248.894 411.981L251.652 408.35L250.022 407.098L246.766 411.104L244.383 414.106L246.013 415.485Z" fill="#E7F0F8"/>
<path d="M251.276 417.235L253.907 413.858L256.912 410.103L255.286 408.852L251.902 413.105L249.646 415.859L251.276 417.235Z" fill="#E7F0F8"/>
<path d="M237.369 398.839L195.894 266.185C194.268 262.306 191.761 259.053 188.505 256.674C185.245 254.298 181.363 252.795 177.227 252.42L101.673 251.918V246.413H30.2559V273.444C30.2559 291.091 44.6631 305.23 62.2062 305.106C76.3625 304.983 93.2797 304.855 108.815 304.983C110.445 304.983 111.947 304.855 113.577 304.604C113.828 304.604 114.079 304.604 114.454 304.604H161.815C163.445 304.604 164.948 305.732 165.45 307.235L181.363 345.778L203.287 398.966L204.793 402.47H238.37L237.369 398.839Z" fill="#6575EA"/>
<path d="M128.234 427.874L110.069 313.74L104.055 310.862L124.978 428.249L128.234 427.874Z" fill="#35324C"/>
<path d="M24.1133 427.874L42.2822 313.74L48.2961 310.862L27.3729 428.249L24.1133 427.874Z" fill="#35324C"/>
<path d="M114.077 368.806L41.1543 324.129L41.7801 323.379L114.703 368.18L114.077 368.806Z" fill="#35324C"/>
<path d="M36.7717 368.431L36.1426 367.678L110.317 324.252L110.947 325.005L36.7717 368.431Z" fill="#35324C"/>
<path d="M124.851 304.356H37.521L10.0819 200.109C9.32895 197.354 6.57467 195.728 3.81705 196.481C1.05942 197.231 -0.567048 199.985 0.182599 202.736C0.182599 202.736 28.3747 309.611 28.5018 309.862C30.2555 316.618 33.2607 314.617 40.4025 314.617H124.979C127.86 314.617 130.116 312.365 130.116 309.487C130.116 306.609 127.736 304.356 124.851 304.356Z" fill="#FFCC8A"/>
<path d="M112.449 33.9149C112.322 17.8979 99.2937 4.88281 83.2566 4.88281C67.2162 4.88281 54.0605 17.8979 54.0605 34.042C54.0605 50.059 66.9652 63.0741 83.0056 63.0741H83.3804C99.1665 62.9503 112.074 50.1862 112.322 34.2897H112.449V33.9149ZM83.3804 58.3185V53.6901H83.0056V58.3185C69.7228 58.1947 58.9466 47.5558 58.8228 34.2897H63.5851V33.9149H58.8228C58.8228 20.525 69.7228 9.63838 83.1294 9.51121V15.3946H83.5042V9.51121C96.787 9.63838 107.687 20.525 107.687 33.9149H103.176V34.2897H107.687C107.436 47.5558 96.6632 58.1947 83.3804 58.3185Z" fill="#BCCBFF"/>
<path d="M81.75 18.0217H84.6315V31.9136H81.75V18.0217Z" fill="#BCCBFF"/>
<path d="M83.041 37.0975L85.0791 35.0627L94.9115 44.8851L92.8734 46.9199L83.041 37.0975Z" fill="#BCCBFF"/>
<path d="M568.147 215.001C562.886 217.755 500.237 227.514 500.237 227.514C500.237 227.514 494.725 239.154 498.108 239.03C501.492 238.903 524.169 244.16 528.305 244.786C532.438 245.412 560.004 239.903 560.004 239.903L576.794 237.403L568.147 215.001Z" fill="#35324C"/>
<path d="M577.296 135.535C591.078 138.537 643.951 158.436 623.152 287.586V302.854H546.096C546.096 302.854 550.483 209.496 555.242 187.72C560.757 162.191 554.867 173.078 572.909 137.41C573.662 135.91 575.539 135.157 577.296 135.535Z" fill="#E9EEFF"/>
<path d="M626.786 250.168V270.442C626.786 292.717 608.366 310.862 585.565 311.113L500.989 311.99L447.362 399.592L438.34 414.233L436.088 423.868L435.084 428.373H392.983L392.608 424.119C392.608 423.995 392.608 423.995 392.608 423.868C392.484 421.867 393.736 420.113 395.617 419.363L418.042 410.354L421.302 399.592L457.513 277.198C460.769 266.312 470.166 258.3 481.568 256.673C514.519 251.918 575.415 249.415 584.685 249.167H583.309H585.94C585.94 249.167 585.565 249.167 584.685 249.167L626.786 250.168Z" fill="#1EB3FB"/>
<path d="M544.968 249.415H467.286L438.719 171.452C442.601 170.073 446.988 172.078 448.367 175.956L472.547 241.908H544.844V249.415H544.968Z" fill="#36314C"/>
<path d="M636.185 427.874L617.641 311.237L611.627 308.235L633.052 428.249L636.185 427.874Z" fill="#35324C"/>
<path d="M532.188 427.874L550.233 313.74L556.37 310.862L535.32 428.249L532.188 427.874Z" fill="#35324C"/>
<path d="M622.151 368.806L549.104 324.129L549.729 323.379L622.653 368.18L622.151 368.806Z" fill="#35324C"/>
<path d="M544.717 368.431L544.219 367.678L618.394 324.252L619.019 325.005L544.717 368.431Z" fill="#35324C"/>
<path d="M607.991 314.617C611 314.617 614.005 314.115 616.763 312.991C625.909 309.487 633.302 302.479 636.936 293.466C643.827 276.198 651.594 251.168 649.714 229.519C649.466 226.263 644.577 225.764 643.449 228.893C637.686 245.412 623.777 272.068 595.21 272.068C583.561 272.068 574.538 273.443 567.647 275.445C554.365 279.2 545.469 290.839 545.593 303.854L545.72 314.741L607.991 314.617Z" fill="#FFCC8A"/>
<path d="M447.488 399.464L438.469 414.106L436.214 423.744L435.21 428.249H393.112L392.737 423.995C392.737 423.868 392.737 423.868 392.737 423.744C392.61 421.743 393.862 419.989 395.743 419.24L418.172 410.227L421.428 399.464H447.488Z" fill="#E9EEFF"/>
<path d="M436.212 423.744L435.208 428.249H393.111L392.736 423.995C392.736 423.868 392.736 423.868 392.736 423.744H436.212Z" fill="#423FAD"/>
<path d="M610.875 250.543C608.495 252.919 605.112 254.421 600.728 254.672C569.654 255.924 540.585 244.91 510.138 244.412C510.138 244.412 510.64 244.412 510.763 244.412C505.251 244.033 498.736 240.282 492.722 239.656C487.836 239.154 483.451 240.282 478.94 241.282C478.063 241.533 477.434 240.282 478.187 239.656C478.438 239.529 478.438 239.278 478.562 239.03C478.562 237.779 478.94 236.527 479.439 235.399V235.275L480.443 230.52C480.567 230.269 480.694 230.018 481.069 229.894C490.968 226.263 496.229 225.014 505.877 229.268C507.005 229.77 508.384 230.018 509.636 229.894L576.17 225.014C576.669 225.014 576.92 224.636 577.047 224.138C577.298 219.757 577.796 214.124 578.426 208.244C580.303 188.222 583.436 163.44 584.938 159.936C588.947 150.301 596.467 147.925 604.61 157.058C612.381 165.943 614.633 178.332 616.012 188.971C616.765 194.727 617.139 201.237 617.139 208.244C617.267 220.008 620.021 241.533 610.875 250.543Z" fill="#FDC5B6"/>
<path d="M617.138 208.117H578.424C580.301 188.094 583.434 163.316 584.936 159.812C588.946 150.177 596.466 147.798 604.608 156.934C612.379 165.819 614.631 178.208 616.01 188.847C616.763 194.604 617.138 201.237 617.138 208.117Z" fill="#E9EEFF"/>
<path d="M138.135 254.046H144.523V428.249H138.135V254.046Z" fill="#BCCBFF"/>
<path d="M79.873 249.542H553.991V254.796H79.873V249.542Z" fill="#BCCBFF"/>
<path d="M505.875 254.046H512.267V428.249H505.875V254.046Z" fill="#BCCBFF"/>
<path d="M54.187 248.789C55.5658 250.292 57.1923 251.419 59.0731 252.169C63.0823 253.672 67.5936 253.545 71.8539 253.17C87.7638 252.045 93.4029 251.918 109.065 249.917C120.591 248.414 143.02 242.283 154.673 242.032C154.673 242.032 154.171 242.032 154.047 242.032C159.559 241.657 166.075 237.779 172.089 237.153C176.975 236.651 181.362 237.779 185.87 238.779C186.747 239.03 187.376 237.779 186.623 237.153C186.372 237.026 186.372 236.778 186.249 236.527C186.249 235.275 185.87 233.9 185.372 232.772V232.648L184.368 227.765C184.244 227.391 184.117 227.14 183.742 227.016L168.833 222.009C168.582 221.885 168.331 222.009 168.204 222.009L158.933 226.263C157.806 226.765 156.427 227.016 155.175 226.889L88.6406 221.885C88.142 221.885 87.891 221.507 87.7638 221.009C87.5161 216.377 87.0141 210.621 86.3883 204.362C84.5075 183.59 81.3751 157.684 79.8724 154.056C75.8632 144.043 68.3433 141.539 60.2009 151.051C52.4334 160.314 50.1777 173.202 48.7989 184.34C48.0459 190.347 47.6711 197.107 47.6711 204.362C47.7949 215.252 45.0406 239.03 54.187 248.789Z" fill="#A0616B"/>
<path d="M87.0151 204.239C85.0105 182.84 82.0019 157.56 80.4992 153.805C78.3674 148.423 75.235 145.294 71.6039 144.668C67.9694 144.043 63.9602 146.171 60.2019 150.676C52.4344 159.936 50.1787 172.827 48.6727 184.092C47.9231 189.848 47.5449 196.481 47.5449 204.115V204.49H87.139L87.0151 204.239Z" fill="#FFCC8A"/>
<path d="M582.055 143.795L579.549 146.546C577.544 148.674 574.164 148.798 572.159 146.797L569.777 144.421L569.402 144.043L568.398 143.169L566.018 140.79L563.512 138.414L570.402 132.53L570.781 132.155L572.658 130.529L573.287 130.027L581.43 136.409C583.809 138.163 584.187 141.666 582.055 143.795Z" fill="#FDC5B6"/>
<path d="M568.398 143.169L566.018 140.79L563.512 138.413L570.402 132.53C570.653 135.783 569.653 140.666 568.398 143.169Z" fill="#35324C"/>
<path d="M580.05 124.645C580.05 122.895 579.799 121.269 579.173 119.639C577.544 115.509 573.036 113.508 568.775 113.133C566.018 112.882 563.009 113.257 560.506 114.134C557.373 115.261 557.373 116.135 557.246 119.264C557.122 124.271 557.748 128.276 562.511 131.027C566.644 133.407 572.159 134.407 576.667 132.279C577.922 131.653 579.05 130.904 579.548 129.652C579.926 128.775 580.05 127.774 580.05 126.774C580.05 126.024 580.05 125.271 580.05 124.645Z" fill="#36314C"/>
<path d="M554.867 130.653C554.867 129.528 554.991 128.4 555.118 127.273C555.868 123.896 554.616 117.765 557.872 116.386C558.25 116.888 562.26 120.516 562.635 120.891C564.89 123.645 569.027 124.773 570.154 128.149C570.904 130.402 569.903 136.034 568.648 137.912C565.516 142.791 558.501 141.79 555.868 137.035C554.867 135.284 554.74 132.905 554.867 130.653Z" fill="#FDC5B6"/>
<path d="M574.914 130.402C574.914 130.643 574.891 130.877 574.844 131.111C574.797 131.345 574.73 131.573 574.64 131.791C574.546 132.011 574.435 132.222 574.302 132.42C574.171 132.617 574.02 132.801 573.85 132.969C573.682 133.139 573.498 133.286 573.301 133.42C573.1 133.554 572.893 133.665 572.672 133.755C572.451 133.845 572.223 133.916 571.989 133.962C571.755 134.009 571.52 134.033 571.28 134.033C571.042 134.033 570.808 134.009 570.573 133.962C570.339 133.916 570.112 133.845 569.891 133.755C569.67 133.665 569.462 133.554 569.262 133.42C569.064 133.286 568.88 133.139 568.713 132.969C568.542 132.801 568.391 132.617 568.261 132.42C568.127 132.222 568.017 132.011 567.923 131.791C567.833 131.573 567.762 131.345 567.719 131.111C567.672 130.877 567.648 130.643 567.648 130.402C567.648 130.164 567.672 129.93 567.719 129.696C567.762 129.461 567.833 129.234 567.923 129.013C568.017 128.795 568.127 128.584 568.261 128.387C568.391 128.19 568.542 128.005 568.713 127.838C568.88 127.667 569.064 127.517 569.262 127.386C569.462 127.252 569.67 127.142 569.891 127.048C570.112 126.958 570.339 126.891 570.573 126.844C570.808 126.797 571.042 126.774 571.28 126.774C571.52 126.774 571.755 126.797 571.989 126.844C572.223 126.891 572.451 126.958 572.672 127.048C572.893 127.142 573.1 127.252 573.301 127.386C573.498 127.517 573.682 127.667 573.85 127.838C574.02 128.005 574.171 128.19 574.302 128.387C574.435 128.584 574.546 128.795 574.64 129.013C574.73 129.234 574.797 129.461 574.844 129.696C574.891 129.93 574.914 130.164 574.914 130.402Z" fill="#FDC5B6"/>
<path d="M573.787 119.391C573.285 121.895 544.219 130.154 545.471 116.513C545.595 115.01 546.85 114.134 547.727 114.759C549.731 116.262 552.864 115.76 555.37 114.385C558.754 112.631 562.01 109.629 565.517 109.127C571.033 108.126 574.915 113.883 573.787 119.391Z" fill="#36314C"/>
<path d="M567.899 131.653C566.771 131.653 565.895 130.78 565.895 129.652V124.394C565.895 123.27 566.771 122.393 567.899 122.393C569.027 122.393 569.904 123.27 569.904 124.394V129.652C569.904 130.78 569.027 131.653 567.899 131.653Z" fill="#36314C"/>
<path d="M562.511 129.15C562.132 129.15 561.885 128.902 561.885 128.524C561.885 128.149 562.132 127.898 562.511 127.898C562.885 127.898 563.136 128.149 563.136 128.524C563.136 128.902 562.885 129.15 562.511 129.15Z" fill="#150077"/>
<path d="M559.877 135.783C559.754 135.783 559.754 135.783 559.63 135.783C558.626 135.659 558.124 134.909 558 134.782L558.502 134.407C558.502 134.407 558.877 135.033 559.63 135.033C560.256 135.033 560.881 134.782 561.507 134.156L562.009 134.658C561.256 135.408 560.507 135.783 559.877 135.783Z" fill="#35324C"/>
<path d="M561.004 133.28H558.25V127.272H558.876V132.53H561.004V133.28Z" fill="#15203D"/>
<path d="M555.493 128.651C555.118 128.651 554.867 128.4 554.867 128.025C554.867 127.651 555.118 127.4 555.493 127.4C555.868 127.4 556.119 127.651 556.119 128.025C556.119 128.4 555.868 128.651 555.493 128.651Z" fill="#150077"/>
</svg>
