<?xml version="1.0" encoding="UTF-8" standalone="no"?>
<!DOCTYPE svg PUBLIC "-//W3C//DTD SVG 1.1//EN" "http://www.w3.org/Graphics/SVG/1.1/DTD/svg11.dtd">
<svg width="100%" height="100%" viewBox="0 0 1440 420" version="1.1" xmlns="http://www.w3.org/2000/svg" xmlns:xlink="http://www.w3.org/1999/xlink" xml:space="preserve" xmlns:serif="http://www.serif.com/" style="fill-rule:evenodd;clip-rule:evenodd;stroke-linejoin:round;stroke-miterlimit:2;">
    <g id="Artboard2" transform="matrix(0.861538,0,0,0.25629,117.369,12.163)">
        <rect x="-136.232" y="-47.458" width="1670.92" height="1637.85" style="fill:none;"/>
        <clipPath id="_clip1">
            <rect x="-136.232" y="-47.458" width="1670.92" height="1637.85"/>
        </clipPath>
        <g clip-path="url(#_clip1)">
            <g id="Artboard1" transform="matrix(0.664648,0,0,3.51206,251.703,146.462)">
                <rect x="-582.696" y="-50.22" width="2510.98" height="1750.32" style="fill:rgb(233,66,66);fill-opacity:0;"/>
                <g>
                    <g transform="matrix(1.74636,0,0,1.11098,-586.498,-76.4009)">
                        <path d="M1,317.689L1440,190L1440,1124L1,1124L1,317.689Z" style="fill:rgb(245,248,255);fill-rule:nonzero;"/>
                    </g>
                    <g transform="matrix(1.74636,0,0,1.11098,-586.498,-76.4009)">
                        <path d="M896.506,124.721C1415.79,-129.254 1512.69,174.652 1411.7,273.621C1288.85,361.051 1151.51,301.195 835.084,269.591C593.945,217.384 -45.745,419.581 -56.264,330.939C-85.82,81.879 568.836,284.979 896.506,124.721Z" style="fill:rgb(245,248,255);fill-rule:nonzero;"/>
                    </g>
                </g>
            </g>
        </g>
    </g>
</svg>
