<?xml version="1.0" encoding="UTF-8"?>
<svg xmlns="http://www.w3.org/2000/svg" xmlns:xlink="http://www.w3.org/1999/xlink" width="810pt" height="809.999993pt" viewBox="0 0 810 809.999993" version="1.2">
<defs>
<clipPath id="clip1">
  <path d="M 181 44 L 682 44 L 682 729.347656 L 181 729.347656 Z M 181 44 "/>
</clipPath>
<clipPath id="clip2">
  <path d="M 199 133.199219 L 681.753906 133.199219 L 681.753906 729.265625 L 199 729.265625 Z M 199 133.199219 "/>
</clipPath>
</defs>
<g id="surface1">
<g clip-path="url(#clip1)" clip-rule="nonzero">
<path style=" stroke:none;fill-rule:nonzero;fill:rgb(34.899902%,28.239441%,65.098572%);fill-opacity:1;" d="M 397.332031 278.382812 C 398.964844 280.054688 400.703125 281.628906 402.367188 283.273438 C 402.867188 282.953125 403.363281 282.632812 403.863281 282.320312 C 405.410156 281.40625 406.953125 280.484375 408.503906 279.582031 C 406.953125 280.484375 405.410156 281.40625 403.863281 282.320312 C 403.363281 282.632812 402.867188 282.953125 402.367188 283.273438 C 400.703125 281.628906 398.957031 280.054688 397.332031 278.382812 Z M 395.714844 276.640625 C 396.222656 277.226562 396.757812 277.796875 397.304688 278.359375 C 396.757812 277.796875 396.222656 277.226562 395.714844 276.640625 Z M 381.972656 239.925781 C 381.957031 242.300781 381.941406 244.667969 381.925781 247.042969 C 378.449219 249.0625 374.96875 251.066406 371.515625 253.125 C 371.148438 253.34375 370.964844 253.859375 370.691406 254.242188 C 370.203125 254.5 369.714844 254.757812 369.226562 255.015625 C 368.867188 255.132812 368.421875 255.144531 368.171875 255.375 C 364.40625 258.859375 359.730469 260.75 355.214844 262.9375 C 353.8125 263.617188 352.664062 264.800781 351.402344 265.753906 C 350.859375 265.945312 350.308594 266.132812 349.757812 266.316406 C 351.097656 268.246094 352.4375 270.175781 353.785156 272.105469 C 352.4375 270.175781 351.097656 268.246094 349.757812 266.316406 C 347.871094 267.152344 345.988281 268 344.09375 268.820312 C 343.234375 269.191406 342.378906 269.570312 341.492188 269.863281 C 338.660156 270.800781 336.132812 269.675781 333.617188 268.605469 C 332.84375 268.242188 332.074219 267.882812 331.304688 267.523438 C 325.847656 264.230469 320.386719 260.933594 314.925781 257.640625 C 313.320312 262.964844 311.710938 268.296875 310.101562 273.621094 C 311.710938 268.296875 313.320312 262.964844 314.925781 257.640625 L 314.894531 257.617188 C 317.019531 257.148438 319.121094 256.53125 321.273438 256.238281 C 326.867188 255.488281 332.5 254.980469 338.082031 254.191406 C 349.070312 252.625 360.039062 250.957031 371.003906 249.242188 C 372.050781 249.078125 373.164062 248.449219 373.957031 247.71875 C 376.699219 245.195312 379.3125 242.535156 381.972656 239.925781 C 382.507812 239.128906 383.023438 238.320312 383.539062 237.511719 C 383.023438 238.320312 382.507812 239.128906 381.972656 239.925781 Z M 380.039062 260.058594 C 379.585938 260.070312 379.125 260.082031 378.667969 260.09375 C 378.066406 260.429688 377.460938 260.773438 376.855469 261.109375 C 377.460938 260.773438 378.066406 260.429688 378.667969 260.09375 C 379.125 260.082031 379.585938 260.070312 380.039062 260.058594 C 380.152344 260.515625 380.285156 260.941406 380.457031 261.351562 C 380.285156 260.941406 380.152344 260.515625 380.039062 260.058594 Z M 369.828125 264.605469 C 369.957031 266.019531 370.304688 267.328125 370.808594 268.550781 C 370.304688 267.328125 369.957031 266.019531 369.828125 264.605469 Z M 367.960938 265.714844 C 368.140625 266.847656 368.449219 267.914062 368.839844 268.9375 C 368.449219 267.914062 368.140625 266.847656 367.960938 265.714844 Z M 357.113281 271.125 C 356.503906 270.839844 355.78125 270.660156 355.214844 270.335938 C 355.78125 270.660156 356.503906 270.839844 357.113281 271.125 C 357.613281 275.722656 358.980469 279.992188 360.820312 284.09375 C 358.980469 279.992188 357.613281 275.722656 357.113281 271.125 Z M 323.609375 292.023438 C 323.875 289.613281 324.035156 287.195312 323.976562 284.761719 C 324.035156 287.195312 323.875 289.613281 323.609375 292.023438 Z M 249.230469 316.011719 C 247.441406 315.101562 245.683594 314.113281 243.902344 313.195312 C 245.683594 314.113281 247.441406 315.101562 249.230469 316.011719 Z M 243.714844 313.09375 C 243.097656 312.777344 242.476562 312.46875 241.855469 312.171875 C 242.476562 312.46875 243.097656 312.777344 243.714844 313.09375 Z M 248.160156 270.273438 C 248.160156 270.273438 248.160156 270.277344 248.15625 270.277344 C 247.046875 270.464844 245.925781 270.777344 244.8125 270.90625 C 245.925781 270.777344 247.046875 270.464844 248.160156 270.273438 Z M 259.984375 313.085938 C 260.636719 313.445312 261.265625 313.867188 261.957031 314.152344 C 261.265625 313.867188 260.636719 313.445312 259.984375 313.085938 C 259.371094 312.886719 258.765625 312.675781 258.160156 312.46875 C 258.765625 312.675781 259.371094 312.886719 259.984375 313.085938 Z M 270.050781 269.140625 C 269.734375 269.429688 269.433594 269.738281 269.140625 270.074219 C 269.433594 269.738281 269.734375 269.429688 270.050781 269.140625 Z M 274.035156 266.808594 C 274.933594 266.472656 275.828125 266.132812 276.71875 265.792969 C 275.828125 266.132812 274.933594 266.472656 274.035156 266.808594 C 273.535156 266.945312 273.066406 267.125 272.625 267.332031 C 273.070312 267.125 273.535156 266.945312 274.035156 266.808594 Z M 284.757812 307.519531 C 283.980469 312.257812 283.195312 316.988281 282.414062 321.722656 C 283.082031 322.019531 283.746094 322.324219 284.40625 322.621094 C 286.53125 323.492188 288.648438 324.355469 290.773438 325.222656 C 293.953125 326.515625 297.128906 327.804688 300.304688 329.101562 C 300.695312 327.085938 301.105469 325.085938 301.507812 323.074219 C 301.105469 325.085938 300.695312 327.085938 300.304688 329.101562 C 297.128906 327.804688 293.953125 326.515625 290.773438 325.222656 C 288.648438 324.355469 286.53125 323.492188 284.40625 322.621094 C 283.746094 322.324219 283.082031 322.019531 282.414062 321.722656 C 283.195312 316.988281 283.980469 312.257812 284.757812 307.519531 Z M 297.371094 261.839844 C 301.496094 260.753906 305.617188 259.660156 309.742188 258.585938 C 305.617188 259.660156 301.496094 260.753906 297.371094 261.839844 C 297.964844 263.335938 298.558594 264.835938 299.148438 266.328125 C 298.558594 264.835938 297.964844 263.335938 297.371094 261.839844 C 296.136719 261.933594 294.898438 262.023438 293.664062 262.113281 C 294.898438 262.023438 296.136719 261.933594 297.371094 261.839844 Z M 310.214844 276.882812 C 310.0625 276.625 309.910156 276.367188 309.757812 276.113281 C 309.910156 276.367188 310.0625 276.625 310.214844 276.882812 C 310.886719 277.214844 311.554688 277.542969 312.21875 277.882812 C 311.554688 277.542969 310.886719 277.214844 310.214844 276.882812 Z M 312.5 257.925781 C 313.308594 257.832031 314.113281 257.738281 314.921875 257.640625 C 314.113281 257.738281 313.308594 257.832031 312.5 257.933594 C 312.5 257.933594 312.5 257.925781 312.5 257.925781 Z M 233.996094 302.089844 C 234.0625 302.132812 234.128906 302.171875 234.199219 302.210938 C 234.128906 302.171875 234.0625 302.132812 233.996094 302.089844 C 234.851562 299.367188 235.558594 296.566406 236.484375 293.867188 C 235.558594 296.566406 234.851562 299.367188 233.996094 302.089844 Z M 681.714844 414.300781 C 681.636719 413.152344 681.71875 411.957031 681.414062 410.882812 C 679.5625 404.359375 676.886719 398.300781 671.441406 393.890625 C 670.359375 393.015625 669.863281 392.015625 670.476562 390.640625 C 671.242188 388.917969 670.546875 387.402344 669.535156 386.109375 C 668.480469 384.753906 667.207031 383.582031 666.003906 382.351562 C 664.367188 380.6875 662.484375 380.636719 660.476562 381.574219 C 657.617188 382.902344 654.785156 384.289062 651.898438 385.558594 C 650.828125 386.035156 650.199219 386.734375 649.941406 387.835938 C 645.644531 387.820312 641.28125 388.257812 637.066406 387.652344 C 633.253906 387.105469 629.65625 387.667969 626.019531 388.160156 C 620.46875 388.914062 614.964844 390.011719 609.445312 390.96875 C 607.464844 391.1875 605.484375 391.410156 603.507812 391.628906 C 593.339844 392.773438 583.164062 393.867188 573.003906 395.078125 C 568.355469 395.636719 563.742188 396.5 559.101562 397.101562 C 555.222656 397.597656 551.328125 397.949219 547.429688 398.304688 C 545.433594 398.492188 543.421875 398.480469 541.425781 398.664062 C 535.910156 399.183594 530.453125 400.328125 524.855469 400 C 523.214844 399.90625 521.988281 399.5 520.960938 398.105469 C 518.308594 394.484375 515.511719 390.960938 512.777344 387.402344 C 512.484375 387.023438 512.21875 386.625 511.898438 386.269531 C 508.945312 382.976562 506.375 379.394531 504.605469 375.34375 C 502.367188 370.226562 499.308594 365.605469 496.355469 360.90625 C 496.875 360.671875 497.375 360.347656 497.921875 360.214844 C 502.921875 359.039062 506.824219 355.851562 510.867188 352.984375 C 512 352.179688 512.902344 350.9375 513.644531 349.730469 C 514.75 347.933594 515.097656 346.015625 513.703125 344.101562 C 511.113281 340.550781 508.617188 336.917969 505.96875 333.40625 C 502.789062 329.195312 499.628906 325.003906 497.523438 320.101562 C 495.898438 316.320312 494.132812 312.59375 492.3125 308.902344 C 491.601562 307.457031 490.667969 306.09375 489.671875 304.828125 C 486.230469 300.46875 482.535156 296.292969 479.289062 291.792969 C 476.4375 287.851562 472.882812 284.941406 468.5625 282.9375 C 464.222656 280.933594 459.890625 278.824219 455.367188 277.320312 C 451.667969 276.089844 447.84375 275.007812 443.871094 275.121094 C 443.304688 275.136719 442.730469 275.175781 442.15625 275.246094 C 442.15625 275.246094 442.15625 275.246094 442.160156 275.246094 C 443.164062 273.96875 444.15625 272.691406 445.171875 271.433594 C 446.273438 270.074219 446.242188 268.703125 445.484375 267.179688 C 444.726562 265.660156 444.167969 264.042969 443.460938 262.5 C 442.507812 260.4375 441.5 258.398438 440.511719 256.355469 C 441.125 255.757812 441.785156 255.207031 442.328125 254.550781 C 443.476562 253.164062 443.433594 251.613281 442.234375 250.46875 C 441.847656 250.105469 441.351562 249.847656 440.925781 249.550781 C 441.617188 248.433594 442.390625 247.523438 442.761719 246.46875 C 443.085938 245.558594 443.316406 244.28125 442.910156 243.539062 C 442.457031 242.710938 441.234375 242.304688 440.484375 241.8125 C 440.558594 240.292969 440.9375 238.636719 440.628906 237.121094 C 440.132812 234.644531 437.882812 236.042969 436.117188 235.761719 C 436.582031 234.5 436.925781 233.441406 437.355469 232.417969 C 437.957031 230.992188 437.777344 229.820312 436.429688 228.9375 C 436.722656 223.484375 437.074219 218.054688 438.234375 212.6875 C 438.78125 210.175781 439.207031 207.570312 439.195312 205.007812 C 439.144531 194.664062 438.128906 184.375 437.234375 174.078125 C 436.425781 164.789062 433.59375 156.070312 429.324219 147.855469 C 428.125 145.550781 426.09375 143.601562 424.1875 141.761719 C 422.621094 140.246094 420.597656 139.21875 418.902344 137.824219 C 415.496094 135.003906 411.628906 133.6875 407.234375 133.832031 C 406.257812 131.621094 405.289062 129.410156 404.3125 127.199219 C 404.128906 127.148438 403.941406 127.097656 403.761719 127.046875 C 403.941406 127.097656 404.128906 127.148438 404.3125 127.199219 C 410.820312 127.335938 417.328125 127.570312 423.839844 127.574219 C 430.148438 127.582031 435.308594 129.882812 438.8125 135.125 C 441.089844 138.53125 443.011719 142.210938 444.777344 145.925781 C 448.035156 152.792969 452.789062 157.351562 460.699219 158.40625 C 467.640625 159.324219 474.105469 158.585938 479.890625 154.5 C 484.199219 151.453125 488.121094 147.921875 491.578125 143.894531 C 493.578125 141.566406 494.902344 138.921875 495.253906 135.914062 C 495.601562 132.878906 495.609375 129.804688 495.769531 126.746094 C 496.066406 121.003906 494.796875 122.003906 500.125 117.1875 C 503.039062 114.5625 505.832031 111.785156 508.484375 108.894531 C 511.167969 105.960938 512.660156 102.371094 512.324219 98.363281 C 511.691406 90.828125 507.921875 85.226562 501.253906 81.625 C 498.167969 79.953125 494.96875 78.789062 491.363281 79.261719 C 486.878906 79.847656 482.445312 80.570312 478.613281 83.246094 C 477.984375 83.679688 477.25 83.953125 476.589844 84.339844 C 474.816406 85.382812 473.164062 85.03125 471.941406 83.5625 C 470.546875 81.882812 469.246094 80.074219 468.207031 78.15625 C 466.757812 75.464844 465.679688 72.566406 464.261719 69.847656 C 463.476562 68.335938 462.511719 66.839844 461.320312 65.636719 C 456.53125 60.804688 450.523438 59.183594 443.941406 59.878906 C 438.191406 60.480469 432.714844 62.25 427.671875 65.1875 C 425.023438 66.726562 422.390625 68.296875 419.714844 69.789062 C 415.152344 72.339844 410.726562 72.585938 406.273438 69.308594 C 403.808594 67.496094 401.953125 65.316406 400.460938 62.6875 C 396.132812 55.050781 390.214844 49.179688 382.007812 45.648438 C 378.582031 44.175781 375.242188 43.796875 371.660156 44.449219 C 367.382812 45.230469 363.480469 47.074219 359.445312 48.574219 C 351.984375 51.339844 345.355469 55.441406 339.113281 60.273438 C 336.507812 62.292969 334.519531 64.875 332.875 67.714844 C 329.691406 73.222656 331.980469 82.617188 338.636719 84.914062 C 340.320312 85.492188 342.1875 85.523438 343.964844 85.8125 C 343.796875 91.867188 343.824219 97.886719 346.496094 103.542969 C 347.242188 105.125 346.929688 106.667969 346.1875 108.238281 C 344.929688 110.921875 345.902344 112.628906 348.898438 112.515625 C 351.390625 112.417969 352.1875 113.644531 352.855469 115.664062 C 354.226562 119.832031 356.519531 123.457031 359.929688 126.285156 C 363.640625 129.359375 367.359375 129.65625 371.597656 127.207031 C 373.65625 126.015625 375.65625 124.738281 377.769531 123.445312 C 379.511719 129.746094 381.207031 135.902344 382.90625 142.054688 C 380.542969 144.011719 378.320312 146.054688 376.675781 148.730469 C 372.574219 155.425781 368.179688 161.941406 364.175781 168.695312 C 360.605469 174.722656 358.519531 181.304688 358.984375 188.410156 C 359.285156 193.003906 360.089844 197.550781 363.0625 201.347656 C 363 201.824219 362.953125 202.300781 362.859375 202.769531 C 361.625 208.761719 360.203125 214.726562 359.226562 220.753906 C 358.789062 223.453125 357.9375 225.023438 355.128906 225.703125 C 348.074219 227.40625 341.058594 229.304688 334.066406 231.246094 C 322.089844 234.5625 309.945312 237.273438 298.363281 241.957031 C 294.6875 243.445312 290.667969 244.074219 286.800781 245.09375 C 282.574219 239.386719 277.359375 235.015625 270.402344 233.023438 C 269.703125 232.636719 269 232.246094 268.300781 231.855469 C 266.183594 229.15625 263.050781 228.523438 259.984375 227.773438 C 258.3125 227.367188 256.636719 226.996094 254.964844 226.628906 C 253.117188 226.210938 251.265625 225.808594 249.417969 225.402344 C 249.417969 225.402344 249.417969 225.402344 249.410156 225.402344 C 247.488281 221.296875 245.132812 217.378906 243.703125 212.929688 C 245.519531 212.183594 247.117188 211.570312 248.675781 210.882812 C 251.210938 209.765625 252.398438 207.75 252.589844 205.03125 C 252.75 202.660156 252.1875 200.472656 251.277344 198.339844 C 249.679688 194.570312 248.070312 190.808594 246.390625 186.867188 C 246.570312 186.574219 246.90625 186.101562 247.164062 185.597656 C 248.714844 182.511719 247.9375 180.804688 245.234375 179.554688 C 243.734375 178.859375 242.21875 177.722656 241.277344 176.382812 C 239.089844 173.273438 237.246094 169.917969 235.261719 166.664062 C 235.515625 166.378906 235.726562 166.035156 236.03125 165.816406 C 239.417969 163.398438 238.648438 156.664062 235.390625 154.066406 C 231.667969 151.109375 227.453125 150.066406 222.761719 150.695312 C 221.082031 150.917969 219.375 151.027344 217.679688 151.078125 C 214.152344 151.183594 210.617188 151.105469 207.09375 151.3125 C 202.53125 151.582031 198.292969 152.882812 194.574219 155.710938 C 189.484375 159.582031 186.265625 164.898438 183.160156 170.300781 C 182.695312 171.109375 182.425781 172.085938 182.261719 173.015625 C 181.25 178.875 181.226562 184.6875 184.074219 190.101562 C 187.8125 197.207031 191.664062 204.25 195.535156 211.28125 C 197.734375 215.269531 201.328125 216.617188 205.695312 216.296875 C 207.113281 219.917969 208.414062 223.585938 209.988281 227.136719 C 211.871094 231.367188 213.996094 235.492188 216.011719 239.664062 C 215.816406 240.195312 215.734375 240.808594 215.414062 241.25 C 212.667969 245.054688 211.398438 249.488281 209.964844 253.855469 C 209.613281 254.785156 209.265625 255.714844 208.917969 256.648438 C 206.03125 264.789062 205.839844 273.066406 207.707031 281.4375 C 207.859375 282.15625 208.007812 282.875 208.160156 283.59375 C 209.683594 289.378906 211.042969 295.21875 212.820312 300.925781 C 213.46875 303.019531 215.105469 304.808594 216.292969 306.734375 C 218.625 304.714844 220.957031 302.699219 223.296875 300.679688 C 222.054688 298.453125 220.789062 296.246094 219.605469 293.996094 C 220.789062 296.246094 222.054688 298.453125 223.296875 300.679688 C 223.839844 301.117188 224.386719 301.5625 224.933594 302.003906 C 224.386719 301.5625 223.839844 301.117188 223.296875 300.679688 C 220.957031 302.699219 218.625 304.714844 216.292969 306.734375 C 216.648438 307.132812 217 307.527344 217.351562 307.925781 C 217.734375 309.070312 217.925781 310.328125 218.523438 311.34375 C 220.3125 314.378906 222.183594 317.367188 224.164062 320.273438 C 225.210938 321.824219 226.550781 323.164062 227.761719 324.601562 C 228.027344 325.011719 228.285156 325.421875 228.546875 325.832031 C 231.085938 329.9375 233.285156 334.320312 236.265625 338.078125 C 238.980469 341.496094 240.0625 345.222656 240.570312 349.324219 C 240.734375 350.078125 240.894531 350.824219 241.058594 351.574219 C 241.023438 359.507812 241.648438 367.472656 239.910156 375.324219 C 239.886719 376.039062 239.871094 376.757812 239.847656 377.476562 C 239.667969 378.011719 239.40625 378.519531 239.332031 379.066406 C 238.761719 383.101562 238.417969 387.171875 237.644531 391.164062 C 236.835938 395.316406 236.925781 399.460938 236.964844 403.632812 C 237.015625 404.34375 237.0625 405.0625 237.105469 405.78125 C 237.644531 412.09375 241.34375 415.722656 247.078125 417.722656 C 248.945312 418.367188 250.722656 419.265625 252.539062 420.050781 C 252.898438 420.0625 253.25 420.074219 253.609375 420.089844 C 253.25 420.074219 252.898438 420.0625 252.539062 420.050781 C 252.679688 421.671875 252.742188 423.300781 252.96875 424.90625 C 253.992188 432.121094 254.691406 439.347656 254.785156 446.648438 C 254.855469 452.097656 254.304688 457.585938 255.5 462.988281 C 255.746094 464.105469 255.945312 465.253906 255.996094 466.394531 C 256.378906 475.003906 256.789062 483.609375 257.058594 492.21875 C 257.265625 498.734375 257.117188 505.257812 257.414062 511.769531 C 257.710938 518.460938 258.355469 525.144531 258.84375 531.835938 C 259.035156 534.410156 259.410156 536.996094 259.332031 539.566406 C 259.191406 543.984375 259.472656 548.335938 260.101562 552.714844 C 260.5 555.515625 260.332031 558.34375 259.109375 561.0625 C 257.582031 564.46875 256.289062 567.976562 254.953125 571.460938 C 252.320312 578.347656 249.859375 585.304688 247.074219 592.128906 C 245.089844 596.992188 242.425781 601.59375 240.515625 606.492188 C 236.625 616.480469 233.058594 626.59375 230.195312 636.933594 C 228.125 644.402344 225.933594 651.839844 224.117188 659.367188 C 223.324219 662.664062 222.140625 665.933594 222.15625 669.40625 C 229.117188 672.667969 236.074219 675.945312 243.042969 679.1875 C 236.074219 675.945312 229.117188 672.667969 222.15625 669.40625 C 220.839844 668.875 219.546875 668.257812 218.1875 667.824219 C 216.238281 667.207031 215.207031 667.902344 215.234375 669.972656 C 215.257812 672.054688 215.621094 674.136719 215.726562 676.230469 C 215.875 679.042969 215.402344 681.964844 217.488281 684.34375 C 211.757812 689.054688 206.023438 693.753906 199.980469 698.714844 C 202.179688 701.558594 204.359375 704.449219 206.613281 707.273438 C 207.796875 708.761719 209.277344 708.972656 210.957031 708.007812 C 211.667969 707.605469 212.480469 707.378906 213.453125 706.992188 C 214.65625 709.589844 215.824219 711.988281 216.867188 714.433594 C 217.351562 715.570312 217.96875 716.351562 219.21875 716.699219 C 224.089844 718.0625 228.984375 719.382812 233.804688 720.917969 C 241.550781 723.394531 249.242188 726.03125 256.957031 728.589844 C 257.769531 728.859375 258.613281 729.324219 259.410156 729.253906 C 262.355469 729.003906 265.292969 728.574219 268.226562 728.203125 C 269.585938 728.027344 269.9375 727.148438 269.769531 725.9375 C 269.613281 724.800781 269.394531 723.667969 269.269531 722.53125 C 268.21875 712.773438 263.066406 707.972656 254.691406 707.339844 C 252.527344 707.175781 250.335938 707.316406 248.128906 707.316406 C 246.183594 704.191406 244.308594 701.183594 242.4375 698.175781 C 242.722656 698.203125 243.015625 698.203125 243.289062 698.273438 C 245.890625 698.917969 245.890625 698.921875 247.421875 696.707031 C 249.148438 694.210938 250.925781 691.742188 252.566406 689.1875 C 253.464844 687.796875 254.136719 686.246094 254.984375 684.632812 C 252.953125 683.648438 251.261719 682.835938 249.566406 682.023438 C 250.257812 680.660156 250.941406 679.289062 251.628906 677.925781 C 253.660156 673.90625 255.628906 669.867188 257.730469 665.894531 C 259.0625 663.363281 260.582031 660.960938 262.589844 658.839844 C 265.21875 656.050781 267.226562 652.804688 268.996094 649.363281 C 272.1875 643.164062 274.972656 636.734375 279.058594 631.015625 C 281.117188 628.136719 282.949219 625.101562 284.90625 622.15625 C 286.066406 620.402344 287.164062 618.597656 288.476562 616.957031 C 294.519531 609.386719 300.191406 601.601562 304.003906 592.582031 C 307.910156 583.335938 313.042969 574.621094 316.003906 564.964844 C 316.054688 564.804688 316.261719 564.699219 316.394531 564.570312 C 316.59375 565.503906 316.777344 566.433594 316.992188 567.359375 C 318.082031 572.269531 319.1875 577.179688 320.285156 582.089844 C 320.652344 585.507812 320.875 588.953125 321.417969 592.347656 C 322.136719 596.773438 323.207031 601.144531 323.933594 605.574219 C 325.523438 615.195312 326.957031 624.835938 328.507812 634.464844 C 329.457031 640.3125 330.53125 646.136719 331.492188 651.980469 C 332.8125 659.992188 334.035156 668.023438 335.394531 676.027344 C 336.058594 679.984375 336.941406 683.902344 337.726562 687.835938 C 336.792969 688.257812 335.871094 688.671875 334.667969 689.210938 C 335.363281 690.523438 335.886719 691.621094 336.515625 692.667969 C 337.863281 694.921875 339.265625 697.148438 340.652344 699.390625 C 340.710938 705.871094 340.78125 712.351562 342.429688 718.652344 C 344.097656 718.945312 345.617188 719.117188 347.085938 719.488281 C 352.417969 720.835938 352.449219 719.984375 353.707031 715.980469 C 353.734375 715.902344 353.847656 715.851562 354.035156 715.683594 C 355.179688 716.417969 356.4375 717.082031 357.527344 717.957031 C 360.191406 720.089844 363.023438 720.789062 366.535156 720.628906 C 378.875 720.050781 391.234375 719.898438 403.582031 719.566406 C 404.316406 719.550781 405.046875 719.386719 405.730469 719.296875 C 405.875 718.820312 406.066406 718.535156 406.023438 718.289062 C 405.007812 713.070312 403.53125 707.996094 399.921875 703.917969 C 395.707031 699.140625 390.523438 696.347656 383.941406 697.171875 C 379.675781 697.707031 375.445312 698.464844 371.1875 699.082031 C 369.984375 699.253906 368.757812 699.277344 367.539062 699.367188 C 367.921875 698.714844 368.472656 698.113281 368.667969 697.40625 C 369.585938 694.109375 370.4375 690.785156 371.25 687.460938 C 371.738281 685.449219 370.769531 684.492188 368.648438 684.722656 C 367.613281 684.832031 366.566406 684.878906 365.527344 684.945312 C 365.847656 683.058594 366.15625 681.167969 366.503906 679.289062 C 366.605469 678.738281 366.6875 678.097656 367.019531 677.699219 C 368.539062 675.84375 368.375 673.710938 367.882812 671.664062 C 366.84375 667.335938 366.671875 662.949219 366.527344 658.539062 C 366.351562 653.371094 366.132812 648.195312 365.703125 643.039062 C 364.851562 632.890625 364.765625 622.730469 365.542969 612.59375 C 366.101562 605.304688 366.03125 598.046875 365.625 590.765625 C 365.050781 580.816406 364.457031 570.867188 364.148438 560.90625 C 363.90625 553.222656 363.003906 545.644531 361.753906 538.085938 C 361.238281 534.976562 360.601562 531.878906 360.265625 528.746094 C 359.148438 518.460938 358.398438 508.132812 357.042969 497.878906 C 355.535156 486.488281 353.511719 475.171875 351.722656 463.820312 C 349.78125 451.511719 347.515625 439.273438 344.804688 427.121094 C 343.890625 423.007812 342.714844 418.882812 342.472656 414.714844 C 342.074219 407.90625 339.984375 401.578125 338.132812 395.148438 C 338.683594 394.273438 339.273438 393.414062 339.769531 392.503906 C 340.410156 391.347656 341.195312 390.203125 341.53125 388.953125 C 342.9375 383.636719 343.320312 378.28125 341.664062 372.921875 C 341.484375 372.324219 341.3125 371.730469 341.132812 371.140625 C 340.941406 369.929688 340.796875 368.707031 340.550781 367.511719 C 339.570312 362.769531 338.558594 358.039062 337.5625 353.308594 C 337.367188 352.496094 337.164062 351.6875 336.960938 350.878906 C 336.042969 345.054688 333.941406 339.695312 330.632812 334.808594 C 331.273438 333.886719 331.917969 332.960938 332.554688 332.042969 C 332.550781 332.042969 332.539062 332.042969 332.527344 332.042969 C 332.742188 331.863281 332.953125 331.675781 333.167969 331.492188 C 337.730469 330.171875 342.265625 328.800781 346.027344 325.703125 C 346.027344 325.695312 346.027344 325.695312 346.027344 325.695312 C 346.664062 325.230469 347.304688 324.765625 347.945312 324.292969 C 348.371094 324.097656 348.839844 323.949219 349.226562 323.6875 C 355.4375 319.496094 361.671875 315.335938 367.820312 311.042969 C 369.253906 310.039062 370.382812 308.59375 371.65625 307.347656 C 369.808594 304.339844 367.910156 301.363281 366.144531 298.3125 C 367.910156 301.363281 369.808594 304.339844 371.648438 307.339844 C 372.042969 307.003906 372.429688 306.667969 372.816406 306.332031 C 373.488281 306.011719 374.226562 305.785156 374.808594 305.347656 C 378.667969 302.453125 382.496094 299.523438 386.300781 296.574219 C 386.722656 296.246094 386.964844 295.699219 387.289062 295.253906 C 386.894531 294.582031 386.496094 293.914062 386.101562 293.238281 C 386.496094 293.914062 386.894531 294.582031 387.28125 295.253906 C 387.816406 295.03125 388.34375 294.8125 388.875 294.59375 C 389.945312 294.003906 391.023438 293.417969 392.097656 292.835938 C 393.628906 294.625 395.140625 296.453125 397.835938 296.34375 C 397.160156 297.917969 396.335938 299.453125 395.835938 301.085938 C 394.015625 307 394.160156 312.96875 395.585938 318.945312 C 396.554688 323.035156 397.570312 327.121094 398.492188 331.222656 C 399.609375 336.167969 400.34375 341.222656 401.765625 346.070312 C 406.195312 361.109375 410.859375 376.074219 415.457031 391.0625 C 415.792969 392.152344 416.210938 393.246094 416.777344 394.234375 C 417.820312 396.078125 419.40625 396.757812 421.363281 395.960938 C 423.554688 395.0625 425.625 393.851562 427.742188 392.773438 C 428.0625 393.976562 428.386719 395.179688 428.691406 396.386719 C 430.074219 401.882812 431.800781 407.230469 434.25 412.375 C 437.957031 420.15625 441.363281 428.082031 444.96875 435.914062 C 446.332031 438.867188 447.851562 441.75 449.367188 444.628906 C 451.0625 447.84375 452.84375 451.019531 454.578125 454.222656 C 455.351562 455.65625 456.0625 457.117188 456.863281 458.539062 C 458.199219 460.90625 460.300781 462.058594 462.96875 462.242188 C 465.355469 462.40625 467.738281 462.667969 470.125 462.675781 C 473.085938 462.683594 476.078125 462.730469 478.992188 462.308594 C 486 461.304688 492.949219 459.898438 500.109375 460.324219 C 502.195312 460.453125 504.320312 460.195312 506.402344 459.914062 C 507.6875 459.738281 508.898438 459.027344 510.1875 458.832031 C 516.050781 457.921875 521.953125 457.230469 527.804688 456.238281 C 533.652344 455.238281 539.480469 454.113281 545.265625 452.792969 C 555.8125 450.398438 566.304688 447.78125 576.835938 445.328125 C 580.355469 444.511719 583.933594 443.910156 587.480469 443.207031 C 590.027344 442.921875 592.570312 442.652344 595.109375 442.34375 C 599.398438 441.824219 603.597656 440.230469 608.015625 441.378906 C 608.375 441.476562 608.78125 441.433594 609.152344 441.375 C 611.28125 441.019531 613.414062 440.660156 615.535156 440.261719 C 617.582031 439.882812 619.671875 439.621094 621.652344 439.011719 C 624.28125 438.203125 626.820312 437.101562 629.398438 436.128906 C 630.648438 436.3125 631.90625 436.492188 633.339844 436.703125 C 633.382812 436.878906 633.554688 437.234375 633.5625 437.597656 C 633.703125 442.371094 635.109375 447.058594 634.511719 451.882812 C 634.417969 452.640625 634.449219 453.421875 634.527344 454.179688 C 634.847656 457.160156 637.785156 460.351562 640.46875 460.316406 C 644.5 460.265625 646.574219 459.261719 647.5625 455.082031 C 648.078125 452.882812 648.117188 450.535156 648.144531 448.257812 C 648.160156 446.453125 647.875 444.632812 647.652344 442.832031 C 646.996094 437.53125 646.925781 432.097656 644.410156 427.175781 C 644.246094 426.855469 644.035156 426.324219 644.175781 426.117188 C 645.492188 424.203125 644.304688 422.386719 643.96875 420.578125 C 643.554688 418.316406 643.132812 417.800781 640.941406 417.980469 C 636.679688 418.332031 632.453125 419.050781 628.210938 419.617188 C 624.191406 419.578125 620.171875 419.472656 616.160156 419.535156 C 613.691406 419.574219 611.226562 419.972656 608.761719 420.011719 C 606.804688 420.039062 604.839844 419.765625 602.878906 419.625 C 606.90625 418.253906 610.929688 416.886719 614.953125 415.515625 C 615.425781 415.453125 615.921875 415.464844 616.367188 415.320312 C 622.34375 413.304688 628.3125 411.28125 634.277344 409.238281 C 635.429688 408.839844 636.804688 408.636719 637.648438 407.875 C 638.90625 406.742188 640.289062 406.074219 641.789062 405.417969 C 645.378906 403.839844 648.894531 402.09375 652.4375 400.417969 C 653.6875 401.953125 655.257812 401.734375 656.886719 401.246094 C 659.65625 400.421875 661.921875 401.015625 663.675781 403.464844 C 666.015625 406.710938 668.882812 409.5625 670.609375 413.265625 C 671.292969 414.726562 672.226562 416.101562 673.234375 417.363281 C 674.558594 419.019531 677.363281 419.558594 679.25 418.894531 C 681.535156 418.09375 681.859375 416.339844 681.714844 414.300781 "/>
</g>
<path style=" stroke:none;fill-rule:nonzero;fill:rgb(98.039246%,73.728943%,64.309692%);fill-opacity:1;" d="M 243.703125 212.929688 C 245.519531 212.183594 247.117188 211.570312 248.675781 210.882812 C 251.210938 209.765625 252.398438 207.75 252.589844 205.03125 C 252.75 202.660156 252.1875 200.472656 251.277344 198.339844 C 249.679688 194.570312 248.070312 190.808594 246.390625 186.867188 C 246.570312 186.574219 246.90625 186.101562 247.164062 185.597656 C 248.714844 182.511719 247.9375 180.804688 245.234375 179.554688 C 243.734375 178.859375 242.21875 177.722656 241.277344 176.382812 C 239.089844 173.273438 237.246094 169.917969 235.261719 166.664062 C 233.214844 167.0625 231.183594 167.707031 229.128906 167.777344 C 227.242188 167.84375 225.804688 168.484375 224.546875 169.726562 C 222.222656 172.019531 221.804688 174.941406 222.230469 177.945312 C 222.550781 180.199219 223.390625 182.375 223.882812 184.609375 C 224.167969 185.90625 224.277344 187.242188 224.355469 188.570312 C 224.410156 189.59375 224 190.496094 222.9375 190.816406 C 221.726562 191.179688 220.644531 190.871094 219.925781 189.777344 C 219.5625 189.222656 219.367188 188.554688 219.019531 187.988281 C 217.359375 185.3125 216.933594 181.757812 213.570312 180.277344 C 213.367188 180.195312 213.265625 179.800781 213.175781 179.53125 C 212.789062 178.371094 212 177.824219 210.785156 177.960938 C 209.5625 178.089844 209 178.941406 208.613281 179.984375 C 207.21875 183.734375 208.855469 187.554688 212.550781 188.8125 C 214.628906 189.523438 215.558594 190.78125 215.777344 192.988281 C 216.339844 198.558594 214.578125 203.570312 212.402344 208.503906 C 210.964844 211.769531 209.257812 214.84375 205.695312 216.296875 C 207.113281 219.917969 208.414062 223.585938 209.988281 227.136719 C 211.871094 231.367188 213.996094 235.492188 216.011719 239.664062 C 225.449219 230.914062 237.054688 227.285156 249.410156 225.402344 C 247.488281 221.296875 245.132812 217.378906 243.703125 212.929688 "/>
<path style=" stroke:none;fill-rule:nonzero;fill:rgb(98.039246%,73.728943%,64.309692%);fill-opacity:1;" d="M 406.21875 202.171875 C 401.722656 199.535156 397.222656 197.511719 392.421875 196.128906 C 390.964844 195.707031 389.378906 195.328125 388.183594 194.464844 C 385.289062 192.351562 381.964844 191.628906 378.589844 190.929688 C 377.65625 190.730469 376.695312 190.558594 375.824219 190.175781 C 372.996094 188.929688 370.058594 189.25 366.953125 189.304688 C 366.570312 190.484375 366.230469 191.5625 365.882812 192.644531 C 364.945312 195.546875 364.003906 198.449219 363.0625 201.347656 C 363 201.824219 362.953125 202.300781 362.859375 202.769531 C 361.625 208.761719 360.203125 214.726562 359.226562 220.753906 C 358.789062 223.453125 357.9375 225.023438 355.128906 225.703125 C 348.074219 227.40625 341.058594 229.304688 334.066406 231.246094 C 322.089844 234.5625 309.945312 237.273438 298.363281 241.957031 C 294.6875 243.445312 290.667969 244.074219 286.800781 245.09375 C 283.621094 246.570312 280.273438 246.277344 276.957031 245.917969 C 275.632812 245.777344 274.300781 245.449219 273.058594 244.960938 C 268.632812 243.21875 264.191406 243.914062 259.769531 244.832031 C 257.105469 245.378906 256.367188 246.734375 256.753906 249.703125 C 256.640625 249.796875 256.511719 250.011719 256.363281 250.027344 C 252.65625 250.480469 249.773438 252.550781 247.144531 254.941406 C 244.675781 257.191406 242.386719 259.648438 240.070312 262.074219 C 239.488281 262.6875 239.035156 263.464844 238.691406 264.246094 C 238.441406 264.808594 238.183594 265.855469 238.429688 266.046875 C 238.917969 266.441406 239.765625 266.519531 240.449219 266.480469 C 241.355469 266.433594 242.257812 266.152344 243.441406 265.917969 C 242.917969 266.980469 242.492188 267.714844 242.183594 268.5 C 241.535156 270.144531 241.910156 270.929688 243.699219 270.96875 C 245.179688 271.003906 246.675781 270.523438 248.160156 270.273438 C 249.625 269.234375 251.085938 268.203125 252.542969 267.164062 C 252.65625 267.242188 252.761719 267.316406 252.871094 267.394531 C 251.882812 269.117188 250.890625 270.832031 249.898438 272.554688 C 251.058594 274.585938 252.007812 275.035156 253.960938 274.003906 C 255.632812 273.128906 257.136719 271.929688 258.683594 270.828125 C 259.742188 270.070312 260.757812 269.238281 262.226562 268.710938 C 261.648438 270.832031 261.074219 272.953125 260.488281 275.113281 C 262.242188 276.175781 263.597656 275.675781 264.765625 274.578125 C 266.289062 273.140625 267.773438 271.660156 269.140625 270.074219 C 270.492188 268.511719 272.046875 267.359375 274.035156 266.808594 C 274.933594 266.472656 275.828125 266.132812 276.71875 265.792969 C 277.753906 265.609375 278.785156 265.386719 279.820312 265.238281 C 282.757812 264.828125 285.722656 264.566406 288.339844 262.949219 C 288.8125 262.65625 289.410156 262.472656 289.964844 262.421875 C 292.433594 262.191406 294.90625 262.03125 297.371094 261.839844 C 301.496094 260.753906 305.617188 259.660156 309.742188 258.585938 C 310.65625 258.347656 311.582031 258.144531 312.5 257.925781 C 313.308594 257.832031 314.121094 257.738281 314.925781 257.640625 C 314.925781 257.640625 314.894531 257.617188 314.894531 257.617188 C 317.019531 257.148438 319.121094 256.53125 321.273438 256.238281 C 326.867188 255.488281 332.5 254.980469 338.082031 254.191406 C 349.070312 252.625 360.039062 250.957031 371.003906 249.242188 C 372.050781 249.078125 373.164062 248.449219 373.957031 247.71875 C 376.699219 245.195312 379.3125 242.535156 381.972656 239.925781 C 384.097656 236.738281 386 233.371094 388.390625 230.402344 C 393.824219 223.664062 398.351562 216.335938 402.832031 208.96875 C 404.109375 206.859375 405.046875 204.542969 406.21875 202.171875 "/>
<path style=" stroke:none;fill-rule:nonzero;fill:rgb(98.039246%,73.728943%,64.309692%);fill-opacity:1;" d="M 346.1875 108.238281 C 344.929688 110.921875 345.902344 112.628906 348.898438 112.515625 C 351.390625 112.417969 352.1875 113.644531 352.855469 115.664062 C 354.226562 119.832031 356.519531 123.457031 359.929688 126.285156 C 363.640625 129.359375 367.359375 129.65625 371.597656 127.207031 C 373.65625 126.015625 375.65625 124.738281 377.769531 123.445312 C 379.511719 129.746094 381.207031 135.902344 382.90625 142.054688 C 386.179688 141.636719 388.601562 139.632812 391.027344 137.660156 C 393.402344 135.71875 395.863281 134.21875 399.054688 133.738281 C 401.84375 133.316406 404.515625 133.5625 407.234375 133.832031 C 406.257812 131.621094 405.289062 129.410156 404.3125 127.199219 C 404.128906 127.148438 403.941406 127.097656 403.761719 127.046875 C 394.742188 124.597656 387.417969 120.214844 384.480469 110.566406 C 383.628906 107.785156 381.519531 105.960938 378.875 104.738281 C 376.351562 103.570312 373.695312 103.605469 371.011719 103.558594 C 366.195312 103.480469 363.390625 101.15625 362.253906 96.488281 C 361.714844 94.261719 361.351562 91.976562 360.613281 89.816406 C 360.203125 88.617188 359.417969 87.285156 358.402344 86.609375 C 355.214844 84.457031 351.722656 83.351562 347.832031 84.746094 C 346.574219 85.195312 345.253906 85.457031 343.964844 85.8125 C 343.796875 91.867188 343.824219 97.886719 346.496094 103.542969 C 347.242188 105.125 346.929688 106.667969 346.1875 108.238281 "/>
<path style=" stroke:none;fill-rule:nonzero;fill:rgb(98.039246%,73.728943%,64.309692%);fill-opacity:1;" d="M 438.027344 257.664062 C 438.769531 257.109375 439.675781 256.78125 440.511719 256.355469 C 441.125 255.757812 441.785156 255.207031 442.328125 254.550781 C 443.476562 253.164062 443.433594 251.613281 442.234375 250.46875 C 441.847656 250.105469 441.351562 249.847656 440.925781 249.550781 C 441.617188 248.433594 442.390625 247.523438 442.761719 246.46875 C 443.085938 245.558594 443.316406 244.28125 442.910156 243.539062 C 442.457031 242.710938 441.234375 242.304688 440.484375 241.8125 C 440.558594 240.292969 440.9375 238.636719 440.628906 237.121094 C 440.132812 234.644531 437.882812 236.042969 436.117188 235.761719 C 436.582031 234.5 436.925781 233.441406 437.355469 232.417969 C 437.957031 230.992188 437.777344 229.820312 436.429688 228.9375 C 434.453125 228.691406 432.957031 229.5 431.609375 230.910156 C 429.773438 232.851562 427.882812 234.753906 425.898438 236.542969 C 422.949219 239.203125 419.90625 241.746094 416.90625 244.335938 C 416.5 242.679688 416.699219 241.296875 416.683594 239.910156 C 416.671875 238.691406 416.632812 237.40625 416.234375 236.277344 C 415.636719 234.554688 413.796875 234.148438 412.589844 235.503906 C 411.597656 236.617188 410.78125 237.996094 410.28125 239.398438 C 409.351562 241.996094 408.640625 244.683594 407.96875 247.367188 C 407.25 250.21875 406.078125 252.757812 403.757812 254.671875 C 402.507812 255.707031 401.296875 256.78125 400.070312 257.835938 C 401.984375 259.421875 403.925781 260.972656 405.808594 262.601562 C 408.320312 264.785156 410.1875 267.40625 411.003906 270.6875 C 418.539062 270.144531 425.238281 267.378906 431.285156 262.957031 C 433.589844 261.265625 435.746094 259.386719 438.027344 257.664062 "/>
<path style=" stroke:none;fill-rule:nonzero;fill:rgb(98.039246%,73.728943%,64.309692%);fill-opacity:1;" d="M 609.445312 390.96875 C 607.464844 391.1875 605.484375 391.410156 603.507812 391.628906 C 593.339844 392.773438 583.164062 393.867188 573.003906 395.078125 C 568.355469 395.636719 563.742188 396.5 559.101562 397.101562 C 555.222656 397.597656 551.328125 397.949219 547.429688 398.304688 C 545.433594 398.492188 543.421875 398.480469 541.425781 398.664062 C 535.910156 399.183594 530.453125 400.328125 524.855469 400 C 523.214844 399.90625 521.988281 399.5 520.960938 398.105469 C 518.308594 394.484375 515.511719 390.960938 512.777344 387.402344 C 512.484375 387.023438 512.21875 386.625 511.898438 386.269531 C 508.945312 382.976562 506.375 379.394531 504.605469 375.34375 C 502.367188 370.226562 499.308594 365.605469 496.355469 360.90625 C 492.933594 362.238281 489.507812 363.574219 486.089844 364.902344 C 484.144531 366.003906 482.195312 367.101562 480.25 368.207031 C 477.96875 369.183594 475.667969 370.121094 473.40625 371.136719 C 468.355469 373.414062 463.316406 375.726562 458.28125 378.039062 C 456.195312 378.992188 453.980469 379.753906 452.082031 380.996094 C 446.390625 384.699219 440.070312 386.863281 433.746094 389.070312 C 431.480469 389.863281 429.207031 390.664062 427.742188 392.773438 C 428.0625 393.976562 428.386719 395.179688 428.691406 396.386719 C 430.074219 401.882812 431.800781 407.230469 434.25 412.375 C 437.957031 420.15625 441.363281 428.082031 444.96875 435.914062 C 446.332031 438.867188 447.851562 441.75 449.367188 444.628906 C 451.0625 447.84375 452.84375 451.019531 454.578125 454.222656 C 455.351562 455.65625 456.0625 457.117188 456.863281 458.539062 C 458.199219 460.90625 460.300781 462.058594 462.96875 462.242188 C 465.355469 462.40625 467.738281 462.667969 470.125 462.675781 C 473.085938 462.683594 476.078125 462.730469 478.992188 462.308594 C 486 461.304688 492.949219 459.898438 500.109375 460.324219 C 502.195312 460.453125 504.320312 460.195312 506.402344 459.914062 C 507.6875 459.738281 508.898438 459.027344 510.1875 458.832031 C 516.050781 457.921875 521.953125 457.230469 527.804688 456.238281 C 533.652344 455.238281 539.480469 454.113281 545.265625 452.792969 C 555.8125 450.398438 566.304688 447.78125 576.835938 445.328125 C 580.355469 444.511719 583.933594 443.910156 587.480469 443.207031 C 586.628906 436.675781 585.761719 430.152344 584.949219 423.621094 C 584.8125 422.503906 584.929688 421.359375 584.929688 419.910156 C 588.070312 419.394531 591.070312 419.589844 594.089844 419.726562 C 597.011719 419.859375 599.949219 419.675781 602.878906 419.625 C 606.90625 418.253906 610.929688 416.886719 614.953125 415.515625 C 613.117188 407.335938 611.28125 399.148438 609.445312 390.96875 "/>
<path style=" stroke:none;fill-rule:nonzero;fill:rgb(19.219971%,20.779419%,55.688477%);fill-opacity:1;" d="M 378.667969 260.09375 C 376.664062 257.242188 373.472656 256.03125 370.691406 254.242188 C 370.203125 254.5 369.714844 254.757812 369.226562 255.015625 C 370.535156 256.054688 371.84375 257.085938 373.144531 258.125 C 374.382812 259.117188 375.625 260.117188 376.855469 261.109375 C 377.460938 260.773438 378.066406 260.429688 378.667969 260.09375 Z M 310.214844 276.882812 C 310.09375 277.824219 310.054688 278.789062 309.847656 279.714844 C 308.632812 285.109375 307.207031 290.460938 306.175781 295.886719 C 304.84375 302.90625 303.855469 309.988281 302.640625 317.03125 C 301.945312 321.070312 301.085938 325.078125 300.304688 329.101562 C 300.9375 329.238281 301.570312 329.371094 302.203125 329.5 C 303.507812 321.898438 304.667969 314.265625 306.15625 306.691406 C 308.039062 297.0625 310.183594 287.484375 312.21875 277.882812 C 311.554688 277.542969 310.886719 277.214844 310.214844 276.882812 Z M 299.148438 266.328125 C 298.359375 266.660156 297.589844 267.125 296.761719 267.28125 C 295.898438 267.445312 294.976562 267.320312 293.867188 267.320312 C 293.53125 268.140625 293.140625 269.105469 292.742188 270.070312 C 290.390625 275.761719 288.917969 281.679688 287.960938 287.757812 C 286.175781 299.09375 284.269531 310.40625 282.414062 321.722656 C 283.082031 322.019531 283.746094 322.324219 284.40625 322.621094 C 284.753906 319.769531 284.988281 316.902344 285.460938 314.070312 C 287.085938 304.351562 288.800781 294.648438 290.464844 284.933594 C 291.457031 279.148438 293.289062 273.644531 295.761719 268.003906 C 297.214844 269.710938 298.453125 268.601562 299.730469 268.085938 C 299.535156 267.5 299.34375 266.917969 299.148438 266.328125 Z M 386.410156 267.84375 C 389.839844 270.457031 392.875 273.402344 395.714844 276.640625 C 397.769531 278.992188 400.136719 281.074219 402.367188 283.273438 C 402.867188 282.953125 403.363281 282.632812 403.863281 282.320312 C 402.199219 280.601562 400.457031 278.957031 398.878906 277.164062 C 395.214844 273 391.4375 268.976562 386.890625 265.714844 C 384.722656 264.15625 382.753906 262.304688 381.777344 259.679688 C 381.199219 259.800781 380.625 259.929688 380.039062 260.058594 C 380.902344 263.683594 383.710938 265.789062 386.410156 267.84375 Z M 331.304688 267.523438 C 331.53125 272.320312 331.761719 277.117188 331.984375 281.917969 C 332.683594 281.726562 333.386719 281.535156 334.09375 281.34375 C 333.929688 277.097656 333.773438 272.847656 333.617188 268.605469 C 332.84375 268.242188 332.074219 267.882812 331.304688 267.523438 Z M 320.632812 299.414062 C 320.035156 302.378906 319.867188 305.46875 319.832031 308.503906 C 319.738281 316.519531 319.820312 324.539062 319.832031 332.558594 C 320.402344 332.738281 320.976562 332.917969 321.546875 333.097656 C 321.609375 331.089844 321.710938 329.074219 321.734375 327.066406 C 321.777344 323.71875 321.789062 320.382812 321.78125 317.039062 C 321.78125 312.925781 321.316406 308.75 321.828125 304.703125 C 322.667969 298.066406 324.136719 291.503906 323.976562 284.761719 C 323.359375 284.53125 322.734375 284.300781 322.121094 284.070312 C 321.773438 289.199219 321.660156 294.332031 320.632812 299.414062 Z M 248.054688 244.875 C 242.527344 249.460938 236.945312 253.984375 231.511719 258.679688 C 226.445312 263.066406 221.539062 267.644531 216.574219 272.152344 C 215.804688 272.847656 214.925781 273.539062 215.707031 275.15625 C 227.773438 264.71875 239.730469 254.382812 251.925781 243.835938 C 249.992188 242.917969 249.058594 244.046875 248.054688 244.875 Z M 309.484375 275.660156 C 311.300781 269.65625 313.117188 263.644531 314.925781 257.640625 C 314.121094 257.738281 313.308594 257.832031 312.496094 257.933594 C 310.875 263.460938 309.253906 268.988281 307.632812 274.519531 C 308.25 274.902344 308.867188 275.277344 309.484375 275.660156 Z M 252.871094 267.394531 C 252.761719 267.316406 252.65625 267.242188 252.542969 267.164062 C 251.085938 268.203125 249.625 269.234375 248.15625 270.277344 C 247.769531 271.140625 247.484375 272.074219 246.972656 272.863281 C 243.246094 278.683594 240.222656 284.882812 237.503906 291.207031 C 236.007812 294.699219 235.144531 298.453125 233.996094 302.089844 C 234.550781 302.417969 235.105469 302.738281 235.667969 303.070312 C 236.019531 301.691406 236.316406 300.292969 236.738281 298.929688 C 238.984375 291.617188 242.492188 284.867188 246.152344 278.203125 C 247.234375 276.226562 248.644531 274.429688 249.898438 272.554688 C 250.890625 270.832031 251.882812 269.117188 252.871094 267.394531 Z M 259.984375 313.085938 C 261.820312 308.800781 263.546875 304.457031 265.53125 300.238281 C 267.445312 296.164062 268.984375 292.011719 269.9375 287.589844 C 271.195312 281.71875 272.695312 275.90625 275.023438 270.339844 C 275.644531 268.847656 276.15625 267.308594 276.71875 265.792969 C 275.828125 266.132812 274.933594 266.472656 274.035156 266.808594 C 273.761719 267.726562 273.507812 268.640625 273.222656 269.546875 C 271.847656 273.824219 270.101562 278.023438 269.179688 282.394531 C 267.488281 290.429688 264.730469 298 260.902344 305.238281 C 259.707031 307.5 259.058594 310.050781 258.160156 312.46875 C 258.765625 312.675781 259.371094 312.886719 259.984375 313.085938 Z M 208.160156 283.59375 C 210.144531 283.011719 212.128906 282.398438 214.125 281.855469 C 215.160156 281.574219 215.84375 281.164062 215.308594 279.582031 C 212.734375 280.210938 210.21875 280.828125 207.707031 281.4375 C 207.859375 282.15625 208.007812 282.875 208.160156 283.59375 Z M 223.296875 300.679688 C 220.957031 302.699219 218.625 304.714844 216.292969 306.734375 C 216.648438 307.132812 217 307.527344 217.351562 307.925781 C 219.882812 305.949219 222.402344 303.980469 224.933594 302.003906 C 224.386719 301.5625 223.839844 301.117188 223.296875 300.679688 Z M 208.917969 256.648438 C 213.261719 255.277344 217.589844 253.835938 221.960938 252.570312 C 223.472656 252.132812 224.308594 251.15625 225.054688 249.835938 C 220.867188 250.765625 216.777344 251.90625 212.683594 253.050781 C 211.769531 253.308594 210.867188 253.585938 209.964844 253.855469 C 209.613281 254.785156 209.265625 255.714844 208.917969 256.648438 Z M 228.546875 325.832031 C 229.808594 325.386719 231.070312 324.949219 232.332031 324.507812 C 238.917969 322.183594 245.503906 319.859375 252.085938 317.535156 C 251.601562 316.152344 250.449219 316.03125 249.230469 316.011719 C 244.230469 317.886719 239.214844 319.71875 234.242188 321.660156 C 232.039062 322.523438 229.921875 323.613281 227.761719 324.601562 C 228.027344 325.011719 228.285156 325.421875 228.546875 325.832031 Z M 268.300781 231.855469 C 267.34375 232.457031 266.441406 233.210938 265.410156 233.640625 C 260.636719 235.609375 255.828125 237.484375 251.042969 239.414062 C 248.25 240.542969 245.476562 241.707031 242.695312 242.851562 C 245.027344 243.445312 247.117188 243.191406 249.199219 242.351562 C 252.917969 240.839844 256.753906 239.601562 260.425781 237.992188 C 263.828125 236.507812 267.085938 234.695312 270.402344 233.023438 C 269.703125 232.636719 269 232.246094 268.300781 231.855469 Z M 367.960938 265.714844 C 368.589844 269.738281 370.707031 272.976562 373.429688 275.84375 C 377.707031 280.34375 381.558594 285.148438 384.574219 290.589844 C 385.449219 292.164062 386.378906 293.699219 387.28125 295.253906 C 387.816406 295.03125 388.34375 294.8125 388.875 294.59375 C 385.355469 287.167969 380.734375 280.53125 374.988281 274.632812 C 372.292969 271.867188 370.191406 268.644531 369.828125 264.605469 C 369.203125 264.976562 368.582031 265.347656 367.960938 265.714844 Z M 354.710938 269.945312 C 353.488281 268.660156 352.488281 267.164062 351.402344 265.753906 C 350.859375 265.945312 350.308594 266.132812 349.757812 266.316406 C 351.097656 268.246094 352.4375 270.175781 353.785156 272.105469 C 355.035156 271.878906 355.398438 272.5 355.59375 273.660156 C 356.4375 278.699219 357.933594 283.527344 360.4375 288.011719 C 362.355469 291.4375 364.175781 294.917969 366.144531 298.3125 C 367.910156 301.363281 369.808594 304.339844 371.648438 307.339844 C 372.042969 307.003906 372.429688 306.667969 372.816406 306.332031 C 370.066406 301.324219 367.398438 296.277344 364.558594 291.328125 C 360.929688 285.003906 357.914062 278.480469 357.109375 271.125 C 356.296875 270.742188 355.285156 270.554688 354.710938 269.945312 Z M 339.957031 279.515625 C 340.421875 284.351562 340.5625 289.25 341.425781 294.019531 C 343.3125 304.535156 345.242188 315.027344 346.027344 325.703125 C 346.660156 325.230469 347.304688 324.765625 347.945312 324.292969 C 347.777344 322.773438 347.636719 321.246094 347.433594 319.730469 C 346.777344 314.714844 346.324219 309.652344 345.386719 304.6875 C 343.863281 296.59375 342.417969 288.515625 342.140625 280.265625 C 342.125 279.621094 341.871094 278.976562 341.726562 278.332031 C 341.136719 278.730469 340.550781 279.121094 339.957031 279.515625 Z M 272.164062 334.730469 C 268.109375 336.648438 264.019531 338.484375 259.992188 340.453125 C 255.371094 342.714844 250.824219 345.148438 246.183594 347.371094 C 244.40625 348.21875 242.449219 348.683594 240.570312 349.324219 C 240.734375 350.078125 240.894531 350.824219 241.058594 351.574219 C 242.742188 350.917969 244.476562 350.367188 246.105469 349.59375 C 254.964844 345.359375 263.761719 340.980469 272.667969 336.839844 C 275.492188 335.519531 278.53125 334.574219 281.570312 333.828125 C 284.417969 333.121094 287.386719 332.90625 290.308594 332.472656 C 288.851562 332.054688 287.386719 331.632812 285.929688 331.21875 C 281.136719 331.585938 276.523438 332.664062 272.164062 334.730469 Z M 239.847656 377.476562 C 242.78125 376.640625 245.695312 375.730469 248.648438 374.980469 C 254.707031 373.4375 260.429688 371.179688 265.710938 367.742188 C 268.683594 365.8125 271.996094 364.578125 275.554688 363.992188 C 277.707031 363.632812 279.875 363.085938 281.894531 362.28125 C 284.796875 361.125 287.734375 360.457031 290.839844 360.695312 C 296.570312 361.132812 302.011719 359.8125 307.464844 358.292969 C 311.503906 357.167969 315.617188 356.070312 319.757812 355.707031 C 324.714844 355.273438 329.621094 354.710938 334.46875 353.617188 C 335.472656 353.386719 336.53125 353.40625 337.5625 353.308594 C 337.367188 352.496094 337.164062 351.6875 336.960938 350.878906 C 332.652344 351.710938 328.363281 352.949219 324.015625 353.269531 C 318.441406 353.675781 312.972656 354.390625 307.667969 356.097656 C 302.050781 357.898438 296.382812 359.015625 290.453125 358.601562 C 287.246094 358.382812 284.210938 359.21875 281.214844 360.347656 C 279.433594 361.011719 277.582031 361.609375 275.71875 361.921875 C 271.988281 362.550781 268.40625 363.574219 265.269531 365.703125 C 257.574219 370.945312 248.652344 372.894531 239.910156 375.324219 C 239.886719 376.039062 239.871094 376.757812 239.847656 377.476562 Z M 341.132812 371.140625 C 335.007812 373.292969 328.886719 375.445312 322.753906 377.589844 C 317.792969 379.316406 312.875 381.164062 307.578125 381.742188 C 304.9375 382.035156 302.320312 382.746094 299.757812 383.488281 C 292.871094 385.472656 286.007812 387.554688 279.148438 389.648438 C 271.195312 392.074219 263.210938 394.421875 255.3125 397.027344 C 249.140625 399.058594 243.078125 401.414062 236.964844 403.625 C 237.015625 404.34375 237.0625 405.0625 237.105469 405.78125 C 244.019531 403.261719 250.851562 400.511719 257.851562 398.277344 C 270.140625 394.363281 282.523438 390.742188 294.875 387.050781 C 298.714844 385.898438 302.546875 384.523438 306.480469 383.953125 C 310.769531 383.335938 314.9375 382.425781 318.996094 381 C 326.570312 378.351562 334.109375 375.621094 341.664062 372.921875 C 341.484375 372.324219 341.3125 371.730469 341.132812 371.140625 Z M 368.667969 697.40625 C 369.585938 694.109375 370.4375 690.785156 371.25 687.460938 C 371.738281 685.449219 370.769531 684.492188 368.648438 684.722656 C 367.613281 684.832031 366.566406 684.878906 365.527344 684.945312 C 365.085938 685.113281 364.660156 685.386719 364.203125 685.433594 C 361.453125 685.6875 358.683594 685.835938 355.929688 686.113281 C 351.378906 686.574219 346.832031 687.121094 342.28125 687.582031 C 340.769531 687.738281 339.242188 687.757812 337.726562 687.835938 C 336.792969 688.257812 335.871094 688.671875 334.667969 689.210938 C 335.363281 690.523438 335.886719 691.621094 336.515625 692.667969 C 337.863281 694.921875 339.265625 697.148438 340.652344 699.390625 C 342.714844 699.1875 344.777344 698.839844 346.84375 698.816406 C 352.921875 698.75 358.996094 698.792969 365.074219 698.851562 C 365.898438 698.863281 366.714844 699.1875 367.539062 699.367188 C 367.921875 698.714844 368.472656 698.113281 368.667969 697.40625 Z M 243.289062 698.273438 C 245.890625 698.917969 245.890625 698.921875 247.421875 696.707031 C 249.148438 694.210938 250.925781 691.742188 252.566406 689.191406 C 253.464844 687.796875 254.136719 686.246094 254.984375 684.632812 C 252.953125 683.648438 251.261719 682.835938 249.566406 682.023438 C 247.394531 681.078125 245.195312 680.1875 243.042969 679.1875 C 236.074219 675.945312 229.117188 672.667969 222.15625 669.40625 C 220.839844 668.875 219.546875 668.257812 218.1875 667.824219 C 216.238281 667.207031 215.207031 667.902344 215.234375 669.972656 C 215.257812 672.054688 215.621094 674.136719 215.726562 676.230469 C 215.875 679.042969 215.402344 681.964844 217.488281 684.351562 C 218.210938 684.550781 219.007812 684.621094 219.644531 684.980469 C 225.992188 688.507812 232.320312 692.078125 238.632812 695.675781 C 239.949219 696.421875 241.171875 697.335938 242.4375 698.175781 C 242.722656 698.203125 243.015625 698.203125 243.289062 698.273438 Z M 240.722656 667.027344 C 241.976562 664.355469 243.109375 661.628906 244.367188 658.960938 C 244.707031 658.242188 245.324219 657.527344 244.308594 657.078125 C 243.941406 656.917969 243.015625 657.359375 242.71875 657.792969 C 240.378906 661.1875 238.765625 664.929688 237.5625 669.199219 C 239.753906 669.585938 240.191406 668.160156 240.722656 667.027344 Z M 359.6875 681.257812 C 359.632812 681.585938 360.1875 682.347656 360.375 682.320312 C 360.847656 682.257812 361.558594 681.9375 361.660156 681.574219 C 361.984375 680.398438 362.304688 679.148438 362.21875 677.960938 C 362.019531 675.113281 361.617188 672.28125 361.234375 669.445312 C 361.09375 668.414062 360.863281 667.375 360.515625 666.398438 C 360.230469 665.613281 359.621094 665.152344 358.746094 665.722656 C 358.660156 671.089844 360.605469 676.0625 359.6875 681.257812 Z M 287.359375 424.847656 C 286.394531 426.71875 285.0625 428.445312 284.378906 430.402344 C 282.605469 435.503906 278.96875 438.835938 274.628906 441.660156 C 272.386719 443.117188 270.292969 444.796875 268.039062 446.238281 C 265.710938 447.726562 263.375 449.3125 260.371094 448.953125 C 260.003906 448.910156 259.566406 448.960938 259.257812 449.132812 C 258.96875 449.296875 258.644531 449.667969 258.621094 449.96875 C 258.597656 450.269531 258.867188 450.75 259.136719 450.867188 C 259.640625 451.09375 260.230469 451.164062 260.789062 451.203125 C 263.734375 451.402344 266.195312 450.027344 268.53125 448.550781 C 271.523438 446.671875 274.371094 444.566406 277.28125 442.558594 C 281.117188 439.910156 284.4375 436.84375 285.953125 432.210938 C 286.335938 431.046875 287.117188 430.023438 287.695312 428.921875 C 288.941406 426.546875 290.253906 424.203125 291.378906 421.773438 C 292.128906 420.144531 291.730469 419.625 290.066406 419.230469 C 289.152344 421.140625 288.300781 423.019531 287.359375 424.847656 Z M 302.566406 553.257812 C 303.066406 552.398438 303.683594 551.585938 304.042969 550.664062 C 305.066406 548.097656 305.867188 545.496094 306.183594 542.675781 C 306.546875 539.476562 307.8125 536.378906 308.234375 533.175781 C 308.726562 529.496094 308.554688 525.730469 308.980469 522.03125 C 309.441406 518.0625 310.128906 514.199219 309.6875 510.105469 C 309.339844 506.953125 310.332031 503.675781 310.527344 500.4375 C 310.679688 497.863281 310.53125 495.265625 310.523438 492.679688 C 310.511719 489.453125 310.515625 486.21875 310.480469 482.992188 C 310.441406 479.070312 310.347656 475.152344 310.320312 471.230469 C 310.296875 468.949219 310.257812 466.660156 310.398438 464.378906 C 310.566406 461.808594 311.003906 459.261719 311.148438 456.691406 C 311.183594 456.109375 310.570312 455.003906 310.179688 454.96875 C 309.015625 454.859375 309.035156 455.925781 308.957031 456.792969 C 308.816406 458.410156 308.46875 460.019531 308.507812 461.625 C 308.59375 464.761719 307.769531 467.785156 308.109375 471.03125 C 308.609375 475.839844 308.042969 480.765625 307.941406 485.640625 C 307.910156 487.171875 307.851562 488.707031 307.921875 490.238281 C 308 491.949219 308.375 493.660156 308.335938 495.367188 C 308.207031 501.011719 307.976562 506.652344 307.734375 512.289062 C 307.640625 514.476562 307.398438 516.660156 307.207031 518.84375 C 307.03125 520.929688 306.828125 523.019531 306.640625 525.113281 C 306.367188 528.25 306.542969 531.503906 305.734375 534.5 C 304.277344 539.929688 304.0625 545.671875 301.738281 550.894531 C 301.472656 551.480469 301.625 552.25 301.585938 552.925781 C 301.917969 553.039062 302.242188 553.152344 302.566406 553.257812 Z M 295.582031 568.332031 C 292.046875 575.019531 288.328125 581.617188 285.0625 588.441406 C 282.039062 594.742188 278.894531 600.964844 275.746094 607.199219 C 271.867188 614.863281 266.765625 621.65625 261.945312 628.65625 C 257.386719 635.273438 252.660156 641.773438 248.046875 648.347656 C 247.492188 649.132812 246.265625 650.210938 247.433594 651.035156 C 248.816406 652.011719 249.257812 650.335938 249.863281 649.480469 C 253.300781 644.648438 256.726562 639.808594 260.152344 634.96875 C 264.238281 629.191406 268.566406 623.570312 272.335938 617.59375 C 275.808594 612.097656 278.777344 606.28125 281.777344 600.5 C 284.242188 595.742188 286.351562 590.792969 288.773438 586.007812 C 290.847656 581.910156 293.210938 577.960938 295.320312 573.875 C 296.382812 571.804688 297.15625 569.574219 298.121094 567.292969 C 296.1875 567.265625 296.15625 567.246094 295.582031 568.332031 Z M 360.617188 641.394531 C 360.847656 637.097656 360.625 632.808594 359.84375 628.546875 C 358.667969 622.070312 357.398438 615.582031 357.820312 608.933594 C 357.976562 606.460938 358.273438 603.992188 358.335938 601.515625 C 358.4375 597.585938 358.386719 593.65625 358.425781 589.722656 C 358.46875 585.976562 358.050781 582.308594 357.328125 578.628906 C 356.6875 575.363281 356.226562 572.015625 356.15625 568.699219 C 356.078125 565.03125 355.476562 561.5 354.769531 557.925781 C 353.902344 553.539062 353.300781 549.101562 352.652344 544.667969 C 352.265625 542.03125 352.179688 539.335938 351.644531 536.738281 C 349.976562 528.703125 347.835938 520.75 347.988281 512.445312 C 348 511.839844 347.523438 511.222656 347.230469 510.5 C 345.71875 511.488281 345.71875 512.65625 345.796875 513.789062 C 345.902344 515.308594 346.09375 516.824219 346.296875 518.332031 C 346.824219 522.203125 347.289062 526.082031 347.945312 529.925781 C 348.636719 533.964844 349.808594 537.9375 350.257812 542 C 350.824219 547.121094 351.128906 552.257812 352.390625 557.28125 C 353.371094 561.179688 354.003906 565.113281 353.878906 569.183594 C 353.808594 571.550781 354.085938 573.976562 354.582031 576.292969 C 355.863281 582.273438 356.734375 588.246094 356.144531 594.402344 C 355.757812 598.484375 355.710938 602.605469 355.566406 606.710938 C 355.347656 613.035156 355.847656 619.296875 357.097656 625.515625 C 357.976562 629.921875 358.660156 634.363281 358.425781 638.886719 C 358.347656 640.417969 358.332031 641.960938 358.386719 643.488281 C 358.410156 644.066406 358.707031 644.628906 358.945312 645.414062 C 360.589844 644.25 360.542969 642.707031 360.617188 641.394531 Z M 316.394531 564.570312 C 316.800781 563.210938 316.933594 561.699219 317.652344 560.535156 C 320.179688 556.421875 320.886719 551.832031 321.625 547.199219 C 322.4375 542.121094 323.542969 537.085938 324.417969 532.019531 C 325.257812 527.136719 326 522.238281 326.742188 517.339844 C 327.488281 512.441406 328.234375 507.542969 328.886719 502.632812 C 329.582031 497.4375 330.183594 492.230469 330.796875 487.023438 C 331.347656 482.386719 331.867188 477.746094 332.371094 473.105469 C 332.476562 472.15625 332.496094 471.191406 332.46875 470.238281 C 332.355469 465.734375 332.855469 461.277344 333.527344 456.832031 C 333.71875 455.617188 333.566406 454.347656 333.636719 453.101562 C 333.851562 449.503906 334.097656 445.914062 334.34375 442.074219 C 336.160156 442.664062 336.519531 443.9375 336.53125 445.25 C 336.574219 450.507812 336.792969 455.777344 335.859375 461.003906 C 335.101562 465.214844 334.371094 469.445312 333.824219 473.695312 C 333.644531 475.070312 334.214844 476.527344 334.1875 477.941406 C 334.046875 485.019531 333.96875 492.101562 333.570312 499.164062 C 333.273438 504.488281 332.472656 509.78125 332.011719 515.101562 C 331.824219 517.289062 331.96875 519.507812 331.917969 521.710938 C 331.734375 529.453125 331.8125 537.226562 331.246094 544.949219 C 330.746094 551.6875 329.367188 558.347656 327.527344 564.890625 C 327.121094 566.347656 326.890625 567.863281 326.625 569.367188 C 325.757812 574.234375 324.316406 578.800781 320.285156 582.089844 C 319.1875 577.179688 318.082031 572.269531 316.992188 567.359375 C 316.777344 566.433594 316.59375 565.503906 316.394531 564.570312 "/>
<g clip-path="url(#clip2)" clip-rule="nonzero">
<path style=" stroke:none;fill-rule:nonzero;fill:rgb(93.728638%,19.219971%,56.469727%);fill-opacity:1;" d="M 656.882812 401.246094 C 659.65625 400.421875 661.921875 401.015625 663.675781 403.464844 C 666.015625 406.710938 668.882812 409.5625 670.609375 413.265625 C 671.292969 414.726562 672.226562 416.101562 673.234375 417.363281 C 674.558594 419.019531 677.363281 419.558594 679.25 418.894531 C 681.535156 418.09375 681.859375 416.339844 681.714844 414.300781 C 681.636719 413.152344 681.71875 411.957031 681.414062 410.882812 C 679.5625 404.359375 676.886719 398.300781 671.441406 393.890625 C 670.359375 393.015625 669.863281 392.015625 670.476562 390.640625 C 671.242188 388.917969 670.546875 387.402344 669.535156 386.109375 C 668.480469 384.753906 667.207031 383.582031 666.003906 382.351562 C 664.367188 380.6875 662.484375 380.636719 660.476562 381.574219 C 657.617188 382.902344 654.785156 384.289062 651.898438 385.558594 C 650.828125 386.035156 650.199219 386.734375 649.941406 387.835938 C 650.777344 392.027344 651.609375 396.21875 652.4375 400.417969 C 653.683594 401.953125 655.257812 401.734375 656.882812 401.246094 Z M 633.339844 436.703125 C 633.382812 436.878906 633.554688 437.234375 633.5625 437.597656 C 633.703125 442.371094 635.109375 447.058594 634.511719 451.882812 C 634.417969 452.640625 634.449219 453.421875 634.527344 454.179688 C 634.847656 457.160156 637.785156 460.351562 640.46875 460.316406 C 644.5 460.265625 646.574219 459.261719 647.5625 455.082031 C 648.078125 452.882812 648.117188 450.535156 648.144531 448.257812 C 648.160156 446.453125 647.875 444.632812 647.652344 442.832031 C 646.996094 437.53125 646.925781 432.097656 644.410156 427.175781 C 644.246094 426.855469 644.035156 426.324219 644.175781 426.117188 C 645.492188 424.203125 644.304688 422.386719 643.96875 420.578125 C 643.554688 418.316406 643.132812 417.800781 640.941406 417.980469 C 636.679688 418.332031 632.453125 419.050781 628.210938 419.617188 C 628.1875 420.664062 628.078125 421.722656 628.164062 422.761719 C 628.546875 427.214844 628.980469 431.671875 629.394531 436.128906 C 630.648438 436.3125 631.90625 436.492188 633.339844 436.703125 Z M 411.414062 272.933594 C 412.070312 276.097656 411.242188 277.988281 408.503906 279.582031 C 406.953125 280.484375 405.410156 281.40625 403.863281 282.320312 C 403.363281 282.632812 402.867188 282.953125 402.367188 283.273438 C 400.820312 284.894531 399.355469 286.601562 397.714844 288.121094 C 395.925781 289.78125 393.976562 291.269531 392.097656 292.835938 C 393.628906 294.625 395.140625 296.453125 397.835938 296.34375 C 400.394531 294.871094 402.972656 293.4375 405.511719 291.921875 C 407.882812 290.507812 410.070312 288.675781 412.589844 287.621094 C 418.375 285.199219 424.007812 282.320312 430.226562 281.019531 C 431.808594 280.6875 433.359375 280.191406 434.902344 279.699219 C 435.613281 279.46875 436.308594 279.117188 436.941406 278.710938 C 438.703125 277.585938 440.421875 276.40625 442.160156 275.246094 C 443.164062 273.96875 444.15625 272.691406 445.171875 271.433594 C 446.273438 270.074219 446.242188 268.703125 445.484375 267.179688 C 444.726562 265.660156 444.167969 264.042969 443.460938 262.507812 C 442.507812 260.4375 441.5 258.398438 440.511719 256.355469 C 439.675781 256.78125 438.769531 257.109375 438.027344 257.664062 C 435.746094 259.386719 433.589844 261.265625 431.285156 262.957031 C 425.238281 267.378906 418.539062 270.144531 411.003906 270.6875 C 411.140625 271.433594 411.261719 272.1875 411.414062 272.933594 Z M 365.074219 698.851562 C 358.996094 698.792969 352.921875 698.75 346.84375 698.816406 C 344.777344 698.839844 342.714844 699.1875 340.652344 699.390625 C 340.710938 705.871094 340.78125 712.351562 342.429688 718.652344 C 344.097656 718.945312 345.617188 719.117188 347.085938 719.488281 C 352.417969 720.835938 352.449219 719.984375 353.707031 715.980469 C 353.734375 715.902344 353.847656 715.851562 354.035156 715.683594 C 355.179688 716.417969 356.4375 717.082031 357.527344 717.957031 C 360.191406 720.089844 363.023438 720.789062 366.535156 720.628906 C 378.875 720.050781 391.234375 719.898438 403.582031 719.566406 C 404.316406 719.550781 405.046875 719.386719 405.730469 719.296875 C 405.875 718.820312 406.066406 718.535156 406.015625 718.289062 C 405.007812 713.070312 403.53125 707.996094 399.921875 703.917969 C 395.707031 699.140625 390.523438 696.347656 383.941406 697.171875 C 379.675781 697.707031 375.445312 698.464844 371.1875 699.082031 C 369.984375 699.253906 368.757812 699.277344 367.539062 699.367188 C 366.714844 699.1875 365.898438 698.863281 365.074219 698.851562 Z M 238.632812 695.675781 C 232.320312 692.078125 225.992188 688.507812 219.644531 684.980469 C 219.007812 684.621094 218.210938 684.550781 217.488281 684.351562 C 211.757812 689.054688 206.023438 693.753906 199.980469 698.714844 C 202.179688 701.558594 204.359375 704.449219 206.613281 707.273438 C 207.796875 708.761719 209.277344 708.972656 210.957031 708.007812 C 211.667969 707.605469 212.480469 707.378906 213.453125 706.992188 C 214.65625 709.589844 215.824219 711.988281 216.867188 714.433594 C 217.351562 715.570312 217.96875 716.351562 219.21875 716.699219 C 224.089844 718.0625 228.984375 719.382812 233.804688 720.917969 C 241.550781 723.394531 249.242188 726.03125 256.957031 728.589844 C 257.769531 728.859375 258.613281 729.324219 259.410156 729.253906 C 262.355469 729.003906 265.292969 728.574219 268.226562 728.203125 C 269.585938 728.027344 269.9375 727.148438 269.769531 725.9375 C 269.613281 724.800781 269.394531 723.667969 269.269531 722.535156 C 268.21875 712.773438 263.066406 707.972656 254.691406 707.339844 C 252.527344 707.175781 250.335938 707.316406 248.128906 707.316406 C 246.183594 704.191406 244.308594 701.183594 242.4375 698.175781 C 241.171875 697.335938 239.949219 696.421875 238.632812 695.675781 Z M 480.25 368.207031 C 482.195312 367.101562 484.144531 366.003906 486.089844 364.902344 C 487.304688 369.609375 488.667969 374.285156 489.683594 379.039062 C 490.433594 382.5625 490.753906 386.1875 491.242188 389.765625 C 491.769531 393.632812 492.285156 397.5 492.765625 401.371094 C 493.25 405.246094 493.714844 409.125 494.117188 413.007812 C 494.339844 415.191406 494.492188 415.242188 496.703125 415.527344 C 501.839844 416.199219 506.960938 415.207031 512.089844 415.488281 C 514.460938 415.625 516.832031 415.976562 519.207031 415.980469 C 521.578125 415.988281 523.945312 415.59375 526.320312 415.542969 C 530.339844 415.453125 534.363281 415.550781 538.390625 415.476562 C 540.1875 415.4375 541.988281 415.027344 543.785156 415.050781 C 546.15625 415.078125 548.535156 415.296875 550.894531 415.542969 C 553.828125 415.847656 556.757812 416.179688 559.667969 416.632812 C 564.554688 417.402344 569.421875 418.292969 574.296875 419.109375 C 575.425781 419.296875 576.5625 419.386719 577.6875 419.550781 C 578.585938 419.679688 579.484375 419.84375 580.386719 419.988281 C 580.375 420.195312 580.367188 420.402344 580.355469 420.617188 C 579.308594 420.617188 578.234375 420.78125 577.21875 420.582031 C 573.609375 419.882812 570.027344 419.898438 566.417969 420.574219 C 565.585938 420.730469 564.699219 420.679688 563.84375 420.640625 C 560.515625 420.476562 557.183594 420.15625 553.855469 420.117188 C 547.246094 420.039062 540.636719 420.042969 534.027344 420.132812 C 531.464844 420.167969 528.894531 420.421875 526.34375 420.734375 C 520.371094 421.46875 514.390625 421.992188 508.378906 421.808594 C 504.46875 421.6875 500.5625 421.453125 496.660156 421.25 C 494.75 421.15625 493.191406 420.222656 491.898438 418.910156 C 491.492188 418.5 491.34375 417.753906 491.253906 417.144531 C 490.449219 411.390625 489.941406 405.589844 488.859375 399.894531 C 487.46875 392.59375 486.035156 385.28125 483.5625 378.234375 C 482.394531 374.914062 481.347656 371.550781 480.25 368.207031 Z M 407.234375 133.832031 C 411.628906 133.6875 415.496094 135.003906 418.902344 137.824219 C 420.597656 139.21875 422.621094 140.246094 424.1875 141.761719 C 426.09375 143.601562 428.125 145.550781 429.324219 147.855469 C 433.59375 156.070312 436.425781 164.789062 437.234375 174.078125 C 438.128906 184.375 439.144531 194.664062 439.195312 205.007812 C 439.207031 207.570312 438.78125 210.175781 438.234375 212.6875 C 437.074219 218.054688 436.722656 223.484375 436.429688 228.9375 C 434.453125 228.691406 432.957031 229.5 431.609375 230.910156 C 429.773438 232.851562 427.882812 234.753906 425.898438 236.542969 C 422.949219 239.203125 419.90625 241.746094 416.90625 244.335938 C 416.5 242.679688 416.699219 241.296875 416.683594 239.910156 C 416.671875 238.691406 416.632812 237.40625 416.234375 236.277344 C 415.636719 234.554688 413.796875 234.148438 412.589844 235.503906 C 411.597656 236.617188 410.78125 237.996094 410.28125 239.398438 C 409.351562 241.996094 408.640625 244.683594 407.96875 247.367188 C 407.25 250.21875 406.078125 252.757812 403.757812 254.671875 C 402.507812 255.707031 401.296875 256.78125 400.070312 257.835938 C 398.074219 256.648438 396.070312 255.457031 394.730469 254.667969 C 390.585938 255.941406 387.101562 257.011719 383.617188 258.089844 C 383.054688 254.402344 382.488281 250.722656 381.925781 247.042969 C 381.941406 244.667969 381.957031 242.300781 381.972656 239.925781 C 384.097656 236.738281 386 233.371094 388.390625 230.402344 C 393.824219 223.664062 398.351562 216.335938 402.832031 208.96875 C 404.109375 206.859375 405.046875 204.542969 406.21875 202.171875 C 401.722656 199.535156 397.222656 197.511719 392.421875 196.128906 C 390.964844 195.714844 389.378906 195.328125 388.191406 194.464844 C 385.289062 192.351562 381.964844 191.628906 378.589844 190.929688 C 377.65625 190.730469 376.695312 190.558594 375.824219 190.175781 C 372.996094 188.929688 370.058594 189.25 366.953125 189.304688 C 366.570312 190.484375 366.230469 191.5625 365.882812 192.644531 C 364.945312 195.546875 364.003906 198.449219 363.0625 201.347656 C 360.089844 197.550781 359.285156 193.003906 358.984375 188.410156 C 358.519531 181.304688 360.605469 174.722656 364.175781 168.695312 C 368.179688 161.941406 372.574219 155.425781 376.675781 148.730469 C 378.320312 146.054688 380.542969 144.011719 382.90625 142.054688 C 386.179688 141.636719 388.601562 139.632812 391.027344 137.660156 C 393.402344 135.71875 395.863281 134.21875 399.054688 133.738281 C 401.84375 133.316406 404.515625 133.570312 407.234375 133.832031 "/>
</g>
<path style=" stroke:none;fill-rule:nonzero;fill:rgb(18.818665%,72.158813%,95.689392%);fill-opacity:1;" d="M 616.367188 415.320312 C 622.34375 413.304688 628.3125 411.28125 634.277344 409.238281 C 635.429688 408.839844 636.804688 408.636719 637.648438 407.875 C 638.90625 406.742188 640.289062 406.074219 641.789062 405.417969 C 645.375 403.839844 648.894531 402.09375 652.4375 400.417969 C 651.609375 396.21875 650.777344 392.027344 649.941406 387.835938 C 645.644531 387.820312 641.28125 388.257812 637.066406 387.652344 C 633.253906 387.105469 629.65625 387.667969 626.019531 388.160156 C 620.46875 388.914062 614.964844 390.011719 609.445312 390.96875 C 611.28125 399.148438 613.117188 407.335938 614.953125 415.515625 C 615.425781 415.453125 615.921875 415.464844 616.367188 415.320312 Z M 587.480469 443.207031 C 586.628906 436.675781 585.761719 430.152344 584.949219 423.621094 C 584.8125 422.503906 584.929688 421.359375 584.929688 419.910156 C 588.070312 419.394531 591.070312 419.589844 594.089844 419.726562 C 597.011719 419.859375 599.949219 419.675781 602.878906 419.625 C 604.839844 419.765625 606.804688 420.039062 608.761719 420.011719 C 611.226562 419.972656 613.691406 419.574219 616.160156 419.535156 C 620.171875 419.472656 624.191406 419.578125 628.210938 419.617188 C 628.1875 420.664062 628.078125 421.722656 628.164062 422.761719 C 628.546875 427.214844 628.980469 431.671875 629.394531 436.128906 C 626.820312 437.101562 624.28125 438.203125 621.652344 439.015625 C 619.671875 439.621094 617.582031 439.882812 615.535156 440.261719 C 613.414062 440.660156 611.28125 441.019531 609.152344 441.375 C 608.78125 441.433594 608.367188 441.476562 608.015625 441.378906 C 603.597656 440.230469 599.398438 441.824219 595.109375 442.34375 C 592.570312 442.652344 590.027344 442.921875 587.480469 443.207031 Z M 321.609375 283.398438 C 319.101562 280.496094 315.59375 279.308594 312.21875 277.882812 C 310.183594 287.484375 308.039062 297.0625 306.15625 306.691406 C 304.667969 314.265625 303.507812 321.898438 302.203125 329.5 C 303.105469 329.765625 303.996094 330.101562 304.921875 330.28125 C 306.972656 330.667969 309.046875 330.921875 311.09375 331.335938 C 313.984375 331.917969 316.816406 332.90625 319.832031 332.558594 C 319.820312 324.539062 319.738281 316.519531 319.832031 308.503906 C 319.867188 305.46875 320.035156 302.378906 320.632812 299.414062 C 321.660156 294.332031 321.773438 289.199219 322.121094 284.070312 C 321.949219 283.847656 321.792969 283.609375 321.609375 283.398438 Z M 300.09375 268.503906 C 300.066406 268.347656 299.855469 268.222656 299.730469 268.085938 C 298.453125 268.601562 297.214844 269.710938 295.761719 268.003906 C 293.289062 273.644531 291.457031 279.148438 290.464844 284.933594 C 288.800781 294.648438 287.085938 304.351562 285.460938 314.070312 C 284.988281 316.902344 284.753906 319.769531 284.40625 322.621094 C 286.53125 323.492188 288.648438 324.355469 290.773438 325.222656 C 293.953125 326.515625 297.128906 327.804688 300.304688 329.101562 C 301.085938 325.078125 301.945312 321.070312 302.640625 317.03125 C 303.855469 309.988281 304.84375 302.90625 306.175781 295.886719 C 307.207031 290.460938 308.632812 285.109375 309.847656 279.714844 C 310.054688 278.789062 310.09375 277.824219 310.214844 276.882812 C 309.972656 276.472656 309.730469 276.070312 309.484375 275.660156 C 308.867188 275.277344 308.25 274.902344 307.632812 274.519531 C 304.074219 273.835938 300.761719 272.835938 300.09375 268.503906 Z M 260.902344 305.238281 C 264.730469 298 267.488281 290.429688 269.179688 282.394531 C 270.101562 278.023438 271.847656 273.824219 273.222656 269.546875 C 273.507812 268.640625 273.761719 267.726562 274.035156 266.808594 C 272.046875 267.359375 270.492188 268.511719 269.140625 270.074219 C 267.773438 271.660156 266.289062 273.140625 264.765625 274.578125 C 263.597656 275.675781 262.242188 276.175781 260.488281 275.113281 C 261.074219 272.953125 261.648438 270.832031 262.226562 268.710938 C 260.757812 269.238281 259.742188 270.070312 258.683594 270.828125 C 257.136719 271.929688 255.632812 273.128906 253.960938 274.003906 C 252.007812 275.035156 251.058594 274.585938 249.898438 272.554688 C 248.644531 274.429688 247.234375 276.226562 246.152344 278.203125 C 242.492188 284.867188 238.984375 291.617188 236.738281 298.929688 C 236.316406 300.292969 236.019531 301.691406 235.667969 303.070312 C 242.796875 307.078125 250.59375 309.5 258.160156 312.46875 C 259.058594 310.050781 259.707031 307.5 260.902344 305.238281 Z M 287.960938 287.757812 C 288.917969 281.679688 290.390625 275.761719 292.742188 270.070312 C 293.140625 269.105469 293.53125 268.140625 293.867188 267.320312 C 294.976562 267.320312 295.898438 267.445312 296.761719 267.28125 C 297.589844 267.125 298.359375 266.660156 299.148438 266.328125 C 298.558594 264.835938 297.964844 263.335938 297.371094 261.839844 C 294.90625 262.03125 292.433594 262.191406 289.964844 262.421875 C 289.410156 262.472656 288.8125 262.65625 288.339844 262.949219 C 285.722656 264.566406 282.757812 264.828125 279.820312 265.238281 C 278.785156 265.386719 277.753906 265.609375 276.71875 265.792969 C 276.15625 267.308594 275.644531 268.847656 275.023438 270.339844 C 272.695312 275.90625 271.195312 281.71875 269.9375 287.589844 C 268.984375 292.011719 267.445312 296.164062 265.53125 300.238281 C 263.546875 304.457031 261.820312 308.800781 259.984375 313.085938 C 260.636719 313.445312 261.265625 313.867188 261.957031 314.152344 C 264.488281 315.195312 267.023438 316.257812 269.597656 317.199219 C 273.855469 318.753906 278.144531 320.21875 282.414062 321.722656 C 284.269531 310.40625 286.175781 299.09375 287.960938 287.757812 Z M 405.808594 262.601562 C 403.925781 260.972656 401.984375 259.421875 400.070312 257.835938 C 398.074219 256.648438 396.070312 255.457031 394.730469 254.667969 C 390.585938 255.941406 387.101562 257.011719 383.617188 258.089844 C 383.003906 258.617188 382.390625 259.144531 381.777344 259.679688 C 382.753906 262.304688 384.722656 264.15625 386.890625 265.714844 C 391.4375 268.976562 395.214844 273 398.878906 277.164062 C 400.457031 278.957031 402.199219 280.601562 403.863281 282.320312 C 405.410156 281.40625 406.953125 280.484375 408.503906 279.582031 C 411.242188 277.988281 412.070312 276.097656 411.414062 272.933594 C 411.261719 272.1875 411.140625 271.433594 411.003906 270.6875 C 410.1875 267.40625 408.320312 264.785156 405.808594 262.601562 Z M 217.351562 307.925781 C 217.734375 309.070312 217.925781 310.328125 218.523438 311.34375 C 220.3125 314.378906 222.183594 317.367188 224.164062 320.273438 C 225.210938 321.824219 226.550781 323.164062 227.761719 324.601562 C 229.921875 323.613281 232.039062 322.523438 234.242188 321.660156 C 239.214844 319.71875 244.230469 317.886719 249.230469 316.011719 C 245.941406 314.339844 242.75 312.402344 239.320312 311.074219 C 236.511719 309.984375 233.996094 308.59375 231.625 306.796875 C 229.4375 305.140625 227.167969 303.597656 224.933594 302.003906 C 222.402344 303.980469 219.882812 305.949219 217.351562 307.925781 Z M 395.714844 276.640625 C 392.875 273.402344 389.839844 270.457031 386.410156 267.84375 C 383.710938 265.789062 380.902344 263.683594 380.039062 260.058594 C 379.585938 260.070312 379.125 260.082031 378.667969 260.09375 C 378.066406 260.429688 377.460938 260.773438 376.855469 261.109375 C 374.464844 262.179688 371.722656 262.535156 369.828125 264.605469 C 370.191406 268.644531 372.292969 271.867188 374.988281 274.632812 C 380.734375 280.53125 385.355469 287.167969 388.875 294.59375 C 389.945312 294.003906 391.023438 293.417969 392.097656 292.835938 C 393.976562 291.269531 395.925781 289.78125 397.714844 288.121094 C 399.355469 286.601562 400.820312 284.894531 402.367188 283.273438 C 400.136719 281.074219 397.769531 278.992188 395.714844 276.640625 Z M 384.574219 290.589844 C 381.558594 285.148438 377.707031 280.34375 373.429688 275.84375 C 370.707031 272.976562 368.589844 269.738281 367.960938 265.714844 C 364.957031 267.089844 361.945312 268.441406 358.964844 269.855469 C 358.296875 270.175781 357.726562 270.699219 357.113281 271.125 C 357.914062 278.480469 360.929688 285.003906 364.558594 291.328125 C 367.398438 296.277344 370.066406 301.324219 372.816406 306.332031 C 373.488281 306.011719 374.226562 305.785156 374.808594 305.347656 C 378.667969 302.453125 382.496094 299.523438 386.300781 296.574219 C 386.722656 296.246094 386.964844 295.699219 387.289062 295.253906 C 386.378906 293.699219 385.449219 292.164062 384.574219 290.589844 Z M 366.144531 298.3125 C 364.175781 294.917969 362.355469 291.4375 360.4375 288.011719 C 357.933594 283.527344 356.4375 278.699219 355.59375 273.660156 C 355.398438 272.5 355.035156 271.878906 353.785156 272.105469 C 352.058594 272.882812 350.292969 273.582031 348.617188 274.457031 C 346.285156 275.683594 344.019531 277.035156 341.726562 278.332031 C 341.871094 278.976562 342.125 279.621094 342.140625 280.265625 C 342.417969 288.515625 343.863281 296.59375 345.386719 304.6875 C 346.324219 309.652344 346.777344 314.714844 347.433594 319.730469 C 347.636719 321.246094 347.777344 322.773438 347.945312 324.292969 C 348.371094 324.097656 348.839844 323.949219 349.226562 323.6875 C 355.4375 319.496094 361.671875 315.335938 367.820312 311.042969 C 369.253906 310.039062 370.382812 308.59375 371.65625 307.347656 C 369.808594 304.339844 367.910156 301.363281 366.144531 298.3125 Z M 246.183594 347.371094 C 250.824219 345.148438 255.371094 342.714844 259.992188 340.453125 C 264.019531 338.484375 268.109375 336.648438 272.164062 334.730469 C 276.523438 332.664062 281.136719 331.585938 285.929688 331.21875 C 280.402344 329.507812 275.410156 326.710938 270.460938 323.800781 C 269.476562 323.226562 268.398438 322.789062 267.324219 322.40625 C 262.824219 320.8125 258.3125 319.257812 253.789062 317.722656 C 253.261719 317.542969 252.65625 317.59375 252.085938 317.535156 C 245.503906 319.859375 238.917969 322.183594 232.332031 324.507812 C 231.070312 324.949219 229.808594 325.386719 228.546875 325.832031 C 231.085938 329.9375 233.285156 334.320312 236.265625 338.078125 C 238.980469 341.496094 240.0625 345.222656 240.578125 349.324219 C 242.449219 348.683594 244.40625 348.21875 246.183594 347.371094 Z M 341.425781 294.019531 C 340.5625 289.25 340.421875 284.351562 339.957031 279.507812 C 338.003906 280.121094 336.046875 280.730469 334.085938 281.34375 C 333.386719 281.535156 332.683594 281.726562 331.984375 281.917969 C 329.5625 283.558594 326.792969 284.234375 323.976562 284.761719 C 324.136719 291.503906 322.667969 298.066406 321.828125 304.703125 C 321.316406 308.75 321.78125 312.925781 321.78125 317.039062 C 321.789062 320.382812 321.777344 323.71875 321.734375 327.066406 C 321.710938 329.074219 321.609375 331.089844 321.546875 333.097656 C 324.1875 332.855469 326.820312 332.613281 329.460938 332.367188 C 330.492188 332.273438 331.523438 332.148438 332.554688 332.042969 L 332.507812 332.066406 C 332.726562 331.875 332.949219 331.683594 333.167969 331.492188 C 337.730469 330.171875 342.265625 328.800781 346.027344 325.703125 C 345.242188 315.027344 343.3125 304.535156 341.425781 294.019531 Z M 339.769531 392.503906 C 340.410156 391.347656 341.195312 390.203125 341.53125 388.953125 C 342.9375 383.636719 343.320312 378.28125 341.664062 372.921875 C 334.109375 375.621094 326.570312 378.351562 318.996094 381 C 314.9375 382.425781 310.769531 383.335938 306.480469 383.953125 C 302.546875 384.523438 298.714844 385.898438 294.875 387.050781 C 282.523438 390.742188 270.140625 394.363281 257.851562 398.277344 C 250.851562 400.511719 244.019531 403.261719 237.105469 405.78125 C 237.644531 412.09375 241.34375 415.722656 247.078125 417.722656 C 248.945312 418.367188 250.722656 419.265625 252.539062 420.050781 C 255.390625 420.125 258.265625 420.542969 261.054688 419.5 C 268.367188 416.769531 276.183594 415.523438 283.25 412.046875 C 284.007812 411.679688 284.898438 411.570312 285.738281 411.402344 C 289.101562 410.722656 292.535156 410.296875 295.824219 409.359375 C 302.4375 407.480469 308.96875 405.269531 314.816406 401.523438 C 317.601562 399.738281 320.53125 399.148438 323.789062 399.238281 C 327.136719 399.332031 330.472656 398.867188 333.589844 397.539062 C 335.15625 396.871094 336.621094 395.957031 338.132812 395.148438 C 338.683594 394.273438 339.273438 393.414062 339.769531 392.503906 Z M 265.269531 365.703125 C 268.40625 363.574219 271.988281 362.550781 275.71875 361.921875 C 277.582031 361.609375 279.433594 361.011719 281.214844 360.347656 C 284.210938 359.21875 287.246094 358.382812 290.453125 358.601562 C 296.382812 359.015625 302.050781 357.898438 307.667969 356.097656 C 312.972656 354.390625 318.441406 353.675781 324.015625 353.269531 C 328.363281 352.949219 332.652344 351.710938 336.960938 350.878906 C 336.042969 345.054688 333.941406 339.695312 330.632812 334.808594 C 326.902344 336.675781 323.03125 335.980469 319.160156 335.4375 C 316.25 335.03125 313.335938 334.410156 310.414062 334.40625 C 303.636719 334.394531 296.933594 333.957031 290.308594 332.472656 C 287.386719 332.90625 284.417969 333.121094 281.570312 333.828125 C 278.53125 334.574219 275.492188 335.519531 272.667969 336.839844 C 263.761719 340.980469 254.964844 345.359375 246.105469 349.59375 C 244.476562 350.367188 242.742188 350.917969 241.058594 351.574219 C 241.023438 359.507812 241.648438 367.472656 239.910156 375.324219 C 248.652344 372.894531 257.574219 370.945312 265.269531 365.703125 Z M 255.3125 397.027344 C 263.210938 394.421875 271.195312 392.074219 279.148438 389.648438 C 286.007812 387.554688 292.871094 385.472656 299.757812 383.488281 C 302.320312 382.746094 304.9375 382.035156 307.578125 381.742188 C 312.875 381.164062 317.792969 379.316406 322.753906 377.589844 C 328.886719 375.445312 335.007812 373.292969 341.132812 371.140625 C 340.941406 369.929688 340.796875 368.707031 340.550781 367.511719 C 339.570312 362.769531 338.558594 358.039062 337.5625 353.304688 C 336.53125 353.40625 335.472656 353.386719 334.46875 353.617188 C 329.621094 354.710938 324.714844 355.273438 319.757812 355.707031 C 315.617188 356.070312 311.503906 357.167969 307.464844 358.292969 C 302.011719 359.8125 296.570312 361.132812 290.839844 360.695312 C 287.734375 360.457031 284.796875 361.125 281.894531 362.28125 C 279.875 363.085938 277.707031 363.632812 275.554688 363.992188 C 271.996094 364.578125 268.683594 365.8125 265.710938 367.742188 C 260.429688 371.179688 254.707031 373.4375 248.648438 374.980469 C 245.695312 375.730469 242.78125 376.640625 239.847656 377.476562 C 239.667969 378.011719 239.40625 378.519531 239.332031 379.066406 C 238.761719 383.101562 238.417969 387.171875 237.644531 391.164062 C 236.84375 395.316406 236.925781 399.460938 236.964844 403.632812 C 243.078125 401.414062 249.140625 399.058594 255.3125 397.027344 Z M 251.925781 243.835938 C 249.992188 242.917969 249.058594 244.046875 248.054688 244.875 C 242.527344 249.460938 236.945312 253.984375 231.511719 258.679688 C 226.445312 263.066406 221.539062 267.644531 216.574219 272.152344 C 215.804688 272.847656 214.925781 273.539062 215.707031 275.15625 C 227.773438 264.71875 239.730469 254.382812 251.925781 243.835938 Z M 286.800781 245.09375 C 283.621094 246.570312 280.273438 246.277344 276.957031 245.917969 C 275.632812 245.777344 274.300781 245.449219 273.058594 244.960938 C 268.632812 243.21875 264.191406 243.914062 259.769531 244.832031 C 257.105469 245.378906 256.367188 246.734375 256.753906 249.703125 C 256.640625 249.796875 256.511719 250.011719 256.363281 250.027344 C 252.65625 250.480469 249.773438 252.550781 247.144531 254.941406 C 244.675781 257.191406 242.386719 259.648438 240.070312 262.074219 C 239.488281 262.6875 239.035156 263.464844 238.691406 264.246094 C 238.441406 264.808594 238.183594 265.855469 238.429688 266.046875 C 238.917969 266.441406 239.765625 266.519531 240.449219 266.480469 C 241.355469 266.433594 242.257812 266.152344 243.441406 265.917969 C 242.917969 266.980469 242.492188 267.714844 242.183594 268.5 C 241.535156 270.144531 241.910156 270.929688 243.699219 270.96875 C 245.179688 271.003906 246.675781 270.523438 248.15625 270.277344 C 247.769531 271.140625 247.484375 272.074219 246.972656 272.863281 C 243.246094 278.683594 240.222656 284.882812 237.503906 291.207031 C 236.007812 294.699219 235.144531 298.453125 233.996094 302.089844 C 228.730469 299.371094 223.234375 297.003906 219.386719 292.078125 C 219.335938 292.789062 219.328125 293.46875 219.605469 293.996094 C 220.789062 296.246094 222.054688 298.453125 223.296875 300.679688 C 220.957031 302.699219 218.625 304.714844 216.292969 306.734375 C 215.105469 304.808594 213.46875 303.019531 212.820312 300.925781 C 211.042969 295.21875 209.683594 289.378906 208.160156 283.59375 C 210.144531 283.011719 212.128906 282.398438 214.125 281.855469 C 215.160156 281.574219 215.84375 281.164062 215.308594 279.582031 C 212.734375 280.210938 210.21875 280.828125 207.707031 281.4375 C 205.839844 273.066406 206.03125 264.789062 208.917969 256.648438 C 213.261719 255.277344 217.589844 253.835938 221.960938 252.570312 C 223.472656 252.132812 224.308594 251.15625 225.054688 249.835938 C 220.867188 250.765625 216.777344 251.90625 212.683594 253.050781 C 211.769531 253.308594 210.867188 253.585938 209.964844 253.855469 C 211.398438 249.488281 212.667969 245.054688 215.414062 241.25 C 215.734375 240.808594 215.824219 240.195312 216.011719 239.664062 C 225.449219 230.914062 237.054688 227.285156 249.417969 225.402344 C 251.265625 225.808594 253.117188 226.210938 254.964844 226.628906 C 256.636719 226.996094 258.3125 227.367188 259.984375 227.773438 C 263.050781 228.523438 266.183594 229.15625 268.300781 231.855469 C 267.34375 232.457031 266.441406 233.210938 265.410156 233.640625 C 260.636719 235.609375 255.828125 237.484375 251.042969 239.414062 C 248.25 240.542969 245.476562 241.707031 242.695312 242.851562 C 245.027344 243.445312 247.117188 243.191406 249.199219 242.351562 C 252.917969 240.839844 256.753906 239.601562 260.425781 237.992188 C 263.828125 236.507812 267.085938 234.695312 270.402344 233.023438 C 277.359375 235.015625 282.574219 239.386719 286.800781 245.09375 "/>
</g>
</svg>
