<svg width="924" height="433" viewBox="0 0 924 433" fill="none" xmlns="http://www.w3.org/2000/svg">
<g filter="url(#filter0_d)">
<path d="M12 122.569H87.307V361.499H132.524V122.569H208.295V82.2825H12V122.569Z" fill="#3F4EA9"/>
<path d="M278.205 235.657H374.499V196.302H278.205V122.106H380.056V82.2825H233.451V361.499H385.613V321.675H278.205V235.657Z" fill="#3F4EA9"/>
<path d="M491.473 82.2825L403.973 361.499H450.425L476.198 277.036H554.127L580.672 361.499H628.204L540.24 82.2825H491.473ZM544.098 239.237H486.072L508.295 168.305V168.148C510.458 160.526 512.772 152.594 514.931 143.883C516.938 151.816 519.252 160.058 521.875 168.615L544.098 239.237Z" fill="#3F4EA9"/>
<path d="M896.106 82.2825H844.252L798.727 216.056C790.089 242.812 783.453 264.437 778.36 283.413C773.418 264.122 767.095 242.501 758.915 216.056L715.397 82.2825H663.544L645.643 361.499H689.004L695.953 241.256C697.34 216.371 698.575 190.393 699.347 166.434C704.284 184.48 710.148 204.549 717.4 228.035L758.759 359.943H792.863L837.924 225.859C845.488 203.303 852.28 182.456 858.144 162.549C858.916 187.902 860.147 214.968 861.382 238.459L867.862 361.499H912L896.106 82.2825Z" fill="#3F4EA9"/>
<path d="M655.516 161.139C654.745 160.519 653.973 160.051 653.202 159.584C649.803 157.875 645.482 157.717 641.624 158.185C637.459 158.653 633.293 159.741 629.436 161.45C624.494 163.631 619.865 166.585 614.928 169.076C610.914 171.095 606.749 172.651 602.12 172.961C592.705 173.586 592.241 166.275 591.162 158.495C590.698 154.606 590.234 150.873 590.083 146.984C589.775 141.232 589.775 136.097 592.241 130.962C592.554 130.184 593.013 129.406 592.705 128.633C592.554 128.007 591.318 126.452 590.698 126.299C590.854 126.141 590.854 125.984 590.854 125.831L592.241 116.186C592.241 115.718 591.778 115.255 591.318 115.255C590.854 115.255 590.391 115.718 590.391 116.186L588.848 123.807C588.076 123.807 589.311 123.965 588.54 123.965C588.232 123.965 588.384 124.118 585.605 124.743C583.447 125.211 581.596 125.984 581.596 128.165V128.318C580.512 137.806 578.046 147.141 577.582 156.629C577.118 165.339 577.582 174.517 582.055 182.139C587.92 191.942 598.877 192.252 609.064 190.849C616.163 189.761 623.263 188.363 630.051 186.186C634.216 184.783 638.23 183.075 642.244 181.051C642.859 180.741 643.479 180.43 644.251 179.963C646.102 179.027 648.416 177.939 650.575 176.698C657.367 172.651 663.075 167.52 655.516 161.139Z" fill="#EBB6AB"/>
<path d="M647.022 413.601H634.37C634.37 413.601 626.347 414.226 619.555 413.916C612.919 413.601 620.018 410.026 620.018 410.026L621.869 408.628L632.055 401.469C629.277 388.091 621.098 341.118 616.312 318.563C616.161 317.474 616.005 316.382 616.005 315.451C615.853 307.051 622.025 299.119 630.048 295.849C632.983 294.604 636.377 293.983 639.615 294.141L641.778 294.294L651.192 407.072L651.344 409.248C651.5 411.425 649.493 413.601 647.022 413.601Z" fill="#EBB6AB"/>
<path d="M647.028 413.608H634.376C634.376 413.608 626.353 414.233 619.56 413.923C612.924 413.608 620.024 410.033 620.024 410.033L621.875 408.635L651.042 406.764L651.198 408.945C651.505 411.432 649.499 413.608 647.028 413.608Z" fill="#304D89"/>
<path d="M703.197 414.383C696.561 414.698 690.696 414.072 690.696 414.072H677.888C675.417 414.072 672.795 411.896 672.331 409.562L672.023 408.006L671.872 407.386L652.887 296.321L655.05 296.163C658.287 296.01 661.837 296.631 665.08 297.876C674.03 301.299 682.366 308.921 684.216 317.163C684.524 318.251 684.68 319.187 684.68 320.275C685.452 342.52 688.997 388.72 689.769 401.94L699.183 407.696C699.183 407.696 700.575 408.474 702.118 409.562C704.74 411.586 707.519 414.072 703.197 414.383Z" fill="#EBB6AB"/>
<path d="M703.205 414.376C696.569 414.691 690.704 414.066 690.704 414.066H677.896C675.425 414.066 672.803 411.889 672.339 409.555L672.031 408L702.126 409.866C704.748 411.579 707.526 414.066 703.205 414.376Z" fill="#304D89"/>
<path d="M641.947 157.255C640.863 156.32 639.476 155.542 638.397 154.607C633.919 151.032 633.148 145.897 635.154 140.608C636.854 136.098 640.711 132.366 645.492 131.741C653.056 130.653 658.613 136.408 660.615 143.253C661.85 147.61 662.622 152.43 665.708 155.7C669.106 159.432 674.815 160.363 677.901 164.41C680.987 168.299 680.679 174.051 683.15 178.408C684.229 180.121 685.616 181.673 686.544 183.543C688.395 187.428 686.852 192.406 683.609 195.208C680.372 198.009 675.743 198.94 671.573 198.32C650.897 195.518 654.443 170.166 642.87 158.186C642.406 157.719 642.254 157.408 641.947 157.255Z" fill="#304D89"/>
<path d="M661.694 179.187C660.459 194.589 666.015 216.519 671.568 222.432C656.445 223.21 635.15 216.519 620.027 215.431C619.255 205.633 618.484 195.367 621.106 185.874C627.742 160.364 664.78 140.142 661.694 179.187Z" fill="#BDECFD"/>
<path d="M644.717 146.675V157.566C644.717 158.807 645.644 159.743 646.88 159.743H650.118C651.353 159.743 652.281 158.807 652.281 157.566V154.607L651.353 148.541V148.388L651.045 145.119V144.966L648.731 145.434H648.423L644.717 146.675Z" fill="#EBB6AB"/>
<path d="M644.717 148.077V153.055C646.416 152.277 647.651 150.722 648.267 148.855C648.423 148.388 648.574 147.763 648.574 147.142L644.717 148.077Z" fill="#304D89"/>
<path d="M651.976 144.345C647.962 142.479 645.34 139.214 643.797 135.482C643.026 135.945 642.254 136.413 641.634 137.038L641.483 137.19C641.019 137.658 640.555 138.126 640.247 138.746C638.548 141.238 637.933 144.812 639.168 147.614C640.091 150.101 643.489 151.189 645.956 150.879C647.806 150.726 649.506 149.948 651.049 148.86C651.205 148.702 651.356 148.545 651.356 148.392C651.512 148.234 651.669 147.924 651.82 147.767C651.976 146.679 652.128 145.123 652.44 144.66C652.284 144.66 652.128 144.345 651.976 144.345Z" fill="#EBB6AB"/>
<path d="M649.49 145.746C649.49 146.987 650.262 148.233 651.497 148.543L651.189 145.278L649.49 145.746Z" fill="#304D89"/>
<path d="M651.793 142.25C652.151 142.338 652.478 142.496 652.776 142.713C653.07 142.931 653.318 143.199 653.506 143.519C653.699 143.834 653.823 144.176 653.878 144.542C653.933 144.913 653.92 145.274 653.832 145.635C653.745 145.996 653.594 146.325 653.373 146.626C653.157 146.927 652.891 147.172 652.574 147.362C652.262 147.557 651.922 147.682 651.559 147.737C651.192 147.798 650.833 147.779 650.475 147.691C650.117 147.603 649.791 147.45 649.492 147.233C649.194 147.01 648.951 146.742 648.758 146.427C648.569 146.107 648.445 145.765 648.39 145.399C648.331 145.033 648.349 144.667 648.436 144.306C648.523 143.945 648.675 143.616 648.891 143.315C649.111 143.019 649.378 142.773 649.69 142.579C650.007 142.384 650.347 142.259 650.709 142.204C651.072 142.148 651.435 142.162 651.793 142.25Z" fill="#EBB6AB"/>
<path d="M651.814 183.829V183.082C651.965 183.229 652.11 183.38 652.26 183.531C651.965 183.678 651.965 183.678 651.814 183.829Z" fill="#FFB1DF"/>
<path d="M691.161 327.428C691.005 326.807 690.853 326.187 691.161 326.03C688.226 307.984 686.376 274.852 683.597 257.432C681.746 246.23 681.131 235.034 676.81 224.767C674.187 218.697 667.859 212.946 664.617 207.19C656.13 209.676 648.107 208.746 639.464 208.278C632.671 207.81 624.648 207.19 618.32 203.768C618.168 204.388 618.012 205.009 617.549 206.412C611.22 223.054 607.982 240.011 607.982 258.052C607.982 271.588 610.761 297.875 613.075 311.253C614.155 317.63 615.234 324.321 616.777 330.54C616.933 331.165 617.085 331.628 617.241 332.253C617.549 333.341 617.705 334.587 618.012 335.675C618.628 335.675 617.397 335.828 618.012 335.828C619.555 336.763 623.569 336.763 626.348 336.921C639.615 337.384 653.044 337.541 666.16 335.207C666.78 335.05 670.637 334.429 675.11 333.652C683.597 331.785 691.625 329.299 691.161 327.428Z" fill="#2300B1"/>
<path d="M665.377 186.811C664.913 195.053 663.682 203.143 661.519 211.075C660.747 214.034 659.82 216.831 657.969 219.322C655.039 223.054 650.561 224.768 646.088 226.319C636.366 229.741 623.865 231.765 613.836 236.743C610.129 240.632 605.036 242.341 601.486 246.541C601.027 247.166 600.563 248.254 599.792 248.564C599.636 248.564 599.328 248.412 599.484 248.254C600.563 246.231 602.106 244.054 603.806 242.656C603.957 242.498 603.957 242.341 603.806 242.341C603.649 242.188 603.493 242.188 603.493 242.341C601.643 243.897 599.943 246.388 598.864 248.564C598.864 248.722 598.713 248.722 598.556 248.722C598.4 248.722 598.249 248.564 598.093 248.564C597.941 248.564 597.941 248.412 597.941 248.254C599.02 246.078 600.563 243.897 602.722 241.563C602.878 241.41 602.878 241.253 602.722 241.253C602.57 241.1 602.414 241.1 602.414 241.253C600.256 243.587 598.713 245.763 597.629 248.097C597.629 248.254 597.477 248.254 597.321 248.254L597.169 248.097C597.013 248.097 597.013 247.944 597.013 247.787C598.093 245.142 599.636 242.656 601.643 240.632C601.799 240.475 601.799 240.322 601.643 240.322C601.486 240.165 601.335 240.165 601.179 240.322C599.328 242.341 597.785 244.675 596.706 247.166C596.55 247.319 596.242 247.319 596.242 247.166C596.086 246.698 596.398 245.763 596.55 245.453C597.477 242.809 599.02 240.165 600.715 237.831C603.493 234.409 607.043 230.987 610.749 228.81C619.236 223.675 628.651 220.253 637.138 215.275C644.238 211.233 645.161 207.811 644.697 199.878C644.389 195.678 644.389 191.321 644.545 186.968C644.545 184.787 644.697 182.611 644.853 180.434C645.161 176.855 645.624 173.433 646.396 170.011C647.168 165.968 649.946 161.611 653.496 160.213C655.347 159.435 657.197 159.587 659.361 160.833C660.132 161.301 660.904 161.921 661.675 162.699C664.605 165.653 665.377 170.321 665.684 174.521C665.533 178.101 665.533 182.453 665.377 186.811Z" fill="#EBB6AB"/>
<path d="M665.387 186.807L644.248 186.34C644.248 184.163 644.4 181.987 644.556 179.806C644.863 176.231 645.327 172.809 646.099 169.387C646.87 165.34 649.649 160.987 653.199 159.584C655.05 158.806 656.9 158.963 659.059 160.209C659.83 160.677 660.602 161.297 661.378 162.075C664.308 165.03 665.079 169.697 665.387 173.897C665.543 178.097 665.543 182.45 665.387 186.807Z" fill="#A1DCFF"/>
<path d="M583.144 131.434C582.837 131.434 582.525 131.124 582.373 130.656C582.217 130.189 582.217 129.726 582.373 129.411L582.681 125.989H583.296L582.988 129.411C582.988 129.726 582.988 130.036 582.988 130.346C582.988 130.504 583.296 130.656 583.296 130.656C583.452 130.656 583.452 130.504 583.608 130.346C584.531 128.948 585.151 127.392 585.459 125.836L586.074 125.989C585.923 127.082 585.767 128.638 586.074 129.568C586.074 129.726 586.231 129.879 586.231 129.879C586.382 129.879 586.538 129.568 586.694 129.258C587.154 127.545 587.617 125.989 588.081 124.28L588.697 124.438C588.237 126.146 587.774 127.86 587.31 129.568C587.154 130.036 586.846 130.504 586.538 130.656C586.382 130.814 586.074 130.814 585.923 130.656C585.611 130.504 585.459 130.036 585.459 130.036C585.303 129.568 585.303 129.258 585.303 128.79C584.995 129.568 584.531 130.346 584.224 130.967C584.068 131.124 583.916 131.434 583.608 131.592C583.452 131.434 583.296 131.592 583.144 131.434Z" fill="#E58200"/>
<path d="M585.922 130.962L586.23 130.499C587.309 128.786 589.008 127.388 591.01 126.762L591.166 127.388C589.467 128.008 588.08 129.096 587.001 130.499C588.08 130.499 589.316 130.184 590.239 129.564L590.551 130.032C589.316 130.81 587.773 131.12 586.381 130.962H585.922Z" fill="#E58200"/>
<path d="M589.614 134.701C588.999 134.076 588.686 132.988 588.843 132.057C588.999 131.122 589.458 130.186 590.078 129.566L590.542 130.033C589.922 130.501 589.614 131.279 589.458 132.057C589.458 132.835 589.614 133.766 590.078 134.233L589.614 134.701Z" fill="#E58200"/>
<path d="M665.388 186.811L644.249 186.343L630.357 186.033L620.942 185.875L615.082 169.08C620.019 166.746 624.648 163.634 629.585 161.453C633.443 159.745 637.613 158.657 641.778 158.189C645.636 157.721 649.957 157.879 653.351 159.587C655.202 158.809 657.057 158.967 659.216 160.212C659.987 160.68 660.759 161.301 661.53 162.079C664.465 165.033 665.236 169.701 665.544 173.9C665.544 178.1 665.544 182.453 665.388 186.811Z" fill="#BDECFD"/>
<path d="M421.56 228.188C417.087 225.076 413.074 221.344 411.223 216.209C404.587 198.473 416.78 159.743 435.76 153.367C449.34 148.857 450.727 161.142 447.489 170.945C447.026 172.5 446.406 173.899 445.634 175.297C444.247 177.941 442.396 180.122 440.389 182.452C439.926 183.077 439.462 183.697 438.998 184.165C430.511 194.741 426.653 204.387 438.69 214.343C442.704 217.607 446.718 220.876 450.727 224.298C452.578 225.854 454.585 227.41 455.669 229.586C456.899 231.763 457.055 234.564 455.669 236.588C453.969 238.917 450.576 239.232 447.797 238.917C438.998 238.139 430.819 234.254 423.411 229.429C422.64 228.966 422.024 228.651 421.56 228.188Z" fill="#26A4FB"/>
<path d="M447.507 170.947C447.043 172.503 446.423 173.901 445.652 175.3C444.265 177.944 442.414 180.125 440.407 182.454C439.943 183.079 439.479 183.7 439.016 184.167C436.857 186.812 432.999 192.1 430.377 197.235L426.52 161.144L433.923 157.88L447.507 170.947Z" fill="#2E7DFB"/>
<path d="M542.553 411.733V414.534H505.515V410.645L505.363 380.004H520.179V399.133L538.08 405.204C540.546 405.977 542.245 408.158 542.553 410.645C542.553 411.112 542.553 411.423 542.553 411.733Z" fill="#2E7DFB"/>
<path d="M505.363 377.674H520.022V394.937H505.363V377.674Z" fill="#F7C108"/>
<path d="M542.569 411.734V414.536H505.531V410.646H542.569C542.569 411.113 542.569 411.424 542.569 411.734Z" fill="#7ADCFB"/>
<path d="M525.275 384.517C518.947 320.583 511.847 256.963 503.975 193.033C503.975 193.033 503.975 193.033 503.975 192.875V192.722C503.824 191.787 503.824 191.009 503.667 190.074C503.667 189.921 503.667 189.611 503.511 189.453C503.36 188.207 503.204 187.119 502.896 185.874C502.432 183.697 501.817 181.674 500.737 179.808C497.339 173.278 488.701 169.541 481.601 169.231C478.666 177.941 479.286 187.277 475.121 195.366C469.715 205.632 462 213.565 464.007 226.317C464.935 232.851 469.1 235.653 471.878 240.941C474.193 245.298 474.501 250.119 475.272 255.254C476.664 264.585 478.207 273.92 479.286 283.251C481.908 307.52 484.687 331.164 488.701 355.27C490.551 366.782 489.316 376.738 494.101 387.161C495.024 389.185 496.108 391.361 497.803 392.76C501.661 396.029 510.46 396.96 515.24 396.029C519.098 395.251 523.576 394.005 524.963 390.116C525.583 388.25 525.426 386.383 525.275 384.517Z" fill="#2300B1"/>
<path d="M469.387 411.892V414.069H445.777V410.957L445.314 397.269L445.006 386.535H461.364V401.779L461.516 402.714C463.679 403.335 469.079 408.938 469.543 410.804C469.387 411.425 469.387 411.582 469.387 411.892Z" fill="#2E7DFB"/>
<path d="M469.387 414.531H445.006V410.642H469.236L469.387 414.531Z" fill="#7ADCFB"/>
<path d="M461.21 385.142V395.876H445.315L444.852 385.142H461.21Z" fill="#EBB6AB"/>
<path d="M441.93 324.474C440.079 346.562 439.615 370.673 442.237 392.608C442.394 393.849 442.701 395.253 443.624 396.03C444.396 396.651 445.48 396.651 446.403 396.651C450.88 396.651 455.202 396.808 459.675 396.808C461.99 396.808 464.46 396.808 466.159 395.095C472.019 389.497 472.947 367.719 473.255 360.25C473.875 345.784 472.947 331.318 473.411 316.852C474.183 293.518 471.868 270.185 473.103 247.008C471.404 236.59 469.861 226.009 470.325 215.432C470.476 213.566 471.096 212.01 472.176 210.765C470.169 206.565 467.703 202.675 464.46 199.1C464.153 198.632 463.689 198.322 463.381 197.855C453.039 198.632 446.715 179.189 443.78 189.922C442.545 194.743 441.466 202.522 440.694 211.543C440.387 215.122 440.079 218.697 439.923 222.587C438.844 241.1 439.615 261.322 439.923 271.12C440.538 288.54 443.317 307.053 441.93 324.474Z" fill="#2300B1"/>
<path d="M496.24 207.655C490.376 210.924 484.204 213.721 477.875 215.591C469.388 218.235 460.438 219.476 451.487 219.476C447.785 219.476 443.615 218.856 441.457 216.054C441.613 212.322 441.921 208.747 442.229 205.168C443.928 203.144 446.086 201.588 448.401 200.19C453.802 196.925 459.822 194.902 465.838 192.878H465.995C472.474 190.702 479.267 188.836 486.054 188.678C490.996 188.526 501.49 189.456 504.727 194.277C509.205 201.125 502.105 204.39 496.24 207.655Z" fill="#304D89"/>
<path d="M455.502 138.59L456.889 147.457C457.353 150.101 459.823 151.967 462.602 151.657L464.453 151.347C467.075 150.879 468.926 148.393 468.618 145.591L467.231 136.723C467.075 135.635 466.611 134.704 465.84 134.079C464.76 132.991 463.217 132.371 461.518 132.681L459.516 132.991C459.052 132.991 458.588 133.149 458.124 133.459C456.737 134.079 455.81 135.325 455.502 136.881C455.346 137.349 455.346 137.969 455.502 138.59Z" fill="#EBB6AB"/>
<path d="M455.498 136.718L468.306 143.72L467.227 136.718C467.071 135.63 466.607 134.699 465.836 134.074C463.677 133.606 461.055 133.296 458.276 133.453L455.498 136.718Z" fill="#304D89"/>
<path d="M467.567 119.462C466.332 117.439 464.789 115.883 462.474 116.503C460.467 116.971 460.004 118.995 458.153 119.773C456.766 120.393 454.451 121.018 453.216 121.949C451.365 123.347 451.053 125.218 451.209 127.547C451.517 130.349 452.137 132.993 453.06 135.637C453.524 137.04 454.295 138.591 455.687 139.059C457.381 139.684 459.232 138.281 460.16 136.725C460.467 136.105 460.775 135.327 460.775 134.706C460.931 133.928 460.775 132.993 460.775 132.215C460.931 130.659 461.703 129.103 462.938 128.325C464.637 127.395 468.495 128.64 469.418 126.927C470.497 124.593 468.803 121.329 467.567 119.462Z" fill="#304D89"/>
<path d="M461.686 141.548L465.08 141.08C468.323 140.613 470.637 137.348 470.173 134.079L469.402 128.791C468.786 124.748 464.929 122.104 461.071 122.725L460.3 122.882C456.286 123.503 453.663 127.392 454.279 131.282L455.05 136.57C455.358 139.682 458.444 142.011 461.686 141.548Z" fill="#EBB6AB"/>
<path d="M459.106 130.871C459.386 131.144 459.602 131.459 459.758 131.815C459.914 132.177 459.997 132.552 460.006 132.945C460.011 133.334 459.946 133.714 459.804 134.08C459.662 134.446 459.455 134.765 459.189 135.048C458.918 135.335 458.605 135.552 458.247 135.71C457.893 135.867 457.521 135.951 457.131 135.955C456.741 135.964 456.364 135.895 456.006 135.751C455.643 135.613 455.322 135.404 455.042 135.131C454.761 134.862 454.541 134.543 454.385 134.186C454.229 133.825 454.151 133.45 454.141 133.061C454.132 132.668 454.201 132.288 454.344 131.922C454.486 131.561 454.688 131.237 454.959 130.954C455.23 130.672 455.542 130.449 455.9 130.292C456.254 130.135 456.626 130.056 457.016 130.047C457.407 130.037 457.779 130.107 458.141 130.25C458.504 130.394 458.826 130.598 459.106 130.871Z" fill="#304D89"/>
<path d="M453.032 124.9C454.424 122.881 456.431 121.015 458.745 120.08C461.06 119.144 463.834 118.992 466.153 120.08C467.076 120.547 467.384 122.103 467.384 123.191L468.004 122.414C464.298 123.812 460.748 125.215 459.668 125.368C460.44 130.188 458.433 130.503 456.431 131.902C454.575 133.147 452.261 132.837 451.953 130.035L453.032 124.9Z" fill="#304D89"/>
<path d="M459.535 137.657H459.379C458.764 137.81 455.985 138.588 455.365 138.278C454.75 137.967 453.671 137.347 453.358 136.722C451.664 132.059 453.358 133.457 454.13 128.789C454.442 126.613 458.764 123.344 461.386 124.122C464.008 124.9 463.7 129.725 464.008 131.744C464.164 133.147 464.164 134.703 463.393 135.791C462.465 137.037 460.922 137.347 459.535 137.657Z" fill="#304D89"/>
<path d="M464.978 129.133C465.258 129.401 465.479 129.716 465.635 130.077C465.791 130.438 465.869 130.813 465.878 131.202C465.888 131.596 465.819 131.976 465.676 132.337C465.534 132.703 465.332 133.027 465.061 133.309C464.79 133.592 464.478 133.814 464.12 133.967C463.766 134.124 463.394 134.208 463.004 134.217C462.613 134.226 462.241 134.157 461.878 134.013C461.516 133.87 461.194 133.661 460.914 133.393C460.634 133.12 460.418 132.805 460.262 132.443C460.106 132.087 460.023 131.712 460.014 131.318C460.009 130.929 460.074 130.55 460.216 130.184C460.358 129.818 460.565 129.494 460.831 129.211C461.102 128.929 461.415 128.711 461.773 128.554C462.126 128.396 462.498 128.313 462.889 128.308C463.279 128.299 463.656 128.369 464.014 128.507C464.377 128.651 464.698 128.859 464.978 129.133Z" fill="#EBB6AB"/>
<path d="M464.784 122.721L466.019 126.92C466.483 128.319 466.019 129.722 465.247 129.875C464.32 130.185 463.397 129.254 462.933 127.698L461.854 123.656L464.784 122.721Z" fill="#304D89"/>
<path d="M475.579 148.391C474.807 144.812 471.414 142.636 467.864 143.414L459.221 145.437C456.754 146.058 455.363 148.544 455.983 150.878L456.906 154.147L475.579 148.391Z" fill="#E7F0F8"/>
<path d="M532.064 107.168C531.757 108.257 531.449 109.502 530.985 110.59C530.677 111.368 530.521 112.299 530.214 113.077C523.578 131.433 508.298 137.499 489.782 139.212C485.153 139.68 480.367 139.68 476.046 141.388C455.83 148.7 472.188 170.168 480.211 180.276C487.003 188.986 495.026 196.923 500.119 206.874C498.884 193.497 497.961 178.568 506.755 168.454C516.634 157.1 532.372 158.346 539.164 144.343C541.479 139.522 543.178 134.387 544.565 129.099C545.952 123.658 546.88 118.055 547.495 112.456C547.651 111.058 547.807 109.655 547.959 108.257C542.558 107.789 537.314 107.321 532.064 107.168Z" fill="#26A4FB"/>
<path d="M501.056 154.459C500.128 150.727 499.049 146.837 495.807 144.193C490.562 139.836 482.075 140.304 474.819 141.549C462.167 143.726 449.823 147.148 438.093 151.658C433.152 153.681 427.907 156.168 425.593 160.368C422.97 165.346 427.6 173.746 429.607 178.413C432.38 184.947 435.159 191.634 436.858 198.635C438.093 203.456 438.245 209.99 442.259 213.569C444.573 215.745 447.967 215.903 451.053 215.903C461.395 216.056 472.041 216.056 482.075 213.412C487.168 212.013 505.685 206.878 506.764 200.659C507.072 198.793 506.3 197.079 505.685 195.371C500.9 181.678 504.142 168.147 501.056 154.459Z" fill="#26A4FB"/>
<path d="M548.406 100.484C548.25 95.5063 547.791 90.6858 547.171 85.8654C546.555 85.0874 545.784 84.6197 544.856 84.4623C541.306 83.6844 542.542 78.086 541.306 81.508C538.84 87.8843 533.127 104.221 530.969 110.75C536.369 111.218 541.77 111.843 547.171 112.464C547.791 108.264 548.099 104.374 548.406 100.484Z" fill="#EBB6AB"/>
<path d="M524.902 80.3921L558.161 74.3214L559.176 79.9847L525.922 86.0554L524.902 80.3921Z" fill="#2300B1"/>
<path d="M567.557 75.4356V75.593L564.779 77.1489L559.222 79.9458L558.143 74.3474L564.471 74.9679L567.557 75.4356Z" fill="#EBB6AB"/>
<path d="M567.541 75.43V75.5874L564.763 77.1433L564.455 74.9623L567.541 75.43Z" fill="#2300B1"/>
<path d="M527.108 82.8578C527.177 83.2422 527.196 83.6219 527.159 83.997C527.122 84.3721 527.035 84.7147 526.902 85.0203C526.764 85.326 526.589 85.576 526.374 85.7659C526.158 85.9557 525.919 86.0761 525.657 86.1271C525.395 86.1734 525.129 86.1456 524.863 86.0437C524.592 85.9372 524.344 85.7659 524.109 85.5297C523.875 85.2889 523.673 85.0018 523.512 84.6638C523.347 84.3257 523.228 83.9646 523.159 83.5756C523.09 83.1912 523.076 82.8115 523.108 82.4364C523.145 82.0614 523.232 81.7233 523.37 81.4177C523.503 81.1074 523.682 80.862 523.898 80.6675C524.109 80.4777 524.348 80.3573 524.61 80.311C524.872 80.26 525.138 80.2878 525.409 80.3943C525.676 80.4962 525.928 80.6675 526.162 80.9083C526.397 81.1445 526.594 81.4316 526.759 81.7696C526.925 82.1077 527.039 82.4735 527.108 82.8578Z" fill="#EBB6AB"/>
<path d="M542.863 90.9864L539.006 86.9439C537.463 85.2306 536.383 83.0542 536.076 80.7204L535.768 78.8542C535.612 77.6086 536.383 76.3676 537.77 76.0527L545.49 74.4968C546.877 74.1866 548.264 75.122 548.42 76.6779L548.728 79.6322C548.884 81.0306 548.728 82.5865 548.42 83.9896L546.569 90.3659L542.863 90.9864Z" fill="#EBB6AB"/>
<path d="M161.071 195.524C159.991 195.214 159.528 193.816 159.684 192.727C159.991 191.635 160.763 190.704 161.691 189.926C165.548 186.504 169.87 183.55 174.499 181.526C174.035 184.328 172.336 186.972 169.87 188.528C173.415 189.305 176.814 190.546 180.051 192.102C181.287 192.727 182.678 193.348 183.601 194.594C184.529 195.682 184.837 197.391 184.221 198.636C177.585 198.168 171.101 198.479 164.465 199.104C163.541 199.257 162.462 199.257 161.691 198.946C159.684 198.016 159.991 195.057 160.607 192.88L161.071 195.524Z" fill="#FFB1DF"/>
<path d="M136.84 205.633C137.304 207.81 137.768 209.986 138.231 212.167C137.768 209.986 137.304 207.81 136.84 205.633Z" fill="#FF6FCA"/>
<path d="M136.857 205.636C136.241 202.992 135.47 200.5 134.698 197.856C133.155 192.878 131.305 188.058 129.141 183.39C126.519 177.792 114.79 160.367 109.697 172.967C106.919 179.658 108.926 188.526 110.009 195.522C111.24 203.77 113.095 212.012 115.562 219.944C115.562 220.102 115.562 220.102 115.718 220.254C115.869 219.944 116.182 219.634 116.333 219.324C120.811 213.721 131.148 210.456 136.857 205.636Z" fill="#FF6FCA"/>
<path d="M124.646 243.276C124.798 243.586 124.954 243.896 125.11 244.211C126.19 245.299 127.733 246.23 129.891 246.855C127.733 246.23 126.033 244.989 124.646 243.276Z" fill="#FF6FCA"/>
<path d="M166.622 195.209C160.757 185.253 142.7 208.897 138.534 214.032C138.378 213.407 138.378 212.787 138.227 212.166C137.763 209.985 137.299 207.809 136.835 205.632C131.127 210.295 120.941 213.717 116.468 219.32C116.16 219.631 116.004 219.941 115.848 220.251C118.011 227.41 119.705 237.519 124.798 243.275C126.19 244.831 127.884 246.076 130.048 246.854C131.747 247.475 133.597 247.785 135.912 247.475C136.22 247.475 136.527 247.475 136.835 247.317C137.147 247.317 137.299 247.317 137.607 247.164C137.919 247.164 138.071 247.007 138.378 247.007C150.727 243.895 155.664 224.609 159.986 214.653C168.165 195.677 169.244 199.719 166.622 195.209Z" fill="#FFB1DF"/>
<path d="M165.086 193.343H164.93V193.033C166.629 193.033 168.172 192.407 169.095 191.166C169.715 190.231 170.023 189.3 169.871 188.522L170.179 188.365C170.487 189.3 170.179 190.388 169.407 191.319C168.324 192.722 166.78 193.343 165.086 193.343Z" fill="#FF4D76"/>
<path d="M184.512 196.924C181.118 196.299 177.568 195.832 174.17 195.989V195.679C177.72 195.679 181.27 195.989 184.664 196.609L184.512 196.924Z" fill="#FF4D76"/>
<path d="M183.735 194.901C180.649 193.813 177.563 193.188 174.32 193.188V192.878C177.563 192.878 180.8 193.503 183.735 194.591V194.901Z" fill="#FF4D76"/>
<path d="M126.494 231.296C128.653 224.3 132.974 217.919 138.687 213.408L126.494 231.296Z" fill="#304D89"/>
<path d="M306.273 332.72H309.203V397.738H306.273V332.72Z" fill="#A1DCFF"/>
<path d="M322.626 409.412C322.626 409.926 322.525 410.421 322.332 410.898C322.135 411.375 321.855 411.796 321.496 412.158C321.134 412.523 320.716 412.806 320.243 413C319.77 413.199 319.278 413.297 318.769 413.297C318.254 413.297 317.763 413.199 317.29 413C316.817 412.806 316.399 412.523 316.041 412.158C315.678 411.796 315.398 411.375 315.2 410.898C315.007 410.421 314.906 409.926 314.906 409.412C314.906 408.893 315.007 408.397 315.2 407.921C315.398 407.444 315.678 407.022 316.041 406.661C316.399 406.295 316.817 406.013 317.29 405.818C317.763 405.619 318.254 405.522 318.769 405.522C319.278 405.522 319.77 405.619 320.243 405.818C320.716 406.013 321.134 406.295 321.496 406.661C321.855 407.022 322.135 407.444 322.332 407.921C322.525 408.397 322.626 408.893 322.626 409.412Z" fill="#A1DCFF"/>
<path d="M300.446 409.412C300.446 409.926 300.345 410.421 300.152 410.898C299.954 411.375 299.674 411.797 299.316 412.158C298.953 412.524 298.535 412.806 298.062 413.001C297.589 413.2 297.098 413.297 296.588 413.297C296.074 413.297 295.582 413.2 295.109 413.001C294.636 412.806 294.218 412.524 293.86 412.158C293.497 411.797 293.217 411.375 293.024 410.898C292.827 410.421 292.73 409.926 292.73 409.412C292.73 408.893 292.827 408.398 293.024 407.921C293.217 407.444 293.497 407.023 293.86 406.661C294.218 406.296 294.636 406.013 295.109 405.819C295.582 405.619 296.074 405.522 296.588 405.522C297.098 405.522 297.589 405.619 298.062 405.819C298.535 406.013 298.953 406.296 299.316 406.661C299.674 407.023 299.954 407.444 300.152 407.921C300.345 408.398 300.446 408.893 300.446 409.412Z" fill="#A1DCFF"/>
<path d="M318.169 410.344L307.676 397.901L297.182 410.344L295.023 408.477L307.676 393.544L320.332 408.477L318.169 410.344Z" fill="#A1DCFF"/>
<path d="M244.096 336.922C243.939 342.674 248.569 347.341 254.277 347.341H328.353C335.297 347.341 341.162 341.585 341.162 334.589V257.744C341.162 254.164 338.691 251.367 335.605 250.432C334.833 250.279 334.062 250.279 333.139 250.279H299.958C295.637 250.279 291.164 253.544 291.164 257.901V327.119H254.589C248.876 326.809 244.096 331.167 244.096 336.922Z" fill="#8769B8"/>
<path d="M278.798 232.073C278.954 230.832 278.954 229.587 278.646 228.498C278.182 226.943 276.947 226.317 276.483 224.919C275.868 223.363 276.175 221.497 276.639 219.941C278.026 215.273 282.504 209.675 287.597 209.055C292.226 208.429 296.084 210.763 297.471 215.273C298.862 220.409 299.17 226.317 303.184 229.739C305.65 231.921 309.048 232.541 311.978 234.097C315.68 235.963 318.614 239.385 320.001 243.432C320.929 245.919 321.085 248.72 322.316 251.207C323.4 253.698 325.402 255.717 326.637 258.051C327.873 260.542 328.029 263.807 325.866 265.52C323.551 267.386 320.313 266.141 317.843 267.229C315.22 268.317 313.521 269.252 310.435 268.785C300.557 268.785 295.928 256.653 293.149 249.188C292.534 247.317 291.762 245.451 290.219 244.053C287.289 241.409 281.884 242.029 279.882 238.607C278.338 236.431 278.646 234.254 278.798 232.073Z" fill="#304D89"/>
<path d="M269.386 298.964L268.614 300.363L266.759 303.632L255.65 323.076L254.878 324.474L213.367 400.851L212.747 405.051L212.44 406.917L212.132 408.631C211.824 410.807 209.969 412.516 207.654 412.516L178.18 412.831C177.101 412.831 176.173 411.895 176.021 410.807C176.021 410.029 176.481 409.094 177.101 408.783L180.802 406.917L197.781 397.897C197.781 397.897 212.44 352.165 222.626 323.076C224.169 318.565 225.712 314.518 226.791 310.943C228.334 306.276 231.884 302.544 236.049 300.52C238.364 299.432 240.991 298.807 243.613 298.807H269.386V298.964Z" fill="#EBB6AB"/>
<path d="M212.747 405.056L212.44 406.923L212.132 408.636C211.824 410.812 209.969 412.521 207.654 412.521L178.18 412.836C177.101 412.836 176.173 411.9 176.021 410.812C176.021 410.034 176.481 409.099 177.101 408.789L180.802 406.923L212.747 405.056Z" fill="#304D89"/>
<path d="M282.676 412.054L270.18 412.675C270.18 412.675 262.309 413.606 255.673 413.606C249.037 413.606 255.98 409.72 255.98 409.72L257.831 408.317L267.402 400.695C264.16 387.632 255.673 354.033 249.808 332.098C249.5 331.009 249.344 330.074 249.344 328.986C248.729 320.743 254.437 312.654 262.153 308.922C265.087 307.523 268.173 306.745 271.411 306.745H273.574L286.382 405.053L286.69 407.229C286.998 409.563 285.147 411.897 282.676 412.054Z" fill="#EBB6AB"/>
<path d="M282.676 412.051L270.18 412.672C270.18 412.672 262.309 413.603 255.672 413.603C249.036 413.603 255.98 409.718 255.98 409.718L257.831 408.314L286.382 405.207L286.69 407.384C286.998 409.56 285.147 411.894 282.676 412.051Z" fill="#304D89"/>
<path d="M132.812 411.118V413.605H100.403V410.183L97.4728 395.406L95.1582 383.432H108.118L111.976 396.031L113.211 400.231L128.798 405.52C130.961 406.298 132.348 408.006 132.812 410.183C132.812 410.497 132.812 410.808 132.812 411.118Z" fill="#2300B1"/>
<path d="M97.6244 395.564L111.976 396.031L108.118 383.432H95.1582L97.6244 395.564Z" fill="#FFB1DF"/>
<path d="M132.813 411.114V413.6H100.404V410.178H132.813C132.813 410.493 132.813 410.803 132.813 411.114Z" fill="#7ADCFB"/>
<path d="M101.943 296.788C98.7007 281.076 95.3069 265.522 91.9131 249.81C88.9785 236.9 87.1277 223.99 84.8131 211.233C84.5055 209.519 84.0416 207.968 83.4262 206.412C67.2195 207.968 52.5604 213.409 40.6797 224.143C42.8381 228.811 45.4604 233.168 48.395 238.609C59.6603 259.141 63.6741 284.498 68.7625 307.207C74.7832 333.809 81.4193 360.408 88.6708 386.696C89.1346 388.251 89.5985 389.96 90.6777 391.053C92.0692 392.451 94.0715 392.762 95.9269 392.919C100.708 393.387 105.649 393.229 110.43 392.762C125.553 390.895 112.744 349.521 110.742 339.25C107.808 325.099 104.878 310.944 101.943 296.788Z" fill="#2E7DFB"/>
<path d="M77.4492 411.118V413.605H45.0448V410.183L44.8887 383.432H57.8532V400.231L73.4399 405.52C75.5984 406.298 76.9853 408.006 77.4492 410.183C77.4492 410.497 77.4492 410.808 77.4492 411.118Z" fill="#2300B1"/>
<path d="M44.8887 380.32H57.697V395.406H44.8887V380.32Z" fill="#FFB1DF"/>
<path d="M77.4434 411.114V413.6H45.0391V410.178H77.4434C77.4434 410.493 77.4434 410.803 77.4434 411.114Z" fill="#7ADCFB"/>
<path d="M62.1334 389.185C60.4342 390.584 58.1196 390.894 55.9565 391.052C51.4835 391.515 47.0059 391.982 42.5328 392.45C40.9897 392.607 40.0621 391.672 38.6751 391.052C31.2675 388.407 31.1114 353.715 30.1883 346.25C27.8737 326.964 25.8668 307.52 25.0953 288.076C24.4753 271.276 18.1515 249.499 19.8461 231.296C19.8461 230.518 20.0022 229.74 20.1538 228.967C20.1538 228.499 20.3099 227.874 20.4661 227.411C20.7738 225.54 21.2376 223.831 21.7014 222.118C22.3168 219.942 23.2445 217.765 24.3237 215.589C30.9598 223.989 42.2251 229.119 51.4835 233.009C54.5696 234.255 57.6557 235.496 60.7419 236.589C60.5857 236.899 60.5857 237.366 60.5857 237.677C60.5857 237.83 60.5857 237.83 60.5857 237.987C60.5857 238.297 60.5857 238.607 60.5857 238.918C60.5857 240.163 60.5857 241.562 60.5857 242.807C60.5857 257.584 61.0496 272.365 61.5134 287.141C61.6695 291.961 61.8211 296.939 61.9772 301.764C62.9049 327.742 64.2918 353.562 64.9072 379.54C64.7557 383.115 64.7557 387.004 62.1334 389.185Z" fill="#23AFFC"/>
<path d="M60.5736 236.589C60.4221 236.899 60.4221 237.367 60.4221 237.677C60.4221 237.83 60.4221 237.83 60.4221 237.987C60.4221 238.297 60.4221 238.608 60.4221 238.918C60.4221 240.163 60.4221 241.562 60.4221 242.808C56.5644 242.965 52.5506 242.187 48.6929 241.409C47.6137 241.099 46.3783 240.941 45.2991 240.631C45.143 240.631 44.8353 240.474 44.6791 240.474C36.0407 238.297 27.3977 235.811 19.834 231.296C19.834 230.518 19.9901 229.74 20.1417 228.967C20.1417 228.499 20.2978 227.874 20.454 227.411C20.7617 225.545 21.2255 223.831 21.6893 222.118C22.3047 219.942 23.2324 217.765 24.3116 215.589C30.9477 223.989 42.213 229.119 51.4714 233.009C54.4014 234.408 57.4875 235.496 60.5736 236.589Z" fill="#304D89"/>
<path d="M123.586 196.612C123.429 198.325 123.122 199.881 122.658 201.59C121.579 206.415 119.723 211.078 117.409 215.435C116.793 216.681 116.022 217.922 115.25 219.015C107.999 230.211 97.0412 238.611 85.0044 244.057C78.5199 246.858 71.7322 245.923 65.0961 244.367C64.0169 244.057 62.7815 243.9 61.7023 243.589C61.5462 243.589 61.2385 243.436 61.0823 243.436C50.437 240.792 39.631 237.523 30.8364 230.679C27.1349 227.725 23.4288 223.525 24.0488 218.7C24.3565 215.903 26.0511 213.569 27.5942 211.235C32.8433 203.771 38.2441 196.459 43.4932 188.99C43.4932 188.99 43.4932 188.99 43.4932 188.837C45.6517 185.725 47.9663 182.613 50.1247 179.502C54.4462 173.436 60.0031 166.749 67.4107 164.415C75.8976 161.771 86.2398 164.883 94.7266 165.814C100.591 166.434 106.607 165.814 112.472 167.212C118.952 168.925 120.959 172.347 122.658 178.571C124.045 184.48 124.357 190.546 123.586 196.612Z" fill="#FF6FCA"/>
<path d="M107.214 158.807L104.743 170.629L100.27 176.543L99.6504 177.163L97.6435 175.765C91.9351 171.407 86.842 168.61 89.0005 165.188L92.0912 160.363L95.485 154.922L99.3427 148.856C100.422 149.944 101.35 151.185 102.121 152.278L107.214 158.807Z" fill="#FFB1DF"/>
<path d="M102.097 159.749C106.726 158.351 112.898 153.683 112.127 148.237C111.97 147.617 111.819 146.992 111.511 146.529C110.891 145.751 109.656 145.751 108.733 145.593C107.649 145.593 105.027 146.214 103.947 146.214C99.4698 146.061 94.8406 146.992 93.9175 152.285C93.6098 153.683 93.6098 155.081 93.7613 156.327C93.9175 157.415 93.7613 158.504 94.2252 159.281C94.9967 160.527 96.6959 160.995 98.0828 160.995C99.0105 160.995 100.09 160.995 101.017 160.837C101.017 160.37 101.477 159.907 102.097 159.749Z" fill="#304D89"/>
<path d="M95.668 153.063V160.37C95.668 160.837 95.668 161.305 95.8241 161.773C95.8241 162.083 95.9803 162.393 95.9803 162.703C95.9803 162.703 95.9803 162.703 95.9803 162.861C97.0595 165.973 99.9895 168.307 103.388 168.307H104.467C106.782 168.307 108.789 166.436 108.789 163.949V153.836C108.789 151.039 106.474 148.705 103.696 148.705H99.9895C97.5233 148.705 95.668 150.571 95.668 153.063Z" fill="#FFB1DF"/>
<path d="M104.006 161.612C101.999 161.302 100.764 160.056 100.149 158.348C99.9926 157.722 99.6849 156.945 99.3772 156.324L98.6057 154.926L97.9857 153.059C97.8341 151.504 98.9134 150.568 100.149 149.948C100.764 149.633 101.384 149.48 101.999 149.48C103.235 149.323 104.314 149.48 105.549 149.79C105.706 149.79 108.328 150.726 108.02 151.036C108.328 150.726 108.479 150.258 108.636 149.948C108.172 149.323 108.02 148.545 108.02 147.924C107.708 147.767 107.4 147.456 107.093 147.146L106.321 146.836C104.006 145.901 101.384 145.901 98.9134 146.836L96.4426 147.767L93.8203 152.282L95.0557 157.259L97.8341 158.348V164.566C97.8341 167.368 99.9926 169.855 102.771 170.012C107.556 170.322 108.792 167.836 108.792 164.724V160.214C107.4 161.302 105.706 161.77 104.006 161.612Z" fill="#304D89"/>
<path d="M97.3606 157.409V158.964C97.3606 160.053 96.1252 161.141 94.7383 161.141C93.8106 161.141 92.8876 160.831 92.2676 160.52L95.6614 155.075C95.8175 155.232 95.9737 155.232 96.2814 155.385C96.8968 156.01 97.3606 156.631 97.3606 157.409Z" fill="#304D89"/>
<path d="M97.6518 160.68H95.3372C93.7941 160.68 92.7148 159.434 92.7148 158.031V157.721C92.7148 156.632 93.6425 155.702 94.7218 155.702H95.3372C96.7287 155.702 97.8079 156.79 97.8079 158.188V160.68H97.6518Z" fill="#FFB1DF"/>
<path d="M326.816 306.587C325.424 318.719 316.166 328.522 305.364 332.722H218.484C220.487 325.721 222.957 319.344 224.5 313.899C226.507 306.587 231.6 300.831 237.153 297.719C238.544 297.409 239.931 297.256 241.323 297.256H326.196C326.816 300.211 327.123 303.322 326.816 306.587Z" fill="#304D89"/>
<path d="M295.787 235.185C294.552 233.786 293.78 231.452 293.316 228.966C293.009 227.563 292.853 226.317 292.853 224.919H283.902L283.594 226.785V229.429C283.594 230.054 283.438 230.517 283.287 231.142C282.979 232.23 282.359 233.319 281.743 234.254L281.587 234.407C281.123 235.032 280.508 235.495 279.893 235.81C277.574 237.208 276.187 238.607 272.944 239.074C270.478 239.385 272.485 239.074 271.401 240.63C270.63 241.718 270.322 243.432 270.942 244.673C272.485 247.785 275.571 249.808 278.809 251.054C285.293 253.388 293.009 252.762 298.873 249.188C300.724 248.095 306.896 243.585 308.288 241.408C308.747 240.473 300.416 240.163 295.787 235.185Z" fill="#EBB6AB"/>
<path d="M270.817 267.08C269.738 267.858 268.659 268.788 267.575 269.566C267.424 269.724 267.268 269.724 267.268 269.876C266.804 270.502 266.34 270.965 265.881 271.59C265.568 271.9 265.261 272.21 264.953 272.678C264.489 273.146 266.34 270.812 265.881 271.28C265.109 272.058 264.338 272.835 263.41 273.766C256.774 279.99 247.052 287.301 242.115 291.964C240.723 293.21 239.029 293.988 237.173 294.298C235.322 294.609 233.316 294.298 232.085 292.9C229.306 289.478 233.472 286.209 235.479 283.722C235.63 283.565 235.786 283.254 235.942 282.944C236.714 281.698 239.8 277.188 242.422 273.299C239.18 277.966 235.786 282.634 234.707 284.19L245.352 269.099C244.581 270.187 243.658 271.59 242.579 273.299C245.972 268.478 249.366 263.81 249.986 263.032C251.988 260.546 261.095 249.034 263.254 246.7L257.389 254.943C259.245 253.077 261.251 251.211 263.102 249.344C265.568 251.211 267.575 253.702 268.811 256.814C270.202 259.458 271.589 263.658 270.817 267.08Z" fill="#EBB6AB"/>
<path d="M267.723 262.877L267.567 269.563C267.416 269.721 267.259 269.721 267.259 269.874C266.796 270.499 266.332 270.962 265.873 271.587C265.56 271.897 265.253 272.207 264.945 272.675C264.481 273.143 266.332 270.809 265.873 271.277C265.101 272.055 264.329 272.833 263.402 273.763L255.994 255.875L257.073 254.787L267.723 262.877Z" fill="#304D89"/>
<path d="M302.117 292.274C306.595 292.274 311.224 294.918 315.697 295.539C318.168 296.006 320.946 296.006 322.645 294.293C323.569 293.362 324.032 292.117 324.34 290.871C327.426 280.762 327.89 269.251 324.96 258.985C321.718 247.783 315.082 251.205 311.38 260.23C307.83 268.783 306.439 278.118 303.816 286.981C303.201 288.852 302.737 290.561 302.117 292.274Z" fill="#EBB6AB"/>
<path d="M286.376 313.897C286.226 313.897 286.226 314.043 286.08 314.043C286.226 314.043 286.376 313.897 286.376 313.897Z" fill="#F7C108"/>
<path d="M255.673 253.698L266.938 241.876C269.561 239.232 273.418 238.454 276.812 240.163C286.534 245.141 296.105 241.719 300.734 239.385C303.049 238.297 305.671 238.297 307.834 239.695C314.006 243.432 321.106 251.054 323.421 253.541C323.88 254.008 323.729 254.629 323.265 254.939L310.149 262.718L312.156 285.895C312.156 285.895 292.091 290.72 264.931 284.654L264.775 261.32L255.673 254.939C255.365 254.786 255.209 254.161 255.673 253.698Z" fill="#FF6FCA"/>
<path d="M290.831 224.919C288.672 227.41 286.05 229.429 283.271 231.142C283.423 230.517 283.579 230.054 283.579 229.429V226.785L283.887 224.919H290.831Z" fill="#304D89"/>
<path d="M322.937 302.226L263.832 301.296L264.604 283.875H311.979L322.937 302.226Z" fill="#304D89"/>
<path d="M318.772 282.008C316.609 282.633 309.973 282.786 309.05 282.786C307.966 282.633 307.043 282.633 305.959 282.475C303.029 282.165 300.099 281.855 297.321 281.697C291.456 281.234 285.743 281.077 279.883 280.767C276.021 280.609 272.163 279.678 268.305 280.142C267.382 280.299 266.455 280.456 265.527 280.609C262.441 281.387 259.355 282.633 256.576 284.189C256.269 284.341 255.345 284.967 255.189 285.434C255.033 285.587 255.345 285.897 255.497 285.745C258.124 284.341 261.054 283.411 264.14 282.943C264.296 282.943 264.448 282.943 264.448 283.1C264.448 283.253 264.296 283.411 264.14 283.411C261.054 283.878 257.968 284.967 255.189 286.522C255.033 286.522 255.033 286.675 255.033 286.833C255.033 286.986 255.033 286.986 255.189 287.143C255.189 287.3 255.345 287.3 255.497 287.3C257.968 286.055 260.898 285.277 264.448 284.656C264.604 284.656 264.755 284.656 264.755 284.809C264.755 284.967 264.604 285.119 264.448 285.119C261.054 285.587 258.124 286.522 255.653 287.611C255.497 287.611 255.497 287.921 255.497 287.921C255.653 288.078 255.653 288.231 255.805 288.389C255.805 288.541 255.961 288.541 256.117 288.389C258.583 287.3 261.825 286.365 264.448 286.208C264.604 286.208 264.755 286.365 264.755 286.522C264.755 286.675 264.604 286.833 264.448 286.833C261.982 286.986 259.203 287.763 256.889 288.699C256.732 288.856 256.576 289.167 256.889 289.167C257.812 289.477 258.895 288.856 259.667 288.699C260.898 288.389 262.289 288.231 263.525 288.231H263.676C267.69 288.389 271.704 289.319 275.713 289.167C283.277 289.009 290.528 291.963 297.472 293.987C300.407 294.765 303.337 295.543 306.423 295.853C309.665 296.321 313.059 296.631 316.453 296.631C318.772 296.631 320.93 296.478 323.089 296.011C324.173 293.367 325.096 290.565 326.023 287.763C327.103 284.189 324.016 280.609 320.315 281.387C320.159 281.855 319.387 282.008 318.772 282.008ZM306.887 283.564H306.73C306.579 283.564 306.579 283.564 306.423 283.564C306.579 283.564 306.73 283.564 306.887 283.564Z" fill="#EBB6AB"/>
<path d="M277.43 336.922C277.273 342.673 281.903 347.341 287.616 347.341H322.955C333.292 347.341 341.779 338.788 341.779 328.365V257.743C341.779 257.586 341.779 257.275 341.779 257.123C341.164 250.589 331.905 249.654 330.055 256.034C329.898 256.655 329.742 257.123 329.742 257.743V310.166C329.742 319.497 322.335 326.966 313.076 326.966H287.923C282.215 326.809 277.43 331.166 277.43 336.922Z" fill="#8769B8"/>
<path d="M345.02 294.451L344.404 287.296L343.32 277.651L342.549 271.427L359.835 272.983L357.52 294.451H345.02Z" fill="#F383C1"/>
<path d="M361.011 273.761H341.566V271.117H361.011V273.761Z" fill="#304D89"/>
<path d="M344.547 271.118H357.975L356.74 269.251H345.626L344.547 271.118Z" fill="#304D89"/>
<path d="M343.324 277.498L344.408 287.144C346.874 286.833 348.729 284.81 348.729 282.323C348.729 279.679 346.566 277.498 343.944 277.498C343.637 277.498 343.48 277.498 343.324 277.498Z" fill="#FFDE17"/>
<path d="M56.5703 293.369H366.754V300.524H56.5703V293.369Z" fill="#C6E6FF"/>
<path d="M56.5703 298.807H59.9642V415.16H56.5703V298.807Z" fill="#C6E6FF"/>
<path d="M363.541 298.807H366.939V415.16H363.541V298.807Z" fill="#C6E6FF"/>
<path d="M292.392 221.655C292.392 221.655 292.392 221.498 292.392 221.655C288.534 219.942 286.068 216.83 284.525 213.098C283.754 213.566 283.134 214.033 282.362 214.654L282.211 214.811C281.747 215.274 281.283 215.742 280.975 216.21C279.276 218.696 278.812 221.966 279.896 224.61C280.819 226.944 284.061 228.032 286.376 227.722C288.075 227.564 289.77 226.786 291.161 225.855C291.313 225.698 291.313 225.541 291.469 225.388C291.62 225.23 291.777 224.92 291.933 224.767C292.084 223.832 292.084 222.276 292.548 221.808C292.704 221.808 292.548 221.655 292.392 221.655Z" fill="#EBB6AB"/>
<path d="M290.55 223.055C290.398 224.61 291.629 226.009 293.484 226.477L293.02 222.587L290.55 223.055Z" fill="#304D89"/>
<path d="M292.209 219.631C292.549 219.714 292.857 219.858 293.137 220.066C293.417 220.275 293.651 220.525 293.83 220.826C294.009 221.127 294.129 221.451 294.179 221.793C294.234 222.141 294.221 222.483 294.138 222.826C294.055 223.169 293.908 223.479 293.706 223.761C293.5 224.044 293.247 224.275 292.948 224.461C292.655 224.641 292.333 224.757 291.989 224.813C291.644 224.868 291.304 224.85 290.965 224.766C290.629 224.683 290.317 224.539 290.037 224.331C289.757 224.127 289.527 223.873 289.343 223.572C289.164 223.271 289.049 222.951 288.994 222.604C288.944 222.256 288.958 221.914 289.04 221.571C289.123 221.233 289.265 220.918 289.472 220.636C289.679 220.353 289.927 220.122 290.225 219.941C290.524 219.756 290.845 219.64 291.19 219.585C291.529 219.534 291.874 219.548 292.209 219.631Z" fill="#EBB6AB"/>
<path d="M191.016 294.143H243.793C245.336 294.143 246.419 292.897 246.419 291.499L242.098 257.899C242.098 256.343 240.863 255.255 239.476 255.255H186.695C185.151 255.255 184.072 256.496 184.072 257.899L188.394 291.499C188.394 292.897 189.629 294.143 191.016 294.143Z" fill="#3400B1"/>
<path d="M212.468 294.298H269.566C270.645 294.298 271.573 293.367 271.573 292.279C271.573 291.186 270.645 290.255 269.566 290.255H212.468C211.389 290.255 210.461 291.186 210.461 292.279C210.461 293.367 211.232 294.298 212.468 294.298Z" fill="#3400B1"/>
<path d="M214.597 275.942C214.597 276.169 214.556 276.391 214.468 276.599C214.386 276.808 214.262 276.993 214.101 277.155C213.94 277.313 213.761 277.438 213.55 277.526C213.343 277.614 213.127 277.655 212.902 277.655C212.677 277.655 212.461 277.614 212.25 277.526C212.044 277.438 211.86 277.313 211.699 277.155C211.543 276.993 211.419 276.808 211.332 276.599C211.249 276.391 211.203 276.169 211.203 275.942C211.203 275.715 211.249 275.497 211.332 275.289C211.419 275.081 211.543 274.895 211.699 274.733C211.86 274.571 212.044 274.451 212.25 274.363C212.461 274.275 212.677 274.233 212.902 274.233C213.127 274.233 213.343 274.275 213.55 274.363C213.761 274.451 213.94 274.571 214.101 274.733C214.262 274.895 214.386 275.081 214.468 275.289C214.556 275.497 214.597 275.715 214.597 275.942Z" fill="white"/>
<path d="M104.614 162.698L102.764 162.388C103.071 162.856 103.535 163.323 104.155 163.476C104.307 163.476 104.463 163.633 104.614 163.633C105.234 163.633 105.542 163.323 105.85 163.008L104.614 162.698Z" fill="#E7F0F8"/>
<path d="M49.9883 195.831V221.966C49.9883 233.788 58.7828 243.276 69.7404 243.276H77.4557V200.656C68.3535 201.586 58.7828 199.41 49.9883 195.831Z" fill="#FFB1DF"/>
<path d="M67.7075 293.678H93.0165C92.2449 292.28 91.3219 290.877 90.0865 289.788C88.3873 288.08 86.2288 286.834 83.9142 286.209L77.7374 286.366L77.8935 225.858C77.5858 224.77 77.2782 223.677 76.8143 222.899C75.8866 221.348 74.3436 220.255 72.9567 219.167C67.8636 215.435 61.5352 213.569 57.3699 216.213C54.5914 217.921 53.0484 221.191 52.5845 224.77C51.3492 235.967 56.4422 251.678 59.0645 263.5C61.0714 272.521 62.6145 285.436 67.7075 293.678Z" fill="#FFB1DF"/>
<path d="M100.283 150.253C101.055 150.096 101.826 150.406 102.442 150.721L103.829 151.652C105.22 152.12 106.915 152.43 107.842 151.652C108.306 151.342 108.614 150.721 108.77 150.253C108.77 150.096 108.77 150.096 108.614 149.943C108.306 149.318 108.15 148.698 108.15 147.92C107.842 147.762 107.535 147.452 107.227 147.142L106.607 146.984C104.141 146.054 101.514 146.054 99.1994 146.984L96.7333 147.92L96.1133 149.008C96.421 149.165 96.5771 149.476 96.8848 149.943C97.3487 150.874 97.8125 151.809 98.2763 152.74C98.1202 151.652 99.0479 150.406 100.283 150.253Z" fill="#304D89"/>
<path d="M826.541 113.939V120.186C826.541 123.7 823.712 126.511 820.268 126.511H820.19C816.704 126.511 813.912 123.7 813.912 120.186V107.614H820.268C823.712 107.614 826.541 110.462 826.541 113.939Z" fill="#EBB6AB"/>
<path d="M818.987 114.05L813.912 117.019V112.569C814.996 113.31 816.626 113.893 818.987 114.05Z" fill="#304D89"/>
<path d="M864.593 410.823V413.597H827.486V409.768L827.371 379.081H842.131V398.251L860.023 404.341C862.425 405.16 864.17 407.272 864.556 409.731C864.593 410.083 864.593 410.434 864.593 410.823Z" fill="#2300B1"/>
<path d="M864.593 410.823V413.596H827.486V409.767H864.52C864.593 410.082 864.593 410.434 864.593 410.823Z" fill="#7ADCFB"/>
<path d="M745.941 410.821V413.595H783.049V409.765L783.163 379.078H768.408V398.249L750.511 404.338C748.109 405.158 746.369 407.27 745.978 409.728C745.941 410.08 745.941 410.432 745.941 410.821Z" fill="#2300B1"/>
<path d="M768.404 375.916V393.175H783.123L783.201 375.916H768.404Z" fill="#F7C108"/>
<path d="M745.941 410.82V413.594H783.048V409.765H746.019C745.941 410.08 745.941 410.431 745.941 410.82Z" fill="#7ADCFB"/>
<path d="M858.46 195.107C857.954 191.945 857.298 188.745 856.365 185.661C854.584 179.567 851.837 173.987 847.456 170.121C846.565 169.338 845.637 168.639 844.59 167.972C842.423 166.606 839.828 165.708 836.962 165.161H836.884C836.223 165.045 835.53 164.93 834.831 164.809C833.05 164.578 831.19 164.42 829.33 164.379C826.542 164.305 823.676 164.42 820.962 164.652C820.384 164.693 819.8 164.772 819.222 164.809C816.434 165.124 813.835 165.513 811.552 165.944C803.222 167.541 792.259 169.222 787.768 177.891C786.762 179.803 786.142 181.873 785.637 184.022C785.366 185.193 785.173 186.402 785.017 187.61C784.98 187.846 784.939 188.078 784.939 188.314C784.824 189.175 784.709 190.069 784.59 190.968C784.59 191.009 784.59 191.046 784.59 191.088C784.59 191.125 784.59 191.167 784.59 191.167C784.59 191.204 784.59 191.204 784.59 191.241C776.769 255.819 769.6 320.36 763.249 385.096C763.056 386.967 762.9 388.921 763.483 390.676C764.875 394.58 769.329 395.872 773.164 396.691C778.046 397.668 786.84 396.77 790.712 393.413C792.416 391.926 793.499 389.819 794.468 387.708C799.272 377.09 797.995 367.018 799.892 355.423C803.92 331.02 806.707 307.084 809.38 282.528C809.849 278.426 817.206 232.24 821.275 220.293C821.353 244.303 821.467 268.354 821.545 292.405C821.624 309.27 822.165 326.098 822.358 342.967C822.473 351.557 822.515 360.184 822.358 368.773C822.244 374.474 819.8 385.249 823.056 390.208C825.922 394.543 830.377 393.839 834.79 393.839C839.13 393.839 844.476 394.816 848.737 393.098C855.282 390.482 853.541 384.119 853.693 378.261C853.89 371.626 854.083 364.948 854.276 358.308C854.781 340.508 855.282 322.662 855.824 304.862C856.756 272.452 857.683 240.047 858.616 207.642C858.616 207.448 858.616 207.249 858.616 207.054C858.689 204.012 858.809 200.965 858.887 197.918C858.767 197.02 858.616 196.047 858.46 195.107ZM821.624 219.395C821.816 218.922 821.973 218.496 822.165 218.223C822.202 218.496 822.244 218.77 822.244 219.043L821.624 219.395Z" fill="#2E7DFB"/>
<path d="M858.904 197.917C858.825 200.964 858.706 204.011 858.633 207.054C854.835 207.017 851.115 206.859 847.592 206.702C830.472 205.924 810.908 203.423 797.08 194.329C795.84 193.504 794.407 193.625 793.323 194.13C790.651 193.231 787.748 192.611 785.19 191.513C784.997 191.439 784.804 191.36 784.648 191.282C784.607 191.282 784.607 191.282 784.57 191.24C784.533 191.203 784.455 191.203 784.414 191.166L784.57 191.087L784.648 191.046L785.305 190.694L833.801 164.887C834.15 164.85 834.499 164.808 834.848 164.808C835.546 164.887 836.24 165.003 836.901 165.16H836.979C839.804 165.748 842.44 166.642 844.607 167.971C845.654 168.638 846.582 169.337 847.473 170.12C851.854 173.986 854.6 179.566 856.382 185.66C857.315 188.744 857.971 191.944 858.476 195.107C858.633 196.047 858.784 197.019 858.904 197.917Z" fill="#304D89"/>
<path d="M852.668 188.906C851.116 189.216 849.568 189.411 848.094 189.568C839.341 190.425 830.509 190.971 821.793 190.309C820.052 190.194 818.348 190.036 816.603 189.8C812.888 189.295 807.152 188.397 801.926 186.758C802.932 179.691 807.657 173.403 813.779 169.773C820.089 166.064 827.758 165.008 835.005 165.906C838.335 166.337 841.742 167.198 844.337 169.384C848.365 172.662 850.652 183.049 852.668 188.906Z" fill="#304D89"/>
<path d="M874.381 154.508C875.236 143.968 874.345 140.18 872.251 133.503C870.239 127.062 865.784 120.931 859.199 118.315C849.826 114.647 838.9 115.935 829.141 116.912C824.067 117.416 818.992 118.12 813.881 118.278C810.588 118.393 807.258 118.004 803.924 117.731C801.251 117.301 798.62 116.754 796.025 116.402C795.791 116.439 795.557 116.481 795.364 116.481C794.165 116.675 792.962 116.912 791.8 117.222C791.258 117.379 790.679 117.532 790.138 117.69C789.981 117.731 789.903 117.768 789.825 117.768C789.747 117.81 789.591 117.884 789.361 117.963C788.392 118.393 787.465 118.824 786.574 119.37C786.454 119.449 786.032 119.722 785.756 119.875C784.402 120.894 783.281 122.066 782.349 123.311V122.922C782.312 122.959 782.312 123.001 782.271 123.001C772.939 135.337 771.928 151.854 772.512 166.575C772.59 168.172 772.627 169.853 772.746 171.571C775.726 173.016 778.243 175.554 779.368 178.716C779.639 179.42 779.869 180.119 780.103 180.865C781.729 182.893 782.583 185.315 783.01 187.968C783.162 188.83 783.318 189.728 783.474 190.585C783.474 190.626 783.474 190.626 783.474 190.663C783.86 191.64 784.25 192.654 784.673 193.632C786.34 194.178 788.085 194.53 789.789 194.882C801.678 197.22 813.766 198.239 825.848 198.355C835.336 198.47 845.757 199.369 854.9 196.637C855.984 196.327 857.031 195.933 858.037 195.502C859.121 195.035 860.246 194.683 861.33 194.335C862.799 193.826 864.237 193.28 865.592 192.418C870.469 189.334 873.688 183.949 873.881 178.091L874.616 154.234C874.538 154.234 874.538 154.508 874.381 154.508Z" fill="#D0EDFC"/>
<path d="M860.015 194.254C848.011 193.745 836.002 192.847 824.112 191.518C818.647 190.934 813.15 190.23 807.841 188.749C802.187 187.188 798.118 185.859 797.577 179.298C795.951 178.672 794.169 179.691 792.695 180.664C789.944 182.46 787.198 184.257 784.405 186.054C784.02 186.327 783.436 186.637 782.816 186.952C782.894 187.262 782.936 187.614 783.014 187.966C783.165 188.827 783.322 189.726 783.478 190.582C783.478 190.624 783.478 190.624 783.478 190.661C783.863 191.638 784.254 192.652 784.676 193.629C786.343 194.176 788.089 194.528 789.792 194.88C801.682 197.218 813.77 198.237 825.852 198.352C835.34 198.468 845.761 199.367 854.904 196.635C855.988 196.324 857.035 195.931 858.041 195.5C859.125 195.032 860.25 194.68 861.333 194.333C860.906 194.291 860.443 194.254 860.015 194.254Z" fill="#7ADCFB"/>
<path d="M780.412 155.87C780.372 155.946 780.337 156.021 780.337 156.132C780.297 156.172 780.297 156.208 780.262 156.248C780.297 156.097 780.337 155.986 780.412 155.87Z" fill="#EBB6AB"/>
<path d="M807.307 118.422C804.905 120.57 804.671 123.696 803.78 126.622C802.076 132.286 802.581 138.727 802.581 144.543C802.581 147.159 802.737 149.854 802.889 152.586C802.889 152.744 802.889 152.901 802.93 153.017C803.435 162.232 804.129 172.498 798.903 180.583C796.189 184.76 793.438 186.32 789.061 187.686C788.868 187.765 788.675 187.802 788.441 187.881C784.143 189.325 781.47 191.122 777.286 187.881C774.384 185.658 772.602 181.907 772.175 178.319C771.518 172.813 773.3 167.386 775.04 162.153C775.504 160.787 775.973 159.421 776.436 158.055C779.339 149.813 782.71 141.732 786.893 134.004C789.759 128.729 797.043 114.949 803.743 113.972C806.531 113.583 810.251 115.768 807.307 118.422Z" fill="#EBB6AB"/>
<path d="M851.801 169.146C846.377 169.42 839.755 170.67 835.493 171.999C825.927 174.962 816.439 176.486 807.258 180.001C803.539 177.657 799.084 176.407 794.707 176.606C792.884 176.68 790.482 177.736 790.909 179.533C791.222 180.936 792.962 181.33 794.28 181.876C796.875 182.927 798.62 185.428 800.824 187.224C807.451 192.494 821.858 192.457 829.876 192.887C836.462 193.235 844.558 194.291 851.801 194.017V169.146Z" fill="#EBB6AB"/>
<path d="M803.376 158.567V158.41L803.219 158.373C799.697 157.942 796.56 157.632 793.617 157.437C788.928 157.28 784.202 157.238 779.591 157.201L776.574 157.164L776.262 157.984C775.757 159.387 775.293 160.794 774.866 162.082C773.203 167.078 771.302 172.7 772 178.363C772.464 182.308 774.402 185.938 777.189 188.082C778.971 189.453 780.482 189.921 781.956 189.921C783.545 189.921 785.056 189.374 786.76 188.749C787.339 188.555 787.922 188.319 788.542 188.124C788.735 188.045 788.969 187.967 789.162 187.93C793.46 186.601 796.326 185.04 799.114 180.743C803.298 174.144 803.647 166.18 803.376 158.567Z" fill="#D0EDFC"/>
<path d="M799.895 116.282C800.749 114.717 802.104 113.545 803.537 112.531C808.028 109.29 813.838 107.104 818.835 109.016C820.465 109.642 821.007 110.971 820.58 111.985C817.944 112.378 815.119 112.573 812.754 113.939C812.405 114.133 812.056 114.369 811.748 114.601C811.014 114.916 810.316 115.342 809.617 115.93C808.841 116.592 808.221 117.412 807.45 118.037C807.409 118.079 807.409 118.079 807.372 118.116C806.71 118.546 806.017 118.898 805.204 119.13C804.892 119.208 804.658 119.366 804.465 119.519C803.615 119.718 802.761 119.755 801.911 119.639C801.25 119.56 799.588 119.287 799.197 118.662C798.77 118 799.509 116.944 799.895 116.282Z" fill="#EBB6AB"/>
<path d="M811.286 100.821C813.182 101.173 815.35 100.9 817.21 101.289C818.721 101.599 819.846 102.891 820.388 104.336C820.659 105.077 820.774 105.896 821.086 106.637C821.357 107.3 821.743 107.888 822.248 108.392C823.332 109.564 825.192 110.268 826.624 109.684C826.817 109.606 827.01 109.527 827.166 109.369C828.365 108.513 828.636 106.911 828.714 105.466C828.755 104.882 828.792 104.294 828.792 103.711C828.833 101.599 828.677 99.4553 828.287 97.3854C827.901 95.1581 827.01 93.5188 824.879 92.6992C821.008 91.2545 816.553 92.3843 812.562 91.6435C811.515 91.449 810.431 91.2915 809.426 91.5647C806.248 92.3843 806.326 96.1722 807.759 98.4782C808.65 99.96 809.89 100.548 811.286 100.821Z" fill="#304D89"/>
<path d="M815.869 113.477C816.333 113.125 816.953 112.968 817.651 113.047C820.595 113.477 823.502 113.903 826.445 114.255V101.53C826.445 97.4693 823.111 94.1492 819.006 94.1492C814.941 94.1492 811.57 97.4693 811.57 101.53V108.597C811.648 109.726 812.19 112.306 815.869 113.477Z" fill="#EBB6AB"/>
<path d="M822.801 108.323C824.155 109.101 825.901 108.634 826.713 107.268C827.485 105.902 827.021 104.184 825.666 103.401C824.312 102.623 822.566 103.091 821.754 104.457C820.941 105.823 821.405 107.541 822.801 108.323Z" fill="#304D89"/>
<path d="M811.571 98.5605C811.571 98.5975 810.758 98.014 810.758 98.0511C814.744 98.403 818.505 98.7133 819.589 98.5605C820.09 103.284 822.262 103.126 824.508 103.83C826.597 104.455 828.769 103.52 828.342 100.862C828.108 99.3384 826.988 97.2685 825.784 96.3331C823.81 94.7726 821.449 93.6381 818.969 93.3649C816.489 93.0917 813.853 93.7168 811.92 95.319C811.144 95.9812 811.258 97.5834 811.571 98.5605Z" fill="#304D89"/>
<path d="M819.586 99.412V102.07C819.586 102.964 820.321 103.667 821.212 103.667C822.103 103.667 822.837 102.927 822.837 102.07V99.5278L819.586 99.412Z" fill="#304D89"/>
<path d="M825.457 106.054V107.499C825.457 108.434 825.921 109.254 826.656 109.685C826.849 109.606 827.005 109.527 827.161 109.37C828.359 108.513 828.63 106.911 828.708 105.466C828.75 104.883 828.75 104.216 828.786 103.632C828.516 103.517 828.167 103.359 827.859 103.359H827.818C826.463 103.396 825.457 104.683 825.457 106.054Z" fill="#304D89"/>
<path d="M822.514 107.221C823.868 107.999 825.609 107.531 826.426 106.165C827.198 104.799 826.734 103.081 825.379 102.298C824.024 101.521 822.279 101.988 821.466 103.354C820.69 104.72 821.159 106.438 822.514 107.221Z" fill="#EBB6AB"/>
<path d="M732.51 415.192H886.017V414.569H732.51V415.192Z" fill="#26A4FB"/>
<path d="M638.653 37.554C638.653 27.2601 630.391 18.9297 620.178 18.9297C609.969 18.9297 601.707 27.2601 601.707 37.554C601.707 41.7632 603.144 45.8844 605.744 49.1582C607.043 50.7975 608.623 52.2005 610.387 53.3211C611.08 53.7425 612.66 54.1639 613.17 54.7705C613.868 55.6133 613.45 65.4857 613.542 65.4857H626.864C626.864 62.3508 626.727 59.1696 626.773 55.9884C626.819 54.3538 629.092 53.8814 630.208 53.0896C631.879 51.9644 633.409 50.5613 634.708 48.9684C637.262 45.7408 638.653 41.7169 638.653 37.554Z" fill="#F8C208"/>
<path d="M620.162 7C619.515 7 618.959 7.56031 618.959 8.21323V12.5197C618.959 13.1773 619.515 13.7376 620.162 13.7376C620.814 13.7376 621.37 13.1773 621.37 12.5197V8.21323C621.37 7.514 620.814 7 620.162 7Z" fill="#EBB6AB"/>
<path d="M599.787 16.216C599.557 15.9845 599.277 15.8409 598.951 15.8409C598.625 15.8409 598.35 15.9845 598.115 16.216C597.652 16.6837 597.652 17.4339 598.115 17.9016L601.133 20.9439C601.367 21.1754 601.693 21.3189 601.969 21.3189C602.295 21.3189 602.575 21.1754 602.804 20.9439C603.268 20.4762 603.268 19.726 602.804 19.2583L599.787 16.216Z" fill="#EBB6AB"/>
<path d="M650.17 37.2203H645.899C645.252 37.2203 644.691 37.7806 644.691 38.4382C644.691 39.0911 645.252 39.656 645.899 39.656H650.17C650.822 39.656 651.378 39.0911 651.378 38.4382C651.378 37.7806 650.822 37.2203 650.17 37.2203Z" fill="#EBB6AB"/>
<path d="M594.451 37.2203H590.18C589.528 37.2203 588.973 37.7806 588.973 38.4382C588.973 39.0911 589.528 39.656 590.18 39.656H594.451C595.099 39.656 595.659 39.0911 595.659 38.4382C595.659 37.7806 595.099 37.2203 594.451 37.2203Z" fill="#EBB6AB"/>
<path d="M640.549 16.2151L637.531 19.2574C637.068 19.7251 637.068 20.4753 637.531 20.943C637.761 21.1745 638.087 21.3181 638.367 21.3181C638.689 21.3181 638.969 21.1745 639.203 20.943L642.22 17.9007C642.684 17.433 642.684 16.6828 642.22 16.2151C641.757 15.7475 641.013 15.7475 640.549 16.2151Z" fill="#EBB6AB"/>
<path d="M618.959 8.21323V12.5197C618.959 13.1773 619.515 13.7376 620.162 13.7376C620.814 13.7376 621.37 13.1773 621.37 12.5197V8.21323C621.37 7.56031 620.814 7 620.162 7C619.515 7 618.959 7.514 618.959 8.21323Z" fill="#EBB6AB"/>
<path d="M598.115 17.9007L601.133 20.943C601.597 21.4107 602.341 21.4107 602.804 20.943C603.268 20.4753 603.268 19.7251 602.804 19.2574L599.787 16.2151C599.323 15.7475 598.579 15.7475 598.115 16.2151C597.652 16.6828 597.652 17.433 598.115 17.9007Z" fill="#EBB6AB"/>
<path d="M637.531 57.6264L640.549 60.6687C641.013 61.1364 641.757 61.1364 642.22 60.6687C642.684 60.201 642.684 59.4508 642.22 58.9832L639.203 55.8946C638.739 55.4269 637.995 55.4269 637.531 55.8946C637.068 56.3623 637.068 57.1587 637.531 57.6264Z" fill="#EBB6AB"/>
<path d="M599.787 60.6748L602.804 57.6325C603.268 57.1648 603.268 56.4147 602.804 55.947C602.341 55.4793 601.597 55.4793 601.133 55.947L598.115 58.9893C597.652 59.457 597.652 60.2071 598.115 60.6748C598.579 61.1425 599.323 61.1425 599.787 60.6748Z" fill="#EBB6AB"/>
<path d="M639.203 20.943L642.22 17.9007C642.684 17.433 642.684 16.6828 642.22 16.2151C641.757 15.7475 641.013 15.7475 640.549 16.2151L637.531 19.2574C637.068 19.7251 637.068 20.4753 637.531 20.943C637.995 21.4107 638.739 21.4107 639.203 20.943Z" fill="#EBB6AB"/>
<path d="M627.285 58.7068V65.4906C627.285 65.8657 627.193 66.2871 627.101 66.7085C627.004 66.991 626.867 67.2688 626.729 67.5513C626.357 68.2042 625.893 68.8617 625.287 69.422C624.175 70.501 622.687 71.2465 621.25 71.2465H619.115C616.423 71.2465 613.544 68.5329 613.126 66.1019C613.08 65.912 613.08 65.6805 613.08 65.4906V58.7068H627.285Z" fill="#8C66B9"/>
<path d="M607.911 31.851C607.819 31.851 607.677 31.851 607.585 31.8047C606.891 31.6195 606.519 30.9156 606.703 30.2627C607.677 26.5629 611.947 23.289 615.383 22.3537C616.035 22.1684 616.728 22.5898 616.916 23.2427C617.1 23.9466 616.682 24.5995 616.035 24.7847C613.344 25.5349 609.863 28.2021 609.164 30.9156C608.976 31.4759 608.466 31.851 607.911 31.851Z" fill="white"/>
</g>
<defs>
<filter id="filter0_d" x="0" y="0" width="924" height="432.192" filterUnits="userSpaceOnUse" color-interpolation-filters="sRGB">
<feFlood flood-opacity="0" result="BackgroundImageFix"/>
<feColorMatrix in="SourceAlpha" type="matrix" values="0 0 0 0 0 0 0 0 0 0 0 0 0 0 0 0 0 0 127 0"/>
<feOffset dy="5"/>
<feGaussianBlur stdDeviation="6"/>
<feColorMatrix type="matrix" values="0 0 0 0 0.823529 0 0 0 0 0.831373 0 0 0 0 0.843137 0 0 0 1 0"/>
<feBlend mode="normal" in2="BackgroundImageFix" result="effect1_dropShadow"/>
<feBlend mode="normal" in="SourceGraphic" in2="effect1_dropShadow" result="shape"/>
</filter>
</defs>
</svg>
