<?xml version="1.0" encoding="UTF-8" standalone="no"?>
<!DOCTYPE svg PUBLIC "-//W3C//DTD SVG 1.1//EN" "http://www.w3.org/Graphics/SVG/1.1/DTD/svg11.dtd">
<svg width="100%" height="100%" viewBox="0 0 671 789" version="1.1" xmlns="http://www.w3.org/2000/svg" xmlns:xlink="http://www.w3.org/1999/xlink" xml:space="preserve" xmlns:serif="http://www.serif.com/" style="fill-rule:evenodd;clip-rule:evenodd;">
    <g id="Artboard1" transform="matrix(0.854244,0,0,0.947768,13.2522,31.0879)">
        <rect x="-15.513" y="-32.801" width="785.05" height="831.921" style="fill:none;"/>
        <clipPath id="_clip1">
            <rect x="-15.513" y="-32.801" width="785.05" height="831.921"/>
        </clipPath>
        <g clip-path="url(#_clip1)">
            <g transform="matrix(1.17063,0,0,1.05511,-5.26125,-25.4911)">
                <path d="M356.504,763C356.504,766.227 354.211,768.816 351.392,768.816C348.566,768.816 346.273,766.227 346.273,763C346.273,759.797 348.566,757.185 351.392,757.185C354.211,757.185 356.504,759.797 356.504,763Z" style="fill:rgb(30,179,251);"/>
            </g>
            <g transform="matrix(1.17063,0,0,1.05511,-5.26125,-25.4911)">
                <path d="M356.504,736.148C356.504,739.358 354.211,741.963 351.392,741.963C348.566,741.963 346.273,739.358 346.273,736.148C346.273,732.937 348.566,730.332 351.392,730.332C354.211,730.332 356.504,732.937 356.504,736.148Z" style="fill:rgb(30,179,251);"/>
            </g>
            <g transform="matrix(1.17063,0,0,1.05511,-5.26125,-25.4911)">
                <path d="M356.504,709.287C356.504,712.498 354.211,715.102 351.392,715.102C348.566,715.102 346.273,712.498 346.273,709.287C346.273,706.084 348.566,703.472 351.392,703.472C354.211,703.472 356.504,706.084 356.504,709.287Z" style="fill:rgb(30,179,251);"/>
            </g>
            <g transform="matrix(1.17063,0,0,1.05511,-5.26125,-25.4911)">
                <path d="M411.214,616.478C389.292,655.672 356.225,684.216 352.179,687.635C351.912,687.853 351.652,688.07 351.392,688.249C351.173,688.102 350.892,687.884 350.66,687.682C347.166,684.745 318.46,660.055 296.742,625.214C313.589,626.342 331.127,626.383 349.099,625.243C370.79,623.869 391.638,620.868 411.214,616.478Z" style="fill:rgb(30,179,251);"/>
            </g>
            <g transform="matrix(1.17063,0,0,1.05511,-5.26125,-25.4911)">
                <path d="M655,313C655,141.354 515.646,2 344,2L313,2C141.354,2 2,141.354 2,313C2,484.646 141.354,624 313,624L344,624C515.646,624 655,484.646 655,313Z" style="fill:none;stroke:rgb(30,179,251);stroke-width:4px;"/>
            </g>
        </g>
    </g>
</svg>
