<svg width="42" height="41" viewBox="0 0 42 41" fill="none" xmlns="http://www.w3.org/2000/svg">
  <g clip-path="url(#clip0_12191_72674)">
    <path
      d="M10.9779 0.0233154C10.1811 0.0233154 9.53516 0.669229 9.53516 1.46603V4.35138H12.4205V1.46603C12.4205 0.669229 11.7746 0.0233154 10.9779 0.0233154Z"
      fill="currentColor" />
    <path
      d="M31.1751 0.0233154C30.3783 0.0233154 29.7324 0.669229 29.7324 1.46603V4.35138H32.6178V1.46603C32.6179 0.669229 31.9719 0.0233154 31.1751 0.0233154Z"
      fill="currentColor" />
    <path
      d="M36.9462 4.3512H32.6181V10.122C32.6181 10.9188 31.9722 11.5647 31.1754 11.5647C30.3786 11.5647 29.7327 10.9188 29.7327 10.122V4.3512H12.4204V10.122C12.4204 10.9188 11.7745 11.5647 10.9777 11.5647C10.1809 11.5647 9.53496 10.9188 9.53496 10.122V4.3512H5.20697C2.81665 4.3512 0.878906 6.28894 0.878906 8.67927V36.0904C0.878906 38.4807 2.81665 40.4185 5.20697 40.4185H36.9462C39.3365 40.4185 41.2742 38.4807 41.2742 36.0904V8.67927C41.2742 6.28894 39.3365 4.3512 36.9462 4.3512ZM38.3888 36.0904C38.3888 36.8872 37.7429 37.5331 36.9461 37.5331H5.20697C4.41017 37.5331 3.76426 36.8872 3.76426 36.0904V17.3354H38.3888V36.0904Z"
      fill="currentColor" />
    <path
      d="M12.4208 20.221H9.53549C8.73869 20.221 8.09277 20.8669 8.09277 21.6637C8.09277 22.4605 8.73869 23.1064 9.53549 23.1064H12.4208C13.2176 23.1064 13.8636 22.4605 13.8636 21.6637C13.8636 20.8669 13.2176 20.221 12.4208 20.221Z"
      fill="currentColor" />
    <path
      d="M22.5205 20.221H19.6351C18.8383 20.221 18.1924 20.8669 18.1924 21.6637C18.1924 22.4605 18.8383 23.1064 19.6351 23.1064H22.5205C23.3173 23.1064 23.9632 22.4605 23.9632 21.6637C23.9632 20.8669 23.3173 20.221 22.5205 20.221Z"
      fill="currentColor" />
    <path
      d="M32.6191 20.221H29.7337C28.9369 20.221 28.291 20.8669 28.291 21.6637C28.291 22.4605 28.9369 23.1064 29.7337 23.1064H32.6191C33.4159 23.1064 34.0618 22.4605 34.0618 21.6637C34.0618 20.8669 33.4158 20.221 32.6191 20.221Z"
      fill="currentColor" />
    <path
      d="M12.4208 25.992H9.53549C8.73869 25.992 8.09277 26.6379 8.09277 27.4347C8.09277 28.2315 8.73869 28.8774 9.53549 28.8774H12.4208C13.2176 28.8774 13.8636 28.2315 13.8636 27.4347C13.8636 26.6379 13.2176 25.992 12.4208 25.992Z"
      fill="currentColor" />
    <path
      d="M22.5205 25.992H19.6351C18.8383 25.992 18.1924 26.6379 18.1924 27.4347C18.1924 28.2315 18.8383 28.8774 19.6351 28.8774H22.5205C23.3173 28.8774 23.9632 28.2315 23.9632 27.4347C23.9632 26.6379 23.3173 25.992 22.5205 25.992Z"
      fill="currentColor" />
    <path
      d="M32.6191 25.992H29.7337C28.9369 25.992 28.291 26.6379 28.291 27.4347C28.291 28.2315 28.9369 28.8774 29.7337 28.8774H32.6191C33.4159 28.8774 34.0618 28.2315 34.0618 27.4347C34.0617 26.6379 33.4158 25.992 32.6191 25.992Z"
      fill="currentColor" />
    <path
      d="M12.4208 31.7622H9.53549C8.73869 31.7622 8.09277 32.4081 8.09277 33.2049C8.09277 34.0017 8.73869 34.6476 9.53549 34.6476H12.4208C13.2176 34.6476 13.8636 34.0016 13.8636 33.2048C13.8636 32.408 13.2176 31.7622 12.4208 31.7622Z"
      fill="currentColor" />
    <path
      d="M22.5205 31.7622H19.6351C18.8383 31.7622 18.1924 32.4081 18.1924 33.2049C18.1924 34.0017 18.8383 34.6476 19.6351 34.6476H22.5205C23.3173 34.6476 23.9632 34.0017 23.9632 33.2049C23.9632 32.4081 23.3173 31.7622 22.5205 31.7622Z"
      fill="currentColor" />
    <path
      d="M32.6191 31.7622H29.7337C28.9369 31.7622 28.291 32.4081 28.291 33.2049C28.291 34.0017 28.9369 34.6476 29.7337 34.6476H32.6191C33.4159 34.6476 34.0618 34.0017 34.0618 33.2049C34.0618 32.4081 33.4158 31.7622 32.6191 31.7622Z"
      fill="currentColor" />
  </g>
  <defs>
    <clipPath id="clip0_12191_72674">
      <rect width="40.3953" height="40.3953" fill="white"
        transform="translate(0.879883 0.0230103)" />
    </clipPath>
  </defs>
</svg>