<svg width="154" height="147" viewBox="0 0 154 147" fill="none"
  xmlns="http://www.w3.org/2000/svg">
  <path d="M27.0254 144.5H123.109" stroke="black"/>
  <path d="M130.153 143.811L128.782 139.063L116.201 143.811H130.153Z" fill="white"/>
  <path d="M128.913 143.811L128.072 140.9L120.361 143.811H128.913Z" fill="#F7981A"/>
  <path d="M139.413 101.456C139.413 101.456 139.676 100.958 139.833 100.696C139.99 100.433 139.99 99.809 140.043 99.4633C140.095 99.1205 140.41 98.8561 140.62 98.7522C140.832 98.6474 140.569 98.1139 140.62 97.6974C140.674 97.28 141.278 96.8607 141.292 96.5972C141.304 96.3356 141.54 95.7039 141.292 95.4395C141.041 95.1788 141.12 92.8689 141.292 92.7112C141.462 92.5516 141.296 91.7121 141.404 91.5535C141.514 91.3958 141.778 90.8707 141.778 90.8707C141.778 90.8707 142.355 90.4495 142.46 90.1341C142.566 89.8196 142.67 88.3512 142.67 88.27C142.67 88.1897 143.301 86.6683 142.67 86.1943C142.039 85.7221 141.778 84.9562 141.778 84.7088C141.778 84.4605 141.671 83.6209 141.671 83.6209C141.671 83.6209 140.779 83.1997 140.779 82.8843C140.779 82.5699 139.938 80.9399 139.73 80.6764C139.518 80.4149 139.632 79.6263 138.841 79.3638C138.047 79.1013 137.523 78.5243 137.523 78.3647C137.523 78.2089 136.838 77.7348 136.838 77.7348H137.732C137.732 77.7348 137.416 76.7904 137.311 76.6318C137.207 76.4741 136.662 75.5826 136.408 75.4249C136.156 75.2653 134.685 74.3729 134.685 74.3729C134.685 74.3729 133.685 74.4258 133.265 74.3729C132.844 74.321 132.058 73.5844 132.058 73.5844C132.058 73.5844 130.967 73.7421 130.962 73.795C130.953 73.8469 130.69 73.6373 129.956 73.5844C129.221 73.5315 128.222 73.1651 128.065 73.2699C127.906 73.3747 126.899 72.9026 126.93 72.743C126.961 72.5862 126.015 72.2189 125.541 72.3775C125.069 72.5352 124.348 73.2699 123.895 72.9026C123.441 72.5352 123.197 72.1943 122.899 72.3369C122.601 72.4823 121.023 73.5844 120.97 73.7421C120.917 73.8998 120.97 74.7412 120.97 74.7412L120.214 75.6346L120.603 76.2135C120.603 76.2135 118.889 76.4222 118.379 76.3693C117.871 76.3164 117.328 76.8103 117.075 77.0908C116.822 77.3674 116.269 77.9454 116.31 78.2599C116.348 78.5762 115.716 79.1967 115.874 79.5971C116.032 79.9946 116.323 80.362 116.31 80.5197C116.295 80.6764 115.559 81.7285 115.559 81.7285C115.559 81.7285 114.534 82.8324 114.969 83.3046C115.401 83.7786 115.401 84.4302 115.191 84.7088C114.981 84.9846 114.404 85.2499 114.614 85.8269C114.824 86.4039 114.732 87.403 114.569 87.6665C114.404 87.929 113.72 88.8753 113.825 89.1359C113.93 89.3985 113.878 90.3447 113.825 90.5043C113.773 90.6611 113.248 91.2909 113.195 91.6583C113.142 92.0256 112.669 92.8689 113.195 93.2344C113.72 93.6027 113.563 94.3374 113.46 94.7066C113.353 95.0749 113.51 96.0712 113.825 96.3356C114.142 96.5972 114.509 97.4726 114.509 97.4726C114.509 97.4726 114.586 98.3839 114.969 98.4888C115.349 98.5926 115.349 99.1791 115.401 99.4633C115.455 99.7495 116.138 99.9213 116.31 100.145C116.481 100.369 117.818 100.906 117.978 100.906C118.133 100.906 139.413 101.456 139.413 101.456Z" fill="#2E3192"/>
  <path d="M122.898 100.275C122.915 100.205 124.229 97.4727 124.229 97.4727C124.229 97.4727 128.764 97.4915 128.835 97.552C128.905 97.6134 129.367 98.0969 129.367 98.0969L130.962 100.896L128.816 101.456L122.898 100.275Z" fill="#F7981A"/>
  <path d="M116.741 143.811C116.857 143.354 116.893 143.061 116.893 143.061C116.776 140.478 113.588 141.193 113.588 141.193C112.797 142.17 112.28 143.04 111.943 143.811H116.741Z" fill="#793620"/>
  <path d="M117.186 143.811C116.953 143.337 116.74 143.065 116.74 143.065L115.439 142.253C115.571 142.808 115.693 143.326 115.807 143.811H117.186Z" fill="#793620"/>
  <path d="M116.549 100.146C115.858 100.38 114.586 108.857 112.745 120.207C112.072 124.351 114.113 123.023 116.56 122.725C120.548 122.232 122.007 108.421 121.401 104.286C120.798 100.15 116.549 100.146 116.549 100.146Z" fill="url(#paint0_linear)"/>
  <path d="M116.613 142.253C116.09 142.114 115.261 141.497 114.613 141.625C113.404 141.859 112.832 142.176 112.351 142.991C110.986 124.612 112.745 122.388 112.745 122.388C112.745 122.388 118.702 117.241 118.23 122.761C117.269 134.053 116.032 140.033 116.613 142.253Z" fill="url(#paint1_linear)"/>
  <path d="M118.656 101.206C118.656 101.206 124.895 99.7183 125.321 99.7183C125.746 99.7183 128.275 100.071 128.428 100.071C128.583 100.071 138.842 102.339 138.842 102.339C138.842 102.339 136.827 110.051 136.322 110.451C135.814 110.847 128.039 117.727 127.601 117.658C127.163 117.586 119.79 107.8 119.79 107.8L118.656 101.206Z" fill="#793620"/>
  <path d="M130.935 143.811C130.065 138.334 129.169 134.535 129.169 134.535L119.437 130.64C118.696 133.115 116.833 135.921 116.59 143.811H130.935Z" fill="#793620"/>
  <path d="M123.895 94.3889C123.848 94.1613 129.586 94.5938 129.586 94.5938C129.586 94.5938 128.856 99.0937 129.415 100.532C129.415 100.532 126.144 102.754 124.268 101.095C124.268 101.095 124.018 95.0207 123.895 94.3889Z" fill="#793620"/>
  <path d="M123.385 94.8099C123.385 94.8099 126.115 98.8659 129.619 95.1291C132.278 92.2894 130.514 82.1103 128.342 80.5493C126.17 78.992 121.562 79.4019 120.513 83.8819C119.695 87.3864 120.992 92.5236 123.385 94.8099Z" fill="#9D4B36"/>
  <path d="M138.839 100.38C140.412 102.184 146.023 110.846 150.538 114.911C153.659 117.719 152.81 118.748 150.4 119.278C146.475 120.145 137.342 113.07 136.539 108.969C135.737 104.866 138.839 100.38 138.839 100.38Z" fill="url(#paint2_linear)"/>
  <path d="M120.98 110.585C120.873 111.382 120.715 112.201 120.549 113.026C120.856 113.079 121.864 117.036 122.075 117.055C125.161 117.314 127.022 112.729 129.615 111.017C130.433 110.478 131.469 109.901 132.59 109.427C132.555 106.881 132.646 104.358 132.925 101.847C131.788 103.24 135.16 103.974 133.51 104.05L125.553 105.576C124.379 105.614 120.055 104.752 118.377 103.021C118.753 105.731 121.378 107.662 120.98 110.585Z" fill="#DEDDDE"/>
  <path d="M126.617 143.811H140.342C140.296 139.532 140.033 136.91 140.033 136.91C139.293 136.222 137.438 135.653 136.968 134.915C136.896 135.053 136.83 135.196 136.754 135.332C133.953 140.189 128.782 141.919 123.268 142.802L123.818 142.83C124.311 143.433 125.554 143.512 126.617 143.811Z" fill="#9D4B36"/>
  <path d="M122.172 143.165C122.35 143.356 122.541 143.574 122.741 143.811H132.534C136.346 137.048 140.318 137.577 140.359 137.216C140.507 135.889 137.842 135.568 137.736 135.622C132.965 138.081 129.669 141.024 124.298 140.384C121.689 140.075 119.095 139.647 116.585 138.853L116.492 139.185C116.492 139.185 120.409 141.263 122.172 143.165Z" fill="#2E3192"/>
  <path d="M141.909 143.811C141.895 139.857 141.465 136.209 140.364 133.429C140.364 133.429 132.029 146.625 113.824 136.527C113.824 136.527 112.774 137.26 112.744 143.811H141.909Z" fill="#DEDDDE"/>
  <path d="M129.297 98.0161C129.297 98.0161 132.558 110.152 123.267 114.181C123.267 114.181 121.667 118.725 121.562 118.811C121.456 118.899 119.696 124.268 119.696 124.268L113.824 136.527C113.824 136.527 115.837 139.993 121.06 140.433C137.084 141.783 141.291 134.915 141.291 134.915L137.248 126.265L138.998 113.003L138.351 107.717L138.84 100.38L130.538 99.7188L129.297 98.0161Z" fill="url(#paint3_linear)"/>
  <path d="M124.112 97.6978C124.112 97.6978 120.372 107.054 123.267 114.18C123.267 114.18 123.018 122.549 122.785 122.761C122.553 122.977 119.696 124.268 119.696 124.268C119.696 124.268 115.274 107.634 116.535 99.9925C116.535 99.9925 116.609 99.4637 122.783 99.7187L124.112 97.6978Z" fill="url(#paint4_linear)"/>
  <path d="M146.636 115.597C141.63 121.167 137.32 123.134 133.66 124.326C134.224 125.994 133.925 127.881 132.527 128.859C141.35 130.308 153.025 118.519 153.025 118.519C153.025 118.519 150.341 111.475 146.636 115.597Z" fill="url(#paint5_linear)"/>
  <path d="M133.66 124.326C133.66 124.326 131.875 123.284 129.7 123.261C127.526 123.237 127.385 123.318 125.98 123.476C125.01 123.583 125.836 124.113 125.867 124.163C125.89 124.196 125.74 124.121 125.75 124.404C125.754 124.586 125.95 124.998 126.116 125.178C126.222 125.289 126.593 125.676 126.755 125.846C127.523 126.658 128.532 129.066 132.721 128.953C132.721 128.953 135.641 125.986 133.66 124.326Z" fill="#9D4B36"/>
  <path d="M134.008 124.694C134.008 124.694 132.477 122.725 130.05 122.059C127.618 121.39 129.209 122.636 133.566 126.404L134.008 124.694Z" fill="#9D4B36"/>
  <path d="M118.654 105.674C118.724 105.886 114.967 115.411 114.967 115.411L119.009 120.989C119.009 120.989 119.853 116.567 120.174 115.411C120.499 114.254 118.654 105.674 118.654 105.674Z" fill="url(#paint6_linear)"/>
  <path d="M122.582 116.562C122.582 116.562 123.104 122.308 124.56 125.391L122.077 140.51L121.061 140.433L123.895 125.462C123.895 125.462 122.365 120.309 122.582 116.562Z" fill="white"/>
  <path d="M124.559 82.0241C124.559 82.0241 124.362 83.2168 125.222 83.5672C126.085 83.9166 125.847 84.1272 126.176 84.4794C126.505 84.8279 126.929 85.1783 126.929 85.1783C126.929 85.1783 127.418 85.7401 127.556 86.37C127.695 86.9999 128.748 86.931 128.748 86.931C128.748 86.931 128.538 87.7006 128.748 88.051C128.956 88.4013 130.007 89.102 130.007 89.102V90.5752L130.567 91.1343C130.567 91.1343 130.383 92.0229 130.567 92.2543C130.752 92.4875 130.722 92.1136 130.961 91.9039C131.199 91.6933 132.319 88.5609 132.319 88.2701C132.319 87.9801 131.898 86.5088 131.898 86.0197C131.898 85.5305 132.738 85.7401 131.898 83.4284C131.058 81.1176 133.859 80.7634 130.427 79.294C126.996 77.8227 124.753 76.6319 123.28 77.2627C121.81 77.8926 120.506 78.4545 120.213 78.8039C119.918 79.1542 119.488 79.5971 119.488 79.5971C119.488 79.5971 124.383 80.7634 124.112 80.7634C123.844 80.7634 124.559 82.0241 124.559 82.0241Z" fill="#2E3192"/>
  <path d="M63.7676 138.448C63.7676 138.448 66.7914 137.917 68.2334 135.868C68.2334 135.868 68.4629 135.757 68.6621 136.085C68.8633 136.417 68.6366 138.143 68.054 138.786C67.4723 139.426 65.8858 139.528 65.8858 139.528L63.7676 138.448Z" fill="#E66F64"/>
  <path d="M58.5662 128.566C58.5662 128.566 57.755 134.777 64.8716 139.003C64.8716 139.003 68.8983 142.225 65.3966 143.113C61.8931 144.002 55.498 140.153 52.7962 134.472C51.2607 131.249 50.0944 120.691 58.5662 128.566Z" fill="#E66F64"/>
  <path d="M59.9098 104.225C59.9098 104.225 55.2938 107.029 51.2208 128.962C51.2208 128.962 51.117 130.741 56.8492 129.641C60.3395 128.969 59.0778 127.46 63.9507 115.57C63.9507 115.57 62.0893 102.621 59.9098 104.225Z" fill="#BDBCBC"/>
  <path d="M59.3395 127.275C59.3395 127.275 60.1215 129.264 59.1516 130.175C58.1808 131.09 51.2172 132.678 50.7044 132.13C50.1935 131.579 48.5182 126.579 50.7545 125.521C52.9935 124.458 59.3395 127.275 59.3395 127.275Z" fill="#BDBCBC"/>
  <path d="M65.4932 143.811H69.4557C69.6653 143.721 69.8561 143.638 70.0317 143.583C70.7598 142.341 71.0507 140.822 70.0128 139.725C69.6937 139.39 69.4717 139 69.3244 138.583C68.4566 138.545 67.6029 138.472 66.905 138.288C64.4705 137.659 65.3308 138.319 65.3308 138.319C62.289 139.768 63.2145 142.32 63.2145 142.32C64.0672 143.032 64.8227 143.506 65.4932 143.811Z" fill="#E66F64"/>
  <path d="M78.6155 79.0393C78.6155 79.0393 80.2502 79.2707 81.5666 81.6051C82.8858 83.9405 83.172 89.7274 83.0114 92.3801C82.85 95.0319 81.5883 95.1197 81.5883 95.1197L78.9488 95.9214L79.0896 100.724C79.0896 100.724 74.0335 101.588 72.4508 100.427L72.1212 95.2661C72.1212 95.2661 66.1652 76.0929 78.6155 79.0393Z" fill="#F68C82"/>
  <path d="M78.7657 86.8875C78.7657 86.8875 77.3114 85.5267 77.4861 87.9301C77.7987 92.173 78.7091 92.7453 79.2549 94.8522C79.7988 96.9609 79.7799 96.9864 77.5664 98.2528C75.3481 99.5201 75.3944 98.961 73.8126 99.0706C72.2318 99.182 71.4489 98.1923 70.2241 97.7324C68.9993 97.2744 68.5261 96.993 67.7877 95.8371C67.1899 94.9003 66.9859 93.921 66.662 93.0551C66.1955 91.8151 66.2644 89.3674 66.4863 88.0009C66.7101 86.6344 66.1908 85.4578 66.1643 83.9506C66.1407 82.4444 67.7754 79.6991 68.5384 79.2487C69.3014 78.7963 71.1609 78.1211 72.0098 77.7453C72.8579 77.3675 75.9723 75.3221 77.8214 76.782C79.6704 78.2429 80.8093 77.649 81.9803 77.6754C83.7679 77.7207 84.6386 79.9626 84.8048 81.2224C84.972 82.4821 84.1476 83.1762 83.5366 83.5351C82.9246 83.8958 81.51 82.9609 81.51 82.9609C81.51 82.9609 78.9281 83.5398 78.8139 84.182C78.7015 84.826 78.7657 86.8875 78.7657 86.8875Z" fill="#2E3192"/>
  <path d="M62.9185 129.995L62.1007 143.811H89.4037C89.0902 137.919 88.364 124.272 88.3612 124.241C88.3583 124.199 89.6247 103.591 89.6247 103.591L76.4954 99.3931L72.4026 99.6783C72.4026 99.6783 61.0836 103.006 59.652 103.739C58.2204 104.476 59.9296 118.34 60.7475 119.449C61.5671 120.556 62.9185 129.995 62.9185 129.995Z" fill="#E7E6E6"/>
  <path d="M93.418 138.211C93.418 138.211 90.3479 138.13 88.6197 136.316C88.6197 136.316 88.378 136.236 88.2288 136.593C88.0786 136.949 88.5593 138.624 89.227 139.172C89.8974 139.721 91.4783 139.59 91.4783 139.59L93.418 138.211Z" fill="#F68C82"/>
  <path d="M96.0215 126.849C96.0215 126.849 98.1491 132.74 92.1119 138.4C92.1119 138.4 88.8747 142.413 92.484 142.525C96.098 142.638 101.512 137.504 102.928 131.374C103.732 127.896 102.6 117.335 96.0215 126.849Z" fill="#F68C82"/>
  <path d="M89.4651 103.371C89.4651 103.371 94.5778 105.112 103.276 125.657C103.276 125.657 103.763 127.369 97.9274 127.529C94.3748 127.627 95.2804 125.881 87.9607 115.32C87.9607 115.32 86.9909 102.272 89.4651 103.371Z" fill="#E7E6E6"/>
  <path d="M94.9866 125.755C94.9866 125.755 94.6533 127.867 95.7969 128.549C96.9386 129.23 104.084 129.286 104.465 128.637C104.845 127.99 105.405 122.747 102.992 122.193C100.575 121.641 94.9866 125.755 94.9866 125.755Z" fill="#E7E6E6"/>
  <path d="M92.4332 143.811C93.0715 143.411 93.7704 142.82 94.5362 141.957C94.5362 141.957 95.0754 139.298 91.858 138.311C91.858 138.311 92.6069 137.532 90.2923 138.514C89.6294 138.796 88.7955 138.994 87.9437 139.158C87.8606 139.592 87.6963 140.011 87.4309 140.389C86.666 141.487 86.9786 142.753 87.685 143.811H92.4332Z" fill="#F68C82"/>
  <path d="M15.1973 137.535C15.1973 137.535 18.1153 137.022 19.5044 135.048C19.5044 135.048 19.7245 134.939 19.9181 135.258C20.1126 135.575 19.8916 137.243 19.3307 137.861C18.7707 138.478 17.2408 138.577 17.2408 138.577L15.1973 137.535Z" fill="#E66F64"/>
  <path d="M10.6885 127.877C10.6885 127.877 12.3166 134.5 16.264 138.069C16.264 138.069 20.1452 141.175 16.7673 142.033C13.3894 142.889 6.32563 138.694 3.72111 133.215C2.23943 130.109 2.5199 120.284 10.6885 127.877Z" fill="#BDBCBC"/>
  <path d="M11.479 104.538C11.479 104.538 7.02641 107.239 3.10169 128.389C3.10169 128.389 2.9997 130.104 8.52603 129.043C11.8917 128.397 10.6735 126.941 15.3754 115.477C15.3754 115.477 13.5802 102.992 11.479 104.538Z" fill="#BDBCBC"/>
  <path d="M21.2205 138.765C22.2196 139.825 21.9401 141.289 21.2375 142.486C20.1147 142.846 18.3261 144.327 14.6648 141.268C14.6648 141.268 13.7724 138.808 16.7056 137.411C16.7056 137.411 15.8774 136.774 18.2241 137.384C18.8955 137.557 19.719 137.629 20.5576 137.665C20.6983 138.066 20.9126 138.442 21.2205 138.765Z" fill="#E66F64"/>
  <path d="M29.5071 80.382C29.5071 80.382 31.0804 80.6059 32.3515 82.8562C33.6226 85.1085 33.8993 90.6877 33.7435 93.246C33.5886 95.8023 32.3723 95.8873 32.3723 95.8873L29.8272 96.6598L29.9604 101.29C29.9604 101.29 25.0876 102.124 23.5615 101.004L23.2442 96.028C23.2442 96.028 17.5007 77.5424 29.5071 80.382Z" fill="#F68C82"/>
  <path d="M21.0742 97.878C21.0742 97.878 29.0228 96.8751 32.6132 98.8629L30.6367 101.338L21.0837 101.006L21.0742 97.878Z" fill="#E2E2E2"/>
  <path d="M15.3757 135.029L13.8477 143.811H37.9976C38.2648 137.976 38.906 123.996 38.9032 123.965C38.8994 123.926 37.9192 104.406 37.9192 104.406L27.4605 100.008L23.5169 100.284C23.5169 100.284 22.9758 100.441 22.1202 100.697C19.1323 101.588 12.2952 103.648 11.2224 104.199C9.84179 104.909 11.4887 118.277 12.2782 119.347C13.0677 120.413 15.3757 135.029 15.3757 135.029Z" fill="#E2E2E2"/>
  <path d="M37.9798 104.452C37.9798 104.452 38.6173 103.998 35.2894 105.961C32.3808 107.675 31.3363 129.091 36.3093 132.098C42.219 135.67 52.9742 126.212 58.5506 120.465C58.5506 120.465 60.9917 113.377 54.8903 116.457C48.6397 119.616 46.1437 120.895 41.0726 122.305C41.0726 122.305 40.5976 104.813 37.9798 104.452Z" fill="#E2E2E2"/>
  <path d="M54.6215 117.611C54.6215 117.611 53.358 114.81 54.919 111.78C56.4781 108.749 56.903 110.185 56.6783 117.792L54.6215 117.611Z" fill="#F68C82"/>
  <path d="M53.8965 117.42C53.8965 117.42 54.9315 115.916 57.0251 113.777C59.1178 111.644 58.8959 110.99 60.3841 109.769C61.4135 108.921 61.456 110.8 61.4683 110.882C61.4711 110.933 61.557 110.716 61.7808 110.985C61.9187 111.153 62.0604 111.722 62.0424 112.046C62.0292 112.252 62.2218 113.023 62.203 113.332C62.1104 114.826 62.3597 116.923 58.2018 120.895C58.2018 120.895 53.31 120.862 53.8965 117.42Z" fill="#F68C82"/>
  <path d="M52.1367 118.41L54.27 116.914L58.2013 120.895L56.1606 122.761L52.1367 118.41Z" fill="#E2E2E2"/>
  <path d="M26.4083 91.3103C26.4083 91.3103 24.3601 89.6718 25.8229 88.617C27.2866 87.5631 28.518 89.2025 28.518 89.2025C28.518 89.2025 29.2792 89.3791 29.6295 87.7963C29.9818 86.2155 29.8061 85.2192 30.9195 85.2192C32.0319 85.2192 32.795 85.631 33.6128 84.7518C34.4334 83.8726 34.7262 83.9887 35.4297 83.8131C36.1314 83.6384 38.5338 82.4079 37.7717 80.5938C37.0106 78.7769 32.7355 78.8345 32.0896 77.7815C31.4455 76.7267 31.0357 75.7304 29.0431 75.2034C27.0524 74.6765 24.3582 77.723 22.7178 78.4841C21.0784 79.2443 20.8442 79.538 18.6194 79.7722C16.3926 80.0074 14.4595 82.5845 15.3963 84.8689C16.334 87.1532 18.3842 87.5631 17.1537 89.9636C15.9232 92.3661 15.1611 93.7136 16.861 94.8251C18.5599 95.9385 21.3136 95.4701 20.8442 96.8772C20.3749 98.2815 19.4645 99.1115 21.1738 99.2183C22.8821 99.3259 23.7151 100.976 24.7095 99.7452C25.7058 98.5157 27.9316 99.4524 26.9353 96.1737C26.2157 93.8015 26.8182 94.1235 27.3461 93.4209C27.873 92.7174 26.4083 91.3103 26.4083 91.3103Z" fill="#2E3192"/>
  <path d="M72.6231 51.1459L77.9341 44.7328C77.9341 44.7328 121.698 49.8947 127.616 28.9509C133.535 8.00899 100.812 -4.73878 70.368 1.65824C37.3535 8.59543 63.1182 40.3898 72.3077 42.8951L72.6231 51.1459Z" fill="url(#paint7_linear)"/>
  <path d="M79.8343 16.1052C79.8343 16.8116 79.2611 17.3839 78.5538 17.3839H66.722C66.0156 17.3839 65.4434 16.8116 65.4434 16.1052C65.4434 15.397 66.0156 14.8247 66.722 14.8247H78.5538C79.2611 14.8247 79.8343 15.397 79.8343 16.1052Z" fill="white"/>
  <path d="M90.198 16.1052C90.198 16.8116 89.6238 17.3839 88.9174 17.3839H83.2834C82.5761 17.3839 82.002 16.8116 82.002 16.1052C82.002 15.397 82.5761 14.8247 83.2834 14.8247H88.9174C89.6238 14.8247 90.198 15.397 90.198 16.1052Z" fill="white"/>
  <path d="M110.26 16.1052C110.26 16.8116 109.686 17.3839 108.98 17.3839H93.7317C93.0244 17.3839 92.4512 16.8116 92.4512 16.1052C92.4512 15.397 93.0244 14.8247 93.7317 14.8247H108.98C109.686 14.8247 110.26 15.397 110.26 16.1052Z" fill="white"/>
  <path d="M101.895 21.9939C101.895 22.7494 101.283 23.3604 100.528 23.3604H69.1995C68.4459 23.3604 67.834 22.7494 67.834 21.9939C67.834 21.2404 68.4459 20.6284 69.1995 20.6284H100.528C101.283 20.6284 101.895 21.2404 101.895 21.9939Z" fill="white"/>
  <path d="M115.381 21.9939C115.381 22.7494 114.77 23.3604 114.016 23.3604H106.418C105.664 23.3604 105.053 22.7494 105.053 21.9939C105.053 21.2404 105.664 20.6284 106.418 20.6284H114.016C114.77 20.6284 115.381 21.2404 115.381 21.9939Z" fill="white"/>
  <path d="M97.7958 28.2679C97.7958 29.0914 97.1282 29.7609 96.3019 29.7609H71.4617C70.6363 29.7609 69.9668 29.0914 69.9668 28.2679C69.9668 27.4416 70.6363 26.7739 71.4617 26.7739H96.3019C97.1282 26.7739 97.7958 27.4416 97.7958 28.2679Z" fill="white"/>
  <path d="M116.92 28.2679C116.92 29.0914 116.249 29.7609 115.425 29.7609H103.815C102.99 29.7609 102.32 29.0914 102.32 28.2679C102.32 27.4416 102.99 26.7739 103.815 26.7739H115.425C116.249 26.7739 116.92 27.4416 116.92 28.2679Z" fill="white"/>
  <path d="M64.2348 54.1301L61.4404 50.7569C61.4404 50.7569 38.421 53.471 35.3075 42.4542C32.1939 31.4393 49.4066 24.7335 65.4199 28.0991C82.7856 31.7471 69.2323 48.4716 64.3991 49.7889L64.2348 54.1301Z" fill="#2E3192"/>
  <path d="M49.8564 38.9682C49.8564 40.5273 48.5928 41.7899 47.0356 41.7899C45.4784 41.7899 44.2148 40.5273 44.2148 38.9682C44.2148 37.409 45.4784 36.1455 47.0356 36.1455C48.5928 36.1455 49.8564 37.409 49.8564 38.9682Z" fill="white"/>
  <path d="M57.2948 38.9682C57.2948 40.5273 56.0312 41.7899 54.4731 41.7899C52.9139 41.7899 51.6504 40.5273 51.6504 38.9682C51.6504 37.409 52.9139 36.1455 54.4731 36.1455C56.0312 36.1455 57.2948 37.409 57.2948 38.9682Z" fill="white"/>
  <path d="M64.7333 38.9682C64.7333 40.5273 63.4697 41.7899 61.9106 41.7899C60.3534 41.7899 59.0898 40.5273 59.0898 38.9682C59.0898 37.409 60.3534 36.1455 61.9106 36.1455C63.4697 36.1455 64.7333 37.409 64.7333 38.9682Z" fill="white"/>
  <path d="M69.2496 35.2422H102.183C103.691 35.2422 104.914 36.5794 104.914 38.2311V62.6755C104.914 64.3272 103.691 65.6653 102.183 65.6653H73.3991C72.0194 67.1508 68.8011 70.559 68.0135 70.8867C67.0011 71.3097 66.5195 71.2889 66.5195 62.6755V38.2311C66.5195 36.5794 67.7425 35.2422 69.2496 35.2422Z" fill="#D3AEFE"/>
  <path d="M100.398 40.1696C100.398 40.57 100.074 40.8949 99.6724 40.8949H72.3561C71.9538 40.8949 71.6309 40.57 71.6309 40.1696C71.6309 39.7692 71.9538 39.4443 72.3561 39.4443H99.6724C100.074 39.4443 100.398 39.7692 100.398 40.1696Z" fill="white"/>
  <path d="M100.398 43.7555C100.398 44.1559 100.074 44.4808 99.6724 44.4808H72.3561C71.9538 44.4808 71.6309 44.1559 71.6309 43.7555C71.6309 43.3551 71.9538 43.0303 72.3561 43.0303H99.6724C100.074 43.0303 100.398 43.3551 100.398 43.7555Z" fill="white"/>
  <path d="M100.398 47.3415C100.398 47.7419 100.074 48.0667 99.6724 48.0667H72.3561C71.9538 48.0667 71.6309 47.7419 71.6309 47.3415C71.6309 46.9401 71.9538 46.6162 72.3561 46.6162H99.6724C100.074 46.6162 100.398 46.9401 100.398 47.3415Z" fill="white"/>
  <path d="M100.398 50.925C100.398 51.3273 100.074 51.6531 99.6724 51.6531H72.3561C71.9538 51.6531 71.6309 51.3273 71.6309 50.925C71.6309 50.5256 71.9538 50.2017 72.3561 50.2017H99.6724C100.074 50.2017 100.398 50.5256 100.398 50.925Z" fill="white"/>
  <path d="M100.398 54.5114C100.398 54.9108 100.074 55.2366 99.6724 55.2366H72.3561C71.9538 55.2366 71.6309 54.9108 71.6309 54.5114C71.6309 54.111 71.9538 53.7852 72.3561 53.7852H99.6724C100.074 53.7852 100.398 54.111 100.398 54.5114Z" fill="white"/>
  <path d="M100.398 58.0973C100.398 58.4977 100.074 58.8226 99.6724 58.8226H72.3561C71.9538 58.8226 71.6309 58.4977 71.6309 58.0973C71.6309 57.6969 71.9538 57.3711 72.3561 57.3711H99.6724C100.074 57.3711 100.398 57.6969 100.398 58.0973Z" fill="white"/>
  <defs>
    <linearGradient id="paint0_linear" x1="117.074" y1="93.601" x2="117.074" y2="127.903" gradientUnits="userSpaceOnUse">
      <stop stop-color="#DCB7FE"/>
      <stop offset="1" stop-color="#3EBCFC"/>
    </linearGradient>
    <linearGradient id="paint1_linear" x1="115.045" y1="113.729" x2="115.044" y2="147.682" gradientUnits="userSpaceOnUse">
      <stop stop-color="#DCB7FE"/>
      <stop offset="1" stop-color="#3EBCFC"/>
    </linearGradient>
    <linearGradient id="paint2_linear" x1="144.483" y1="94.9861" x2="144.483" y2="123.257" gradientUnits="userSpaceOnUse">
      <stop stop-color="#DCB7FE"/>
      <stop offset="1" stop-color="#3EBCFC"/>
    </linearGradient>
    <linearGradient id="paint3_linear" x1="127.557" y1="85.9063" x2="127.557" y2="149.378" gradientUnits="userSpaceOnUse">
      <stop stop-color="#DCB7FE"/>
      <stop offset="1" stop-color="#3EBCFC"/>
    </linearGradient>
    <linearGradient id="paint4_linear" x1="120.21" y1="90.1435" x2="120.21" y2="129.738" gradientUnits="userSpaceOnUse">
      <stop stop-color="#DCB7FE"/>
      <stop offset="1" stop-color="#3EBCFC"/>
    </linearGradient>
    <linearGradient id="paint5_linear" x1="142.776" y1="110.129" x2="142.776" y2="132.005" gradientUnits="userSpaceOnUse">
      <stop stop-color="#DCB7FE"/>
      <stop offset="1" stop-color="#3EBCFC"/>
    </linearGradient>
    <linearGradient id="paint6_linear" x1="117.59" y1="101.319" x2="117.589" y2="124.142" gradientUnits="userSpaceOnUse">
      <stop stop-color="#DCB7FE"/>
      <stop offset="1" stop-color="#3EBCFC"/>
    </linearGradient>
    <linearGradient id="paint7_linear" x1="91.1804" y1="-14.5415" x2="91.1803" y2="61.676" gradientUnits="userSpaceOnUse">
      <stop stop-color="#DCB7FE"/>
      <stop offset="1" stop-color="#3EBCFC"/>
    </linearGradient>
  </defs>
</svg>
