<svg width="200" height="200" viewBox="0 0 200 200" fill="none"
  xmlns="http://www.w3.org/2000/svg">
  <circle cx="100" cy="100" r="97" stroke="url(#paint0_linear)" stroke-width="6" fill="none"/>
  <path d="M151.966 100.495C150.711 98.2032 149.308 95.9175 147.953 93.7021C145.848 90.2688 143.675 86.7214 142.06 83.1662C143.552 77.763 143.001 71.3091 140.403 63.911C127.727 33.6774 98.6283 29.5062 76.9638 38.4178C54.6944 47.5794 37.8156 70.9511 48.6424 97.8952C52.0131 106.316 54.5959 111.511 56.6706 115.687C62.2504 126.912 63.1087 128.637 62.0784 162.698C62.0597 163.329 62.5569 163.858 63.19 163.88C63.8717 163.909 64.3517 163.4 64.3704 162.767C65.4148 128.13 64.5236 126.336 58.7218 114.666C56.6643 110.528 54.1034 105.378 50.7686 97.04C40.4969 71.4827 56.6111 49.2711 77.8331 40.5393C99.1755 31.7576 126.151 35.8522 138.267 64.7365C140.742 71.7922 141.241 77.9115 139.746 82.9223C139.668 83.1865 139.685 83.4664 139.796 83.7165C141.488 87.5375 143.782 91.2819 146 94.9013C147.342 97.0916 148.728 99.3555 149.952 101.591C151.078 103.678 151.081 104.616 150.886 105.035C150.456 105.964 148.165 106.444 145.519 106.998C144.251 107.26 142.819 107.56 141.282 107.962C140.742 108.103 140.383 108.611 140.43 109.168C140.78 113.404 141.147 117.219 141.522 121.104C141.776 123.739 142.032 126.407 142.289 129.251C142.503 131.931 142.054 133.81 140.917 134.998C138.624 137.392 133.3 137.195 127.144 136.967L126.864 136.957C122.453 136.821 119.35 137.736 117.363 139.775C113.962 143.271 114.322 149.349 114.777 157.046C114.885 158.869 114.999 160.784 115.066 162.771C115.088 163.392 115.596 163.88 116.212 163.88C116.223 163.88 116.239 163.88 116.251 163.877C116.883 163.856 117.378 163.325 117.358 162.693C117.288 160.684 117.174 158.75 117.063 156.91C116.644 149.778 116.311 144.146 119.004 141.376C120.516 139.822 123.077 139.149 126.784 139.248L127.059 139.259C133.771 139.511 139.568 139.723 142.572 136.585C144.187 134.897 144.84 132.438 144.571 129.056C144.315 126.196 144.058 123.525 143.803 120.887C143.458 117.308 143.12 113.791 142.794 109.946C143.932 109.669 145.003 109.447 145.984 109.239C149.505 108.506 152.047 107.973 152.964 106.003C153.595 104.646 153.287 102.95 151.966 100.495Z" fill="#1EB3FB"/>
  <path d="M109.723 80.2675C105.495 81.3963 100.703 82.6752 96.124 85.6833C92.7845 87.8611 90.8099 90.5846 88.5258 93.7412C87.2922 95.4437 86.0165 97.2057 84.3545 99.1538C78.6918 105.775 72.9697 108.229 67.7994 106.241C60.603 103.475 55.1904 92.3216 55.478 80.8523C56.0065 60.9952 72.7086 45.4938 95.1922 43.9882C105.015 43.3425 114.532 46.7195 119.408 52.6074C124.503 58.8157 127.253 67.9337 121.911 74.3046C118.986 77.7942 114.693 78.9402 109.723 80.2675ZM123.665 75.7789C129.852 68.3996 126.874 58.0934 121.175 51.1471C115.842 44.7089 105.586 40.9848 95.039 41.7009C71.35 43.2862 53.7489 59.7256 53.1861 80.7929C52.9156 91.6446 57.9998 104.932 66.9786 108.381C68.245 108.867 69.7287 109.211 71.4015 109.211C75.3898 109.211 80.4382 107.257 86.0962 100.644C87.8191 98.6253 89.1808 96.7461 90.3816 95.0873C92.6204 91.9933 94.3886 89.5496 97.3763 87.6047C101.651 84.7968 106.055 83.6211 110.314 82.4829C115.437 81.1134 120.276 79.822 123.665 75.7789Z" fill="#1EB3FB"/>
  <path d="M100.312 63.0416C100.311 63.0425 100.31 63.0425 100.309 63.0425C100.298 63.0495 100.287 63.0574 100.276 63.0649C100.23 63.0926 100.185 63.1216 100.14 63.1501C100.124 63.1615 100.109 63.1716 100.093 63.1821C100.049 63.2111 100.007 63.2397 99.9646 63.2691C99.9462 63.2818 99.9286 63.2946 99.9102 63.3077C99.8711 63.3354 99.832 63.3635 99.7934 63.3916C99.7719 63.4083 99.7504 63.4241 99.7289 63.4408C99.6942 63.4662 99.6599 63.4926 99.6261 63.5189C99.5998 63.54 99.5743 63.5606 99.5488 63.5813C99.5199 63.6045 99.4913 63.6269 99.4632 63.6511C99.4312 63.6779 99.3991 63.7051 99.3671 63.7332C99.3464 63.7508 99.3249 63.7692 99.3038 63.7876C99.2639 63.8232 99.2239 63.8592 99.184 63.8961C99.1725 63.9071 99.1607 63.9176 99.1488 63.9286C99.0975 63.9773 99.0465 64.0261 98.9969 64.0757L97.3872 65.6823C97.3872 65.6832 97.3864 65.6832 97.3864 65.6832L94.8414 68.2228C94.8278 68.2364 94.8129 68.25 94.7967 68.2619C94.7857 68.2715 94.7725 68.2795 94.7598 68.2878C94.7558 68.2909 94.7527 68.2939 94.7488 68.2966C94.5112 68.4441 94.1174 68.4441 93.6441 68.2909C93.0399 68.095 92.3944 67.6854 91.8096 67.1299C91.7705 67.0931 91.731 67.0549 91.6919 67.0167C91.0776 66.4024 90.6241 65.7108 90.4151 65.068C90.239 64.5266 90.264 64.091 90.4831 63.8719L93.028 61.3327V61.3323L94.6913 59.6721C95.4641 58.9007 96.0529 57.9197 96.4415 56.7571C96.6645 56.091 97.036 55.5039 97.5449 55.0135C98.3743 54.2143 99.4777 53.813 100.58 53.813C101.64 53.813 102.7 54.1836 103.517 54.9283C104.408 55.741 104.913 56.8497 104.94 58.0502C104.967 59.2515 104.514 60.3808 103.663 61.23C103.177 61.7147 102.601 62.0691 101.95 62.2825C101.371 62.4717 100.821 62.7286 100.312 63.0416ZM89.6366 65.3205C89.8846 66.084 90.4089 66.8902 91.1128 67.5936C91.1593 67.6393 91.2054 67.6849 91.2528 67.7297C91.2704 67.7455 91.2871 67.7613 91.3046 67.7776C91.3345 67.8044 91.3639 67.8325 91.3942 67.8597C91.4153 67.8781 91.435 67.8957 91.4561 67.9141C91.4833 67.9378 91.5101 67.962 91.5382 67.9857C91.5593 68.0024 91.5799 68.02 91.6006 68.0371C91.6287 68.0608 91.6577 68.0841 91.6853 68.1073C91.7046 68.1223 91.724 68.1367 91.7424 68.1521C91.7745 68.1776 91.8069 68.2022 91.839 68.2268C91.8535 68.2373 91.868 68.2487 91.8816 68.2588C91.9207 68.2878 91.9597 68.3163 91.9993 68.3444C92.0063 68.3493 92.0133 68.3545 92.0208 68.3594C92.4726 68.679 92.9398 68.9218 93.3912 69.0676C93.7134 69.1725 94.0168 69.2244 94.2935 69.2244C94.6184 69.2244 94.9064 69.1506 95.147 69.0096C95.1488 69.0088 95.1501 69.0079 95.151 69.007C95.1773 68.9921 95.2024 68.9758 95.227 68.9592C95.2432 68.9482 95.259 68.9368 95.2753 68.9249C95.2911 68.9122 95.3077 68.8999 95.3231 68.8871C95.3569 68.8604 95.3894 68.8314 95.4197 68.8011L97.5585 66.6667C98.3392 68.4107 98.3286 69.9559 97.5053 70.7783C96.1165 72.1645 92.7488 71.1453 90.1512 68.5534C87.5544 65.9615 86.5344 62.5999 87.9233 61.2137C88.343 60.7944 88.9512 60.5863 89.6783 60.5863C90.3777 60.5863 91.1865 60.779 92.0423 61.1606L89.904 63.2946C89.4526 63.745 89.3582 64.4638 89.6366 65.3205ZM102.065 75.3285C100.729 76.662 98.5086 76.9799 95.8144 76.2255C95.1128 76.0279 94.4015 75.7645 93.6897 75.4404C93.6744 75.4308 93.6581 75.4211 93.6406 75.4141C93.0807 75.1555 92.5213 74.86 91.9672 74.5315C91.8039 74.4345 91.6414 74.3344 91.479 74.2325C91.4456 74.2106 91.4126 74.1899 91.3793 74.1684C91.3125 74.1263 91.2462 74.0828 91.1799 74.0398C91.1264 74.0038 91.0719 73.9686 91.0184 73.9322C90.9903 73.9138 90.963 73.8944 90.9349 73.876C90.9319 73.8747 90.9305 73.8716 90.927 73.8698C90.6807 73.703 90.4225 73.5195 90.156 73.3214C90.1503 73.3175 90.1441 73.314 90.1376 73.31C90.127 73.303 90.1169 73.2951 90.1073 73.2876C90.084 73.2701 90.0616 73.2525 90.0383 73.2349C90.0278 73.2253 90.0168 73.2161 90.0054 73.2073C89.7441 73.0097 89.507 72.824 89.28 72.6369C89.2783 72.636 89.2765 72.6356 89.2761 72.6338C89.2423 72.6066 89.2089 72.5785 89.1751 72.5508C89.0969 72.4859 89.0183 72.4191 88.9367 72.3489C88.7966 72.229 88.6495 72.0995 88.4901 71.9559C88.487 71.9533 88.4831 71.9519 88.48 71.9489C88.4326 71.9063 88.3856 71.8641 88.3382 71.8211C88.3342 71.8163 88.3303 71.8114 88.3255 71.8057C88.1551 71.6498 88.0041 71.508 87.8631 71.3737C87.7727 71.2858 87.6813 71.198 87.5918 71.1089C87.5031 71.0202 87.4161 70.9298 87.3287 70.8402C87.1944 70.7006 87.0512 70.5491 86.8927 70.3765C86.8879 70.3708 86.8813 70.3668 86.8761 70.3611C86.8343 70.3159 86.7926 70.2694 86.7509 70.2233C86.7478 70.2193 86.7456 70.2154 86.7421 70.2119C86.5085 69.9524 86.3048 69.7179 86.1182 69.494C86.1006 69.4724 86.0822 69.4509 86.0638 69.4294C86.0633 69.4272 86.0616 69.4246 86.0598 69.4233C85.8719 69.1954 85.6813 68.9543 85.4793 68.6869C85.4745 68.6803 85.4688 68.6755 85.464 68.6702C85.4477 68.6492 85.431 68.6285 85.4161 68.607C85.4064 68.5952 85.3968 68.5824 85.388 68.5697C85.3832 68.5631 85.3801 68.5561 85.3744 68.5486C85.1799 68.2878 84.995 68.0287 84.8238 67.7776L84.819 67.7728L84.7566 67.6792C84.7241 67.6305 84.6912 67.5809 84.6583 67.5317C84.6135 67.4636 84.5687 67.3956 84.5248 67.3271C84.5041 67.295 84.4839 67.2634 84.4637 67.2314C84.368 67.0794 84.2736 66.9262 84.1814 66.773C83.8446 66.2101 83.5417 65.6414 83.2782 65.0715C83.2703 65.054 83.2615 65.0377 83.251 65.0219C82.9265 64.3119 82.6622 63.6023 82.4655 62.9011C81.7089 60.2126 82.0277 57.997 83.3638 56.6635C84.2367 55.7924 85.4846 55.3691 86.9542 55.3691C89.2229 55.3691 92.019 56.3786 94.7694 58.3053C94.6864 58.4247 94.5999 58.538 94.5104 58.6486C94.4774 58.6895 94.4445 58.7299 94.4103 58.7698C94.3817 58.8036 94.3527 58.837 94.3233 58.8699C94.2544 58.9468 94.1846 59.0227 94.1121 59.0947L92.6574 60.5468C90.48 59.4921 88.4633 59.5198 87.3441 60.6359C85.5825 62.394 86.5617 66.1262 89.5729 69.1317C90.9784 70.535 92.6144 71.5489 94.1793 71.9879C94.7391 72.1451 95.2687 72.2228 95.7582 72.2228C96.7097 72.2228 97.5093 71.9295 98.0841 71.3557C99.2033 70.2395 99.2305 68.2254 98.1745 66.052L99.5761 64.6539C99.6327 64.5964 99.692 64.5407 99.7513 64.4853L99.7991 64.4423C99.8536 64.3936 99.9089 64.3448 99.9655 64.297C99.9721 64.2917 99.9774 64.2869 99.984 64.2812C100.05 64.2258 100.117 64.1727 100.186 64.12L100.212 64.1007C100.278 64.0498 100.346 64.0002 100.415 63.9523C100.417 63.9505 100.418 63.9488 100.421 63.9483C103.601 68.4691 104.284 73.1133 102.065 75.3289V75.3285ZM89.8096 84.7964C87.6822 86.9202 84.8528 88.09 81.8437 88.09C78.8343 88.09 76.0057 86.9202 73.8779 84.7964C71.7501 82.6721 70.5782 79.8488 70.5782 76.8459C70.5782 73.8417 71.7501 71.0184 73.8779 68.8946C76.0039 66.7721 78.8593 65.6024 81.8385 65.6024C82.1024 65.6024 82.368 65.612 82.6336 65.6305C82.8312 66.0445 83.0495 66.459 83.2857 66.8713L82.8993 67.2577C79.9614 66.935 77.0959 67.9356 75.0064 70.0213C71.2364 73.7842 71.2364 79.9072 75.0064 83.6697C75.2426 83.9051 75.4915 84.1294 75.7466 84.3371C75.8226 84.3986 75.9135 84.4289 76.0048 84.4289C76.1238 84.4289 76.2415 84.3771 76.3223 84.2778C76.4654 84.1031 76.4382 83.8458 76.263 83.7031C76.0294 83.513 75.802 83.3079 75.5851 83.0923C72.1343 79.6477 72.1343 74.0433 75.5851 70.5991C77.3392 68.8481 79.6953 67.9317 82.1432 68.02C82.1344 68.0296 82.1269 68.0402 82.1182 68.0498C82.1103 68.0599 82.1015 68.0704 82.0927 68.081C82.0773 68.0999 82.0633 68.1183 82.0488 68.1376C82.0409 68.1477 82.0325 68.1583 82.0246 68.1697C82.0097 68.1894 81.9961 68.2092 81.9816 68.2294C81.975 68.2399 81.968 68.2492 81.9614 68.2597C81.9465 68.2821 81.932 68.3054 81.9175 68.3282C81.9127 68.3365 81.907 68.3444 81.9021 68.3532C81.8648 68.416 81.8297 68.481 81.7985 68.5473C81.7941 68.5552 81.7902 68.564 81.7871 68.5719C81.7761 68.5965 81.7638 68.6215 81.7537 68.647C81.7489 68.6588 81.7441 68.6702 81.7401 68.6821C81.7313 68.7045 81.7221 68.726 81.7142 68.7484C81.7089 68.762 81.7045 68.7756 81.6997 68.7883C81.6927 68.8099 81.6857 68.8305 81.6791 68.852C81.6743 68.8656 81.6703 68.8801 81.6663 68.8946C81.6598 68.9152 81.6545 68.9368 81.6488 68.9574C81.6448 68.9719 81.6413 68.9864 81.6374 69.0013C81.6325 69.0224 81.6281 69.0439 81.6238 69.0645C81.6207 69.0799 81.6176 69.0948 81.6145 69.1093C81.6101 69.1308 81.6071 69.1523 81.6031 69.1739C81.6009 69.1892 81.5983 69.2033 81.5965 69.2186C81.5926 69.241 81.5904 69.2634 81.5878 69.2858L81.5829 69.3289C81.5807 69.3534 81.579 69.3785 81.5777 69.4031C81.5768 69.4149 81.5759 69.4272 81.575 69.4399C81.5737 69.4764 81.5728 69.5142 81.5728 69.5515C81.5728 70.1767 81.8165 70.766 82.2609 71.2086L87.4921 76.4297C87.5197 76.4578 87.5487 76.485 87.5777 76.5114C87.5869 76.5201 87.5975 76.528 87.6071 76.5368C87.6273 76.5535 87.6462 76.5711 87.6655 76.5869C87.6783 76.5965 87.6901 76.6062 87.7033 76.6159C87.7208 76.6304 87.7393 76.6444 87.7577 76.658C87.7713 76.6677 87.7841 76.6773 87.7977 76.6861C87.8161 76.6989 87.8337 76.7116 87.8513 76.7234C87.8653 76.7331 87.8798 76.7419 87.8943 76.7507C87.9118 76.7625 87.9294 76.7739 87.9479 76.784C87.9632 76.7928 87.9781 76.802 87.9926 76.8108C88.0111 76.82 88.0286 76.8306 88.0462 76.8402C88.0625 76.8481 88.0783 76.856 88.0936 76.8639C88.1112 76.8727 88.1288 76.8815 88.1472 76.8903C88.163 76.8978 88.1801 76.9048 88.1959 76.9127C88.2135 76.9202 88.2311 76.9281 88.2495 76.936C88.2662 76.9425 88.2833 76.9487 88.3 76.9557C88.3176 76.9623 88.3351 76.9693 88.3536 76.9759C88.3703 76.9816 88.3878 76.9878 88.4054 76.9935C88.4229 76.9992 88.4405 77.0053 88.4585 77.0102C88.4761 77.0159 88.4945 77.0216 88.5121 77.026C88.5296 77.0308 88.5472 77.0356 88.5648 77.0405C88.5832 77.0453 88.6016 77.0492 88.6192 77.0541C88.6368 77.058 88.6552 77.062 88.6728 77.0655C88.6912 77.0694 88.7097 77.0725 88.7281 77.0765C88.7457 77.0795 88.7632 77.0822 88.7817 77.0852C88.8001 77.0883 88.8181 77.091 88.8366 77.0931C88.855 77.0958 88.8726 77.098 88.8901 77.0997C88.9086 77.1019 88.9279 77.1046 88.9472 77.1054C88.9648 77.1068 88.9823 77.1085 88.9999 77.1094C89.0183 77.1107 89.0377 77.1116 89.0565 77.1125C89.0745 77.1133 89.0921 77.1133 89.1105 77.1142C89.1237 77.1142 89.1373 77.1147 89.1518 77.1147H89.1672C89.1847 77.1142 89.2041 77.1142 89.2225 77.1133C89.2401 77.1125 89.2585 77.1125 89.2761 77.1116L89.3358 77.1068C89.352 77.1059 89.3687 77.1046 89.3854 77.1028C89.4069 77.1011 89.4289 77.098 89.4504 77.0958C89.4649 77.0931 89.4798 77.0918 89.4943 77.0901C89.5193 77.0861 89.5439 77.0822 89.5685 77.0773C89.5799 77.0756 89.5913 77.0734 89.6032 77.0708C89.6366 77.0655 89.6704 77.0571 89.7033 77.0492C89.7055 77.0484 89.7086 77.0484 89.7112 77.0479C89.7481 77.0391 89.7841 77.0295 89.8201 77.0181C89.8241 77.0176 89.8289 77.0159 89.8328 77.0141C89.864 77.0053 89.8952 76.9957 89.9255 76.9847C89.936 76.9807 89.947 76.9768 89.9575 76.9728C89.9817 76.9641 90.0054 76.9553 90.0304 76.9456L90.0686 76.9289C90.0897 76.9202 90.1112 76.9114 90.1327 76.9017C90.1472 76.8951 90.1608 76.8881 90.1744 76.8815C90.1942 76.8714 90.2144 76.8626 90.2337 76.8521C90.2486 76.8442 90.2631 76.8363 90.2776 76.8288C90.2961 76.8187 90.3145 76.8091 90.3325 76.7976C90.3479 76.7889 90.3624 76.7801 90.3777 76.7709C90.3944 76.7603 90.412 76.7498 90.4287 76.7388C90.444 76.7291 90.459 76.7186 90.4743 76.7076C90.491 76.6971 90.5073 76.6861 90.5231 76.6743L90.5687 76.6405L90.6144 76.6045C90.6302 76.5926 90.6456 76.5799 90.6609 76.5671C90.6688 76.5605 90.6776 76.5535 90.6855 76.5465C90.74 78.0714 90.4023 79.5718 89.6936 80.9307H89.6928C89.5527 81.1999 89.3968 81.4633 89.2304 81.7158C89.1057 81.9033 89.1566 82.1571 89.3455 82.2818C89.4153 82.3274 89.4934 82.3498 89.5711 82.3498C89.7037 82.3498 89.8342 82.2849 89.9127 82.1659C90.095 81.8906 90.2653 81.6021 90.419 81.3083V81.3075C91.3064 79.6078 91.6599 77.7057 91.4495 75.7935L91.8368 75.4062C92.2504 75.6424 92.6653 75.8598 93.0807 76.0578C93.3086 79.3131 92.124 82.4864 89.8096 84.796V84.7964ZM90.2328 75.8523C89.6366 76.4464 88.6671 76.4464 88.0704 75.8523L82.8391 70.6303C82.5502 70.3423 82.3913 69.9589 82.3913 69.5515C82.3913 69.1436 82.5502 68.7611 82.8391 68.4722L83.7199 67.5936C84.3368 68.5736 85.0569 69.5357 85.8657 70.4604C85.8697 70.4652 85.8728 70.4692 85.8767 70.4731C85.9448 70.5504 86.0137 70.6281 86.0831 70.7054C86.1046 70.7304 86.127 70.7541 86.1489 70.7783C86.2016 70.8362 86.2534 70.8937 86.3061 70.9513C86.343 70.9903 86.3808 71.0303 86.4177 71.0694C86.4576 71.1128 86.4967 71.155 86.5366 71.1972C86.5696 71.2318 86.6025 71.2652 86.635 71.2995C86.6565 71.3227 86.6793 71.346 86.7017 71.3688C86.7255 71.393 86.7487 71.4176 86.7729 71.4426C86.7926 71.4624 86.8128 71.4826 86.8326 71.5032C86.8936 71.5655 86.9533 71.6261 87.0135 71.6859C87.0736 71.746 87.1351 71.8066 87.1983 71.8681C87.2185 71.8874 87.2365 71.9063 87.2567 71.9256C87.2813 71.9493 87.3072 71.9734 87.3318 71.9972C87.3542 72.0196 87.3775 72.0415 87.4008 72.0635C87.4341 72.0955 87.4688 72.1293 87.5022 72.1609C87.5496 72.2048 87.5957 72.2488 87.6431 72.2922C87.6783 72.3247 87.7134 72.3581 87.7485 72.391C87.8087 72.4463 87.8701 72.5012 87.9312 72.5557C87.9518 72.5754 87.9733 72.5956 87.9953 72.6145C88.0726 72.6839 88.1511 72.7537 88.2302 72.8222C88.2341 72.8253 88.2376 72.8288 88.2416 72.8319C89.1672 73.6389 90.1318 74.3568 91.1136 74.9724L90.2328 75.8523ZM104.241 61.8074C105.252 60.7992 105.791 59.4583 105.758 58.0322C105.726 56.606 105.126 55.2901 104.069 54.3254C102.089 52.5199 98.9078 52.5647 96.9767 54.4255C96.3712 55.0086 95.9304 55.7059 95.6647 56.4984C95.5334 56.8927 95.3767 57.2624 95.1958 57.6067C90.3439 54.2271 85.2848 53.5908 82.7856 56.0857C81.2303 57.637 80.8369 60.1362 81.6773 63.1224C81.8328 63.6757 82.0277 64.2329 82.26 64.7927C78.9142 64.6755 75.6795 65.9409 73.2992 68.3172C71.0169 70.5952 69.7598 73.624 69.7598 76.8459C69.7598 80.0666 71.0169 83.0963 73.2992 85.3742C75.5816 87.6522 78.616 88.9067 81.8442 88.9067C85.0723 88.9067 88.1064 87.6522 90.3887 85.3742C92.7699 82.997 94.0362 79.7707 93.9202 76.4306C94.4801 76.662 95.0395 76.856 95.5936 77.0119C96.6224 77.3 97.5945 77.4431 98.4898 77.4431C100.195 77.4431 101.623 76.9241 102.643 75.9059C105.143 73.4114 104.506 68.362 101.12 63.5198C101.465 63.3371 101.829 63.1821 102.206 63.0583C102.979 62.8054 103.664 62.3839 104.242 61.8074" fill="#1EB3FB"/>
  <path d="M79.1309 85.2565C78.611 85.0897 78.1035 84.8741 77.6244 84.6137C77.426 84.5066 77.177 84.5794 77.069 84.7779C76.9614 84.9759 77.0352 85.2245 77.2336 85.3325C77.7583 85.6157 78.3116 85.8519 78.8806 86.0341C78.9219 86.0477 78.9645 86.0535 79.0062 86.0535C79.1788 86.0535 79.3395 85.9441 79.3957 85.7698C79.4646 85.5551 79.3461 85.325 79.1309 85.2565Z" fill="#1EB3FB"/>
  <path d="M85.5368 84.8768C85.0407 85.1038 84.5208 85.2856 83.9904 85.4173C83.7713 85.4717 83.6374 85.6939 83.6918 85.9126C83.7384 86.0987 83.9057 86.2221 84.0888 86.2221C84.1217 86.2221 84.1551 86.2182 84.188 86.2094C84.7671 86.0658 85.3357 85.8669 85.8776 85.6193C86.0831 85.5253 86.1735 85.2834 86.0791 85.0779C85.9847 84.8728 85.7415 84.7832 85.5368 84.8768Z" fill="#1EB3FB"/>
  <path d="M82.3696 85.6625C82.1913 85.6739 82.0007 85.6797 81.8343 85.6788C81.4681 85.6788 81.0971 85.6555 80.7314 85.6098C80.5083 85.5831 80.3024 85.7403 80.2747 85.9637C80.2466 86.1881 80.4051 86.3927 80.6295 86.4204C81.0282 86.47 81.4339 86.4963 81.8339 86.4963H81.8409C82.0328 86.4963 82.2256 86.4898 82.4179 86.4788C82.6431 86.4652 82.8152 86.272 82.8025 86.0467C82.7889 85.8215 82.6001 85.6498 82.3696 85.6625Z" fill="#1EB3FB"/>
  <path d="M88.1975 82.9937L88.1009 83.092C87.7457 83.4463 87.3602 83.7721 86.9536 84.0589C86.7696 84.1897 86.7257 84.4444 86.857 84.6288C86.936 84.7408 87.0625 84.8005 87.1903 84.8005C87.2728 84.8005 87.3554 84.7768 87.4274 84.7254C87.8704 84.4119 88.2919 84.0567 88.6801 83.6694L88.7855 83.5623C88.9426 83.4002 88.9383 83.1416 88.7762 82.9849C88.6147 82.8277 88.3552 82.8316 88.1975 82.9937Z" fill="#1EB3FB"/>
  <path d="M91.0486 58.4723C91.2607 58.55 91.496 58.4416 91.5742 58.23C91.6519 58.0179 91.543 57.7834 91.3309 57.7057C88.656 56.723 86.3368 56.943 84.9669 58.3094C84.8079 58.4688 84.8079 58.7274 84.9669 58.8873C85.0472 58.9672 85.1517 59.0071 85.2567 59.0071C85.3616 59.0071 85.4661 58.9672 85.5465 58.8873C86.6797 57.7562 88.6854 57.6043 91.0486 58.4723Z" fill="#1EB3FB"/>
  <path d="M102.792 55.7967C101.56 54.5673 99.5565 54.5673 98.3253 55.7967C98.165 55.9561 98.165 56.2147 98.3253 56.3741C98.4842 56.5339 98.7437 56.5335 98.9035 56.3741C99.8164 55.4634 101.301 55.4639 102.213 56.3741C102.516 56.6771 102.73 57.0555 102.832 57.4683C102.877 57.6549 103.045 57.7805 103.229 57.7805C103.261 57.7805 103.294 57.7761 103.326 57.7686C103.546 57.715 103.68 57.4938 103.627 57.2747C103.49 56.7161 103.201 56.205 102.792 55.7967Z" fill="#1EB3FB"/>
  <defs>
    <linearGradient id="paint0_linear" x1="100" y1="-56.8627" x2="99.9994" y2="241.176" gradientUnits="userSpaceOnUse">
      <stop stop-color="#DCB7FE"/>
      <stop offset="1" stop-color="#3EBCFC"/>
    </linearGradient>
  </defs>
</svg>
