<svg width="150" height="134" viewBox="0 0 150 134" fill="none"
  xmlns="http://www.w3.org/2000/svg">
  <path d="M27 131.5H123.083" stroke="black"/>
  <path d="M81.1886 77.2311C80.5421 77.4009 81.0798 76.3687 80.4465 76.5819C80.0176 76.7287 79.5877 76.8746 79.1676 77.0444C78.8288 77.3434 78.4989 77.653 78.1955 77.99C78.1717 78.0174 78.4202 78.4552 78.3229 78.5923C78.1159 78.9567 78.4158 79.7855 78.1602 80.1269C80.1971 83.3782 86.4044 87.4672 89.4673 87.6087C94.5186 87.8448 90.7127 82.6043 90.7127 82.6043C87.8815 80.6629 85.5969 79.414 81.7016 77.9316C81.7016 77.9316 81.1709 77.316 81.1886 77.2311Z" fill="#BDBCBC"/>
  <path d="M78.781 69.4111C78.781 69.4111 79.9158 68.3515 79.6575 66.9566C79.4019 65.5618 79.0384 66.6878 77.8125 69.8754L78.781 69.4111Z" fill="#E66F64"/>
  <path d="M78.7549 69.204C78.7549 69.204 78.8849 68.0099 78.2348 66.9255C77.682 66.0013 77.9907 65.8801 77.7209 65.1256C77.2407 63.7821 76.9081 64.2986 76.8727 64.3243C76.4261 64.6648 76.5791 65.1663 76.4296 65.2795C76.3367 65.3512 76.0059 65.8739 75.9555 66.0304C75.9228 66.1277 75.3107 66.5638 75.3125 66.7221C75.3302 67.91 75.3956 67.9719 76.5676 70.0884C76.5676 70.0884 78.3949 70.8694 78.7549 69.204Z" fill="#E66F64"/>
  <path d="M81.9938 78.1462C81.6984 78.7494 80.4398 78.286 79.9029 78.8051C79.4385 79.2527 78.953 80.0328 78.8787 80.6068C78.8734 80.6511 78.8787 80.6864 78.8751 80.7271C76.0112 79.189 77.1283 75.6387 76.4375 70.8988C76.4375 70.8988 78.5514 68.1843 78.9892 69.9046C79.7596 72.9304 81.5126 77.5341 81.5312 77.6801C81.4251 77.78 82.0619 78.0012 81.9938 78.1462Z" fill="#BDBCBC"/>
  <path d="M113.413 69.7092C131.221 58.1808 136.631 34.7182 125.941 16.6227C113.798 -0.529159 90.1674 -5.19479 72.3593 6.33352C69.4821 8.19447 67.0869 10.2695 65.1313 12.5125L65.0446 12.4258C64.9491 12.6001 64.8562 12.7699 64.7598 12.9424C62.4734 15.6719 60.8292 18.6464 59.7669 21.7907C46.7049 44.3113 38.076 54.3139 38.076 54.3139C32.6532 59.7826 31.4291 68.3612 35.4349 75.2106C40.0475 81.6664 48.3784 84.0581 55.5887 81.3498L55.5904 81.3507C55.5904 81.3507 68.2491 77.5713 94.152 74.871C97.4573 75.1885 100.844 74.9046 104.272 73.9352C104.468 73.9202 104.661 73.9025 104.859 73.8874L104.814 73.7725C107.662 72.9092 110.538 71.5701 113.413 69.7092Z" fill="url(#paint0_linear)"/>
  <path d="M123.489 61.1669C123.489 61.1669 122.352 60.1117 122.608 58.7134C122.86 57.3185 123.226 58.4454 124.457 61.6304L123.489 61.1669Z" fill="#E66F64"/>
  <path d="M123.513 60.9615C123.513 60.9615 123.38 59.7666 124.028 58.6804C124.578 57.7544 124.27 57.6359 124.539 56.8787C125.017 55.5343 125.35 56.05 125.387 56.0765C125.834 56.417 125.679 56.9177 125.831 57.0318C125.924 57.1034 126.256 57.6244 126.307 57.7809C126.339 57.8782 126.953 58.3143 126.951 58.4708C126.936 59.6595 126.87 59.7206 125.702 61.8389C125.702 61.8389 123.877 62.6252 123.513 60.9615Z" fill="#E66F64"/>
  <path d="M129.23 69.9078C128.932 70.5111 127.676 70.044 127.137 70.5632C126.673 71.009 126.186 71.7874 126.109 72.3623C126.103 72.4056 126.107 72.4419 126.105 72.4843C123.245 70.9391 124.369 67.3906 123.688 62.6489C123.688 62.6489 125.808 59.9389 126.241 61.6592C127.005 64.6885 128.75 69.294 128.767 69.4417C128.661 69.5408 129.3 69.7646 129.23 69.9078Z" fill="#BDBCBC"/>
  <path d="M113.413 69.7093C122.387 63.9 128.211 55.0578 130.414 45.4002C130.255 45.6116 130.093 45.8221 129.926 46.0353C127.62 48.9487 124.683 51.6721 121.558 53.64C107.068 62.7634 88.1074 59.5979 75.7221 48.3482C68.4481 41.7376 62.8759 32.5779 62.3567 22.5709C62.2391 20.3111 62.3788 17.9433 62.7848 15.6118C61.497 17.578 60.4931 19.6424 59.7669 21.7908C46.7049 44.3114 38.076 54.314 38.076 54.314C32.6532 59.7827 31.4291 68.3613 35.4349 75.2107C40.0475 81.6665 48.3784 84.0582 55.5887 81.3499L55.5904 81.3508C55.5904 81.3508 68.2491 77.5714 94.152 74.8711C97.4573 75.1886 100.844 74.9047 104.272 73.9353C104.468 73.9203 104.661 73.9026 104.859 73.8875L104.814 73.7726C107.662 72.9093 110.538 71.5702 113.413 69.7093Z" fill="url(#paint1_linear)"/>
  <path d="M108.911 56.5595C105.293 57.8217 101.538 58.9609 97.6819 59.098C95.866 59.1626 93.4258 58.9574 92.2936 57.3087C91.5967 56.2942 91.854 54.9781 92.4157 53.9733C93.8503 51.411 97.5598 51.0775 100.113 50.4929C101.541 50.1665 103.095 49.964 104.545 50.2868C105.502 50.4982 103.587 51.4923 103.171 51.6958C102.294 52.1274 101.308 52.4104 100.371 52.6775C95.4671 54.0715 90.3398 53.5744 86.4693 50.0763C80.9802 45.1152 95.7997 39.742 99.7551 41.4102C99.7259 41.1811 99.6967 40.9511 99.6658 40.722C96.1968 43.9769 91.4083 44.221 87.0133 42.9943C85.1506 42.4751 77.8961 39.719 79.6235 36.7923C80.89 34.6465 84.5951 33.8311 86.7966 33.2729C88.9494 32.7246 91.7594 32.0196 93.9741 32.6282C93.9087 32.384 93.8459 32.1417 93.7804 31.8976C89.8931 36.7675 78.3861 35.9282 75.0348 30.7548C71.8418 25.8274 84.2838 24.1425 87.0195 23.8762C87.5749 23.8205 87.5793 22.9449 87.0195 23.0006C83.8053 23.3146 71.3907 24.8465 73.9637 30.5673C75.5363 34.0654 79.9542 35.2781 83.4241 35.7017C87.1141 36.1528 91.9195 35.6239 94.3996 32.5158C94.5977 32.2673 94.5508 31.8799 94.2068 31.7852C91.3587 31.0025 87.6952 32.0559 84.9728 32.8679C82.9261 33.4781 78.7407 34.7659 78.471 37.4026C78.3401 38.6736 79.2069 39.551 80.1055 40.3214C82.0301 41.9718 84.3749 43.0871 86.7798 43.8389C91.4047 45.2824 96.6674 44.734 100.286 41.3421C100.472 41.166 100.456 40.7645 100.196 40.653C97.1025 39.3476 93.3453 40.5398 90.4344 41.794C88.2162 42.7501 83.8442 45.1674 84.3572 48.2207C84.9967 52.0301 90.7334 53.9211 93.9237 54.2829C96.6382 54.5907 99.5499 53.9309 102.098 53.0535C103.407 52.6015 105.343 51.9125 105.91 50.5026C105.964 50.3682 105.902 50.1727 105.798 50.0763C104.59 48.984 102.673 49.175 101.17 49.3829C98.5646 49.7428 95.5034 50.3859 93.2612 51.8231C91.862 52.7218 90.9359 54.4129 91.0041 56.0766C91.089 58.1684 92.9711 59.3129 94.81 59.7392C99.4473 60.813 104.845 58.9043 109.144 57.4051C109.674 57.2194 109.445 56.3747 108.911 56.5595Z" fill="white"/>
  <path d="M78.9089 38.0065L36.1319 67.6339C35.9329 67.7719 35.8842 68.0435 36.0205 68.2425C36.1593 68.4406 36.4309 68.491 36.6299 68.353L79.4068 38.7256C79.6059 38.5876 79.6563 38.3161 79.5174 38.1171C79.3794 37.919 79.107 37.8677 78.9089 38.0065Z" fill="white"/>
  <path d="M85.6135 49.8067L40.7473 76.1695C40.5386 76.2915 40.4687 76.5604 40.5925 76.7691C40.7146 76.977 40.9835 77.0469 41.1922 76.9239L86.0566 50.562C86.2653 50.4399 86.3352 50.1711 86.2114 49.9623C86.0893 49.7545 85.8222 49.6846 85.6135 49.8067Z" fill="white"/>
  <path d="M52.7503 84.5868C53.5057 84.3604 54.2504 84.0216 54.9553 83.5661C55.6585 83.1106 56.2741 82.5702 56.7906 81.9714L38.2679 53.3779C37.5107 53.6035 36.7669 53.944 36.0611 54.3995C35.3561 54.8559 34.7423 55.3963 34.2267 55.9933C33.4687 56.2215 32.7248 56.5594 32.0199 57.0176C31.315 57.4731 30.702 58.0117 30.1828 58.6096C29.4257 58.8387 28.6819 59.1775 27.9778 59.633C27.2729 60.0902 26.6591 60.628 26.1416 61.2268C25.3845 61.4541 24.6398 61.7929 23.9349 62.2493C20.2634 64.6267 19.0366 69.2579 21.1974 72.595L32.2658 89.6805C34.4266 93.015 39.155 93.7916 42.8291 91.415C43.534 90.9595 44.1479 90.4191 44.6644 89.822C45.4233 89.5938 46.1671 89.2551 46.8721 88.7978C47.5752 88.3423 48.1891 87.8037 48.7056 87.204C49.4645 86.9784 50.2083 86.6379 50.9133 86.1824C51.6191 85.726 52.2329 85.1856 52.7503 84.5868Z" fill="#2E3192"/>
  <path d="M49.6953 83.6594C49.3689 83.6594 49.0779 83.5293 48.9134 83.2755L34.0533 60.3347C33.7649 59.8907 33.9825 59.2362 34.5362 58.878C34.7777 58.7232 35.0395 58.6489 35.2854 58.6489C35.61 58.6489 35.9027 58.7789 36.0655 59.0328L50.9256 81.9718C51.2157 82.4176 50.9973 83.0703 50.4427 83.4294C50.203 83.5842 49.9394 83.6594 49.6953 83.6594Z" fill="#8778C3"/>
  <path d="M45.0454 86.6709C44.719 86.6709 44.428 86.5391 44.2618 86.2853L29.4034 63.3463C29.115 62.9005 29.33 62.2495 29.8863 61.8895C30.126 61.733 30.3878 61.6587 30.6337 61.6587C30.9583 61.6587 31.2511 61.7905 31.4156 62.0443L46.2748 84.9824C46.5641 85.4282 46.3474 86.0809 45.791 86.4409C45.5513 86.5957 45.2895 86.6709 45.0454 86.6709Z" fill="#8778C3"/>
  <path d="M40.3917 89.6816C40.0671 89.6816 39.7761 89.5499 39.6116 89.296L24.7514 66.3579C24.4613 65.9112 24.6798 65.2585 25.2361 64.8994C25.4741 64.7446 25.7376 64.6694 25.9835 64.6694C26.3081 64.6694 26.6009 64.7995 26.7654 65.0542L41.6247 87.9941C41.9121 88.4398 41.6963 89.0926 41.1409 89.4508C40.9012 89.6073 40.6376 89.6816 40.3917 89.6816Z" fill="#8778C3"/>
  <path d="M35.4601 95.4261C35.4601 95.4261 34.7923 96.8386 35.5547 98.0486C36.3136 99.2594 36.234 98.0716 36.1933 94.6318L35.4601 95.4261Z" fill="#E66F64"/>
  <path d="M35.5629 95.6101C35.5629 95.6101 35.8858 96.7759 36.895 97.5471C37.7564 98.2061 37.5141 98.4343 38.0465 99.041C38.9974 100.121 39.1176 99.5133 39.1389 99.4762C39.4308 98.9906 39.1 98.5793 39.199 98.4166C39.2592 98.314 39.3733 97.7037 39.3618 97.5374C39.3556 97.4348 39.7677 96.798 39.7076 96.652C39.2477 95.5482 39.1636 95.5128 37.2779 93.9694C37.2779 93.9694 35.2781 93.9172 35.5629 95.6101Z" fill="#E66F64"/>
  <path d="M36.5692 93.4424L37.2255 94.2313C37.2255 94.2313 36.364 95.7597 35.4981 95.7261L34.8418 94.6302L36.5692 93.4424Z" fill="white"/>
  <path d="M29.2052 88.4493C29.2539 87.7753 30.6071 87.7399 30.9149 87.0545C31.182 86.4636 31.3448 85.5517 31.2015 84.9874C31.19 84.9468 31.1741 84.9123 31.1626 84.8716C34.413 85.2475 34.6908 88.9853 37.0974 93.1618C37.0974 93.1618 36.1325 96.4892 35.0835 95.0422C33.2367 92.4976 29.881 88.8438 29.8093 88.712C29.873 88.5793 29.1937 88.6103 29.2052 88.4493Z" fill="#26285D"/>
  <path d="M30.2945 89.0068C30.8367 88.6061 30.7181 89.7727 31.2329 89.3367C31.5779 89.0404 31.9246 88.7441 32.2571 88.4301C32.4623 88.0232 32.656 87.611 32.8135 87.183C32.8267 87.1476 32.4296 86.8318 32.4721 86.6673C32.5287 86.2489 31.9396 85.5847 32.0502 85.1717C28.9368 82.8879 21.6062 81.3702 18.6874 82.3767C13.8741 84.0351 19.3835 87.5217 19.3835 87.5217C22.7569 88.285 25.3608 88.6025 29.5559 88.5424C29.5559 88.5424 30.2821 88.9201 30.2945 89.0068Z" fill="#26285D"/>
  <path d="M9.82306 126.825C9.82306 126.825 10.2839 127.077 10.2821 127.233C10.2803 127.392 10.4334 129.49 10.2971 129.85C10.1618 130.21 3.72988 130.64 3.72988 130.64C3.72988 130.64 0.504183 130.344 0.183117 129.912C-0.137949 129.481 0.0221417 129.174 0.215843 129.13C0.411313 129.084 7.99573 126.561 7.99573 126.561L9.82306 126.825Z" fill="#26285D"/>
  <path d="M35.7955 121.889C35.7955 121.889 36.2749 122.108 36.2828 122.265C36.2926 122.423 36.5889 124.506 36.4801 124.874C36.3686 125.244 29.9827 126.116 29.9827 126.116C29.9827 126.116 26.742 126.043 26.3952 125.635C26.0432 125.226 26.1803 124.909 26.374 124.851C26.5651 124.793 33.954 121.751 33.954 121.751L35.7955 121.889Z" fill="#26285D"/>
  <path d="M31.0639 111.209L27.1173 107.662L26.7282 107.445L22.9727 111.762C22.9727 111.762 30.3766 119.913 33.3175 124.666C33.3175 124.666 37.1544 124.058 35.7976 122.19C33.6236 119.197 31.0639 111.209 31.0639 111.209Z" fill="#26285D"/>
  <path d="M16.2656 81.9717C16.2656 81.9717 17.671 78.9468 20.887 78.7495C20.887 78.7495 22.4861 79.4987 30.7657 87.5837C31.0187 87.8278 35.2182 90.4733 38.7057 93.9175C38.7057 93.9175 33.4696 97.0432 27.6365 97.121C27.6365 97.121 15.443 92.711 13.9889 87.849C13.9889 87.849 13.1443 85.1938 16.2656 81.9717Z" fill="#2E3192"/>
  <path d="M24.096 97.8663C24.096 97.8663 26.4991 96.2548 26.3904 96.2477C26.2789 96.2397 23.6184 93.8339 23.6184 93.8339L19.0819 91.0275C19.0819 91.0275 16.7716 84.7185 16.6637 84.8149C16.5549 84.9086 14.8974 83.7075 14.8974 83.7075C14.8974 83.7075 13.1223 86.6573 14.2411 88.6297C15.3582 90.6047 18.8829 93.4014 21.4753 94.3708L24.096 97.8663Z" fill="#26285D"/>
  <path d="M12.1895 81.2516C12.1895 81.2516 14.321 82.8649 15.1631 84.8373C15.1631 84.8373 17.4893 83.553 17.537 81.838C17.537 81.838 14.5386 78.1214 14.7438 76.8911C14.9526 75.6634 12.1895 81.2516 12.1895 81.2516Z" fill="#E66F64"/>
  <path d="M13.0817 74.1952C13.0817 74.1952 9.97448 74.0581 8.89364 76.57C8.89364 76.57 8.76097 79.2155 9.65695 80.835C10.5538 82.4544 11.6276 83.897 12.9233 83.4636C12.9233 83.4636 16.4276 81.8831 15.9085 79.2482C15.4397 76.8796 14.1492 74.4119 13.0817 74.1952Z" fill="#F68C82"/>
  <path d="M15.4627 78.5185C15.4627 78.5185 14.8215 79.2951 14.2713 78.3496C13.722 77.405 13.7238 76.8433 13.1197 76.9822C12.5192 77.1175 11.5666 77.4607 10.8218 76.9379C10.0762 76.4152 9.79938 76.4851 9.19351 77.1838C8.58764 77.8808 9.10772 77.7596 8.93348 78.0091C8.76189 78.2567 7.02035 77.8481 7.14506 76.4497C7.27065 75.0469 7.80311 74.0501 8.49212 74.4915C9.18378 74.9346 8.3108 74.7665 9.274 73.8776C10.2372 72.9887 13.3789 72.9127 13.6849 73.0462C15.4601 73.8237 15.1646 75.3981 16.2968 75.6015C17.4254 75.8023 17.4369 75.3627 17.7137 76.3338C17.9905 77.3041 16.701 77.9878 17.0035 78.7759C17.306 79.5649 18.5849 79.6259 17.7544 80.0717C16.9221 80.5157 16.1146 80.3609 15.813 79.7479C15.5122 79.1341 15.4627 78.5185 15.4627 78.5185Z" fill="#2E3192"/>
  <path d="M14.8405 78.7044C14.9369 79.512 15.3827 80.1205 15.8382 80.0665C16.2981 80.0117 16.5909 79.3165 16.4963 78.5107C16.4016 77.705 15.9541 77.0973 15.4968 77.1513C15.0395 77.2035 14.7441 77.8987 14.8405 78.7044Z" fill="#F68C82"/>
  <path d="M37.2959 94.7409C37.2959 94.7409 29.5921 92.4456 22.9727 111.763C22.9727 111.763 27.6542 110.869 28.9438 109.891C29.4815 109.487 31.5477 106.682 36.4477 102.421C36.4477 102.421 37.5878 101.57 37.9248 101.296C38.26 101.022 40.6844 96.9273 37.2959 94.7409Z" fill="#26285D"/>
  <path d="M18.4101 114.776L19.7731 109.17L18.3288 107.436L14.3751 108.534C14.3751 108.534 9.54587 121.248 6.94727 126.048C6.94727 126.048 10.7585 129.986 11.8659 127.892C12.0631 127.518 18.4101 114.776 18.4101 114.776Z" fill="#2E3192"/>
  <path d="M34.4486 91.4341C34.4486 91.4341 17.9089 99.3688 13.9473 108.604C13.9473 108.604 16.4663 110.955 18.6324 110.021C19.8467 109.495 33.7968 102.657 37.4417 101.671C37.4417 101.671 36.9057 102.078 37.9237 101.296C40.4622 99.3475 39.8546 93.8328 34.4486 91.4341Z" fill="#2E3192"/>
  <path d="M17.8687 80.729L16.6914 80.0259L15.0781 83.6558L15.4814 85.2151L17.9208 90.3725L19.0822 90.9404C19.0822 90.9404 17.1593 84.4324 17.1832 84.3563C17.208 84.2793 17.8687 80.729 17.8687 80.729Z" fill="#D7D7D7"/>
  <path d="M15.6559 84.6531L14.3619 83.4688L12.707 85.0865L14.6892 85.0201L15.663 85.1661L15.6559 84.6531Z" fill="#D7D7D7"/>
  <path d="M16.6914 80.0258L18.1473 79.4482L17.5662 83.6221L15.0781 83.6557L16.6914 80.0258Z" fill="#D7D7D7"/>
  <path d="M17.9213 90.3725C17.9213 90.3725 15.7508 88.5655 15.7136 88.3312C15.6774 88.095 14.9141 84.8428 14.9141 84.8428L16.1072 85.1603L17.9213 90.3725Z" fill="#D7D7D7"/>
  <path d="M15.9745 83.644L15.6455 84.0907L15.0697 83.9395C15.0697 83.9395 14.6929 84.2968 14.6186 84.3251C14.5435 84.3507 14.6832 84.8469 14.8336 84.9893C14.9813 85.1291 15.3802 85.2671 15.3802 85.2671L15.5756 85.0849C15.5756 85.0459 15.8622 84.6028 15.8622 84.6028L16.9209 83.6299L15.9745 83.644Z" fill="#36AB9C"/>
  <path d="M15.7774 85.0718L14.8965 85.1797C14.8965 85.1797 15.0283 96.3914 15.995 98.921C16.0605 99.089 17.1793 99.947 17.1793 99.947L17.8011 98.5893L15.7774 85.0718Z" fill="#36AB9C"/>
  <path d="M39.5794 91.0429C39.5794 91.0429 41.136 90.9094 42.0037 92.0459C42.8749 93.1772 41.7888 92.6889 38.5781 91.4516L39.5794 91.0429Z" fill="#F68C82"/>
  <path d="M39.7688 91.1569C39.7688 91.1569 40.7497 91.8645 41.1203 93.0806C41.4378 94.119 42.4267 94.433 42.6124 95.2211C42.7425 95.7668 41.7235 95.1415 41.6811 95.1317C41.6563 95.1238 41.2946 95.2688 41.1079 95.3042C40.9921 95.3254 40.3225 95.2795 40.1713 95.2131C40.0766 95.1724 39.3673 95.2688 39.2532 95.1574C38.4775 94.4189 38.4227 94.4967 37.6328 92.1935C37.6328 92.1935 38.2829 90.3007 39.7688 91.1569Z" fill="#F68C82"/>
  <path d="M38.6362 90.2725L39.3331 91.0252C39.3331 91.0252 38.8688 92.9003 37.9993 92.9117L37.0645 91.884L38.6362 90.2725Z" fill="white"/>
  <path d="M31.0117 85.8306C31.0268 85.1531 32.3729 85.0461 32.6454 84.3447C32.8797 83.7406 32.9956 82.8225 32.8196 82.2661C32.8063 82.2237 32.7869 82.1927 32.7718 82.1538C36.04 82.3519 36.5194 86.0685 39.1525 90.1097C39.1525 90.1097 38.3671 93.484 37.2385 92.0945C35.259 89.6542 31.7105 86.187 31.6309 86.0606C31.6857 85.927 31.0091 85.9916 31.0117 85.8306Z" fill="#2E3192"/>
  <path d="M32.1354 86.3268C32.6546 85.8987 32.5989 87.0697 33.088 86.6071C33.4188 86.2932 33.7487 85.9774 34.0618 85.6448C34.244 85.2282 34.4147 84.8055 34.5501 84.3685C34.5616 84.3349 34.1494 84.0404 34.1803 83.8741C34.2148 83.4522 33.5913 82.8225 33.6806 82.4006C30.4469 80.2911 23.0439 79.1713 20.1843 80.3353C15.4692 82.2528 21.1581 85.4352 21.1581 85.4352C24.5669 86.0145 27.185 86.1906 31.3712 85.9057C31.3712 85.9057 32.116 86.2427 32.1354 86.3268Z" fill="#2E3192"/>
  <path d="M8.83155 76.8273C8.83155 76.8273 7.90196 77.7516 10.5015 78.2566C13.1018 78.7608 13.1876 78.3424 13.6988 79.3826C14.2101 80.4227 13.759 78.1443 12.8276 77.6057C11.8963 77.0661 11.8865 77.3235 11.3674 76.4337C10.8464 75.5395 11.0755 74.9964 9.98845 75.4387C8.9032 75.88 8.83155 76.8273 8.83155 76.8273Z" fill="#2E3192"/>
  <path d="M8.36318 77.4025C8.36318 77.4025 6.8914 77.6218 7.56891 78.784C8.24908 79.9463 8.61879 79.2891 8.37821 80.1771C8.37821 80.1771 8.99381 80.2505 8.91863 79.5509C8.84256 78.8495 9.04246 78.6487 8.98231 78.1738C8.92217 77.6988 9.04423 77.4104 9.03273 77.3583C9.023 77.3061 8.36318 77.4025 8.36318 77.4025Z" fill="#2E3192"/>
  <path d="M78.9883 77.606C78.9883 77.606 78.0358 77.7599 78.057 78.8115C78.0782 79.8649 78.8628 79.5041 79.0635 80.132C79.2652 80.76 79.1546 80.7636 79.1971 81.2907C79.2404 81.817 79.3289 81.8886 79.7897 82.0169C80.2505 82.1469 80.8643 81.4879 80.8219 81.0501C80.7768 80.6105 78.9883 77.606 78.9883 77.606Z" fill="#2E3192"/>
  <path d="M78.7241 127.841C78.7241 127.841 79.1779 128.101 79.1734 128.256C79.1717 128.413 79.2893 130.5 79.1469 130.855C79.0071 131.21 72.6159 131.537 72.6159 131.537C72.6159 131.537 69.4158 131.192 69.1054 130.758C68.7923 130.324 68.955 130.023 69.1505 129.98C69.3433 129.939 76.9145 127.552 76.9145 127.552L78.7241 127.841Z" fill="#26285D"/>
  <path d="M104.592 123.347C104.592 123.347 105.064 123.576 105.07 123.731C105.078 123.888 105.339 125.96 105.224 126.324C105.107 126.689 98.7545 127.456 98.7545 127.456C98.7545 127.456 95.5367 127.332 95.198 126.921C94.8566 126.51 94.9963 126.197 95.1883 126.144C95.3793 126.088 102.767 123.185 102.767 123.185L104.592 123.347Z" fill="#26285D"/>
  <path d="M100.064 112.669L96.1976 109.086L95.8147 108.865L92.0176 113.093C92.0176 113.093 99.2411 121.302 102.087 126.067C102.087 126.067 105.907 125.525 104.59 123.648C102.48 120.642 100.064 112.669 100.064 112.669Z" fill="#26285D"/>
  <path d="M85.8245 83.4037C85.8245 83.4037 87.2688 80.4212 90.4653 80.2788C90.4653 80.2788 94.495 80.4398 100.135 89.205C100.326 89.4977 104.511 92.145 107.921 95.6183C107.921 95.6183 102.671 98.6415 96.8787 98.6265C96.8787 98.6265 84.8391 94.0572 83.4726 89.205C83.4726 89.205 82.6766 86.5551 85.8245 83.4037Z" fill="#2E3192"/>
  <path d="M93.3511 99.31C93.3511 99.31 95.764 97.7471 95.6552 97.7392C95.5473 97.7312 92.9407 95.2989 92.9407 95.2989L88.4803 92.4429C88.4803 92.4429 86.2868 86.1419 86.178 86.2339C86.0692 86.3258 84.4391 85.1079 84.4391 85.1079C84.4391 85.1079 82.6312 88.0072 83.7112 89.9849C84.7911 91.9644 88.2477 94.7965 90.8056 95.7986L93.3511 99.31Z" fill="#26285D"/>
  <path d="M81.7891 82.6254C81.7891 82.6254 83.8817 84.2599 84.6866 86.2341C84.6866 86.2341 87.0163 84.9941 87.0898 83.2914C87.0898 83.2914 84.1719 79.5545 84.3947 78.3366C84.6212 77.1204 81.7891 82.6254 81.7891 82.6254Z" fill="#E66F64"/>
  <path d="M83.1706 75.8164C83.1706 75.8164 80.1625 75.6378 79.0763 78.0533C79.0763 78.0533 78.9074 80.6121 79.7503 82.1953C80.5941 83.7794 81.6121 85.1937 82.8743 84.7939C82.8743 84.7939 86.2937 83.3142 85.8293 80.7554C85.411 78.4522 84.201 76.0429 83.1706 75.8164Z" fill="#F68C82"/>
  <path d="M85.0071 80.1318C85.0009 80.1265 84.9753 80.138 84.9355 80.1574C84.7453 80.2485 84.2358 80.4979 83.9404 79.8434C83.584 79.0527 83.5406 78.8555 83.0586 78.8555C82.5748 78.8555 81.8725 78.8166 81.4559 78.4858C81.0411 78.1541 80.5131 78.0656 79.9868 78.2646C79.4596 78.4619 78.9334 78.5052 78.7574 78.3071C78.5822 78.1099 77.7712 77.2767 78.4292 76.5541C79.0864 75.8297 80.2053 76.0817 80.3583 75.8129C80.5131 75.5449 81.2879 74.9965 81.5912 74.732C81.8955 74.4702 82.6623 74.5578 83.0586 74.8638C83.4522 75.1716 83.76 75.2813 84.1978 75.3034C84.6374 75.3246 86.0915 75.72 86.1003 76.1587C86.1065 76.5974 86.1932 77.1201 86.5319 77.6057C86.8689 78.0904 87.3802 78.2045 87.3828 78.6635C87.3846 79.1208 86.9892 79.5604 87.1652 79.9328C87.3412 80.306 87.6729 80.3989 87.7313 80.6766C87.7888 80.9552 87.2917 81.8326 86.8751 81.8132C86.4585 81.7955 85.8951 81.4222 85.7058 81.0269C85.5157 80.6333 85.0071 80.1318 85.0071 80.1318Z" fill="#2E3192"/>
  <path d="M84.8079 80.2113C84.8857 80.9923 85.3112 81.5902 85.7543 81.546C86.1965 81.5009 86.492 80.8296 86.4132 80.0486C86.3336 79.2676 85.91 78.6715 85.4677 78.7157C85.0228 78.7608 84.7283 79.4303 84.8079 80.2113Z" fill="#F68C82"/>
  <path d="M106.51 96.4139C106.51 96.4139 98.8962 94.0134 92.0176 113.093C92.0176 113.093 96.6797 112.278 97.9772 111.328C98.5176 110.934 100.614 108.183 105.547 104.028C105.547 104.028 106.691 103.199 107.03 102.933C107.367 102.668 109.838 98.6393 106.51 96.4139Z" fill="#26285D"/>
  <path d="M87.443 116.013L88.882 110.467L87.4766 108.724L83.1081 109.814C83.1081 109.814 78.5389 122.301 75.8828 127.026C75.8828 127.026 79.6074 130.997 80.7386 128.934C80.9403 128.566 87.443 116.013 87.443 116.013Z" fill="#2E3192"/>
  <path d="M103.735 93.0859C103.735 93.0859 87.1866 100.705 83.1074 109.814C83.1074 109.814 85.5725 112.189 87.735 111.296C88.9512 110.792 102.912 104.222 106.546 103.296C106.546 103.296 106.008 103.692 107.03 102.934C109.583 101.039 109.065 95.5536 103.735 93.0859Z" fill="#2E3192"/>
  <path d="M87.438 82.1973L86.2802 81.48L84.6191 85.0595L84.995 86.6135L87.3371 91.7718L88.4799 92.3547C88.4799 92.3547 86.6756 85.8617 86.7003 85.7865C86.7269 85.7122 87.438 82.1973 87.438 82.1973Z" fill="#E7E6E6"/>
  <path d="M85.1788 86.0585L83.9114 84.8618L82.2441 86.4424L84.2112 86.4079L85.1788 86.568V86.0585Z" fill="#E7E6E6"/>
  <path d="M86.2802 81.4801L87.7343 80.9282L87.0895 85.0641L84.6191 85.0596L86.2802 81.4801Z" fill="#E7E6E6"/>
  <path d="M87.3379 91.7716C87.3379 91.7716 85.2107 89.9443 85.1789 89.7099C85.1444 89.4755 84.4395 86.2339 84.4395 86.2339L85.6185 86.5682L87.3379 91.7716Z" fill="white"/>
  <path d="M85.5105 85.061L85.1789 85.4989L84.6084 85.3388C84.6084 85.3388 84.2289 85.6908 84.1546 85.7147C84.0795 85.7394 84.2112 86.2356 84.3563 86.3771C84.5031 86.5204 84.8967 86.6637 84.8967 86.6637L85.094 86.485L85.3849 86.0127L86.4516 85.0619L85.5105 85.061Z" fill="#36AB9C"/>
  <path d="M85.2657 86.4756L84.391 86.5685C84.391 86.5685 84.3459 97.7041 85.2657 100.232C85.3276 100.399 86.4271 101.269 86.4271 101.269L87.0639 99.9303L85.2657 86.4756Z" fill="#36AB9C"/>
  <path d="M86.8543 65.0619C86.8543 65.0619 88.0085 64.0244 87.7777 62.6234C87.5495 61.2232 87.1639 62.343 85.877 65.5077L86.8543 65.0619Z" fill="#F68C82"/>
  <path d="M86.9002 64.8452C86.9002 64.8452 87.0541 63.6538 86.4252 62.5561C85.8892 61.6221 86.3323 60.6943 85.891 60.0256C85.5832 59.5595 85.3426 60.7217 85.3231 60.7598C85.3099 60.7836 84.9596 60.9446 84.8066 61.0569C84.712 61.1277 84.2901 61.6398 84.2352 61.7946C84.2025 61.8928 83.6506 62.3403 83.6523 62.4978C83.6621 63.5627 83.5639 63.5494 84.6978 65.6863C84.6978 65.6863 86.5101 66.5036 86.9002 64.8452Z" fill="#F68C82"/>
  <path d="M86.3564 74.8436C85.8434 75.2797 84.8793 74.3483 84.1761 74.6075C83.572 74.8304 82.814 75.3495 82.5151 75.8457L82.4629 75.9554C80.4587 73.3957 82.9105 70.5928 84.1859 65.9749C84.1859 65.9749 87.2126 64.3395 86.9216 66.0908C86.4086 69.1706 86.1645 74.0909 86.1185 74.2324C85.9831 74.2802 86.4784 74.741 86.3564 74.8436Z" fill="#E7E6E6"/>
  <path d="M85.9885 73.6824C85.3269 73.5789 86.2361 72.851 85.5701 72.7926C85.119 72.7528 84.6662 72.7139 84.2133 72.6997C83.7817 72.8377 83.3572 72.9889 82.9415 73.1747C82.9087 73.1897 82.9591 73.6921 82.8159 73.777C82.4806 74.0282 82.4223 74.9065 82.0508 75.117C82.608 78.9114 86.6457 85.1523 89.3911 86.5126C93.9214 88.7592 92.546 82.4316 92.546 82.4316C90.7346 79.5164 89.1443 77.4538 86.1751 74.5288C86.1751 74.5288 85.9381 73.754 85.9885 73.6824Z" fill="#E7E6E6"/>
  <path d="M90.6179 80.9282C90.6179 80.9282 86.9739 81.1086 87.0906 84.5837C87.2083 88.0606 92.6584 89.2166 94.5972 86.917C96.5369 84.6182 93.2935 80.6743 90.6179 80.9282Z" fill="#E7E6E6"/>
  <path d="M149.539 129.979C149.539 129.979 149.99 130.246 149.982 130.402C149.975 130.559 150.058 132.647 149.911 133C149.763 133.352 143.367 133.57 143.367 133.57C143.367 133.57 140.174 133.17 139.871 132.732C139.565 132.292 139.734 131.993 139.93 131.955C140.124 131.917 147.734 129.66 147.734 129.66L149.539 129.979Z" fill="#26285D"/>
  <path d="M139.05 120.305C139.05 120.305 139.49 120.59 139.475 120.746C139.462 120.903 139.457 122.991 139.296 123.338C139.134 123.685 132.735 123.634 132.735 123.634C132.735 123.634 129.56 123.102 129.277 122.651C128.989 122.199 129.171 121.907 129.366 121.878C129.562 121.848 137.26 119.91 137.26 119.91L139.05 120.305Z" fill="#26285D"/>
  <path d="M134.267 109.375L130.403 105.791L130.02 105.569L126.223 109.798C126.223 109.798 133.446 118.007 136.292 122.771C136.292 122.771 140.113 122.23 138.796 120.353C136.683 117.347 134.267 109.375 134.267 109.375Z" fill="#26285D"/>
  <path d="M136.455 90.665C136.455 90.665 133.099 90.719 126.223 109.798C126.223 109.798 130.883 108.983 132.182 108.034C132.723 107.638 134.819 104.887 139.753 100.733C139.753 100.733 141.828 96.6777 142.167 96.4142C142.505 96.1488 139.785 92.8904 136.455 90.665Z" fill="#26285D"/>
  <path d="M142.38 115.775L138.578 111.489L136.346 111.683L134.816 115.918C134.816 115.918 142.639 126.67 145.087 131.509C145.087 131.509 150.458 130.63 149.378 128.54C149.184 128.169 142.38 115.775 142.38 115.775Z" fill="#2E3192"/>
  <path d="M132.416 89.4736C132.416 89.4736 129.523 107.457 134.815 115.918C134.815 115.918 138.161 115.195 138.625 112.902C138.884 111.613 141.182 100.48 142.441 96.9483C142.441 96.9483 142.494 93.4988 142.433 92.2296C142.281 89.0534 137.438 86.4248 132.416 89.4736Z" fill="#2E3192"/>
  <path d="M128.428 68.9908C127.78 69.1607 128.32 68.1285 127.685 68.3416C127.257 68.4867 126.827 68.6317 126.407 68.8007C126.067 69.0987 125.736 69.4083 125.431 69.7444C125.408 69.771 125.654 70.2105 125.557 70.3459C125.35 70.7103 125.648 71.5399 125.393 71.8804C127.422 75.1344 133.623 79.2367 136.682 79.3861C141.733 79.6302 137.941 74.3844 137.941 74.3844C135.112 72.4368 132.829 71.1835 128.938 69.6913C128.938 69.6913 128.409 69.0758 128.428 68.9908Z" fill="#BDBCBC"/>
  <path d="M135.58 73.1225C135.58 73.1225 137.539 71.7312 139.935 73.854C139.935 73.854 141.685 75.7565 141.817 87.2467C141.82 87.5952 142.909 92.4024 142.938 97.2688C142.938 97.2688 135.694 99.0678 131.546 95.0258C131.546 95.0258 128.497 79.5146 130.894 75.0807C130.894 75.0807 131.124 73.1941 135.58 73.1225Z" fill="#E5E4E4"/>
  <path d="M133.225 69.7549C133.225 69.7549 133.589 72.3854 132.793 74.3613C132.793 74.3613 135.33 75.0919 136.567 73.9217C136.567 73.9217 137.076 69.2057 138.085 68.4901C139.093 67.7737 133.225 69.7549 133.225 69.7549Z" fill="#E66F64"/>
  <path d="M138.792 65.3294C138.792 65.3294 136.77 63.1182 134.319 64.092C134.319 64.092 132.426 65.8026 131.932 67.5167C131.436 69.2344 131.184 70.9467 132.362 71.534C132.362 71.534 135.828 72.8457 137.271 70.6955C138.567 68.762 139.372 66.2032 138.792 65.3294Z" fill="#F68C82"/>
  <path d="M137.115 69.682C137.115 69.682 136.583 69.9049 136.89 68.7427C137.196 67.5805 137.864 67.7123 136.501 66.3891C135.135 65.0668 133.377 64.1832 133.135 63.3695L134.062 63.4181L134.931 62.4673C134.931 62.4673 138.32 63.3951 139.108 64.4627C139.896 65.5311 140.459 67.8502 140.497 68.2199C140.533 68.5897 138.038 71.0609 137.219 71.2838C136.399 71.5084 137.115 69.682 137.115 69.682Z" fill="#2E3192"/>
  <path d="M136.914 69.6004C136.429 70.2143 136.318 70.9333 136.665 71.2084C137.014 71.4835 137.688 71.2084 138.172 70.5964C138.658 69.9825 138.769 69.2634 138.42 68.9884C138.072 68.7133 137.398 68.9866 136.914 69.6004Z" fill="#F68C82"/>
  <path d="M137.578 73.3782L137.248 72.0586L133.561 73.4729L132.748 74.85L130.838 80.1843L131.254 81.3969C131.254 81.3969 134.479 75.478 134.549 75.4426C134.619 75.4063 137.578 73.3782 137.578 73.3782Z" fill="#E5E4E4"/>
  <path d="M133.267 74.5783L133.19 72.8359L130.893 72.812L132.331 74.1582L132.912 74.9445L133.267 74.5783Z" fill="white"/>
  <path d="M137.249 72.0586L138.677 72.6751L135.332 75.195L133.562 73.4729L137.249 72.0586Z" fill="white"/>
  <path d="M130.84 80.1842C130.84 80.1842 130.586 77.391 130.725 77.199C130.863 77.008 132.615 74.1909 132.615 74.1909L133.229 75.2505L130.84 80.1842Z" fill="#E5E4E4"/>
  <path d="M135.866 65.3045C135.805 65.3372 134.872 64.9153 134.872 64.9153C134.872 64.9153 132.967 63.5284 134.719 62.0054L134.799 62.3857L136.453 63.0579L135.866 65.3045Z" fill="#2E3192"/>
  <path d="M134.2 74.0945L133.658 74.1759L133.358 73.6647C133.358 73.6647 132.843 73.6532 132.773 73.6196C132.701 73.5851 132.45 74.0326 132.455 74.236C132.46 74.4377 132.644 74.8171 132.644 74.8171L132.911 74.8233L133.449 74.6889L134.876 74.749L134.2 74.0945Z" fill="url(#paint2_linear)"/>
  <path d="M133.072 74.8028L132.208 74.6392C132.208 74.6392 129.467 90.2122 129.624 92.8984C129.633 93.0761 130.436 94.2251 130.436 94.2251L131.432 93.1266L133.072 74.8028Z" fill="url(#paint3_linear)"/>
  <path d="M121.681 63.1066C121.681 63.1066 120.157 63.4003 119.18 62.3699C118.202 61.3421 119.329 61.7118 122.628 62.5972L121.681 63.1066Z" fill="#F68C82"/>
  <path d="M121.481 63.0147C121.481 63.0147 120.439 62.415 119.944 61.2528C119.522 60.2613 118.514 60.0552 118.248 59.2964C118.062 58.771 119.135 59.2804 119.177 59.2884C119.204 59.2928 119.545 59.1106 119.725 59.0576C119.838 59.0248 120.504 58.9983 120.66 59.0478C120.757 59.0797 121.447 58.9107 121.572 59.0071C122.416 59.6581 122.463 59.5732 123.482 61.7658C123.482 61.7658 123.04 63.7028 121.481 63.0147Z" fill="#F68C82"/>
  <path d="M130.535 68.3338C130.55 69.006 128.763 68.2666 128.523 68.9751C128.314 69.5854 128.239 70.4999 128.436 71.0457C128.45 71.0863 127.485 71.2049 127.501 71.2438C124.015 67.4679 124.608 67.4255 121.828 63.524C121.828 63.524 122.468 60.1444 123.642 61.4747C125.71 63.815 129.65 67.0168 129.734 67.1407C129.685 67.276 130.531 68.1746 130.535 68.3338Z" fill="#E5E4E4"/>
  <path d="M130.201 67.8277C129.549 67.9869 130.106 66.9644 129.469 67.1661C129.038 67.305 128.606 67.4429 128.183 67.6057C127.839 67.8993 127.504 68.2036 127.195 68.5335C127.169 68.5618 127.409 69.0041 127.31 69.1376C127.097 69.4994 127.384 70.3325 127.121 70.6695C129.1 73.9563 135.235 78.154 138.294 78.3495C143.34 78.675 139.629 73.3681 139.629 73.3681C136.831 71.3771 134.568 70.0884 130.701 68.5353C130.701 68.5353 130.181 67.9117 130.201 67.8277Z" fill="#E5E4E4"/>
  <defs>
    <linearGradient id="paint0_linear" x1="82.2403" y1="-23.4413" x2="82.2401" y2="99.4234" gradientUnits="userSpaceOnUse">
      <stop stop-color="#DCB7FE"/>
      <stop offset="1" stop-color="#3EBCFC"/>
    </linearGradient>
    <linearGradient id="paint1_linear" x1="81.7431" y1="-3.39085" x2="81.7429" y2="96.2093" gradientUnits="userSpaceOnUse">
      <stop stop-color="#DCB7FE"/>
      <stop offset="1" stop-color="#3EBCFC"/>
    </linearGradient>
    <linearGradient id="paint2_linear" x1="133.666" y1="73.2749" x2="133.666" y2="75.0716" gradientUnits="userSpaceOnUse">
      <stop stop-color="#DCB7FE"/>
      <stop offset="1" stop-color="#3EBCFC"/>
    </linearGradient>
    <linearGradient id="paint3_linear" x1="131.345" y1="69.0706" x2="131.344" y2="98.2575" gradientUnits="userSpaceOnUse">
      <stop stop-color="#DCB7FE"/>
      <stop offset="1" stop-color="#3EBCFC"/>
    </linearGradient>
  </defs>
</svg>
