<svg width="200" height="200" viewBox="0 0 200 200" fill="none"
  xmlns="http://www.w3.org/2000/svg">
  <circle cx="100" cy="100" r="97" stroke="url(#paint0_linear)" stroke-width="6" fill="none"/>
  <path d="M152.687 101.216C151.431 98.9236 150.029 96.6379 148.674 94.4225C146.569 90.9892 144.396 87.4418 142.781 83.8865C144.272 78.4833 143.722 72.0295 141.124 64.6314C128.447 34.3978 99.3489 30.2265 77.6845 39.1381C55.4151 48.2998 38.5363 71.6715 49.3631 98.6156C52.7338 107.036 55.3166 112.231 57.3913 116.407C62.9711 127.633 63.8294 129.357 62.7991 163.418C62.7804 164.05 63.2776 164.578 63.9107 164.6C64.5924 164.63 65.0724 164.12 65.0911 163.487C66.1355 128.851 65.2443 127.056 59.4425 115.386C57.385 111.248 54.8241 106.098 51.4893 97.7604C41.2176 72.203 57.3318 49.9914 78.5538 41.2597C99.8961 32.4779 126.872 36.5725 138.988 65.4568C141.463 72.5126 141.962 78.6319 140.467 83.6426C140.389 83.9069 140.406 84.1867 140.517 84.4369C142.209 88.2579 144.502 92.0023 146.721 95.6216C148.062 97.812 149.449 100.076 150.673 102.312C151.799 104.399 151.802 105.337 151.606 105.756C151.177 106.684 148.886 107.164 146.239 107.718C144.971 107.981 143.539 108.281 142.002 108.683C141.463 108.823 141.103 109.331 141.15 109.888C141.501 114.125 141.868 117.94 142.243 121.825C142.496 124.459 142.753 127.128 143.009 129.972C143.223 132.651 142.775 134.531 141.638 135.719C139.345 138.112 134.021 137.916 127.864 137.687L127.584 137.678C123.174 137.542 120.071 138.456 118.083 140.495C114.683 143.991 115.043 150.07 115.498 157.766C115.605 159.589 115.72 161.505 115.787 163.492C115.809 164.112 116.317 164.6 116.933 164.6C116.944 164.6 116.959 164.6 116.972 164.597C117.604 164.577 118.099 164.045 118.079 163.413C118.008 161.404 117.894 159.47 117.783 157.63C117.364 150.498 117.031 144.867 119.725 142.096C121.237 140.542 123.798 139.87 127.505 139.968L127.78 139.979C134.492 140.231 140.289 140.444 143.292 137.306C144.907 135.617 145.561 133.158 145.292 129.776C145.035 126.917 144.779 124.245 144.524 121.607C144.179 118.029 143.841 114.511 143.514 110.667C144.652 110.39 145.723 110.168 146.705 109.96C150.226 109.227 152.768 108.693 153.684 106.724C154.316 105.366 154.008 103.67 152.687 101.216Z" fill="#1EB3FB"/>
  <path d="M110.443 80.9879C106.216 82.1167 101.424 83.3956 96.8447 86.4036C93.5052 88.5815 91.5306 91.305 89.2465 94.4616C88.0129 96.1641 86.7372 97.9261 85.0752 99.8741C79.4125 106.495 73.6904 108.95 68.5201 106.961C61.3237 104.195 55.9111 93.042 56.1987 81.5727C56.7272 61.7155 73.4293 46.2142 95.9129 44.7086C105.736 44.0629 115.253 47.4399 120.129 53.3278C125.224 59.5361 127.974 68.654 122.632 75.025C119.707 78.5146 115.414 79.6606 110.443 80.9879ZM124.386 76.4993C130.573 69.1199 127.594 58.8138 121.896 51.8675C116.563 45.4293 106.307 41.7052 95.7597 42.4213C72.0707 44.0066 54.4696 60.446 53.9068 81.5132C53.6363 92.365 58.7205 105.653 67.6993 109.102C68.9657 109.588 70.4494 109.932 72.1222 109.932C76.1105 109.932 81.1589 107.977 86.8169 101.364C88.5398 99.3457 89.9015 97.4665 91.1023 95.8077C93.3411 92.7136 95.1093 90.27 98.097 88.3251C102.371 85.5172 106.776 84.3415 111.034 83.2033C116.158 81.8337 120.997 80.5424 124.386 76.4993Z" fill="#1EB3FB"/>
  <path d="M76.3764 79.8891C73.4559 79.8891 71.0795 77.5018 71.0795 74.5688C71.0795 71.6108 73.4559 69.2031 76.3764 69.2031C79.3453 69.2031 81.6733 71.5592 81.6733 74.5688C81.6733 77.5018 79.2984 79.8891 76.3764 79.8891ZM76.3764 66.9095C72.1926 66.9095 68.7891 70.3444 68.7891 74.5688C68.7891 78.7682 72.1926 82.1827 76.3764 82.1827C80.5601 82.1827 83.9637 78.7682 83.9637 74.5688C83.9637 70.3444 80.5601 66.9095 76.3764 66.9095Z" fill="#1EB3FB"/>
  <path d="M89.0766 76.7241C88.5575 76.7241 88.1026 77.0743 87.9697 77.5762C87.6617 78.7316 87.2318 79.7744 86.6892 80.6734C86.4156 81.1268 86.4891 81.713 86.869 82.0851L88.359 83.5266L85.2978 86.6378L83.8 85.1698C83.4279 84.8055 82.8557 84.7398 82.4117 85.0041C81.5315 85.5294 80.5153 85.9499 79.3865 86.2579C78.8893 86.3955 78.5407 86.8473 78.5407 87.3648L78.5969 89.4286H74.2084V87.3648C74.2084 86.8473 73.8629 86.3939 73.3641 86.2579C72.2979 85.9703 71.302 85.5544 70.3186 84.9931C70.1419 84.893 69.9449 84.843 69.7511 84.843C69.454 84.843 69.1601 84.9603 68.9381 85.1823L67.5263 86.6503L64.4417 83.5391L65.8925 82.0726C66.2521 81.7083 66.3272 81.1518 66.0786 80.7062C65.547 79.7541 65.1249 78.7003 64.8231 77.5746C64.6902 77.0728 64.2353 76.7241 63.7178 76.7241L61.6869 76.771L61.6306 72.3669H63.7178C64.2353 72.3669 64.6902 72.0182 64.8231 71.5179C65.1249 70.3923 65.547 69.3369 66.0786 68.3879C66.3272 67.9408 66.2521 67.3827 65.8925 67.0199L64.4479 65.6019L67.4857 62.4422L68.9381 63.9103C69.3024 64.2761 69.8683 64.3527 70.3186 64.0995C71.302 63.5382 72.2979 63.1223 73.3641 62.8331C73.8629 62.7002 74.2084 62.2452 74.2084 61.7277L74.199 59.664H78.5407V61.7277C78.5407 62.2452 78.8893 62.6971 79.3865 62.8331C80.5153 63.1426 81.5315 63.5632 82.4117 64.0885C82.8557 64.3543 83.4279 64.2871 83.8 63.9228L85.229 62.4485L88.3652 65.5409L86.869 67.0074C86.4891 67.3795 86.4156 67.9642 86.6892 68.4208C87.2318 69.3182 87.6617 70.3594 87.9697 71.5148C88.1026 72.0182 88.5575 72.3669 89.0766 72.3669L91.1075 72.3215L91.12 76.7241H89.0766ZM91.12 70.0733H89.9318C89.6973 69.3526 89.4174 68.6709 89.0938 68.0346L89.9803 67.1669C90.8151 66.3258 90.8339 64.8999 89.9756 63.9431L86.8503 60.8303C86.0357 60.0033 84.4848 60.0173 83.6953 60.8163L82.8026 61.6886C82.1881 61.3775 81.5299 61.1071 80.8326 60.8757V59.664C80.8326 58.3992 79.8289 57.3689 78.5969 57.3689H74.199C72.9623 57.3689 71.918 58.4195 71.918 59.664V60.8772C71.2504 61.1008 70.6016 61.3697 69.9653 61.6886L69.1132 60.8303C68.2721 59.9783 66.8509 59.9579 65.891 60.835L62.8563 63.9525C62.4014 64.3652 62.1419 64.9593 62.1419 65.5816C62.1419 66.2007 62.4014 66.7948 62.8126 67.1669L63.6771 68.0409C63.3645 68.6881 63.0909 69.3666 62.8626 70.0733H61.6306C60.4002 70.0733 59.3965 71.0817 59.3965 72.3215V76.771C59.3965 78.0108 60.4002 79.0177 61.6306 79.0177H62.8626C63.0909 79.7244 63.3645 80.406 63.6771 81.0517L62.8563 81.885C62.4108 82.2899 62.1575 82.8481 62.1419 83.4578C62.1262 84.0832 62.3701 84.6976 62.8126 85.1448L65.941 88.3045C66.8478 89.1315 68.2721 89.1143 69.1132 88.2638L69.9653 87.4039C70.6016 87.7229 71.2504 87.9918 71.918 88.2169V89.4286C71.918 90.6715 72.9623 91.7221 74.199 91.7221H78.5969C79.8289 91.7221 80.8326 90.6918 80.8326 89.4286V88.2169C81.5299 87.9855 82.1881 87.715 82.8057 87.4039L83.6828 88.2622C84.4973 89.0893 86.042 89.083 86.8456 88.2685L90.0193 85.1025C90.8339 84.1926 90.8151 82.7668 89.9693 81.9132L89.0938 81.058C89.4174 80.4216 89.6973 79.7384 89.9318 79.0177H91.12C92.3754 79.0177 93.3979 78.0108 93.3979 76.771V72.3215C93.3979 71.0817 92.3754 70.0733 91.12 70.0733Z" fill="#1EB3FB"/>
  <path d="M105.228 66.4513C103.108 66.4513 101.382 64.7034 101.382 62.5537C101.382 60.4024 103.108 58.6545 105.228 58.6545C107.347 58.6545 109.071 60.4024 109.071 62.5537C109.071 64.7034 107.347 66.4513 105.228 66.4513ZM105.228 56.361C101.843 56.361 99.0918 59.1392 99.0918 62.5537C99.0918 65.9667 101.843 68.7433 105.228 68.7433C108.612 68.7433 111.363 65.9667 111.363 62.5537C111.363 59.1392 108.612 56.361 105.228 56.361Z" fill="#1EB3FB"/>
  <path d="M116.377 63.9747H115.028C114.503 63.9747 114.043 64.3327 113.918 64.8439C113.713 65.6663 113.383 66.4871 112.995 67.1578C112.734 67.6081 112.806 68.174 113.17 68.543L114.119 69.5014L112.101 71.5417L111.169 70.5973C110.797 70.2237 110.22 70.1486 109.772 70.4207C109.06 70.8412 108.296 71.1539 107.5 71.3447C106.986 71.4697 106.623 71.9294 106.623 72.4594V73.8336H103.834V72.4594C103.834 71.9294 103.471 71.4697 102.957 71.3462C102.159 71.1539 101.396 70.8412 100.688 70.4207C100.241 70.1549 99.6609 70.2237 99.2888 70.5973L98.3555 71.5417L96.3355 69.5029L97.2876 68.543C97.6519 68.174 97.7238 67.6049 97.4627 67.1562C97.0906 66.5199 96.7514 65.7022 96.4825 64.7939C96.3386 64.3077 95.8915 63.9747 95.3849 63.9747H94.081V61.0854H95.3849C95.8915 61.0854 96.3386 60.7524 96.4825 60.2662C96.7357 59.4079 97.0656 58.6277 97.4627 57.9476C97.7238 57.4989 97.6519 56.9314 97.2876 56.5624L96.3386 55.6056L98.3555 53.5653L99.2888 54.5097C99.6609 54.8833 100.239 54.9521 100.688 54.6863C101.373 54.2814 102.151 53.9484 103.005 53.7014C103.496 53.5591 103.834 53.1104 103.834 52.5991V51.2702H106.623V52.5991C106.623 53.112 106.961 53.5607 107.451 53.7014C108.304 53.9468 109.084 54.2783 109.772 54.6863C110.22 54.9552 110.797 54.8833 111.169 54.5097L112.101 53.5653L114.118 55.6041L113.17 56.5624C112.806 56.9314 112.734 57.4974 112.994 57.9461C113.41 58.6621 113.719 59.4251 113.918 60.2146C114.043 60.7274 114.503 61.0854 115.028 61.0854H116.377V63.9747ZM116.662 58.7919H115.885C115.744 58.3791 115.578 57.9742 115.389 57.5787L115.985 56.9736C116.694 56.1544 116.673 54.9271 115.933 54.1782L113.527 51.7471C112.795 51.0123 111.407 51.0091 110.675 51.7471L110.144 52.2865C109.75 52.0942 109.34 51.9222 108.913 51.7658V50.9951C108.913 49.8835 108.013 48.9767 106.907 48.9767H103.551C102.442 48.9767 101.542 49.8835 101.542 50.9951V51.7658C101.116 51.9222 100.705 52.0942 100.313 52.2865L99.7829 51.7471C99.4186 51.3797 98.8995 51.1686 98.3586 51.167C98.357 51.167 98.357 51.167 98.3555 51.167C97.8161 51.167 97.2955 51.3781 96.9296 51.7471L94.5251 54.1782C93.7856 54.9271 93.7637 56.1544 94.5251 57.0299L95.0676 57.5787C94.88 57.9633 94.7095 58.3698 94.5563 58.7919H93.7965C92.7084 58.7919 91.7891 59.7378 91.7891 60.8556V64.2498C91.7891 65.3614 92.6896 66.2682 93.7965 66.2682H94.5532C94.7111 66.7138 94.8831 67.1328 95.0707 67.5268L94.5251 68.074C93.7871 68.8213 93.7637 70.0486 94.5251 70.9288L96.9296 73.3615C97.2955 73.7289 97.8161 73.94 98.3555 73.94C98.357 73.94 98.357 73.94 98.3586 73.94C98.8995 73.9384 99.4186 73.7273 99.7829 73.3599L100.316 72.819C100.713 73.0128 101.124 73.1801 101.542 73.3208V74.1104C101.542 75.222 102.442 76.1288 103.551 76.1288H106.907C108.013 76.1288 108.913 75.222 108.913 74.1104V73.3208C109.332 73.1801 109.742 73.0128 110.142 72.819L110.675 73.3599C111.409 74.0947 112.798 74.0947 113.527 73.3599L115.986 70.8694C116.694 70.0486 116.671 68.8213 115.933 68.074L115.387 67.5236C115.575 67.1218 115.744 66.7013 115.888 66.2682H116.662C117.769 66.2682 118.669 65.3614 118.669 64.2498V60.8556C118.669 59.7378 117.748 58.7919 116.662 58.7919Z" fill="#1EB3FB"/>
  <defs>
    <linearGradient id="paint0_linear" x1="100" y1="-56.8627" x2="99.9994" y2="241.176" gradientUnits="userSpaceOnUse">
      <stop stop-color="#DCB7FE"/>
      <stop offset="1" stop-color="#3EBCFC"/>
    </linearGradient>
  </defs>
</svg>
