<svg width="57" height="72" viewBox="0 0 57 72" fill="none" xmlns="http://www.w3.org/2000/svg">
  <path
    d="M23.9968 57.7294C23.6815 58.0263 23.8607 58.6213 24.3121 58.7821C24.5251 58.859 25.4373 58.9962 26.3508 59.0885C27.263 59.1808 28.5011 59.3239 29.1143 59.4067C30.6387 59.616 33.5151 59.3132 34.2365 58.8685C34.5472 58.6769 34.7578 58.4296 34.7508 58.2664C34.7369 57.9742 34.2645 57.5661 33.7885 57.4325C33.3976 57.3236 30.7958 57.2598 29.8742 57.3355C29.4518 57.371 28.8421 57.3662 28.4883 57.3248C27.6819 57.2314 25.1011 57.2953 24.603 57.4206C24.3994 57.4715 24.119 57.6146 23.9968 57.7294Z"
    fill="#FFD602" />
  <path
    d="M23.2699 59.6081C23.0092 59.7962 22.9918 59.9157 23.1512 60.4409C23.3141 60.9791 23.4398 61.1009 24.1775 61.4368C25.1491 61.8792 27.6008 62.2908 29.629 62.3512C31.2091 62.3985 33.5108 61.9324 34.5115 61.3635C35.2469 60.9436 35.1992 60.5509 34.352 60.0493C33.7947 59.7181 33.6271 59.7039 32.2192 59.8684C31.3802 59.9665 30.2131 59.9914 29.6313 59.9216C23.7504 59.2213 23.8028 59.2237 23.2699 59.6081Z"
    fill="#FFD602" />
  <path
    d="M22.8124 62.0057C22.6856 62.2115 22.8822 62.8183 23.1987 63.1968C23.5781 63.6522 24.6649 64.2697 25.6272 64.576C26.0345 64.7062 27.3493 64.8469 28.5269 64.886C30.3724 64.9486 30.9018 64.9061 32.2144 64.5938C34.0529 64.1549 34.8883 63.7315 35 63.1791C35.0629 62.8668 35.0082 62.7166 34.7347 62.4528C34.4066 62.1346 34.3472 62.1322 33.5013 62.4055C31.6186 63.0111 28.172 62.9129 25.2188 62.1689C23.62 61.7656 22.987 61.723 22.8124 62.0057Z"
    fill="#FFD602" />
  <path
    d="M23.3441 64.7744C23.7979 66.6847 25.527 69.4053 26.8302 70.257C27.9473 70.988 28.7467 71.1217 30.1058 70.8094C31.494 70.4888 32.305 69.8548 33.0543 68.4993C33.6222 67.4737 34.2575 65.4557 34.1551 65.0039C34.0969 64.7484 33.9527 64.7543 32.6378 65.063C31.4521 65.341 30.7981 65.3942 29.0806 65.3493C26.8535 65.2925 25.8214 65.1092 24.5135 64.539C23.4721 64.086 23.1951 64.1416 23.3441 64.7744Z"
    fill="#FFD602" />
  <path
    d="M25.1603 28.9811C24.8625 29.3572 24.6437 30.5709 24.7729 31.1351C24.8078 31.2888 25.0847 31.5597 25.3849 31.7336C25.6863 31.9075 25.9074 32.1346 25.876 32.2363C25.8445 32.3381 25.4827 32.5001 25.0731 32.5959C24.3877 32.758 24.2923 32.8325 23.8594 33.5458C23.4952 34.1455 23.3916 34.5074 23.401 35.1474C23.4266 36.8921 23.7524 37.5367 24.9451 38.1968C25.684 38.6049 25.7375 38.6664 25.5525 38.9041C24.9811 39.6411 24.7891 40.0196 24.7822 40.4206C24.7682 41.3207 25.7503 41.8743 27.1187 41.7383L27.8855 41.6614L27.7773 38.9822C27.5457 33.3139 27.5318 32.2198 27.6772 30.9849C27.8622 29.4093 27.7657 28.9338 27.1885 28.5659C26.6149 28.2016 25.6141 28.4062 25.1603 28.9811Z"
    fill="#FFD602" />
  <path
    d="M30.0677 28.1772C29.9292 28.3534 29.9385 28.797 30.0991 29.7752C30.3562 31.3378 30.426 33.5143 30.2794 35.3619C30.2236 36.0716 30.1922 37.3136 30.2108 38.1227C30.2294 38.9306 30.2282 39.8414 30.2085 40.1478C30.1328 41.2916 30.2759 41.5152 31.2033 41.7139C32.8685 42.0699 34.1752 41.3874 33.9262 40.2909C33.8308 39.8686 33.6935 39.7385 33.0837 39.4948C32.0342 39.0737 31.827 38.8892 32.1203 38.6384C32.2483 38.5296 32.7358 38.2978 33.2036 38.1239C34.9757 37.4627 35.5878 36.3366 34.892 35.0141C34.5254 34.3186 34.2811 34.1992 33.1163 34.1495C32.588 34.1282 32.1133 34.0407 32.0644 33.9579C32.0179 33.8774 32.1435 33.6621 32.3367 33.4942C33.1931 32.7501 33.3863 31.818 33.0186 30.1999C32.7521 29.0277 32.3367 28.1453 31.905 27.8353C31.5617 27.5881 30.3539 27.8141 30.0677 28.1772Z"
    fill="#FFD602" />
  <path
    d="M21.6785 0.292168C21.6599 0.416369 21.9857 2.08066 22.4011 3.98389C23.0864 7.12203 23.1842 7.45915 23.4437 7.55496C23.6275 7.62238 23.766 7.59518 23.8335 7.47807C23.8917 7.37871 23.5903 5.66001 23.1632 3.64914L22.3883 0L22.0497 0.0319374C21.8542 0.0508632 21.6971 0.16087 21.6785 0.292168Z"
    fill="white" />
  <path
    d="M9.81907 6.3901C9.75624 6.84313 13.8649 13.3998 14.4921 13.8469C14.8377 14.0941 15.1716 14.0444 15.2147 13.7392C15.2322 13.6162 14.7784 12.8178 14.2152 11.9803C13.6508 11.144 12.7548 9.70448 12.2405 8.80906C10.9117 6.49419 10.5277 5.98911 10.1588 6.07664C9.98314 6.11804 9.83769 6.25288 9.81907 6.3901Z"
    fill="white" />
  <path
    d="M37.1811 3.12548C36.5144 4.34502 34.5421 8.82453 34.3699 9.50704C34.2233 10.089 34.4025 10.6059 34.7446 10.5905C34.9179 10.5823 35.1157 10.2546 35.3473 9.59102C35.7778 8.3573 36.682 6.30739 37.7525 4.1321C38.5798 2.45362 38.6473 2.00768 38.0667 2.05736C37.8432 2.07747 37.5838 2.38974 37.1811 3.12548Z"
    fill="white" />
  <path
    d="M48.0055 8.27901C45.449 11.0434 44.3459 12.9561 45.2361 13.0814C45.4304 13.1086 45.6643 12.8721 46.0739 12.2333C46.8046 11.0942 47.4353 10.3041 48.8747 8.7214C49.7858 7.72069 49.9964 7.40132 49.9033 7.16238C49.6997 6.63719 49.3145 6.86312 48.0055 8.27901Z"
    fill="white" />
  <path
    d="M24.4934 64.8549C25.522 65.3718 26.6728 65.5776 28.9186 65.6439C30.4976 65.69 31.1411 65.6344 32.4175 65.341L33.9814 64.9826L33.6754 66.1336C32.7748 69.5189 30.6198 71.2648 28.2053 70.5646C27.727 70.4262 27.1196 70.1494 26.8613 69.953C26.148 69.4089 24.7494 67.5246 24.2513 66.4376C23.7999 65.4487 23.5299 64.5426 23.6765 64.5083C23.7242 64.4977 24.0943 64.6538 24.4934 64.8549ZM24.434 62.2916C25.1078 62.5862 27.8597 63.0132 29.5679 63.0889C30.728 63.1409 31.3947 63.0735 32.6817 62.7778C34.2165 62.4253 34.334 62.4194 34.5679 62.6879C34.9274 63.0983 34.7331 63.4165 33.8732 63.8258C32.5944 64.4338 31.1864 64.6585 28.9453 64.6124C26.6123 64.5639 25.2823 64.2753 24.1559 63.5703C23.4031 63.0983 23.0575 62.6477 23.1203 62.2147C23.161 61.9332 23.6835 61.9628 24.434 62.2916ZM25.7012 59.7414C26.6286 59.8301 27.9912 59.9969 28.7394 60.1152C29.6784 60.263 30.6209 60.2748 31.809 60.153C32.9807 60.0324 33.6568 60.0383 33.95 60.1719C34.448 60.3967 34.8297 60.7373 34.7424 60.8793C34.7052 60.9396 34.2002 61.2058 33.6149 61.4719C32.67 61.9036 32.4047 61.964 31.1445 62.0361C27.8038 62.2277 23.4834 61.3536 23.2762 60.4428C23.2181 60.1873 23.5369 59.694 23.7999 59.6325C23.9209 59.6042 24.7738 59.6526 25.7012 59.7414ZM26.3889 57.5554C26.987 57.5448 27.7747 57.5649 28.168 57.5992C28.5555 57.6323 29.4224 57.6359 30.0926 57.6075C32.2709 57.5152 33.5788 57.6122 34.0349 57.9032C34.2863 58.0629 34.4573 58.2699 34.4236 58.374C34.2281 58.9678 31.2353 59.3924 29.2048 59.1168C28.509 59.021 27.2569 58.8731 26.4389 58.7892C24.6586 58.6046 24.2188 58.4982 24.1594 58.2344C24.0989 57.9718 24.6214 57.5613 25.0077 57.5673C25.1787 57.5696 25.7908 57.5649 26.3889 57.5554ZM31.5192 27.9282C31.852 28.0536 32.2069 28.5764 32.5606 29.4636C33.1936 31.0498 32.9923 32.5698 32.037 33.3942C31.432 33.9171 31.8066 34.6126 32.5956 34.4269C32.8062 34.3772 33.3007 34.4186 33.708 34.5203C34.6214 34.7474 35.0263 35.4051 34.8227 36.3277C34.6656 37.0445 34.1897 37.4515 32.919 37.9506C31.7182 38.4238 31.667 38.4675 31.7694 38.9206C31.8287 39.1796 32.108 39.3914 32.7922 39.6965C33.3054 39.926 33.7533 40.2016 33.7755 40.3033C33.7987 40.4039 33.7149 40.6688 33.5928 40.8853C33.4194 41.1917 33.2064 41.3194 32.6665 41.446C31.8776 41.6317 30.5336 41.3561 30.4976 41.0012C30.4371 40.411 30.4883 36.407 30.5709 35.3554C30.7082 33.5882 30.5814 30.9776 30.2974 29.7285C30.0612 28.6888 30.067 28.6131 30.3929 28.3186C30.7757 27.9732 31.226 27.817 31.5192 27.9282ZM26.93 28.7834C27.4734 29.1288 27.5839 29.5523 27.421 30.6689C27.2197 32.06 27.2558 34.1796 27.5862 40.34L27.6433 41.4058L26.9835 41.4838C26.34 41.5595 25.6465 41.3502 25.2625 40.9634C24.9402 40.6405 25.0554 39.9662 25.515 39.4872C26.2167 38.7573 26.141 38.5196 25.0077 37.8607C24.0337 37.2953 24.0128 37.2705 23.8336 36.4839C23.3717 34.4493 23.8813 33.2286 25.4173 32.6869C26.0863 32.4515 26.2097 32.3533 26.1864 32.0765C26.1666 31.8577 25.9874 31.6743 25.6465 31.5288C25.0228 31.2627 24.8878 30.857 25.1147 29.9284C25.4021 28.7515 26.1434 28.2831 26.93 28.7834ZM29.9204 16.62C31.3563 16.5277 32.0184 16.5822 33.6824 16.9311C36.6693 17.5557 39.789 18.9266 40.7012 20.016C40.913 20.2692 41.3924 20.9954 41.7729 21.6413C42.3594 22.6361 42.5188 23.0607 42.8481 24.5156C43.2705 26.3704 43.3345 27.6538 43.1192 29.9095C42.9377 31.8127 41.9475 36.2165 41.425 37.4526C40.9584 38.5539 39.2863 41.8943 37.8411 44.6102C36.2365 47.6288 33.8301 53.29 33.3612 55.153C33.1902 55.8344 32.9877 56.4412 32.9155 56.4932C32.7829 56.5867 30.6011 56.5725 30.4499 56.4767C30.3603 56.4199 30.4371 53.3208 30.5918 50.7682C30.707 48.8803 30.7152 44.648 30.607 43.5562C30.4929 42.41 30.536 42.358 31.4366 42.533C32.5793 42.7554 33.9011 42.3331 34.377 41.5962C34.8774 40.8191 34.903 40.1448 34.4527 39.5735C34.256 39.3227 33.9872 39.0956 33.8662 39.0779C33.5299 39.0282 33.5288 38.742 33.8651 38.6639C34.3596 38.5468 35.1252 37.9151 35.522 37.2929C36.4087 35.9054 35.6314 33.8437 34.092 33.4983L33.4752 33.3611L33.7045 32.8383C34.0198 32.1179 34.0256 31.2461 33.7254 29.9249C33.3891 28.4404 32.8434 27.4763 32.1324 27.1073C31.6274 26.8447 31.4878 26.8435 30.6675 27.0931C30.0496 27.2812 29.6563 27.4953 29.4294 27.7662C29.1164 28.1423 29.1106 28.2559 29.3386 29.7037C29.6237 31.5241 29.6737 32.9554 29.5411 35.5352C29.4305 37.6608 29.4538 40.4027 29.6167 44.6646C29.6772 46.2449 29.6959 48.3102 29.6586 49.2671C29.6225 50.2181 29.5551 52.2467 29.5097 53.7584C29.4655 55.269 29.4096 56.5464 29.3852 56.5855C29.2013 56.8978 29.1082 56.1502 29.014 53.6082C28.9558 52.0113 28.8371 49.9118 28.7522 48.9631C28.6672 48.0144 28.6277 46.7878 28.6649 46.2472C28.7382 45.1874 28.5974 39.4931 28.4194 36.3455C28.2693 33.6911 28.2821 31.9417 28.4589 30.7387C28.6754 29.2648 28.4962 28.6557 27.6735 28.0772C26.7671 27.4373 26.0002 27.3983 25.202 27.9471C24.8564 28.1861 24.5015 28.5953 24.3619 28.9171C24.007 29.7344 23.8964 30.9114 24.121 31.4756C24.2909 31.9038 24.2688 31.9949 23.9314 32.2421C23.3914 32.6372 22.6968 33.9667 22.656 34.68C22.606 35.5837 22.7677 36.7808 23.0202 37.3627C23.1424 37.6454 23.5474 38.1304 23.9255 38.4474C24.3479 38.8023 24.5481 39.0602 24.448 39.1228C24.2095 39.2707 23.9628 40.4406 24.071 40.9149C24.2886 41.8718 25.6605 42.6312 27.0091 42.5401C27.5688 42.5023 27.6595 42.5437 27.6595 42.8323C27.6595 43.0204 27.6665 43.652 27.6758 44.26C27.6851 44.8586 27.6758 45.8545 27.6549 46.4696C27.6339 47.08 27.691 48.2747 27.7794 49.0979C27.9342 50.5316 28.253 56.3986 28.182 56.5098C28.1634 56.5393 27.812 56.5417 27.3907 56.5145C26.9695 56.4873 26.4843 56.5003 26.2981 56.5441C26.1085 56.589 25.9141 56.5737 25.8513 56.5086C25.7896 56.4447 25.7442 55.8143 25.7489 55.0939C25.7652 52.6099 24.8774 49.8727 23.3007 47.5531C21.2399 44.5191 19.2723 40.6073 18.3437 37.6939C16.5297 32.0055 16.1096 29.7226 16.3865 27.0671C16.7984 23.127 20.1741 19.1525 24.4468 17.5793C25.6791 17.1239 27.7817 16.756 29.9204 16.62ZM23.033 17.0447C20.5848 18.1163 18.6253 19.9025 17.037 22.5059C15.1985 25.5211 14.9239 27.5047 15.7489 31.8139C16.4028 35.2253 17.8282 39.7734 18.9232 41.9357C20.2101 44.48 21.5401 46.815 22.3942 48.0322C24.0047 50.3281 24.7645 52.4514 24.8192 54.8124C24.8564 56.3974 24.8145 56.5252 24.1687 56.7878C23.4508 57.0811 22.9807 57.7861 23.1133 58.3704C23.1913 58.7123 23.1273 58.8909 22.8411 59.1381C22.4163 59.5048 22.2546 60.2299 22.4629 60.8213C22.5711 61.1253 22.535 61.3406 22.3326 61.6032C22.0545 61.9628 22.0568 61.9805 22.6781 64.4149C23.2355 66.5973 23.3763 66.9817 23.9744 67.9564C25.408 70.2937 26.9742 71.5606 28.6207 71.7155C29.7517 71.8208 31.4296 71.3204 32.2791 70.6237C33.3344 69.7567 34.2141 68.1338 34.697 66.1596C34.9286 65.2133 35.2684 64.2079 35.451 63.9346C35.8525 63.3314 35.8839 62.6914 35.536 62.2254C35.3068 61.919 35.3137 61.8374 35.5918 61.5086C35.9677 61.0674 35.8525 60.3837 35.3091 59.8242L34.9379 59.4421L35.2718 58.9453C35.7571 58.219 35.5686 57.6098 34.6959 57.0894L34.0198 56.686L34.3666 55.4334C34.5551 54.7473 34.8623 53.7892 35.0426 53.3196C35.8606 51.1881 37.8609 46.7925 38.9221 44.7947C40.4662 41.8836 42.1208 38.5302 42.5141 37.5094C43.0261 36.1846 43.9977 31.5005 44.1537 29.6031C44.3515 27.2114 44.2339 25.8109 43.6614 23.7302C43.0145 21.381 41.9137 19.5192 40.5593 18.4854C39.0059 17.299 33.6824 15.5791 31.4599 15.5448C28.7894 15.5034 25.0205 16.1741 23.033 17.0447Z"
    fill="white" />
  <path
    d="M0.00676734 22.7652C-0.0490857 23.2312 0.229016 23.3696 1.28208 23.4004C2.75288 23.4441 4.49596 23.8771 5.3896 24.4212C6.17504 24.899 6.63001 24.8647 6.58579 24.3325C6.55088 23.9114 5.17201 23.1224 3.82688 22.7569C2.94138 22.5156 0.789874 22.3464 0.240652 22.4754C0.132437 22.5014 0.0230577 22.6362 0.00676734 22.7652Z"
    fill="white" />
  <path
    d="M53.3129 20.3483C52.7613 20.5423 51.7629 20.8356 51.0787 21.0071C49.7394 21.3407 49.26 21.6695 49.5218 22.0729C49.6394 22.2551 49.8965 22.235 51.0939 21.9546C53.1814 21.4649 55.6343 20.605 55.8239 20.2974C55.9519 20.0892 55.9345 20.0053 55.732 19.8491C55.4783 19.654 55.0373 19.745 53.3129 20.3483Z"
    fill="white" />
  <path
    d="M3.51396 38.3234C3.45461 38.7587 4.02943 38.8912 4.9929 38.6641C6.14952 38.3932 7.60171 38.2974 8.90262 38.4074C9.70318 38.4748 9.9999 38.4476 10.093 38.2962C10.6329 37.4173 7.63778 37.1051 4.87887 37.7533C3.78391 38.0099 3.54305 38.1105 3.51396 38.3234Z"
    fill="white" />
  <path
    d="M48.6501 39.1814C48.585 39.6853 49.3716 39.8285 52.6029 39.9018C53.3302 39.9172 54.3821 39.9811 54.9581 40.0438C56.046 40.1609 56.3951 40.0319 56.1973 39.5836C56.0111 39.159 55.2012 39.017 52.3632 38.9129C48.9981 38.7887 48.699 38.81 48.6501 39.1814Z"
    fill="white" />
  <path
    d="M46.7482 49.9319C46.4887 50.4512 46.8704 50.547 48.8171 50.45C49.8818 50.3968 51.4689 50.3625 52.3533 50.3755C53.8497 50.3956 53.9707 50.3767 54.1359 50.0975C54.2988 49.8231 54.2791 49.7793 53.9137 49.5913C53.4901 49.3748 51.8401 49.3358 49.1045 49.4801C47.0531 49.5877 46.9053 49.6161 46.7482 49.9319Z"
    fill="white" />
  <path
    d="M6.50869 59.1064C6.48658 59.6896 6.8729 59.6139 8.60202 58.7007C9.54803 58.2004 10.9769 57.4977 11.7856 57.1334C13.154 56.5171 13.2553 56.4497 13.2913 56.1256C13.3274 55.8074 13.2913 55.7755 12.8818 55.7601C12.4082 55.7424 10.8932 56.406 8.46588 57.6976C6.64483 58.6652 6.52266 58.7539 6.50869 59.1064Z"
    fill="white" />
</svg>