<svg width="100" height="59" viewBox="0 0 100 59" fill="none"
  xmlns="http://www.w3.org/2000/svg">
  <path d="M59.3322 24.5955C58.5771 18.4466 55.5566 10.4639 49.0841 0C49.0841 0 40.9934 11.3269 38.8359 23.7325C44.0139 28.479 48.1132 34.9515 48.2211 43.9051C48.2211 43.9051 47.4659 41.8555 42.9352 39.9137C44.6612 40.7767 46.9266 42.0712 48.2211 44.013C48.2211 44.013 51.7809 43.2579 54.9093 40.3452C52.7518 41.5319 51.6731 42.7185 51.6731 42.7185C51.1337 35.0594 54.5857 29.1262 59.3322 24.5955Z" fill="white"/>
  <path d="M75.7282 36.7854C75.7282 36.7854 75.7283 36.6775 75.8361 36.6775C75.8361 36.6775 79.9354 31.1759 84.6819 12.2977C84.6819 12.2977 69.2558 15.4261 59.4391 24.5955C60.5179 32.6861 57.9289 37.5405 54.9084 40.3452C57.4974 38.9429 61.5966 37.3247 67.2061 37.5405C67.2061 37.5405 57.3895 41.5319 53.9375 49.4067C59.547 39.5901 67.7455 36.6775 75.7282 36.7854Z" fill="white"/>
  <path d="M59.3308 24.5955C54.5843 29.1262 51.1323 34.9515 51.5638 42.7185C51.5638 42.7185 52.6425 41.6397 54.8 40.3452C57.8205 37.5405 60.4095 32.794 59.3308 24.5955Z" fill="white"/>
  <path d="M38.8357 23.7323C29.2348 15.1023 15.6426 12.6212 15.6426 12.6212C16.5056 24.1638 23.086 36.7852 23.086 36.7852C23.086 36.7852 23.086 36.7852 23.086 36.8931C25.7828 36.7852 28.5876 36.8931 31.1766 37.6482C30.853 37.5403 30.5293 37.4325 30.3136 37.3246C36.2467 37.864 40.2381 39.0506 42.935 40.1293C41.5326 39.4821 40.4538 39.1585 40.4538 39.1585C38.1885 34.1962 37.9727 28.9103 38.8357 23.7323Z" fill="white"/>
  <path d="M48.2203 43.9048C48.1124 34.9512 44.1211 28.3708 38.8352 23.7322C37.9722 28.9102 38.0801 34.1961 40.3454 38.9426C40.3454 38.9426 41.4242 39.2662 42.8266 39.9134C47.3573 41.8552 48.2203 43.9048 48.2203 43.9048Z" fill="white"/>
  <path d="M75.6208 36.4614C67.2066 51.3482 53.8301 49.0828 53.8301 49.0828C53.8301 49.0828 62.7837 72.1681 100.001 44.5521C99.8927 44.4442 88.1343 36.6772 75.6208 36.4614Z" fill="white"/>
  <path d="M75.6208 36.462C67.746 36.3541 59.5475 39.2667 53.8301 49.0834C53.8301 49.0834 67.2066 51.3487 75.6208 36.462Z" fill="white"/>
  <path d="M23.6246 36.5695C11.5426 37.2167 0 44.2286 0 44.2286C33.4412 72.5997 45.8469 49.2987 45.8469 49.2987C45.5233 48.6515 45.1996 48.1121 44.876 47.5727C45.0917 48.0042 45.0918 48.22 45.0918 48.22C33.2255 51.672 24.2719 37.5403 23.6246 36.5695Z" fill="white"/>
  <path d="M22.9766 36.6772C23.6238 37.6481 32.9011 51.6718 45.1988 48.2198C45.1988 48.2198 45.0909 48.0041 44.9831 47.5726C44.2279 46.2781 43.3649 44.9836 42.3941 44.0127C40.3444 41.9631 38.0791 39.6977 32.3617 37.5402C29.6648 36.893 25.7813 36.4615 22.9766 36.6772Z" fill="white"/>
  <path d="M49.1916 40.3453C51.2769 40.3453 52.9673 38.6549 52.9673 36.5697C52.9673 34.4845 51.2769 32.7941 49.1916 32.7941C47.1064 32.7941 45.416 34.4845 45.416 36.5697C45.416 38.6549 47.1064 40.3453 49.1916 40.3453Z" fill="#D5C0FF"/>
</svg>
