<svg width="240" height="80" viewBox="0 0 240 80" fill="none" xmlns="http://www.w3.org/2000/svg">
<path d="M24.1363 64.3865C23.8193 64.716 23.9995 65.3762 24.4534 65.5547C24.6675 65.6401 25.5848 65.7923 26.5032 65.8947C27.4205 65.9971 28.6653 66.1559 29.2819 66.2478C30.8146 66.4801 33.7068 66.1441 34.4322 65.6506C34.7445 65.4379 34.9563 65.1636 34.9493 64.9824C34.9352 64.6582 34.4602 64.2054 33.9817 64.0571C33.5886 63.9363 30.9725 63.8654 30.0459 63.9494C29.6212 63.9888 29.0081 63.9836 28.6525 63.9376C27.8417 63.8339 25.2467 63.9048 24.7459 64.0439C24.5412 64.1004 24.2592 64.2592 24.1363 64.3865Z" fill="#FFD602"/>
<path d="M23.4078 66.4828C23.1457 66.6915 23.1282 66.8241 23.2885 67.4071C23.4523 68.0045 23.5786 68.1397 24.3204 68.5126C25.2973 69.0037 27.7625 69.4606 29.8017 69.5276C31.3906 69.5801 33.7048 69.0628 34.711 68.4312C35.4504 67.9651 35.4024 67.5292 34.5507 66.9725C33.9903 66.6049 33.8218 66.5891 32.4061 66.7716C31.5626 66.8806 30.3891 66.9082 29.8041 66.8307C23.891 66.0534 23.9436 66.056 23.4078 66.4828Z" fill="#FFD602"/>
<path d="M22.9357 69.1486C22.8082 69.377 23.0059 70.0504 23.3241 70.4705C23.7055 70.9758 24.7983 71.661 25.7659 72.001C26.1754 72.1454 27.4975 72.3016 28.6815 72.3449C30.5371 72.4145 31.0694 72.3672 32.3892 72.0207C34.2377 71.5337 35.0778 71.0638 35.1901 70.4508C35.2533 70.1042 35.1983 69.9375 34.9234 69.6448C34.5934 69.2917 34.5337 69.2891 33.6832 69.5923C31.7901 70.2644 28.3246 70.1554 25.3552 69.3298C23.7477 68.8822 23.1112 68.8349 22.9357 69.1486Z" fill="#FFD602"/>
<path d="M23.4634 72.2113C23.9197 74.3313 25.6583 77.3506 26.9687 78.2958C28.0919 79.1071 28.8956 79.2554 30.2622 78.9089C31.658 78.5531 32.4734 77.8495 33.2269 76.3451C33.7979 75.2069 34.4367 72.9674 34.3337 72.4659C34.2752 72.1824 34.1301 72.189 32.8081 72.5316C31.6158 72.8401 30.9583 72.8991 29.2314 72.8493C26.9921 72.7862 25.9543 72.5828 24.6392 71.95C23.5921 71.4473 23.3137 71.509 23.4634 72.2113Z" fill="#FFD602"/>
<path d="M25.295 32.4842C24.9955 32.9017 24.7755 34.2487 24.9054 34.8749C24.9405 35.0456 25.2189 35.3462 25.5208 35.5392C25.8238 35.7322 26.0461 35.9842 26.0145 36.0971C25.9829 36.21 25.6191 36.3899 25.2072 36.4962C24.5181 36.6761 24.4222 36.7588 23.9869 37.5505C23.6207 38.2161 23.5166 38.6178 23.526 39.328C23.5517 41.2645 23.8793 41.98 25.0785 42.7125C25.8215 43.1655 25.8753 43.2337 25.6893 43.4976C25.1148 44.3155 24.9218 44.7356 24.9147 45.1807C24.9007 46.1797 25.8882 46.7941 27.2641 46.6432L28.0351 46.5578L27.9263 43.5843C27.6935 37.2931 27.6794 36.0788 27.8257 34.7082C28.0117 32.9595 27.9146 32.4317 27.3343 32.0234C26.7575 31.619 25.7513 31.8462 25.295 32.4842Z" fill="#FFD602"/>
<path d="M30.2401 31.6026C30.1008 31.7983 30.1102 32.2906 30.2717 33.3763C30.5302 35.1106 30.6004 37.5262 30.453 39.5768C30.3968 40.3645 30.3653 41.743 30.384 42.641C30.4027 43.5377 30.4015 44.5486 30.3816 44.8886C30.3056 46.1581 30.4495 46.4062 31.382 46.6268C33.0562 47.022 34.3701 46.2645 34.1197 45.0475C34.0238 44.5788 33.8857 44.4344 33.2727 44.1639C32.2173 43.6965 32.0091 43.4917 32.3039 43.2134C32.4326 43.0926 32.9228 42.8353 33.3932 42.6423C35.1751 41.9084 35.7905 40.6586 35.0908 39.1909C34.7223 38.4189 34.4766 38.2863 33.3054 38.2312C32.7743 38.2075 32.2969 38.1104 32.2478 38.0185C32.201 37.9292 32.3273 37.6903 32.5215 37.5039C33.3826 36.6781 33.5769 35.6436 33.2071 33.8476C32.9392 32.5466 32.5215 31.5672 32.0875 31.2232C31.7423 30.9488 30.5279 31.1996 30.2401 31.6026Z" fill="#FFD602"/>
<path d="M21.7859 0.646532C21.7672 0.784378 22.0948 2.63151 22.5125 4.74383C23.2015 8.22674 23.2998 8.60089 23.5607 8.70723C23.7456 8.78206 23.8848 8.75187 23.9526 8.6219C24.0111 8.51162 23.7081 6.6041 23.2788 4.37231L22.4996 0.322266L22.1591 0.357712C21.9626 0.378717 21.8046 0.500809 21.7859 0.646532Z" fill="white"/>
<path d="M9.87767 7.41237C9.81449 7.91517 13.9457 15.1921 14.5763 15.6883C14.9238 15.9627 15.2596 15.9076 15.3029 15.5689C15.3204 15.4323 14.8641 14.5462 14.2979 13.6167C13.7304 12.6886 12.8295 11.0909 12.3124 10.0971C10.9763 7.52789 10.5902 6.96732 10.2193 7.06447C10.0426 7.11042 9.89639 7.26008 9.87767 7.41237Z" fill="white"/>
<path d="M37.3883 3.79504C36.7179 5.14862 34.7347 10.1205 34.5616 10.878C34.4141 11.524 34.5943 12.0977 34.9383 12.0806C35.1126 12.0714 35.3115 11.7078 35.5444 10.9712C35.9773 9.6019 36.8864 7.32668 37.9628 4.9123C38.7946 3.04933 38.8625 2.55438 38.2787 2.60952C38.054 2.63184 37.7931 2.97843 37.3883 3.79504Z" fill="white"/>
<path d="M48.2782 9.5204C45.7077 12.5883 44.5986 14.711 45.4936 14.8502C45.689 14.8804 45.9242 14.6178 46.336 13.9089C47.0708 12.6448 47.7049 11.7678 49.1522 10.0114C50.0683 8.90078 50.28 8.54634 50.1864 8.28116C49.9817 7.6983 49.5944 7.94903 48.2782 9.5204Z" fill="white"/>
<path d="M24.6375 72.3118C25.6718 72.8855 26.8289 73.1139 29.0869 73.1874C30.6746 73.2386 31.3216 73.1769 32.6051 72.8513L34.1775 72.4535L33.8698 73.7309C32.9643 77.4882 30.7975 79.4259 28.3697 78.6488C27.8889 78.4952 27.2781 78.188 27.0184 77.97C26.3012 77.3661 24.8949 75.2748 24.3941 74.0683C23.9402 72.9708 23.6687 71.9652 23.8162 71.9271C23.8641 71.9153 24.2362 72.0886 24.6375 72.3118ZM24.5778 69.4669C25.2552 69.7938 28.0222 70.2677 29.7398 70.3517C30.9063 70.4095 31.5767 70.3346 32.8707 70.0064C34.4139 69.6152 34.532 69.6087 34.7672 69.9067C35.1287 70.3622 34.9333 70.7154 34.0687 71.1696C32.7829 71.8444 31.3672 72.0938 29.1138 72.0426C26.768 71.9888 25.4307 71.6685 24.2982 70.886C23.5412 70.3622 23.1937 69.862 23.2569 69.3815C23.2979 69.0691 23.8232 69.1019 24.5778 69.4669ZM25.8519 66.6364C26.7844 66.7349 28.1545 66.92 28.9068 67.0513C29.8509 67.2154 30.7986 67.2285 31.9932 67.0933C33.1714 66.9594 33.8511 66.9659 34.1459 67.1143C34.6467 67.3637 35.0305 67.7418 34.9427 67.8994C34.9053 67.9663 34.3975 68.2617 33.809 68.5571C32.859 69.0363 32.5922 69.1032 31.3251 69.1833C27.9661 69.396 23.6219 68.4258 23.4137 67.4149C23.3552 67.1313 23.6758 66.5839 23.9402 66.5156C24.0619 66.4841 24.9195 66.538 25.8519 66.6364ZM26.5434 64.2103C27.1448 64.1985 27.9368 64.2208 28.3323 64.2589C28.7219 64.2957 29.5935 64.2996 30.2674 64.2681C32.4577 64.1657 33.7727 64.2733 34.2314 64.5963C34.4841 64.7735 34.6561 65.0033 34.6221 65.1188C34.4256 65.7778 31.4164 66.2491 29.3748 65.9432C28.6751 65.8369 27.4162 65.6728 26.5937 65.5796C24.8036 65.3748 24.3614 65.2566 24.3017 64.9639C24.2409 64.6724 24.7662 64.2169 25.1546 64.2234C25.3266 64.2261 25.942 64.2208 26.5434 64.2103ZM31.7019 31.328C32.0365 31.4672 32.3933 32.0474 32.749 33.0321C33.3855 34.7926 33.1831 36.4795 32.2225 37.3946C31.6141 37.9748 31.9908 38.7468 32.7841 38.5407C32.9959 38.4855 33.4931 38.5315 33.9026 38.6444C34.821 38.8964 35.2282 39.6264 35.0234 40.6504C34.8655 41.4459 34.387 41.8976 33.1093 42.4516C31.9019 42.9767 31.8504 43.0253 31.9534 43.5281C32.0131 43.8156 32.2939 44.0506 32.9818 44.3893C33.4978 44.644 33.9482 44.9499 33.9704 45.0628C33.9939 45.1744 33.9096 45.4684 33.7868 45.7087C33.6124 46.0487 33.3983 46.1905 32.8555 46.331C32.0622 46.5371 30.7109 46.2312 30.6746 45.8373C30.6138 45.1822 30.6652 40.7383 30.7483 39.5712C30.8864 37.6099 30.7588 34.7125 30.4734 33.3261C30.2359 32.1722 30.2417 32.0881 30.5693 31.7612C30.9542 31.3779 31.407 31.2046 31.7019 31.328ZM27.0874 32.2772C27.6338 32.6605 27.745 33.1305 27.5812 34.3698C27.3788 35.9137 27.415 38.2663 27.7473 45.1035L27.8046 46.2863L27.1413 46.373C26.4942 46.457 25.7969 46.2246 25.4108 45.7953C25.0868 45.4369 25.2026 44.6886 25.6647 44.1569C26.3702 43.3469 26.2942 43.083 25.1546 42.3518C24.1753 41.7243 24.1543 41.6967 23.9741 40.8237C23.5096 38.5656 24.0221 37.2108 25.5665 36.6095C26.2392 36.3482 26.3632 36.2393 26.3398 35.9321C26.3199 35.6892 26.1397 35.4857 25.7969 35.3242C25.1698 35.0289 25.0341 34.5786 25.2623 33.548C25.5512 32.2417 26.2965 31.7219 27.0874 32.2772ZM30.0943 18.7774C31.5381 18.675 32.2038 18.7354 33.8769 19.1227C36.8802 19.8159 40.0169 21.3374 40.9342 22.5465C41.1471 22.8275 41.6292 23.6335 42.0118 24.3503C42.6014 25.4544 42.7617 25.9257 43.0928 27.5405C43.5175 29.599 43.5819 31.0234 43.3654 33.527C43.1829 35.6393 42.1873 40.527 41.6619 41.8989C41.1928 43.1211 39.5115 46.8285 38.0584 49.8428C36.445 53.1931 34.0254 59.4763 33.5539 61.544C33.3819 62.3002 33.1784 62.9736 33.1058 63.0314C32.9725 63.1351 30.7787 63.1194 30.6266 63.013C30.5365 62.95 30.6138 59.5104 30.7694 56.6773C30.8852 54.5821 30.8934 49.8848 30.7846 48.673C30.6699 47.4009 30.7132 47.3432 31.6188 47.5374C32.7677 47.7843 34.0968 47.3156 34.5753 46.4977C35.0784 45.6352 35.1042 44.8869 34.6514 44.2528C34.4537 43.9744 34.1834 43.7224 34.0617 43.7027C33.7236 43.6476 33.7224 43.3298 34.0605 43.2432C34.5578 43.1132 35.3276 42.4122 35.7266 41.7216C36.6181 40.1817 35.8366 37.8934 34.2887 37.5101L33.6686 37.3578L33.8991 36.7775C34.2161 35.978 34.222 35.0105 33.9201 33.5441C33.582 31.8965 33.0333 30.8265 32.3184 30.4169C31.8107 30.1255 31.6703 30.1241 30.8454 30.4012C30.2242 30.6099 29.8287 30.8475 29.6006 31.1482C29.2858 31.5656 29.28 31.6917 29.5093 33.2986C29.7959 35.319 29.8463 36.9075 29.7129 39.7708C29.6017 42.1299 29.6251 45.1731 29.7889 49.9032C29.8498 51.6571 29.8685 53.9493 29.831 55.0114C29.7948 56.0669 29.7269 58.3184 29.6813 59.9962C29.6368 61.6726 29.5807 63.0905 29.5561 63.1338C29.3712 63.4804 29.2776 62.6507 29.1829 59.8294C29.1244 58.0571 29.005 55.7268 28.9196 54.674C28.8342 53.6211 28.7944 52.2597 28.8319 51.6597C28.9056 50.4834 28.764 44.1635 28.585 40.6701C28.4341 37.7241 28.447 35.7824 28.6248 34.4473C28.8424 32.8115 28.6622 32.1354 27.8351 31.4934C26.9236 30.7832 26.1526 30.7399 25.35 31.349C25.0025 31.6142 24.6457 32.0684 24.5053 32.4255C24.1484 33.3327 24.0373 34.639 24.2631 35.2652C24.4339 35.7404 24.4117 35.8415 24.0724 36.1159C23.5295 36.5544 22.831 38.03 22.7901 38.8216C22.7398 39.8246 22.9024 41.1532 23.1563 41.7991C23.2791 42.1129 23.6863 42.6511 24.0665 43.003C24.4912 43.3968 24.6925 43.683 24.5919 43.7526C24.352 43.9167 24.104 45.2151 24.2128 45.7415C24.4316 46.8036 25.811 47.6464 27.167 47.5453C27.7298 47.5033 27.821 47.5493 27.821 47.8696C27.821 48.0783 27.828 48.7794 27.8374 49.4542C27.8468 50.1185 27.8374 51.2239 27.8163 51.9065C27.7953 52.5839 27.8526 53.9099 27.9415 54.8236C28.0971 56.4148 28.4177 62.9264 28.3463 63.0498C28.3276 63.0826 27.9743 63.0852 27.5507 63.055C27.1272 63.0248 26.6393 63.0393 26.4521 63.0878C26.2614 63.1377 26.066 63.1207 26.0029 63.0485C25.9408 62.9776 25.8952 62.2778 25.8999 61.4783C25.9163 58.7214 25.0236 55.6835 23.4383 53.1091C21.3662 49.7417 19.3878 45.4002 18.4541 42.1667C16.6301 35.8533 16.2077 33.3196 16.4862 30.3723C16.9004 25.9993 20.2945 21.5882 24.5907 19.8421C25.8297 19.3367 27.9439 18.9284 30.0943 18.7774ZM23.1692 19.2487C20.7075 20.4381 18.7373 22.4205 17.1402 25.31C15.2916 28.6564 15.0155 30.858 15.8451 35.6406C16.5026 39.4268 17.9358 44.4746 19.0368 46.8745C20.3308 49.6984 21.6681 52.2899 22.5268 53.6408C24.1461 56.189 24.9101 58.5455 24.9651 61.1659C25.0025 62.9251 24.9604 63.0668 24.3111 63.3583C23.5892 63.6839 23.1165 64.4663 23.2499 65.1148C23.3283 65.4943 23.2639 65.6925 22.9761 65.9669C22.5491 66.3738 22.3864 67.1786 22.5959 67.835C22.7047 68.1724 22.6684 68.4114 22.4648 68.7028C22.1852 69.1019 22.1875 69.1216 22.8123 71.8234C23.3727 74.2455 23.5143 74.6722 24.1157 75.754C25.5571 78.3481 27.1319 79.7542 28.7874 79.9261C29.9246 80.043 31.6118 79.4877 32.4659 78.7144C33.527 77.7521 34.4115 75.9509 34.8971 73.7598C35.1299 72.7095 35.4715 71.5936 35.6552 71.2904C36.0589 70.6208 36.0905 69.9106 35.7406 69.3933C35.5101 69.0533 35.5172 68.9627 35.7968 68.5978C36.1747 68.1081 36.0589 67.3493 35.5125 66.7283L35.1393 66.3043L35.475 65.7529C35.9629 64.9468 35.7734 64.2707 34.8959 63.6931L34.2161 63.2454L34.5648 61.8551C34.7543 61.0937 35.0632 60.0303 35.2446 59.5091C36.0671 57.1434 38.0783 52.2649 39.1453 50.0476C40.6979 46.8167 42.3616 43.0949 42.757 41.9619C43.2718 40.4915 44.2488 35.2927 44.4055 33.187C44.6044 30.5324 44.4863 28.9781 43.9106 26.6688C43.2601 24.0615 42.1533 21.9951 40.7915 20.8477C39.2295 19.531 33.8769 17.6221 31.6422 17.584C28.9571 17.5381 25.1675 18.2825 23.1692 19.2487Z" fill="white"/>
<path d="M0.00680445 25.579C-0.0493549 26.0963 0.230272 26.2499 1.28911 26.284C2.76797 26.3326 4.52061 26.8131 5.41916 27.4171C6.2089 27.9475 6.66637 27.9094 6.62191 27.3186C6.58681 26.8512 5.20037 25.9755 3.84787 25.5698C2.95751 25.302 0.794205 25.1142 0.241972 25.2573C0.133163 25.2862 0.0231841 25.4359 0.00680445 25.579Z" fill="white"/>
<path d="M53.6016 22.9004C53.0471 23.1157 52.0432 23.4412 51.3552 23.6315C50.0086 24.0016 49.5265 24.3665 49.7898 24.8141C49.908 25.0162 50.1665 24.9939 51.3705 24.6828C53.4694 24.1394 55.9358 23.1852 56.1265 22.844C56.2552 22.613 56.2376 22.5198 56.0341 22.3465C55.779 22.13 55.3356 22.231 53.6016 22.9004Z" fill="white"/>
<path d="M3.52765 42.8666C3.46798 43.3496 4.04595 43.4967 5.0147 43.2446C6.17766 42.9441 7.6378 42.8377 8.94584 42.9598C9.75079 43.0346 10.0491 43.0044 10.1427 42.8364C10.6856 41.8612 7.67407 41.5147 4.90004 42.234C3.79909 42.5188 3.5569 42.6304 3.52765 42.8666Z" fill="white"/>
<path d="M48.908 43.8072C48.8425 44.3663 49.6334 44.5251 52.8824 44.6065C53.6137 44.6236 54.6713 44.6945 55.2505 44.764C56.3444 44.894 56.6954 44.7509 56.4965 44.2535C56.3093 43.7823 55.495 43.6248 52.6414 43.5093C49.2578 43.3714 48.9571 43.3951 48.908 43.8072Z" fill="white"/>
<path d="M47.0084 55.7336C46.7475 56.31 47.1312 56.4163 49.0886 56.3086C50.1592 56.2496 51.755 56.2115 52.6442 56.2259C54.1488 56.2483 54.2705 56.2273 54.4366 55.9174C54.6004 55.6129 54.5806 55.5643 54.2132 55.3556C53.7873 55.1153 52.1283 55.072 49.3776 55.2322C47.3149 55.3516 47.1663 55.3831 47.0084 55.7336Z" fill="white"/>
<path d="M6.53995 65.9316C6.51772 66.5789 6.90615 66.4948 8.64473 65.4813C9.59592 64.926 11.0327 64.1462 11.8458 63.7419C13.2217 63.0579 13.3235 62.983 13.3597 62.6233C13.396 62.2702 13.3597 62.2347 12.9479 62.2177C12.4717 62.198 10.9484 62.9345 8.50785 64.3681C6.67683 65.442 6.55399 65.5404 6.53995 65.9316Z" fill="white"/>
<path d="M131.461 76.3525C130.613 76.3525 129.853 76.153 129.179 75.7539C128.505 75.3531 127.98 74.8271 127.601 74.1741C127.223 73.5193 127.034 72.8174 127.034 72.0683C127.034 71.5876 127.144 71.2412 127.365 71.0272C127.585 70.8095 127.871 70.7025 128.222 70.7025C129.048 70.7025 129.476 71.087 129.51 71.8597C129.543 72.5072 129.751 73.006 130.136 73.3561C130.522 73.7061 130.963 73.8803 131.461 73.8803C131.891 73.8803 132.276 73.7714 132.612 73.5556C132.952 73.3379 133.121 73.0205 133.121 72.6034C133.121 72.2732 133.015 71.9975 132.798 71.7744C132.586 71.5513 132.334 71.3827 132.045 71.2648C131.757 71.1432 131.36 70.9999 130.852 70.8313C130.196 70.6299 129.611 70.4086 129.1 70.1674C128.592 69.9262 128.115 69.5344 127.668 68.9957C127.223 68.457 127 67.7623 127 66.9098C127 66.139 127.189 65.4406 127.567 64.8185C127.946 64.1964 128.456 63.7103 129.1 63.3638C129.746 63.0138 130.454 62.8378 131.225 62.8378C132.025 62.8378 132.751 63.0265 133.403 63.4001C134.056 63.7756 134.567 64.2744 134.94 64.8965C135.313 65.5168 135.499 66.1698 135.499 66.8536C135.499 67.6934 135.092 68.1124 134.277 68.1124C133.926 68.1124 133.663 68.0181 133.487 67.8294C133.312 67.6372 133.175 67.3252 133.071 66.8917C132.969 66.46 132.763 66.0864 132.451 65.7708C132.142 65.4515 131.733 65.2919 131.225 65.2919C130.726 65.2919 130.306 65.4425 129.966 65.7435C129.628 66.041 129.46 66.4437 129.46 66.9515C129.46 67.3052 129.588 67.5646 129.842 67.7315C130.095 67.8965 130.584 68.0997 131.308 68.3409C131.377 68.3663 131.455 68.3935 131.544 68.4243C131.634 68.4552 131.731 68.4915 131.833 68.5314C132.455 68.7454 133.024 68.9921 133.545 69.2696C134.065 69.5489 134.536 69.9625 134.953 70.512C135.371 71.0562 135.582 71.7345 135.582 72.5471C135.582 73.2817 135.399 73.9383 135.03 74.5169C134.664 75.0937 134.166 75.5435 133.535 75.87C132.91 76.1911 132.218 76.3525 131.461 76.3525ZM147.372 70.2037C147.779 70.2037 148.098 70.3252 148.329 70.5664C148.562 70.8095 148.678 71.1324 148.678 71.5386C148.678 72.4655 148.448 73.2999 147.989 74.0435C147.534 74.7835 146.905 75.3621 146.101 75.7811C145.298 76.2001 144.398 76.4087 143.4 76.4087C142.227 76.4087 141.191 76.1457 140.29 75.6179C139.39 75.0919 138.692 74.3446 138.195 73.3742C137.698 72.4038 137.449 71.2847 137.449 70.0132C137.449 68.6692 137.685 67.4431 138.153 66.333C138.622 65.2212 139.265 64.3451 140.079 63.703C140.893 63.0609 141.792 62.7417 142.775 62.7417C144.076 62.7417 145.077 63.0845 145.778 63.7719V63.6758C145.778 63.4328 145.886 63.2242 146.101 63.0482C146.316 62.8705 146.588 62.7834 146.913 62.7834C147.299 62.7834 147.6 62.8886 147.812 63.099C148.027 63.3058 148.135 63.6069 148.135 64.0005L148.119 65.827C148.096 66.9425 147.689 67.4993 146.897 67.4993C146.717 67.4993 146.539 67.463 146.362 67.3887C146.189 67.3107 146.056 67.2018 145.964 67.0622C145.67 66.6196 145.431 66.2841 145.248 66.0537C145.068 65.8252 144.831 65.6293 144.535 65.4642C144.242 65.2992 143.882 65.2175 143.455 65.2175C142.878 65.2175 142.314 65.4334 141.764 65.8633C141.218 66.2949 140.772 66.8754 140.428 67.6063C140.082 68.3373 139.909 69.1335 139.909 69.9951C139.909 70.7569 140.064 71.4371 140.373 72.0356C140.685 72.6306 141.11 73.0967 141.645 73.4341C142.183 73.7696 142.768 73.9365 143.4 73.9365C143.89 73.9365 144.343 73.8349 144.76 73.6336C145.178 73.4304 145.516 73.1402 145.77 72.7648C146.024 72.3911 146.151 71.9685 146.151 71.5006C146.151 71.1197 146.258 70.8095 146.473 70.5664C146.69 70.3252 146.989 70.2037 147.372 70.2037ZM155.954 76.2183C154.767 76.2183 153.726 75.9553 152.832 75.4274C151.94 74.9014 151.251 74.1523 150.765 73.1838C150.278 72.2134 150.036 71.0689 150.036 69.7484C150.036 68.4171 150.285 67.2272 150.781 66.1807C151.279 65.1323 151.971 64.3143 152.856 63.7266C153.745 63.1353 154.761 62.8378 155.905 62.8378C157.08 62.8378 158.141 63.1462 159.085 63.7629C160.03 64.3759 160.769 65.2157 161.306 66.2822C161.844 67.3488 162.112 68.5277 162.112 69.8228C162.112 71.107 161.849 72.2297 161.322 73.1928C160.796 74.156 160.071 74.9014 159.143 75.4274C158.215 75.9553 157.153 76.2183 155.954 76.2183ZM156.057 73.746C156.737 73.746 157.347 73.5937 157.888 73.2908C158.432 72.9842 158.861 72.5272 159.177 71.9195C159.494 71.3083 159.652 70.5737 159.652 69.7121C159.652 68.8597 159.502 68.1015 159.201 67.434C158.904 66.7683 158.477 66.2478 157.921 65.8723C157.37 65.4987 156.731 65.31 156.008 65.31C155.281 65.31 154.657 65.4987 154.132 65.8723C153.606 66.2478 153.202 66.7629 152.918 67.4159C152.637 68.0707 152.496 68.8143 152.496 69.6523C152.496 70.9709 152.826 71.9848 153.485 72.6904C154.148 73.3942 155.006 73.746 156.057 73.746ZM167.694 76.3906C166.585 76.3906 165.773 76.2564 165.259 75.9897C164.745 75.7231 164.403 75.2805 164.233 74.662C164.063 74.0381 163.979 73.0804 163.979 71.7853C163.979 70.3252 164.039 68.9866 164.157 67.7696C164.277 66.5525 164.438 65.2683 164.642 63.9207C164.685 63.6178 164.824 63.3747 165.056 63.1915C165.288 63.0065 165.584 62.9122 165.946 62.9122C166.331 62.9122 166.622 63.0174 166.821 63.2296C167.02 63.4364 167.118 63.7175 167.118 64.0748C167.118 64.1528 167.107 64.2671 167.081 64.4195C166.843 65.9793 166.664 67.3089 166.54 68.4062C166.415 69.5036 166.352 70.6535 166.352 71.8597C166.352 72.4818 166.378 72.9407 166.426 73.2346C166.48 73.5266 166.582 73.7279 166.733 73.844C166.889 73.9546 167.128 74.0109 167.454 74.0109C168.156 74.0109 169.367 73.8349 171.087 73.4812C171.142 73.4685 171.221 73.4631 171.323 73.4631C171.618 73.4631 171.853 73.5864 172.027 73.8349C172.204 74.078 172.292 74.3664 172.292 74.6983C172.292 75.3712 171.856 75.7956 170.983 75.9716C170.204 76.1366 169.614 76.2473 169.21 76.3071C168.811 76.3616 168.305 76.3906 167.694 76.3906ZM183.352 74.2793L183.554 75.0193C183.588 75.1463 183.604 75.2678 183.604 75.3821C183.604 75.7503 183.465 76.0369 183.186 76.2418C182.911 76.4432 182.586 76.5429 182.212 76.5429C181.92 76.5429 181.666 76.474 181.451 76.3343C181.236 76.1947 181.094 75.9988 181.028 75.7449L180.449 73.2908L176.99 73.2708L176.393 75.6886C176.327 75.9788 176.19 76.1911 175.979 76.3253C175.769 76.4577 175.519 76.5248 175.226 76.5248C174.853 76.5248 174.525 76.4214 174.24 76.2128C173.959 76.0024 173.818 75.7249 173.818 75.3821C173.818 75.2551 173.834 75.1282 173.867 75.0012L175.818 68.4153L176.767 65.1613C177.029 64.2979 177.311 63.6867 177.615 63.3257C177.922 62.9648 178.335 62.7834 178.854 62.7834C179.351 62.7834 179.743 62.9448 180.03 63.2713C180.32 63.5924 180.583 64.1655 180.821 64.9908C181.445 67.1964 181.989 69.1553 182.453 70.8694H182.909C183.464 70.8694 183.742 71.2684 183.742 72.0683C183.742 72.8827 183.531 73.2908 183.111 73.2908H183.095L183.352 74.2793ZM179.873 70.8313L179.654 69.9389L179.227 68.2611L179.057 67.5973C178.991 67.3179 178.934 67.1148 178.887 66.9878C178.844 66.8608 178.799 66.7974 178.755 66.7974C178.697 66.7974 178.651 66.8554 178.618 66.9697C178.585 67.0839 178.533 67.2871 178.466 67.5791L178.328 68.1323L177.633 70.8131L179.873 70.8313ZM190.102 76.3525C189.254 76.3525 188.494 76.153 187.82 75.7539C187.146 75.3531 186.62 74.8271 186.242 74.1741C185.864 73.5193 185.675 72.8174 185.675 72.0683C185.675 71.5876 185.785 71.2412 186.006 71.0272C186.226 70.8095 186.512 70.7025 186.863 70.7025C187.689 70.7025 188.117 71.087 188.151 71.8597C188.184 72.5072 188.392 73.006 188.777 73.3561C189.163 73.7061 189.604 73.8803 190.102 73.8803C190.532 73.8803 190.915 73.7714 191.253 73.5556C191.593 73.3379 191.762 73.0205 191.762 72.6034C191.762 72.2732 191.654 71.9975 191.439 71.7744C191.227 71.5513 190.975 71.3827 190.686 71.2648C190.398 71.1432 190 70.9999 189.493 70.8313C188.835 70.6299 188.251 70.4086 187.741 70.1674C187.233 69.9262 186.755 69.5344 186.308 68.9957C185.864 68.457 185.641 67.7623 185.641 66.9098C185.641 66.139 185.83 65.4406 186.208 64.8185C186.587 64.1964 187.097 63.7103 187.741 63.3638C188.387 63.0138 189.095 62.8378 189.865 62.8378C190.666 62.8378 191.392 63.0265 192.044 63.4001C192.695 63.7756 193.207 64.2744 193.581 64.8965C193.953 65.5168 194.14 66.1698 194.14 66.8536C194.14 67.6934 193.733 68.1124 192.918 68.1124C192.567 68.1124 192.304 68.0181 192.126 67.8294C191.953 67.6372 191.814 67.3252 191.712 66.8917C191.61 66.46 191.403 66.0864 191.092 65.7708C190.783 65.4515 190.374 65.2919 189.865 65.2919C189.365 65.2919 188.946 65.4425 188.607 65.7435C188.269 66.041 188.101 66.4437 188.101 66.9515C188.101 67.3052 188.229 67.5646 188.483 67.7315C188.736 67.8965 189.225 68.0997 189.949 68.3409C190.017 68.3663 190.096 68.3935 190.185 68.4243C190.275 68.4552 190.372 68.4915 190.474 68.5314C191.095 68.7454 191.665 68.9921 192.184 69.2696C192.706 69.5489 193.177 69.9625 193.592 70.512C194.012 71.0562 194.223 71.7345 194.223 72.5471C194.223 73.2817 194.038 73.9383 193.671 74.5169C193.304 75.0937 192.807 75.5435 192.176 75.87C191.549 76.1911 190.859 76.3525 190.102 76.3525ZM203.674 63.1643C204.013 63.2006 204.278 63.313 204.469 63.4981C204.661 63.6812 204.758 63.9878 204.758 64.4195C204.758 64.862 204.649 65.1849 204.427 65.3899C204.206 65.5912 203.892 65.6801 203.486 65.6547C202.672 65.593 202.004 65.5622 201.482 65.5622C201.395 66.9969 201.332 68.4298 201.296 69.8609C201.262 71.2829 201.246 73.0858 201.246 75.2696C201.246 75.7376 201.163 76.0641 200.997 76.2509C200.835 76.4341 200.522 76.5248 200.058 76.5248C199.571 76.5248 199.221 76.4305 199.006 76.2418C198.791 76.0496 198.682 75.7322 198.682 75.2878C198.682 73.4359 198.723 71.6257 198.802 69.8609L199.006 65.5803C198.509 65.6057 198.107 65.6293 197.8 65.6547L197.055 65.7109C197.011 65.7254 196.943 65.7345 196.852 65.7345C196.523 65.7345 196.258 65.613 196.052 65.3717C195.85 65.1305 195.75 64.8112 195.75 64.4195C195.75 64.0495 195.837 63.7774 196.012 63.6014C196.188 63.4219 196.435 63.3058 196.752 63.2568C197.158 63.1952 197.729 63.1444 198.462 63.1081C199.198 63.0682 199.877 63.0482 200.501 63.0482C201.008 63.0482 201.587 63.0573 202.237 63.0754C202.888 63.0936 203.367 63.1244 203.674 63.1643ZM212.154 73.8023C212.876 73.8132 213.238 74.2267 213.238 75.0375C213.238 75.8773 212.871 76.2963 212.137 76.2963L207.047 76.2183C206.674 76.2056 206.41 76.0804 206.255 75.841C206.103 75.5998 206.027 75.3132 206.027 74.9812C206.027 74.5641 206.128 74.2503 206.326 74.0435C206.525 73.8331 206.764 73.7279 207.047 73.7279L208.455 73.746C208.601 70.9419 208.68 68.1305 208.691 65.31C208.205 65.3518 207.797 65.3899 207.469 65.4279L206.91 65.4642C206.595 65.4642 206.355 65.3572 206.189 65.1432C206.027 64.9273 205.945 64.6208 205.945 64.2272C205.945 63.8227 206.027 63.5253 206.189 63.3366C206.355 63.1444 206.595 63.0228 206.91 62.9739C207.159 62.9321 207.599 62.8941 208.231 62.8578C208.866 62.8197 209.501 62.8016 210.136 62.8016C210.747 62.8016 211.459 62.8378 212.273 62.9122C212.588 62.9412 212.828 63.0664 212.989 63.2895C213.156 63.5089 213.238 63.7973 213.238 64.1528C213.238 64.9527 212.883 65.3536 212.17 65.3536C212.002 65.3536 211.662 65.3318 211.151 65.2919C211.129 68.7436 211.045 71.5731 210.899 73.7823L212.154 73.8023ZM224.689 70.2037C225.095 70.2037 225.415 70.3252 225.646 70.5664C225.877 70.8095 225.993 71.1324 225.993 71.5386C225.993 72.4655 225.764 73.2999 225.306 74.0435C224.851 74.7835 224.222 75.3621 223.419 75.7811C222.614 76.2001 221.715 76.4087 220.717 76.4087C219.544 76.4087 218.508 76.1457 217.607 75.6179C216.707 75.0919 216.009 74.3446 215.511 73.3742C215.015 72.4038 214.766 71.2847 214.766 70.0132C214.766 68.6692 215 67.4431 215.471 66.333C215.939 65.2212 216.581 64.3451 217.396 63.703C218.21 63.0609 219.109 62.7417 220.092 62.7417C221.393 62.7417 222.394 63.0845 223.095 63.7719V63.6758C223.095 63.4328 223.202 63.2242 223.419 63.0482C223.634 62.8705 223.903 62.7834 224.23 62.7834C224.616 62.7834 224.915 62.8886 225.129 63.099C225.344 63.3058 225.452 63.6069 225.452 64.0005L225.434 65.827C225.413 66.9425 225.006 67.4993 224.212 67.4993C224.033 67.4993 223.855 67.463 223.679 67.3887C223.504 67.3107 223.372 67.2018 223.281 67.0622C222.985 66.6196 222.746 66.2841 222.565 66.0537C222.386 65.8252 222.148 65.6293 221.852 65.4642C221.56 65.2992 221.199 65.2175 220.771 65.2175C220.194 65.2175 219.631 65.4334 219.082 65.8633C218.535 66.2949 218.089 66.8754 217.743 67.6063C217.399 68.3373 217.226 69.1335 217.226 69.9951C217.226 70.7569 217.381 71.4371 217.69 72.0356C218.002 72.6306 218.425 73.0967 218.962 73.4341C219.5 73.7696 220.085 73.9365 220.717 73.9365C221.206 73.9365 221.658 73.8349 222.075 73.6336C222.496 73.4304 222.832 73.1402 223.087 72.7648C223.341 72.3911 223.467 71.9685 223.467 71.5006C223.467 71.1197 223.575 70.8095 223.79 70.5664C224.005 70.3252 224.306 70.2037 224.689 70.2037ZM233.271 76.2183C232.084 76.2183 231.043 75.9553 230.148 75.4274C229.255 74.9014 228.567 74.1523 228.082 73.1838C227.595 72.2134 227.353 71.0689 227.353 69.7484C227.353 68.4171 227.6 67.2272 228.098 66.1807C228.594 65.1323 229.286 64.3143 230.174 63.7266C231.063 63.1353 232.078 62.8378 233.221 62.8378C234.397 62.8378 235.458 63.1462 236.402 63.7629C237.346 64.3759 238.086 65.2157 238.621 66.2822C239.159 67.3488 239.429 68.5277 239.429 69.8228C239.429 71.107 239.166 72.2297 238.639 73.1928C238.113 74.156 237.388 74.9014 236.46 75.4274C235.532 75.9553 234.468 76.2183 233.271 76.2183ZM233.374 73.746C234.053 73.746 234.664 73.5937 235.206 73.2908C235.749 72.9842 236.179 72.5272 236.492 71.9195C236.811 71.3083 236.969 70.5737 236.969 69.7121C236.969 68.8597 236.819 68.1015 236.518 67.434C236.219 66.7683 235.792 66.2478 235.238 65.8723C234.685 65.4987 234.048 65.31 233.324 65.31C232.598 65.31 231.973 65.4987 231.449 65.8723C230.924 66.2478 230.519 66.7629 230.235 67.4159C229.954 68.0707 229.813 68.8143 229.813 69.6523C229.813 70.9709 230.143 71.9848 230.802 72.6904C231.465 73.3942 232.322 73.746 233.374 73.746Z" fill="white"/>
<path d="M132.632 26.647C133.549 26.647 134.388 26.8338 135.151 27.2093C135.915 27.5847 136.522 28.1108 136.969 28.7891C137.415 29.4675 137.64 30.2384 137.64 31.1037C137.64 31.9163 137.441 32.6455 137.044 33.293C136.649 33.9369 136.109 34.4412 135.424 34.804C134.739 35.1649 133.979 35.3463 133.142 35.3463C132.758 35.3463 132.383 35.3155 132.015 35.2538C131.648 35.1885 131.346 35.1123 131.108 35.0216L131.076 38.8326C131.076 39.199 130.959 39.4983 130.727 39.7341C130.495 39.9699 130.187 40.0878 129.8 40.0878C129.416 40.0878 129.109 39.9663 128.876 39.725C128.645 39.4838 128.54 39.1591 128.561 38.7528C128.609 37.4341 128.632 35.9558 128.632 34.3197C128.632 32.7706 128.603 31.3939 128.544 30.1876L128.494 30.2257C128.381 30.291 128.279 30.3237 128.189 30.3237C127.998 30.3237 127.841 30.2022 127.717 29.9609C127.592 29.7197 127.529 29.4403 127.529 29.1247C127.529 28.8708 127.597 28.664 127.733 28.5062C127.869 28.3447 128.071 28.1688 128.342 27.9802L128.478 27.8822V27.6373C128.478 27.231 128.58 26.9245 128.78 26.7159C128.986 26.5055 129.314 26.4003 129.766 26.4003C130.219 26.4003 130.533 26.4492 130.707 26.5454C130.883 26.6379 130.972 26.7358 130.972 26.8374V26.8555C131.527 26.7159 132.08 26.647 132.632 26.647ZM132.736 33.1026C133.347 33.1026 133.846 32.8994 134.236 32.4931C134.627 32.085 134.823 31.588 134.823 31.0057C134.823 30.4108 134.611 29.9391 134.186 29.5891C133.764 29.239 133.218 29.063 132.55 29.063C132.188 29.063 131.679 29.1392 131.021 29.2916C131.032 29.5074 131.039 29.7832 131.039 30.1133C131.039 30.6194 131.05 31.2161 131.076 31.9036C131.097 32.2809 131.108 32.5602 131.108 32.7398C131.276 32.8268 131.522 32.9085 131.845 32.9865C132.168 33.0627 132.466 33.1026 132.736 33.1026ZM143.795 39.9336C142.948 39.9336 142.187 39.7341 141.513 39.3351C140.841 38.9342 140.314 38.4082 139.935 37.7552C139.557 37.1004 139.368 36.3984 139.368 35.6493C139.368 35.1686 139.48 34.8221 139.699 34.6081C139.921 34.3904 140.207 34.2834 140.558 34.2834C141.382 34.2834 141.812 34.6679 141.844 35.4407C141.878 36.0882 142.087 36.587 142.47 36.9371C142.856 37.2872 143.299 37.4613 143.795 37.4613C144.227 37.4613 144.61 37.3525 144.946 37.1366C145.287 36.919 145.457 36.6015 145.457 36.1843C145.457 35.8542 145.349 35.5785 145.134 35.3554C144.921 35.1323 144.67 34.9636 144.379 34.8457C144.093 34.7242 143.695 34.5809 143.188 34.4122C142.53 34.2108 141.946 33.9895 141.435 33.7483C140.926 33.5071 140.449 33.1153 140.002 32.5765C139.557 32.0378 139.336 31.3431 139.336 30.4906C139.336 29.7197 139.525 29.0213 139.903 28.3992C140.281 27.777 140.792 27.2909 141.435 26.9444C142.08 26.5943 142.79 26.4184 143.559 26.4184C144.36 26.4184 145.087 26.607 145.738 26.9807C146.39 27.3562 146.902 27.855 147.274 28.4772C147.647 29.0975 147.833 29.7505 147.833 30.4343C147.833 31.2742 147.426 31.6932 146.611 31.6932C146.262 31.6932 145.997 31.5989 145.821 31.4102C145.646 31.2179 145.509 30.9059 145.407 30.4724C145.305 30.0407 145.098 29.6671 144.786 29.3515C144.476 29.0322 144.067 28.8726 143.559 28.8726C143.06 28.8726 142.64 29.0231 142.3 29.3242C141.964 29.6217 141.796 30.0244 141.796 30.5323C141.796 30.886 141.922 31.1454 142.176 31.3123C142.43 31.4773 142.919 31.6805 143.642 31.9217C143.711 31.9471 143.791 31.9743 143.878 32.0052C143.97 32.036 144.067 32.0723 144.169 32.1122C144.79 32.3262 145.36 32.5729 145.879 32.8504C146.401 33.1298 146.87 33.5433 147.287 34.0929C147.707 34.6371 147.917 35.3155 147.917 36.1281C147.917 36.8627 147.733 37.5194 147.366 38.098C146.999 38.6748 146.5 39.1247 145.871 39.4511C145.244 39.7722 144.552 39.9336 143.795 39.9336ZM155.823 37.3833C156.546 37.3942 156.908 37.8078 156.908 38.6186C156.908 39.4584 156.541 39.8774 155.806 39.8774L150.715 39.7994C150.344 39.7867 150.08 39.6616 149.925 39.4221C149.773 39.1809 149.697 38.8943 149.697 38.5623C149.697 38.1452 149.797 37.8314 149.996 37.6246C150.195 37.4142 150.434 37.309 150.715 37.309L152.125 37.3271C152.27 34.5228 152.35 31.7113 152.361 28.8907C151.874 28.9324 151.467 28.9705 151.139 29.0086L150.58 29.0449C150.264 29.0449 150.024 28.9379 149.859 28.7238C149.695 28.508 149.615 28.2014 149.615 27.8078C149.615 27.4033 149.695 27.1059 149.859 26.9172C150.024 26.7249 150.264 26.6034 150.58 26.5544C150.829 26.5127 151.268 26.4746 151.9 26.4384C152.536 26.4003 153.171 26.3821 153.806 26.3821C154.415 26.3821 155.128 26.4184 155.943 26.4928C156.258 26.5218 156.496 26.647 156.659 26.8701C156.826 27.0895 156.908 27.3779 156.908 27.7335C156.908 28.5334 156.551 28.9343 155.84 28.9343C155.671 28.9343 155.332 28.9125 154.821 28.8726C154.799 32.3244 154.715 35.1541 154.567 37.3634L155.823 37.3833ZM168.359 33.7846C168.765 33.7846 169.083 33.9061 169.316 34.1474C169.547 34.3904 169.663 34.7133 169.663 35.1196C169.663 36.0465 169.434 36.8809 168.976 37.6246C168.52 38.3646 167.89 38.9433 167.087 39.3623C166.283 39.7813 165.383 39.9899 164.387 39.9899C163.214 39.9899 162.176 39.7269 161.276 39.199C160.377 38.673 159.677 37.9257 159.181 36.9552C158.684 35.9848 158.436 34.8657 158.436 33.5941C158.436 32.25 158.67 31.0238 159.139 29.9138C159.609 28.8018 160.251 27.9257 161.065 27.2836C161.88 26.6415 162.779 26.3223 163.762 26.3223C165.061 26.3223 166.064 26.6651 166.763 27.3526V27.2564C166.763 27.0134 166.872 26.8048 167.087 26.6288C167.302 26.4511 167.573 26.364 167.898 26.364C168.286 26.364 168.585 26.4692 168.797 26.6796C169.014 26.8864 169.12 27.1875 169.12 27.5811L169.104 29.4077C169.081 30.5232 168.674 31.0801 167.882 31.0801C167.703 31.0801 167.525 31.0438 167.349 30.9694C167.174 30.8914 167.041 30.7826 166.951 30.6429C166.655 30.2003 166.416 29.8648 166.233 29.6344C166.054 29.4059 165.816 29.21 165.522 29.0449C165.229 28.8798 164.869 28.7982 164.441 28.7982C163.864 28.7982 163.301 29.0141 162.751 29.444C162.203 29.8757 161.759 30.4561 161.413 31.1871C161.069 31.9181 160.896 32.7144 160.896 33.576C160.896 34.3378 161.049 35.018 161.36 35.6166C161.672 36.2116 162.095 36.6777 162.63 37.0151C163.168 37.3507 163.755 37.5176 164.387 37.5176C164.875 37.5176 165.328 37.416 165.745 37.2146C166.165 37.0115 166.502 36.7213 166.755 36.3458C167.009 35.9721 167.137 35.5495 167.137 35.0815C167.137 34.7006 167.245 34.3904 167.46 34.1474C167.675 33.9061 167.974 33.7846 168.359 33.7846ZM176.941 39.7994C175.752 39.7994 174.711 39.5364 173.818 39.0086C172.925 38.4825 172.237 37.7334 171.75 36.7648C171.265 35.7944 171.021 34.6498 171.021 33.3293C171.021 31.9979 171.27 30.808 171.768 29.7614C172.264 28.713 172.956 27.8949 173.842 27.3072C174.731 26.7159 175.748 26.4184 176.89 26.4184C178.067 26.4184 179.128 26.7268 180.072 27.3435C181.016 27.9566 181.756 28.7964 182.291 29.863C182.829 30.9295 183.099 32.1086 183.099 33.4037C183.099 34.6879 182.836 35.8107 182.307 36.7739C181.783 37.737 181.058 38.4825 180.13 39.0086C179.202 39.5364 178.138 39.7994 176.941 39.7994ZM177.044 37.3271C177.723 37.3271 178.332 37.1747 178.874 36.8718C179.419 36.5653 179.847 36.1082 180.162 35.5005C180.481 34.8892 180.639 34.1546 180.639 33.293C180.639 32.4405 180.489 31.6823 180.186 31.0148C179.889 30.3491 179.462 29.8285 178.908 29.453C178.355 29.0794 177.718 28.8907 176.994 28.8907C176.268 28.8907 175.643 29.0794 175.117 29.453C174.593 29.8285 174.189 30.3436 173.905 30.9966C173.622 31.6515 173.481 32.3951 173.481 33.2332C173.481 34.5519 173.811 35.5658 174.472 36.2714C175.135 36.9752 175.992 37.3271 177.044 37.3271ZM188.681 39.9717C187.57 39.9717 186.759 39.8375 186.245 39.5709C185.732 39.3042 185.39 38.8616 185.218 38.2431C185.05 37.6191 184.966 36.6614 184.966 35.3663C184.966 33.9061 185.024 32.5675 185.144 31.3503C185.262 30.1332 185.424 28.849 185.629 27.5013C185.673 27.1984 185.81 26.9553 186.043 26.7721C186.274 26.5871 186.571 26.4928 186.933 26.4928C187.316 26.4928 187.607 26.598 187.806 26.8102C188.005 27.017 188.105 27.2981 188.105 27.6555C188.105 27.7335 188.092 27.8477 188.068 28.0001C187.83 29.56 187.649 30.8896 187.525 31.987C187.4 33.0844 187.339 34.2344 187.339 35.4407C187.339 36.0628 187.363 36.5217 187.413 36.8156C187.465 37.1076 187.567 37.309 187.719 37.425C187.874 37.5357 188.115 37.5919 188.44 37.5919C189.141 37.5919 190.352 37.416 192.072 37.0623C192.127 37.0496 192.206 37.0441 192.308 37.0441C192.604 37.0441 192.838 37.1675 193.013 37.416C193.189 37.659 193.278 37.9474 193.278 38.2794C193.278 38.9523 192.841 39.3768 191.969 39.5527C191.191 39.7178 190.599 39.8284 190.197 39.8883C189.796 39.9427 189.29 39.9717 188.681 39.9717ZM200.552 39.7994C199.365 39.7994 198.324 39.5364 197.43 39.0086C196.538 38.4825 195.85 37.7334 195.363 36.7648C194.876 35.7944 194.634 34.6498 194.634 33.3293C194.634 31.9979 194.883 30.808 195.379 29.7614C195.877 28.713 196.569 27.8949 197.455 27.3072C198.344 26.7159 199.359 26.4184 200.503 26.4184C201.678 26.4184 202.739 26.7268 203.683 27.3435C204.628 27.9566 205.367 28.7964 205.904 29.863C206.442 30.9295 206.71 32.1086 206.71 33.4037C206.71 34.6879 206.447 35.8107 205.92 36.7739C205.395 37.737 204.669 38.4825 203.741 39.0086C202.813 39.5364 201.751 39.7994 200.552 39.7994ZM200.655 37.3271C201.336 37.3271 201.945 37.1747 202.487 36.8718C203.03 36.5653 203.46 36.1082 203.775 35.5005C204.092 34.8892 204.25 34.1546 204.25 33.293C204.25 32.4405 204.1 31.6823 203.799 31.0148C203.502 30.3491 203.075 29.8285 202.519 29.453C201.968 29.0794 201.329 28.8907 200.607 28.8907C199.879 28.8907 199.255 29.0794 198.73 29.453C198.205 29.8285 197.801 30.3436 197.516 30.9966C197.235 31.6515 197.094 32.3951 197.094 33.2332C197.094 34.5519 197.424 35.5658 198.084 36.2714C198.746 36.9752 199.605 37.3271 200.655 37.3271ZM220.112 33.7483C220.112 34.1165 220.012 34.4158 219.813 34.6444C219.618 34.8711 219.34 34.9908 218.978 35.0035C218.853 36.5653 218.397 37.7769 217.61 38.6422C216.824 39.5038 215.746 39.9336 214.38 39.9336C213.249 39.9336 212.226 39.6452 211.316 39.0702C210.407 38.4898 209.694 37.6935 209.179 36.6813C208.665 35.6638 208.408 34.5355 208.408 33.293C208.408 32.0596 208.653 30.9459 209.145 29.9518C209.636 28.9542 210.305 28.1688 211.154 27.5992C212.004 27.0297 212.937 26.7449 213.954 26.7449C214.789 26.7449 215.489 26.9263 216.049 27.2891C216.609 27.6482 217.009 28.0563 217.246 28.5152V28.0745C217.246 27.8187 217.338 27.6047 217.524 27.4269C217.712 27.251 217.98 27.1621 218.331 27.1621C218.693 27.1621 218.966 27.2546 219.151 27.436C219.34 27.6192 219.438 27.8514 219.45 28.1343C219.485 29.1882 219.406 29.9228 219.214 30.3418C219.112 30.5432 218.961 30.6955 218.763 30.7971C218.565 30.8987 218.344 30.9513 218.095 30.9513C217.869 30.9513 217.67 30.9023 217.499 30.8062C217.33 30.71 217.111 30.5287 216.841 30.262C216.534 29.9591 216.217 29.7124 215.887 29.5238C215.559 29.3315 215.113 29.2354 214.55 29.2354C213.849 29.2354 213.218 29.4041 212.657 29.7414C212.096 30.077 211.658 30.5522 211.34 31.169C211.025 31.7857 210.868 32.4931 210.868 33.293C210.868 34.0929 211.025 34.8094 211.34 35.4443C211.658 36.0773 212.082 36.5707 212.612 36.9262C213.144 37.2836 213.711 37.4613 214.309 37.4613C214.945 37.4613 215.46 37.2564 215.855 36.8428C216.249 36.4274 216.498 35.8089 216.6 34.9836L214.885 34.9473C214.49 34.9346 214.199 34.8221 214.012 34.6081C213.826 34.3904 213.734 34.1038 213.734 33.7483C213.734 33.3547 213.842 33.0373 214.057 32.796C214.272 32.553 214.566 32.4387 214.94 32.4514L218.808 32.5493C219.236 32.562 219.559 32.6709 219.781 32.874C220.002 33.0754 220.112 33.3674 220.112 33.7483ZM227.388 39.7994C226.2 39.7994 225.159 39.5364 224.265 39.0086C223.373 38.4825 222.684 37.7334 222.197 36.7648C221.713 35.7944 221.47 34.6498 221.47 33.3293C221.47 31.9979 221.717 30.808 222.215 29.7614C222.712 28.713 223.403 27.8949 224.289 27.3072C225.178 26.7159 226.195 26.4184 227.338 26.4184C228.515 26.4184 229.575 26.7268 230.519 27.3435C231.463 27.9566 232.203 28.7964 232.738 29.863C233.277 30.9295 233.547 32.1086 233.547 33.4037C233.547 34.6879 233.283 35.8107 232.754 36.7739C232.231 37.737 231.505 38.4825 230.577 39.0086C229.649 39.5364 228.586 39.7994 227.388 39.7994ZM227.491 37.3271C228.17 37.3271 228.781 37.1747 229.321 36.8718C229.866 36.5653 230.296 36.1082 230.609 35.5005C230.928 34.8892 231.086 34.1546 231.086 33.293C231.086 32.4405 230.936 31.6823 230.635 31.0148C230.336 30.3491 229.91 29.8285 229.355 29.453C228.802 29.0794 228.165 28.8907 227.441 28.8907C226.715 28.8907 226.09 29.0794 225.566 29.453C225.041 29.8285 224.637 30.3436 224.352 30.9966C224.071 31.6515 223.929 32.3951 223.929 33.2332C223.929 34.5519 224.26 35.5658 224.92 36.2714C225.582 36.9752 226.439 37.3271 227.491 37.3271Z" fill="white"/>
<line x1="92.375" y1="13.3223" x2="92.375" y2="79.9988" stroke="white" stroke-width="0.749902"/>
</svg>
