<svg width="14" height="18" viewBox="0 0 14 18" fill="none"
  xmlns="http://www.w3.org/2000/svg">
  <path d="M7.24723 0.00375168C3.2679 -0.119438 0 2.80709 0 6.43469C0 10.5516 4.30091 13.5394 6.71157 17.8362C6.83396 18.0544 7.17584 18.0547 7.29865 17.8365C9.47944 13.9703 13.2067 11.3777 13.8974 7.65299C14.6126 3.79863 11.5011 0.135493 7.24723 0.00375168ZM7.00477 9.80519C4.97838 9.80519 3.33562 8.2961 3.33562 6.43469C3.33562 4.57328 4.97842 3.06419 7.00477 3.06419C9.03115 3.06419 10.674 4.57328 10.674 6.43469C10.674 8.2961 9.03115 9.80519 7.00477 9.80519Z" fill="currentColor"/>
</svg>
