<svg width="14" height="14" viewBox="0 0 14 14" fill="none" xmlns="http://www.w3.org/2000/svg">
  <path fill-rule="evenodd" clip-rule="evenodd"
    d="M5.93627 11.8871C7.25735 11.8871 8.49265 11.4405 9.48775 10.7018L12.1728 13.3902C12.5091 13.7269 13.0547 13.7269 13.3909 13.3902C13.7272 13.0535 13.7264 12.5079 13.3893 12.1721L10.7059 9.49939C11.4436 8.50307 11.8897 7.28344 11.8897 5.94356C11.8897 2.66258 9.23039 0 5.95343 0C2.67647 0 0 2.67975 0 5.94356C0 9.20736 2.67647 11.8871 5.93627 11.8871ZM6.0375 1.75C8.40783 1.75 10.325 3.60849 10.325 5.90625C10.325 8.20401 8.40783 10.0625 6.0375 10.0625C3.66718 10.0625 1.75 8.20401 1.75 5.90625C1.75 3.60849 3.6846 1.75 6.0375 1.75Z"
    fill="currentColor" />
</svg>