<svg width="25" height="32" viewBox="0 0 25 32" fill="none"
  xmlns="http://www.w3.org/2000/svg">
  <path d="M9.67147 2.0647C12.4196 2.0647 14.6555 4.31693 14.6555 7.08569C14.6555 9.85369 12.4196 12.1063 9.67147 12.1063C6.92552 12.1063 4.69109 9.85369 4.69109 7.08569C4.69109 4.31693 6.92552 2.0647 9.67147 2.0647ZM9.67147 13.5822C13.2277 13.5822 16.1205 10.6677 16.1205 7.08569C16.1205 3.5029 13.2277 0.588379 9.67147 0.588379C6.11782 0.588379 3.22656 3.5029 3.22656 7.08569C3.22656 10.6677 6.11782 13.5822 9.67147 13.5822Z" fill="currentColor" />
  <path d="M20.7975 21.9228C20.4142 21.7924 19.9983 21.9994 19.8685 22.3855L18.4963 26.4691L17.1986 25.1468C16.9139 24.8568 16.4502 24.8545 16.1629 25.1412C15.8749 25.4275 15.8727 25.8951 16.157 26.1847L18.2891 28.357C18.2928 28.3607 18.2969 28.3637 18.3006 28.3678C18.3125 28.379 18.3243 28.3902 18.3369 28.4011C18.344 28.407 18.351 28.4126 18.3584 28.4183C18.3695 28.4272 18.3814 28.4362 18.3933 28.4444C18.4025 28.4511 18.4118 28.4571 18.4214 28.4627C18.4314 28.4695 18.4422 28.4758 18.4529 28.4818C18.4648 28.4885 18.4763 28.4945 18.4882 28.5001C18.4974 28.505 18.5071 28.5094 18.5167 28.5136C18.5304 28.5195 18.5441 28.5251 18.5578 28.5304C18.5638 28.5322 18.569 28.5349 18.5745 28.5371C18.5786 28.5382 18.5827 28.539 18.5867 28.5405C18.5964 28.5435 18.606 28.5465 18.6157 28.5491C18.6286 28.5524 18.6412 28.5558 18.6538 28.5584C18.662 28.5603 18.6702 28.5621 18.6787 28.5636C18.695 28.5666 18.7113 28.5689 18.7272 28.5707C18.7324 28.5715 18.7372 28.5722 18.7428 28.5726C18.7647 28.5749 18.7873 28.576 18.8095 28.576C18.8318 28.576 18.8536 28.5749 18.8759 28.573C18.8803 28.5722 18.8844 28.5715 18.8892 28.5711C18.9059 28.5692 18.9226 28.567 18.9393 28.564C18.9459 28.5625 18.953 28.5614 18.96 28.5599C18.9741 28.5569 18.9874 28.5532 19.0015 28.5498C19.0093 28.5476 19.0171 28.5453 19.0249 28.5431C19.0386 28.5386 19.0527 28.5337 19.0664 28.5285C19.0764 28.5248 19.086 28.521 19.0961 28.5169C19.1109 28.5102 19.1257 28.5035 19.1402 28.496C19.1483 28.4919 19.1565 28.4874 19.1643 28.4829C19.1758 28.4766 19.1872 28.4698 19.1984 28.4631C19.2054 28.4582 19.2124 28.4538 19.2199 28.4489C19.2336 28.4396 19.2469 28.4295 19.2599 28.4194C19.264 28.416 19.268 28.4134 19.2718 28.4104C19.2899 28.3955 19.3073 28.3798 19.3237 28.3633C19.324 28.3629 19.3244 28.3629 19.3248 28.3626C19.3255 28.3614 19.3262 28.3607 19.327 28.3599C19.3422 28.3446 19.3566 28.3286 19.3704 28.3117C19.3737 28.308 19.377 28.3039 19.3804 28.3001C19.3915 28.2859 19.4022 28.2714 19.4122 28.2564C19.4156 28.2519 19.4189 28.2471 19.4219 28.2426C19.433 28.225 19.4437 28.2075 19.4538 28.1888C19.4556 28.1854 19.4571 28.182 19.4589 28.1791C19.4678 28.1619 19.476 28.1439 19.4838 28.126C19.4875 28.117 19.4905 28.108 19.4938 28.0991C19.4971 28.0908 19.5005 28.083 19.5034 28.0744L21.256 22.8591C21.3857 22.473 21.1804 22.054 20.7975 21.9228Z" fill="currentColor" />
  <path d="M22.0288 28.6831C21.1132 29.6048 19.8963 30.1123 18.6019 30.1123C17.3082 30.1123 16.0921 29.6051 15.1776 28.6835C14.3666 27.8661 13.8791 26.8098 13.7787 25.6721C13.7787 25.6703 13.7791 25.6688 13.7791 25.6669C13.7791 25.6307 13.7757 25.5955 13.7705 25.5611C13.7635 25.4516 13.7587 25.3421 13.7587 25.2315C13.7587 23.9275 14.2624 22.7019 15.1776 21.7803C16.0116 20.9401 17.097 20.4456 18.2631 20.3652C18.3131 20.3675 18.3632 20.3649 18.414 20.3567C18.4762 20.3544 18.5389 20.3522 18.6019 20.3522C19.8955 20.3522 21.1121 20.8593 22.0269 21.7806C22.9417 22.7019 23.4459 23.9275 23.4459 25.2315C23.4462 26.5359 22.9425 27.7618 22.0288 28.6831ZM1.4649 21.4936C1.4649 18.6527 3.75863 16.3411 6.57798 16.3411H12.7597C14.6472 16.3411 16.3512 17.3894 17.2389 19.0239C16.0743 19.281 15.0049 19.867 14.1423 20.7364C13.0214 21.8647 12.3742 23.3437 12.3008 24.9288H1.4649V21.4936ZM23.0622 20.7364C21.9172 19.583 20.4093 18.9285 18.7976 18.8792C17.7627 16.4569 15.4008 14.8647 12.7597 14.8647H6.57798C2.95093 14.8647 0 17.8387 0 21.4936V25.6669C0 26.0743 0.327676 26.4047 0.732451 26.4047H12.4009C12.6314 27.6564 13.2293 28.8079 14.1419 29.7273C15.3329 30.9275 16.9168 31.5886 18.6019 31.5886C20.287 31.5886 21.872 30.9278 23.0644 29.727C24.2554 28.5265 24.9111 26.9298 24.9108 25.2315C24.9104 23.5328 24.2539 21.9365 23.0622 20.7364Z" fill="currentColor" />
</svg>
