<?xml version="1.0" encoding="UTF-8" standalone="no"?>
<!DOCTYPE svg PUBLIC "-//W3C//DTD SVG 1.1//EN" "http://www.w3.org/Graphics/SVG/1.1/DTD/svg11.dtd">
<svg width="100%" height="100%" viewBox="0 0 1474 1316" version="1.1" xmlns="http://www.w3.org/2000/svg" xmlns:xlink="http://www.w3.org/1999/xlink" xml:space="preserve" xmlns:serif="http://www.serif.com/" style="fill-rule:evenodd;clip-rule:evenodd;stroke-linejoin:round;stroke-miterlimit:2;">
    <g id="Artboard1" transform="matrix(0.492564,0,0,0.589997,518.51,338.568)">
        <rect x="-1052.67" y="-573.846" width="2991.39" height="2229.46" style="fill-opacity:0;"/>
        <clipPath id="_clip1">
            <rect x="-1052.67" y="-573.846" width="2991.39" height="2229.46"/>
        </clipPath>
        <g clip-path="url(#_clip1)">
            <g transform="matrix(2.03019,0,0,1.69492,-1023.49,-657.083)">
                <path d="M1458.9,48.142L1458.9,767.982C1222.77,906.24 902.994,1008.95 634.259,900.893C464.67,832.705 204.331,908.166 -14.157,911.306L-15.678,48.142L1458.9,48.142Z" style="fill:url(#_Linear2);"/>
            </g>
            <g transform="matrix(2.03019,0,0,1.69492,-1023.49,-657.083)">
                <ellipse cx="684.9" cy="109.496" rx="35.995" ry="35.315" style="fill:rgb(61,159,211);fill-opacity:0.29;"/>
            </g>
            <g transform="matrix(2.03019,0,0,1.69492,-1023.49,-657.083)">
                <ellipse cx="823.879" cy="165.831" rx="24.996" ry="21.021" style="fill:rgb(118,53,130);fill-opacity:0.19;"/>
            </g>
            <g transform="matrix(2.03019,0,0,1.69492,-1023.49,-657.083)">
                <path d="M1458.9,590.757L1458.9,1321L-14.157,1321L-14.157,813.701C0.688,802.012 210.131,639.042 354.524,624.129C499.138,609.194 576.664,705.484 720.976,728.057C842.245,747.025 992.498,677.538 1125.72,590.834C1305.61,473.752 1454.44,587.299 1458.9,590.757Z" style="fill:url(#_Linear3);"/>
            </g>
            <g transform="matrix(2.03019,0,0,1.69492,-1023.49,-657.083)">
                <ellipse cx="473.432" cy="858.46" rx="56.491" ry="55.424" style="fill:rgb(30,179,251);"/>
            </g>
            <g transform="matrix(1.55927,0,0,1.69492,-1831.29,-1629.97)">
                <path d="M2417.7,1895L2417.57,1895L2417.57,1341.98L2417.7,1341.92L2417.7,1895Z" style="fill:rgb(251,24,24);fill-opacity:0.13;"/>
            </g>
            <g transform="matrix(1.55927,0,0,1.69492,-1831.29,-1629.97)">
                <path d="M2417.57,1164.76L2417.7,1164.84L2417.7,1341.92L2417.57,1341.98L2417.57,1164.76Z" style="fill:rgb(251,24,24);fill-opacity:0.13;"/>
            </g>
        </g>
    </g>
    <defs>
        <linearGradient id="_Linear2" x1="0" y1="0" x2="1" y2="0" gradientUnits="userSpaceOnUse" gradientTransform="matrix(5.79258e-14,946,-946,5.79258e-14,640,0)"><stop offset="0" style="stop-color:rgb(200,237,243);stop-opacity:0.27"/><stop offset="0.81" style="stop-color:rgb(122,220,251);stop-opacity:0.56"/><stop offset="1" style="stop-color:rgb(122,220,251);stop-opacity:0.56"/></linearGradient>
        <linearGradient id="_Linear3" x1="0" y1="0" x2="1" y2="0" gradientUnits="userSpaceOnUse" gradientTransform="matrix(4.05687e-14,662.537,-662.537,4.05687e-14,722,658.463)"><stop offset="0" style="stop-color:rgb(211,174,254);stop-opacity:1"/><stop offset="1" style="stop-color:rgb(30,179,251);stop-opacity:0"/></linearGradient>
    </defs>
</svg>
