<svg id="Layer_1" data-name="Layer 1"
  xmlns="http://www.w3.org/2000/svg"
  xmlns:xlink="http://www.w3.org/1999/xlink" viewBox="0 0 1440.07 1289">
  <defs>
    <style>.cls-1{fill:#e9eeff;}.cls-2{fill:#3d9fd3;fill-opacity:0.29;}.cls-3{fill:#763582;fill-opacity:0.19;}.cls-4{fill:url(#linear-gradient);}.cls-5{fill:#1eb3fb;}</style>
    <linearGradient id="linear-gradient" x1="719.47" y1="663.54" x2="719.47" y2="1" gradientTransform="matrix(1, 0, 0, -1, 0, 1290)" gradientUnits="userSpaceOnUse">
      <stop offset="0" stop-color="#d3aefe"/>
      <stop offset="1" stop-color="#1eb3fb" stop-opacity="0"/>
    </linearGradient>
  </defs>
  <path class="cls-1" d="M0,0H1440V728s-96.34-14.66-158.5-20c-231-19.83-594.5,20-594.5,20C416.57,754.81,0,843,0,843Z" transform="translate(0.07)"/>
  <circle class="cls-2" cx="665.07" cy="79" r="36"/>
  <ellipse class="cls-3" cx="804.07" cy="136.43" rx="25" ry="21.43"/>
  <path class="cls-4" d="M0,760.41c78.45-48.54,266.8-161.29,334.52-168.28C479.14,577.19,556.66,673.48,701,696.06c121.27,19,271.52-50.52,404.74-137.23,182.65-118.87,333.28,0,333.28,0V1289H0S-.16,760.51,0,760.41Z" transform="translate(0.07)"/>
  <circle class="cls-5" cx="453.57" cy="842.5" r="56.5"/>
</svg>