<svg id="Layer_1" data-name="Layer 1"
  xmlns="http://www.w3.org/2000/svg" viewBox="0 0 1442.66 882">
  <defs>
    <style>.cls-1{fill:#dbf4ff;}.cls-2{fill:#bee8ff;}.cls-3{fill:#ebd5c9;}.cls-4{fill:#763582;fill-opacity:0.19;}</style>
  </defs>
  <rect class="cls-1" x="2.66" width="1440" height="610"/>
  <path class="cls-2" d="M669.83,814C62.13,980.5-75.51,631.9,34.54,352.68,154.87,190.4,410.22,392.19,697.61,545.93c216.55,179.76,696.3-193.25,744.3,0C1441.74,1043.13,1046.1,711,669.83,814Z"/>
  <ellipse class="cls-3" cx="970.04" cy="99.93" rx="15.38" ry="14.93"/>
  <ellipse class="cls-3" cx="970.04" cy="99.93" rx="15.38" ry="14.93"/>
  <ellipse class="cls-3" cx="970.04" cy="99.93" rx="15.38" ry="14.93"/>
  <ellipse class="cls-3" cx="863.16" cy="202.97" rx="24.75" ry="24.03"/>
  <ellipse class="cls-3" cx="863.16" cy="202.97" rx="24.75" ry="24.03"/>
  <ellipse class="cls-3" cx="863.16" cy="202.97" rx="24.75" ry="24.03"/>
  <ellipse class="cls-4" cx="718.41" cy="793" rx="135" ry="89"/>
  <ellipse class="cls-4" cx="1201.41" cy="685.43" rx="25" ry="21.43"/>
  <path class="cls-4" d="M179.25,677.36C96.2,644.55,40.89,565.89,0,517.36v262.5a375.55,375.55,0,0,0,111.8,68.25c156.92,62,323.57,12.4,372.23-110.77S336.18,739.35,179.25,677.36Z"/>
</svg>