<svg width="1431" height="914" viewBox="0 0 1431 914" fill="none"
  xmlns="http://www.w3.org/2000/svg">
  <path d="M1398.02 598.59V664.817C1398.02 682.148 1383.98 696.196 1366.65 696.196H1290.56C1273.24 696.196 1259.19 682.148 1259.19 664.817V598.59H1398.02Z" fill="#FCD5E5"/>
  <path d="M1386.96 658.715C1386.66 658.417 1386.13 658.417 1385.83 658.715L1374.84 669.713L1363.84 658.715C1363.53 658.404 1363.03 658.404 1362.72 658.715L1351.72 669.713L1340.73 658.715C1340.41 658.404 1339.91 658.404 1339.6 658.715L1328.6 669.713L1317.61 658.715C1317.3 658.404 1316.8 658.404 1316.48 658.715L1305.49 669.713L1294.49 658.715C1294.18 658.404 1293.68 658.404 1293.37 658.715L1282.37 669.713L1271.37 658.715C1271.08 658.417 1270.55 658.417 1270.25 658.715L1258.7 670.273C1258.38 670.584 1258.38 671.087 1258.7 671.395C1259 671.706 1259.51 671.706 1259.81 671.395L1270.81 660.396L1281.81 671.395C1282.11 671.692 1282.63 671.692 1282.93 671.395L1293.93 660.396L1304.93 671.395C1305.24 671.706 1305.74 671.706 1306.05 671.395L1317.05 660.396L1328.04 671.395C1328.35 671.706 1328.85 671.706 1329.16 671.395L1340.16 660.396L1351.16 671.395C1351.47 671.706 1351.97 671.706 1352.28 671.395L1363.28 660.396L1374.28 671.395C1374.42 671.544 1374.63 671.627 1374.84 671.627C1375.05 671.627 1375.25 671.544 1375.4 671.395L1386.39 660.396L1397.4 671.395C1397.7 671.706 1398.21 671.706 1398.52 671.395C1398.83 671.087 1398.83 670.584 1398.52 670.273L1386.96 658.715ZM1386.96 641.073C1386.66 640.776 1386.13 640.776 1385.83 641.073L1374.84 652.077L1363.84 641.073C1363.53 640.765 1363.03 640.765 1362.72 641.073L1351.72 652.077L1340.73 641.073C1340.41 640.765 1339.91 640.765 1339.6 641.073L1328.6 652.077L1317.61 641.073C1317.3 640.765 1316.8 640.765 1316.48 641.073L1305.49 652.077L1294.49 641.073C1294.18 640.765 1293.68 640.765 1293.37 641.073L1282.37 652.077L1271.37 641.073C1271.08 640.776 1270.55 640.776 1270.25 641.073L1258.7 652.634C1258.38 652.948 1258.38 653.45 1258.7 653.759C1259 654.07 1259.51 654.07 1259.81 653.759L1270.81 642.757L1281.81 653.759C1282.11 654.056 1282.63 654.056 1282.93 653.759L1293.93 642.757L1304.93 653.759C1305.24 654.07 1305.74 654.07 1306.05 653.759L1317.05 642.757L1328.04 653.759C1328.35 654.07 1328.85 654.07 1329.16 653.759L1340.16 642.757L1351.16 653.759C1351.47 654.07 1351.97 654.07 1352.28 653.759L1363.28 642.757L1374.28 653.759C1374.42 653.907 1374.63 653.989 1374.84 653.989C1375.05 653.989 1375.25 653.907 1375.4 653.759L1386.39 642.757L1397.4 653.759C1397.7 654.07 1398.21 654.07 1398.52 653.759C1398.83 653.45 1398.83 652.948 1398.52 652.634L1386.96 641.073ZM1261.6 707.884H1395.61V696.196H1261.6V707.884ZM1386.96 623.434C1386.66 623.137 1386.13 623.137 1385.83 623.434L1374.84 634.438L1363.84 623.434C1363.53 623.123 1363.03 623.123 1362.72 623.434L1351.72 634.438L1340.73 623.434C1340.41 623.123 1339.91 623.123 1339.6 623.434L1328.6 634.438L1317.61 623.434C1317.3 623.123 1316.8 623.123 1316.48 623.434L1305.49 634.438L1294.49 623.434C1294.18 623.123 1293.68 623.123 1293.37 623.434L1282.37 634.438L1271.37 623.434C1271.08 623.137 1270.55 623.137 1270.25 623.434L1258.7 634.998C1258.38 635.309 1258.38 635.809 1258.7 636.12C1259 636.428 1259.51 636.428 1259.81 636.12L1270.81 625.116L1281.81 636.12C1282.11 636.417 1282.63 636.417 1282.93 636.12L1293.93 625.116L1304.93 636.12C1305.24 636.428 1305.74 636.428 1306.05 636.12L1317.05 625.116L1328.04 636.12C1328.35 636.428 1328.85 636.428 1329.16 636.12L1340.16 625.116L1351.16 636.12C1351.47 636.428 1351.97 636.428 1352.28 636.12L1363.28 625.116L1374.28 636.12C1374.42 636.268 1374.63 636.352 1374.84 636.352C1375.05 636.352 1375.25 636.268 1375.4 636.12L1386.39 625.116L1397.4 636.12C1397.7 636.428 1398.21 636.428 1398.52 636.12C1398.83 635.809 1398.83 635.309 1398.52 634.998L1386.96 623.434ZM1401.36 606.336C1401.36 606.776 1401 607.131 1400.56 607.131H1255.85C1255.4 607.131 1255.05 606.776 1255.05 606.336C1255.05 605.9 1255.4 605.544 1255.85 605.544H1400.56C1401 605.544 1401.36 605.9 1401.36 606.336Z" fill="#F6A8C1"/>
  <path d="M1389.81 535.693C1389.75 535.699 1389.7 535.71 1389.65 535.718C1389.73 535.653 1389.8 535.585 1389.88 535.52L1389.81 535.693ZM1430.25 548.693C1430.2 548.69 1430.16 548.69 1430.12 548.685C1429.3 543.283 1424.17 537.367 1409.93 535.569C1409.96 535.274 1409.84 534.974 1409.57 534.804C1409.2 534.574 1408.71 534.688 1408.48 535.055L1408.27 535.385C1404.61 535.023 1400.4 534.917 1395.55 535.136C1394.19 535.201 1392.83 535.315 1391.49 535.474C1391.46 535.196 1391.29 534.942 1391.01 534.828C1390.91 534.79 1390.81 534.774 1390.72 534.774C1390.72 534.771 1390.72 534.769 1390.73 534.763C1393.9 531.938 1396.81 529.115 1399.33 526.352C1399.34 526.328 1399.37 526.306 1399.39 526.282C1400.38 525.19 1401.31 524.105 1402.17 523.037C1402.18 523.018 1402.2 523 1402.22 522.981C1403.34 521.577 1404.35 520.193 1405.21 518.841C1405.61 518.225 1405.98 517.614 1406.34 517.011C1406.45 516.827 1406.55 516.643 1406.66 516.462C1406.91 516.035 1407.16 515.608 1407.4 515.183C1407.5 514.986 1407.61 514.791 1407.71 514.599C1407.95 514.172 1408.17 513.75 1408.39 513.328C1408.47 513.161 1408.56 512.999 1408.64 512.831C1408.9 512.325 1409.14 511.82 1409.38 511.322C1409.41 511.252 1409.44 511.184 1409.47 511.117C1410.04 509.903 1410.54 508.713 1410.98 507.548C1410.98 507.537 1410.99 507.532 1410.99 507.526C1411.21 506.953 1411.41 506.385 1411.6 505.828C1411.61 505.796 1411.62 505.766 1411.63 505.734C1412.01 504.609 1412.34 503.506 1412.62 502.43C1412.92 501.27 1413.17 500.14 1413.36 499.031C1413.37 498.974 1413.38 498.912 1413.39 498.85C1413.48 498.353 1413.55 497.863 1413.62 497.377C1413.63 497.328 1413.63 497.282 1413.64 497.236C1413.78 496.171 1413.88 495.133 1413.93 494.121C1413.94 494.073 1413.94 494.021 1413.94 493.975C1413.96 493.532 1413.98 493.094 1413.98 492.661C1413.99 492.58 1413.99 492.502 1413.99 492.423C1414 491.969 1414 491.515 1413.98 491.072C1413.98 491.058 1413.98 491.042 1413.98 491.026C1413.97 490.539 1413.95 490.06 1413.93 489.585C1413.9 489.049 1413.85 488.525 1413.8 488.008C1413.8 488.008 1413.8 488.008 1413.8 488.006C1413.64 486.329 1413.38 484.748 1413.05 483.271C1413.05 483.263 1413.05 483.261 1413.05 483.255C1412.9 482.539 1412.72 481.849 1412.55 481.179C1412.54 481.141 1412.53 481.1 1412.52 481.065C1412.34 480.395 1412.15 479.743 1411.95 479.124C1411.84 478.778 1411.72 478.437 1411.59 478.099C1411.55 477.999 1411.51 477.902 1411.47 477.802C1411.38 477.564 1411.28 477.331 1411.17 477.099C1411.13 476.993 1411.08 476.888 1411.03 476.785C1410.91 476.553 1410.8 476.323 1410.68 476.101C1410.63 476.017 1410.59 475.931 1410.54 475.847C1410.38 475.558 1410.21 475.274 1410.04 474.998C1410.03 474.985 1410.02 474.974 1410.02 474.96C1409.81 474.647 1409.6 474.344 1409.39 474.049C1409.39 474.046 1409.39 474.046 1409.39 474.046C1409.18 473.762 1408.96 473.492 1408.74 473.224C1408.7 473.189 1408.67 473.151 1408.64 473.114C1408.44 472.878 1408.23 472.646 1408.02 472.421C1407.99 472.389 1407.96 472.357 1407.93 472.327C1407.32 471.694 1406.66 471.118 1405.97 470.594C1404.82 469.726 1403.57 469.012 1402.24 468.46C1402.23 468.458 1402.22 468.452 1402.22 468.45C1400.9 467.901 1399.51 467.517 1398.09 467.311C1398.07 467.306 1398.04 467.303 1398.02 467.301C1397.69 467.252 1397.36 467.214 1397.02 467.187C1396.99 467.184 1396.97 467.184 1396.95 467.179C1395.87 467.092 1394.78 467.109 1393.68 467.228C1393.66 467.23 1393.64 467.23 1393.62 467.233C1393.28 467.271 1392.95 467.317 1392.61 467.376C1392.57 467.384 1392.53 467.39 1392.49 467.398C1392.15 467.46 1391.8 467.528 1391.46 467.612C1391.45 467.614 1391.43 467.617 1391.42 467.62C1390.44 467.858 1389.46 468.177 1388.5 468.593C1388.25 468.701 1388 468.828 1387.75 468.947C1387.75 468.947 1387.75 468.947 1387.75 468.947C1385.74 469.888 1383.77 471.11 1381.83 472.576C1381.82 472.581 1381.81 472.589 1381.8 472.6C1381.19 473.057 1380.59 473.543 1379.99 474.052C1379.95 474.087 1379.91 474.125 1379.86 474.157C1379.57 474.411 1379.27 474.668 1378.97 474.936C1378.92 474.985 1378.87 475.036 1378.81 475.085C1378.3 475.547 1377.8 476.023 1377.29 476.512C1377.17 476.631 1377.05 476.75 1376.93 476.869C1376.67 477.123 1376.42 477.38 1376.17 477.64C1376.03 477.78 1375.9 477.923 1375.76 478.064C1375.36 478.489 1374.96 478.921 1374.56 479.365C1374.39 479.546 1374.23 479.732 1374.06 479.919C1373.84 480.173 1373.62 480.427 1373.39 480.684C1373.08 481.046 1372.77 481.411 1372.46 481.784C1368.09 487.075 1363.97 493.429 1360.15 500.316C1359.81 500.924 1359.48 501.532 1359.14 502.149C1359.14 502.154 1359.14 502.157 1359.14 502.157C1357.67 504.874 1356.25 507.664 1354.88 510.495C1354.87 510.517 1354.86 510.541 1354.85 510.563C1354.17 511.963 1353.5 513.372 1352.85 514.788C1352.83 514.818 1352.82 514.848 1352.81 514.875C1352.15 516.3 1351.5 517.733 1350.87 519.166C1350.87 519.168 1350.87 519.174 1350.87 519.174C1349.83 521.537 1348.82 523.905 1347.85 526.26C1347.84 526.282 1347.83 526.298 1347.83 526.317C1347.13 527.993 1346.46 529.664 1345.81 531.319C1347.54 525.922 1349.25 520.526 1350.82 515.443L1351.75 514.68C1352.09 514.402 1352.14 513.902 1351.86 513.564C1351.76 513.439 1351.62 513.366 1351.48 513.323C1352.62 509.595 1353.68 506.066 1354.6 502.87C1355.25 500.618 1355.93 498.339 1356.63 496.036L1357.44 495.481C1357.8 495.238 1357.9 494.74 1357.65 494.381C1357.54 494.224 1357.39 494.129 1357.22 494.078C1359.2 487.57 1361.28 480.862 1363.16 473.998L1363.91 473.5C1364.27 473.26 1364.37 472.767 1364.13 472.4C1364.02 472.235 1363.85 472.129 1363.67 472.078C1365.37 465.708 1366.86 459.206 1367.91 452.598L1368.47 452.271C1368.85 452.046 1368.97 451.56 1368.75 451.181C1368.62 450.965 1368.41 450.846 1368.18 450.811C1368.97 445.414 1369.45 439.947 1369.49 434.432L1370.19 434.132C1370.6 433.956 1370.78 433.491 1370.61 433.088C1370.43 432.688 1369.97 432.499 1369.57 432.674L1369.5 432.704C1369.49 431.952 1369.47 431.206 1369.45 430.457C1369.3 425.558 1366.21 421.657 1362.07 420.062C1362.2 419.724 1362.09 419.337 1361.78 419.129C1361.41 418.891 1360.92 418.991 1360.68 419.361C1360.63 419.434 1360.58 419.513 1360.54 419.591C1358.67 419.156 1356.67 419.158 1354.65 419.737C1352.4 420.383 1349.59 421.887 1346.59 424.025C1346.41 423.776 1346.11 423.644 1345.79 423.712C1345.36 423.801 1345.09 424.22 1345.18 424.65L1345.25 425.012C1340.68 428.494 1335.82 433.345 1331.92 438.836C1331.72 438.695 1331.47 438.639 1331.22 438.725C1330.81 438.868 1330.59 439.323 1330.73 439.734L1330.92 440.288C1330.28 441.259 1329.66 442.243 1329.09 443.243C1326.35 448.01 1323.49 453.823 1321.04 460.768C1320.84 460.701 1320.62 460.704 1320.41 460.809C1320.03 461.012 1319.87 461.488 1320.07 461.88L1320.42 462.564C1318.38 468.674 1316.68 475.623 1315.63 483.482C1315.45 483.461 1315.26 483.488 1315.09 483.593C1314.73 483.834 1314.62 484.323 1314.86 484.694L1315.38 485.48C1314.88 489.771 1314.57 494.319 1314.51 499.142C1314.51 499.134 1314.5 499.129 1314.5 499.126C1314.19 498.315 1313.87 497.501 1313.54 496.69C1313.18 495.795 1312.81 494.9 1312.44 494.002C1312.19 493.416 1311.93 492.834 1311.67 492.267C1311.59 492.085 1311.51 491.912 1311.43 491.737C1311.25 491.345 1311.07 490.961 1310.89 490.585C1310.8 490.388 1310.7 490.193 1310.6 489.998C1310.42 489.647 1310.25 489.298 1310.07 488.952C1309.97 488.76 1309.88 488.576 1309.78 488.387C1309.59 488.043 1309.41 487.7 1309.23 487.367C1309.14 487.194 1309.04 487.021 1308.94 486.851C1308.74 486.5 1308.54 486.151 1308.34 485.807C1308.26 485.67 1308.18 485.526 1308.09 485.386C1307.86 484.994 1307.62 484.61 1307.38 484.228C1307.33 484.147 1307.28 484.064 1307.23 483.982C1304.11 479.091 1300.68 475.317 1297.11 472.451C1297.08 472.427 1297.05 472.4 1297.01 472.373C1296.08 471.627 1295.14 470.942 1294.19 470.315C1294.13 470.283 1294.08 470.245 1294.02 470.21C1293.55 469.904 1293.08 469.607 1292.6 469.328C1292.12 469.039 1291.63 468.769 1291.14 468.509C1289.58 467.687 1288.02 467.009 1286.48 466.465C1286.46 466.457 1286.46 466.457 1286.45 466.454C1284.91 465.914 1283.39 465.497 1281.89 465.197C1281.86 465.192 1281.84 465.184 1281.81 465.181C1280.27 464.873 1278.75 464.683 1277.28 464.591C1277.28 464.591 1277.28 464.591 1277.28 464.591C1271.4 464.24 1266.22 465.495 1262.77 467.274C1262.77 467.274 1262.77 467.274 1262.77 467.276C1262 467.668 1261.32 468.087 1260.74 468.523C1260.53 468.674 1260.33 468.842 1260.14 469.02C1260.07 469.085 1260 469.161 1259.93 469.226C1259.81 469.342 1259.69 469.458 1259.58 469.585C1259.5 469.674 1259.42 469.777 1259.34 469.872C1259.24 469.985 1259.15 470.094 1259.05 470.212C1258.97 470.321 1258.89 470.44 1258.81 470.553C1258.73 470.669 1258.64 470.783 1258.57 470.905C1258.49 471.032 1258.41 471.161 1258.33 471.291C1258.26 471.413 1258.19 471.535 1258.12 471.662C1258.04 471.8 1257.96 471.946 1257.89 472.094C1257.83 472.219 1257.76 472.34 1257.71 472.47C1257.63 472.627 1257.56 472.789 1257.49 472.951C1257.43 473.076 1257.38 473.2 1257.33 473.327C1257.26 473.503 1257.19 473.684 1257.13 473.862C1257.09 473.987 1257.04 474.111 1257 474.238C1256.94 474.433 1256.87 474.628 1256.81 474.83C1256.78 474.947 1256.75 475.066 1256.72 475.185C1256.65 475.404 1256.59 475.62 1256.54 475.844C1256.51 475.952 1256.49 476.061 1256.47 476.166C1256.41 476.409 1256.36 476.655 1256.31 476.91C1256.29 476.991 1256.28 477.077 1256.26 477.158C1256.22 477.439 1256.17 477.723 1256.13 478.013C1256.12 478.051 1256.12 478.086 1256.11 478.121C1255.8 480.354 1255.75 482.828 1256.02 485.459L1256.02 485.461C1256.08 486.078 1256.17 486.702 1256.26 487.335C1256.28 487.478 1256.31 487.627 1256.33 487.773C1256.43 488.4 1256.55 489.036 1256.69 489.679C1256.69 489.682 1256.69 489.685 1256.69 489.687C1256.83 490.344 1257 491.007 1257.18 491.674C1257.22 491.807 1257.26 491.942 1257.29 492.08C1257.67 493.421 1258.12 494.778 1258.66 496.144C1258.71 496.265 1258.76 496.387 1258.81 496.506C1259.36 497.885 1260 499.275 1260.73 500.656C1260.79 500.767 1260.85 500.881 1260.91 500.994C1261.83 502.695 1262.87 504.39 1264.06 506.053C1264.07 506.064 1264.08 506.069 1264.08 506.08C1264.45 506.585 1264.83 507.094 1265.22 507.599C1265.22 507.607 1265.23 507.61 1265.23 507.615C1265.23 507.618 1265.24 507.621 1265.24 507.629C1265.48 507.935 1265.74 508.256 1266 508.586C1266.08 508.686 1266.17 508.789 1266.25 508.892C1266.45 509.14 1266.65 509.392 1266.87 509.651C1266.96 509.762 1267.05 509.87 1267.15 509.987C1267.39 510.284 1267.65 510.587 1267.91 510.898C1267.97 510.968 1268.03 511.033 1268.08 511.103C1268.43 511.506 1268.78 511.92 1269.15 512.344C1269.16 512.355 1269.17 512.371 1269.18 512.385C1269.53 512.79 1269.9 513.204 1270.26 513.626C1270.33 513.704 1270.4 513.783 1270.47 513.858C1270.81 514.245 1271.16 514.642 1271.52 515.045C1271.57 515.105 1271.62 515.162 1271.67 515.218C1272.52 516.173 1273.41 517.165 1274.34 518.19C1274.34 518.192 1274.34 518.192 1274.35 518.192C1274.77 518.666 1275.21 519.141 1275.65 519.623C1275.66 519.625 1275.66 519.628 1275.66 519.631C1276.36 520.393 1277.07 521.175 1277.81 521.967C1277.82 521.98 1277.83 521.988 1277.84 521.999C1278.56 522.781 1279.3 523.573 1280.06 524.381C1280.07 524.392 1280.08 524.403 1280.09 524.416C1277.68 523.002 1275.22 521.713 1272.72 520.566L1272.46 519.844C1272.31 519.431 1271.85 519.217 1271.44 519.366C1271.23 519.441 1271.07 519.606 1270.99 519.804C1267.2 518.187 1263.32 516.916 1259.37 516.102C1256.29 515.467 1252.97 515.359 1249.73 515.764L1249.61 515.527C1249.43 515.129 1248.96 514.959 1248.56 515.148C1248.23 515.302 1248.07 515.659 1248.13 516.002C1242.46 517.019 1237.18 519.65 1234.05 523.854L1233.96 523.808C1233.57 523.602 1233.1 523.751 1232.89 524.143C1232.7 524.508 1232.83 524.952 1233.17 525.171C1232.34 526.59 1231.72 528.164 1231.39 529.894C1230.64 533.887 1230.9 538.887 1232.78 543.675C1232.42 543.823 1232.21 544.199 1232.3 544.583C1232.39 544.946 1232.72 545.189 1233.07 545.189C1233.14 545.189 1233.2 545.181 1233.26 545.167L1233.41 545.132C1235.68 549.991 1239.71 554.503 1246.18 557.347C1247.72 558.021 1249.27 558.672 1250.84 559.299C1250.77 559.464 1250.75 559.654 1250.81 559.84C1250.92 560.173 1251.23 560.381 1251.56 560.381C1251.65 560.381 1251.73 560.367 1251.82 560.34L1252.71 560.038C1261.94 563.606 1271.6 566.394 1280.87 568.565C1280.84 568.706 1280.83 568.854 1280.88 569C1280.99 569.327 1281.3 569.536 1281.62 569.536C1281.71 569.536 1281.8 569.522 1281.88 569.492L1283.1 569.076C1289.05 570.422 1294.8 571.512 1300.13 572.396C1298.23 572.502 1296.27 572.669 1294.26 572.91C1294.13 572.926 1294.01 572.945 1293.89 572.956C1292.83 573.091 1291.76 573.24 1290.67 573.415C1290.67 573.418 1290.67 573.418 1290.66 573.418C1290 573.526 1289.34 573.653 1288.69 573.797C1288.61 573.813 1288.53 573.835 1288.45 573.851C1287.86 573.983 1287.28 574.121 1286.7 574.281C1286.68 574.286 1286.65 574.294 1286.63 574.302C1285.34 574.654 1284.07 575.067 1282.83 575.538C1282.16 575.789 1281.51 576.057 1280.85 576.344C1280.4 576.541 1279.94 576.746 1279.49 576.96C1279.17 577.111 1278.86 577.271 1278.55 577.428C1278.34 577.533 1278.13 577.639 1277.92 577.747C1277.59 577.92 1277.26 578.101 1276.94 578.279C1276.77 578.371 1276.6 578.466 1276.43 578.561C1276.08 578.766 1275.73 578.972 1275.38 579.182C1275.3 579.231 1275.22 579.283 1275.13 579.334C1271.84 581.362 1268.88 583.765 1266.39 586.399C1266.38 586.404 1266.38 586.412 1266.37 586.42C1265.98 586.834 1265.59 587.256 1265.23 587.686C1265.21 587.713 1265.18 587.74 1265.16 587.767C1264.81 588.175 1264.47 588.589 1264.14 589.002C1264.1 589.059 1264.06 589.119 1264.02 589.175C1263.71 589.565 1263.42 589.957 1263.14 590.357C1263.07 590.449 1263.02 590.538 1262.95 590.63C1262.7 591 1262.45 591.368 1262.22 591.744C1262.14 591.863 1262.07 591.987 1262 592.109C1261.79 592.458 1261.57 592.806 1261.38 593.158C1261.31 593.288 1261.25 593.423 1261.17 593.555C1260.74 594.383 1260.34 595.215 1260.01 596.056C1259.83 596.492 1259.68 596.93 1259.54 597.368C1259.5 597.495 1259.45 597.622 1259.42 597.749C1259.3 598.125 1259.19 598.503 1259.1 598.882C1259.08 598.957 1259.06 599.03 1259.05 599.106C1258.94 599.541 1258.86 599.982 1258.79 600.417C1258.77 600.539 1258.76 600.661 1258.74 600.777C1258.69 601.139 1258.65 601.504 1258.62 601.861C1258.62 601.958 1258.61 602.056 1258.6 602.15C1258.58 602.588 1258.57 603.021 1258.58 603.456C1258.58 603.564 1258.59 603.67 1258.59 603.778C1258.61 604.13 1258.64 604.484 1258.67 604.838C1258.68 604.946 1258.69 605.052 1258.71 605.16C1258.77 605.59 1258.84 606.017 1258.94 606.441C1258.95 606.525 1258.98 606.612 1259 606.695C1259.09 607.052 1259.19 607.406 1259.3 607.758C1259.34 607.866 1259.37 607.98 1259.41 608.088C1259.56 608.51 1259.72 608.923 1259.91 609.337C1259.93 609.388 1259.96 609.442 1259.98 609.494C1260.15 609.859 1260.35 610.221 1260.55 610.581C1260.61 610.689 1260.68 610.794 1260.74 610.905C1260.98 611.308 1261.24 611.711 1261.53 612.103C1261.57 612.149 1261.6 612.192 1261.64 612.238C1262.13 612.9 1262.65 613.487 1263.19 614.012C1263.2 614.014 1263.2 614.017 1263.21 614.025C1263.38 614.195 1263.57 614.363 1263.75 614.52C1263.76 614.525 1263.78 614.539 1263.79 614.547C1263.96 614.698 1264.14 614.842 1264.33 614.982C1264.34 614.993 1264.36 615.007 1264.38 615.017C1264.55 615.153 1264.73 615.28 1264.92 615.404C1264.93 615.415 1264.96 615.428 1264.98 615.442C1265.16 615.561 1265.34 615.672 1265.52 615.78C1265.54 615.793 1265.57 615.807 1265.59 615.82C1265.77 615.923 1265.95 616.023 1266.14 616.115C1266.17 616.131 1266.19 616.142 1266.22 616.156C1266.4 616.245 1266.59 616.331 1266.77 616.412C1266.8 616.426 1266.83 616.437 1266.86 616.45C1267.04 616.529 1267.23 616.602 1267.42 616.669C1267.45 616.68 1267.48 616.691 1267.51 616.702C1267.7 616.769 1267.88 616.832 1268.08 616.888C1268.11 616.896 1268.14 616.905 1268.17 616.915C1268.36 616.969 1268.55 617.021 1268.75 617.067C1268.78 617.075 1268.81 617.083 1268.84 617.091C1269.04 617.134 1269.23 617.175 1269.43 617.213C1269.46 617.218 1269.49 617.224 1269.52 617.229C1269.73 617.264 1269.93 617.294 1270.13 617.321C1270.16 617.324 1270.19 617.326 1270.22 617.329C1270.42 617.359 1270.63 617.378 1270.84 617.391C1270.86 617.394 1270.89 617.399 1270.92 617.402C1271.13 617.416 1271.34 617.426 1271.56 617.432C1271.58 617.432 1271.6 617.434 1271.62 617.434C1271.85 617.443 1272.07 617.443 1272.3 617.434C1272.31 617.434 1272.32 617.434 1272.34 617.434C1272.58 617.432 1272.81 617.424 1273.05 617.41C1273.05 617.41 1273.06 617.41 1273.06 617.41C1273.58 617.378 1274.11 617.324 1274.64 617.251C1275.15 617.175 1275.67 617.083 1276.19 616.967C1276.19 616.967 1276.2 616.967 1276.2 616.967C1276.71 616.856 1277.23 616.726 1277.75 616.583C1277.77 616.575 1277.8 616.564 1277.83 616.558C1278.32 616.418 1278.82 616.264 1279.32 616.093C1279.36 616.077 1279.41 616.066 1279.45 616.05C1279.94 615.883 1280.42 615.704 1280.91 615.512C1280.96 615.49 1281.01 615.472 1281.06 615.453C1281.55 615.261 1282.03 615.055 1282.52 614.839C1282.57 614.817 1282.62 614.796 1282.67 614.774C1283.16 614.558 1283.65 614.325 1284.14 614.087C1284.18 614.063 1284.22 614.047 1284.26 614.028C1284.77 613.776 1285.27 613.519 1285.78 613.252C1285.8 613.241 1285.82 613.227 1285.85 613.214C1286.87 612.673 1287.88 612.097 1288.89 611.492C1288.89 611.492 1288.89 611.492 1288.89 611.492C1289.48 611.138 1290.06 610.773 1290.64 610.405C1290.67 610.383 1290.71 610.364 1290.74 610.343C1291.3 609.983 1291.86 609.615 1292.42 609.242C1292.43 609.234 1292.45 609.223 1292.46 609.215C1293.03 608.831 1293.6 608.447 1294.15 608.061C1294.17 608.047 1294.18 608.034 1294.2 608.023C1294.75 607.642 1295.28 607.26 1295.81 606.877C1295.83 606.86 1295.85 606.844 1295.88 606.825C1296.95 606.046 1297.99 605.265 1298.99 604.5C1299.01 604.481 1299.03 604.465 1299.05 604.446C1301 602.94 1302.78 601.504 1304.3 600.261C1305.24 599.498 1306.15 598.741 1307.05 597.995C1307.07 597.973 1307.1 597.954 1307.12 597.935C1308.01 597.192 1308.88 596.459 1309.73 595.735C1309.76 595.713 1309.78 595.694 1309.8 595.672C1310.67 594.94 1311.5 594.215 1312.32 593.504C1312.33 593.496 1312.34 593.488 1312.35 593.477C1314.28 591.803 1316.09 590.195 1317.77 588.672C1317.84 588.605 1317.92 588.54 1317.99 588.47C1318.35 588.145 1318.71 587.824 1319.05 587.504C1319.13 587.429 1319.21 587.356 1319.3 587.283C1319.65 586.958 1320 586.637 1320.34 586.32C1320.39 586.272 1320.45 586.22 1320.5 586.172C1321.31 585.425 1322.08 584.706 1322.81 584.022C1322.81 584.019 1322.81 584.014 1322.82 584.011C1323.16 583.687 1323.5 583.368 1323.83 583.054C1323.88 583.006 1323.94 582.954 1323.98 582.905C1324.27 582.632 1324.55 582.37 1324.82 582.111C1324.87 582.062 1324.92 582.016 1324.97 581.97C1325.26 581.689 1325.54 581.418 1325.81 581.156C1325.83 581.145 1325.83 581.137 1325.84 581.126L1321.3 598.59H1322.94L1328.04 578.982C1328.26 578.763 1328.47 578.558 1328.66 578.363C1328.67 578.355 1328.68 578.344 1328.69 578.336C1328.87 578.155 1329.04 577.987 1329.2 577.828C1329.23 577.804 1329.25 577.777 1329.27 577.752C1329.43 577.601 1329.57 577.455 1329.7 577.322C1329.71 577.317 1329.72 577.309 1329.72 577.301C1330.03 576.998 1330.28 576.736 1330.48 576.536C1330.5 576.522 1330.51 576.5 1330.53 576.487C1330.82 576.195 1330.97 576.03 1331.01 575.995C1331.07 576.049 1331.08 576.049 1331.02 575.981L1331.18 575.968C1331.27 576.108 1331.39 576.3 1331.54 576.53C1331.61 576.622 1331.67 576.725 1331.74 576.833C1331.74 576.838 1331.75 576.841 1331.75 576.849C1331.82 576.955 1331.89 577.068 1331.97 577.187C1332 577.233 1332.03 577.279 1332.06 577.328C1332.35 577.763 1332.68 578.269 1333.06 578.847C1333.06 578.85 1333.07 578.853 1333.07 578.858C1333.07 578.863 1333.08 578.866 1333.08 578.872C1333.3 579.196 1333.53 579.545 1333.77 579.912C1333.78 579.918 1333.78 579.921 1333.78 579.929C1334.03 580.296 1334.29 580.683 1334.57 581.086C1334.57 581.094 1334.57 581.097 1334.58 581.102C1334.58 581.108 1334.59 581.118 1334.59 581.124C1334.94 581.635 1335.3 582.165 1335.69 582.727L1337.88 598.59H1339.48L1337.69 585.596C1337.69 585.598 1337.69 585.598 1337.69 585.601C1337.83 585.804 1337.98 586.009 1338.13 586.215C1338.31 586.472 1338.48 586.726 1338.67 586.991C1338.9 587.304 1339.14 587.629 1339.37 587.953C1339.47 588.099 1339.58 588.245 1339.69 588.394C1339.97 588.786 1340.26 589.183 1340.55 589.584C1340.61 589.665 1340.67 589.743 1340.73 589.824C1341.05 590.268 1341.39 590.716 1341.73 591.165C1341.75 591.203 1341.78 591.238 1341.8 591.276C1342.16 591.752 1342.52 592.236 1342.89 592.72C1342.9 592.725 1342.9 592.733 1342.91 592.744C1344.51 594.859 1346.21 597.011 1347.94 599.111C1348.8 600.152 1349.67 601.174 1350.55 602.175C1350.59 602.215 1350.62 602.256 1350.66 602.296C1351.51 603.272 1352.38 604.221 1353.23 605.135C1353.28 605.181 1353.32 605.225 1353.36 605.271C1354.22 606.184 1355.09 607.058 1355.94 607.885C1355.97 607.917 1356.01 607.947 1356.04 607.977C1356.9 608.807 1357.75 609.58 1358.59 610.297C1358.62 610.318 1358.65 610.343 1358.67 610.367C1359.51 611.07 1360.32 611.711 1361.13 612.278C1361.16 612.308 1361.2 612.335 1361.24 612.362C1361.81 612.762 1362.37 613.138 1362.91 613.457C1364.01 614.101 1365.18 614.647 1366.4 615.098C1366.41 615.098 1366.41 615.101 1366.42 615.107C1367.39 615.461 1368.38 615.755 1369.4 615.985C1369.4 615.985 1369.41 615.988 1369.41 615.988C1371.97 616.564 1374.63 616.726 1377.22 616.426C1377.22 616.426 1377.22 616.426 1377.22 616.426C1377.73 616.366 1378.24 616.285 1378.74 616.191C1378.8 616.177 1378.87 616.169 1378.93 616.156C1379.43 616.056 1379.93 615.939 1380.42 615.801C1380.46 615.791 1380.51 615.777 1380.55 615.766C1381.05 615.623 1381.53 615.466 1382.01 615.288C1382.02 615.285 1382.03 615.282 1382.04 615.28C1382.53 615.093 1383.01 614.888 1383.48 614.663C1383.52 614.644 1383.56 614.623 1383.61 614.604C1384.55 614.144 1385.45 613.603 1386.3 612.976C1386.33 612.963 1386.35 612.944 1386.37 612.927C1387.24 612.276 1388.05 611.538 1388.79 610.708C1389.13 610.316 1389.47 609.899 1389.78 609.467C1389.78 609.467 1389.78 609.464 1389.78 609.464C1389.98 609.188 1390.17 608.904 1390.36 608.615C1390.36 608.612 1390.36 608.612 1390.36 608.612C1390.54 608.323 1390.72 608.028 1390.88 607.723C1390.92 607.661 1390.94 607.598 1390.98 607.536C1391.11 607.285 1391.24 607.033 1391.37 606.771C1391.51 606.455 1391.65 606.133 1391.78 605.798C1391.79 605.779 1391.8 605.763 1391.81 605.744C1391.97 605.319 1392.13 604.884 1392.27 604.443C1392.31 604.311 1392.35 604.178 1392.39 604.046C1392.48 603.721 1392.58 603.397 1392.66 603.064C1392.7 602.921 1392.73 602.78 1392.77 602.637C1392.85 602.272 1392.93 601.902 1393 601.534C1393.02 601.434 1393.04 601.339 1393.06 601.239C1393.14 600.75 1393.21 600.258 1393.27 599.758C1393.27 599.752 1393.27 599.747 1393.27 599.739C1393.32 599.257 1393.36 598.768 1393.39 598.273C1393.39 598.181 1393.4 598.084 1393.4 597.992C1393.42 597.568 1393.42 597.14 1393.42 596.713C1393.42 596.629 1393.42 596.543 1393.42 596.456C1393.4 595.41 1393.32 594.364 1393.17 593.32C1393.1 592.798 1393.01 592.279 1392.9 591.76C1392.9 591.757 1392.9 591.757 1392.9 591.757C1392.81 591.322 1392.71 590.887 1392.6 590.454C1392.6 590.441 1392.59 590.43 1392.59 590.416C1392.48 589.995 1392.36 589.576 1392.23 589.162C1392.22 589.14 1392.21 589.119 1392.2 589.097C1392.07 588.689 1391.93 588.286 1391.77 587.883C1391.77 587.853 1391.75 587.829 1391.74 587.805C1391.59 587.404 1391.42 587.012 1391.25 586.62C1391.24 586.593 1391.22 586.566 1391.21 586.537C1391.04 586.147 1390.85 585.763 1390.64 585.382C1390.63 585.358 1390.62 585.328 1390.6 585.304C1390.4 584.92 1390.19 584.539 1389.96 584.163C1389.95 584.146 1389.94 584.128 1389.92 584.106C1389.69 583.725 1389.45 583.349 1389.19 582.976C1389.18 582.968 1389.17 582.954 1389.17 582.946C1388.9 582.565 1388.62 582.194 1388.33 581.827C1388.33 581.824 1388.33 581.824 1388.33 581.824C1387.97 581.372 1387.6 580.929 1387.2 580.502H1387.2C1386.82 580.099 1386.42 579.715 1386.01 579.337C1385.9 579.237 1385.79 579.142 1385.68 579.042C1385.34 578.747 1385 578.461 1384.64 578.179C1384.54 578.101 1384.43 578.02 1384.33 577.939C1383.37 577.22 1382.32 576.563 1381.19 575.973C1381.16 575.952 1381.12 575.935 1381.08 575.916C1380.52 575.63 1379.95 575.362 1379.35 575.113C1379.32 575.097 1379.29 575.086 1379.26 575.073C1377.35 574.275 1375.22 573.672 1372.87 573.294C1372.87 573.294 1372.87 573.294 1372.87 573.294C1372.61 573.253 1372.36 573.205 1372.1 573.167C1372 573.156 1371.91 573.145 1371.81 573.134L1381.85 572.429C1381.95 572.421 1382.04 572.407 1382.14 572.396L1382.94 572.913C1383.08 572.996 1383.22 573.037 1383.37 573.037C1383.63 573.037 1383.89 572.91 1384.04 572.675C1384.15 572.51 1384.17 572.32 1384.15 572.145C1391.78 571.163 1398.26 569.955 1403.73 568.597L1404.35 568.998C1404.49 569.084 1404.64 569.125 1404.78 569.125C1405.04 569.125 1405.3 568.998 1405.45 568.762C1405.58 568.565 1405.6 568.341 1405.54 568.132C1411.82 566.467 1416.67 564.61 1420.33 562.69L1420.83 562.941C1420.94 562.998 1421.06 563.025 1421.18 563.025C1421.47 563.025 1421.75 562.866 1421.89 562.59C1422.01 562.341 1421.99 562.068 1421.86 561.846C1425.26 559.859 1427.45 557.839 1428.65 555.928C1429.61 554.414 1430.24 552.424 1430.24 550.266C1430.65 550.256 1430.98 549.937 1431 549.526C1431.02 549.085 1430.69 548.714 1430.25 548.693Z" fill="#285B53"/>
  <path d="M1332.14 572.702L1332.43 572.293L1333.35 571.015L1333.99 570.136L1343 557.666L1341.71 543.945C1337.93 555.487 1334.46 565.802 1332.56 571.447C1332.4 571.896 1332.27 572.315 1332.14 572.702ZM1338.17 567.064C1340.69 564.226 1343.83 560.949 1347.52 557.593L1344.31 558.569L1338.17 567.064ZM1325.69 575.603C1320.62 575.178 1312.3 574.332 1302.31 572.748L1319.07 577.084C1321.64 576.408 1323.88 575.935 1325.69 575.603ZM1327.19 565.983C1324.23 557.804 1321.87 550.05 1320.03 542.696L1318.68 549.69C1322.18 556.112 1325.04 561.687 1327.19 565.983ZM1393.84 592.444C1393.89 592.871 1393.59 593.252 1393.17 593.32C1393.17 593.32 1393.16 593.325 1393.15 593.325L1376.21 595.41C1380.93 599.325 1385.54 603.962 1389.78 609.467C1389.82 609.521 1389.87 609.577 1389.91 609.634C1390.18 609.98 1390.11 610.48 1389.76 610.745C1389.62 610.856 1389.45 610.91 1389.28 610.91C1389.1 610.91 1388.93 610.829 1388.79 610.708C1388.74 610.672 1388.69 610.645 1388.66 610.599C1384.48 605.154 1379.93 600.566 1375.28 596.697L1377.22 616.426L1377.22 616.499C1377.27 616.934 1376.95 617.324 1376.51 617.364C1376.48 617.367 1376.46 617.369 1376.43 617.369C1376.03 617.369 1375.69 617.064 1375.65 616.656L1375.63 616.55L1373.55 595.288C1368.94 591.649 1364.27 588.697 1359.79 586.304L1363.7 613.341C1363.72 613.522 1363.68 613.687 1363.59 613.833C1363.48 614.041 1363.28 614.203 1363.03 614.241C1362.99 614.247 1362.95 614.249 1362.91 614.249C1362.52 614.249 1362.18 613.966 1362.13 613.568L1362.03 612.9L1358.06 585.401C1353.36 583.014 1348.93 581.243 1345.05 579.934L1348.23 598.373C1348.28 598.663 1348.15 598.933 1347.94 599.111C1347.84 599.198 1347.72 599.266 1347.58 599.29C1347.53 599.301 1347.49 599.303 1347.44 599.303C1347.07 599.303 1346.73 599.03 1346.66 598.644L1346.42 597.246L1343.34 579.377C1340.75 578.555 1338.45 577.947 1336.56 577.509C1335.97 577.371 1335.42 577.247 1334.91 577.144C1334.84 577.13 1334.78 577.117 1334.72 577.103C1334.13 576.982 1333.61 576.879 1333.14 576.795C1332.6 576.695 1332.14 576.619 1331.78 576.563C1331.7 576.552 1331.62 576.538 1331.54 576.53C1331.61 576.622 1331.67 576.725 1331.74 576.833L1328.44 598.59H1326.83L1330.13 576.895C1330.28 576.744 1330.42 576.603 1330.53 576.487C1330.43 576.498 1330.31 576.511 1330.18 576.522C1329.79 576.565 1329.27 576.63 1328.63 576.725C1328.13 576.795 1327.56 576.882 1326.92 576.99C1325.03 577.314 1322.56 577.809 1319.61 578.574L1316.45 589.859L1316.12 591.052C1316.02 591.403 1315.71 591.63 1315.36 591.63C1315.29 591.63 1315.22 591.622 1315.14 591.603C1314.99 591.56 1314.87 591.468 1314.77 591.354C1314.6 591.16 1314.52 590.895 1314.59 590.624L1317.83 579.058C1313.93 580.145 1309.35 581.675 1304.33 583.822L1303.35 601.039L1303.31 601.753C1303.28 602.175 1302.94 602.505 1302.52 602.505C1302.5 602.505 1302.49 602.502 1302.47 602.502C1302.24 602.488 1302.04 602.369 1301.9 602.204C1301.79 602.056 1301.71 601.869 1301.72 601.664L1302.7 584.533C1298.26 586.507 1293.51 588.956 1288.6 591.998L1288.89 611.492L1288.9 611.946C1288.9 612.384 1288.55 612.743 1288.11 612.752C1288.11 612.752 1288.11 612.752 1288.1 612.752C1287.81 612.752 1287.56 612.587 1287.42 612.349C1287.36 612.235 1287.31 612.108 1287.31 611.97L1287.03 592.985C1282.91 595.626 1278.69 598.684 1274.47 602.221L1274.64 617.251V617.342C1274.64 617.783 1274.29 618.143 1273.85 618.145C1273.85 618.145 1273.84 618.145 1273.84 618.145C1273.43 618.145 1273.09 617.818 1273.06 617.41C1273.06 617.391 1273.05 617.38 1273.05 617.361L1272.89 603.559C1269.48 606.514 1266.08 609.783 1262.72 613.409C1262.7 613.43 1262.67 613.436 1262.65 613.455C1262.5 613.584 1262.32 613.663 1262.13 613.663C1261.94 613.663 1261.75 613.592 1261.59 613.452C1261.27 613.154 1261.25 612.652 1261.55 612.33C1261.58 612.297 1261.61 612.27 1261.64 612.238C1265.14 608.469 1268.69 605.076 1272.24 602.026L1260.01 596.054L1259.97 596.035C1259.58 595.843 1259.41 595.364 1259.6 594.972C1259.79 594.588 1260.25 594.426 1260.64 594.602C1260.65 594.604 1260.66 594.602 1260.67 594.61L1273.57 600.904C1277.8 597.368 1282.04 594.304 1286.17 591.66L1269.22 584.114C1269.11 584.068 1269.03 583.998 1268.96 583.917C1268.76 583.689 1268.69 583.362 1268.82 583.068C1269 582.667 1269.47 582.486 1269.87 582.665L1270.23 582.827L1287.78 590.643C1292.53 587.707 1297.13 585.314 1301.45 583.362L1281.42 576.746C1281.2 576.671 1281.04 576.5 1280.95 576.298C1280.88 576.127 1280.86 575.935 1280.92 575.743C1281.06 575.327 1281.51 575.097 1281.92 575.24L1282.83 575.538L1303.62 582.408C1308.16 580.464 1312.35 579.012 1316.02 577.933L1298.04 573.283C1297.71 573.194 1297.48 572.907 1297.46 572.583C1297.45 572.493 1297.45 572.404 1297.47 572.315C1297.51 572.183 1297.58 572.074 1297.67 571.977C1293.05 571.174 1288.14 570.217 1283.1 569.076L1303.45 562.092L1327.51 574.721L1328.34 575.162C1328.6 575.124 1328.84 575.094 1329.06 575.065C1329.33 575.03 1329.58 574.997 1329.79 574.973C1329.76 574.9 1329.72 574.832 1329.69 574.751C1329.59 574.529 1329.46 574.281 1329.33 573.999C1329.31 573.953 1329.29 573.905 1329.27 573.856C1329.03 573.369 1328.77 572.807 1328.46 572.166C1328.4 572.042 1328.33 571.909 1328.27 571.782C1326.15 567.392 1322.4 559.843 1317.3 550.48L1309.85 549.131L1302.67 547.83C1313.29 558.613 1323.12 568.351 1327.94 573.056C1328.02 573.129 1328.1 573.207 1328.17 573.278L1327.92 573.145L1304.16 560.67L1297.88 542.95C1298.97 544.072 1300.07 545.189 1301.15 546.295C1301.33 546.122 1301.58 546.022 1301.84 546.067L1308.01 547.184L1316.32 548.69C1314.36 545.108 1312.2 541.287 1309.88 537.294L1295.42 535.355L1289.77 534.604C1291.83 536.734 1293.92 538.889 1296.01 541.033C1295.79 541.244 1295.7 541.563 1295.81 541.863L1302.09 559.586L1282.94 549.525C1282.98 549.363 1282.99 549.198 1282.94 549.039L1272.72 520.566C1275.22 521.713 1277.68 523.002 1280.09 524.416C1282.7 527.206 1285.49 530.135 1288.35 533.119C1288.52 532.957 1288.74 532.865 1289 532.895L1293.09 533.444L1308.87 535.555C1306.17 530.956 1303.25 526.149 1300.15 521.237L1275.65 519.623L1274.82 519.568C1274.39 519.539 1274.05 519.163 1274.09 518.728C1274.1 518.514 1274.2 518.327 1274.35 518.192C1274.5 518.054 1274.71 517.973 1274.93 517.987L1299.09 519.579C1296.14 514.964 1293.03 510.27 1289.76 505.58L1263.01 504.522L1262.46 504.501C1262.02 504.482 1261.68 504.114 1261.7 503.676C1261.71 503.411 1261.87 503.187 1262.08 503.052C1262.22 502.962 1262.37 502.903 1262.53 502.914L1288.62 503.949C1284.61 498.25 1280.38 492.569 1275.97 487.062L1256.02 485.459L1255.88 485.448C1255.45 485.413 1255.12 485.031 1255.16 484.593C1255.19 484.196 1255.51 483.907 1255.9 483.877C1255.94 483.877 1255.97 483.863 1256.01 483.866L1274.6 485.361C1269.97 479.673 1265.15 474.19 1260.17 469.077C1260.15 469.058 1260.15 469.036 1260.14 469.02C1259.88 468.704 1259.89 468.241 1260.19 467.955C1260.5 467.647 1261 467.655 1261.31 467.966C1261.34 468.001 1261.37 468.033 1261.4 468.066C1266.35 473.157 1271.15 478.613 1275.76 484.269L1277.28 464.591V464.589C1277.32 464.153 1277.7 463.821 1278.13 463.859C1278.57 463.891 1278.9 464.272 1278.86 464.71L1278.86 464.727L1277.21 486.07C1281.5 491.428 1285.62 496.947 1289.53 502.489L1291.04 468.847C1291.05 468.723 1291.08 468.612 1291.14 468.509C1291.28 468.241 1291.56 468.063 1291.87 468.09C1292.3 468.109 1292.65 468.482 1292.62 468.917L1292.6 469.328L1291.03 504.62C1294.19 509.162 1297.21 513.707 1300.07 518.179L1303.88 480.222C1303.9 479.994 1304.02 479.805 1304.18 479.678C1304.34 479.559 1304.54 479.494 1304.75 479.513C1305.18 479.556 1305.5 479.943 1305.46 480.378L1305.37 481.249L1301.45 520.342C1304.49 525.13 1307.33 529.821 1309.98 534.317L1314 509.776C1314.06 509.403 1314.37 509.146 1314.74 509.127C1314.72 508.813 1314.7 508.502 1314.69 508.191L1320.25 516.089L1330.53 530.678C1330.06 538.092 1329.83 544.943 1329.75 550.95L1327.01 546.276L1318.52 531.751C1318.32 531.405 1317.9 531.284 1317.54 531.432C1316.32 525.062 1315.5 519.025 1315.03 513.307L1311.23 536.467C1313.48 540.33 1315.57 544.029 1317.48 547.511L1318.8 540.714C1318.86 540.398 1319.1 540.163 1319.4 540.095C1318.92 538.075 1318.48 536.085 1318.07 534.125L1327.7 550.583L1329.72 554.041C1329.68 559.002 1329.74 563.282 1329.82 566.699C1329.84 567.405 1329.86 568.084 1329.88 568.711C1329.91 569.763 1329.95 570.695 1329.98 571.523C1329.98 571.574 1329.99 571.628 1329.99 571.682C1330.21 572.145 1330.41 572.569 1330.59 572.948C1330.63 573.023 1330.66 573.094 1330.69 573.164C1330.86 573.51 1331 573.824 1331.13 574.091L1331.65 573.369C1331.61 572.464 1331.56 571.309 1331.51 569.903C1331.39 566.169 1331.28 560.749 1331.33 554.089L1341.14 543.783L1341.64 543.253L1342.09 542.785L1342.38 542.482C1342.62 542.226 1342.65 541.852 1342.49 541.56C1342.45 541.49 1342.41 541.42 1342.35 541.36C1342.31 541.325 1342.26 541.306 1342.21 541.277C1342.17 541.247 1342.13 541.212 1342.07 541.193C1341.79 541.087 1341.45 541.152 1341.23 541.39L1331.36 551.759C1331.45 545.6 1331.68 538.508 1332.18 530.781L1350.82 515.443C1349.25 520.526 1347.54 525.922 1345.81 531.319C1344.73 534.671 1343.65 538.024 1342.57 541.298C1342.86 541.395 1343.09 541.658 1343.12 541.979L1344.41 555.717L1353.65 542.934L1349.98 521.218L1349.77 520.017C1349.7 519.585 1349.99 519.176 1350.42 519.101C1350.58 519.076 1350.73 519.114 1350.87 519.174C1351.1 519.279 1351.29 519.479 1351.34 519.752L1354.96 541.131L1363.33 529.556L1359.14 502.149L1358.99 501.118C1358.92 500.686 1359.22 500.28 1359.65 500.215C1359.83 500.188 1360 500.234 1360.15 500.315C1360.36 500.429 1360.52 500.626 1360.55 500.88L1364.66 527.726L1375.94 512.117L1371.3 483.231L1371.19 482.517C1371.12 482.087 1371.41 481.679 1371.84 481.609C1372.08 481.568 1372.3 481.644 1372.46 481.784C1372.61 481.903 1372.72 482.068 1372.75 482.266L1377.25 510.297L1390.93 491.388L1387.75 468.947L1387.71 468.704C1387.65 468.271 1387.95 467.868 1388.39 467.809C1388.75 467.752 1389.09 467.974 1389.22 468.304C1389.24 468.36 1389.28 468.417 1389.28 468.482L1392.26 489.536L1405.94 470.618C1405.95 470.61 1405.96 470.604 1405.97 470.594C1406.23 470.266 1406.7 470.188 1407.05 470.44C1407.41 470.696 1407.48 471.191 1407.23 471.548L1407.18 471.605L1393.47 490.577L1413.77 488.005C1413.78 488.005 1413.79 488.008 1413.8 488.008C1414.23 487.973 1414.61 488.268 1414.66 488.692C1414.72 489.128 1414.41 489.522 1413.97 489.579L1413.93 489.584L1392.2 492.337L1378.7 511.003L1412.22 502.413C1412.36 502.376 1412.49 502.392 1412.62 502.43C1412.89 502.5 1413.11 502.697 1413.19 502.984C1413.3 503.408 1413.04 503.841 1412.62 503.949L1412.17 504.065L1377.25 513.012L1366.05 528.502L1403.98 519.639C1404.2 519.587 1404.42 519.641 1404.6 519.76C1404.76 519.869 1404.88 520.028 1404.93 520.228C1405.03 520.658 1404.76 521.083 1404.34 521.183L1403.44 521.391L1364.63 530.464L1356.26 542.039L1374.72 539.038C1375.09 538.978 1375.44 539.195 1375.57 539.53C1380.02 537.783 1384.73 536.453 1389.65 535.718C1389.7 535.71 1389.75 535.699 1389.81 535.693L1382.51 553.933C1376.63 555.428 1371.08 557.136 1365.95 558.918L1368.77 551.948L1373.13 541.163C1373.17 541.076 1373.18 540.987 1373.18 540.895L1371.87 541.109L1371.41 541.185L1354.94 543.861L1345.85 556.444L1348.69 555.579C1349 555.487 1349.32 555.593 1349.51 555.822C1351.16 554.398 1352.89 552.967 1354.72 551.564L1348.5 565.445L1348.28 565.926C1347.6 566.229 1346.95 566.526 1346.3 566.824C1341.98 568.814 1338.43 570.617 1335.8 572.023C1335.48 572.193 1335.18 572.358 1334.89 572.518C1334.69 572.626 1334.5 572.726 1334.31 572.829C1334.13 572.929 1333.96 573.023 1333.79 573.118L1333.25 573.864L1332.39 575.057C1332.45 575.065 1332.52 575.075 1332.58 575.089C1332.74 575.113 1332.9 575.14 1333.08 575.173C1333.12 575.181 1333.16 575.186 1333.2 575.197C1333.23 575.2 1333.27 575.205 1333.3 575.213C1333.71 575.286 1334.17 575.373 1334.68 575.478C1334.71 575.484 1334.75 575.492 1334.78 575.497C1335.03 575.549 1335.29 575.605 1335.56 575.662C1335.81 575.716 1336.07 575.773 1336.33 575.833C1338.41 576.3 1341.01 576.971 1343.99 577.925L1366.22 573.524L1369.45 572.883C1367.51 572.718 1365.39 572.631 1363.17 572.61C1363.18 572.307 1363.01 572.018 1362.71 571.882L1350.89 566.494C1354.94 564.726 1359.52 562.876 1364.53 561.084L1382.14 572.396C1382.04 572.407 1381.95 572.42 1381.85 572.429L1372.87 573.059C1372.89 573.14 1372.89 573.218 1372.87 573.294C1372.82 573.61 1372.59 573.88 1372.25 573.945L1347.01 578.942C1350.61 580.221 1354.62 581.878 1358.82 584.019L1387.2 580.502L1387.74 580.434C1388.18 580.375 1388.57 580.688 1388.62 581.124C1388.66 581.402 1388.53 581.656 1388.33 581.824C1388.22 581.919 1388.09 581.989 1387.94 582.008L1361.28 585.314C1365.6 587.669 1370.08 590.535 1374.5 594.023L1392.9 591.76L1392.96 591.752C1393.39 591.687 1393.79 592.009 1393.84 592.444ZM1332.36 598.59H1333.95L1334.58 581.102C1334.02 580.275 1333.51 579.526 1333.07 578.858L1332.36 598.59ZM1350.93 563.909L1350.45 564.969C1354.47 563.22 1359 561.395 1363.95 559.621L1366.38 553.624L1371.34 541.35C1366.01 543.84 1361.09 546.879 1356.66 550.118C1356.82 550.339 1356.88 550.634 1356.76 550.904L1350.93 563.909ZM1334.82 574.356C1334.72 574.41 1334.64 574.459 1334.55 574.508C1334.17 574.719 1333.83 574.911 1333.52 575.089C1333.86 575.024 1334.22 574.954 1334.6 574.889C1334.67 574.878 1334.73 574.865 1334.8 574.854C1335.24 574.778 1335.69 574.7 1336.16 574.627C1342.43 573.634 1351.91 572.712 1360.49 572.612L1348.95 567.351C1343.45 569.817 1339.05 572.066 1336.03 573.697C1335.6 573.929 1335.2 574.154 1334.82 574.356ZM1409.82 535.899L1400.84 550.226C1410.2 548.844 1420.05 548.19 1430.12 548.685C1429.3 543.283 1424.17 537.367 1409.93 535.569C1409.92 535.685 1409.88 535.796 1409.82 535.899ZM1384.41 553.454C1389.02 552.329 1393.82 551.337 1398.77 550.545L1408.27 535.385C1404.61 535.023 1400.4 534.917 1395.55 535.136C1394.19 535.201 1392.83 535.315 1391.49 535.474C1391.51 535.601 1391.5 535.731 1391.45 535.861L1384.41 553.454ZM1385.34 554.846L1405.21 567.665C1405.39 567.775 1405.49 567.946 1405.54 568.132C1411.82 566.467 1416.67 564.609 1420.33 562.69L1399.18 552.072C1394.42 552.829 1389.79 553.773 1385.34 554.846ZM1430.17 550.274C1420.46 549.782 1410.95 550.374 1401.9 551.661L1421.54 561.522C1421.68 561.598 1421.78 561.711 1421.86 561.846C1425.26 559.859 1427.45 557.839 1428.65 555.928C1429.61 554.414 1430.24 552.424 1430.24 550.266C1430.21 550.269 1430.19 550.28 1430.17 550.274ZM1366.43 560.413L1383.8 571.577C1384.01 571.707 1384.12 571.92 1384.15 572.145C1391.78 571.163 1398.26 569.955 1403.73 568.597L1383.22 555.368C1377.25 556.88 1371.62 558.607 1366.43 560.413ZM1315.27 506.258L1318.77 511.23L1330.69 528.158C1330.89 525.184 1331.14 522.129 1331.43 519.006C1331.66 516.535 1331.92 513.977 1332.22 511.352L1315.38 485.48C1314.88 489.771 1314.57 494.319 1314.51 499.142C1314.48 501.351 1314.51 503.614 1314.59 505.939C1314.85 505.931 1315.11 506.031 1315.27 506.258ZM1332.23 439.217L1341.06 464.794C1343.22 457.121 1345.78 449.491 1348.83 442.134L1345.25 425.012C1340.68 428.494 1335.82 433.345 1331.92 438.836C1332.06 438.928 1332.18 439.052 1332.23 439.217ZM1349.92 439.579C1352.97 432.558 1356.48 425.82 1360.54 419.591C1358.67 419.156 1356.67 419.158 1354.65 419.737C1352.4 420.383 1349.59 421.886 1346.59 424.025C1346.65 424.112 1346.7 424.214 1346.73 424.325L1349.92 439.579ZM1357.22 494.078C1359.2 487.57 1361.28 480.862 1363.16 473.998L1336.73 491.439C1335.67 497.544 1334.8 503.587 1334.1 509.459L1356.55 494.17C1356.76 494.032 1357 494.013 1357.22 494.078ZM1368.18 450.811C1368.97 445.414 1369.45 439.947 1369.49 434.432L1350.29 442.751C1347.22 450.137 1344.64 457.856 1342.47 465.689L1367.67 450.9C1367.83 450.805 1368.01 450.786 1368.18 450.811ZM1369.5 432.704C1369.49 431.952 1369.47 431.206 1369.45 430.457C1369.3 425.558 1366.21 421.657 1362.07 420.061C1362.05 420.116 1362.04 420.175 1362.01 420.229C1357.88 426.556 1354.29 433.429 1351.19 440.631L1369.5 432.704ZM1332.32 528.607L1350.74 513.455C1350.96 513.28 1351.23 513.247 1351.48 513.323C1352.62 509.595 1353.68 506.066 1354.6 502.87C1355.25 500.618 1355.93 498.339 1356.63 496.035L1333.87 511.541C1333.2 517.449 1332.7 523.17 1332.32 528.607ZM1321.48 461.152L1335.58 488.608C1336.86 481.692 1338.42 474.595 1340.32 467.503L1330.92 440.288C1330.28 441.258 1329.66 442.243 1329.09 443.243C1326.35 448.01 1323.49 453.823 1321.04 460.768C1321.22 460.833 1321.39 460.963 1321.48 461.152ZM1332.51 508.889C1333.19 503.238 1334.05 497.295 1335.12 491.18L1320.42 462.564C1318.38 468.674 1316.68 475.623 1315.63 483.482C1315.85 483.509 1316.06 483.623 1316.19 483.826L1332.51 508.889ZM1363.67 472.078C1365.37 465.708 1366.86 459.206 1367.91 452.598L1341.87 467.879C1339.97 474.984 1338.41 482.171 1337.12 489.282L1363.03 472.175C1363.23 472.048 1363.46 472.024 1363.67 472.078ZM1248.18 516.202C1248.15 516.137 1248.14 516.067 1248.13 516.002C1242.46 517.019 1237.18 519.65 1234.05 523.854L1257.6 536.223L1248.18 516.202ZM1281.08 548.547L1270.96 520.382C1270.9 520.185 1270.91 519.982 1270.99 519.804C1267.2 518.187 1263.32 516.916 1259.37 516.102C1256.29 515.467 1252.97 515.359 1249.73 515.764L1259.93 537.445L1281.08 548.547ZM1281.37 567.992L1301.52 561.076L1281.28 550.45L1252.71 560.037C1261.94 563.606 1271.6 566.394 1280.87 568.565C1280.93 568.308 1281.1 568.086 1281.37 567.992ZM1233.23 525.211C1233.21 525.203 1233.19 525.184 1233.17 525.171C1232.34 526.59 1231.72 528.164 1231.39 529.894C1230.64 533.887 1230.9 538.886 1232.78 543.675C1232.81 543.661 1232.85 543.634 1232.89 543.626L1257.1 537.748L1233.23 525.211ZM1279.34 549.425L1251.31 558.837C1251.08 558.913 1250.92 559.091 1250.84 559.299C1249.27 558.672 1247.72 558.021 1246.18 557.347C1239.71 554.503 1235.68 549.991 1233.41 545.132L1259.22 538.868L1279.34 549.425Z" fill="#378E66"/>
  <path d="M1255.05 696.196C1255.05 695.755 1255.4 695.404 1255.85 695.404H1400.56C1401 695.404 1401.36 695.755 1401.36 696.196C1401.36 696.634 1401 696.988 1400.56 696.988H1255.85C1255.4 696.988 1255.05 696.634 1255.05 696.196ZM1381.72 763.031H1329.4V708.676H1365.36L1381.72 763.031ZM1327.81 763.031H1275.49L1291.84 708.676H1327.81V763.031ZM1400.56 707.089H1255.85C1255.4 707.089 1255.05 707.443 1255.05 707.884C1255.05 708.319 1255.4 708.676 1255.85 708.676H1290.19L1258.43 814.231C1258.3 814.648 1258.54 815.091 1258.96 815.218C1259.04 815.24 1259.11 815.251 1259.19 815.251C1259.53 815.251 1259.85 815.029 1259.95 814.686L1275.01 764.619H1327.81V814.459C1327.81 814.897 1328.17 815.251 1328.6 815.251C1329.04 815.251 1329.4 814.897 1329.4 814.459V764.619H1382.2L1397.26 814.686C1397.36 815.029 1397.68 815.251 1398.02 815.251C1398.1 815.251 1398.17 815.24 1398.25 815.218C1398.67 815.091 1398.91 814.648 1398.78 814.231L1367.02 708.676H1400.56C1401 708.676 1401.36 708.319 1401.36 707.884C1401.36 707.443 1401 707.089 1400.56 707.089Z" fill="#25201F"/>
  <rect x="1023.33" y="57" width="320" height="347" rx="9" fill="#1EB3FB"/>
  <rect x="1047.33" y="82" width="273" height="156" rx="20" fill="url(#paint0_linear)"/>
  <rect x="1047.33" y="268" width="273" height="115" rx="20" fill="url(#paint1_linear)"/>
  <line x1="1230.98" y1="348" x2="1156.81" y2="348" stroke="#48BDFD" stroke-width="6"/>
  <ellipse cx="978.625" cy="14.9282" rx="15.375" ry="14.9282" fill="#EBD5C9"/>
  <ellipse cx="978.625" cy="14.9282" rx="15.375" ry="14.9282" fill="#EBD5C9"/>
  <ellipse cx="978.625" cy="14.9282" rx="15.375" ry="14.9282" fill="url(#paint2_linear)"/>
  <ellipse cx="871.75" cy="117.969" rx="24.75" ry="24.0308" fill="#EBD5C9"/>
  <ellipse cx="871.75" cy="117.969" rx="24.75" ry="24.0308" fill="#EBD5C9"/>
  <ellipse cx="871.75" cy="117.969" rx="24.75" ry="24.0308" fill="url(#paint3_linear)"/>
  <path fill-rule="evenodd" clip-rule="evenodd" d="M699.707 596.044L757.543 765.764L750.074 765.554L683.338 595.833L699.707 596.044Z" fill="#4B3361"/>
  <path fill-rule="evenodd" clip-rule="evenodd" d="M631.144 590.074L656.279 759.794L648.848 759.584L614.82 589.867L631.144 590.074Z" fill="#974351"/>
  <path fill-rule="evenodd" clip-rule="evenodd" d="M515.005 576.093L461.957 745.813L469.422 745.603L531.367 575.883L515.005 576.093Z" fill="#974351"/>
  <path fill-rule="evenodd" clip-rule="evenodd" d="M550.148 609.927L516.684 779.647L524.122 779.437L566.483 609.716L550.148 609.927Z" fill="#4B3361"/>
  <path fill-rule="evenodd" clip-rule="evenodd" d="M603.974 367.493C618.55 376.371 633.125 385.249 647.701 394.128C654.672 405.223 661.644 416.322 668.615 427.417C670.008 436.791 663.037 437.279 664.429 446.653C663.87 461.859 671.601 487.468 689.144 492.886C712.836 500.205 730.718 494.858 745.803 488.452C749.858 502.136 753.916 515.82 757.971 529.507C741.999 554.658 726.027 579.813 710.062 604.967C696.493 607.432 682.936 609.897 669.371 612.365C656.192 613.101 643.01 613.845 629.831 614.586C613.353 613.101 596.875 611.625 580.398 610.144C555.556 597.689 530.714 585.238 505.872 572.787C493.959 557.247 482.045 541.715 470.131 526.182C463.793 506.697 457.454 487.216 451.119 467.739C454.669 454.664 458.218 441.596 461.763 428.529C473.804 418.414 485.845 408.304 497.886 398.197C533.249 387.962 568.611 377.731 603.974 367.493Z" fill="#E99C22"/>
  <path fill-rule="evenodd" clip-rule="evenodd" d="M1053.81 620.582L1022.64 775.45L1029.86 776.07L1068.44 620.372L1053.81 620.582Z" fill="#974351"/>
  <path fill-rule="evenodd" clip-rule="evenodd" d="M1092.36 624.85L1115.91 769.882L1108.07 770.713L1076.87 620.27L1092.36 624.85Z" fill="#974351"/>
  <path fill-rule="evenodd" clip-rule="evenodd" d="M652.651 622.479C644.649 634.6 636.748 646.785 628.646 658.842C626.841 661.528 625.355 664.594 628.044 666.717C631.59 669.508 635.706 671.631 639.923 673.318C646.339 675.888 653.395 678.578 659.773 681.238C670.583 685.751 680.313 690.778 691.331 694.776C701.748 698.548 703.187 693.956 700.664 690.981C694.865 684.128 687.408 678.781 680.645 672.822C674.333 667.265 671.281 661.246 671.312 654.833C671.343 647.773 673.349 640.856 674.368 633.868C667.126 630.073 659.888 626.278 652.651 622.479Z" fill="#4B3361"/>
  <path fill-rule="evenodd" clip-rule="evenodd" d="M784.006 708.271C785.483 722.53 787.088 736.804 788.454 751.04C788.759 754.218 789.565 757.607 793.13 758.449C797.825 759.557 802.548 759.824 807.058 759.659C813.933 759.407 821.398 759.001 828.3 758.847C839.99 758.588 851.151 759.231 862.675 758.415C873.562 757.641 871.718 752.885 867.725 751.19C858.543 747.301 849.01 745.449 839.639 742.763C830.896 740.253 824.484 736.011 820.298 730.165C815.7 723.732 812.779 716.628 809.017 709.861C800.68 709.331 792.339 708.801 784.006 708.271Z" fill="#4B3361"/>
  <path fill-rule="evenodd" clip-rule="evenodd" d="M654.978 518.811C654.978 518.811 721.66 485.683 744.268 477.572C766.872 469.456 790.799 481.84 786.853 502.974C782.898 524.12 757.215 562.334 757.215 562.334C757.215 562.334 776.1 566.388 785.093 593.511C794.09 620.623 821.309 719.273 821.309 719.273L783.558 728.241C783.558 728.241 745.587 627.886 739.877 614.86C734.171 601.841 723.851 602.694 723.851 602.694L681.494 646.251L647.474 625.324L661.513 601.623L599.843 605.895C599.843 605.895 551.606 592.715 546.721 566.182C541.849 539.648 654.978 518.811 654.978 518.811Z" fill="#50BDFD"/>
  <path fill-rule="evenodd" clip-rule="evenodd" d="M972.952 541.749C972.952 541.749 923.92 547.042 929.132 581.38C934.344 615.705 988.824 704.883 994.503 716.631C1000.19 728.384 996.644 762.95 994.267 769.168C1002.8 763.179 1003.28 743.597 1009.67 735.068C1016.06 726.543 1021.51 727.231 1021.51 727.231C1021.51 727.231 1015.83 722.162 1014.65 712.021C1013.46 701.884 1004.45 637.599 980.062 597.96C985.741 597.502 992.855 597.043 992.855 597.043C992.855 597.043 973.901 565.479 972.952 541.749Z" fill="#F08B78"/>
  <path fill-rule="evenodd" clip-rule="evenodd" d="M1068.37 372.238C1073.23 374.455 1078.1 376.679 1082.97 378.9C1097.78 402.533 1109.56 431.828 1118.56 466.341C1109.12 473.886 1099.69 481.43 1090.26 488.978C1082.97 450.065 1075.66 411.152 1068.37 372.238Z" fill="#313062"/>
  <path fill-rule="evenodd" clip-rule="evenodd" d="M986.27 374.312C986.27 374.312 966.691 379.013 961.614 402.999C956.54 426.985 946.378 477.549 946.378 477.549L929.403 459.826L910.074 471.075C910.074 471.075 935.989 528.114 952.671 524.585C969.349 521.057 981.675 470.963 981.675 470.963C981.675 470.963 990.865 476.373 998.608 478.026C1006.34 479.668 1018.43 504.834 1019.63 517.06C1020.84 529.29 1006.04 532.28 1006.04 532.28L949.052 545.975C949.052 545.975 945.344 580.823 968.955 601.27C993.396 616.761 1018.89 604.776 1018.89 604.776L1100.27 468.34C1100.27 468.34 1089.69 417.772 1073.78 388.654C1064.59 354.316 1010.93 345.615 986.27 374.312Z" fill="#304D89"/>
  <path fill-rule="evenodd" clip-rule="evenodd" d="M561.515 294.13C561.515 294.13 568.883 291.406 570.361 282.663C571.835 273.909 565.35 269.032 565.94 262.152C566.526 255.277 574.489 247.39 565.789 235.341C557.097 223.303 545.303 229.322 538.814 229.175C532.336 229.036 518.482 219.136 503.15 230.321C487.826 241.51 486.935 250.539 489.732 261.867C481.781 268.754 479.57 279.075 485.461 286.815C491.364 294.558 498.289 297.571 498.575 303.019C498.876 308.46 502.41 329.97 523.633 322.083C544.86 314.201 561.515 294.13 561.515 294.13Z" fill="#4B3361"/>
  <path fill-rule="evenodd" clip-rule="evenodd" d="M513.014 533.22C513.014 533.22 535.375 536.312 552.161 557.198C568.936 578.077 595.803 614.95 656.633 609.863L653.033 615.942C653.033 615.942 604.723 623.058 557.933 617.482C511.139 611.903 447.378 557.01 426.043 501.445C404.712 445.883 425.981 383.247 487.833 373.621C466.182 433.169 449.754 506.288 513.014 533.22Z" fill="#FABB33"/>
  <path fill-rule="evenodd" clip-rule="evenodd" d="M981.258 322.245L984.233 346.498C984.233 346.498 968.639 366.4 978.222 383.183C987.817 399.974 1007.62 391.727 1018.49 397.017C1029.36 402.3 1049.33 409.919 1062.59 401.526C1075.86 393.132 1094.55 384.896 1089.11 365.299C1083.68 345.72 1053.64 338.254 1051.4 315.876C1049.17 293.491 1060.67 258.523 1028.25 245.151C995.795 231.79 956.582 250.937 971.305 277.444C979.345 304.838 981.258 322.245 981.258 322.245Z" fill="#4B3361"/>
  <path fill-rule="evenodd" clip-rule="evenodd" d="M1040.29 604.509V624.215L1127.88 625.275L1128.75 596.457L1040.29 604.509Z" fill="#4B3361"/>
  <path fill-rule="evenodd" clip-rule="evenodd" d="M1068.44 620.372L1050.84 790.092L1058.26 789.882L1084.76 620.165L1068.44 620.372Z" fill="#4B3361"/>
  <path fill-rule="evenodd" clip-rule="evenodd" d="M1111.9 619.342L1148.77 782.052L1141.14 783.908L1099.17 620.578L1111.9 619.342Z" fill="#4B3361"/>
  <path fill-rule="evenodd" clip-rule="evenodd" d="M1008.82 727.355C1008.82 727.355 1016.78 723.327 1021.51 727.231C1026.25 731.138 1026.97 735.342 1021.49 749.203C1016.03 763.074 1015.59 775.815 1004.65 778.336C993.705 780.861 981.908 782.961 981.757 777.359C981.614 771.757 994.269 769.168 994.269 769.168C994.269 769.168 1000.46 733.715 1008.82 727.355Z" fill="#2E1F3F"/>
  <path fill-rule="evenodd" clip-rule="evenodd" d="M984.921 731.581C984.921 731.581 992.884 727.554 997.61 731.457C1002.35 735.365 1003.07 739.569 997.594 753.429C992.128 767.301 991.695 780.038 980.75 782.563C969.809 785.088 958.003 787.188 957.861 781.586C957.718 775.984 970.376 773.395 970.376 773.395C970.376 773.395 976.557 737.939 984.921 731.581Z" fill="#4B3361"/>
  <path fill-rule="evenodd" clip-rule="evenodd" d="M536.981 354.674L520.365 355.786C520.365 355.786 481.028 368.707 469.061 396.995C457.101 425.29 432.081 493.972 440.858 519.014C449.635 544.052 517.915 541.369 557.085 538.743L563.787 523.782C563.787 523.782 501.132 510.646 478.845 499.754C489.119 458.237 496.58 444.91 496.58 444.91C496.58 444.91 509.574 520.614 552.163 557.198C620.781 562.545 644.512 536.158 654.979 518.811C642.78 479.924 635.835 431.151 635.835 431.151C635.835 431.151 670.141 476.877 690.839 482.606C711.553 488.336 730.635 464.32 722.186 369.841L703.879 367.955C703.879 367.955 696.75 434.525 690.23 436.321C683.694 438.11 659.852 378.329 632.953 361.97C606.048 345.611 565.735 347.865 565.735 347.865L536.981 354.674Z" fill="#FDE8E5"/>
  <path fill-rule="evenodd" clip-rule="evenodd" d="M961.504 552.468C961.504 552.468 960.578 609.284 1051.02 612.707C1141.46 616.141 1181.16 595.146 1192.93 551.337C1204.71 507.524 1196 474.498 1176.74 462.313C1157.48 450.133 1111.21 450.215 1084.2 462.483C1057.19 474.75 1046.1 480.063 1046.65 504.638C1047.21 529.222 1037.57 537.056 1012.99 533.389C988.414 529.71 963.545 522.181 961.504 552.468Z" fill="#FDE7E2"/>
  <path fill-rule="evenodd" clip-rule="evenodd" d="M553.451 260.097C553.451 260.097 575.044 299.833 564.701 319.818C554.365 339.817 525.924 336.045 514.678 318.563C509.516 306.119 512.872 299.202 511.711 290.271C510.546 281.348 504.601 274.307 508.482 268.521C512.359 262.734 540.924 269.152 553.451 260.097Z" fill="#F9B09B"/>
  <path fill-rule="evenodd" clip-rule="evenodd" d="M520.363 355.786C520.363 355.786 559.144 390.619 564.827 386.591C570.518 382.567 565.734 347.865 565.734 347.865C565.734 347.865 558.11 346.483 557.204 341.448C556.305 336.421 553.978 326.987 553.978 326.987L523.056 327.22C523.056 327.22 528.38 350.886 520.363 355.786Z" fill="#F9B09B"/>
  <path fill-rule="evenodd" clip-rule="evenodd" d="M703.879 367.951C703.879 367.951 707.776 359.287 719.373 355.109C730.985 350.92 755.642 333.208 753.643 341.437C751.653 349.661 740.248 362.424 722.185 369.841C712.88 372.043 703.879 367.951 703.879 367.951Z" fill="#F9B09B"/>
  <path fill-rule="evenodd" clip-rule="evenodd" d="M958.671 293.465C957.637 304.586 960.538 312.536 968.138 316.688C968.277 315.354 968.412 314.017 968.551 312.687C963.625 309.046 961.831 303.312 962.239 296.102C961.047 295.223 959.863 294.348 958.671 293.465Z" fill="#CB3455"/>
  <path fill-rule="evenodd" clip-rule="evenodd" d="M971.302 277.444C971.302 277.444 955.511 335.963 984.23 346.498C998.675 332.157 980.924 294.859 982.876 284.763C976.568 282.569 971.302 277.444 971.302 277.444Z" fill="#F9B09B"/>
  <path fill-rule="evenodd" clip-rule="evenodd" d="M983.612 293.465C975.302 293.465 966.988 293.465 958.674 293.465C958.724 294.352 958.766 295.246 958.813 296.132C967.258 296.099 975.707 296.065 984.16 296.031C983.971 295.174 983.793 294.318 983.612 293.465Z" fill="#CB3455"/>
  <path fill-rule="evenodd" clip-rule="evenodd" d="M910.074 471.072C910.074 471.072 921.93 468.723 929.403 459.823C921.324 444.873 916.76 428.315 905.429 426.827C894.11 425.343 883.612 424.685 875.568 423.212C867.524 421.74 871.004 424.873 876.567 426.74C882.13 428.596 891.517 427.98 887.628 430.047C883.751 432.109 875.927 432.831 869.233 431.531C862.536 430.246 852.563 428.931 855.086 432.143C857.593 435.363 866.131 439.357 872.782 440.958C879.438 442.547 896.332 439.015 899.426 440.345C902.516 441.679 910.074 471.072 910.074 471.072Z" fill="#F9B09B"/>
  <path fill-rule="evenodd" clip-rule="evenodd" d="M949.051 545.975C949.051 545.975 900.019 551.269 905.232 585.606C910.44 619.936 964.923 709.113 970.602 720.858C976.293 732.611 972.743 767.177 970.371 773.395C978.905 767.406 979.375 747.824 985.768 739.295C992.161 730.77 997.608 731.457 997.608 731.457C997.608 731.457 991.933 726.389 990.741 716.248C989.557 706.115 980.56 641.825 956.161 602.191C961.841 601.732 968.955 601.27 968.955 601.27C968.955 601.27 950 569.706 949.051 545.975Z" fill="#F9B09B"/>
  <path fill-rule="evenodd" clip-rule="evenodd" d="M523.057 327.219C523.057 327.219 536.205 336.259 554.662 329.872C555.314 332.615 555.572 333.761 555.572 333.761C555.572 333.761 536.155 347.677 524.719 339.81C524.06 332.942 523.057 327.219 523.057 327.219Z" fill="#F08B78"/>
  <path fill-rule="evenodd" clip-rule="evenodd" d="M981.676 470.963C981.676 470.963 990.866 476.373 998.609 478.026C1006.34 479.668 1018.43 504.83 1019.63 517.056C1015.44 471.173 1015.56 475.885 990.746 436.611C989.207 435.679 988.088 435.882 987.54 437.572C985.584 448.701 983.632 459.83 981.676 470.963Z" fill="#313062"/>
  <path fill-rule="evenodd" clip-rule="evenodd" d="M757.216 562.334C757.216 562.334 761.004 563.15 765.997 566.486C754.546 570.055 745.48 587.338 737.428 610.423C731.641 602.052 723.852 602.694 723.852 602.694C734.97 589.24 746.097 575.789 757.216 562.334Z" fill="#313062"/>
  <path fill-rule="evenodd" clip-rule="evenodd" d="M661.513 601.623L658.492 601.834C665.641 577.851 694.784 555.665 684.086 552.573C677.886 550.781 671.466 550.409 665 550.473C658.044 550.548 652.963 554.767 647.319 557.78C645.749 558.618 644.534 558.1 646.108 557.07C654.449 551.619 662.423 546.449 666.937 539.164C667.959 537.518 669.414 537.909 668.635 539.4C666.756 543.003 663.97 547.407 667.423 547.647C676.486 548.29 681.281 548.132 689.522 547.997C689.522 547.997 700.22 544.743 709.375 534.929C718.091 525.589 740.645 501.434 738.148 508.771C710.386 537.762 684.672 568.56 661.513 601.623Z" fill="#313062"/>
  <path fill-rule="evenodd" clip-rule="evenodd" d="M1058.06 612.925C1143.53 615.014 1181.47 593.989 1192.93 551.337C1204.71 507.524 1196 474.498 1176.74 462.314C1170.95 458.654 1162.73 456.103 1153.32 454.653C1174.75 557.75 1135.87 603.761 1058.06 612.925Z" fill="#EBC7CC"/>
  <path fill-rule="evenodd" clip-rule="evenodd" d="M536.015 539.907C543.554 539.599 550.706 539.171 557.084 538.743L563.785 523.781C563.785 523.781 541.98 519.209 519.522 513.224L519.53 513.235L519.483 513.141C513.411 500.036 518.311 510.778 512.851 498.717L512.844 498.695C566.52 513.9 579.699 506.81 605.818 553.779C591.933 557.322 574.406 558.93 552.161 557.198C547.25 552.975 542.74 548.237 538.592 543.154C538.611 543.142 539.017 543.574 536.065 539.968C535.575 539.329 535.093 538.683 534.615 538.036C535.147 538.822 535.618 539.46 536.015 539.907Z" fill="#EBC7CC"/>
  <path fill-rule="evenodd" clip-rule="evenodd" d="M548.924 312.01C552.199 311.274 554.858 312.025 554.858 313.686C554.858 315.339 552.199 317.282 548.924 318.014C545.652 318.751 542.998 317.999 542.998 316.342C542.998 314.685 545.652 312.743 548.924 312.01Z" fill="#CB3455"/>
  <path fill-rule="evenodd" clip-rule="evenodd" d="M563.785 523.782C561.551 528.767 559.317 533.753 557.083 538.743C548.638 539.186 540.193 539.63 531.748 540.073C525.49 534.584 519.228 529.094 512.971 523.605C515.154 520.145 517.338 516.684 519.522 513.224C534.275 516.741 549.032 520.261 563.785 523.782Z" fill="#FDE7E2"/>
  <path fill-rule="evenodd" clip-rule="evenodd" d="M563.786 523.781C563.786 523.781 583.69 537.657 588.794 546.005C593.894 554.354 596.467 574.158 594.353 577.953C592.231 581.751 577.767 566.922 576.274 560.136C574.777 553.351 559.338 544.209 557.085 538.743C554.812 533.283 559.322 520.52 563.786 523.781Z" fill="#F8B09D"/>
  <path fill-rule="evenodd" clip-rule="evenodd" d="M635.833 431.148L626.574 396.397L649.063 447.413L635.833 431.148Z" fill="#EBC7CC"/>
  <path fill-rule="evenodd" clip-rule="evenodd" d="M496.578 444.91L500.807 434.491C500.807 434.491 523.006 494.55 531.366 506.299C519.53 513.235 519.53 513.235 519.53 513.235C519.53 513.235 498.584 472.86 496.578 444.91Z" fill="#EBC7CC"/>
  <path d="M249.231 826.732C249.231 826.975 249.221 827.216 249.215 827.459C249.125 831.192 248.981 835.014 248.75 838.859C248.702 839.596 248.654 840.33 248.606 841.067C248.411 844.127 248.148 847.209 247.844 850.259C247.642 852.265 247.421 854.264 247.161 856.241C246.623 860.599 245.963 864.873 245.152 868.974C245.111 869.23 245.059 869.496 245.005 869.736C244.188 873.879 243.223 877.836 242.105 881.521C241.878 882.296 241.634 883.068 241.378 883.824C240.199 887.41 238.866 890.7 237.373 893.6C236.117 896.035 234.739 898.195 233.24 900.046C232.615 900.809 231.977 901.504 231.317 902.155C214.765 918.329 158.608 915.922 137 900.338C135.821 899.483 134.738 898.595 133.774 897.666C133.774 897.666 133.54 896.266 133.136 893.767C132.733 891.357 132.185 887.945 131.522 883.783C131.409 883.033 131.284 882.261 131.166 881.47C130.647 878.169 130.077 874.469 129.474 870.509C129.439 870.252 129.397 870.009 129.356 869.752C128.785 865.956 128.189 861.925 127.593 857.753C127.302 855.748 127.004 853.71 126.719 851.656C126.254 848.359 125.796 845.008 125.354 841.65C125.254 840.887 125.152 840.115 125.056 839.346C124.569 835.697 124.117 832.047 123.681 828.465C123.652 828.215 123.627 827.959 123.598 827.709C123.111 823.624 122.662 819.632 122.281 815.816C122.073 813.733 121.877 811.708 121.704 809.751C121.39 806.207 121.14 802.875 120.99 799.85C120.942 799.072 120.907 798.325 120.871 797.588C120.692 793.244 120.718 789.642 121.003 787.069V787.057C121.032 786.826 121.067 786.598 121.121 786.374C122.98 778.508 141.662 773.955 164.068 772.283C167.599 772.02 171.223 771.825 174.878 771.7C175.462 771.68 176.035 771.658 176.618 771.645C180.678 771.539 184.776 771.514 188.842 771.568C217.242 771.962 244.242 776.384 246.405 784.058C246.546 784.551 246.677 785.105 246.815 785.701C246.863 785.932 246.911 786.166 246.953 786.409C247.53 789.184 248.023 792.946 248.411 797.422C248.475 798.136 248.529 798.851 248.584 799.587C248.792 802.349 248.959 805.339 249.084 808.517C249.154 810.391 249.215 812.34 249.244 814.339C249.321 818.293 249.321 822.458 249.231 826.732Z" fill="#F5B334"/>
  <path d="M249.243 814.339C222.022 819.805 198.213 821.561 178.873 821.561C167.733 821.561 158.076 820.978 150.105 820.196C138.275 819.023 128.92 817.309 122.281 815.816C122.073 813.733 121.877 811.708 121.704 809.751C140.329 814.131 185.852 821.394 249.083 808.517C249.154 810.391 249.215 812.339 249.243 814.339Z" fill="#742D7E"/>
  <path d="M247.845 850.259C247.643 852.265 247.422 854.264 247.162 856.241C221.517 861.127 199.006 862.723 180.579 862.723C169.433 862.723 159.782 862.14 151.814 861.348C141.99 860.377 133.874 859.032 127.594 857.753C127.303 855.748 127.005 853.71 126.72 851.656C146.767 855.956 189.599 861.653 247.845 850.259Z" fill="#742D7E"/>
  <path d="M237.373 893.6C236.117 896.035 234.74 898.194 233.24 900.046C214.009 902.885 196.874 903.882 182.28 903.882C171.14 903.882 161.476 903.292 153.505 902.517C147.318 901.898 141.8 901.136 137.001 900.338C135.822 899.482 134.739 898.595 133.774 897.666C133.774 897.666 133.54 896.266 133.137 893.766C153.095 897.541 189.383 901.357 237.373 893.6Z" fill="#742D7E"/>
  <g filter="url(#filter0_d)">
    <path d="M249.231 826.731C249.231 826.975 249.221 827.215 249.215 827.459C223.291 832.579 200.363 834.351 181.059 834.351C154.565 834.351 134.892 831.025 123.681 828.465C123.652 828.215 123.626 827.959 123.598 827.709C142.764 832.114 187.496 838.948 249.231 826.731Z" fill="#742D7E"/>
  </g>
  <g filter="url(#filter1_d)">
    <path d="M245.152 868.974C245.11 869.23 245.059 869.496 245.005 869.736C221.494 874.004 200.587 875.51 182.757 875.51C159.227 875.51 141.092 872.889 129.474 870.508C129.439 870.252 129.397 870.009 129.355 869.752C149.64 873.943 190.347 878.967 245.152 868.974Z" fill="#742D7E"/>
  </g>
  <g filter="url(#filter2_d)">
    <path d="M248.583 799.587C222.333 804.714 199.338 806.373 180.578 806.373C169.502 806.373 159.906 805.79 151.979 805.012C138.16 803.647 127.635 801.5 120.99 799.85C120.942 799.071 120.906 798.325 120.871 797.588C137.977 801.856 183.805 810.1 248.41 797.421C248.475 798.136 248.529 798.85 248.583 799.587Z" fill="#742D7E"/>
  </g>
  <path d="M248.75 838.859C248.702 839.596 248.654 840.33 248.606 841.067C223.048 845.943 200.629 847.532 182.286 847.532C171.2 847.532 161.607 846.959 153.69 846.174C141.579 844.972 132.005 843.181 125.354 841.65C125.254 840.887 125.152 840.115 125.056 839.346C143.709 843.681 187.746 850.586 248.75 838.859Z" fill="#742D7E"/>
  <path d="M242.107 881.521C241.88 882.296 241.636 883.068 241.38 883.824C219.506 887.467 200.167 888.701 183.986 888.701C172.91 888.701 163.308 888.124 155.387 887.333C145.772 886.378 137.752 885.058 131.524 883.783C131.411 883.033 131.287 882.261 131.168 881.469C150.793 885.522 189.705 890.386 242.107 881.521Z" fill="#742D7E"/>
  <ellipse cx="184.148" cy="786" rx="57.5" ry="11" fill="#634747"/>
  <path d="M265.982 640.972L215.147 778.341L223.446 778.264L268.136 663.025" fill="#27AD97"/>
  <path fill-rule="evenodd" clip-rule="evenodd" d="M89.0521 602.694L88.3984 613.773L165.138 784.618L174.593 785.182L89.0521 602.694Z" fill="#27AD97"/>
  <path d="M239.825 644.416L203.258 786.249L211.499 785.326L244.215 666.133" fill="#62C2A8"/>
  <path fill-rule="evenodd" clip-rule="evenodd" d="M231.026 550.048C231.699 557.52 240.248 565.162 242.792 572.592C242.542 572.531 242.314 572.496 242.099 572.454C303.258 614.718 356.172 619.534 369.674 620.04C365.823 617.118 364.679 611.482 363.577 605.411C353.487 602.485 343.709 605.289 333.827 600.819C343.174 595.866 357.012 596.157 363.292 603.866C352.462 590.576 358.575 570.983 336.429 565.187C332.386 564.127 299.782 567.497 298.471 570.682C302.723 560.372 334.952 558.984 344.33 563.585C340.453 554.085 311.38 523.625 299.554 527.809C290.977 530.85 290.833 531.75 286.856 532.798C286.462 532.881 286.027 533.013 285.629 533.131C278.504 535.364 272.97 540.222 267.28 544.669C265.832 536.441 273.762 530.558 279.378 526.422C280.609 525.499 281.961 524.637 283.403 523.855C277.193 522.974 270.612 522.766 263.217 522.987C253.871 523.272 245.284 527.066 239.193 533.512C237.563 535.249 235.663 537.553 234.109 540.084C232.151 543.256 230.735 546.787 231.026 550.048Z" fill="#27AD97"/>
  <path fill-rule="evenodd" clip-rule="evenodd" d="M242.099 572.454C303.257 614.718 356.172 619.534 369.673 620.04L369.894 620.197C371.295 621.203 358.533 641.478 352.689 639.774C337.784 635.464 329.514 619.387 316.179 615.542C322.5 631.434 339.136 645.679 355.742 646.662C341.744 659.575 328.008 660.001 314.003 644.074C310.325 639.87 294.757 608.015 288.41 611.149C275.702 617.41 314.974 660.395 326.3 664.877C306.038 669.103 298.63 675.3 285.081 654.378C276.18 640.674 265.748 612.136 266.654 610.88C261.307 616.183 277.865 663.275 288.695 673.217C277.747 673.115 264.969 669.776 253.585 664.217C251.297 646.941 249.256 623.494 247.433 610.386C246.434 611.232 244.79 613.135 242.659 616.416C237.11 623.446 241.003 645.137 246.837 660.539C242.128 657.703 237.805 654.483 234.156 650.93C216.854 634.196 223.541 629.345 228.049 608.355C218.831 605.35 218.998 628.656 218.902 634.202C199.905 607.493 205.275 565.126 242.099 572.454Z" fill="#27AD97"/>
  <path fill-rule="evenodd" clip-rule="evenodd" d="M193.15 623.821C185.704 624.743 178.36 633.548 171.026 636.339C171.081 636.089 171.103 635.858 171.145 635.637C130.979 698.218 127.961 751.28 127.913 764.782C130.701 760.841 136.292 759.502 142.322 758.197C144.901 748.012 141.78 738.329 145.907 728.304C151.171 737.471 151.344 751.322 143.853 757.858C156.762 746.589 176.557 752.027 181.59 729.698C182.513 725.619 178.04 693.14 174.82 691.932C185.262 695.838 187.739 728.006 183.464 737.541C192.823 733.341 222.272 703.248 217.693 691.57C214.364 683.092 213.461 682.98 212.281 679.039C212.179 678.651 212.038 678.222 211.9 677.825C209.43 670.776 204.393 665.412 199.754 659.866C207.924 658.145 214.079 665.877 218.395 671.352C219.359 672.551 220.266 673.871 221.099 675.284C221.765 669.049 221.759 662.455 221.278 655.079C220.682 645.739 216.597 637.281 209.952 631.417C208.161 629.851 205.796 628.024 203.214 626.554C199.981 624.715 196.396 623.417 193.15 623.821Z" fill="#148E77"/>
  <path fill-rule="evenodd" clip-rule="evenodd" d="M171.146 635.637C130.981 698.218 127.963 751.28 127.915 764.782L127.761 765.009C126.809 766.448 106.118 754.372 107.623 748.483C111.423 733.434 127.206 724.613 130.6 711.153C114.935 718.013 101.26 735.125 100.837 751.757C87.4638 738.204 86.5763 724.488 102.016 709.945C106.089 706.129 137.395 689.49 134.037 683.252C127.357 670.76 85.7432 711.47 81.6421 722.947C76.7303 702.838 70.2934 695.642 90.7447 681.384C104.125 672.025 132.291 660.632 133.573 661.497C128.094 656.329 81.6068 674.473 72.0332 685.639C73.8178 683.557 73.1226 671.538 73.8787 668.325C74.8367 664.224 76.3554 660.805 77.9382 656.966C81.8631 647.425 85.4228 638.156 92.4589 630.363C108.594 612.498 113.663 619.024 134.794 622.815C137.479 613.494 114.198 614.452 108.655 614.542C134.697 594.651 177.215 598.586 171.146 635.637Z" fill="#148E77"/>
  <path fill-rule="evenodd" clip-rule="evenodd" d="M214.753 577.789C211.686 576.77 208.514 576.145 205.954 575.799C196.426 574.501 186.685 576.783 178.762 582.265C172.504 586.593 167.211 590.771 162.703 595.225C164.437 594.962 166.157 594.802 167.817 594.767C175.343 594.559 186.013 594.289 190.562 601.563C182.757 601.569 174.786 601.172 167.343 603.789C166.926 603.934 166.484 604.094 166.103 604.267C162.079 605.878 161.329 605.273 152.117 608.147C148.128 614.343 144.95 621.363 142.162 629.87C146.907 628.166 192.081 609.422 193.372 621.995C178.88 624.433 157.244 623.382 145.831 634.487C139.506 640.632 137.161 681.016 144.181 678.699C149.278 677.014 186.24 656.009 188.717 661.33C178.72 666.591 149.974 673.592 146.718 686.242C144.937 693.118 148.801 699.743 152.643 705.934C152.444 696.136 163.668 687.478 174.843 685.639C169.8 695.11 159.775 698.891 153.482 707.315C156.821 712.685 159.81 717.756 158.673 722.364C169.467 713.748 209.793 677.796 230.77 607.756C230.625 607.923 230.459 608.089 230.292 608.285C227.197 600.979 228.918 589.849 224.256 583.646C222.218 580.932 218.575 579.057 214.753 577.789Z" fill="#62C2A8"/>
  <path fill-rule="evenodd" clip-rule="evenodd" d="M230.769 607.756C209.792 677.796 169.466 713.748 158.672 722.364L158.608 722.63C158.15 724.26 182.856 732.203 186.489 727.327C195.784 714.905 191.382 697.398 199.706 686.296C205.588 702.464 201.801 723.642 188.787 734.523C191.138 732.559 202.131 734.369 205.858 732.911C210.75 730.983 214.496 728.221 217.331 723.709C222.112 716.119 214.944 692.925 221.987 689.023C238.491 679.891 228.715 725.888 225.831 730.72C229.952 723.834 254.059 723.719 261.031 719.285C272.405 712.028 279.489 697.988 285.407 685.908C275.215 671.128 260.515 651.699 252.87 640.43C254.293 640.472 256.971 640.953 261.021 642.202C270.518 644.269 282.459 663.455 288.409 678.956C290.319 673.89 291.629 668.757 292.164 663.781L292.171 663.733C294.5 642.507 294.417 624.189 277.858 608.688C268.756 600.172 237.103 586.616 230.769 607.756Z" fill="#62C2A8"/>
  <path fill-rule="evenodd" clip-rule="evenodd" d="M56.4453 560.054C60.4439 561.829 88.6489 571.49 83.8076 578.218C84.3683 577.449 60.5753 563.947 57.3841 563.822C45.6734 563.377 39.7683 574.479 34.1421 582.841C37.2596 585.187 65.9644 591.23 64.8398 594.844C65.423 592.985 39.4351 587.42 36.654 588.016C30.5279 589.336 27.1221 592.783 23.4663 597.67C16.8339 606.516 14.636 621.988 0 619.415C7.36605 620.713 8.40736 628.601 19.0768 627.291C24.655 626.612 30.8003 623.148 36.0581 621.088C60.5657 611.498 51.9917 634.352 33.8858 630.017C48.9062 633.619 65.8331 659.533 79.6168 639.12C85.4032 630.594 92.1733 612.296 91.5838 611.399C95.0602 615.266 84.3139 645.477 77.2778 651.401C86.6015 643.542 100.158 646.947 110.439 639.87C122.621 631.488 119.484 625.868 116.668 612.19C122.663 610.784 122.551 626.256 122.621 629.947C134.96 613.421 131.464 584.921 107.54 587.433L107.088 587.49C108.738 582.716 114.294 578.186 114.726 573.265C114.919 571.115 113.996 568.67 112.727 566.443C111.715 564.662 110.481 563.008 109.417 561.752C103.016 554.197 92.2567 551.9 82.7792 552.269C77.6335 552.47 59.095 561.233 56.4453 560.054Z" fill="#27AD97"/>
  <path fill-rule="evenodd" clip-rule="evenodd" d="M104.862 512.994C102.545 514.535 100.421 516.367 98.8252 517.921C92.8753 523.721 89.2451 531.577 88.7677 539.888C88.3801 546.453 88.4121 552.281 89.0433 557.728C89.7866 556.405 90.5972 555.149 91.4527 553.995C95.3168 548.757 100.808 541.352 108.178 542.109C104.029 547.44 99.5268 552.656 97.3481 559.115C97.2232 559.478 97.0918 559.865 97.0149 560.214C95.9672 563.813 95.1566 563.995 92.2089 571.807C94.3107 577.824 97.4026 583.722 101.712 590.146C103.071 586.004 114.336 545.268 123.592 551.073C113.214 570.227 91.3342 598.503 123.301 609.23C119.389 601.2 121.433 572.508 130.827 568.103C128.767 586.503 115.573 606.17 136.501 616.189C137.889 611.325 143.037 573.966 147.898 575.164C146.158 584.776 135.633 608.083 142.522 617.035C146.248 621.898 152.819 622.792 159.083 623.475C152.297 618.393 152.374 606.141 157.065 597.551C160.829 606.022 158.077 614.869 160.461 623.625C165.895 624.215 170.938 624.875 173.469 628.101C173.344 616.166 170.32 569.567 133.791 518.024C133.823 518.213 133.852 518.415 133.893 518.629C127.274 516.845 120.609 509.754 113.907 509.636C110.981 509.581 107.761 511.065 104.862 512.994Z" fill="#88CEBA"/>
  <path fill-rule="evenodd" clip-rule="evenodd" d="M133.791 518.024C170.32 569.567 173.344 616.166 173.469 628.101L173.617 628.29C174.482 629.463 193.039 616.868 191.646 611.796C188.134 598.855 173.873 592.54 170.736 580.961C184.888 585.552 197.291 599.409 197.772 614.065C209.729 600.832 210.444 588.628 196.468 577.228C192.77 574.229 164.492 562.454 167.468 556.626C173.415 544.96 211.123 577.045 214.891 586.802C219.184 568.574 224.935 561.608 206.442 550.929C194.337 543.906 168.919 536.47 167.76 537.357C172.665 532.285 214.622 543.97 223.305 552.941C223.481 543.24 220.796 532.125 216.07 522.381C200.578 521.452 179.531 521.135 167.795 520.35C168.58 519.405 170.326 517.832 173.331 515.736C179.797 510.366 199.207 512.439 212.927 516.63C210.501 512.641 207.698 509.011 204.596 505.999C189.96 491.719 185.43 497.967 166.436 503.295C163.96 495.307 184.924 493.975 189.909 493.532C166.353 478.39 128.094 485.843 133.791 518.024Z" fill="#88CEBA"/>
  <path fill-rule="evenodd" clip-rule="evenodd" d="M99.2227 715.661L154.454 786.806L166.312 783.279L102.753 711.124" fill="#88CEBA"/>
  <path fill-rule="evenodd" clip-rule="evenodd" d="M142.406 740.851C141.848 739.22 144.873 730.851 145.27 728.311C146.033 723.421 147.058 719.221 146.767 714.226C146.219 704.809 142.848 694.402 135.934 687.677C126.206 678.222 112.083 675.675 101.897 686.706L101.539 687.081C99.4624 681.606 101.045 673.439 97.7771 668.741C96.3545 666.681 93.7208 665.198 90.9301 664.15C88.7033 663.317 86.3804 662.763 84.506 662.429C77.5149 661.206 70.2577 662.615 64.263 666.431C59.5275 669.443 55.5032 672.378 52.0557 675.544C53.3469 675.39 54.6157 675.326 55.8364 675.348C61.3986 675.403 69.2677 675.508 72.4237 680.997C66.666 680.782 60.8027 680.266 55.2405 681.98C54.9265 682.08 54.5933 682.182 54.3017 682.307C51.2931 683.377 50.7581 682.903 43.8758 684.765C40.7551 689.225 38.2239 694.313 35.9266 700.516C39.4703 699.385 73.3112 686.844 73.9199 696.152C73.8302 694.861 43.7028 700.932 41.0819 702.147C26.4235 708.952 35.7889 725.911 34.6835 737.644C41.1492 735.68 47.1375 731.97 53.3117 729.269C56.6887 727.804 60.4759 725.667 64.1317 725.036C64.9295 724.898 69.1267 725.148 69.3638 725.03C61.8504 728.631 40.4507 732.976 37.6888 742.216C36.1765 747.234 38.8391 752.229 41.4984 756.913C41.6298 749.675 50.1557 743.603 58.4445 742.565C54.4619 749.406 46.9549 751.918 42.0784 757.948C44.3885 762.007 46.4486 765.83 45.4778 769.194L45.4234 769.389C45.0421 770.575 63.0359 777.14 65.8586 773.651C73.0613 764.747 70.3122 751.71 76.7715 743.757C80.6516 755.852 77.2585 771.366 67.3453 779.021C82.4811 780.7 91.2922 775.099 92.2085 759.716C92.4424 755.657 86.4637 730.185 91.9938 729.333C103.045 727.625 99.6579 769.784 94.7813 777.265C100.212 775.009 106.226 774.545 111.478 772.094C116.3 769.848 120.17 765.878 124.207 762.52C130.708 757.102 135.738 753.792 139.984 745.901C132.9 734.709 122.599 719.964 117.277 711.435C118.325 711.506 120.289 711.928 123.236 712.97C130.189 714.761 138.449 729.256 142.406 740.851Z" fill="#88CEBA"/>
  <defs>
    <filter id="filter0_d" x="115.598" y="805.731" width="177.633" height="59.6192" filterUnits="userSpaceOnUse" color-interpolation-filters="sRGB">
      <feFlood flood-opacity="0" result="BackgroundImageFix"/>
      <feColorMatrix in="SourceAlpha" type="matrix" values="0 0 0 0 0 0 0 0 0 0 0 0 0 0 0 0 0 0 127 0"/>
      <feOffset dx="18" dy="5"/>
      <feGaussianBlur stdDeviation="13"/>
      <feColorMatrix type="matrix" values="0 0 0 0 0.454902 0 0 0 0 0.176471 0 0 0 0 0.494118 0 0 0 1 0"/>
      <feBlend mode="normal" in2="BackgroundImageFix" result="effect1_dropShadow"/>
      <feBlend mode="normal" in="SourceGraphic" in2="effect1_dropShadow" result="shape"/>
    </filter>
    <filter id="filter1_d" x="121.355" y="847.974" width="167.797" height="58.5362" filterUnits="userSpaceOnUse" color-interpolation-filters="sRGB">
      <feFlood flood-opacity="0" result="BackgroundImageFix"/>
      <feColorMatrix in="SourceAlpha" type="matrix" values="0 0 0 0 0 0 0 0 0 0 0 0 0 0 0 0 0 0 127 0"/>
      <feOffset dx="18" dy="5"/>
      <feGaussianBlur stdDeviation="13"/>
      <feColorMatrix type="matrix" values="0 0 0 0 0.454902 0 0 0 0 0.176471 0 0 0 0 0.494118 0 0 0 1 0"/>
      <feBlend mode="normal" in2="BackgroundImageFix" result="effect1_dropShadow"/>
      <feBlend mode="normal" in="SourceGraphic" in2="effect1_dropShadow" result="shape"/>
    </filter>
    <filter id="filter2_d" x="112.871" y="776.421" width="179.712" height="60.952" filterUnits="userSpaceOnUse" color-interpolation-filters="sRGB">
      <feFlood flood-opacity="0" result="BackgroundImageFix"/>
      <feColorMatrix in="SourceAlpha" type="matrix" values="0 0 0 0 0 0 0 0 0 0 0 0 0 0 0 0 0 0 127 0"/>
      <feOffset dx="18" dy="5"/>
      <feGaussianBlur stdDeviation="13"/>
      <feColorMatrix type="matrix" values="0 0 0 0 0.454902 0 0 0 0 0.176471 0 0 0 0 0.494118 0 0 0 1 0"/>
      <feBlend mode="normal" in2="BackgroundImageFix" result="effect1_dropShadow"/>
      <feBlend mode="normal" in="SourceGraphic" in2="effect1_dropShadow" result="shape"/>
    </filter>
    <linearGradient id="paint0_linear" x1="1102.83" y1="205.5" x2="1357.33" y2="115" gradientUnits="userSpaceOnUse">
      <stop offset="0.510201" stop-color="#D9EAFC"/>
      <stop offset="0.921875" stop-color="#FAFAFA"/>
    </linearGradient>
    <linearGradient id="paint1_linear" x1="1102.83" y1="359.042" x2="1335.39" y2="246.857" gradientUnits="userSpaceOnUse">
      <stop offset="0.510201" stop-color="#D9EAFC"/>
      <stop offset="0.921875" stop-color="#FAFAFA"/>
    </linearGradient>
    <linearGradient id="paint2_linear" x1="978.625" y1="0" x2="978.625" y2="29.8564" gradientUnits="userSpaceOnUse">
      <stop stop-color="#DFCCFD"/>
      <stop offset="1" stop-color="#73BEDE"/>
    </linearGradient>
    <linearGradient id="paint3_linear" x1="871.75" y1="93.9385" x2="871.75" y2="142" gradientUnits="userSpaceOnUse">
      <stop stop-color="#DFCCFD"/>
      <stop offset="1" stop-color="#73BEDE"/>
    </linearGradient>
  </defs>
</svg>
