<svg id="Layer_1" data-name="Layer 1"
  xmlns="http://www.w3.org/2000/svg"
  xmlns:xlink="http://www.w3.org/1999/xlink" viewBox="0 0 737 549">
  <defs>
    <style>.cls-1{fill:url(#linear-gradient);}.cls-2{fill:#f8c208;}.cls-3{fill:#150077;}.cls-4{fill:#c6e6ff;}.cls-5{fill:#805aa8;}.cls-6{fill:#8869b9;}.cls-7{fill:#f7c108;}.cls-23,.cls-8{fill:#7adcfb;}.cls-9{fill:#8769b8;}.cls-10{fill:#c0f3ff;}.cls-11{fill:#80a5f8;}.cls-12{fill:#cff8ff;}.cls-13{fill:#26a4fb;}.cls-14{fill:#c7e7ff;}.cls-15{fill:#faf8ff;}.cls-16{fill:#a1dcff;}.cls-17{fill:#7d3f86;}.cls-18{fill:#bee8ff;}.cls-19{fill:#fde7e2;}.cls-20{fill:#fabb33;}.cls-21{fill:#ee80be;}.cls-22{fill:#2e7dfb;}.cls-23{fill-opacity:0.53;}.cls-24{fill:#f1f2f2;}.cls-25{fill:#f6c50a;}.cls-26{fill:#ffa300;}.cls-27{fill:#2300b1;}.cls-28{fill:#8292f4;}.cls-29{fill:#ffb1df;}</style>
    <linearGradient id="linear-gradient" x1="305.12" y1="62.74" x2="718.46" y2="443.2" gradientTransform="matrix(1, 0, 0, -1, 0, 568)" gradientUnits="userSpaceOnUse">
      <stop offset="0.02" stop-color="#742d7e"/>
      <stop offset="0.9" stop-color="#742d7e" stop-opacity="0.4"/>
    </linearGradient>
  </defs>
  <ellipse class="cls-1" cx="369.5" cy="446" rx="367.5" ry="103"/>
  <path class="cls-2" d="M50.55,37.43c.14,0,.27.14.27.41s-.13.27-.4.27Z" transform="translate(0 0)"/>
  <path class="cls-2" d="M50.69,36.75c0,.14.13.14.13.28s0,.13-.13.13Z" transform="translate(0 0)"/>
  <path class="cls-3" d="M390.09,64.62c-1.22-.14-4.87-2.3-6.09-2.84-1.62,1.35-.13,4.87-1.21,6.63l-.41.81c2.71,1.08,5.54,2.16,8.24,3.38a37.58,37.58,0,0,0,5.55,1.9c.94-.14.67,0,.94-.14s.14-.13.27-.13.14-.14,0-.28a2.47,2.47,0,0,0-.67-.27c-1.35-.54-2.71-1.21-3.78-1.76l-.14-.13v-.13c0-.14.14-.14.27-.14,1.08.54,2.43,1.22,3.78,1.76l.82.4c.13.14.4,0,.54-.13s.13-.68-.14-.68-.4-.13-.68-.27a28.39,28.39,0,0,1-3.92-1.89l-.13-.14v-.13c0-.14.13-.14.27,0a20.17,20.17,0,0,0,3.78,1.89c.28.14.68.27.95.41s.54,0,.54-.27a.49.49,0,0,0-.27-.68c-1.62-.68-3.38-1.49-5-2.3l-.14-.14v-.13c0-.14.14-.14.27-.14,1.63.82,3.38,1.63,5.14,2.44.14,0,.27,0,.27-.14A.5.5,0,0,0,399,71c-.28-.81-1.76-1.36-2.44-1.63-1.21-.67-3-1.75-4.86-3,.13.13,3.38-1.22,3.24-1.62,0-.14-.27-.28-.4-.28a.49.49,0,0,0-.41.14A39,39,0,0,1,390.09,64.62Z" transform="translate(0 0)"/>
  <path class="cls-3" d="M383.87,61.78c.67.41.54.41,0,0Z" transform="translate(0 0)"/>
  <path class="cls-3" d="M382.92,68.82c-8.92,3.65-23.52-9.75-30.68-13.94A53.43,53.43,0,0,1,329.53,28,20.18,20.18,0,0,1,327.91,19c.41-6.08,5.67-10.82,11.35-6.62,2.71,2,4.33,5.14,5.81,8.11,6.09,11.37,14.6,22.05,25.14,29.63A55.12,55.12,0,0,1,376.43,55c1.49,1.22,8,5.82,9.06,7.72A41.69,41.69,0,0,1,382.92,68.82Z" transform="translate(0 0)"/>
  <path class="cls-3" d="M377.25,68.27c.13-.13.13-.27.27-.27A36.19,36.19,0,0,0,382,59.21l-.55-.41a31.51,31.51,0,0,1-4.59,9.07c-.14.13-.14.27-.27.27Z" transform="translate(0 0)"/>
  <path class="cls-4" d="M336.43,80.45l.53,5.14,9.87,1.76-2.16-6.09Z" transform="translate(0 0)"/>
  <path class="cls-5" d="M353.19,39.46a9.45,9.45,0,0,0-12.3-9.2L331.7,33.1l.67-.68L299.52,43l-.94,7.57-5.68,4.06,5.27-1.22-2.29,13.94,39.6-15.69c-.41.13-.41,22.59-.68,25.16a6.71,6.71,0,0,0,.27,3.65,4.61,4.61,0,0,0,3.79,2.16c3.78.27,7.7-2.43,9.32-5.81,4.73-9.61,2.44-22.87,4.46-33.28A27.39,27.39,0,0,0,353.19,39.46Z" transform="translate(0 0)"/>
  <path class="cls-6" d="M290.47,30.26c-8.65,8.66-4.59,27.73-3.24,34.22.54,2.57,2,5,.13,6.5-5.81,4.6-18.65.13-25.14-.41-5.14-.4-15.68-2.3-12.84,10.28,1.49,6.9,26.49,6.22,36.09,7.17,4,.41,8.24.81,12.16-.27,12.84-3.25,16.09-24.89,17.85-35.84.4-2.44.67-5,1.21-7.31.27-1.08-12-19.75-14.87-19.61C301.55,24.85,293.58,27.15,290.47,30.26Z" transform="translate(0 0)"/>
  <path class="cls-7" d="M345.21,11.46l-.54.41L339,17.55l-.27.81L332.78,7.94,342.24,7h.67l1.22.13-.27,3.11-.14.68.55.27Z" transform="translate(0 0)"/>
  <path class="cls-3" d="M344.67,11.87l-3.51,3.51C339.8,13,340.75,9.3,342.24,7c.27-.27.4-.68.67-1l-.13.81V8.08l1.08,2,.54.94Z" transform="translate(0 0)"/>
  <path class="cls-7" d="M351.56,10.38S344,19.3,342.1,13.49a15.26,15.26,0,0,1-.54-7l4.87-3.39,4.73,4.74Z" transform="translate(0 0)"/>
  <path class="cls-3" d="M340.89,4.42h0A6.53,6.53,0,0,1,344.27.5a5.82,5.82,0,0,1,6.35,1.08c1.21,1.22,1.08,2.58,2.43,3.79.95.81,2.3,1.36,2.57,2.71s-.95,3-2.43,3.24a4.32,4.32,0,0,1-2.57-.4c-.95-.41-1.76-1.49-2.57-1.76s-1.22.27-2,0c-1.08-.41-1.35-1.08-2.7-.68-.95.27-3.78.82-4.19-.4C339,7.4,340.48,5.24,340.89,4.42Z" transform="translate(0 0)"/>
  <path class="cls-7" d="M345.18,5.25a2.13,2.13,0,0,1,.6.52,2.05,2.05,0,0,1,.35.71,1.91,1.91,0,0,1,.05.79,2.08,2.08,0,0,1-.25.75,2.13,2.13,0,0,1-.52.6,2.05,2.05,0,0,1-.71.35,2.1,2.1,0,0,1-.79,0,2,2,0,0,1-1.34-.77,2.17,2.17,0,0,1-.36-.71,1.92,1.92,0,0,1,0-.79,2,2,0,0,1,.77-1.35,2.05,2.05,0,0,1,.71-.35,2.1,2.1,0,0,1,.79-.06A2.16,2.16,0,0,1,345.18,5.25Z" transform="translate(0 0)"/>
  <path class="cls-8" d="M337.1,7.54c-.14-.14-.14-.28-.27-.41a1,1,0,0,0-.67-.27c-1.09-.13-1.49.68-2.44.95a17,17,0,0,1-2.57,0,33.11,33.11,0,0,0-6.35.67,47.25,47.25,0,0,0-18.92,6.09A48.3,48.3,0,0,0,291.14,28c0,.14.14.14.14.27a2.76,2.76,0,0,0,.41.68,15.78,15.78,0,0,0,1.48,2.57L294,32.7l.14.13a.5.5,0,0,1,.13.27c.68.81,1.36,1.63,2.17,2.44A48.22,48.22,0,0,0,301.15,40a58.91,58.91,0,0,0,10.14,6.63,5,5,0,0,0,1.21.54.45.45,0,0,1,.27.14.42.42,0,0,1,.27.13c.81.27,1.62.54,2.3.81a11.23,11.23,0,0,0,2.3.54c1.35-1.35,3-3.51,4.05-4.33,4.46-4.32,7.84-7.57,10.95-12,.95-1.35,1.89-2.7,2.84-4.32C339,22.15,340.75,13.76,337.1,7.54Z" transform="translate(0 0)"/>
  <path class="cls-3" d="M335.75,24.44c-.14,2.57-1.62,4.88-2.7,7.18-.14.13-.14.4-.27.54a89.27,89.27,0,0,1-10.95,12c-1.35,1.09-3.92,4.74-5.14,5.28-.27.13-.67.27-.94.4v-.4c0-.4-.14-.68-.14-1.08a54.84,54.84,0,0,1,.94-16.23c.68-3.39,1.63-6.9,3.66-9.61a11.51,11.51,0,0,1,8.65-5.14,6.13,6.13,0,0,1,3.1.68c.14.13.27.13.27.27C334.67,19,336,22,335.75,24.44Z" transform="translate(0 0)"/>
  <path class="cls-3" d="M354.67,88h-18V85.45h6.48V83.56a2.14,2.14,0,0,1,2.17-2.17h.4v1.9l6.89,2.57A2.42,2.42,0,0,1,354.67,88Z" transform="translate(0 0)"/>
  <path class="cls-9" d="M336.7,88h18c0,.14.14.27.14.41v1.08H336.56Z" transform="translate(0 0)"/>
  <path class="cls-10" d="M249,81.12l.28-8.93h-3.39l-3.24.14-.81,6.36,3,1.08,1.07.54Z" transform="translate(0 0)"/>
  <path class="cls-3" d="M237.62,88.7l3-17.32,2.3.41h.27L242.08,78l1.89.27a2.14,2.14,0,0,1,1.76,2.44v.4L244,80.85l-3.65,6.22A3.1,3.1,0,0,1,237.62,88.7Z" transform="translate(0 0)"/>
  <path class="cls-9" d="M240.46,71.52l-3,17.31h-.4L236,88.7l3-17.45v-.14Z" transform="translate(0 0)"/>
  <path class="cls-2" d="M386.44,75.17c-1.22-.27-4.6-2.84-5.68-3.38-1.76,1.22-.54,4.73-1.89,6.49-.14.27-.41.41-.54.68,2.7,1.35,5.27,2.7,7.83,4.19a31.21,31.21,0,0,0,5.41,2.44h.95c.13,0,.13,0,.27-.14s.14-.13,0-.27-.41-.27-.68-.4c-1.35-.68-2.57-1.49-3.65-2.17l-.13-.13v-.14c0-.13.13-.13.27,0,1.08.68,2.3,1.35,3.65,2.16l.81.41c.14.14.4,0,.54-.13.27-.28.13-.55-.14-.82s-.4-.27-.67-.4a34.62,34.62,0,0,1-3.65-2.3V81c.13-.14.13-.14.27,0a36.34,36.34,0,0,0,3.65,2.3,6.82,6.82,0,0,1,.94.54.42.42,0,0,0,.55-.14c.13-.27.13-.54-.14-.67-1.62-1-3.24-1.9-4.73-2.85l-.14-.13v-.13c0-.14.14-.14.28-.14l4.86,2.84c.14.14.27,0,.27-.13v-.41c-.27-.81-1.62-1.49-2.3-1.9a52.49,52.49,0,0,1-4.46-3.51c.14.14,3.52-.81,3.38-1.35,0-.14-.27-.28-.4-.28h-.55A8.71,8.71,0,0,1,386.44,75.17Z" transform="translate(0 0)"/>
  <path class="cls-6" d="M380.49,71.79c.67.4.54.27,0,0Z" transform="translate(0 0)"/>
  <path class="cls-8" d="M373.87,64.21c-1.9-1.89-3.79-3.65-5.82-5.41a103.51,103.51,0,0,1-17-19.75A81,81,0,0,1,342.24,23c-1.76-4.33-2.3-9.2-6.76-11.77a9.81,9.81,0,0,0-11.76,1.49c-9.46,9.87,5.68,26.92,11.89,34.49a115.84,115.84,0,0,0,24.47,22.18,114.42,114.42,0,0,0,14.33,8.25c3,1.36,3.51,1.9,5.81-.53.67-.82,2.43-3.25,2-4.33C381.16,70.71,375.22,65.7,373.87,64.21Z" transform="translate(0 0)"/>
  <path class="cls-11" d="M373.19,77.6l.27-.27A31.37,31.37,0,0,0,378.73,69l-.4-.41a32.9,32.9,0,0,1-5.41,8.53l-.27.26Z" transform="translate(0 0)"/>
  <path class="cls-12" d="M676.5,347.6a24.19,24.19,0,0,0-1.08,2.84A194.88,194.88,0,0,1,657,384.8c-.13.14-.26.41-.4.54a198.9,198.9,0,0,1-51.9,52.89,73.62,73.62,0,0,1-18.25,9.47c-6.76,2.17-13,2.84-18.65,1.76a25.33,25.33,0,0,1-7-2.3c-7.84-3.79-14.06-11.5-18.11-23-10.81-30.44,2.43-72.78,12.16-103.48,14.06-44.1,41.36-80.22,70-116.2,1.08,3.92,2,7.71,2.7,11.63,7.7,38,1.62,73.86-10,108-3.11,9.2-6.76,18.26-10.55,27.19,13.12-30.57,39.61-74.81,67.72-100.11,1.35-1.21,2.71-2.43,4.06-3.51,1.62-1.35,3.37-2.71,5-3.92C699.21,270.64,688.12,318.39,676.5,347.6Z" transform="translate(0 0)"/>
  <path class="cls-13" d="M611.62,358a213.94,213.94,0,0,1,21.49-18.4c25.14-18.53,56.77-30.57,87.72-25.83-3.38,20.29-7.56,40.31-12.43,60.33-6.9,28.27-16.22,57.76-38.12,76.7-22.71,19.61-57.85,25.56-86.64,20.15-39.6-7.44-37.44-35.17-14.73-63.58C582.15,390.35,595.94,373.17,611.62,358Z" transform="translate(0 0)"/>
  <path class="cls-14" d="M579.18,394.27a235.92,235.92,0,0,0,11.22,59,209.44,209.44,0,0,1-20.68,13.66l.4.14,1,.4a220.48,220.48,0,0,0,27-18.67c14.2-11.49,27.85-24.89,41.1-39.09l-.14.68A163.23,163.23,0,0,0,658,411.45a281.83,281.83,0,0,0,40-3.25,12.27,12.27,0,0,1,2.16-.27l-.13-1.21c-.54.13-1.08.13-1.49.27-23.65,3.51-43,4.33-58.93,2.3,15.27-16.64,30-34.5,44.47-52.08,12.43-15.15,24.19-29.36,36.22-42.88l-.54-.54-.4-.27-.28.27c-12,13.39-23.65,27.73-36.08,42.74-2.44,3-4.87,5.82-7.3,8.79-1.76-5.81-7.71-28.13-7.84-44.77v-1.9h-1.22V321c.27,17.58,6.76,41.12,8.11,45.44C650.28,396,624.87,425.79,597,448.11c-2,1.62-3.92,3.11-5.95,4.6A234.73,234.73,0,0,1,580,393.05Z" transform="translate(0 0)"/>
  <path class="cls-15" d="M616.62,427.28a467.05,467.05,0,0,1-18.24-56l.94-.27a473.26,473.26,0,0,0,18.25,55.86Z" transform="translate(0 0)"/>
  <path class="cls-13" d="M644.73,197.86l-.26-1.22a48.86,48.86,0,0,0,6.75-2.16l.41,1.08A36.12,36.12,0,0,1,644.73,197.86Zm13.66-5.27-.54-1.09c2-1.08,4.18-2.16,6.21-3.51l.68,1.08C662.58,190.42,660.41,191.5,658.39,192.59Zm12.3-7.45-.68-.94c1.89-1.35,3.79-2.84,5.68-4.33l.81.95C674.6,182.3,672.72,183.79,670.69,185.14ZM681.91,176l-.82-.81c1.76-1.63,3.38-3.25,5-5l.82.81A60.58,60.58,0,0,1,681.91,176Zm9.86-10.42-.94-.81c1.48-1.76,3-3.65,4.45-5.68l1,.67C694.75,161.74,693.26,163.64,691.77,165.53Zm8.52-11.63-.95-.68c1.35-2,2.57-4.06,3.78-6.08l1.09.54C703,149.84,701.64,151.87,700.29,153.9Zm7.3-12.45-1.09-.54a68.55,68.55,0,0,0,3.11-6.49l1.09.54C709.75,137.12,708.67,139.29,707.59,141.45Zm6.08-13.12-1.08-.4c.94-2.17,1.75-4.47,2.57-6.63l1.08.4C715.43,123.87,714.48,126,713.67,128.33Zm4.86-13.66-1.08-.41c.68-2.3,1.35-4.6,2-6.89l1.22.27C719.89,110.21,719.21,112.51,718.53,114.67Zm3.79-13.8-1.22-.27c.55-2.3,1.08-4.6,1.49-7l1.21.27C723.4,96.14,722.86,98.57,722.32,100.87Zm2.84-14.2-1.22-.27c.27-1.9.68-3.65.95-5.55l1.21.14C725.83,83,725.56,84.91,725.16,86.67Z" transform="translate(0 0)"/>
  <path class="cls-13" d="M649.47,201,643,197.59l3.65-6.36.94.54-3,5.28,5.41,2.84Z" transform="translate(0 0)"/>
  <path class="cls-16" d="M48.66,89.78H61.91V91H48.66Z" transform="translate(0 0)"/>
  <path class="cls-16" d="M54.74,83.83H56V97.08H54.74Z" transform="translate(0 0)"/>
  <path class="cls-13" d="M29.6,147.14c-1.35-2-2.7-4.06-3.92-6.09l1.08-.54c1.22,2,2.44,4.06,3.79,6Zm-7.16-12.59c-1-2.16-1.89-4.46-2.71-6.76l1.09-.4c.81,2.3,1.62,4.46,2.56,6.62Zm-4.6-13.66c-.54-2.3-.94-4.73-1.35-7.17l1.22-.13a64.47,64.47,0,0,0,1.35,7Zm-2-14.34v-3.11c0-1.35,0-2.7.13-4.19h1.22a39.34,39.34,0,0,0-.14,4.06v3.11Zm2-14.2-1.22-.14a70.09,70.09,0,0,1,1.49-7.16l1.22.27A40.29,40.29,0,0,0,17.84,92.35Zm3.38-13.8-1.08-.4c.81-2.3,1.76-4.47,2.7-6.77l1.09.54C23,74.09,22,76.25,21.22,78.55Zm6.08-13-1.08-.68c1.22-2,2.57-4.06,3.92-6.09l.95.68C29.87,61.51,28.52,63.54,27.3,65.57Zm8.38-11.5-.94-.81c1.62-1.76,3.24-3.52,5-5.14l.81.81C38.93,50.55,37.3,52.31,35.68,54.07Zm10.41-9.74-.67-.95a58.3,58.3,0,0,1,5.94-4.06L52,40.41C50,41.62,48,43,46.09,44.33Zm85.83-3.25c-1.62-1.08-3.38-2.16-5.13-3.11l.53-1.08c1.76,1,3.52,2,5.28,3.11Zm-73.8-4.33-.54-1.08c2.16-1.08,4.33-2,6.62-3l.41,1.08C62.45,34.86,60.29,35.81,58.12,36.75Zm62.18-1.89a66.44,66.44,0,0,0-6.62-2.44l.4-1.08c2.3.68,4.6,1.63,6.76,2.44ZM71.5,31.75l-.27-1.22a66,66,0,0,1,7-1.62l.27,1.22A57.49,57.49,0,0,0,71.5,31.75Zm35.28-1.08a63.28,63.28,0,0,0-7-1.09l.14-1.21a63.27,63.27,0,0,1,7.16,1.21ZM85.43,29.32l-.14-1.22c2-.14,3.92-.27,5.95-.27h1.21v1.22H91.24A42.73,42.73,0,0,0,85.43,29.32Z" transform="translate(0 0)"/>
  <path class="cls-13" d="M127.06,42.3l-.14-1.22,5.13-.67-1.62-5,1.22-.27,1.89,6.22Z" transform="translate(0 0)"/>
  <path class="cls-8" d="M2.16,315.27C-1.76,364.1,34.6,408.34,77.32,432.42a221.36,221.36,0,0,0,96.23,28c9.74.54,21.09-.27,26.63-8.25,7.57-10.69-.68-25.16-8.92-35.31a382.79,382.79,0,0,1-88.8-85.35c-25-33.41-45.15-76.16-32.58-115.93,41.77,22.32,80,53.16,105.3,93.2,11.89,18.8,38.65,67.91,29.46,91.17-8.11,20.7-25.14-2.43-37.3-13.53C120.84,343.68,67.18,314.06,2.16,315.27Z" transform="translate(0 0)"/>
  <path class="cls-15" d="M200.18,406.85c-8-9.6-16.36-19.21-24.6-28.41-6.89-7.71-14.06-15.82-20.81-23.8A552.19,552.19,0,0,1,69.48,215.85l-.14-.41,1-.4.13.4A557.14,557.14,0,0,0,155.57,354c6.76,8.12,13.93,16.1,20.82,23.81,8.25,9.2,16.63,18.8,24.6,28.4Z" transform="translate(0 0)"/>
  <path class="cls-15" d="M202.61,446.89c-12.3-6.49-25.54-12.17-38.25-17.72-8.92-3.79-18.11-7.85-26.9-12-44.19-21.24-87.31-52.89-135.84-100A15.67,15.67,0,0,0,0,315.68v-.13l.68-.68.13.13a15.67,15.67,0,0,0,1.62,1.49c48.39,46.94,91.51,78.73,135.44,99.7,8.79,4.19,18,8.25,26.9,12,12.83,5.54,25.95,11.22,38.38,17.71Z" transform="translate(0 0)"/>
  <path class="cls-15" d="M106.38,284.16l-.95-.27,3.38-10.95c2.7-8.93,5.4-17.86,8.25-26.79l.94.27c-2.7,8.93-5.41,17.86-8.25,26.79Z" transform="translate(0 0)"/>
  <path class="cls-15" d="M5.54,348.28h31v1.08h-31Z" transform="translate(0 0)"/>
  <path class="cls-15" d="M75.42,377.63l-.94-.13a265,265,0,0,0,3.91-48.56h1.09A267.39,267.39,0,0,1,75.42,377.63Z" transform="translate(0 0)"/>
  <path class="cls-15" d="M130.16,320.55l-.94-.41c6.22-15.69,11.89-31.92,16.76-48l1,.27C142.06,288.63,136.38,304.72,130.16,320.55Z" transform="translate(0 0)"/>
  <path class="cls-15" d="M129.76,345.44c-5.54,0-11.08-.27-16.49-.67l.13-1.09a191.18,191.18,0,0,0,33,0l.14,1.09C140.84,345.3,135.3,345.44,129.76,345.44Z" transform="translate(0 0)"/>
  <path class="cls-15" d="M65.55,423.08a37.91,37.91,0,0,1-3.91-.13v-1.08A54,54,0,0,0,72,421.6a100.5,100.5,0,0,0,16.9-3.52,243.77,243.77,0,0,0,30.68-11l.41.95a232.2,232.2,0,0,1-30.82,11,101.49,101.49,0,0,1-17,3.51A35.19,35.19,0,0,1,65.55,423.08Z" transform="translate(0 0)"/>
  <path class="cls-17" d="M578.77,212.47a7.79,7.79,0,0,1-6.21,9.06L538,227.76l-12,2.16a7.67,7.67,0,0,0-5.82,10.55c3.25,7.31,10.55,13.12,9.73,22.59-1.21,12.58-13.37,18.8-24.46,21.24-.27,0-.4.13-.68.13-11.35,1.63-24.86,0-30.27-11.36-4.19-8.52.81-16.5,1.21-24.48a7.72,7.72,0,0,0-9.05-8l-12,2.17L420,249a7.8,7.8,0,0,1-9.06-6.22l-6.22-34.63-2.16-12a7.72,7.72,0,0,1,8-9.06c8,.41,15.95,5.41,24.46,1.22,11.49-5.55,13-19.21,11.35-30.71.14.54.28,1.22.41,1.76l-.68-3.65c.14.54.14,1.21.27,1.75-2.43-11.22-8.51-23.67-21.22-24.88-9.46-.95-15.27,6.49-22.57,9.73A7.61,7.61,0,0,1,392,136.45l-2.16-12L383.6,89.78a7.79,7.79,0,0,1,6.22-9.06L542.69,53.39a7.79,7.79,0,0,1,9,6.23Z" transform="translate(0 0)"/>
  <path class="cls-18" d="M570.93,308.24V463.66a7.7,7.7,0,0,1-7.7,7.71H407.93a7.7,7.7,0,0,1-7.71-7.71V416.19a7.62,7.62,0,0,0-3.78-6.63c-.27-.14-.41-.27-.68-.41a7.84,7.84,0,0,0-5-.54c-7.84,1.89-14.73,8.12-23.92,5.54-12.17-3.38-16.09-16.36-16.49-27.86v-.68c.4-11.49,4.32-24.48,16.49-27.86,9.19-2.57,16.08,3.65,23.92,5.55a7.84,7.84,0,0,0,5-.55c.27-.13.41-.27.68-.4a7.93,7.93,0,0,0,3.78-6.63V308.24a7.21,7.21,0,0,1,.82-3.38c.13-.27.26-.41.4-.68a.5.5,0,0,1,.13-.27,1.94,1.94,0,0,1,.41-.54c.13-.14.27-.41.54-.54a8,8,0,0,1,5.54-2.3H455.5a7.68,7.68,0,0,1,7.57,9.47c-1.89,7.84-8.11,14.74-5.54,23.94,3.38,12.31,16.63,16.23,28.12,16.5,11.49-.4,24.73-4.19,28.11-16.5,2.57-9.2-3.65-16.1-5.54-23.94a7.81,7.81,0,0,1,7.57-9.47h47.44A7.7,7.7,0,0,1,570.93,308.24Z" transform="translate(0 0)"/>
  <path class="cls-19" d="M391.44,146.46c-9.19-2.57-16.09,3.65-23.93,5.54a7.74,7.74,0,0,1-9.46-7.57V97a7.7,7.7,0,0,0-7.7-7.71H195a7.71,7.71,0,0,0-7.7,7.71V252.37a7.7,7.7,0,0,0,7.7,7.71h47.44a7.67,7.67,0,0,0,7.57-9.46c-1.89-7.85-8.1-14.75-5.54-24,3.38-12.31,16.63-16.23,28.12-16.5h-.14c11.49.41,24.74,4.19,28.12,16.5,2.57,9.2-3.65,16.1-5.54,24a7.73,7.73,0,0,0,7.56,9.46h47.45a7.7,7.7,0,0,0,7.7-7.71V204.89a7.68,7.68,0,0,1,9.46-7.57c7.84,1.89,14.74,8.12,23.93,5.55,12.16-3.39,16.08-16.37,16.49-27.87v-.68C407.52,162.83,403.6,149.84,391.44,146.46Z" transform="translate(0 0)"/>
  <path class="cls-20" d="M316.83,357.75c9.19-2.57,16.08,3.65,23.92,5.55a7.74,7.74,0,0,0,9.46-7.58V308.24a7.7,7.7,0,0,0-7.7-7.71H295.07a7.69,7.69,0,0,1-7.57-9.34,16,16,0,0,1,.67-2.43c0-.13.14-.27.14-.41a20.71,20.71,0,0,1,1.08-2.57c.13-.4.27-.67.4-1.08.55-1.35,1.22-2.7,1.76-4.19.27-.54.41-1.22.68-1.76s.27-.95.4-1.35c0-.13.14-.27.14-.41s.13-.4.13-.54.14-.4.14-.67a2.4,2.4,0,0,0,.13-.95c0-.27.14-.41.14-.68V274a1.26,1.26,0,0,1,.13-.68v-.95a16.81,16.81,0,0,0-.54-5.14c-.13-.27-.13-.54-.27-.81s-.13-.27-.13-.41a17.8,17.8,0,0,0-4.6-7.3l-.4-.4a3.12,3.12,0,0,0-.82-.68,17.28,17.28,0,0,0-2.56-1.89c-.41-.28-.95-.55-1.35-.82a28.23,28.23,0,0,0-5-2.16l-2.84-.81c-.14,0-.41-.14-.54-.14a31.13,31.13,0,0,0-6.22-.94c-1.08-.14-2.3-.14-3.38-.27h-.68a25.28,25.28,0,0,0-3.24.27,52.29,52.29,0,0,0-6.49,1.08c-8.24,2-15.68,6.49-18.11,15.28a13.57,13.57,0,0,0-.54,5.14,12.36,12.36,0,0,0,.4,3.12c0,.27.14.54.14.81s.13.54.13.81c.14.54.28.94.41,1.49.14.27.14.53.27.67s.13.54.27.81.13.41.27.68.27.68.41,1,.4.81.54,1.21c.4.82.67,1.63,1.08,2.44s.81,1.89,1.21,2.84v.13c0,.14.14.41.14.55a17,17,0,0,1,.68,2.43,7.76,7.76,0,0,1-7.58,9.33H186.66a7.71,7.71,0,0,0-7.7,7.71V463.8a7.7,7.7,0,0,0,7.7,7.71H342a7.71,7.71,0,0,0,7.7-7.71V416.32a7.69,7.69,0,0,0-9.46-7.58c-7.84,1.9-14.73,8.12-23.92,5.55-12.31-3.38-16.22-16.64-16.49-28.14C300.61,374.39,304.53,361.13,316.83,357.75Z" transform="translate(0 0)"/>
  <path class="cls-15" d="M477.94,339.35c-.94-4.46-1.08-10.55-5.4-13.39-3.25-2.16-6.63,1.35-8.25,4.06-5.13,8.38,0,23,6.62,29.49,1.09,1.08,2.57,2,4.06,1.48s2.3-2.57,2.57-4.19C478.21,351.8,479,344.22,477.94,339.35Z" transform="translate(0 0)"/>
  <path class="cls-7" d="M435.77,479.08h16.49V461.23H442l1.08,9.87s-3.38,2.71-5.68,4.47a4.26,4.26,0,0,0-1.21,1.49A5.4,5.4,0,0,0,435.77,479.08Z" transform="translate(0 0)"/>
  <path class="cls-21" d="M435,479.08h17.71v-2.84H437.93A3.07,3.07,0,0,0,435,479.08Z" transform="translate(0 0)"/>
  <path class="cls-7" d="M452.8,479.08h16.49V461.23H459.16l1.07,9.87s-3.37,2.71-5.67,4.47a4.3,4.3,0,0,0-1.22,1.49A3.84,3.84,0,0,0,452.8,479.08Z" transform="translate(0 0)"/>
  <path class="cls-21" d="M452,479.08H469.7v-2.84H455A3.07,3.07,0,0,0,452,479.08Z" transform="translate(0 0)"/>
  <path class="cls-22" d="M477.4,384.8a196.83,196.83,0,0,1-1.49,21.92c-1.08,10.14-2.16,20.29-3.37,30.43-.54,5.14-1.22,10.42-1.76,15.56-.27,2.3,0,11.63-1.89,12.71a4.34,4.34,0,0,1-1.9.41,34.91,34.91,0,0,1-9.86-1.09,1.08,1.08,0,0,1-.68-.26,1.07,1.07,0,0,1-.13-.68c-.41-5.14,1.08-9.88,1.08-15,0-5.68-.41-11.22-.95-16.77-1.08-11.23-2.7-22.45-2.43-33.82.4-13.52,3.51-26.64,6.76-39.77.94-3.92,5-7.16,8.38-3.65,2.29,2.3,3.92,6.49,5.13,10.15.41,1.22.82,2.43,1.09,3.52a43.17,43.17,0,0,1,1.62,8.25A79.65,79.65,0,0,1,477.4,384.8Z" transform="translate(0 0)"/>
  <path class="cls-13" d="M466.86,357.89a8.1,8.1,0,0,0-1.22-2.44,3,3,0,0,0-1.21-1.35,3.08,3.08,0,0,0-1.89-.55A20.15,20.15,0,0,0,449.15,356c-.4.95-.67,1.9-.94,2.71-.82,2.57-1.76,5.13-2.44,7.71-1.21,4-2.29,8.25-3.24,12.44-3.65,26.79-2.7,64.39-1.49,86.71a42.57,42.57,0,0,0,12.44-.14c3.92-7.57,6.48-27.05,6.62-35.57.27-11,0-21.78,2.7-32.47.81-3.38,2.16-6.76,3-10.14C467.8,379.66,470,366.27,466.86,357.89Z" transform="translate(0 0)"/>
  <path class="cls-3" d="M460.91,318.12a3.5,3.5,0,0,0,3.52-3.52v-2.71h-3.52Z" transform="translate(0 0)"/>
  <path class="cls-7" d="M456.32,323.39v-9.33l3.38-.82,1.75-.4,1.09,10.42-.14.13Z" transform="translate(0 0)"/>
  <path class="cls-3" d="M460.78,312.16V313a7,7,0,0,1-.27,1.62,5.5,5.5,0,0,1-4.19,3.79v-5.55l3.38-.81h1.08Z" transform="translate(0 0)"/>
  <path class="cls-7" d="M450.23,311.62c-.13.41-.13.95-.27,1.36-.27,3.24,1,6.08,4.06,6.89a6.49,6.49,0,0,0,5-.95,8,8,0,0,0,3-4.19,8.68,8.68,0,0,0,.41-2,6.42,6.42,0,0,0-4.6-6.9,6.13,6.13,0,0,0-4.59.68.14.14,0,0,0-.14.14C451.59,307.29,450.77,309.59,450.23,311.62Z" transform="translate(0 0)"/>
  <path class="cls-3" d="M449.29,308.78a2.85,2.85,0,0,1-1.08-.68c-.68-.67-1.09-1.75-.55-2.43.55-.95,1.9-1.08,3-.81a50.26,50.26,0,0,0,9.06.54,4.8,4.8,0,0,1,4.73,4.74v3.1l-2.3-1.21a3.58,3.58,0,0,1-.14,1.21,6.44,6.44,0,0,0-2.29,1.22c-1.9-1.48-2.84-4.19-5.41-4.87a27.8,27.8,0,0,0-3.38-.4Z" transform="translate(0 0)"/>
  <path class="cls-3" d="M464.29,314.46a2.44,2.44,0,0,1-.18.93,2.55,2.55,0,0,1-.53.79,2.34,2.34,0,0,1-.79.53,2.37,2.37,0,0,1-1.86,0,2.34,2.34,0,0,1-.79-.53,2.24,2.24,0,0,1-.53-.79,2.44,2.44,0,0,1-.18-.93,2.48,2.48,0,0,1,.18-.93,2.46,2.46,0,0,1,1.32-1.32,2.49,2.49,0,0,1,1.86,0,2.34,2.34,0,0,1,.79.53,2.67,2.67,0,0,1,.53.79A2.48,2.48,0,0,1,464.29,314.46Z" transform="translate(0 0)"/>
  <path class="cls-7" d="M463.61,313.79a2.39,2.39,0,0,1-.71,1.72,2.22,2.22,0,0,1-.79.52,2.28,2.28,0,0,1-.93.19,2.5,2.5,0,0,1-1.72-.71,2.47,2.47,0,0,1-.53-2.66,2.45,2.45,0,0,1,.53-.78,2.2,2.2,0,0,1,.79-.53,2.31,2.31,0,0,1,.93-.19,2.28,2.28,0,0,1,.93.19,2.12,2.12,0,0,1,.79.53,2.45,2.45,0,0,1,.53.78A2.5,2.5,0,0,1,463.61,313.79Z" transform="translate(0 0)"/>
  <path class="cls-3" d="M464,310c1.08.54,3.25-.14,4.05-1.08a1.15,1.15,0,0,0,.41-.81,5.26,5.26,0,0,0-1.21-5,4.88,4.88,0,0,0-5-1.22,4.77,4.77,0,0,0-2.16,1.49,3.48,3.48,0,0,0,.13,3.92,4.8,4.8,0,0,0,3.66,1.76C464.83,309.05,463.21,309.73,464,310Z" transform="translate(0 0)"/>
  <path class="cls-7" d="M439,342.6c6.48-1.49,12.7-4.2,17.57-8.79a9.77,9.77,0,0,0,2.84-4.2c.4-1.49.13-4.19-1.36-5.14a1,1,0,0,0-.54-.27c-2-.94-5.14,0-6.89.54-9.19,2.84-17.17,9.61-26.76,10.42-.14-.81-.41-1.49-.54-2.3-.41-1.76-.82-3.52-1.36-5.28-.67-2.7-1.48-5.54-2.29-8.25-.27-.68-.41-1.49-.68-2.16-.67-2.3-.94-4.74-2-6.9a15.41,15.41,0,0,0-.81-1.49,20.42,20.42,0,0,0-3.92-4.46c-.27-.14-.67-.54-1.08-.54-.13,0-.27.13-.13.27a17.42,17.42,0,0,1,3.37,4.46v.27c-.13,0-.13,0-.27-.13a17.19,17.19,0,0,0-3.51-4.6h-.13s-.14,0-.14.13-.13.14,0,.27a22.22,22.22,0,0,1,3.38,4.74v.27c-.13,0-.13,0-.27-.14a17.7,17.7,0,0,0-3.24-4.6c-.14-.13-.14,0-.28,0s-.13.14-.13.27v.14a17.1,17.1,0,0,1,3,4.46c0,.14,0,.14-.13.27s-.14,0-.27-.13a14.93,14.93,0,0,0-2.71-4.06c-.13-.14-.27,0-.27.13,0,.55.68,1.09.95,1.49a15.64,15.64,0,0,1,1.08,2.17v.13c.68,2.44,1.08,4.87,1.89,7.31a31.46,31.46,0,0,1,1.35,6.22c.28,2.57.28,5,.41,7.44.27,4.87-.27,10.42,4.87,12.85S433.47,343.82,439,342.6Zm-16.09-9.2v0Z" transform="translate(0 0)"/>
  <path class="cls-15" d="M438.75,342.73H439c7.29-1.75,13.24-4.73,17.7-8.92a10.74,10.74,0,0,0,3-4.2c.53-1.62,0-4.33-1.36-5.41-.13-.13-.4-.27-.54-.4-2-.95-5-.14-7,.54-3.65,1.08-7.16,3-10.67,4.6-5,2.57-10.28,5.14-16,5.68-.14-.41-.14-.81-.27-1.22a6.73,6.73,0,0,1-.27-.95c-.41-1.62-.81-3.38-1.36-5.27-.67-2.71-1.48-5.28-2.29-8.26v-.27l-.14.14c-1.08.68-2.16,1.49-3.38,2.3-.54.4-1.21,1-1.76,1.35h-.13v.14c.13,1.62.13,3.24.27,4.73A17.58,17.58,0,0,0,415,330v1.76c.13,4.46.27,9.06,4.86,11.22C425.09,346,433.34,344.08,438.75,342.73Z" transform="translate(0 0)"/>
  <path class="cls-15" d="M445,340a24.58,24.58,0,0,0,1.22,7,78.75,78.75,0,0,0,2.7,8c.14.14.14.41.27.54a1,1,0,0,0,.68.14c7,0,12.84-.4,19.6-.54a3,3,0,0,0,3.11-2.57c.81-6.09,2.29-11.9.67-20.83-.41-2-.41-4.06-1.62-5.82-3.65-4.87-11.63-3.38-16.36-.81C449.42,328.12,445,333.54,445,340Z" transform="translate(0 0)"/>
  <path class="cls-3" d="M454.42,310.94c-.13,1.63-.81,3.25-.4,4.74.13.67.54,1.22.68,1.76.67,2.84-1.9,5.82-.55,8.38.81,1.76,3.11,2.44,3.92,4.2a15.47,15.47,0,0,1,.54,2.71,4.9,4.9,0,0,0,3.38,3.1,11.09,11.09,0,0,0,4.73,0c2.71-.53,5.41-1.62,7-3.92s1.36-5.81-.95-7.3c-.53-.41-1.21-.54-1.62-1.22-1.08-1.49.68-3.65.27-5.41-.54-3-5.81-3.11-6.21-6.22-.14-.82.13-1.62,0-2.44a3.91,3.91,0,0,0-3-3.11,13.1,13.1,0,0,0-4.59,0,28.71,28.71,0,0,0-4.73.81A5.87,5.87,0,0,1,454.42,310.94Z" transform="translate(0 0)"/>
  <path class="cls-23" d="M459.43,378.17a4.84,4.84,0,0,1-4.87-4.87v-8.38h9.73v8.38A4.84,4.84,0,0,1,459.43,378.17Z" transform="translate(0 0)"/>
  <path class="cls-23" d="M476.86,377a4.46,4.46,0,0,1-5-3.93l-.95-7.57,3.25-.41c.4,1.35.81,2.57,1.08,3.52A44,44,0,0,1,476.86,377Z" transform="translate(0 0)"/>
  <path class="cls-3" d="M600.13,345.44h-1.75l-.14.68H565l.13-.68h-1.75l-7,30.84L532.82,479.49h1.76l3.92-17.32h33.25l-3.92,17.32h1.75L582,424.57l.27-1.08v-.14l.68-2.7,3.51-15.56.41-1.76L590.8,386l.41-1.76L594.72,369l.41-2,.4-1.76,3.93-17.32.13-.4c.14-.14.14-.27.14-.54v-.14Zm-10.54,38.82h0l-.41,1.76-3.92,17.31v.14l-.27,1.22-.13.4v.14l-2.57,11.5-.95,3.92-5.13,22.45-3.92,17.32H539L557.82,378,560.4,367h33.25Zm4.46-19.48-.14.41H560.66l3.92-17.32h33.25Z" transform="translate(0 0)"/>
  <path class="cls-24" d="M603.38,403.2H585.26v.13l-.27,1.22-.13.41h19C603.78,404.42,603.51,403.87,603.38,403.2Zm13.51,12.31-.13-.68-1.63-7.44-.67-3.11V404c0-.27-.14-.41-.27-.68l-4.06-17.72a.73.73,0,0,0,.41-.67.78.78,0,0,0-.81-.81l-4.06-17.86V366a.68.68,0,0,0-.27-.54l-4.59-20h-1.76l.13.68H565.93l-.13-.68H564l.27,1.49v.13a.78.78,0,0,0,.14.54l.13.41,3.92,17.31.41,1.76,5.94,26,1.36,5.68,1.21,5,.28,1.22.13.54,3.51,15.15.95,3.92,12.43,54.92h1.76l-3.92-17.32h33.25l3.92,17.32h1.76Zm-17.16-67.64,3.92,17.32H570.4l-1.09-4.74L566.48,348h33.25ZM575,384.26h0l-2.84-11.9-1.22-5.28h33.26l3.91,17.32H575Zm1.76,8.52-1.63-6.89h33.26l3.92,17.31H579.05L578,398.33Zm6.35,27.87-1-3.92-2.56-11.37-.14-.4H612.7l.54,2.57,1.89,8.25,1.22,5.14.27,1.08.14.27H583.5Zm.81,3.38h33.25l3.92,17.32H587.83Zm8.25,36.25L588.24,443h33.25l3.92,17.31Z" transform="translate(0 0)"/>
  <path class="cls-25" d="M603.78,422H617v-1.62a8.69,8.69,0,0,0-.14-1.9l-.41-11h-8.24l1.22,8s-2.71,2.16-4.46,3.52a3.73,3.73,0,0,0-1,1.21A6.64,6.64,0,0,0,603.78,422Z" transform="translate(0 0)"/>
  <path class="cls-3" d="M603.24,422.41h14.33v-1.49H603.65A2.73,2.73,0,0,0,603.24,422.41Z" transform="translate(0 0)"/>
  <path class="cls-9" d="M618.92,411.72a5.76,5.76,0,0,1-2,3.11.13.13,0,0,0-.13.14,4.69,4.69,0,0,1-1.63.81,6.89,6.89,0,0,1-5.67-.68c-.14,0-.14-.13-.27-.13-2.17-1.49-3.92-5.41-5.41-9.88-.14-.54-.4-1.22-.54-1.76-1.89-6.08-3.24-12.85-4.33-17V386c-.13-.54-.27-1.22-.4-1.76-1.35-5.14-2.57-10.14-3.65-15.28-.14-.68-.27-1.36-.41-2s-.27-1.22-.4-1.76v-.41c-.41-2-.81-4.19-1.22-6.36-.67-3.65-1.76-7.16-2.7-10.68a9.11,9.11,0,0,0-.54-1.76,71.74,71.74,0,0,1-2-8.93v-.13c-.81-6.09,0-9.61,2-11.77a7.19,7.19,0,0,1,2.57-1.76c3.51-1.76,8.78-2.43,15-4.33.81-.27,1.48-.41,2.3-.67,0,.13.13.4.13.53a62.92,62.92,0,0,1,2,7.18c3.79,16.77,1.89,35.84,3,52.48.54,9.47,3.52,18,4.6,27.19a1.77,1.77,0,0,0,.13.81A13,13,0,0,1,618.92,411.72Z" transform="translate(0 0)"/>
  <path class="cls-2" d="M570.93,401.85c1.49-1.63,3.93-4.33,3.93-4.33L573,393.05l8.91-.4,2.57,8c.27.67.41,1.35.68,2.16s.4,1.22.54,1.9l-15.41.67a4.64,4.64,0,0,1-.14-1.89A3.11,3.11,0,0,1,570.93,401.85Z" transform="translate(0 0)"/>
  <path class="cls-3" d="M569.72,405.77l16.49-.68a13.52,13.52,0,0,0-.54-1.76l-16.09.68A8.08,8.08,0,0,0,569.72,405.77Z" transform="translate(0 0)"/>
  <path class="cls-9" d="M610.13,323.12a11.35,11.35,0,0,0-1.49-2.16c-.13-.14-.26-.41-.4-.55-.4-.4-.67-.81-1.08-1.21-6.22-7.17-10.54-7.31-20.55-9.61a21.65,21.65,0,0,0-5.13-.67c2.3-1.35,4.59-2.71,3.78-2.57a17.4,17.4,0,0,0-6.35,3.11,5.05,5.05,0,0,0-2.16,1.62c-.14.14-.14.14,0,.14l-4.06,4c-.4.41-.67.81-1.08,1.22-6.08,7.44-10.68,16.5-15.14,24.89-2.7,5-5.67,9.88-6.89,15.42-1.49,6.5,2.43,13.39,6.76,19.34.4.68.94,1.22,1.35,1.9,1.76,2.3,3.38,4.33,4.86,6.22a68.19,68.19,0,0,1,4.47,6.36c1.62,2.43,3,5.14,5.27,6.9a4.74,4.74,0,0,0,1.62.81,6.33,6.33,0,0,0,2.3.27,9.83,9.83,0,0,0,1.76-.27,17.35,17.35,0,0,0,2.43-.68,3.79,3.79,0,0,0,2.43-1.62c1.08-2.16-1.49-5.55-2.43-7.85-.28-.81-.68-1.49-.95-2.29-.27-.55-.54-1.22-.81-1.76-2-3.93-4.6-8-6.62-11.91a28.62,28.62,0,0,1-2.17-5.27c-.13-.41-.27-.81-.4-1.22-.14-.14-.14-.27-.27-.54a4.72,4.72,0,0,1-.81-2.17,4.63,4.63,0,0,1,.94-2.57A145.32,145.32,0,0,1,578.1,348c.4-.54.95-1.22,1.35-1.76a87.67,87.67,0,0,1,8-9.06c.67-.68,1.35-1.22,1.89-1.89,0,.13.13.27.4.4a49.56,49.56,0,0,1,7.84,5.41c4.87-2.84,10.28-6.63,12.44-12.17.27-.82.54-1.63.67-2.17A5.05,5.05,0,0,0,610.13,323.12Zm-14.46,8.39a.48.48,0,0,0-.4-.14,2.5,2.5,0,0,1,1.75.14C596.62,331.37,596.07,331.78,595.67,331.51Z" transform="translate(0 0)"/>
  <path class="cls-3" d="M609.59,318.92a62.92,62.92,0,0,1,2,7.18c-.27.13-.67.4-1,.54a14.14,14.14,0,0,1-6.35.67,78.48,78.48,0,0,1-14.87-2l-2.84-.81a42.36,42.36,0,0,1-9.46-4.19c-2.16-1.36-3.92-3-4.59-4.87a1.2,1.2,0,0,1-.14-.68c-1.76-7.16,8-9.06,12.84-9.06A42,42,0,0,1,600,308a25.31,25.31,0,0,1,11.62,8.11A10.53,10.53,0,0,1,609.59,318.92Z" transform="translate(0 0)"/>
  <path class="cls-8" d="M642.44,294.31c-6.35,6.08-13.11,5-22.85,3.79a17.79,17.79,0,0,0-5.4-.14,9.2,9.2,0,0,1-.14,1.89c-.4,1.76-.67,3.52-1.08,5.42-6.49-2.85-14.32-2.58-21.35-2.58-2.3,0-4.6-.13-6.9-.27-.27,0-.81-.13-.94-.13s-.55-.14-.81-.14c-1.09-.27-2.17-.54-3.11-.81h-.27c-.54-.27-1.09-.68-1.62-.95h-.14l-1-.94-.4-.41c-.27-.54-.68-.94-1-1.49,0-.13-.41-.81-.41-.94a10.38,10.38,0,0,1-.53-1.9,5.83,5.83,0,0,0-3-3.79,5,5,0,0,0-.68-2.16,6.6,6.6,0,0,0-.81-1.08,14.82,14.82,0,0,0-4.19-2.84,62,62,0,0,1-6.75-4.2c-7.3-5.27-11.76-14.06-13.25-23-1.08-6.5-2.57-26,3.38-30.71,2.16-1.62,5.41,0,6.62,2.3s1.08,5.28,1.35,8c.68,7.16,2.57,22.59,8.52,26.64,2.16,1.49,8.52,7.3,11.35,8,1.76.41,3.65.81,5.55,1.09a29.54,29.54,0,0,1,4.73.94c3.91,1.08,7.7,2.71,11.62,3.65a118.6,118.6,0,0,0,12.17,1.9c1.21.13,2.43.4,3.51.54a50,50,0,0,0,11.89,1.35c12-.68,15-15.42,19.74-24.35a9.41,9.41,0,0,1,2.16-3c1.76-1.36,4.46-.81,6.08.68.14.13.27.13.27.26C655.82,274.29,648.66,288.35,642.44,294.31Z" transform="translate(0 0)"/>
  <path class="cls-8" d="M621.35,292.28a29.92,29.92,0,0,1-1.76,6c-.4,1.08-.81,2-1.21,3-1.22,2.84-2.57,5.81-3.92,8.65-1.36,3.25-1.36,5.28-1.89,8.66-.27,1.89-2,3.38-3.93,4.06s-5,.68-6.89.81a30.87,30.87,0,0,1-8.65.14,84.61,84.61,0,0,1-12.16-2.44c-3.65-.95-10-3.38-11.9-7.17-1.35-2.7.81-3.38,1.35-5.41.41-1.76-.13-4.33-.27-6.36v-.54c-.27-4.73-.27-9.6-.13-14.34a18.85,18.85,0,0,1,.13-2.7c.14-2.71.41-5.42,1.76-7.58.14-.13.27-.27.27-.4,1.62-2.17,4.46-3.25,7.17-3.65a26.15,26.15,0,0,1,8,.54c.27,0,.54.13.81.13,7.84,1.35,15.68,2.71,23.12,5.41.4.13.94.41,1.35.54,2.56,1.08,5.27,2.44,6.89,4.47C621.62,286.33,621.89,289.3,621.35,292.28Z" transform="translate(0 0)"/>
  <path class="cls-2" d="M554.45,223.15c-1.76.41-3.52.68-5.27.95,0,.27.13-.27,0,.54-.28,1.76-1.35,5.55-.82,7a4.39,4.39,0,0,0,3.38,2.7,3.37,3.37,0,0,0,3.79-1.76v-3.24c.13-.54.27-.95.4-1.49a8.47,8.47,0,0,0,0-4.87A5.23,5.23,0,0,1,554.45,223.15Z" transform="translate(0 0)"/>
  <path class="cls-2" d="M595.53,264.14l-.67-.13c-.14.13-.41.27-.54.4v.68A7.17,7.17,0,0,0,595.53,264.14Z" transform="translate(0 0)"/>
  <path class="cls-2" d="M599.73,265a29.19,29.19,0,0,1-3.52,2.3L593,270.09v.14a2.11,2.11,0,0,1-.54.54l-.81.81-1.09,5.55a4.63,4.63,0,0,0,0,1.89,5.46,5.46,0,0,0,4.47,4.74,5.7,5.7,0,0,0,6.75-4.47l2.71-13.39Z" transform="translate(0 0)"/>
  <path class="cls-3" d="M599.46,271.58l-.41.81a5.64,5.64,0,0,1-1.08,1.49,6.33,6.33,0,0,1-7.17.95l3.52-6.23Z" transform="translate(0 0)"/>
  <path class="cls-3" d="M594.18,260.08a2,2,0,0,0,0,1.22,3.24,3.24,0,0,0,.82,1.22c.13.13.27.4.4.54v.54c-.27,1.35-1.35,2.84-.54,4.2a11.51,11.51,0,0,0,4.46,3.51,3.76,3.76,0,0,0,3.38.27,4.06,4.06,0,0,0,1.62-2,7.17,7.17,0,0,0,.95-1.75l.13-.14c.82-.81,1.89-1.76,1.62-2.84s-1.21-1.35-1.75-2.17c-.14-.26-.27-.4-.41-.67a10.69,10.69,0,0,1-.54-1.49,4.26,4.26,0,0,0-1.89-2.16,5.62,5.62,0,0,0-1.62-.55,4.4,4.4,0,0,0-1.35.14c-.68.27-1.22.81-2,1.08s-1.22-.13-1.76,0a1.48,1.48,0,0,0-1.35.82A.39.39,0,0,0,594.18,260.08Z" transform="translate(0 0)"/>
  <path class="cls-2" d="M604.46,267.25l-2.84,5a4.31,4.31,0,0,1-.68.95c-.13.13-.27.4-.54.53a6.07,6.07,0,0,1-7.16.82l-.68-.41a3.51,3.51,0,0,1-1.35-4.6l3.79-6.76a4,4,0,0,1,5.4-1.49l2.57,1.49A3.24,3.24,0,0,1,604.46,267.25Z" transform="translate(0 0)"/>
  <path class="cls-3" d="M595.53,268.07l-1.21-.68,1.62-2.84.41.13L595,267.12l.8.54Z" transform="translate(0 0)"/>
  <path class="cls-3" d="M594.45,265.23c-.13-.14-.27-.41-.13-.55s.4-.27.54-.13.27.4.14.54S594.59,265.36,594.45,265.23Z" transform="translate(0 0)"/>
  <path class="cls-3" d="M598,267.12c-.14-.14-.27-.41-.14-.54s.41-.27.55-.14.27.41.13.54S598.24,267.25,598,267.12Z" transform="translate(0 0)"/>
  <path class="cls-3" d="M602,263.19a1.77,1.77,0,0,0-1.62-.4l-3.24.27a4.57,4.57,0,0,1-1.89-.27,1.64,1.64,0,0,1-.14-.81c1.22-1.22,2.57-2.3,4.46-2.16a10.76,10.76,0,0,1,3,1.08c.28.13.82.54,1.08.54s.27.13.41.13a2.68,2.68,0,0,0,.68,1.22,4.36,4.36,0,0,1,.94,2.3,5.52,5.52,0,0,1-1.21,3.51l-1.36,1.49-2.29-.27-2.57,4.74a4.2,4.2,0,0,1-5.54,1.76,4,4,0,0,1-1.63-5.55l1.63-3,2,1.21a4.09,4.09,0,0,0,4.6-.41l2.3-1.48,1.22-1.09A3.37,3.37,0,0,0,602,263.19Z" transform="translate(0 0)"/>
  <path class="cls-3" d="M600.94,270.37l-.41.8a1.26,1.26,0,0,0,.55,1.77,1.82,1.82,0,0,0,1.48.13l1.49-2.7a1.32,1.32,0,0,0-.54-.68,1.62,1.62,0,0,0-1.35-.14A1.66,1.66,0,0,0,600.94,270.37Z" transform="translate(0 0)"/>
  <path class="cls-2" d="M599.46,271.58l1.62.95a2,2,0,0,0,2.83-.81l.14-.27a1.69,1.69,0,0,0-.54-2.17l-.41-.27a2,2,0,0,0-2.7.81Z" transform="translate(0 0)"/>
  <path class="cls-3" d="M572.29,276.59a16.37,16.37,0,0,1-.41,3.11c-.27,1.49-.67,3-.81,4.33s-.14,2.84-.14,4.32v1.76a108.16,108.16,0,0,1-.53,11.37.8.8,0,0,1-.14.54v-.54c-.27-4.74-.27-9.61-.14-14.34a14.82,14.82,0,0,0-4.19-2.84,41.1,41.1,0,0,1,2.57-5.55C570.66,275.1,572.29,274,572.29,276.59Z" transform="translate(0 0)"/>
  <path class="cls-7" d="M658.12,243.72c-.27-.95-.14-.68-.27-.95s-.14-.13-.14-.27-.14,0-.27,0c-.14.27-.14.54-.27.81-.4,1.49-.95,3-1.35,4.19a.14.14,0,0,1-.14.14h-.13c-.14,0-.14-.14-.14-.27a29.23,29.23,0,0,0,1.36-4.06c.13-.27.13-.54.26-.81a.82.82,0,0,0-.13-.54c-.27-.14-.68,0-.68.27s-.13.54-.27.81a28.77,28.77,0,0,1-1.48,4.19.14.14,0,0,1-.14.14h-.13c-.14,0-.14-.14-.14-.27a18.31,18.31,0,0,0,1.49-4.2,3.24,3.24,0,0,0,.27-1.08c.13-.27,0-.54-.27-.54a.5.5,0,0,0-.68.27c-.54,1.76-1.21,3.66-1.75,5.41a.14.14,0,0,1-.14.14h-.14c-.13,0-.13-.14-.13-.27.68-1.76,1.35-3.65,1.89-5.55a.29.29,0,0,0-.27-.27.48.48,0,0,0-.4.14c-.68.4-1.09,2-1.36,2.7a58.64,58.64,0,0,1-2.56,5.28c.13-.14-1.49-3.39-1.9-3.12-.13.14-.27.28-.13.41s.13.27.13.54a11.57,11.57,0,0,1,.82,4.33c0,1.35-1.22,5.14-1.63,6.36v.27c0,1.08,1.63,1.9,3.65,1.9a4.23,4.23,0,0,0,3.25-1.09v-.13c.13-.27.27-.41.27-.68v-.14c.68-2.7,1.48-5.27,2.3-7.84A25.5,25.5,0,0,0,658.12,243.72Z" transform="translate(0 0)"/>
  <path class="cls-26" d="M652.17,252.37h-.4a4.88,4.88,0,0,0-.82-3.24,2.3,2.3,0,0,0-1.75-.95v-.4a2.54,2.54,0,0,1,2,1.08A4.54,4.54,0,0,1,652.17,252.37Z" transform="translate(0 0)"/>
  <path class="cls-7" d="M558.77,222.48a8.81,8.81,0,0,0-1.89-4.6c-.27-.27-.68-.14-.68.13a16.82,16.82,0,0,0-.27,4.47,10.12,10.12,0,0,0-2.43,3.79l.13-.14a1.82,1.82,0,0,0,.14,1.9c1.35,1.21,3.92-1.49,4.46-2.57A4.4,4.4,0,0,0,558.77,222.48Z" transform="translate(0 0)"/>
  <path class="cls-26" d="M552.15,226.67l.27-.81a6.08,6.08,0,0,1,3-3.38c.14,0,.14,0,.14-.14v-.27a.8.8,0,0,0-.14-.54,9.6,9.6,0,0,1,0-3.38,1.38,1.38,0,0,1,.68-1l.13.41a1,1,0,0,0-.54.67,6.74,6.74,0,0,0,0,3.25.78.78,0,0,0,.14.54.82.82,0,0,1-.14.55c-.13.13-.27.13-.27.27a4.91,4.91,0,0,0-2.7,3l.13.13Z" transform="translate(0 0)"/>
  <path class="cls-27" d="M307.91,361.13l-16.77-5.81c-2-.68-4.59.13-7,1.62l2.16-6.09c-6.62,2.57-7.44-1-9.33,5.82-3.65,13.66-6.75,38.68-11.35,52.21-4.33,12.72-12.17,22.32-17.84,34.36-.41.81-1.9,2.7-1.76,3.65,0,1.22,1.76,1.35,2.43,2.3a19.5,19.5,0,0,0,5.14,4.33,2.34,2.34,0,0,0,1.89.4c.41-.13.68-.67,1-1.08,11.08-11.63,20.54-29.62,29.73-43a5.57,5.57,0,0,0,.68-.95.42.42,0,0,0,.14-.27l5.67-10.55L306,373.17l3.52-6.5v-.13C310.74,364.24,309.8,361.81,307.91,361.13ZM260.6,426.6c-1.89,7.17,4.46-14.2,1.49-7.44Z" transform="translate(0 0)"/>
  <path class="cls-3" d="M248.16,451.76c1.49,1.08,2.84,2.3,4.33,3.38a2.57,2.57,0,0,0,2.3.81,1.36,1.36,0,0,0,.94-1.48,5.08,5.08,0,0,0-.94-1.63c-1.09-1.35-4.33-5.41-6.63-5.54C244.24,447.16,246.68,450.54,248.16,451.76Z" transform="translate(0 0)"/>
  <path class="cls-25" d="M247.62,460a77.19,77.19,0,0,1,5.81-5.41c-.67-2.84-2.43-5.27-5.4-5.82h-.14c-1.89,2.44-3.65,4.74-4.32,5.41a1.7,1.7,0,0,0-.54,1.09c-.14.4.13,1,.27,1.35a11.29,11.29,0,0,0,2.16,2.84,7.56,7.56,0,0,0,1.75,1.08A.75.75,0,0,1,247.62,460Z" transform="translate(0 0)"/>
  <path class="cls-28" d="M249.25,470.83a1.14,1.14,0,0,0,1.89.68,1.86,1.86,0,0,0,.67-1.08A1.76,1.76,0,0,1,249.25,470.83Z" transform="translate(0 0)"/>
  <path class="cls-28" d="M252.08,456.09c-.4-1.62-3-5.41-4.19-5.68-2.7-.54-5.81,2.43-5.4,5,.27,1.76,8.51,14.88,8.78,14.61a3.08,3.08,0,0,0,.95-.95,5,5,0,0,1-.27,1.36,3.12,3.12,0,0,0,.4-.68C254,466.23,252.35,459.88,252.08,456.09Z" transform="translate(0 0)"/>
  <path class="cls-27" d="M242.48,458.93A29.32,29.32,0,0,1,244,462c.82,1.62,1.62,3.11,2.44,4.74a27.51,27.51,0,0,0,2.56,4.33,1.84,1.84,0,0,0,1.35.81c.28,0,.41-.28.68-.41A4.71,4.71,0,0,0,252,468a15.73,15.73,0,0,0-1.08-3.51L247.21,456C244.65,450,239.92,453.79,242.48,458.93Z" transform="translate(0 0)"/>
  <path class="cls-28" d="M312.37,478.27v1.36H294V462.85h7.3v9.34l8.79,3a3.67,3.67,0,0,1,2.3,2.57Z" transform="translate(0 0)"/>
  <path class="cls-28" d="M294,462.85h7.3v8.39H294Z" transform="translate(0 0)"/>
  <path class="cls-3" d="M312.37,478.27v1.36H294v-1.9h18.39Z" transform="translate(0 0)"/>
  <path class="cls-10" d="M278.57,363.57c-.67.94-.53.13,0,0Z" transform="translate(0 0)"/>
  <path class="cls-27" d="M311.55,438c-1.48,8.93-4.59,17.86-6.08,26.78a13.05,13.05,0,0,1-1.35,4.61c-1.49,2.43-5.67,3.38-8.24,2.43-3.38-1.35-2.44-4.19-2.17-7.17a79.57,79.57,0,0,0,.54-11.5c-.27-8.79,0-17.58-.27-26.37v-.55c-1.08-7.57-12.16-43.28-12.57-50.86-.4-10.55-1.89-11.9-2.57-11.63.55-.68,1.49-2.43,3-6.22.81-1.9,2.3,1.21,4.06,3.51.94,1.22,2,2.31,3.1,2.17,3.11-.27,6.09,2.3,9.19,2.57,2.71.27,6.22-.54,9.06-.54a3.44,3.44,0,0,1,3.24,3.52v2.43a37.14,37.14,0,0,0,.27,3.79c.81,10.68,2.71,21.23,3,31.92A183,183,0,0,1,311.55,438Z" transform="translate(0 0)"/>
  <path class="cls-3" d="M310.61,375.06a25.17,25.17,0,0,1-3.25,0,39,39,0,0,1-16.89-4.33c-.13-.13-.27-.13-.41-.27-2.7-1.35-6.62-3.24-8.24-5.81a3.88,3.88,0,0,1-.54-1.63c.27-.13.4-.4.67-.54l3.52-1.75c.94,1.21,2,2.29,3.11,2.16,3.11-.27,6.08,2.3,9.19,2.57,2.7.27,6.21-.54,9.05-.54a3.45,3.45,0,0,1,3.25,3.52v2.43A28.82,28.82,0,0,1,310.61,375.06Z" transform="translate(0 0)"/>
  <path class="cls-3" d="M305.74,306.62c-.94-1.35-2.16-2.3-3.65-1.9s-1.62,1.9-3,2.44a16,16,0,0,0-3.38,1.76,3.85,3.85,0,0,0-1.22,3.92,20.54,20.54,0,0,0,1.62,5.55c.41.94.95,2,2,2.3s2.57-.68,3.11-1.77a4.85,4.85,0,0,0,.41-1.48c0-.54-.14-1.22-.14-1.76a3.79,3.79,0,0,1,1.36-2.84c1.21-.68,3.91,0,4.45-1.22C308,310.14,306.69,307.83,305.74,306.62Z" transform="translate(0 0)"/>
  <path class="cls-2" d="M307,324.74l-1.22,5.82c-3.65,1.22-10.13,3.11-10.95.81l1.9-16.1a4.56,4.56,0,0,1-.27-1.35,5.39,5.39,0,0,1,3.51-5.41,5.54,5.54,0,0,1,4.87.68,6.47,6.47,0,0,1,1.89,2.43l1.62,4.74a3.86,3.86,0,0,1-.4,2.84Z" transform="translate(0 0)"/>
  <path class="cls-3" d="M308,319.33,307,324.74l-2.3-2.7A6.57,6.57,0,0,0,308,319.33Z" transform="translate(0 0)"/>
  <path class="cls-3" d="M300.23,315.1a2,2,0,0,1,.49.63,2.22,2.22,0,0,1,.22.76,1.87,1.87,0,0,1-.1.78,1.82,1.82,0,0,1-.39.69,1.85,1.85,0,0,1-.62.49,2,2,0,0,1-.76.22,2,2,0,0,1-.78-.1,2,2,0,0,1-1.18-1,1.85,1.85,0,0,1-.22-.76,1.94,1.94,0,0,1,.1-.79,2,2,0,0,1,.39-.69,2.14,2.14,0,0,1,.62-.49,2,2,0,0,1,.76-.21,2,2,0,0,1,.78.09A2.13,2.13,0,0,1,300.23,315.1Z" transform="translate(0 0)"/>
  <path class="cls-3" d="M305.88,309.19l.41-.54a40.91,40.91,0,0,1-5.82,2.43c.81,3.25-.67,3.65-2,4.74s-3,.81-3.25-1.09a5.76,5.76,0,0,1,.68-3.65,10.06,10.06,0,0,1,3.92-3.65,6.81,6.81,0,0,1,5.13-.41A3.21,3.21,0,0,1,305.88,309.19Z" transform="translate(0 0)"/>
  <path class="cls-3" d="M300.88,319.74h-.14c-.4.13-2.43.81-2.7.54s-1.35-.54-1.49-.95c-1.35-3.25-.13-2.3.14-5.68.13-1.49,3.11-3.92,4.86-3.65s1.9,3.79,2.16,5.27a4.15,4.15,0,0,1-.26,2.85A3.59,3.59,0,0,1,300.88,319.74Z" transform="translate(0 0)"/>
  <path class="cls-2" d="M304.25,313.62a2.07,2.07,0,0,1,.49.62,2.11,2.11,0,0,1,.12,1.56,2.19,2.19,0,0,1-.39.68,2.06,2.06,0,0,1-1.38.71,2.12,2.12,0,0,1-.79-.1,2,2,0,0,1-.69-.39,2.14,2.14,0,0,1-.49-.62,2.06,2.06,0,0,1-.21-.76,2.12,2.12,0,0,1,.09-.79,2.36,2.36,0,0,1,.39-.69,2.32,2.32,0,0,1,.63-.49,2,2,0,0,1,.76-.21,2,2,0,0,1,.78.09A2.13,2.13,0,0,1,304.25,313.62Z" transform="translate(0 0)"/>
  <path class="cls-3" d="M304,309.05l1.09,2.84a1.71,1.71,0,0,1-.41,2.17c-.54.27-1.35-.41-1.75-1.36l-1-2.84Z" transform="translate(0 0)"/>
  <path class="cls-2" d="M289.52,267.39c-.13.41-.27.81-.4,1.35-.81,2.3-1.76,5-.41,7a1.09,1.09,0,0,0,.54.54c.27.13.68-.14.95-.27a13.49,13.49,0,0,0,5.14-6.77c.8-2.57.54-5.14,2.16-7.57a.52.52,0,0,0,.13-.41.5.5,0,0,0-.13-.4c-.27-.28-2.16,2.16-2,2.29-.54-1.89-1.08-3.65-1.35-4.86-.14-.68-.27-2-.81-2.44a.44.44,0,0,0-.27-.13c-.14,0-.27,0-.27.13.27,1.63.4,3.25.81,4.87,0,.14,0,.14-.14.27h-.13l-.14-.13c-.27-1.63-.54-3.25-.81-4.74,0-.27-.27-.4-.54-.4s-.41.27-.27.4.14.54.14.95a19.36,19.36,0,0,0,.67,3.65c0,.14,0,.14-.13.27h-.14l-.13-.13a23.63,23.63,0,0,1-.68-3.79,1.2,1.2,0,0,0-.14-.68c0-.27-.26-.4-.53-.27s-.27.27-.27.41a1.77,1.77,0,0,0,.13.81A27,27,0,0,0,291,261c0,.14,0,.14-.13.27h-.14l-.13-.13a27.12,27.12,0,0,1-.55-3.65,1.26,1.26,0,0,0-.13-.68c0-.14-.14-.14-.14,0l-.13.13a4.73,4.73,0,0,0-.27.68c-.54,1.22,0,3.92.27,5.14A7.62,7.62,0,0,1,289.52,267.39Z" transform="translate(0 0)"/>
  <path class="cls-2" d="M337.37,267.8a13.88,13.88,0,0,1-.27,2.29,9.52,9.52,0,0,0,.13,5.14,3.7,3.7,0,0,0,4.06,2.57c1.89-.53,2.57-2.7,2.71-4.59a20.85,20.85,0,0,1,1.21-7c.41-1.35,1.62-3.78,1.35-5.27-.13-.95,0-.68-.13-.95s-.14-.13-.14-.27-.13,0-.27,0c-.13.27-.13.54-.27.67-.54,1.49-.95,2.84-1.48,3.93a.13.13,0,0,1-.14.13H344c-.14,0-.14-.13-.14-.27.54-1.08.94-2.43,1.49-3.92.13-.27.13-.54.27-.81a.78.78,0,0,0-.14-.54.42.42,0,0,0-.68.27c-.13.27-.13.4-.26.68a31.91,31.91,0,0,1-1.63,4.05l-.13.14h-.14c-.13,0-.13-.14,0-.27a30.73,30.73,0,0,0,1.63-3.92,2.68,2.68,0,0,0,.27-.95c.13-.27,0-.41-.27-.54a.49.49,0,0,0-.68.27c-.54,1.75-1.22,3.38-1.89,5.14a.13.13,0,0,1-.14.13h-.13c-.14,0-.14-.13-.14-.27.68-1.76,1.35-3.52,2-5.27,0-.14,0-.28-.27-.28a.49.49,0,0,0-.41.14c-.67.41-1.08,1.89-1.48,2.57-.54,1.22-1.49,3.11-2.57,5,.13-.14-1.36-3.25-1.76-3.12-.13.14-.27.27-.27.41s.14.27.14.41A12.74,12.74,0,0,1,337.37,267.8Z" transform="translate(0 0)"/>
  <path class="cls-10" d="M322,331.78a48.42,48.42,0,0,1-1.21,6.08c-.14.54-.27,1.08-.41,1.63-1.35,6.36-1.62,10.95-3.92,17.58-.13.54-.4.95-.54,1.49-.81,2.3-1.89,4.6-2.57,6.9-3.51,12.44-28.79,2.84-34.47-2.16-1.75-1.63-3.38-3.52-3.38-6,0-5.27,1-10.82,1.09-16.23.13-2.3,0-4.73,0-7.17-2.16-9.06-5-17.58-5.68-26.92a38.59,38.59,0,0,1,.13-8.79c1.49-10.69,10.14-19.75,16.63-28.27,1.89-2.57,3-2.16,5.81-1.35a2.62,2.62,0,0,1,1.08.54,1.88,1.88,0,0,1,.14,1.49c-1.08,3.92-3,7.84-4.46,11.63-2.57,6.36-5.54,12.85-5.14,19.75a44.5,44.5,0,0,0,1.62,8.38c.55,1.9.95,3.93,1.49,6a8.4,8.4,0,0,0,7,6.22c7.16.95,14.6,1.35,21.76,2.44,1.49.26,3,.4,4.06,1.35C322.37,327.72,322.23,329.88,322,331.78Z" transform="translate(0 0)"/>
  <path class="cls-3" d="M320.34,339.62c-1.35,6.36-1.62,11-3.92,17.59-.13.54-.4.94-.54,1.48a85.18,85.18,0,0,0,.54-17.58C316.55,341.38,318.31,340.57,320.34,339.62Z" transform="translate(0 0)"/>
  <path class="cls-10" d="M303.18,342.46c2.7,12.58,11.75,3,15.94-1.62,6.63-7.17,13.66-13.53,19.33-21.64a47,47,0,0,0,4.6-8c4.05-9.61,2.7-20.57,1.22-31a11.57,11.57,0,0,0-1.63-5.28,6,6,0,0,0-5.81-2c-1.08,6.08-1.89,11.49-2.84,17.31-1.62,11.09-6.89,23-16.22,29.89C310.34,325.69,300.61,330.69,303.18,342.46Z" transform="translate(0 0)"/>
  <path class="cls-10" d="M132.33,132s6.76,7.71,7.29,7.58l7.31-2.57c.53-.14.8-10.42.8-10.42l3.52-3.11s10.41.68,10.68.27l3.51-6.9c.27-.54-6.89-7.71-6.89-7.71l.27-4.59s8-6.77,7.84-7.18l-2.43-7.16c-.14-.55-10.55-.55-10.55-.55l-3.11-3.38s.82-10.28.41-10.41l-7-3.25c-.54-.27-8,6.9-8,6.9l-4.73-.27s-6.76-7.71-7.31-7.57l-7.29,2.57c-.54.13-.81,10.41-.81,10.41l-3.52,3.11s-10.41-.68-10.68-.27l-3.37,6.9c-.27.54,6.89,7.71,6.89,7.71l-.27,4.6s-8,6.76-7.84,7.17L99.48,121c.14.54,10.54.67,10.54.67l3.11,3.38s-.81,10.29-.4,10.42l7,3.25c.4.27,8-6.9,8-6.9Zm-5.41-40.44A15,15,0,0,1,146,100.47a15.07,15.07,0,0,1-28.52,9.74C114.89,102.76,119.21,94.25,126.92,91.54Z" transform="translate(0 0)"/>
  <path class="cls-10" d="M93,175.14l-3.78,4.05,4.46,4.87L97.45,180a18.5,18.5,0,0,0,6,2.7v5.82h6.35v-6a14,14,0,0,0,6-2.7l3.79,4.06,4.45-4.87L120.16,175a17.17,17.17,0,0,0,2.43-6.36h5.28v-6.76h-5.28a17.11,17.11,0,0,0-2.43-6.36l3.78-4.06-4.45-4.87-3.79,4.06a18.42,18.42,0,0,0-6-2.71v-5.81H103.4v5.81a14.14,14.14,0,0,0-6,2.71l-3.78-4.06-4.46,4.87L93,155.52a17.28,17.28,0,0,0-2.43,6.36H85.29v6.76h5.27A19.57,19.57,0,0,0,93,175.14Zm13.65-16.37a6.65,6.65,0,1,1-6.08,6.63C100.56,161.61,103.27,158.77,106.64,158.77Z" transform="translate(0 0)"/>
  <path class="cls-10" d="M593.65,72.6s3.64,8,4.05,8l6.62-.27c.41,0,3.11-8.25,3.11-8.25l3.65-1.62s8.38,3.11,8.65,2.7l4.46-4.87c.27-.27-3.78-8-3.78-8l1.35-3.65s8.11-3.65,8.11-4.06l-.27-6.49c0-.41-8.52-3-8.52-3l-1.76-3.51s3.11-8.26,2.84-8.53l-4.86-4.32c-.41-.27-8.11,3.78-8.11,3.78l-3.79-1.35s-3.65-8-4-8l-6.63.27c-.4,0-3.1,8.25-3.1,8.25L588,31.34s-8.38-3.11-8.65-2.7l-4.47,4.87c-.26.27,3.79,8,3.79,8l-1.35,3.65s-8.11,3.65-8.11,4.06l.27,6.49c0,.41,8.52,3,8.52,3l1.75,3.52s-3.11,8.11-2.84,8.52L581.75,75c.27.28,8.11-3.78,8.11-3.78Zm5.13-34.22A12.53,12.53,0,1,1,586.61,51.5,12.6,12.6,0,0,1,598.78,38.38Z" transform="translate(0 0)"/>
  <path class="cls-10" d="M609.73,119.27l-5.41,3.24,3.38,6.77,5.4-3.25a16.44,16.44,0,0,0,5.68,4.87l-1.89,6.36,6.89,2,1.9-6.36a19.46,19.46,0,0,0,7.43-1l2.84,5.69,6.49-3.93-2.84-5.68a21.85,21.85,0,0,0,4.73-6.22l5.81,1.76,2.16-7.44-5.81-1.76a21.74,21.74,0,0,0-.67-7.85l5.4-3.24-3.38-6.77-5.4,3.25a16.55,16.55,0,0,0-5.68-4.87l1.89-6.36-6.89-2-1.89,6.36a19.94,19.94,0,0,0-7.44,1l-2.84-5.68-6.49,3.92L616,97.76a21.49,21.49,0,0,0-4.73,6.22l-5.82-1.75-2.16,7.43,5.81,1.77A21.48,21.48,0,0,0,609.73,119.27Zm20.14-13.66a7.25,7.25,0,0,1,4.59,9.19c-1.21,3.93-5.13,6.36-8.78,5.28a7.26,7.26,0,0,1-4.6-9.2A7.18,7.18,0,0,1,629.87,105.61Z" transform="translate(0 0)"/>
  <path class="cls-2" d="M67.45,328a.43.43,0,0,1,.4.4c0,.28-.27.41-.4.28Z" transform="translate(0 0)"/>
  <path class="cls-2" d="M67.58,327c.14.14.14.14.14.27s0,.27-.14.27Z" transform="translate(0 0)"/>
  <path class="cls-10" d="M88.94,464.88l-1,4.74,7.17-.27L98,464.88Z" transform="translate(0 0)"/>
  <path class="cls-4" d="M155.57,464.74l.82,4.06,10.81,1.9-2.43-6.76Z" transform="translate(0 0)"/>
  <path class="cls-27" d="M130.43,377l29.2,32.19A20.45,20.45,0,0,1,165,423.08c0,7.58,6.35,43.56-3.65,44.24s-10.41-5-10.82-14.48a120.23,120.23,0,0,0-3.37-25.7,12.65,12.65,0,0,0-3.65-6.36L112.73,392Z" transform="translate(0 0)"/>
  <path class="cls-27" d="M88,464.34c1.08,2.3,4.87,2.44,6,2.3,12.17-1.76,26.36-28.81,29.2-33,6.35-9.34,7.16-13.12,7.29-26.38.14-9.07,1.36-23.81,2.44-32.87l-3.38,5.27-1.08-.13-19.74-2.17-8.51-1.08c-.54,0-1.08.41-1,1l1.08,6.35.41,2.44,5.54,32.19a16.26,16.26,0,0,1-2.3,11.91v.13C101.51,435.66,85.16,458.8,88,464.34Z" transform="translate(0 0)"/>
  <path class="cls-3" d="M132.46,325.82a.29.29,0,0,1-.27-.27.64.64,0,0,1-.14-.81l.28.14c-.14.14,0,.4.13.54a.76.76,0,0,0,.81.13l.14.27A1.12,1.12,0,0,1,132.46,325.82Z" transform="translate(0 0)"/>
  <path class="cls-3" d="M134.22,321.9a.27.27,0,1,0-.27-.27C134,321.9,134.09,321.9,134.22,321.9Z" transform="translate(0 0)"/>
  <path class="cls-7" d="M136.52,320.14l-.54,3.93c-.14.54-.68.95-1.22.54l-.54-.27,2.57-5.95Z" transform="translate(0 0)"/>
  <path class="cls-7" d="M129,332.73l-.14-.82.27-3.38.54-5.55-4.46-2.84-.13.14-7.17,6.22Z" transform="translate(0 0)"/>
  <path class="cls-3" d="M125,320.28l4.05,8.25.54-5.55-4.46-2.84Z" transform="translate(0 0)"/>
  <path class="cls-7" d="M136.79,318.39s-2.3,12.57-7.3,8.11a15.53,15.53,0,0,1-4.33-6.36l2.84-5.81,7,1.89Z" transform="translate(0 0)"/>
  <path class="cls-3" d="M123.68,318.39c0-.27-.14-.55-.14-.82a10.39,10.39,0,0,1,0-2.84,8.16,8.16,0,0,1,.27-1.75,4,4,0,0,1,2.16-2,7.84,7.84,0,0,1,3-.54,8.52,8.52,0,0,1,2.57,0,5.84,5.84,0,0,1,1.89.82c1.35.81,2.43,2,3.92,2.7,1.21.54,3,.54,3.78,1.63a2.34,2.34,0,0,1-1.21,3.37,5.23,5.23,0,0,1-4.06-.27c-1.75-.53-1.48-.81-2.7-.13s-1.09,1.22-2.3,1.49-1.89-.41-3,.81c-.68.81-3.11,2.84-4.19,1.89-.68-.67-.14-1.62,0-2.43A9.18,9.18,0,0,0,123.68,318.39Z" transform="translate(0 0)"/>
  <path class="cls-7" d="M130.16,319.06a2.15,2.15,0,0,1-.16.83,2.21,2.21,0,0,1-.47.7,2.06,2.06,0,0,1-.7.47,2.16,2.16,0,0,1-.83.17,2.23,2.23,0,0,1-1.53-.64,2.21,2.21,0,0,1-.47-.7,2.15,2.15,0,0,1-.16-.83,2.19,2.19,0,0,1,.16-.83,2.21,2.21,0,0,1,.47-.7,2.25,2.25,0,0,1,.71-.47,2.07,2.07,0,0,1,.82-.16,2.15,2.15,0,0,1,.83.16,2.19,2.19,0,0,1,1.17,1.17A2.19,2.19,0,0,1,130.16,319.06Z" transform="translate(0 0)"/>
  <path class="cls-3" d="M99.21,377.23l1.08,6.35c3,0,6.09-.13,9.06-.26s6.08-.55,9.06-.95c2.29-.27,7.29-1.22,10.13-2.71l-19.87-2.3-8.51-1.08C99.62,376.28,99.08,376.69,99.21,377.23Z" transform="translate(0 0)"/>
  <path class="cls-29" d="M99.21,377.09c6.49,3,11.36,5,17.71,5,7.7,0,16-.54,16.76-8.25.13-1.22.27-2.44.41-3.66.27-2.84.4-5.54.67-8.38,0-6.49,0-11.37-.95-17a47.64,47.64,0,0,0-1.21-5.28c-1.9-6.5-5.68-14.75-14.47-15.42-5.4,3-12.57,13.52-13.38,16.5-2.29,7-3.64,11.36-4.73,18.67C99.62,360.59,97.32,374.93,99.21,377.09Z" transform="translate(0 0)"/>
  <path class="cls-3" d="M116.51,348.14a26.45,26.45,0,0,0,4.73,10.28,73,73,0,0,0,11.9,13.13c.27.27.54.4.81.67.27-3,.4-5.82.67-8.79,0-6.76,0-11.9-.94-17.86-.14-.27-.14-.4-.27-.67-.95-2.71-1.76-5.55-3.52-7.58s-5-3.24-7.43-1.75h-.41a5,5,0,0,0-2.84,1.89A12.66,12.66,0,0,0,116.51,348.14Z" transform="translate(0 0)"/>
  <path class="cls-3" d="M175.71,471.37H156.12v-2.84h7.16v-2.16a2.42,2.42,0,0,1,2.43-2.43h.41v2l7.57,2.84A3.1,3.1,0,0,1,175.71,471.37Z" transform="translate(0 0)"/>
  <path class="cls-9" d="M156.12,471.37h19.73c0,.14.13.27.13.41V473H156Z" transform="translate(0 0)"/>
  <path class="cls-3" d="M107.73,472.19H88v-2.84h7.17v-2.17a2.43,2.43,0,0,1,2.43-2.44H98v2l7.56,2.84A3.5,3.5,0,0,1,107.73,472.19Z" transform="translate(0 0)"/>
  <path class="cls-9" d="M88.13,472.19h19.73c0,.13.14.27.14.4v1.22H88Z" transform="translate(0 0)"/>
  <path class="cls-2" d="M176.39,352.88c-.81.67-4.19,1.89-5,2.3,0,1.76,3,2.71,3.51,4.33.14.27.14.4.28.67,2.16-1.21,4.45-2.29,6.62-3.38a28.35,28.35,0,0,0,4.32-2.57,5,5,0,0,0,.41-.68v-.27a.13.13,0,0,0-.13-.13c-.14.13-.41.13-.55.27-1.08.54-2.3,1.08-3.24,1.49h-.14a.13.13,0,0,1-.13-.14c0-.13,0-.13.13-.27.95-.4,2-.95,3.25-1.48.27-.14.4-.28.68-.28.13-.13.26-.27.13-.4s-.27-.41-.54-.27-.41.13-.54.27a36.22,36.22,0,0,1-3.38,1.49h-.14a.13.13,0,0,1-.13-.14c0-.14,0-.14.13-.27a21.09,21.09,0,0,0,3.25-1.35l.81-.41a.4.4,0,0,0,.13-.54.53.53,0,0,0-.54-.27c-1.35.68-2.84,1.35-4.19,1.89h-.13s-.14,0-.14-.13,0-.14.14-.27c1.48-.68,2.83-1.22,4.32-2,.14,0,.14-.27,0-.27s-.13-.14-.27-.14c-.67-.27-1.76.41-2.43.68-1.08.4-2.7.95-4.6,1.49.14,0,1.08-2.84.68-3a.48.48,0,0,0-.54.54A6.71,6.71,0,0,1,176.39,352.88Z" transform="translate(0 0)"/>
  <path class="cls-6" d="M171.25,355.32Z" transform="translate(0 0)"/>
  <path class="cls-29" d="M172.6,355.45c2.17.54,3.38,1.76,2.58,4.33-1.49,4.32-11.77,8-20,10.14-5,1.36-9.46,2-11.22,1.49-4.6-1.22-9.33-4.33-13-7.44a57.58,57.58,0,0,1-11.9-13.12,26.51,26.51,0,0,1-4.73-10.28,13,13,0,0,1,2.57-10.69,6.59,6.59,0,0,1,2.84-1.89h.4c2.3-1.49,5.54-.27,7.44,1.76,7.84,8.92,9.05,28.4,24.6,28C153.82,357.89,166.79,354.1,172.6,355.45Z" transform="translate(0 0)"/>
</svg>