<svg width="530" height="516" viewBox="0 0 530 516" fill="none"
  xmlns="http://www.w3.org/2000/svg">
  <path fill-rule="evenodd" clip-rule="evenodd" d="M404.451 427.089C399.501 430.568 394.085 432.666 388.208 433.379C390.585 431.355 392.848 428.998 395.002 426.313C397.65 422.997 400.178 419.057 402.582 414.494C404.573 410.496 405.79 408.227 406.232 407.692L406.475 408.34C405.945 410.755 405.438 413.706 404.953 417.195C404.552 420.401 404.351 422.596 404.345 423.792C404.339 424.987 404.374 426.088 404.451 427.089ZM212.668 406.979C216.225 406.256 219.718 405.473 223.14 404.645L223.242 408.497C221.023 409.041 218.752 409.571 216.436 410.092C215.188 410.358 213.967 410.624 212.773 410.887L212.668 406.979ZM241.321 425.971C241.249 426.211 241.174 426.461 241.094 426.719C241.224 426.758 241.365 426.794 241.501 426.83C239.971 429.249 238.093 432.186 235.868 435.628C233.137 439.859 231.153 441.889 229.922 441.716C229.141 441.624 227.563 441.232 225.182 440.536C225.341 440.415 225.5 440.277 225.654 440.135C226.701 439.163 227.213 438.03 227.194 436.732C227.226 435.439 226.725 434.322 225.687 433.383C225.47 433.174 225.233 432.986 224.991 432.816C230.739 431.142 236.184 428.859 241.321 425.971ZM382.416 254.272C383.372 254.598 384.33 254.912 385.288 255.215L382.252 262.322L380.301 262.331C378.8 261.746 377.288 261.152 375.77 260.559C372.542 259.326 369.414 257.968 366.378 256.482C364.965 255.797 363.53 255.189 362.071 254.652L382.415 254.5L382.416 254.272ZM337.06 44.249L179.488 44.9741L177.727 85.4795L177.673 96.4069C174.009 99.7534 170.194 102.848 166.221 105.689L169.014 44.4152C168.138 44.0119 167.305 43.4428 166.516 42.708C164.853 41.1651 164.027 39.3004 164.038 37.1165C164.049 34.93 164.893 33.055 166.572 31.4967C168.25 29.9385 170.27 29.1539 172.621 29.1431L342.4 28.3619C344.781 28.3509 346.794 29.1169 348.431 30.6599C350.089 32.2028 350.918 34.0701 350.907 36.2566C350.896 38.4405 350.049 40.3129 348.376 41.8712C346.723 43.4293 344.703 44.2138 342.321 44.2248L337.06 44.249ZM86.0055 133.933C80.4227 135.951 75.8075 139.281 72.1457 143.931C63.295 155.104 56.9361 164.565 53.0608 172.312C49.4198 179.618 46.7651 186.177 45.091 191.993C43.5495 191.069 42.1751 190.119 40.9765 189.15C38.7119 187.278 36.6851 184.276 34.899 180.137C43.9156 168.632 54.3552 151.676 66.2207 129.278C71.4292 119.389 76.563 109.111 81.6168 98.431C84.2752 92.8474 86.9029 87.151 89.5142 81.3521C90.1813 79.88 90.8084 78.4764 91.404 77.1492C92.6667 74.3261 93.7637 71.8166 94.7091 69.6205C94.5423 69.5635 94.3925 69.5116 94.2568 69.4676C95.4246 69.8117 96.6145 70.2504 97.8267 70.7835C98.7816 71.2417 99.8361 71.5916 100.987 71.8386C106.16 72.5795 111.135 71.5895 115.917 68.8738C119.793 66.6196 123.963 65.7594 128.423 66.2987C130.067 66.4461 131.023 67.2906 131.287 68.8399C132.484 75.9878 129.349 81.0952 121.884 84.157C121.702 84.2288 121.526 84.298 121.345 84.3698C116.819 86.1434 112.71 88.4645 109.023 91.3276C108.065 92.1177 107.426 93.051 107.121 94.1193C106.449 96.5901 105.538 98.7177 104.376 100.502C103.639 100.174 103.039 99.607 102.578 98.7918C102.005 97.8562 101.339 96.8686 100.577 95.8314C99.7863 94.7654 98.7796 93.916 97.5452 93.2857C96.918 93.01 96.2784 92.9367 95.6179 93.0659C93.9725 93.6858 93.0091 94.9464 92.7221 96.853C93.0762 97.4111 93.5662 97.9555 94.195 98.4887C98.6989 102.181 101.865 106.676 103.705 111.982C104.676 114.826 104.348 117.597 102.718 120.299C100.012 124.608 95.9566 127.562 90.5514 129.166C89.7317 129.428 89.0559 129.814 88.5323 130.319C88.5181 130.329 88.5039 130.342 88.4868 130.356C88.4213 130.43 88.3502 130.506 88.2846 130.588C87.3108 131.67 86.5521 132.785 86.0055 133.933ZM117.171 417.24C118.178 417.416 119.416 417.899 120.879 418.689C123.998 420.74 126.33 422.23 127.885 423.158C128.938 423.79 129.636 424.17 129.978 424.292C136.681 425.914 141.469 427.188 144.341 428.115C146.886 428.916 148.921 429.713 150.452 430.51L152.082 433.438C151.999 433.604 151.914 433.778 151.833 433.952C151.424 434.308 150.789 434.493 149.939 434.497C145.723 434.516 140.735 434.069 134.989 433.151C127.655 431.966 122.868 430.401 120.63 428.453C121.386 430.179 121.571 431.705 121.179 433.028L120.93 433.56C120.628 433.843 120.039 433.985 119.164 433.989C117.08 433.999 115.567 431.769 114.635 427.301L113.847 420.553C113.86 417.97 114.964 416.866 117.171 417.24ZM188.758 463.205C191.649 460.395 195.696 459.202 200.902 459.622C208.296 460.069 215.624 460.072 222.89 459.634C228.481 459.303 233.927 459.891 239.237 461.393C243.804 462.718 245.856 465.617 245.401 470.092C245.312 470.905 244.991 471.674 244.444 472.388C244.005 472.989 243.535 473.551 243.037 474.071C240.196 477.044 236.408 478.651 231.669 478.891C219.177 479.224 206.734 479.155 194.354 478.679C189.311 478.447 186.185 476.202 184.977 471.934C184.846 470.51 185.088 469.1 185.695 467.7C186.505 465.909 187.529 464.414 188.758 463.205ZM222.692 387.578C219.326 388.639 215.843 389.688 212.233 390.738L208.902 263.614L208.367 263.616C185.912 255.431 173.869 238.822 172.243 213.787C172.164 212.645 172.073 211.541 171.968 210.475L162.697 414.912C162.605 416.211 162.028 417.343 160.955 418.318C159.909 419.208 158.644 419.622 157.166 419.549C156.682 419.528 156.227 419.457 155.791 419.332L152.246 412.978L165.442 122.814C168.708 120.266 171.868 117.55 174.912 114.666C175.814 113.821 176.704 112.989 177.595 112.175L177.558 119.613C177.766 149.053 178.801 178.434 180.655 207.762C182.209 231.906 193.785 247.873 215.389 255.652L333.716 254.84C331.133 256.749 329.131 259.489 327.715 263.067C326.909 265.181 326.405 267.393 326.201 269.709C325.685 274.34 326.291 279.015 328.02 283.735C328.646 285.458 328.484 287.154 327.547 288.811C326.136 291.293 324.282 293.381 321.989 295.068L321.141 262.832L265.289 263.238L264.111 288.948C261.453 288.099 258.033 288.458 253.852 290.023C253.713 290.076 253.568 290.129 253.421 290.18L254.641 263.287L219.422 263.565L220.183 292.275C219.032 291.852 217.908 291.363 216.82 290.806C214.528 294.527 214.373 298.344 216.356 302.247C217.651 303.188 219.037 304.022 220.512 304.746C225.557 307.267 231.585 308.508 238.596 308.476C241.745 308.488 245.955 307.551 251.228 305.669C251.753 305.485 252.261 305.302 252.749 305.134C257.29 303.586 260.729 302.805 263.079 302.795C263.215 302.794 263.351 302.793 263.487 302.793C266.262 302.888 268.599 304.286 270.495 306.994C270.874 307.526 271.257 307.981 271.637 308.361L272.189 313.086C272.52 323.357 271.007 330.418 267.646 334.273C267.375 334.171 267.073 334.07 266.742 333.972C264.63 333.193 263.099 332.604 262.149 332.201C261.654 332.003 261.313 331.85 261.123 331.748C260.578 331.42 260.215 330.483 260.03 328.928C259.874 327.328 260.291 325.981 261.285 324.883C261.926 324.134 262.36 323.307 262.591 322.399C262.707 321.949 262.771 321.476 262.782 320.987C262.776 320.624 262.749 320.272 262.703 319.939C262.563 318.928 262.225 318.054 261.69 317.331C260.953 316.344 259.724 315.903 257.999 316.013C255.199 316.46 253.949 317.811 254.235 320.07C254.4 321.667 253.633 322.75 251.942 323.326C251.417 323.504 250.805 323.633 250.111 323.715C248.711 323.9 247.765 323.915 247.273 323.762C247.085 323.537 246.964 323.435 246.904 323.459C245.606 320.338 243.382 318.267 240.238 317.238C238.983 316.787 235.941 316.33 231.124 315.869C229.561 315.776 228.152 315.525 226.891 315.129C224.501 313.334 222.41 311.299 220.612 309.016L222.692 387.578ZM339.418 314.532C335.181 314.691 331.532 315.491 328.473 316.929C325.85 318.166 323.656 319.874 321.895 322.05C318.534 323.19 315.91 325.657 314.028 329.445C313.113 331.23 312.321 333.899 311.644 337.466C311.309 339.446 310.856 342.194 310.289 345.708C310.246 348.786 309.58 354.05 308.28 361.503C307.971 363.284 307.693 364.946 307.454 366.485C305.052 366.596 302.186 365.952 298.852 364.561C294.574 359.9 291.916 354.51 290.879 348.388C289.922 342.622 290.578 337.029 292.853 331.602C295.292 325.844 299.15 320.946 304.432 316.906C309.082 313.326 313.823 309.793 318.665 306.315C319.93 305.387 321.115 304.517 322.209 303.708C324.594 301.947 326.569 300.463 328.15 299.255C329.742 298.023 331.204 296.629 332.526 295.077C333.118 294.368 333.683 293.627 334.222 292.857C335.905 290.36 336.614 286.071 336.344 279.996C336.043 273.924 336.818 269.395 338.671 266.412C339.847 264.527 341.405 263.248 343.354 262.577C344.511 262.177 345.806 261.995 347.239 262.026C348.456 262.146 349.667 262.311 350.853 262.524C351.566 262.65 352.267 262.794 352.971 262.951C355.506 263.525 357.985 264.302 360.419 265.284C367.436 268.006 374.66 269.762 382.089 270.559C386.23 271.005 390.434 271.151 394.705 270.997C394.209 271.583 393.657 272.182 393.051 272.797C390.887 275.648 387.758 277.352 383.675 277.91C382.36 278.087 380.941 278.143 379.421 278.084C374.517 277.952 369.749 278.471 365.11 279.635C363.902 279.972 362.903 280.573 362.103 281.441C360.394 283.383 358.605 284.966 356.738 286.196C356.246 285.56 355.964 284.786 355.883 283.872C355.809 282.808 355.662 281.65 355.453 280.405C355.239 279.163 354.709 277.993 353.865 276.904C353.431 276.425 352.895 276.109 352.267 275.955C350.079 274.672 348.611 275.443 347.858 278.266C347.94 278.926 348.349 283.704 349.104 292.596C349.277 294.711 349.222 296.73 348.949 298.662C348.097 304.874 344.973 310.165 339.582 314.531C339.528 314.532 339.472 314.532 339.418 314.532ZM466.096 480.501C464.85 479.968 463.38 479.433 461.689 478.897C459.894 478.316 457.377 477.605 454.139 476.761C453.721 476.5 453.349 476.236 453.03 475.964C453.123 476.156 453.204 476.347 453.274 476.536C451.407 476.051 449.311 475.529 446.995 474.962C446.984 474.899 446.97 474.839 446.953 474.773L446.289 468.884L446.169 467.912C446.181 465.5 447.124 464.344 449.001 464.446C450.119 464.514 451.558 465.026 453.326 465.974C458.652 469.503 461.752 471.412 462.625 471.684C463.298 471.849 463.949 472.014 464.577 472.174C470.406 473.611 474.659 474.764 477.322 475.624C481.671 477.002 484.566 478.363 486.015 479.702C485.599 480.287 485.242 480.914 484.938 481.573C484.523 481.958 483.879 482.153 483.004 482.157C478.703 482.177 473.608 481.714 467.72 480.78C467.165 480.682 466.625 480.593 466.096 480.501ZM414.548 375.792L429.994 369.161C430.09 369.166 430.187 369.173 430.28 369.181C434.246 369.502 437.213 371.178 439.192 374.209C440.555 376.263 441.879 379.371 443.175 383.533C444.099 386.78 445.937 393.131 448.688 402.574C449.751 406.23 450.949 410.343 452.285 414.914C455.248 414.641 458.342 414.413 461.557 414.244C461.749 414.24 461.945 414.229 462.132 414.22C462.29 415.31 462.378 417.089 462.391 419.559C461.407 419.866 460.445 420.188 459.512 420.526C457.594 421.213 455.906 421.849 454.448 422.439C455.088 424.704 455.681 426.825 456.223 428.798C459.4 440.271 460.987 446.781 460.98 448.316C460.979 448.439 459.466 449.224 456.446 450.683C455.572 451.108 454.567 451.591 453.44 452.129C450.559 453.483 448.47 454.446 447.179 455.015C446.214 455.453 445.695 455.671 445.61 455.671C445.1 455.673 444.358 455.117 443.378 454.005C442.328 449.287 440.007 440.631 436.419 428.027C436.38 427.894 436.341 427.755 436.297 427.613C435.286 424.143 434.333 420.899 433.451 417.884C429.321 403.735 426.657 394.563 425.469 390.364C424.122 386.023 422.74 382.779 421.326 380.622C419.716 378.136 417.458 376.525 414.548 375.792ZM431.012 85.1181C425.68 82.8248 423.031 78.5455 423.062 72.2644C423.074 69.7731 424.729 67.7471 428.022 66.1788C428.403 66.3532 428.802 66.5563 429.211 66.7831C433.913 69.3027 437.475 71.2179 439.909 72.5286C444.335 74.8471 448.22 76.6084 451.555 77.8124C459.73 80.7786 468.749 83.0891 478.601 84.7441L478.543 88.329C477.448 99.0877 474.88 106.282 470.833 109.911C470.587 109.784 470.302 109.646 469.974 109.495C466.774 107.883 464.918 106.887 464.396 106.509C463.88 106.133 463.639 105.101 463.673 103.424C463.709 101.745 464.305 100.396 465.462 99.3741C466.646 98.2991 467.349 97.0003 467.574 95.4724C467.803 93.9234 467.603 92.6025 466.98 91.5121C466.357 90.3928 465.139 89.7887 463.333 89.6972C460.345 89.8371 458.843 91.0923 458.832 93.4549C458.77 95.6916 457.17 96.8185 454.049 96.8328C452.543 96.8398 451.541 96.7287 451.049 96.5024C450.889 96.2745 450.779 96.162 450.722 96.1622C449.811 92.7343 447.795 90.3022 444.676 88.8685C443.393 88.2621 440.271 87.4381 435.318 86.3939C433.734 86.0701 432.298 85.6431 431.012 85.1181Z" fill="#19304D"/>
  <path fill-rule="evenodd" clip-rule="evenodd" d="M280.122 164.134L265.654 164.201L265.422 211.03L279.889 210.964L280.122 164.134ZM198.171 173.397C198.456 170.878 199.615 169.501 201.644 169.263L238.677 168.714C240.865 168.777 241.997 170.034 242.065 172.469L241.948 195.888C241.434 195.073 240.875 194.227 240.276 193.339C236.528 187.509 233.507 185.528 231.224 187.394C230.181 188.211 228.738 189.642 226.888 191.684C224.85 193.804 223.568 195.234 223.046 195.975L220.157 198.427C219.285 197.795 218.628 197.228 218.195 196.72C216.261 193.728 215.038 192.033 214.516 191.625C214.277 191.295 213.835 191.261 213.206 191.518C212.958 191.851 212.255 192.424 211.099 193.247C209.779 194.472 206.951 197.726 202.629 203.009C201.053 205.051 199.69 206.81 198.531 208.289L197.998 208.292L198.171 173.397ZM200.465 166.559C198.876 166.566 197.6 166.942 196.636 167.688C195.757 168.504 195.313 169.689 195.305 171.239L195.13 206.586C195.114 209.688 196.817 211.233 200.243 211.217L239.409 211.15C240.972 211.143 242.191 210.848 243.069 210.255C243.348 210.025 243.524 209.875 243.61 209.795C244.214 208.981 244.519 207.923 244.526 206.63L244.701 171.24C244.717 168.163 243.028 166.633 239.63 166.649L200.465 166.559ZM211.81 182.753C210.773 181.767 209.544 181.278 208.12 181.285C206.721 181.291 205.54 181.741 204.576 182.636C203.529 183.555 203.006 184.664 202.999 185.963C202.993 187.256 203.506 188.346 204.543 189.233C205.499 190.116 206.675 190.555 208.074 190.549C209.498 190.542 210.732 190.092 211.779 189.199C212.743 188.304 213.227 187.208 213.233 185.915C213.24 184.617 212.766 183.56 211.81 182.753ZM293.989 69.3079L293.961 74.8005L328.529 74.6414L328.556 69.1488L293.989 69.3079ZM293.945 78.1197L293.918 83.5729L328.485 83.4139L328.512 77.9607L293.945 78.1197ZM293.901 86.8895L293.875 92.2271L328.443 92.068L328.469 86.7305L293.901 86.8895ZM278.497 60.6096L278.47 66.1022L328.572 65.8716L328.6 60.379L278.497 60.6096ZM184.076 106.422C184.252 113.795 186.192 120.519 189.897 126.609L190.017 126.874C191.837 129.864 194.137 132.739 196.921 135.496L197.863 136.22C198.545 136.876 199.281 137.522 200.07 138.152C200.07 138.231 200.112 138.267 200.192 138.267C203.771 141.199 207.621 143.547 211.747 145.307L213.842 146.022L213.963 146.022C214.404 146.17 214.882 146.336 215.4 146.509L218.147 147.451C220.622 148.057 223.171 148.505 225.786 148.787C226.613 148.878 227.448 148.948 228.291 149.004C230.896 149.147 233.473 149.096 236.02 148.856L243.794 147.485C244.151 147.381 244.452 147.29 244.699 147.215L245.767 146.982C246.454 146.721 247.112 146.476 247.745 146.245L250.09 145.472C253.359 144.164 256.434 142.484 259.321 140.434C260.202 139.87 261.04 139.259 261.836 138.596L261.712 138.596L264.6 136.291C264.768 136.112 264.905 135.988 265.016 135.911C265.181 135.755 265.303 135.628 265.388 135.526L265.511 135.409L270.964 129.285C274.302 124.82 276.6 119.94 277.858 114.649C279.564 108.211 279.596 101.701 277.955 95.1202C277.878 94.7185 277.783 94.3457 277.674 94.0203C277.563 93.5715 277.444 93.1279 277.313 92.6844C275.227 85.5143 271.232 79.1493 265.325 73.5972C256.079 65.0988 244.88 60.8772 231.73 60.9378C218.576 60.9983 207.392 65.3229 198.172 73.9063C194.539 77.2737 191.61 80.9111 189.382 84.8161C189.029 85.1646 188.676 85.521 188.329 85.8905C187.53 86.6037 186.776 87.3168 186.058 88.0349C183.357 90.9828 180.562 93.7708 177.675 96.4042L177.729 85.4768L179.49 44.9713L337.062 44.2463L336.598 137.794C336.247 142.834 336.032 147.883 335.948 152.932C333.6 153.531 331.128 154.205 328.539 154.95C327.991 155.234 327.453 155.617 326.933 156.106C325.801 157.073 324.978 157.968 324.45 158.785C326.005 160.431 327.004 161.228 327.44 161.17C328.23 161.167 331.06 160.901 335.931 160.369C336.037 170.342 336.664 180.331 337.815 190.335C338.692 197.984 340.433 204.943 343.033 211.206L322.259 211.302L321.956 210.77L323.247 210.764L323.532 153.218L309.067 153.284L308.898 187.359L301.73 174.505L301.908 138.674L287.443 138.741L287.385 150.354C287.021 150.158 286.625 150 286.196 149.884C284.773 149.459 283.385 149.579 282.042 150.247C280.697 150.889 279.786 151.868 279.312 153.192C278.898 154.519 279.027 155.814 279.706 157.085L287.285 170.682L287.085 210.93L301.55 210.864L301.621 196.391L308.79 209.246L308.782 210.831L309.666 210.827L314.086 218.74C314.55 219.55 315.215 220.209 316.09 220.715C316.963 221.168 317.907 221.403 318.921 221.425L348.349 221.289C356.373 233.52 368.701 242.306 385.328 247.662L382.418 254.269L382.417 254.497L362.073 254.649C356.96 252.754 351.542 251.73 345.814 251.578C340.908 251.403 336.873 252.492 333.718 254.837L215.391 255.65C193.787 247.87 182.21 231.903 180.657 207.759C178.803 178.432 177.768 149.05 177.56 119.61L177.597 112.172C179.795 110.152 181.957 108.234 184.076 106.422ZM304.059 467.228L414.532 466.72L414.492 474.88L304.018 475.389L304.059 467.228ZM304.115 455.825L414.589 455.317L414.557 461.685L304.084 462.193L304.115 455.825ZM304.14 450.79L304.185 441.755L351.119 441.539C354.919 442.231 359.071 442.572 363.565 442.551C366.74 442.537 369.8 442.162 372.737 441.439L411.289 441.262C411.952 442.258 412.672 443.332 413.45 444.492C413.751 444.985 414.144 445.635 414.633 446.45L414.614 450.282L304.14 450.79Z" fill="#EDF2FB"/>
  <path fill-rule="evenodd" clip-rule="evenodd" d="M293.982 69.3078L328.55 69.1487L328.523 74.6414L293.955 74.8004L293.982 69.3078ZM293.895 86.8894L328.463 86.7304L328.436 92.0679L293.869 92.227L293.895 86.8894ZM293.939 78.1196L328.506 77.9606L328.479 83.4138L293.912 83.5728L293.939 78.1196ZM278.491 60.6095L328.593 60.3789L328.566 65.8715L278.463 66.1021L278.491 60.6095ZM224.986 432.813C225.229 432.983 225.466 433.171 225.683 433.381C226.72 434.319 227.222 435.436 227.19 436.73C227.209 438.028 226.696 439.16 225.649 440.132C225.496 440.275 225.336 440.412 225.177 440.534C224.282 441.187 223.247 441.517 222.069 441.523L159.889 441.809C158.929 441.785 158.038 441.56 157.216 441.133C156.4 440.679 155.771 440.057 155.339 439.273L152.078 433.435L150.447 430.507L128.678 391.498L123.036 381.382C122.382 380.19 122.264 378.971 122.683 377.723C123.131 376.473 123.971 375.547 125.206 374.929C125.532 374.772 125.862 374.647 126.193 374.561C127.166 374.291 128.151 374.308 129.152 374.606C130.493 374.978 131.485 375.764 132.139 376.954L152.242 412.976L155.786 419.33L163.019 432.3L222.116 432.028C223.198 432.002 224.154 432.263 224.986 432.813Z" fill="#B2C3E8"/>
  <path fill-rule="evenodd" clip-rule="evenodd" d="M363.849 393.413C358.342 395.982 353.162 398.503 348.316 400.977C344.972 402.679 341.979 404.283 339.333 405.785C337.277 401.721 335.87 397.72 335.116 393.79C334.661 391.458 334.44 389.144 334.451 386.855C334.459 385.328 334.54 383.887 334.702 382.525C338.049 381.448 341.869 380.201 346.164 378.793C358.36 374.774 366.795 372.06 371.477 370.651C369.984 373.699 369.226 377.431 369.204 381.851C369.201 382.522 369.294 383.186 369.48 383.853L365.856 385.412C364.46 386.002 363.493 386.963 362.968 388.287C362.384 389.612 362.422 390.933 363.07 392.252C363.283 392.685 363.542 393.073 363.849 393.413ZM381.856 358.494C376.008 359.072 365.597 361.688 350.623 366.343C348.181 366.567 345.886 366.79 343.739 367.002C346.056 365.065 347.607 363.513 348.383 362.35C350.12 359.746 351.004 356.323 351.025 352.079C351.033 350.426 349.936 347.28 347.742 342.636C345.351 337.635 342.571 332.936 339.384 328.525C337.23 325.515 335.167 322.994 333.198 320.966C331.558 319.281 329.982 317.938 328.469 316.928C331.529 315.489 335.177 314.689 339.414 314.531C340.496 316.276 342.333 319.182 344.918 323.241C350.006 330.179 354.401 333.643 358.099 333.626C360.433 333.616 362.201 332.819 363.412 331.239C364.35 330.039 364.823 328.739 364.83 327.343C364.835 326.502 363.821 324.092 361.783 320.109C361.23 319.056 360.751 318.02 360.342 317.01L368.533 318.441C368.524 318.499 368.521 318.557 368.512 318.612C368.355 320.182 368.288 321.015 368.313 321.107C369.44 326.318 372.746 331.094 378.232 335.439C380.878 337.513 382.626 339.069 383.468 340.106C384.962 341.954 385.711 344.074 385.699 346.466C385.679 350.505 384.807 353.931 383.097 356.732C382.791 357.257 382.377 357.842 381.856 358.494ZM72.6632 216.99L69.6813 217.004C69.704 216.418 69.7181 215.858 69.7349 215.327C70.7488 215.885 71.7258 216.44 72.6632 216.99ZM308.785 209.247L309.66 210.828L308.777 210.832L308.785 209.247ZM308.893 187.361L309.062 153.286L323.527 153.219L323.241 210.765L321.95 210.771L308.893 187.361ZM189.891 126.611C189.953 126.731 190.017 126.857 190.096 126.988C190.065 126.951 190.04 126.915 190.012 126.875L189.891 126.611ZM236.014 148.857C233.467 149.097 230.89 149.149 228.286 149.006C227.442 148.949 226.607 148.879 225.781 148.789C226.656 148.785 227.576 148.822 228.533 148.892C231.083 149.035 233.573 149.023 236.014 148.857ZM196.915 135.498C196.234 134.689 195.538 133.917 194.828 133.181C195.539 133.84 196.235 134.523 196.916 135.235C197.979 136.221 199.031 137.196 200.065 138.153C199.275 137.523 198.539 136.878 197.857 136.221L196.915 135.498ZM277.853 114.651C277.13 117.095 276.203 119.578 275.063 122.101C273.904 124.618 272.533 127.016 270.958 129.286L265.505 135.411L265.383 135.527C265.298 135.63 265.175 135.756 265.01 135.912C264.899 135.989 264.763 136.113 264.595 136.293L261.706 138.597L231.506 104.988L258.893 68.7479C268.069 74.7291 274.202 82.7083 277.307 92.6856C277.438 93.1292 277.558 93.5728 277.669 94.0216C277.778 94.347 277.872 94.7197 277.949 95.1215C279.59 101.702 279.558 108.212 277.853 114.651ZM102.616 132.084C107.597 137.824 112.004 142.853 115.833 147.161C118.452 150.118 120.801 152.741 122.882 155.02C128.307 160.947 131.197 166.361 131.555 171.266C131.861 176.197 126.928 182.041 116.757 188.799C113.376 191.078 111.014 194.471 109.678 198.973C109.197 200.576 109.544 204.314 110.713 210.18C111.111 212.149 111.598 214.354 112.178 216.809L87.2129 216.923C82.4137 211.083 77.8334 205.091 73.4747 198.948C74.8975 195.846 76.6662 193.218 78.7751 191.071C81.4989 188.289 85.5521 185.8 90.9318 183.618C96.5611 181.355 100.186 179.494 101.811 178.038C104.974 175.175 106.57 170.831 106.598 165.013C106.615 161.583 105.273 156.399 102.57 149.453C102.29 148.716 101.991 147.957 101.675 147.189C100.097 143.344 98.4547 139.84 96.7571 136.686C96.1511 135.551 95.5392 134.458 94.9214 133.413C94.2783 132.328 93.6237 131.29 92.966 130.297L100.98 130.181C101.298 130.555 101.622 130.922 101.94 131.283C102.169 131.547 102.391 131.817 102.616 132.084Z" fill="#F13EA7"/>
  <path fill-rule="evenodd" clip-rule="evenodd" d="M280.12 164.135L279.888 210.965L265.42 211.031L265.653 164.202L280.12 164.135ZM200.463 166.56L239.628 166.65C243.026 166.635 244.715 168.164 244.7 171.242L244.524 206.631C244.518 207.924 244.212 208.982 243.608 209.797C243.523 209.876 243.346 210.026 243.068 210.256C242.19 210.849 240.971 211.144 239.408 211.151L200.242 211.218C196.815 211.234 195.113 209.689 195.128 206.588L195.303 171.24C195.311 169.69 195.756 168.505 196.635 167.689C197.598 166.943 198.875 166.567 200.463 166.56ZM198.17 173.398L197.997 208.293L198.529 208.291C199.689 206.811 201.051 205.052 202.627 203.01C206.949 197.727 209.777 194.473 211.097 193.248C212.254 192.425 212.956 191.852 213.204 191.52C213.834 191.262 214.275 191.296 214.515 191.627C215.036 192.034 216.26 193.729 218.193 196.721C218.627 197.229 219.284 197.796 220.156 198.428L223.045 195.976C223.567 195.235 224.848 193.805 226.886 191.685C228.737 189.643 230.18 188.212 231.223 187.395C233.506 185.529 236.526 187.51 240.275 193.34C240.873 194.228 241.433 195.074 241.947 195.889L242.063 172.47C241.996 170.035 240.864 168.778 238.675 168.715L201.642 169.264C199.613 169.502 198.454 170.879 198.17 173.398ZM231.51 104.988L185.541 105.199C187.648 103.431 189.718 101.769 191.751 100.212L194.671 99.93C198.291 99.2038 200.437 97.6066 201.103 95.1333L202.398 83.6141L217.456 80.3413C218.223 79.9304 218.346 79.6224 217.829 79.4224C206.461 75.6878 196.977 77.4843 189.38 84.8172C191.608 80.9122 194.537 77.2748 198.17 73.9074C207.39 65.324 218.574 60.9994 231.728 60.9389C244.879 60.8784 256.077 65.0999 265.323 73.5984C271.231 79.1504 275.226 85.5154 277.311 92.6855C274.206 82.7081 268.073 74.7289 258.896 68.7477L231.51 104.988Z" fill="#1EB3FB"/>
  <path fill-rule="evenodd" clip-rule="evenodd" d="M223.138 404.643C219.716 405.471 216.223 406.255 212.666 406.978C211.98 407.118 211.294 407.258 210.611 407.387C210.911 406.923 211.174 406.409 211.397 405.841C211.981 404.135 212.172 402.061 211.963 399.623C211.735 396.063 210.871 393.804 209.366 392.847C208.887 392.523 208.395 392.244 207.889 392.012C209.177 391.631 210.493 391.246 211.84 390.851C211.976 390.814 212.104 390.776 212.231 390.736C215.841 389.687 219.324 388.638 222.69 387.577C226.173 386.483 229.526 385.38 232.751 384.274C234.549 383.638 237.199 382.667 240.697 381.357C240.894 383.78 241.133 386.414 241.399 389.267C241.73 392.918 242.022 396.239 242.273 399.234C236.133 401.236 229.755 403.036 223.138 404.643ZM213.254 424.861C213.366 424.595 213.469 424.329 213.567 424.056C214.551 421.452 214.875 419.435 214.543 418.012C214.44 417.584 214.275 417.209 214.055 416.887C213.724 416.35 213.358 415.865 212.955 415.423C212.032 414.421 210.928 413.658 209.637 413.133C209.365 413.032 209.1 412.944 208.854 412.866C208.073 412.631 207.233 412.461 206.333 412.366C208.386 411.88 210.529 411.387 212.771 410.885C213.965 410.622 215.186 410.356 216.434 410.091C218.75 409.57 221.021 409.039 223.241 408.496C228.486 407.218 233.459 405.873 238.158 404.459C239.829 403.954 241.304 403.403 242.587 402.819C245.893 401.283 247.893 399.457 248.592 397.336C248.632 397.236 248.666 397.139 248.698 397.033C248.761 396.812 248.811 396.591 248.843 396.363C249.245 392.929 249.415 388.846 249.357 384.122C249.334 382.337 249.282 380.343 249.202 378.136C249.056 374.442 248.823 370.156 248.504 365.286C248.297 362.593 248.914 360.212 250.369 358.145C250.529 357.915 250.7 357.686 250.888 357.459C251.076 357.235 251.275 357.026 251.483 356.825C253.548 354.824 256.065 354.347 259.033 355.398C259.715 355.631 260.373 355.891 261 356.172C261.017 356.177 261.032 356.185 261.043 356.188C266.197 358.455 269.684 362.226 271.509 367.505C272.888 371.617 273.753 375.834 274.117 380.155C274.531 385.112 274.942 390.13 275.356 395.213C275.821 400.932 275.561 406.486 274.574 411.878C274.471 416.128 267.362 418.752 253.246 419.755C249.784 420.144 246.324 420.539 242.865 420.951C232.976 422.129 223.104 423.436 213.254 424.861ZM287.281 170.683L301.618 196.393L301.546 210.865L287.081 210.932L287.281 170.683ZM301.726 174.506L289.382 152.385C288.905 151.494 288.237 150.819 287.382 150.355L287.439 138.742L301.904 138.675L301.726 174.506ZM211.807 182.754C212.763 183.562 213.236 184.618 213.23 185.917C213.223 187.21 212.739 188.305 211.775 189.201C210.728 190.094 209.494 190.543 208.07 190.55C206.671 190.556 205.495 190.118 204.54 189.234C203.502 188.348 202.989 187.257 202.996 185.964C203.002 184.666 203.526 183.557 204.572 182.637C205.537 181.742 206.717 181.293 208.116 181.286C209.54 181.28 210.77 181.768 211.807 182.754ZM196.917 135.498C194.133 132.741 191.834 129.866 190.014 126.875C190.042 126.915 190.067 126.951 190.098 126.988C190.019 126.857 189.955 126.731 189.893 126.611C186.188 120.52 184.248 113.796 184.072 106.423C184.564 106.008 185.047 105.601 185.539 105.199L231.508 104.988L261.708 138.597L261.833 138.597C261.037 139.26 260.198 139.871 259.318 140.435C256.431 142.485 253.355 144.165 250.087 145.473L247.741 146.246C247.109 146.478 246.45 146.722 245.764 146.983L244.695 147.217C244.448 147.291 244.148 147.382 243.79 147.486L236.016 148.857C233.574 149.023 231.085 149.035 228.535 148.892C227.578 148.822 226.658 148.785 225.783 148.789C223.168 148.506 220.618 148.058 218.144 147.452L215.396 146.511C214.879 146.337 214.401 146.171 213.96 146.023L213.838 146.024L211.743 145.308C207.618 143.548 203.767 141.2 200.188 138.268C200.109 138.269 200.066 138.232 200.067 138.153C199.032 137.196 197.981 136.221 196.918 135.235C196.237 134.523 195.541 133.84 194.83 133.181C195.54 133.917 196.236 134.689 196.917 135.498ZM270.96 129.286C272.535 127.016 273.906 124.618 275.065 122.101C276.205 119.578 277.132 117.095 277.855 114.651C276.596 119.941 274.298 124.821 270.96 129.286ZM427.326 222.717C416.699 227.851 407.456 229.523 399.601 227.727C398.671 227.532 397.811 227.281 397.014 226.98L394.355 225.273L401.682 222.648C404.109 219.252 404.565 215.818 403.047 212.345C402.479 211 401.679 209.695 400.643 208.425L402.422 206.512C414.581 201.423 424.133 192.759 431.069 180.526C428.925 193.171 427.677 207.236 427.326 222.717ZM431.707 176.941C422.22 182.753 413.221 185.68 404.7 185.719C396.04 185.759 385.815 182.424 374.011 175.719C369.832 173.323 366.417 171.152 363.77 169.204C364.4 168.972 365.044 168.675 365.706 168.317C367.246 167.269 368.743 165.688 370.206 163.571C372.331 160.508 373.11 158.178 372.54 156.581C371.921 154.649 370.807 153.104 369.193 151.944C369.033 151.74 368.853 151.526 368.664 151.298C368.996 151.273 369.307 151.255 369.61 151.254C371.828 151.244 376.74 153.129 384.336 156.907C391.988 160.609 398.447 162.451 403.708 162.426C406.364 162.414 411.849 159.107 420.153 152.509C430.582 143.92 438.477 137.655 443.834 133.715C445.707 132.335 447.495 131.094 449.196 129.993C465.855 119.136 474.145 121.258 474.07 136.361C474.07 136.206 472.128 138.465 468.242 143.134C462.867 149.645 457.648 155.351 452.583 160.254C445.367 167.228 438.408 172.792 431.707 176.941Z" fill="#FBD01C"/>
  <path fill-rule="evenodd" clip-rule="evenodd" d="M359.199 307.134C356.182 306.262 352.967 303.691 349.559 299.421C349.353 299.164 349.148 298.913 348.945 298.661C349.218 296.728 349.273 294.71 349.1 292.595C348.345 283.703 347.936 278.924 347.854 278.265C348.607 275.442 350.075 274.67 352.263 275.953C352.891 276.108 353.427 276.424 353.861 276.903C354.705 277.992 355.235 279.162 355.449 280.404C355.658 281.648 355.806 282.807 355.88 283.871C355.96 284.785 356.242 285.559 356.735 286.195C358.601 284.964 360.39 283.382 362.099 281.44C362.899 280.572 363.899 279.971 365.107 279.634C369.745 278.469 374.513 277.951 379.417 278.083C380.938 278.142 382.357 278.085 383.671 277.909C383.648 282.676 381.795 287.883 378.109 293.531C374.217 299.525 369.948 303.826 365.302 306.441C363.368 307.527 361.328 307.758 359.199 307.134ZM400.641 208.425C401.677 209.695 402.477 211 403.045 212.346C404.563 215.818 404.107 219.252 401.68 222.648L394.353 225.273L385.624 228.367C380.995 227.726 375.576 226.873 369.363 225.809C364.757 225.018 362.474 223.488 362.502 221.226L385.128 221.122C386.606 221.115 387.883 220.615 388.955 219.616C390.056 218.597 390.595 217.399 390.576 216.022C390.608 214.626 390.082 213.433 388.991 212.447C388.013 211.54 386.857 211.062 385.524 211.012C386.222 210.736 386.957 210.428 387.728 210.09C384.041 207.871 382.024 205.817 381.676 203.937C381.384 202.467 381.554 201.281 382.187 200.39C383.21 198.963 383.828 198.248 384.049 198.247C384.321 198.246 384.497 198.156 384.583 197.979C391.446 200.97 396.497 204.14 399.739 207.478C400.041 207.784 400.339 208.096 400.641 208.425ZM206.331 412.366C207.231 412.461 208.071 412.631 208.852 412.867C209.098 412.944 209.363 413.032 209.635 413.134C210.926 413.659 212.03 414.421 212.953 415.423C213.356 415.865 213.722 416.35 214.053 416.887C214.273 417.209 214.438 417.584 214.541 418.012C214.873 419.435 214.549 421.452 213.565 424.056C213.467 424.33 213.364 424.596 213.252 424.862C212.461 426.82 211.53 428.391 210.459 429.563C209.958 430.077 209.438 430.495 208.887 430.831C208.671 430.985 208.45 431.112 208.228 431.215C206.502 432.238 202.882 431.734 197.387 429.702C192.628 427.916 189.661 426.521 188.488 425.506C178.557 429.063 173.023 430.981 171.9 431.267C171.486 431.395 170.328 430.843 168.417 429.606C168.667 428.714 169.216 427.682 170.072 426.508C170.431 425.923 170.833 425.438 171.271 425.055C183.99 417.927 193.805 413.764 200.718 412.562C202.795 412.259 204.664 412.192 206.331 412.366ZM165.438 122.813C164.25 123.733 163.045 124.635 161.826 125.518C147.804 136.142 132.477 143.355 115.833 147.161C112.004 142.853 107.597 137.825 102.616 132.084C106.655 129.601 111.432 127.836 116.94 126.794C135.364 123.077 151.792 116.04 166.217 105.688C170.19 102.847 174.005 99.7523 177.669 96.4057C180.556 93.7723 183.351 90.9843 186.053 88.0364C186.77 87.3183 187.524 86.6053 188.323 85.8921C188.67 85.5225 189.023 85.1661 189.376 84.8176C196.973 77.4847 206.457 75.6882 217.825 79.4229C218.342 79.6228 218.219 79.9309 217.452 80.3417L202.394 83.6145L201.099 95.1337C200.433 97.6071 198.287 99.2043 194.667 99.9305L191.747 100.212C189.714 101.769 187.644 103.432 185.537 105.2C185.045 105.601 184.562 106.008 184.07 106.423C181.951 108.236 179.79 110.154 177.591 112.174C176.701 112.988 175.81 113.819 174.908 114.665C171.864 117.548 168.705 120.264 165.438 122.813ZM101.94 131.283C101.622 130.922 101.298 130.556 100.98 130.181L92.9659 130.297L88.5453 130.354C88.5397 130.341 88.5369 130.328 88.5285 130.318C89.052 129.813 89.7279 129.426 90.5475 129.165C95.9527 127.561 100.008 124.607 102.714 120.297C104.344 117.596 104.672 114.825 103.701 111.981C101.861 106.675 98.6951 102.18 94.1911 98.4875C93.5623 97.9543 93.0723 97.41 92.7183 96.8518C93.0052 94.9452 93.9686 93.6846 95.6141 93.0647C96.2745 92.9355 96.9141 93.0088 97.5414 93.2845C98.7757 93.9148 99.7824 94.7642 100.573 95.8302C101.335 96.8674 102.001 97.8551 102.574 98.7906C103.035 99.6058 103.635 100.173 104.373 100.501C105.534 98.7166 106.445 96.5889 107.117 94.1182C107.422 93.0498 108.061 92.1166 109.02 91.3264C112.706 88.4633 116.815 86.1423 121.341 84.3686C121.522 84.2968 121.698 84.2276 121.88 84.1559C123.397 87.7256 124.14 92.0242 124.115 97.0516C124.081 103.992 123.675 108.701 122.898 111.17C120.42 118.778 114.876 120.98 106.258 117.764C105.759 118.99 105.158 122.029 104.448 126.888C103.864 128.752 103.03 130.217 101.94 131.283ZM69.7348 215.327C67.0718 213.858 64.1229 212.363 60.8797 210.83C58.7608 209.828 56.8488 208.819 55.1434 207.805C46.8707 202.923 43.432 197.98 44.8132 192.981C44.9055 192.652 44.9977 192.323 45.0871 191.991C46.7612 186.176 49.4159 179.617 53.0569 172.31C56.9323 164.564 63.2911 155.103 72.1418 143.93C75.8036 139.28 80.4188 135.95 86.0016 133.932C86.0555 133.911 86.1123 133.895 86.1662 133.874C86.8525 133.668 87.4692 133.791 88.0163 134.246C92.5693 138.317 94.1828 143.576 92.8681 150.013L88.6567 154.15C84.6038 158.847 81.0423 163.833 77.9777 169.111C75.4075 173.469 72.6341 177.702 69.6546 181.805C66.9487 185.557 66.8903 189.347 69.4737 193.172C70.7836 195.113 72.122 197.036 73.4746 198.948C77.8333 205.091 82.4136 211.083 87.2127 216.924C88.3105 218.262 89.4224 219.591 90.54 220.913C91.5256 222.026 92.2448 223.181 92.7061 224.375C94.7332 229.603 93.9259 234.795 90.2843 239.944C88.4364 242.544 85.8793 243.699 82.6214 243.411C80.8163 243.115 79.0773 242.6 77.4102 241.872C72.4062 239.658 69.5852 236.365 68.9527 231.995L70.3546 231.379L80.2838 234.574L85.4182 227.037C82.8769 223.871 78.629 220.519 72.663 216.991C71.7256 216.44 70.7486 215.885 69.7348 215.327ZM226.887 315.128C228.148 315.524 229.557 315.775 231.12 315.868C235.937 316.329 238.979 316.785 240.234 317.237C243.378 318.266 245.602 320.337 246.9 323.458C246.96 323.434 247.081 323.536 247.27 323.761C247.762 323.914 248.707 323.899 250.107 323.714C250.801 323.632 251.414 323.503 251.938 323.325C253.629 322.749 254.396 321.666 254.231 320.068C253.945 317.81 255.195 316.458 257.995 316.012C259.72 315.902 260.95 316.343 261.687 317.33C262.221 318.053 262.559 318.926 262.699 319.938C262.745 320.271 262.772 320.623 262.778 320.986C262.768 321.475 262.703 321.948 262.587 322.398C262.356 323.306 261.922 324.133 261.281 324.882C260.287 325.98 259.87 327.327 260.026 328.927C260.211 330.482 260.575 331.418 261.12 331.747C261.309 331.849 261.651 332.002 262.145 332.2C263.095 332.603 264.627 333.192 266.738 333.971C267.069 334.069 267.371 334.17 267.643 334.271C267.142 335.903 266.435 337.331 265.523 338.554C264.514 339.978 263.236 341.185 261.688 342.175C259.222 343.742 256.08 344.755 252.26 345.212C251.815 345.269 251.376 345.308 250.946 345.331C249.954 345.388 248.997 345.369 248.069 345.268C241.412 344.712 236.089 340.595 232.103 332.908C229.467 327.762 227.759 322.061 226.966 315.813C226.942 315.585 226.912 315.356 226.887 315.128ZM371.477 370.651C366.795 372.06 358.36 374.774 346.163 378.794C341.869 380.201 338.049 381.448 334.702 382.526C323.379 386.202 317.446 388.04 316.897 388.042C316.246 388.045 315.62 388.024 315.028 387.975C310.921 387.628 308.251 386.014 307.019 383.129C306.56 382.09 306.334 380.146 306.348 377.3C306.361 374.843 306.727 371.233 307.45 366.484C307.69 364.945 307.967 363.283 308.276 361.502C309.576 354.049 310.242 348.784 310.285 345.707C310.852 342.193 311.305 339.445 311.64 337.464C312.318 333.898 313.11 331.229 314.025 329.443C315.907 325.656 318.53 323.189 321.891 322.049C322.776 321.75 323.717 321.541 324.709 321.426C326.684 321.215 328.31 321.536 329.594 322.392C330.957 323.329 331.636 324.713 331.627 326.542C331.618 328.219 330.675 333.945 328.789 343.716C326.88 353.485 325.922 358.943 325.916 360.086C325.909 361.408 325.18 364.549 323.731 369.515C327.512 368.791 334.179 367.958 343.738 367.002C345.886 366.79 348.181 366.567 350.623 366.343C365.597 361.688 376.008 359.072 381.856 358.494C382.652 358.416 383.366 358.374 383.994 358.371C386.515 358.359 390.06 358.853 394.632 359.846C398.614 360.687 402.895 363.24 407.475 367.511L386.904 376.354C385.785 375.797 384.747 375.152 383.79 374.426C381.935 372.805 380.584 371.668 379.741 371.013C378.429 370.002 377.118 369.498 375.801 369.504C375.455 369.506 374.015 369.888 371.477 370.651ZM431.47 468.281C430.878 467.014 430.361 465.829 429.924 464.724C431.284 464.111 433.364 463.142 436.168 461.815C438.922 460.51 440.957 459.52 442.266 458.852C442.568 462.319 443.911 465.661 446.285 468.883L446.95 474.772C446.966 474.837 446.98 474.898 446.991 474.961C446.115 474.686 443.015 472.777 437.692 469.243C434.645 467.612 432.57 467.293 431.47 468.281ZM363.768 169.204C363.547 169.284 363.326 169.361 363.107 169.436C361.102 170.034 357.688 168.709 352.85 165.48C348.648 162.625 346.124 160.568 345.281 159.3C341.597 159.727 338.478 160.086 335.925 160.371C331.055 160.903 328.225 161.168 327.435 161.172C326.998 161.229 326 160.432 324.445 158.786C324.973 157.969 325.796 157.075 326.927 156.107C327.448 155.619 327.985 155.235 328.533 154.952C331.122 154.207 333.595 153.533 335.942 152.933C346.606 150.22 354.846 149.023 360.658 149.351C363.891 149.614 366.504 150.328 368.5 151.491C368.746 151.642 368.977 151.791 369.191 151.945C370.805 153.104 371.919 154.65 372.538 156.581C373.108 158.179 372.329 160.508 370.204 163.572C368.741 165.689 367.244 167.27 365.704 168.317C365.042 168.675 364.398 168.973 363.768 169.204ZM470.829 109.91C470.107 111.543 469.186 112.956 468.056 114.157C464.804 117.68 459.88 119.453 453.276 119.483C451.741 119.49 450.303 119.376 448.962 119.125C442.091 117.732 437.103 112.772 433.994 104.246C431.966 98.5863 430.972 92.4519 431.004 85.8397C431.006 85.5874 431.007 85.3456 431.008 85.117C432.294 85.6419 433.73 86.0689 435.314 86.3928C440.267 87.4369 443.39 88.2609 444.672 88.8673C447.791 90.301 449.807 92.7331 450.719 96.1611C450.775 96.1608 450.885 96.2733 451.045 96.5012C451.537 96.7276 452.539 96.8386 454.045 96.8317C457.166 96.8173 458.766 95.6904 458.828 93.4537C458.839 91.0911 460.341 89.8359 463.329 89.696C465.135 89.7875 466.353 90.3916 466.976 91.5109C467.599 92.6013 467.799 93.9223 467.571 95.4712C467.345 96.9991 466.642 98.2979 465.459 99.373C464.301 100.395 463.705 101.744 463.669 103.423C463.635 105.1 463.876 106.132 464.393 106.508C464.915 106.886 466.77 107.882 469.97 109.494C470.298 109.645 470.583 109.782 470.829 109.91Z" fill="#F89A75"/>
  <path fill-rule="evenodd" clip-rule="evenodd" d="M321.893 322.05C323.654 319.874 325.848 318.166 328.471 316.929C329.984 317.939 331.56 319.283 333.2 320.968C335.169 322.995 337.232 325.516 339.386 328.526C342.573 332.937 345.353 337.636 347.743 342.637C349.938 347.281 351.035 350.427 351.027 352.08C351.006 356.324 350.122 359.747 348.385 362.352C347.609 363.514 346.058 365.066 343.74 367.003C334.181 367.959 327.514 368.792 323.733 369.516C325.182 364.55 325.911 361.409 325.918 360.087C325.924 358.944 326.882 353.486 328.791 343.717C330.677 333.946 331.62 328.22 331.629 326.543C331.638 324.714 330.959 323.33 329.596 322.393C328.312 321.537 326.685 321.216 324.711 321.427C323.719 321.542 322.778 321.751 321.893 322.05ZM92.9678 130.298C93.6255 131.291 94.2802 132.329 94.9233 133.414C95.541 134.459 96.1529 135.553 96.759 136.688C98.4565 139.841 100.099 143.345 101.677 147.19C101.993 147.959 102.292 148.717 102.571 149.454C105.275 156.4 106.617 161.585 106.6 165.014C106.571 170.833 104.975 175.176 101.812 178.039C100.188 179.495 96.563 181.356 90.9336 183.619C85.5539 185.801 81.5007 188.29 78.7769 191.073C76.668 193.219 74.8993 195.847 73.4765 198.949C72.124 197.037 70.7856 195.114 69.4757 193.173C66.8923 189.348 66.9507 185.558 69.6566 181.806C72.6361 177.703 75.4095 173.47 77.9797 169.111C81.0443 163.834 84.6058 158.848 88.6586 154.151L92.8701 150.014C94.1847 143.577 92.5713 138.318 88.0182 134.247C87.4711 133.792 86.8544 133.669 86.1681 133.875C86.1142 133.896 86.0575 133.912 86.0036 133.933C86.5502 132.785 87.3089 131.67 88.2827 130.588C88.3483 130.506 88.4194 130.429 88.4849 130.355L88.5472 130.355L92.9678 130.298ZM69.6831 217.005L53.5335 217.08C54.0823 213.761 54.6215 210.668 55.1454 207.806C56.8507 208.82 58.7628 209.829 60.8816 210.831C64.1248 212.364 67.0737 213.858 69.7368 215.328C69.72 215.859 69.7059 216.419 69.6831 217.005ZM339.334 405.787C337.957 406.568 336.674 407.326 335.478 408.054C330.518 411.104 327.178 413.7 325.454 415.842C325.315 416.013 325.181 416.185 325.061 416.356C321.51 413.516 318.6 406.507 316.33 395.33C315.852 392.991 315.42 390.539 315.03 387.975C315.622 388.025 316.248 388.046 316.899 388.043C317.448 388.041 323.381 386.203 334.704 382.526C334.541 383.889 334.461 385.329 334.453 386.856C334.442 389.145 334.662 391.459 335.118 393.791C335.872 397.721 337.279 401.723 339.334 405.787Z" fill="#E7137C"/>
  <path fill-rule="evenodd" clip-rule="evenodd" d="M127.261 416.903C127.107 417.1 126.924 417.288 126.72 417.481C122.543 417.986 119.192 417.029 116.667 414.61C115.898 413.862 115.203 412.985 114.582 411.965C109.64 403.447 105.669 394.609 102.676 385.446C99.9758 377.143 98.5372 368.609 98.3654 359.84C98.0837 349.85 98.8323 339.928 100.606 330.081C102.509 319.718 102.033 309.4 99.1762 299.124C100.26 288.358 100.815 279.825 100.846 273.528C100.907 261.379 101.516 248.717 102.677 235.54C103.406 227.282 103.913 221.051 104.189 216.845L112.18 216.809C111.6 214.354 111.113 212.149 110.715 210.18C117.356 232.266 120.261 255.09 119.439 278.667C118.982 292.626 119.27 306.632 120.299 320.685C121.668 338.641 123.632 356.596 126.196 374.563C125.864 374.648 125.535 374.773 125.209 374.93C123.974 375.548 123.134 376.474 122.686 377.725C122.267 378.972 122.385 380.191 123.039 381.384L128.681 391.499C129.611 399.692 129.388 407.65 128.007 415.378C127.908 415.904 127.654 416.415 127.261 416.903ZM459.342 371.674C459.667 375.312 459.965 378.982 460.233 382.694C460.461 386.456 460.864 390.302 461.453 394.241C461.691 395.893 461.93 397.469 462.166 398.968C462.31 400.15 462.248 401.257 461.965 402.288C461.942 402.365 461.925 402.438 461.905 402.512L448.686 402.573C445.935 393.13 444.098 386.779 443.174 383.532C441.877 379.37 440.553 376.262 439.19 374.208C437.212 371.176 434.244 369.5 430.278 369.179C430.273 369.135 430.265 369.09 430.256 369.045L439.28 365.172C439.811 364.97 440.325 364.689 440.805 364.324C442.01 363.428 442.69 362.271 442.833 360.846L446.779 323.416C447.723 327.141 448.668 330.863 449.621 334.577C452.044 343.719 454.423 352.935 456.758 362.23C457.561 365.398 458.42 368.545 459.342 371.674ZM440.568 287.028C439.74 287.865 439.257 288.871 439.115 290.047L432.106 356.927L428.769 358.372C427.961 354.042 426.741 349.783 425.111 345.599C421.323 336.31 417.839 326.781 414.654 317.01C411.898 308.5 411.01 299.8 411.986 290.897C412.361 287.108 413.025 283.368 413.972 279.677C415.623 273.517 417.434 267.43 419.406 261.421C422.524 252.259 425.418 243.14 428.094 234.079C428.449 233.168 428.797 232.252 429.132 231.328L446.537 231.248C446.027 237.418 445.331 243.611 444.451 249.832C443.999 252.528 443.603 255.287 443.263 258.108C441.918 267.817 441.021 277.455 440.568 287.028Z" fill="#0A9CDF"/>
  <path fill-rule="evenodd" clip-rule="evenodd" d="M78.5603 412.533C76.9711 415.526 75.3977 417.028 73.8317 417.035C70.7366 417.05 68.4366 415.468 66.9346 412.284C66.0406 410.399 65.4326 407.955 65.102 404.95C65.0186 404.643 65.0074 398.89 65.0631 387.674C65.0885 382.541 64.7329 377.15 63.9907 371.514C63.1691 365.87 62.7703 361.21 62.7886 357.52C62.8364 347.886 64.9755 339.08 69.206 331.103C73.462 323.126 75.6035 317.258 75.6222 313.497C75.6933 299.154 72.1128 283.97 64.8752 267.936C60.4568 258.421 57.9503 252.788 57.3586 251.041C55.0299 244.975 53.8795 239.415 53.9046 234.353C53.9402 227.171 54.62 221.409 55.9442 217.067L72.6687 216.99C78.6346 220.518 82.8825 223.871 85.4239 227.036L80.2894 234.573L70.3603 231.379L68.9583 231.995C69.5908 236.365 72.4118 239.658 77.4158 241.871C79.0829 242.599 80.8219 243.114 82.6271 243.411C85.8849 243.698 88.442 242.543 90.2899 239.943C93.9315 234.794 94.7388 229.603 92.7117 224.375C92.2504 223.181 91.5312 222.025 90.5456 220.913C89.428 219.591 88.3161 218.261 87.2183 216.923L104.192 216.845C103.916 221.051 103.41 227.282 102.681 235.54C101.519 248.717 100.91 261.378 100.85 273.528C100.819 279.825 100.264 288.358 99.1797 299.124C97.8067 312.757 95.5919 329.965 92.5325 350.753C87.7521 383.414 83.0937 404.01 78.5603 412.533ZM494.641 402.361L476.044 402.447C470.96 399.319 467.38 394.965 465.298 389.38C463.095 383.551 461.114 377.649 459.345 371.674C458.424 368.545 457.564 365.398 456.762 362.23C454.426 352.935 452.048 343.719 449.624 334.577C448.671 330.863 447.727 327.141 446.783 323.416L450.211 290.95C450.354 289.525 449.953 288.283 448.998 287.218C448.044 286.103 446.787 285.486 445.224 285.367C443.721 285.274 442.36 285.661 441.149 286.526C440.942 286.693 440.754 286.857 440.572 287.028C441.024 277.455 441.922 267.817 443.267 258.108C443.606 255.287 444.002 252.528 444.454 249.832C445.335 243.61 446.031 237.418 446.54 231.248L494.151 231.029C493.049 236.8 491.857 242.487 490.575 248.093C487.975 258.985 485.59 269.955 483.429 281C482.445 285.808 481.611 290.692 480.926 295.649C480.842 296.695 480.877 297.531 481.038 298.166C481.598 301.32 482.256 304.544 483.004 307.844C485.419 318.229 487.792 328.504 490.126 338.664C493.05 351.412 495.617 364.214 497.827 377.068C498.734 382.096 499.091 387.143 498.905 392.2C498.719 395.912 497.553 399.299 495.4 402.358L494.641 402.361Z" fill="#1EB3FB"/>
  <path fill-rule="evenodd" clip-rule="evenodd" d="M308.79 209.245L287.284 170.681L279.706 157.085C279.027 155.813 278.898 154.518 279.312 153.192C279.786 151.868 280.697 150.889 282.042 150.247C283.385 149.578 284.773 149.459 286.195 149.883C286.625 150 287.021 150.158 287.385 150.353C288.241 150.817 288.909 151.492 289.386 152.384L301.73 174.504L308.898 187.359L321.955 210.77L322.259 211.302L385.184 211.012C385.303 211.012 385.416 211.011 385.529 211.01C386.863 211.06 388.018 211.538 388.997 212.445C390.087 213.431 390.614 214.624 390.582 216.02C390.6 217.397 390.062 218.595 388.961 219.614C387.888 220.613 386.612 221.113 385.133 221.12L318.921 221.424C317.907 221.403 316.963 221.168 316.09 220.715C315.214 220.209 314.549 219.55 314.086 218.74L309.666 210.826L308.79 209.245ZM94.2584 69.4644C94.3941 69.5084 94.544 69.5603 94.7107 69.6173C93.7654 71.8134 92.6684 74.323 91.4056 77.146C90.81 78.4732 90.1829 79.8768 89.5158 81.3489C86.9046 87.1478 84.2768 92.8442 81.6185 98.4278C76.5647 109.108 71.4308 119.386 66.2224 129.275C54.3569 151.673 43.9172 168.629 34.9006 180.134C33.8171 177.65 32.8404 174.74 31.9819 171.42C29.6159 162.582 30.3773 155.215 34.269 149.326C38.1069 143.435 42.1962 139.364 46.54 137.102C50.8212 134.875 55.3468 131.346 60.1139 126.515C64.8725 121.689 67.5343 115.401 68.0966 107.643C68.183 106.219 68.2862 104.82 68.4034 103.448C68.4301 103.219 68.4453 103.003 68.4463 102.798C68.4468 102.696 68.4643 102.606 68.4901 102.533C68.4912 102.301 68.5064 102.096 68.5328 101.92C68.4646 93.9656 69.7618 86.483 72.4272 79.4802C72.6761 78.9693 72.9391 78.4635 73.2135 77.9498C73.5477 77.3648 73.9188 76.7797 74.3323 76.1917C77.1736 72.5415 80.4048 70.2167 84.023 69.2093C84.3294 69.1054 84.6272 69.0146 84.9306 68.9344C85.0695 68.8865 85.2169 68.8595 85.384 68.8587C85.4946 68.8293 85.5909 68.8184 85.6702 68.818C85.8063 68.7911 85.948 68.7536 86.0842 68.7005C86.1125 68.7003 86.1635 68.7001 86.2485 68.6997C88.7952 68.4856 91.4247 68.7284 94.134 69.4282L94.2584 69.4644ZM67.0275 418.077C68.0667 416.937 70.1551 417.214 73.2928 418.905C75.1895 420.152 76.7984 421.193 78.128 422.028C80.4286 423.492 81.8489 424.318 82.386 424.508C89.0947 426.13 93.8825 427.404 96.7521 428.331C101.05 429.686 103.892 431.018 105.278 432.336C104.893 432.895 104.548 433.507 104.244 434.168C103.829 434.524 103.199 434.708 102.353 434.712C98.1334 434.732 93.149 434.284 87.3995 433.367C80.0599 432.182 75.2736 430.616 73.0377 428.669C73.7965 430.395 73.9787 431.921 73.5898 433.244L73.3408 433.776C73.0393 434.059 72.4496 434.201 71.5717 434.205C69.4903 434.214 67.9808 431.985 67.043 427.516L66.2524 420.769C66.2585 419.534 66.5207 418.634 67.0275 418.077ZM241.503 426.827C247.486 428.605 256.189 430.572 267.613 432.73C279.122 434.866 290.23 436.691 300.932 438.2C298.644 455.296 294.995 465.895 289.991 470C284.873 474.194 277.23 476.694 267.063 477.503C261.281 477.947 253.273 476.804 243.038 474.068C243.536 473.548 244.006 472.986 244.445 472.385C244.993 471.67 245.314 470.902 245.403 470.089C245.858 465.614 243.805 462.714 239.239 461.39C233.928 459.888 228.483 459.3 222.891 459.631C215.626 460.069 208.297 460.066 200.903 459.619C195.698 459.199 191.651 460.392 188.76 463.202C177.157 461.124 170.619 457.233 169.132 451.524C168.145 447.731 167.833 444.479 168.195 441.77L222.075 441.522C223.253 441.517 224.288 441.186 225.184 440.533C227.564 441.229 229.143 441.621 229.924 441.712C231.155 441.885 233.138 439.855 235.869 435.625C238.095 432.182 239.973 429.246 241.503 426.827ZM253.422 290.177C253.57 290.126 253.714 290.073 253.853 290.02C258.035 288.455 261.455 288.095 264.112 288.945C266.928 289.828 268.897 292.056 270.017 295.627L271.639 308.358C271.259 307.978 270.876 307.523 270.496 306.991C268.601 304.282 266.263 302.885 263.489 302.79C263.353 302.79 263.217 302.791 263.081 302.791C260.731 302.802 257.292 303.583 252.751 305.131C252.263 305.298 251.755 305.482 251.23 305.666C245.957 307.548 241.747 308.485 238.598 308.473C231.587 308.505 225.558 307.263 220.513 304.743C219.039 304.019 217.653 303.184 216.357 302.244C214.375 298.34 214.53 294.524 216.822 290.803C217.909 291.36 219.034 291.849 220.184 292.272C229.306 295.654 240.384 294.954 253.422 290.177ZM321.991 295.065C324.284 293.378 326.138 291.29 327.549 288.808C328.486 287.151 328.647 285.455 328.022 283.731C326.292 279.012 325.687 274.337 326.202 269.706C326.407 267.39 326.91 265.178 327.716 263.064C329.133 259.486 331.134 256.746 333.718 254.837C336.873 252.491 340.908 251.403 345.814 251.578C351.542 251.73 356.96 252.754 362.073 254.648C363.531 255.186 364.967 255.794 366.379 256.479C369.416 257.965 372.544 259.323 375.772 260.556C377.289 261.148 378.801 261.743 380.302 262.328C385.248 264.268 390.081 266.167 394.801 268.019C396.004 268.549 395.971 269.535 394.707 270.994C390.436 271.148 386.231 271.002 382.091 270.556C374.661 269.759 367.438 268.003 360.42 265.281C357.987 264.299 355.507 263.522 352.973 262.947C352.269 262.79 351.567 262.646 350.854 262.521C349.669 262.308 348.458 262.143 347.241 262.022C345.808 261.992 344.513 262.174 343.356 262.574C341.407 263.245 339.849 264.524 338.673 266.409C336.82 269.392 336.044 273.921 336.346 279.993C336.616 286.068 335.906 290.357 334.223 292.854C333.684 293.623 333.12 294.364 332.527 295.074C331.206 296.625 329.743 298.02 328.151 299.252C326.571 300.46 324.596 301.943 322.211 303.705C321.117 304.514 319.932 305.384 318.667 306.312C313.825 309.79 309.084 313.323 304.433 316.903C299.152 320.943 295.293 325.84 292.855 331.599C290.58 337.026 289.923 342.619 290.88 348.385C291.918 354.506 294.575 359.897 298.854 364.558C293.635 362.167 288.745 359.191 284.184 355.625C278.977 351.583 275.601 346.5 274.071 340.382C273.694 338.856 273.579 337.343 273.723 335.845C274.649 325.441 279.242 316.459 287.5 308.897C290.364 306.264 293.7 304.495 297.516 303.584C303.496 302.059 309.445 300.342 315.376 298.433C317.883 297.583 320.086 296.461 321.991 295.065ZM431.475 468.279C432.576 467.291 434.65 467.61 437.697 469.241C443.02 472.775 446.12 474.684 446.997 474.959C449.313 475.526 451.409 476.048 453.275 476.533C453.569 476.608 453.861 476.685 454.141 476.758C457.379 477.602 459.895 478.313 461.691 478.894C463.381 479.43 464.851 479.964 466.097 480.497C468.073 481.329 469.499 482.156 470.384 482.972C469.967 483.562 469.613 484.187 469.304 484.845C468.889 485.231 468.248 485.426 467.373 485.43C463.071 485.449 457.974 484.987 452.091 484.052C444.616 482.812 439.719 481.208 437.401 479.237C438.217 481.015 438.41 482.559 437.996 483.888L437.746 484.46C437.439 484.739 436.85 484.882 435.975 484.886C433.811 484.895 432.262 482.616 431.325 478.045L430.538 471.185C430.544 469.805 430.855 468.836 431.475 468.279ZM429.93 464.723C428.758 465.246 428.119 465.511 428.017 465.512C426.865 465.517 424.523 462.708 420.988 457.079C418.121 452.273 416.006 448.732 414.633 446.45C414.144 445.634 413.751 444.985 413.45 444.492C412.672 443.331 411.952 442.257 411.289 441.261C408.351 436.855 406.53 434.038 405.823 432.822C405.104 431.514 404.647 429.603 404.452 427.086C404.375 426.085 404.341 424.984 404.347 423.788C404.353 422.593 404.554 420.397 404.955 417.192C405.439 413.702 405.946 410.751 406.477 408.337L406.234 407.689C405.792 408.224 404.574 410.492 402.584 414.491C400.18 419.054 397.651 422.994 395.004 426.31C392.85 428.995 390.587 431.352 388.21 433.376C383.498 437.363 378.339 440.049 372.737 441.439C369.8 442.162 366.74 442.536 363.565 442.551C359.071 442.571 354.919 442.23 351.119 441.538C342.66 439.99 335.934 436.665 330.95 431.563C328.521 429.109 326.686 426.406 325.44 423.466C324.547 421.409 324.102 419.861 324.107 418.82C324.11 418.084 324.432 417.263 325.065 416.353C325.185 416.182 325.318 416.011 325.458 415.839C327.182 413.697 330.522 411.101 335.481 408.051C336.677 407.323 337.961 406.565 339.338 405.784C341.985 404.281 344.977 402.678 348.321 400.975C353.167 398.501 358.348 395.98 363.854 393.411C364.443 394.087 365.207 394.598 366.146 394.943C367.568 395.423 368.992 395.364 370.423 394.774L414.55 375.789C417.46 376.521 419.717 378.133 421.328 380.619C422.741 382.775 424.124 386.02 425.47 390.36C426.659 394.56 429.323 403.732 433.452 417.881C434.335 420.896 435.287 424.14 436.298 427.61C436.343 427.751 436.382 427.89 436.421 428.024C440.008 440.627 442.33 449.284 443.38 454.001C443.823 455.976 444.043 457.26 444.04 457.851C444.04 457.925 443.452 458.258 442.271 458.85C440.962 459.518 438.927 460.508 436.174 461.813C433.37 463.14 431.289 464.109 429.93 464.723ZM483.995 415.165C487.576 414.749 491.361 414.419 495.341 414.18C496.137 414.134 496.947 414.093 497.765 414.053C497.952 415.321 498.04 417.539 498.024 420.687C498.008 423.993 497.9 425.81 497.706 426.142C497.046 427.238 494.534 427.799 490.176 427.819C488.752 427.826 487.865 427.359 487.513 426.417C487.189 425.404 486.524 424.9 485.507 424.905C483.536 424.914 479.956 425.551 474.771 426.82C469.585 428.116 463.638 428.777 456.924 428.808C456.709 428.809 456.477 428.804 456.225 428.795C455.682 426.821 455.09 424.701 454.45 422.436C455.908 421.846 457.596 421.21 459.514 420.523C460.447 420.185 461.409 419.862 462.393 419.556C468.522 417.609 475.719 416.146 483.995 415.165ZM478.602 84.7409C468.75 83.086 459.731 80.7754 451.557 77.8092C448.221 76.6052 444.337 74.8439 439.911 72.5254C437.476 71.2147 433.915 69.2995 429.213 66.7799C428.803 66.5531 428.405 66.35 428.024 66.1757C432.582 64.0181 440.231 62.7241 450.974 62.291C458.485 61.9542 464.593 62.0286 469.303 62.5141C474.015 63.0023 477.138 65.453 478.676 69.8688L478.602 84.7409Z" fill="#245190"/>
  <path fill-rule="evenodd" clip-rule="evenodd" d="M421.891 361.322L407.476 367.512C402.895 363.241 398.615 360.688 394.632 359.847C390.061 358.854 386.515 358.36 383.995 358.372C383.366 358.375 382.653 358.417 381.857 358.495C382.378 357.843 382.792 357.258 383.097 356.733C384.807 353.932 385.679 350.506 385.699 346.467C385.711 344.075 384.963 341.955 383.468 340.107C382.627 339.07 380.879 337.515 378.233 335.44C372.747 331.095 369.44 326.319 368.314 321.108C368.289 321.016 368.355 320.183 368.513 318.613C372.869 318.961 377.797 323.926 383.294 333.512C389.622 344.567 393.162 352.064 393.912 355.998L394.527 355.919C395.131 355.819 395.91 355.76 396.873 355.755C407.557 355.706 415.013 356.844 419.252 359.163C420.424 359.82 421.304 360.536 421.891 361.322ZM207.888 392.014C208.394 392.245 208.885 392.524 209.365 392.848C210.87 393.805 211.733 396.064 211.962 399.624C212.171 402.062 211.979 404.136 211.396 405.842C211.172 406.41 210.909 406.924 210.61 407.388C210.564 407.449 210.524 407.507 210.484 407.562C210.347 407.765 210.225 407.957 210.113 408.137C208.868 409.716 205.307 410.574 199.414 410.701C194.234 410.777 190.894 410.564 189.387 410.061C181.741 416.934 177.432 420.707 176.472 421.371C176.139 421.625 174.837 421.541 172.565 421.123C172.434 420.181 172.511 419.04 172.789 417.688C172.903 417.001 173.07 416.404 173.291 415.893C182.034 404.744 189.359 397.363 195.264 393.748C198.039 392.161 200.578 391.272 202.878 391.085C203.184 391.084 203.456 391.083 203.702 391.082C205.183 391.09 206.58 391.405 207.888 392.014ZM66.9297 412.285C68.4317 415.469 70.7317 417.051 73.8268 417.037C75.3928 417.029 76.9662 415.527 78.5555 412.534C78.7842 413.805 78.8957 415.297 78.8872 417.013C78.878 418.882 78.6233 420.557 78.1233 422.031C76.7937 421.196 75.1848 420.155 73.288 418.908C70.1504 417.216 68.062 416.94 67.0227 418.08C66.5843 416.844 66.3603 416.325 66.3537 416.519C66.3617 414.908 66.5528 413.491 66.9297 412.285ZM116.666 414.611C119.191 417.03 122.542 417.987 126.718 417.482C126.923 417.289 127.105 417.102 127.259 416.904C127.826 418.452 128.104 420.051 128.096 421.709C128.094 422.214 128.023 422.7 127.882 423.158C126.327 422.23 123.995 420.74 120.876 418.689C119.413 417.899 118.175 417.416 117.168 417.239C116.834 415.543 116.665 414.761 116.664 414.897C116.665 414.798 116.665 414.7 116.666 414.611ZM250.407 350.138C250.235 349.392 250.054 348.791 249.861 348.348C249.209 346.903 248.611 345.876 248.07 345.269C248.998 345.369 249.955 345.389 250.947 345.332C251.377 345.309 251.816 345.27 252.261 345.213C256.08 344.756 259.223 343.743 261.689 342.176C263.237 341.186 264.514 339.979 265.524 338.555C265.988 339.084 266.439 339.642 266.875 340.226C267.263 340.726 267.76 341.58 268.363 342.794C268.275 342.734 268.182 342.677 268.095 342.619C264.77 344.469 260.601 346.267 255.577 348.017C253.629 348.683 251.906 349.387 250.407 350.138ZM464.574 472.174C463.946 472.014 463.295 471.849 462.622 471.684C461.749 471.412 458.649 469.502 453.323 465.974C451.555 465.025 450.116 464.514 448.998 464.446C448.964 464.357 448.928 464.259 448.895 464.162C447.713 460.849 447.139 457.798 447.176 455.014C448.467 454.446 450.556 453.482 453.437 452.129C454.564 451.59 455.568 451.107 456.443 450.683C456.749 451.162 457.061 451.681 457.381 452.226C459.335 455.65 461.083 459.531 462.621 463.871C464.059 467.932 464.706 470.696 464.574 472.174ZM461.964 402.289C462.434 404.51 462.657 407.04 462.643 409.871C462.636 411.198 462.275 412.658 461.553 414.243C458.339 414.413 455.245 414.64 452.282 414.914C450.945 410.342 449.748 406.23 448.685 402.574L461.903 402.513C461.923 402.439 461.941 402.366 461.964 402.289ZM478.832 402.435L494.636 402.362C495.352 404.698 495.816 407.058 496.017 409.454C496.009 410.955 495.786 412.53 495.336 414.182C491.356 414.422 487.572 414.752 483.99 415.168C483.256 414.233 482.548 413.14 481.869 411.882C479.832 408.049 478.817 405.297 478.826 403.618C478.828 403.202 478.83 402.811 478.832 402.435ZM450.107 128.883C450.751 126.234 450.844 124.113 450.385 122.514C449.928 120.913 449.452 119.785 448.963 119.125C450.304 119.377 451.742 119.491 453.277 119.484C459.88 119.454 464.805 117.681 468.056 114.157C468.467 114.739 468.857 115.373 469.239 116.057C470.106 117.627 470.829 119.303 471.389 121.08C468.823 119.925 466.084 119.617 463.179 120.166C458.485 121 454.13 123.906 450.107 128.883Z" fill="#EE8960"/>
  <path fill-rule="evenodd" clip-rule="evenodd" d="M300.924 438.202C290.222 436.693 279.113 434.868 267.604 432.731C256.181 430.574 247.477 428.606 241.494 426.828C241.358 426.792 241.217 426.756 241.087 426.717C241.168 426.459 241.242 426.209 241.314 425.97C241.976 423.843 242.491 422.167 242.86 420.951C246.319 420.538 249.779 420.144 253.241 419.755C267.357 418.752 274.466 416.128 274.569 411.878C275.556 406.486 275.816 400.932 275.351 395.213C274.937 390.129 274.526 385.112 274.112 380.155C273.748 375.833 272.883 371.617 271.504 367.505C269.679 362.226 266.192 358.455 261.038 356.187C261.026 356.185 261.012 356.177 260.995 356.172C260.368 355.891 259.71 355.631 259.028 355.398C256.06 354.347 253.543 354.824 251.478 356.825C251.27 357.026 251.071 357.234 250.883 357.459C250.695 357.685 250.524 357.915 250.364 358.144C248.909 360.211 248.292 362.592 248.499 365.285C248.818 370.156 249.051 374.441 249.197 378.135C249.277 380.343 249.329 382.337 249.352 384.121C249.41 388.846 249.24 392.928 248.838 396.362C248.805 396.591 248.756 396.812 248.693 397.033C248.661 397.138 248.627 397.236 248.587 397.336C247.888 399.457 245.888 401.282 242.582 402.819C242.485 401.682 242.381 400.486 242.268 399.233C242.017 396.239 241.725 392.918 241.394 389.267C241.128 386.414 240.889 383.779 240.692 381.357C239.788 369.914 239.731 363.184 240.506 361.167C241.396 358.724 242.886 356.35 244.978 354.054C246.217 352.642 248.022 351.335 250.404 350.137C251.902 349.386 253.625 348.682 255.573 348.016C260.597 346.266 264.766 344.468 268.091 342.618C268.178 342.675 268.272 342.733 268.359 342.793C273.567 346.054 277.912 349.805 281.391 354.038C284.088 357.379 286.697 361.601 289.221 366.698C292.719 373.854 295.39 381.836 297.237 390.65C298.952 398.878 300.23 406.259 301.072 412.786C301.889 419.315 302.292 424.362 302.274 427.92C302.228 431.505 301.897 434.949 301.277 438.258C301.161 438.243 301.042 438.222 300.924 438.202ZM471.385 121.079C477.514 123.723 482.847 130.918 487.391 142.667C488.364 145.128 489.257 147.718 490.065 150.434C490.578 151.399 490.918 152.603 491.072 154.053C495.92 171.799 498.269 194.883 498.128 223.31C498.114 226.154 497.639 228.726 496.694 231.017L427.236 231.337C427.239 230.753 427.242 230.128 427.245 229.468C427.256 227.182 427.282 224.929 427.321 222.716C427.672 207.236 428.92 193.17 431.064 180.525C431.263 179.305 431.475 178.108 431.702 176.94C438.403 172.791 445.362 167.228 452.578 160.254C457.643 155.35 462.862 149.645 468.237 143.134C472.123 138.465 474.065 136.206 474.065 136.361C474.14 121.258 465.85 119.136 449.191 129.992C449.493 129.61 449.798 129.238 450.103 128.882C454.126 123.904 458.481 120.999 463.175 120.165C466.08 119.616 468.82 119.924 471.385 121.079Z" fill="#F1A20F"/>
  <path fill-rule="evenodd" clip-rule="evenodd" d="M414.585 455.321L304.112 455.829L304.137 450.794L414.61 450.286L414.585 455.321ZM414.554 461.689L414.529 466.724L304.055 467.232L304.08 462.197L414.554 461.689Z" fill="#D5DFF4"/>
  <path fill-rule="evenodd" clip-rule="evenodd" d="M360.348 317.009C360.756 318.019 361.235 319.055 361.788 320.109C363.827 324.092 364.84 326.502 364.836 327.343C364.829 328.738 364.355 330.039 363.418 331.239C362.206 332.819 360.438 333.615 358.105 333.626C354.407 333.643 350.012 330.178 344.924 323.24C342.339 319.181 340.501 316.275 339.42 314.53C339.473 314.53 339.53 314.53 339.584 314.529C344.974 310.163 348.099 304.872 348.951 298.661C349.153 298.912 349.359 299.163 349.564 299.42C352.972 303.69 356.188 306.262 359.205 307.133C358.883 308.131 358.72 308.846 358.718 309.296C358.706 311.693 359.249 314.263 360.348 317.009Z" fill="#CD6D49"/>
  <path fill-rule="evenodd" clip-rule="evenodd" d="M386.909 376.352L407.48 367.508L421.896 361.319L428.772 358.37L432.109 356.925L439.118 290.045C439.259 288.869 439.743 287.863 440.571 287.026C440.753 286.855 440.941 286.691 441.148 286.524C442.359 285.659 443.72 285.272 445.223 285.365C446.786 285.484 448.043 286.101 448.997 287.216C449.952 288.281 450.354 289.523 450.211 290.948L446.782 323.414L442.836 360.844C442.693 362.269 442.013 363.426 440.808 364.322C440.328 364.687 439.814 364.968 439.283 365.17L430.259 369.043L429.995 369.158L414.549 375.788L370.422 394.773C368.992 395.363 367.567 395.423 366.145 394.943C365.207 394.598 364.442 394.086 363.854 393.411C363.547 393.071 363.288 392.683 363.075 392.25C362.427 390.931 362.389 389.61 362.973 388.285C363.498 386.961 364.465 386 365.861 385.41L369.485 383.851L386.909 376.352Z" fill="#9CC1E9"/>
</svg>
