<svg width="550" height="588" viewBox="0 0 550 588" fill="none"
  xmlns="http://www.w3.org/2000/svg">
  <path d="M201.495 559.877C201.82 559.877 202.301 559.877 202.626 559.722C199.883 554.892 197.143 550.225 194.404 545.554C190.212 538.391 185.86 531.073 181.023 524.068C181.669 518.929 184.733 510.99 187.954 506.164C195.855 494.33 203.593 482.965 202.626 470.045C202.626 469.421 202.462 468.797 202.462 468.332C201.495 461.169 198.595 454.319 195.691 447.78C196.983 455.409 198.27 463.192 195.21 470.979C192.145 478.608 185.375 485.302 181.347 492.775C177.802 499.156 175.058 511.769 177.962 519.553C176.995 518.308 176.029 517.219 175.058 515.971C173.125 513.637 171.031 511.3 168.933 509.122C167.646 504.141 168.291 499.001 169.74 493.71C172.964 481.876 180.862 469.421 182.475 458.211C183.766 449.025 181.99 439.683 175.222 432.989C179.41 445.288 168.127 459.301 163.775 471.6C159.584 483.279 162.969 496.977 167.967 508.187C163.775 503.827 159.102 499.47 154.59 495.419L154.265 494.175C154.265 493.396 154.265 492.62 154.104 491.841C155.232 488.884 153.298 484.678 153.459 481.721C153.619 476.895 154.75 471.914 156.363 467.243C159.263 458.211 163.615 449.183 165.388 439.997C167.161 430.81 166.033 421.158 158.942 414.619C159.423 425.984 152.653 437.349 149.267 448.714C147.494 454.63 146.528 460.704 146.528 466.619C145.721 473.313 146.367 480.007 149.431 485.923C149.592 486.236 149.752 486.702 150.074 487.015C151.04 489.504 152.171 491.996 153.459 494.489C152.332 493.554 151.365 492.62 150.234 491.686C143.788 485.923 137.339 480.007 130.571 474.247C129.926 470.821 129.765 467.398 130.086 463.971C130.407 461.483 131.378 458.99 132.505 456.498C141.048 439.218 154.911 426.295 146.367 408.39C147.173 415.398 144.434 423.027 138.79 429.411C135.89 432.834 132.02 435.791 129.28 439.218C122.834 447.315 120.091 461.483 125.574 468.797C126.862 470.511 128.634 472.069 129.765 473.782C121.222 466.309 112.354 458.68 103.328 451.517C102.037 448.091 101.395 444.354 101.716 440.776C102.201 436.26 104.456 431.899 106.714 427.542C110.099 420.69 113.484 413.685 114.451 406.68C115.418 399.672 113.484 392.354 107.359 387.683C109.293 395.315 103.004 403.564 99.2975 411.351C93.9787 422.871 94.1393 435.326 99.9432 445.602C101.07 447.47 102.201 449.338 103.168 451.362C103.004 451.362 103.004 451.207 102.843 451.207C101.556 450.117 100.264 449.183 98.9764 448.091C95.7517 445.447 92.3664 442.954 89.1416 440.152C88.1749 437.973 87.3687 435.791 87.0476 433.458L87.8538 436.105C85.1141 424.271 91.5602 410.417 95.2665 398.893C97.0395 393.288 98.3308 383.95 94.7849 378.655C93.012 374.764 90.2724 371.182 86.5625 368.224C89.7872 377.566 85.2747 387.997 81.8894 397.959C80.7621 401.231 79.7919 404.654 79.4708 408.08C76.8917 419.29 82.0499 429.876 88.3354 439.528C82.0499 434.392 75.925 428.942 70.4422 423.182C67.3814 416.019 67.3814 406.991 68.8333 399.362C69.9606 392.978 72.8607 386.594 73.5064 380.055C74.152 374.14 73.0248 368.224 70.2816 363.085C68.9938 373.829 59.9652 384.105 58.3528 394.691C56.9045 404.033 63.3505 413.53 68.8333 421.624C58.9985 410.727 55.2921 402.63 50.9401 393.288C49.9733 391.265 49.0066 389.242 48.0364 387.063C44.9756 380.989 42.236 374.919 39.8174 369.003C39.3323 366.98 39.0112 364.953 39.0112 362.775C39.0112 360.127 39.4928 357.325 39.6569 354.681C40.9447 341.758 37.884 328.989 31.1134 317.938C31.7555 324.008 29.1764 330.237 28.2097 336.463C25.7911 352.188 34.0135 366.511 42.8781 379.121C44.1694 382.082 45.6213 384.884 46.9091 387.683C47.3942 388.776 47.8758 389.71 48.3609 390.644C45.7818 386.594 40.4631 383.481 35.7865 380.989C28.8553 377.411 21.4391 374.45 14.8325 370.403C9.18917 366.98 4.51606 362.775 0.80619 357.949C2.09749 361.53 3.22476 364.953 4.51606 368.535C6.28898 373.361 8.0619 378.5 12.5745 381.923C21.4391 388.776 37.0778 387.997 48.682 391.11C49.1671 392.044 49.4882 392.823 49.9733 393.757C54.4859 403.254 58.3528 411.506 68.5087 422.716C68.8333 423.027 69.1544 423.337 69.3149 423.651C63.9961 418.98 55.6132 416.953 50.1339 412.127C46.4275 409.014 43.5238 405.122 39.3323 402.475C34.0135 399.049 27.7281 398.273 20.9575 398.118C16.2809 397.959 11.4472 398.738 6.61006 398.893C4.35203 399.049 2.25803 398.893 0 398.583C2.09749 400.917 5.80387 401.696 9.34971 402.165C15.6387 402.944 21.2785 404.654 26.1157 408.08C32.0801 412.285 35.7865 415.708 43.6843 417.266C52.2279 418.821 61.5776 421.003 69.3149 423.961C75.6039 430.655 82.6956 436.725 89.9478 442.644C90.2724 443.109 90.5934 443.42 90.754 443.889C90.4329 443.578 90.2724 443.109 89.9478 442.644C92.5269 444.823 95.2665 446.846 97.8457 448.87C98.9764 449.804 100.104 450.583 101.07 451.517C96.2368 448.404 89.6267 446.381 83.0166 446.222C81.5648 446.222 80.277 446.381 78.8252 446.536C74.3126 447.315 69.8 449.183 65.284 450.117C50.4549 452.92 35.3048 452.606 21.9242 449.025C29.6615 457.901 44.0089 462.103 58.8379 459.924C66.2542 458.835 71.0878 456.498 78.019 454.009C83.0166 452.141 96.3973 448.87 101.231 451.517C101.395 451.672 101.556 451.827 101.877 451.986C103.974 453.696 106.229 455.409 108.326 457.122C103.81 455.719 90.9145 459.145 88.1749 459.924C78.6646 462.417 69.4754 465.685 59.9652 467.553C50.4549 469.421 39.978 469.421 32.5617 465.685C42.3965 474.716 59.6441 479.697 75.2793 474.557C81.5648 472.534 87.2081 468.952 93.1725 466.153C96.5579 464.44 110.42 461.324 109.939 458.522V458.366C122.349 468.642 134.278 479.228 145.882 489.659C140.242 486.547 132.826 484.833 125.574 484.988C99.6221 485.457 75.6039 506.319 50.1339 504.606C60.7714 508.032 73.8275 506.164 85.7563 502.893C97.6851 499.625 109.132 494.954 121.058 492.62C131.699 490.593 142.015 490.907 151.04 494.33C152.332 495.423 153.459 496.512 154.75 497.601C154.911 497.757 154.911 497.912 155.071 498.067L154.911 497.757C159.748 502.272 164.581 506.788 169.094 511.614C169.579 512.548 170.064 513.637 170.546 514.572C170.064 513.792 169.74 512.858 169.419 512.079C171.031 513.792 172.643 515.661 174.092 517.374C175.544 519.087 176.995 520.956 178.283 522.665C167 519.397 157.811 516.126 144.109 518.153C130.407 520.332 117.512 526.247 106.389 533.255C97.043 539.17 86.5625 546.643 75.4399 545.554C84.7896 550.066 98.1702 547.578 108.968 542.752C119.77 538.081 129.12 531.387 140.242 527.181C152.332 522.51 166.033 520.956 178.283 522.665C183.927 530.452 188.76 538.546 193.437 546.643C196.176 550.69 198.916 555.361 201.495 559.877Z" fill="#7ADCFB"/>
  <path d="M116.87 423.026C107.842 434.546 104.781 449.182 113.485 459.144C113.967 451.516 119.125 444.977 122.029 437.817C123.638 433.767 126.217 430.499 128.799 427.073C129.927 425.514 131.054 423.96 132.181 422.091C134.924 417.576 134.76 412.44 132.827 408.234C130.893 403.877 127.187 400.295 123.156 397.179C124.768 402.319 126.381 407.614 124.283 413.06C122.51 416.486 119.45 419.754 116.87 423.026Z" fill="#7ADCFB"/>
  <path d="M87.6934 435.635C88.0144 436.883 88.3355 438.283 88.9811 439.527L87.6934 435.635Z" fill="#7ADCFB"/>
  <path d="M70.6052 437.659C76.7302 439.217 82.2095 442.33 88.8195 441.551C83.9824 436.57 76.4056 433.147 70.1201 429.721C67.3804 428.163 64.4803 426.763 61.416 426.139C58.8369 425.674 55.9367 425.829 53.1936 425.984C52.3874 425.984 51.5847 426.139 50.7785 426.139C42.7166 426.608 34.4977 427.384 26.4358 427.384C21.9232 427.384 11.1216 423.961 7.73633 424.581C12.4129 428.163 17.5712 431.434 23.375 433.457C38.0435 437.973 55.4516 433.612 70.6052 437.659Z" fill="#7ADCFB"/>
  <path d="M80.9215 489.659C89.1405 487.17 96.0716 482.654 103.809 479.228C107.84 477.36 112.352 475.96 116.869 475.336C119.769 475.026 124.766 475.65 126.86 473.468C124.281 472.068 121.381 470.51 118.317 469.421C113.804 467.708 108.807 468.018 103.648 469.421C95.2654 471.6 86.5614 476.584 79.3092 479.386C74.3115 481.41 53.9997 491.062 49.166 487.015C56.0972 492.62 71.0867 492.62 80.9215 489.659Z" fill="#7ADCFB"/>
  <path d="M114.452 517.374C122.35 515.505 129.121 511.769 136.858 510.366C140.725 509.745 144.595 508.966 148.462 508.811C152.012 508.656 155.397 508.811 158.618 509.431C162.004 510.055 165.713 512.079 168.935 511.924C164.743 505.385 152.654 499.314 142.498 499C139.919 499 137.34 499.156 134.761 499.624C133.794 499.78 132.827 499.935 131.86 500.09C122.35 501.648 112.84 503.361 103.975 506.787C91.4009 511.455 79.151 518.618 65.4492 515.815C70.2829 520.021 78.3448 521.265 86.0821 521.42C95.4318 521.42 105.103 519.552 114.452 517.374Z" fill="#7ADCFB"/>
  <path d="M53.358 371.491C56.4187 361.374 58.9978 350.164 51.5851 342.536C54.4853 347.517 50.9394 353.901 48.8419 359.661C44.6504 371.181 46.4268 383.012 51.2605 393.288C48.5208 386.593 51.2605 378.655 53.358 371.491Z" fill="#7ADCFB"/>
  <path d="M174.898 383.947C168.934 380.679 161.036 377.876 160.23 371.337C159.748 366.511 163.615 362.464 165.067 357.793C167.967 348.297 159.102 338.331 149.107 336.463C145.561 335.842 142.015 335.997 138.63 334.908C122.51 330.079 121.703 305.325 106.068 298.941C104.616 298.32 103.168 298.007 101.716 298.32C100.589 298.631 99.6187 299.255 98.9766 300.034C103.168 309.53 109.293 317.779 116.385 325.566C128.959 339.579 143.628 352.654 148.461 371.337C151.204 381.923 152.492 392.513 158.136 402.165C160.875 406.835 163.775 411.661 167.161 415.864C168.127 416.953 168.934 418.045 169.9 418.98C177.317 417.266 184.087 413.53 186.345 406.68C189.245 397.959 183.12 388.462 174.898 383.947Z" fill="#B8EBF4"/>
  <path d="M154.263 400.607C149.265 390.955 148.298 380.214 145.238 369.779C142.334 359.662 136.049 351.099 129.117 343.157C117.674 329.924 104.454 318.093 97.0373 302.212C96.5557 303.612 96.2346 305.015 96.2346 306.414C95.7495 316.225 99.7804 326.032 107.033 332.881C111.224 336.932 116.867 340.2 118.155 345.805C120.574 355.612 108.324 366.046 113.482 374.764C118.155 382.547 133.148 381.148 135.727 389.866C137.336 395.157 132.824 402.01 136.855 406.057C137.176 406.367 137.5 406.522 137.821 406.836C139.113 411.817 142.659 416.332 147.492 418.356C151.038 419.755 154.748 420.069 158.615 420.069C161.355 420.069 164.258 419.914 166.998 419.445C165.871 418.201 164.74 416.953 163.773 415.709C160.227 410.883 157.003 405.746 154.263 400.607Z" fill="#B8EBF4"/>
  <path d="M367.205 432.678C369.623 429.566 371.236 425.984 373.169 422.558C376.394 416.332 380.1 410.882 385.259 405.901C388.162 403.099 391.387 400.607 393.966 397.649C396.221 395.157 396.706 391.889 399.124 389.397C401.864 386.594 404.443 384.105 406.862 380.989C409.116 378.031 411.535 374.919 413.629 371.806C415.887 368.535 418.145 365.422 420.884 362.619C423.303 359.972 425.882 357.48 428.137 354.836C433.134 348.917 435.713 342.536 437.972 335.373C440.066 328.524 442.324 322.14 446.515 316.225C447.161 315.446 447.803 314.511 448.288 313.577C444.903 312.174 441.196 314.822 438.617 317.469C432.974 323.229 427.976 329.768 424.109 336.618C422.818 338.955 421.53 341.289 419.433 343.157C415.241 346.739 408.956 346.739 403.958 349.231C392.675 354.677 391.869 369.003 387.838 379.121C382.358 392.978 372.848 391.11 362.853 399.827C354.634 406.991 350.763 422.558 352.861 432.834C353.828 437.194 355.922 440.617 358.986 442.799C359.467 442.02 359.953 441.396 360.434 440.776C362.211 437.973 365.111 435.636 367.205 432.678Z" fill="#F9B09B"/>
  <path d="M439.098 340.044C436.843 346.894 433.619 352.654 428.621 357.948C426.202 360.596 423.784 363.085 421.365 365.732C418.626 368.69 416.532 371.961 414.274 375.229C412.18 378.345 409.761 381.303 407.342 384.26C405.088 387.063 401.863 389.396 399.766 392.354C398.638 393.757 398.153 395.47 397.347 397.025C396.544 398.428 395.574 399.517 394.447 400.606C391.868 403.254 388.968 405.588 386.388 408.235C380.745 413.685 377.36 420.224 373.653 426.918C372.041 430.031 370.268 433.147 367.849 435.791C365.27 438.594 363.012 441.241 360.758 444.354C365.431 447.001 371.395 447.315 377.52 445.602C391.062 441.71 401.538 428.942 404.924 416.177C406.376 410.572 406.861 404.343 410.728 399.983C413.146 397.18 416.692 395.47 420.077 393.602C428.781 388.617 436.843 381.303 438.777 371.647C440.065 365.267 438.452 358.414 440.871 352.188C442.804 347.207 447.16 343.312 449.899 338.645C453.445 332.571 454.251 325.097 451.833 318.403C451.512 317.314 450.866 316.069 450.06 315.135C449.575 315.911 449.093 316.69 448.448 317.314C443.61 324.477 441.677 332.105 439.098 340.044Z" fill="#F9B09B"/>
  <path d="M494.872 376.632C493.26 378.965 491.327 380.834 489.393 383.012C487.456 385.349 486.008 387.997 484.395 390.486C482.622 393.133 480.689 395.47 478.752 397.959C475.531 402.164 471.981 406.211 467.954 409.638C464.084 412.906 459.571 415.708 455.865 419.29C451.673 423.337 448.934 428.786 446.354 433.923C443.775 439.062 442.002 444.199 439.905 449.493C437.971 454.629 434.747 458.835 431.846 463.506C429.103 468.021 426.364 471.755 421.851 474.871C419.757 476.27 417.66 477.828 416.047 479.697C414.274 481.72 412.501 483.899 410.568 485.922C406.698 489.973 402.506 493.554 398.8 497.601C391.708 505.385 386.55 514.726 379.458 522.51C375.748 526.557 371.396 529.983 368.335 534.499C365.917 538.081 363.819 541.659 361.24 545.24C371.557 552.093 387.031 549.601 398.639 543.686C407.989 538.86 416.693 531.852 421.045 522.355C423.463 516.905 424.43 510.679 427.655 505.695C436.198 492.93 455.865 493.554 469.242 485.457C481.977 477.828 487.781 462.258 486.489 447.78C485.362 436.26 480.364 424.581 483.429 413.374C485.683 405.277 491.648 398.738 497.291 392.354C502.934 385.973 508.253 378.81 508.895 370.403C509.22 366.201 507.768 361.84 505.028 358.572C503.095 361.995 500.997 365.422 499.064 368.845C497.937 371.647 496.485 374.295 494.872 376.632Z" fill="#7ADCFB"/>
  <path d="M368.976 530.294C372.525 526.092 376.877 522.665 380.263 518.463C386.869 510.366 392.028 501.338 399.444 493.865C403.475 489.818 407.827 485.923 411.694 481.721C413.467 479.697 415.079 477.518 417.176 475.805C419.11 474.247 421.204 473.003 422.977 471.6C427.493 468.022 429.747 462.417 432.812 457.746C434.424 455.254 436.036 452.92 437.164 450.117C438.13 447.78 438.937 445.288 439.743 442.799C441.676 437.66 444.255 432.523 446.995 427.697C449.738 423.027 452.638 418.821 456.99 415.243C461.021 411.817 465.534 409.014 469.24 405.433C473.432 401.386 476.978 396.87 480.363 392.199C483.427 388.152 485.846 383.636 489.231 379.9C492.777 376.008 495.195 371.492 497.61 366.821C499.383 363.709 501.32 360.441 503.093 357.325C500.835 355.456 497.935 354.522 494.871 354.677C491.325 354.991 488.1 356.704 485.039 358.572C474.398 364.643 463.276 371.337 457.636 381.923C452.153 392.513 452.317 406.522 442.482 413.685C432.327 421.003 417.012 416.643 406.375 423.182C388.642 434.237 397.992 465.529 380.744 477.36C377.199 479.852 373.007 481.097 369.14 483.12C356.245 489.973 351.247 506.943 356.245 520.021C352.214 527.336 352.374 536.991 358.017 543.217C358.339 543.527 358.66 543.841 358.984 544.151C359.145 543.996 359.145 543.841 359.305 543.686C363.012 539.325 365.591 534.499 368.976 530.294Z" fill="#7ADCFB"/>
  <path d="M123.961 452.14V499.934C124.282 499.934 124.443 499.934 124.767 499.934H386.228C393.159 499.934 398.799 494.488 398.799 487.79V464.284C398.799 457.587 393.159 452.14 386.228 452.14H124.767C124.443 451.985 124.121 452.14 123.961 452.14Z" fill="#26A4FB"/>
  <path d="M370.268 488.104V464.595C370.268 457.901 364.624 452.451 357.693 452.451H370.268C377.199 452.451 382.842 457.901 382.842 464.595V488.104C382.842 494.798 377.199 500.248 370.268 500.248H357.693C364.624 500.403 370.268 494.798 370.268 488.104Z" fill="#2E7DFB"/>
  <path d="M343.026 488.104V464.595C343.026 457.901 337.386 452.451 330.455 452.451H343.026C349.957 452.451 355.601 457.901 355.601 464.595V488.104C355.601 494.798 349.957 500.248 343.026 500.248H330.455C337.222 500.403 343.026 494.798 343.026 488.104Z" fill="#2E7DFB"/>
  <path d="M117.191 451.985H277.741C284.673 451.985 290.316 457.432 290.316 464.126V487.791C290.316 494.488 284.673 499.935 277.741 499.935H117.191C116.87 499.935 116.706 499.935 116.385 499.935V495.109H271.131C277.096 495.109 282.093 490.438 282.093 484.523V467.397C282.093 461.637 277.26 456.811 271.131 456.811H116.385V451.985C116.545 452.14 116.87 451.985 117.191 451.985Z" fill="#2E7DFB"/>
  <path d="M120.897 487.79V464.285C120.897 461.482 119.931 458.99 118.318 456.966H270.971C276.935 456.966 281.933 461.637 281.933 467.552V484.678C281.933 490.438 277.096 495.264 270.971 495.264H118.318C119.931 493.085 120.897 490.593 120.897 487.79Z" fill="#F2EBEC"/>
  <path d="M270.971 469.11H120.897V464.284C120.897 461.482 119.931 458.99 118.318 456.966H270.971C276.935 456.966 281.933 461.637 281.933 467.552V479.697C281.933 473.781 277.096 469.11 270.971 469.11Z" fill="#CAD9FC"/>
  <path d="M120.897 495.109H118.318C119.931 493.086 120.897 490.594 120.897 487.791V495.109Z" fill="#B8EBF4"/>
  <path d="M357.858 238.537V291.312C357.537 291.312 357.216 291.471 356.891 291.471H87.3721C79.6347 291.471 73.5098 285.397 73.5098 278.079V252.081C73.5098 244.608 79.7953 238.692 87.3721 238.692H356.891C357.216 238.537 357.537 238.537 357.858 238.537Z" fill="#7ADCFB"/>
  <path d="M365.269 238.537H207.298C199.56 238.537 193.436 244.607 193.436 251.926V277.924C193.436 285.397 199.721 291.312 207.298 291.312H365.269C365.59 291.312 365.915 291.312 366.236 291.157V285.866H214.714C208.104 285.866 202.625 280.571 202.625 274.187V255.349C202.625 248.968 208.104 243.673 214.714 243.673H366.236V238.378C365.915 238.537 365.59 238.537 365.269 238.537Z" fill="#B8EBF4"/>
  <path d="M361.076 278.079V252.081C361.076 248.968 362.207 246.321 363.98 243.984H214.712C208.102 243.984 202.623 249.279 202.623 255.663V274.501C202.623 280.882 208.102 286.176 214.712 286.176H363.98C362.207 283.839 361.076 281.04 361.076 278.079Z" fill="#EDF4F9"/>
  <path d="M214.712 251.302H361.076C361.237 248.5 362.207 246.007 363.816 243.984H214.548C207.942 243.984 202.459 249.279 202.459 255.663V262.977C202.623 256.438 208.102 251.302 214.712 251.302Z" fill="#CAD9FC"/>
  <path d="M402.669 152.283V171.746C402.669 183.266 393.159 192.452 381.23 192.452H141.855C137.824 192.452 134.117 191.363 130.893 189.495C132.826 181.087 133.957 171.746 133.957 161.935C133.957 160.846 133.957 159.757 133.957 158.667C133.793 150.105 132.665 141.852 131.053 134.379C134.278 132.511 137.984 131.421 142.015 131.421H381.391C392.995 131.577 402.669 140.918 402.669 152.283Z" fill="#EDF4F9"/>
  <path d="M381.23 131.576H141.855C137.824 131.576 134.117 132.665 130.893 134.534C131.699 137.65 132.18 141.073 132.665 144.499C134.438 144.031 136.211 143.72 138.145 143.72H377.36C389.289 143.72 398.799 153.062 398.799 164.427V183.421C401.218 180.153 402.509 176.103 402.509 171.745V152.283C402.669 140.918 392.995 131.576 381.23 131.576Z" fill="#CAD9FC"/>
  <path d="M292.41 151.973V182.022L305.145 175.482L316.913 182.801V151.973H292.41Z" fill="#7ADCFB"/>
  <path d="M384.616 196.189H132.505C131.378 196.189 130.086 196.034 128.795 195.875L130.247 188.716C131.053 188.871 131.859 188.871 132.505 188.871H384.616C391.547 188.871 397.187 183.421 397.187 176.727V146.678C397.187 139.984 391.547 134.534 384.616 134.534H132.505C131.699 134.534 131.053 134.534 130.247 134.693L128.795 127.53C130.086 127.374 131.213 127.219 132.505 127.219H384.616C395.738 127.219 404.763 135.937 404.763 146.678V176.727C404.763 187.468 395.738 196.189 384.616 196.189Z" fill="#26A4FB"/>
  <path d="M377.036 290.847H182.793C193.755 290.847 202.623 299.409 202.623 309.995V322.919C202.623 333.505 193.755 342.067 182.793 342.067H377.036C387.998 342.067 396.863 333.505 396.863 322.919V309.995C396.702 299.254 387.834 290.847 377.036 290.847Z" fill="#FF6FCA"/>
  <path d="M202.458 322.763V309.84C202.458 299.254 193.593 290.691 182.631 290.691H51.9023V298.006H182.631C189.401 298.006 194.884 303.301 194.884 309.84V322.763C194.884 329.303 189.401 334.594 182.631 334.594H52.0629V341.912H182.955C193.593 341.912 202.458 333.349 202.458 322.763Z" fill="#FFB1DF"/>
  <path d="M194.888 322.763V309.84C194.888 303.301 189.405 298.006 182.634 298.006H52.0664V334.594H182.795C189.405 334.594 194.888 329.303 194.888 322.763Z" fill="#EDF4F9"/>
  <path d="M182.795 298.006H52.0664V307.817H182.795C189.565 307.817 195.048 313.108 195.048 319.647V309.84C194.888 303.301 189.405 298.006 182.795 298.006Z" fill="#CAD9FC"/>
  <path d="M133.957 201.48H372.687V232.308H133.957V201.48Z" fill="#EDF4F9"/>
  <path d="M133.957 201.48H372.687V211.291H133.957V201.48Z" fill="#CAD9FC"/>
  <path d="M139.918 198.833V234.022C131.378 232.774 124.768 225.459 124.768 216.896V216.117C124.768 207.4 131.378 200.236 139.918 198.833Z" fill="#2300B1"/>
  <path d="M376.072 231.064C375.587 231.064 375.266 231.064 374.781 231.064H142.661C141.854 231.064 141.209 231.064 140.402 230.905C133.632 229.816 128.474 224.056 128.474 217.361V216.582C128.474 209.888 133.632 203.973 140.563 202.883C141.209 202.728 141.854 202.728 142.661 202.728H374.781C375.266 202.728 375.587 202.728 376.072 202.728V195.41C375.587 195.41 375.266 195.41 374.781 195.41H142.661C141.369 195.41 140.081 195.565 139.115 195.72C128.474 197.278 120.736 206.151 120.736 216.582V217.361C120.736 227.792 128.474 236.51 138.951 238.068C140.081 238.223 141.369 238.378 142.661 238.378H374.781C375.266 238.378 375.587 238.378 376.072 238.378V231.064Z" fill="#2E7DFB"/>
  <path d="M81.0859 416.177H364.467V445.446H81.0859V416.177Z" fill="#EDF4F9"/>
  <path d="M86.8879 412.75V447.935C78.3444 446.69 71.7344 439.372 71.7344 430.809V430.03C71.8949 421.313 78.3444 413.994 86.8879 412.75Z" fill="#150077"/>
  <path d="M367.852 444.512C367.37 444.512 367.046 444.512 366.564 444.512H89.95C89.1438 444.512 88.5016 444.512 87.6954 444.353C80.9248 443.264 75.7666 437.504 75.7666 430.81V430.031C75.7666 423.336 80.9248 417.421 87.856 416.332C88.5016 416.177 89.1438 416.177 89.95 416.177H366.564C367.046 416.177 367.37 416.177 367.852 416.177V408.858C367.37 408.858 367.046 408.858 366.564 408.858H89.95C88.6622 408.858 87.3709 409.014 86.4042 409.169C75.7666 410.727 68.0293 419.6 68.0293 430.031V430.81C68.0293 441.241 75.7666 449.958 86.2436 451.516C87.3709 451.672 88.6622 451.827 89.95 451.827H366.564C367.046 451.827 367.37 451.827 367.852 451.827V444.512Z" fill="#FF6FCA"/>
  <path d="M152.49 422.092V441.086L144.432 437.039L137.016 441.71V422.092H152.49Z" fill="#7ADCFB"/>
  <path d="M380.265 343.001V409.014C380.265 409.014 380.265 409.014 380.101 409.169H113.807C100.911 409.169 90.2734 398.893 90.2734 386.438V364.642C90.2734 352.188 100.911 341.912 113.807 341.912H378.973C379.458 342.378 379.78 342.536 380.265 343.001Z" fill="#26A4FB"/>
  <path d="M407.506 341.912H273.714C264.043 341.912 255.984 349.541 255.984 359.037V392.043C255.984 401.385 263.882 409.169 273.714 409.169H407.506C407.831 409.169 408.312 409.169 408.637 409.014V402.319H283.063C274.684 402.319 267.749 395.625 267.749 387.528V363.553C267.749 355.456 274.684 348.762 283.063 348.762H408.637V342.067C408.152 341.912 407.831 341.912 407.506 341.912Z" fill="#7ADCFB"/>
  <path d="M402.184 392.043V359.037C402.184 355.145 403.636 351.719 405.891 348.761H283.221C274.841 348.761 267.91 355.456 267.91 363.553V387.527C267.91 395.625 274.841 402.319 283.221 402.319H405.891C403.476 399.361 402.184 395.935 402.184 392.043Z" fill="#F2EBEC"/>
  <path d="M283.06 348.761H405.73C403.797 351.253 402.509 354.211 402.184 357.324H283.06C274.681 357.324 267.746 364.018 267.746 372.115V363.553C267.746 355.3 274.681 348.761 283.06 348.761Z" fill="#CAD9FC"/>
  <path d="M94.9473 500.714V563.144C95.2683 563.144 95.5929 563.299 96.0745 563.299H386.23C395.255 563.299 402.671 556.14 402.671 547.422V516.75C402.671 508.032 395.255 500.869 386.23 500.869H96.0745C95.5929 500.558 95.2683 500.714 94.9473 500.714Z" fill="#23AFFC"/>
  <path d="M86.08 500.559H244.373C253.401 500.559 260.814 507.722 260.814 516.44V547.109C260.814 555.827 253.401 562.99 244.373 562.99H86.08C85.7554 562.99 85.4343 562.99 84.9492 562.835V556.606H235.508C243.406 556.606 249.855 550.381 249.855 542.752V520.487C249.855 512.859 243.406 506.63 235.508 506.63H84.9492V500.404C85.4343 500.715 85.7554 500.559 86.08 500.559Z" fill="#7ADCFB"/>
  <path d="M91.0787 547.263V516.594C91.0787 513.013 89.7874 509.745 87.6934 507.098H235.669C243.567 507.098 250.017 513.323 250.017 520.955V543.216C250.017 550.845 243.567 557.074 235.669 557.074H87.6934C89.7874 554.116 91.0787 550.845 91.0787 547.263Z" fill="#E7F0F8"/>
  <path d="M381.709 532.786C381.709 533.305 381.685 533.824 381.632 534.344C381.576 534.86 381.5 535.372 381.395 535.885C381.29 536.394 381.158 536.897 381.001 537.396C380.847 537.895 380.665 538.384 380.46 538.863C380.254 539.345 380.023 539.814 379.769 540.272C379.514 540.731 379.238 541.176 378.938 541.608C378.641 542.04 378.32 542.458 377.978 542.859C377.636 543.26 377.273 543.648 376.893 544.016C376.512 544.383 376.115 544.731 375.699 545.061C375.284 545.392 374.851 545.702 374.401 545.989C373.954 546.279 373.494 546.545 373.019 546.791C372.544 547.038 372.059 547.257 371.56 547.456C371.061 547.655 370.555 547.83 370.042 547.982C369.525 548.134 369.005 548.258 368.475 548.36C367.948 548.461 367.414 548.538 366.88 548.589C366.342 548.639 365.805 548.666 365.268 548.666C364.73 548.666 364.193 548.639 363.655 548.589C363.121 548.538 362.587 548.461 362.06 548.36C361.533 548.258 361.01 548.134 360.497 547.982C359.98 547.83 359.474 547.655 358.975 547.456C358.48 547.257 357.991 547.038 357.516 546.791C357.042 546.545 356.581 546.279 356.134 545.989C355.684 545.702 355.255 545.392 354.836 545.061C354.421 544.731 354.023 544.383 353.642 544.016C353.262 543.648 352.899 543.264 352.557 542.859C352.215 542.458 351.897 542.04 351.597 541.608C351.297 541.176 351.021 540.731 350.767 540.272C350.512 539.814 350.285 539.345 350.079 538.863C349.87 538.384 349.692 537.895 349.535 537.396C349.378 536.897 349.248 536.394 349.14 535.885C349.036 535.372 348.959 534.86 348.906 534.344C348.854 533.824 348.826 533.305 348.826 532.786C348.826 532.266 348.854 531.747 348.906 531.228C348.959 530.712 349.036 530.199 349.14 529.686C349.248 529.177 349.378 528.675 349.535 528.175C349.692 527.68 349.873 527.191 350.079 526.708C350.285 526.23 350.512 525.757 350.767 525.299C351.021 524.84 351.297 524.395 351.597 523.963C351.897 523.532 352.215 523.113 352.557 522.712C352.899 522.311 353.262 521.923 353.642 521.555C354.023 521.188 354.421 520.84 354.836 520.51C355.255 520.179 355.684 519.869 356.134 519.583C356.581 519.292 357.042 519.026 357.516 518.78C357.991 518.537 358.48 518.314 358.975 518.115C359.474 517.917 359.98 517.741 360.497 517.589C361.01 517.438 361.533 517.313 362.06 517.212C362.587 517.111 363.121 517.033 363.655 516.982C364.193 516.932 364.73 516.905 365.268 516.905C365.805 516.905 366.342 516.932 366.88 516.982C367.414 517.033 367.948 517.111 368.475 517.212C369.005 517.313 369.525 517.438 370.042 517.589C370.555 517.741 371.061 517.917 371.56 518.115C372.059 518.314 372.544 518.537 373.019 518.78C373.494 519.026 373.954 519.292 374.401 519.583C374.851 519.869 375.284 520.179 375.699 520.51C376.115 520.84 376.512 521.188 376.893 521.555C377.277 521.923 377.636 522.311 377.978 522.712C378.32 523.113 378.641 523.532 378.938 523.963C379.238 524.395 379.514 524.84 379.769 525.299C380.023 525.757 380.254 526.23 380.46 526.708C380.665 527.191 380.847 527.68 381.001 528.175C381.158 528.675 381.29 529.177 381.395 529.686C381.5 530.199 381.576 530.712 381.632 531.228C381.685 531.747 381.709 532.266 381.709 532.786Z" fill="#26A4FB"/>
  <path d="M235.669 506.942H87.6934C89.7874 509.59 91.0787 512.858 91.0787 516.439V516.594H235.669C243.567 516.594 250.017 522.823 250.017 530.452V520.641C249.856 513.168 243.567 506.942 235.669 506.942Z" fill="#CAD9FC"/>
  <path d="M356.246 364.178V394.223L368.978 387.842L380.746 395.157V364.178H356.246Z" fill="#FF6FCA"/>
  <path d="M314.816 55.7572C314.816 64.3199 313.689 72.7274 311.431 80.9797C309.497 87.9843 306.758 94.6786 303.212 101.063C302.406 102.462 301.599 104.02 300.472 105.423C300.148 105.889 299.826 106.199 299.502 106.668C298.535 107.912 297.408 109.001 296.117 109.936C290.477 113.986 282.9 113.986 275.969 113.827C263.88 113.517 251.63 113.207 239.861 110.559C246.307 112.117 265.652 94.3683 269.844 89.8526C273.875 85.3369 277.421 78.7978 281.612 70.5488C283.385 66.9672 285.319 63.0754 287.413 59.0251C288.219 57.3153 289.185 55.6021 289.992 53.8889C291.122 51.5552 292.41 49.063 293.862 46.5707C295.474 43.1477 314.816 52.9548 314.816 55.7572Z" fill="#F9B09B"/>
  <path d="M298.052 69.1469C296.921 64.7897 298.698 48.9089 293.215 48.1299C290.154 54.0451 287.251 59.3399 286.123 64.4761L285.478 63.5419C285.157 64.321 284.832 64.7897 284.832 64.7897C284.832 71.3255 285.799 78.1783 286.605 81.4462C286.769 82.0701 286.93 82.8492 287.09 83.4697C289.509 91.5669 295.794 99.0402 303.856 99.8193C304.823 98.4163 305.629 97.0168 306.596 95.4587C310.142 89.0747 312.881 82.3804 314.815 75.3758C307.562 78.7989 300.471 78.9574 298.052 69.1469Z" fill="#210077"/>
  <path d="M316.588 225.769C316.588 224.835 316.588 224.056 316.588 223.277L316.106 198.368L296.761 198.678L297.728 216.428C297.728 216.583 292.734 221.877 288.703 225.145C288.057 225.614 287.411 226.235 286.93 227.014C287.736 226.548 288.703 226.393 289.669 226.393L316.588 225.769Z" fill="#F9B09B"/>
  <path d="M317.556 225.769H316.589L289.511 226.234C288.544 226.234 287.577 226.548 286.771 226.858C285.319 227.637 284.352 228.881 283.867 230.439H317.396C317.556 229.036 317.556 227.482 317.556 225.769Z" fill="#FF6FCA"/>
  <path d="M259.205 225.769C259.205 224.835 259.205 224.056 259.205 223.277L258.723 198.368L239.378 198.678L240.348 216.428C240.348 216.583 235.351 221.877 231.32 225.145C230.674 225.614 230.028 226.235 229.547 227.014C230.353 226.548 231.32 226.393 232.287 226.393L259.205 225.769Z" fill="#F9B09B"/>
  <path d="M260.173 225.769H259.203L232.124 226.234C231.157 226.234 230.19 226.548 229.384 226.858C227.932 227.637 226.966 228.881 226.48 230.439H260.009C260.173 229.036 260.173 227.482 260.173 225.769Z" fill="#FF6FCA"/>
  <path d="M352.535 93.2789C351.569 92.0311 342.379 80.9797 342.704 80.666C342.058 81.2899 296.28 81.2899 296.28 81.2899C293.376 94.8336 280.966 104.644 266.618 104.644H247.598C240.506 104.799 233.736 107.757 229.059 113.052C224.386 118.188 222.128 125.196 222.934 131.89C224.707 146.833 226.644 161.935 228.738 176.882C230.35 187.937 230.026 191.673 232.444 202.57C232.769 204.128 233.25 205.686 234.542 206.62C235.669 207.399 237.121 207.709 238.409 207.554C247.437 207.085 263.394 212.38 263.073 190.894C262.912 175.637 260.493 173.924 260.172 158.822C260.008 151.349 253.883 130.642 266.458 130.642H282.093C282.093 131.111 282.093 131.421 282.093 131.89C283.705 145.744 285.639 159.601 286.606 173.459C287.251 181.866 282.739 204.752 292.895 208.333C299.826 210.822 315.782 210.357 319.492 203.349C320.94 200.701 320.94 197.589 320.94 194.631C320.94 181.242 321.104 167.854 321.104 154.465C321.104 150.26 318.846 137.495 321.265 134.224C323.683 130.956 332.709 131.266 336.415 130.022C337.221 129.863 338.027 129.553 338.673 129.398C339.319 129.243 339.8 129.243 340.446 129.088L339.479 129.243C348.829 126.285 356.566 120.525 357.854 109.935C358.66 103.555 355.921 98.26 352.535 93.2789Z" fill="#7ADCFB"/>
  <path d="M342.217 38.3219C340.605 40.8108 333.353 45.7919 331.095 47.1948C324.163 51.2418 315.138 52.0208 307.401 49.3734C303.53 47.9739 299.824 45.7919 298.051 42.2137C297.406 40.8108 297.727 38.7873 298.697 37.698C299.985 35.9848 297.566 36.2951 300.47 35.9848C304.497 35.5194 307.883 33.9614 310.462 32.4033C311.268 31.9379 311.913 31.4691 312.395 30.8486C313.847 29.2905 314.653 27.2671 314.653 25.0885V21.9723L319.49 20.883L319.811 20.7279L322.712 20.104V20.2591L323.036 24.1543V24.6197C323.357 27.4222 324.809 29.9144 327.228 31.314C334.319 35.3609 343.023 36.919 342.217 38.3219Z" fill="#F9B09B"/>
  <path d="M319.652 22.2856C319.652 22.9062 319.331 23.6852 319.331 24.3091C318.686 28.0458 315.946 29.7556 312.561 30.5346C314.009 28.9799 314.815 26.9565 314.815 24.7745V23.5301L319.652 22.2856Z" fill="#150077"/>
  <path d="M306.757 13.8786C307.078 13.0996 307.403 12.4757 307.884 11.6967C307.884 11.5415 308.045 11.5415 308.045 11.3864C309.175 9.6732 310.788 8.27363 312.397 7.18433C313.042 7.4946 314.009 7.4946 314.976 7.18433C321.104 5.62627 322.071 11.5415 323.038 16.8363C323.198 16.9914 323.519 17.1465 323.519 17.1465C323.198 17.7704 323.683 19.6388 323.683 21.0383C323.519 21.352 323.359 21.6622 323.359 21.8174C323.198 22.1276 323.198 22.2861 323.038 22.5964C321.425 24.3096 319.492 25.7092 317.394 26.4882C314.494 27.4224 310.142 27.2672 308.045 24.6199C305.79 21.5071 305.305 17.3017 306.757 13.8786Z" fill="#F9B09B"/>
  <path d="M320.457 19.1699C320.778 20.7279 322.069 21.8172 323.682 21.8172L322.391 18.0806L320.457 19.1699Z" fill="#150077"/>
  <path d="M307.725 11.6961C308.37 11.6961 308.852 11.6961 309.498 11.3858C310.789 10.9204 311.756 9.82776 312.562 8.8936C313.204 10.4517 314.977 11.541 316.753 11.3858C317.074 11.3858 317.556 11.2307 317.881 11.3858C319.008 11.541 319.493 12.9439 319.653 14.0332C319.975 15.9015 321.911 17.6147 323.52 18.704C324.005 19.0143 324.491 19.3246 324.972 19.3246C326.906 15.7464 327.391 11.3858 324.491 8.27307C322.393 5.78083 318.847 5.0018 315.622 5.6257C312.562 6.40473 309.658 8.58333 307.725 11.2307C307.885 11.541 307.885 11.541 307.725 11.6961Z" fill="#150077"/>
  <path d="M325.758 17.7296C325.762 17.9555 325.741 18.1781 325.699 18.4007C325.653 18.6199 325.591 18.8357 325.503 19.0448C325.416 19.2539 325.308 19.4495 325.182 19.6384C325.053 19.8272 324.91 20.0026 324.746 20.1645C324.585 20.323 324.407 20.468 324.215 20.5961C324.024 20.7209 323.818 20.8288 323.605 20.9165C323.392 21.0076 323.168 21.075 322.942 21.1189C322.715 21.1661 322.484 21.1897 322.251 21.1931C322.017 21.1964 321.786 21.1762 321.56 21.1357C321.329 21.0919 321.106 21.0312 320.89 20.9469C320.677 20.8626 320.471 20.758 320.275 20.6366C320.08 20.5152 319.898 20.3735 319.731 20.215C319.567 20.0599 319.417 19.8879 319.284 19.7024C319.155 19.5169 319.043 19.3213 318.953 19.1123C318.858 18.9065 318.789 18.6941 318.743 18.4715C318.694 18.2523 318.67 18.0297 318.666 17.8071C318.663 17.5812 318.684 17.3586 318.726 17.136C318.771 16.9168 318.834 16.701 318.921 16.4919C319.008 16.2828 319.117 16.0838 319.242 15.8949C319.368 15.7095 319.514 15.5341 319.678 15.3722C319.839 15.2137 320.017 15.0687 320.209 14.9405C320.401 14.8158 320.607 14.7078 320.82 14.6168C321.033 14.5291 321.256 14.4617 321.483 14.4178C321.71 14.3706 321.94 14.347 322.174 14.3436C322.408 14.3403 322.638 14.3605 322.865 14.401C323.095 14.4448 323.319 14.5055 323.531 14.5898C323.748 14.6741 323.954 14.7753 324.149 14.9001C324.345 15.0215 324.526 15.1631 324.694 15.3183C324.858 15.4768 325.008 15.6488 325.14 15.8342C325.269 16.0197 325.381 16.2153 325.472 16.421C325.566 16.6301 325.636 16.8426 325.681 17.0618C325.73 17.2844 325.755 17.507 325.758 17.7296Z" fill="#F9B09B"/>
  <path d="M316.427 120.211C316.266 120.211 316.266 120.366 316.105 120.366C316.266 120.211 316.427 120.211 316.427 120.211C316.427 120.056 316.427 120.056 316.427 120.211Z" fill="#F9B09B"/>
  <path d="M338.514 35.8298C338.674 35.9849 338.835 35.9849 339.159 36.14C346.09 40.3455 353.988 49.0632 356.567 51.8657C357.053 52.3311 356.888 53.1101 356.407 53.4238L341.738 62.1415L343.993 88.2948C343.993 88.2948 321.587 93.5896 291.283 86.8953L291.123 60.5835L280.967 53.4238C280.482 53.1101 280.482 52.3311 280.806 51.8657L293.377 38.4771C296.281 35.5195 300.633 34.5853 304.34 36.6088C320.62 45.1714 339.32 25.8642 353.182 41.5899C356.567 45.4817 359.468 50.1525 360.434 55.2921C361.565 61.5176 359.468 68.3671 354.955 72.7276C350.442 77.0882 343.672 78.9565 337.707 77.2433L338.514 35.8298Z" fill="#FF6FCA"/>
  <path d="M363.498 29.6007C361.404 25.0884 356.888 22.1274 352.054 20.4175C349.311 19.4834 346.25 18.8595 343.671 17.1463C341.092 15.4331 339.479 12.7891 337.867 10.2968C336.415 7.64948 334.967 5.00211 332.709 2.97864C327.39 -2.00245 318.04 0.644916 319.974 8.58364C321.105 12.6306 323.52 14.1886 326.745 16.836C331.257 20.5727 331.582 25.0884 333.355 30.2246C335.613 37.074 341.573 42.679 348.669 44.7025C352.696 45.7918 357.533 45.7918 360.758 43.1478C364.949 40.0317 365.592 34.1164 363.498 29.6007Z" fill="#150077"/>
  <path d="M288.865 89.2293C291.283 97.4817 298.054 104.955 306.437 104.645C308.852 104.49 311.11 103.866 313.368 103.087C320.62 100.753 327.876 98.571 334.322 94.6792C341.253 90.4771 347.057 84.717 352.697 78.9569C356.889 74.7514 361.241 70.2357 362.692 64.4756C364.144 58.7155 361.405 51.5558 355.601 50.308C350.603 49.2187 345.93 52.9554 342.381 56.5369C337.222 61.9868 332.549 67.902 327.07 73.1934C319.814 80.0462 303.373 91.4113 299.342 75.8407C298.054 71.0148 300.794 50.7768 290.798 57.6262C284.673 61.8283 287.253 81.4457 288.544 87.361C288.544 87.9849 288.704 88.6088 288.865 89.2293Z" fill="#F9B09B"/>
  <path d="M279.514 26.4875C279.514 26.4875 287.897 24.7743 292.088 34.895C292.088 34.895 298.698 27.732 308.369 34.4263L307.402 52.0203L283.06 49.3729L279.514 26.4875Z" fill="#E7F0F8"/>
  <path d="M290.957 34.8955L280.965 27.267C279.999 26.488 278.547 27.267 278.547 28.3563V51.7105C278.547 52.1759 278.707 52.4895 279.032 52.7998L287.897 60.8936C288.057 61.0521 288.218 61.0521 288.218 61.2072L289.83 61.9863C289.991 62.1414 290.315 62.1414 290.476 62.1414L307.078 61.9863C307.884 61.9863 308.529 61.3624 308.529 60.5833V36.295C308.529 35.5194 307.884 34.8955 306.917 34.8955L291.603 35.2057C291.603 35.2057 291.282 35.0506 290.957 34.8955Z" fill="#2300B1"/>
  <path d="M291.602 69.7698L289.347 67.5912C287.574 65.878 286.929 63.3858 287.735 61.052L288.862 58.4047L284.671 50.4626C284.35 49.842 284.51 49.2181 284.995 48.7527L285.477 48.284L290.475 55.2919C290.475 55.447 290.635 55.447 290.796 55.447H290.956C291.12 55.2919 291.12 55.1334 291.12 54.9783L286.123 47.8186L287.25 46.7259L292.408 54.0441C292.408 54.1992 292.569 54.1992 292.733 54.1992H292.893C293.054 54.0441 293.054 53.889 293.054 53.7338L287.896 46.2605L289.023 45.1712L294.506 52.7997C294.506 52.9548 294.666 52.9548 294.827 52.9548H294.987C295.148 52.7997 295.148 52.6445 295.148 52.4894L289.668 44.7024L289.829 44.5473C290.475 43.9234 291.602 44.0819 292.087 44.7024L297.891 52.1758L298.533 58.2495L294.506 70.5488C292.087 74.5958 295.954 67.5912 291.602 69.7698Z" fill="#F9B09B"/>
  <path d="M412.179 254.414C411.854 256.751 412.179 259.085 413.306 261.108C408.633 260.488 399.122 266.248 401.702 271.853C402.508 273.721 404.602 274.5 406.696 274.966C411.212 276.055 415.885 276.21 420.561 276.21C434.584 276.368 448.607 276.679 462.633 276.834C466.5 276.834 470.692 276.834 473.917 274.81C477.623 272.318 479.075 267.027 476.977 263.135C476.656 262.666 476.335 262.042 476.011 261.732C473.592 259.085 469.24 259.553 465.534 260.019C452.959 261.732 457.636 252.546 449.092 248.967C445.546 247.564 441.194 248.499 438.776 251.301C435.066 245.541 427.168 242.27 420.397 244.452C416.045 246.006 412.824 250.057 412.179 254.414Z" fill="#E8F1F9"/>
  <path d="M51.5871 159.446C51.423 160.38 51.5871 161.47 51.423 162.404C50.9414 164.117 49.1685 165.362 47.8772 166.451C46.4288 167.699 45.1375 169.564 45.9437 171.277C46.4288 172.525 47.8772 173.145 49.329 173.459C52.3898 174.234 55.454 174.234 58.5182 174.234C67.8644 174.393 77.3782 174.548 86.7244 174.703C89.3035 174.703 92.0467 174.703 94.3012 173.3C96.8803 171.59 97.6865 168.164 96.3987 165.517C96.2382 165.206 95.9136 164.896 95.753 164.582C94.1407 162.869 91.2405 163.183 88.8219 163.493C86.4033 163.803 83.3426 163.803 82.0513 161.78C80.7635 159.757 82.0513 156.954 81.0846 154.775C79.9573 152.438 76.8931 151.973 74.1534 151.818C68.6706 151.194 52.7143 152.907 51.5871 159.446Z" fill="#E8F1F9"/>
  <path d="M167.647 542.592H164.422V584.94H168.934L204.881 585.095V568.284H182.315L175.223 547.887C174.253 545.085 171.838 543.216 168.934 542.751C168.453 542.592 168.128 542.592 167.647 542.592Z" fill="#2E7DFB"/>
  <path d="M204.879 568.284H184.57V585.096H204.879V568.284Z" fill="#F9B09B"/>
  <path d="M167.647 542.592H164.422V584.94H168.934V542.592C168.453 542.592 168.128 542.592 167.647 542.592Z" fill="#150077"/>
  <path d="M322.878 450.272L323.685 442.33L331.258 432.523C331.903 431.589 333.355 431.433 334.322 432.213L334.643 432.523L327.391 442.799C327.23 442.954 327.391 443.264 327.551 443.419H327.712C327.876 443.419 328.037 443.419 328.037 443.264L335.128 433.147L336.58 434.546L329.649 444.353C329.485 444.512 329.649 444.822 329.809 444.977H329.97C330.131 444.977 330.291 444.977 330.291 444.822L337.062 435.015L338.514 436.415L331.903 445.756C331.743 445.911 331.903 446.222 332.064 446.38H332.228C332.389 446.38 332.549 446.38 332.549 446.222L339.159 436.883L339.801 437.504C340.447 438.128 340.608 439.062 340.286 439.841L334.807 450.272L336.255 453.695C337.547 456.653 336.741 460.079 334.161 462.258L313.529 483.12L349.636 468.176C349.797 472.689 350.282 477.049 351.088 481.41C351.73 485.922 355.761 490.283 356.888 496.353L306.758 507.563L286.286 493.395C279.84 488.883 279.84 479.696 286.286 475.181L322.878 450.272Z" fill="#F9B09B"/>
  <path d="M366.881 530.917L380.904 538.39L366.075 550.534H322.551L366.881 530.917Z" fill="#2E7DFB"/>
  <path d="M478.751 507.563L520.341 575.758H521.793C528.078 575.913 534.203 577.626 539.683 580.428L540.974 581.049C542.747 581.983 543.874 583.696 543.874 585.565V586.189H509.379C505.672 586.189 502.127 584.475 500.029 581.359L454.732 520.955C460.376 515.037 472.626 511.769 478.751 507.563Z" fill="#F9B09B"/>
  <path d="M348.509 487.325C349.476 491.996 351.249 497.287 355.115 500.404L356.728 499.935L369.142 496.977L366.884 530.917L432.328 564.392L432.813 564.703L433.459 565.013C442.805 546.953 445.384 521.576 446.191 510.99C447.482 512.858 448.77 514.571 450.061 516.44C451.349 518.153 452.801 519.707 454.252 521.421C454.413 521.576 454.573 521.731 454.734 521.889C455.219 522.51 455.701 522.979 456.346 523.289C456.671 523.444 456.992 523.599 457.477 523.599C458.28 523.758 459.25 523.599 460.056 523.289L459.732 522.979C465.696 521.889 473.112 514.258 476.819 511.769C477.946 510.99 479.077 510.055 479.558 508.811C479.719 508.497 479.719 508.342 479.719 508.032C479.883 506.629 479.077 505.385 478.271 504.14C471.339 494.33 466.663 482.654 458.119 474.247C449.415 465.684 441.357 458.68 428.943 455.253L420.563 452.916C407.504 449.338 393.481 450.117 381.071 455.253L349.636 468.177L348.024 468.797C348.024 468.797 348.024 468.797 348.024 468.952C347.057 474.871 347.378 481.41 348.509 487.325Z" fill="#FFB1DF"/>
  <path d="M322.551 550.535C313.201 531.387 302.884 518.308 297.245 518.308C291.28 518.308 283.058 531.852 276.127 550.535H234.055L260.977 496.199C272.099 473.624 302.884 468.332 321.423 485.923L366.72 531.073L361.562 550.067L322.551 550.535Z" fill="#2300B1"/>
  <path d="M197.144 587.277H412.826C421.366 584.94 427.815 576.378 432.489 567.505C432.813 566.881 433.134 566.26 433.459 565.636L432.813 565.323L432.328 565.013L380.906 538.235L366.077 550.066H244.534C235.991 550.066 212.943 547.263 202.141 550.38C200.69 550.845 199.402 551.314 198.435 552.089C196.498 553.492 196.177 556.295 196.177 558.629C195.856 567.66 196.177 578.401 197.144 587.277Z" fill="#2E7DFB"/>
  <path d="M518.41 581.203C523.568 581.672 528.563 583.54 532.754 586.343H533.885C529.369 583.226 523.889 581.203 518.41 580.583V581.203Z" fill="#FFA400"/>
  <path d="M432.813 564.703C436.198 545.395 438.938 526.091 440.711 506.788C442.323 509.276 444.096 511.769 445.869 514.102C444.902 525.936 442.002 548.512 433.458 565.013C433.134 565.637 432.813 566.261 432.488 566.881C432.652 566.102 432.652 565.327 432.813 564.703Z" fill="#2300B1"/>
  <path d="M420.561 432.678C420.722 430.965 420.882 429.411 420.561 427.697C420.237 426.139 419.431 424.426 417.982 423.492C416.691 422.558 415.079 422.403 413.627 421.937C410.887 421.158 408.469 419.914 405.729 418.98C402.989 418.045 400.089 417.732 397.51 418.821C395.091 419.914 393.318 422.247 392.994 424.74C392.512 427.229 393.318 429.876 394.931 431.899C395.898 433.302 397.346 434.547 398.316 435.95C399.122 437.194 399.764 438.594 400.41 439.842C401.862 442.486 404.281 444.823 407.341 445.912C410.081 447.001 415.403 447.001 417.818 444.978C421.043 442.644 420.237 436.26 420.561 432.678Z" fill="#150077"/>
  <path d="M400.252 441.396V455.877C400.252 459.924 403.798 463.192 407.989 463.192C412.181 463.192 415.727 459.924 415.727 455.877V441.396C415.727 438.283 413.629 435.636 410.729 434.546C409.923 434.236 408.956 434.081 407.989 434.081C405.892 434.081 403.958 434.857 402.507 436.26C401.058 437.504 400.252 439.372 400.252 441.396Z" fill="#F9B09B"/>
  <path d="M400.252 444.978V450.117C404.925 448.559 408.635 444.823 410.247 440.307C410.408 439.683 410.729 438.907 410.729 438.128C409.923 437.818 408.956 437.66 407.989 437.66C405.892 437.66 403.958 438.439 402.51 439.842C401.058 441.086 400.252 442.954 400.252 444.978Z" fill="#150077"/>
  <path d="M394.127 432.523V438.128C394.127 443.419 398.8 447.78 404.443 447.78C410.083 447.78 414.76 443.419 414.76 438.128V432.523C414.76 427.228 410.083 422.871 404.443 422.871C401.54 422.871 398.961 423.96 397.027 425.829C395.9 427.073 394.933 428.476 394.448 430.031C394.127 430.81 394.127 431.589 394.127 432.523Z" fill="#F9B09B"/>
  <path d="M411.696 442.485C413.793 443.578 416.533 442.954 417.66 440.931C418.952 438.907 418.145 436.415 416.048 435.326C413.954 434.236 411.214 434.857 410.084 436.884C408.956 438.752 409.602 441.396 411.696 442.485Z" fill="#150077"/>
  <path d="M393.965 429.876C394.446 428.163 395.413 426.763 396.704 425.36C398.638 423.337 401.538 422.248 404.442 422.248C410.406 422.248 415.24 426.763 415.24 432.368V437.973H414.758C411.048 437.66 407.827 435.326 406.375 432.055L405.569 430.186L401.538 430.81C399.284 431.12 396.865 431.12 394.768 430.5L393.965 430.345V429.876Z" fill="#150077"/>
  <path d="M410.726 442.175C412.824 443.264 415.563 442.644 416.691 440.617C417.982 438.593 417.176 436.105 415.078 435.015C412.984 433.923 410.245 434.546 409.114 436.57C407.826 438.438 408.632 440.93 410.726 442.175Z" fill="#F9B09B"/>
  <path d="M337.867 586.499H550V587.588H337.867V586.499Z" fill="#26A4FB"/>
  <path d="M323.521 418.356C323.521 418.356 335.614 415.864 341.415 430.345C341.415 430.345 350.764 420.069 364.466 429.721L363.014 454.785L328.359 450.893L323.521 418.356Z" fill="#E7F0F8"/>
  <path d="M339.639 430.185L325.456 419.289C324.004 418.2 321.91 419.134 321.91 420.847V454.319C321.91 454.942 322.231 455.408 322.552 455.877L335.287 467.397C335.448 467.552 335.612 467.707 335.933 467.707L338.191 468.796C338.512 468.952 338.833 468.952 339.158 468.952L363.012 468.796C364.143 468.796 365.109 467.862 365.109 466.773V432.367C365.109 431.12 364.143 430.185 362.851 430.344L341.091 430.809C340.606 430.654 340.124 430.344 339.639 430.185Z" fill="#2300B1"/>
  <path d="M329.968 466.308L333.032 463.192C335.611 460.858 336.414 457.276 335.126 454.164L333.675 450.427L339.478 439.372C339.964 438.593 339.799 437.504 338.993 436.883L338.351 436.259L331.42 446.066C331.256 446.222 331.256 446.222 331.095 446.222C330.935 446.222 330.935 446.222 330.774 446.222C330.614 446.066 330.453 445.756 330.614 445.601L337.545 435.791L335.933 434.391L328.677 444.667C328.516 444.822 328.516 444.822 328.356 444.822C328.195 444.822 328.195 444.822 328.035 444.822C327.874 444.667 327.71 444.353 327.874 444.198L335.126 433.922L333.514 432.523L326.098 443.264C325.937 443.419 325.937 443.419 325.777 443.419C325.616 443.419 325.616 443.419 325.456 443.419C325.295 443.264 325.131 442.954 325.295 442.799L332.868 432.054L332.547 431.744C331.581 430.965 330.129 430.965 329.483 432.054L321.425 442.33L320.618 450.582L315.945 453.695C319.331 459.145 324.164 463.35 329.968 466.308Z" fill="#F9B09B"/>
  <path d="M130.573 54.8229C130.248 56.5361 130.573 58.4044 131.54 59.9591C127.509 59.4937 119.286 63.8543 121.384 68.2114C122.19 69.6144 123.963 70.2349 125.736 70.7037C129.603 71.6378 133.794 71.6378 137.825 71.6378C150.075 71.793 162.328 71.9481 174.578 72.1032C177.964 72.1032 181.509 72.1032 184.41 70.5485C187.634 68.6802 188.926 64.4748 187.153 61.5172C186.989 61.0518 186.668 60.7381 186.347 60.4279C184.249 58.4044 180.382 58.7147 177.157 59.1834C166.195 60.583 170.226 53.4233 162.971 50.6208C159.91 49.5281 156.039 50.3072 153.945 52.4891C150.721 47.9734 143.79 45.4812 137.986 47.1944C133.958 48.1286 131.215 51.3965 130.573 54.8229Z" fill="#E8F1F9"/>
</svg>
