<svg width="136" height="136" viewBox="0 0 136 136" fill="none" xmlns="http://www.w3.org/2000/svg">
<g filter="url(#filter0_d)">
<circle cx="68" cy="66" r="51" fill="white"/>
</g>
<path d="M76.4293 58.9058C75.7874 53.6793 73.2201 46.8941 67.7185 38C67.7185 38 60.8417 47.6276 59.0078 58.1722C63.409 62.2067 66.8933 67.7082 66.985 75.3186C66.985 75.3186 66.3432 73.5765 62.4921 71.926C63.9592 72.6595 65.8847 73.7598 66.985 75.4103C66.985 75.4103 70.0108 74.7685 72.6699 72.2928C70.8361 73.3014 69.9192 74.31 69.9192 74.31C69.4607 67.7999 72.3948 62.7568 76.4293 58.9058Z" fill="#313062"/>
<path d="M90.3694 69.2677C90.3694 69.2677 90.3694 69.176 90.4611 69.176C90.4611 69.176 93.9454 64.4997 97.9798 48.4536C97.9798 48.4536 84.8679 51.1127 76.5239 58.9065C77.4409 65.7834 75.2403 69.9095 72.6729 72.2935C74.8735 71.1015 78.3578 69.7261 83.1258 69.9095C83.1258 69.9095 74.7818 73.3021 71.8477 79.9956C76.6156 71.6517 83.5842 69.176 90.3694 69.2677Z" fill="#313062"/>
<path d="M76.4296 58.9062C72.3952 62.7573 69.4611 67.7087 69.8278 74.3105C69.8278 74.3105 70.7447 73.3936 72.5786 72.2933C75.146 69.9093 77.3466 65.8748 76.4296 58.9062Z" fill="#313062"/>
<path d="M59.0106 58.1718C50.8501 50.8365 39.2969 48.7275 39.2969 48.7275C40.0304 58.5386 45.6236 69.2665 45.6236 69.2665C45.6236 69.2665 45.6236 69.2665 45.6236 69.3582C47.9159 69.2665 50.2999 69.3582 52.5005 70.0001C52.2254 69.9084 51.9504 69.8167 51.767 69.725C56.81 70.1834 60.2026 71.1921 62.4949 72.109C61.3029 71.5588 60.386 71.2837 60.386 71.2837C58.4605 67.0659 58.2771 62.573 59.0106 58.1718Z" fill="#313062"/>
<path d="M66.9875 75.318C66.8958 67.7076 63.5032 62.1144 59.0103 58.1716C58.2768 62.5728 58.3685 67.0657 60.294 71.1002C60.294 71.1002 61.2109 71.3753 62.4029 71.9254C66.254 73.5759 66.9875 75.318 66.9875 75.318Z" fill="#313062"/>
<path d="M90.2757 68.9915C83.1237 81.6449 71.7539 79.7194 71.7539 79.7194C71.7539 79.7194 79.3643 99.3415 110.998 75.8683C110.906 75.7767 100.912 69.1748 90.2757 68.9915Z" fill="#313062"/>
<path d="M90.2757 68.9919C83.5822 68.9002 76.6136 71.3759 71.7539 79.7199C71.7539 79.7199 83.1237 81.6454 90.2757 68.9919Z" fill="#313062"/>
<path d="M46.0805 69.0828C35.811 69.6329 26 75.5929 26 75.5929C54.4245 99.7079 64.9691 79.9024 64.9691 79.9024C64.694 79.3523 64.4189 78.8938 64.1438 78.4353C64.3272 78.8021 64.3272 78.9855 64.3272 78.9855C54.2411 81.9196 46.6307 69.908 46.0805 69.0828Z" fill="#313062"/>
<path d="M45.5312 69.1751C46.0814 70.0004 53.9669 81.9203 64.4198 78.9862C64.4198 78.9862 64.3281 78.8028 64.2364 78.436C63.5946 77.3357 62.861 76.2354 62.0358 75.4102C60.2936 73.668 58.3681 71.7425 53.5084 69.9087C51.2161 69.3585 47.9152 68.9918 45.5312 69.1751Z" fill="#313062"/>
<path d="M67.8147 72.2932C69.5871 72.2932 71.0239 70.8564 71.0239 69.084C71.0239 67.3116 69.5871 65.8748 67.8147 65.8748C66.0423 65.8748 64.6055 67.3116 64.6055 69.084C64.6055 70.8564 66.0423 72.2932 67.8147 72.2932Z" fill="#E9EEFF"/>
<defs>
<filter id="filter0_d" x="0" y="0" width="136" height="136" filterUnits="userSpaceOnUse" color-interpolation-filters="sRGB">
<feFlood flood-opacity="0" result="BackgroundImageFix"/>
<feColorMatrix in="SourceAlpha" type="matrix" values="0 0 0 0 0 0 0 0 0 0 0 0 0 0 0 0 0 0 127 0"/>
<feMorphology radius="2" operator="dilate" in="SourceAlpha" result="effect1_dropShadow"/>
<feOffset dy="2"/>
<feGaussianBlur stdDeviation="7.5"/>
<feColorMatrix type="matrix" values="0 0 0 0 0.0823975 0 0 0 0 0 0 0 0 0 0.46669 0 0 0 0.3 0"/>
<feBlend mode="normal" in2="BackgroundImageFix" result="effect1_dropShadow"/>
<feBlend mode="normal" in="SourceGraphic" in2="effect1_dropShadow" result="shape"/>
</filter>
</defs>
</svg>
