<svg width="513" height="419" viewBox="0 0 513 419" fill="none"
  xmlns="http://www.w3.org/2000/svg">
  <g filter="url(#filter0_d)">
    <path d="M502.555 308.344C454.022 410.043 327.852 409.805 224.963 385.273C89.0838 352.876 9 344.386 9 308.344C9 272.303 58.9614 243.086 224.963 243.086C390.964 243.086 519.136 273.601 502.555 308.344Z" fill="#1EB3FB"/>
  </g>
  <path fill-rule="evenodd" clip-rule="evenodd" d="M236.616 88.2273C231.942 92.5619 227.265 96.9385 222.589 101.275C218.392 98.982 214.195 96.7306 210 94.4793C212.036 89.7687 214.076 85.1002 216.114 80.4316C222.947 83.017 229.783 85.6443 236.616 88.2273Z" fill="#E38698"/>
  <path fill-rule="evenodd" clip-rule="evenodd" d="M149.382 293.34L106.936 306.804L191.988 306.138L149.382 293.34Z" fill="#2E1F3F"/>
  <path fill-rule="evenodd" clip-rule="evenodd" d="M107.506 302.735C104.464 302.735 102.007 305.35 102.033 308.526C102.06 311.67 104.542 314.234 107.587 314.206C110.629 314.206 113.086 311.614 113.059 308.442C113.032 305.266 110.548 302.707 107.506 302.735Z" fill="#2E1F3F"/>
  <path fill-rule="evenodd" clip-rule="evenodd" d="M192.104 302.735C189.059 302.735 186.602 305.35 186.629 308.526C186.656 311.67 189.14 314.234 192.182 314.206C195.227 314.206 197.682 311.614 197.655 308.442C197.628 305.266 195.146 302.707 192.104 302.735Z" fill="#2E1F3F"/>
  <path fill-rule="evenodd" clip-rule="evenodd" d="M154.843 218.344L143.252 218.44L143.732 295.367L155.323 295.271L154.843 218.344Z" fill="#2E1F3F"/>
  <path fill-rule="evenodd" clip-rule="evenodd" d="M149.054 208.366C136.943 208.448 126.112 209.616 118.837 211.367L108.926 211.449L108.966 216.617C109.004 223.54 144.898 224.289 149.175 224.247C171.198 224.081 188.824 220.37 188.784 215.994L188.703 210.825L179.311 210.907C171.996 209.284 161.165 208.282 149.054 208.366Z" fill="#2E1F3F"/>
  <path fill-rule="evenodd" clip-rule="evenodd" d="M148.792 205.463C126.769 205.629 108.903 208.298 108.943 211.465C108.982 214.592 126.85 217.012 148.832 216.844C170.855 216.678 188.721 213.967 188.681 210.842C188.641 207.715 170.774 205.297 148.792 205.463Z" fill="#4B3361"/>
  <path d="M213.873 135.832H412.661C415.976 135.832 418.696 138.667 418.696 142.126C418.696 145.629 415.976 148.422 412.661 148.422H213.873C210.515 148.422 207.838 145.629 207.838 142.126C207.838 138.667 210.515 135.832 213.873 135.832Z" fill="#E2D6D9"/>
  <path fill-rule="evenodd" clip-rule="evenodd" d="M243.677 283.989C246.432 283.491 247.253 279.215 250.022 278.921C242.648 265.142 237.299 238.067 233.487 224.979C230.008 213.141 228.01 206.555 225.25 198.841C216.419 174.123 178.488 172.29 152.188 171.206V213.433C152.826 213.391 153.506 213.349 154.147 213.307C159.581 212.849 190.359 208.804 193.076 211.016C201.791 210.14 208.185 241.57 210.263 246.531C214.982 257.701 227.042 273.264 232.909 282.921C239.077 286.277 240.271 284.603 243.677 283.989Z" fill="#F08B78"/>
  <path d="M410.147 148.416L415.703 314.7H412.945L399.875 148.416H410.147Z" fill="#E2D6D9"/>
  <path d="M219.086 158.129H405.444V148.416H219.086V158.129Z" fill="#E2D6D9"/>
  <path fill-rule="evenodd" clip-rule="evenodd" d="M255.249 281.081C256.962 280.976 257.399 276.23 259.115 276.153C253.684 257.068 250.328 237.831 246.595 225.021C243.078 213.183 241.121 206.597 238.363 198.883C227.25 167.787 170.134 172.913 148.03 170.204C136.959 168.828 133.803 158.115 126.128 158.991C118.454 159.907 114.177 161.619 111.979 166.535C109.82 171.498 109.74 179.709 110.02 185.669C110.3 191.589 110.98 195.298 112.379 198.425C113.778 201.51 115.977 204.011 119.694 206.555C123.371 209.096 128.646 211.681 133.442 212.849C138.28 214.016 142.676 213.806 147.992 213.767C153.308 213.767 159.583 213.932 167.257 213.349C172.692 212.891 203.429 208.846 206.186 211.057C214.901 210.182 221.255 241.612 223.373 246.572C227.7 256.89 236.901 271.489 242.934 281.081C247.241 282.963 250.449 281.375 255.249 281.081Z" fill="#F9B09B"/>
  <path d="M336.88 77.9032L316.256 135.848H259.459V131.43H311.898L332.163 76.0722C332.524 75.0283 333.481 74.3604 334.521 74.3604C336.279 74.3604 337.478 76.196 336.88 77.9032Z" fill="#4B3361"/>
  <path fill-rule="evenodd" clip-rule="evenodd" d="M200.766 77.6895C160.955 89.32 105.438 113.791 104.518 164.356C104.198 176.444 105.839 187.698 112.233 198.413C119.546 210.625 134.337 215.502 152.882 215.004C161.635 215.378 170.428 215.712 179.183 216.044C180.86 198.621 185.882 180.524 189.774 172.899C175.387 168.249 166.137 167.912 156.424 164.414C149.27 162.786 166.031 142.636 182.7 139.385C193.211 139.969 202.923 139.677 207.801 133.717C215.395 125.085 222.988 116.416 230.582 107.786C220.63 97.7416 210.678 87.6945 200.766 77.6895Z" fill="#CB3455"/>
  <path fill-rule="evenodd" clip-rule="evenodd" d="M236.616 88.2273C231.942 92.5619 227.265 96.9385 222.589 101.275C218.392 98.982 214.195 96.7306 210 94.4793C212.036 89.7687 214.076 85.1002 216.114 80.4316C222.947 83.017 229.783 85.6443 236.616 88.2273Z" fill="#F08B78"/>
  <path d="M232.355 58.2143C224.282 73.2639 223.883 92.146 232.996 97.4825C242.108 102.819 257.337 92.5641 265.41 77.5144C273.524 62.4251 271.405 48.2512 262.254 42.9147C253.14 37.5805 240.469 43.1226 232.355 58.2143Z" fill="#F9B09B"/>
  <path d="M240.012 98.736C247.246 97.8602 255.681 91.6479 261.875 82.8946C260.597 73.5575 259.878 64.4703 260.837 56.2565C258.16 54.8389 255.521 53.3815 252.883 51.9639L249.526 41.751C245.289 43.1266 241.011 46.0856 237.254 50.6304L238.613 59.7597C239.173 63.2605 240.213 66.7613 240.332 70.3066C240.653 79.7698 240.171 89.2307 240.012 98.736Z" fill="#F08B78"/>
  <path fill-rule="evenodd" clip-rule="evenodd" d="M251.746 53.2517C268.249 84.2292 291.276 63.0092 273.769 45.8319C266.054 34.4092 244.872 21.639 235.479 34.1033C223.09 36.6886 226.484 44.4564 217.491 53.9617C214.133 57.5466 210.373 57.8759 205.777 59.2935C193.666 62.9625 192.646 72.9769 196.787 79.4718C211.342 102.299 224.953 104.861 234.867 80.4761C236.824 75.5553 235.638 65.2162 238.835 61.0498C241.953 57.0048 247.428 55.8791 251.746 53.2517Z" fill="#4B3361"/>
  <path fill-rule="evenodd" clip-rule="evenodd" d="M197.918 118.778C214.906 124.493 231.254 133.078 248.881 135.831C258.153 137.331 261.631 130.245 261.552 124.659C263.429 101.563 257.234 72.2581 258.512 58.7522C260.911 51.3325 265.989 37.4506 262.949 33.9077C256.835 26.8616 248.482 26.9037 246.323 36.2828C245.962 38.8261 245.204 46.2459 242.883 44.3285C242.204 43.7446 239.608 36.7826 238.209 35.1571C237.29 34.1155 235.931 35.6593 236.61 39.6179C237.05 42.0374 240.325 51.3325 240.727 54.3312C241.085 56.9586 243.204 62.0031 243.484 64.836C245.163 81.9689 244.323 91.1005 243.204 106.44C243.045 108.523 242.525 107.86 241.805 107.442C226.618 98.6043 209.35 82.3869 196.28 85.722C176.375 90.8109 185.648 115.527 197.918 118.778Z" fill="#F9B09B"/>
  <path fill-rule="evenodd" clip-rule="evenodd" d="M393.044 79.1931C393.044 79.1931 399.541 49.981 412.235 38.2383C405.419 50.8125 396.853 91.3119 396.853 91.3119L395.023 116.724L390.006 117.462L393.044 79.1931Z" fill="#537C49"/>
  <path fill-rule="evenodd" clip-rule="evenodd" d="M385.271 91.5835C385.271 91.5835 385.026 70.3729 377.002 47.2262C368.983 24.0795 355.85 9.58105 355.85 9.58105C355.85 9.58105 376.283 22.4634 384.215 45.4513C392.147 68.4391 390.1 104.123 390.1 104.123V115.732H385.587L385.271 91.5835Z" fill="#537C49"/>
  <path d="M393.044 115.747C393.044 115.747 390.593 74.4055 415.739 51.2287C440.883 28.0542 454.449 35.287 454.449 35.287C454.449 35.287 443.356 36.9499 428.491 49.8204C413.623 62.691 401.357 90.5644 396.851 115.747C395.754 115.747 393.044 115.747 393.044 115.747Z" fill="#65935A"/>
  <path fill-rule="evenodd" clip-rule="evenodd" d="M387.157 115.65V135.773H374.611L367.867 115.65H387.157Z" fill="#C8EDF3"/>
  <path fill-rule="evenodd" clip-rule="evenodd" d="M387.117 115.65V135.77H399.663L406.407 115.65H387.117Z" fill="#C8EDF3"/>
  <path d="M379.237 115.693C379.237 115.693 365.559 77.3475 341.766 79.1738C360.636 72.4525 377.396 85.414 381.871 115.693C381.423 115.693 379.237 115.693 379.237 115.693Z" fill="#65935A"/>
  <path d="M384.111 115.749C384.111 115.749 382.735 92.472 373.697 68.6762C364.656 44.8827 334.746 25.4658 334.746 25.4658C334.746 25.4658 360.481 29.7257 375.513 55.8196C390.541 81.9135 385.985 115.749 385.985 115.749H384.111Z" fill="#65935A"/>
  <path d="M390.726 115.701C390.726 115.701 390.567 90.8355 401.243 54.2388C411.914 17.6397 445.635 0 445.635 0C445.635 0 416.499 8.59216 401.106 35.1113C385.713 61.6305 388.45 115.701 388.45 115.701H390.726Z" fill="#65935A"/>
  <path fill-rule="evenodd" clip-rule="evenodd" d="M381.795 115.709C381.795 115.709 374.598 86.9063 364.751 73.1341C354.905 59.362 339.861 52.6172 339.861 52.6172C339.861 52.6172 358.46 53.9344 369.401 70.467C380.342 87.002 382.792 102.246 383.938 115.709C382.53 115.709 381.795 115.709 381.795 115.709Z" fill="#537C49"/>
  <path d="M217.178 148.416L211.701 314.7H214.421L227.489 148.416H217.178Z" fill="#E2D6D9"/>
  <path d="M216.99 148.416H410.142L410.339 153.253H216.828L216.99 148.416Z" fill="#D1C2C7"/>
  <path fill-rule="evenodd" clip-rule="evenodd" d="M278.802 303.435C278.035 302.814 276.475 302.074 274.459 301.569C263.447 298.818 261.261 298.552 254.024 290.294C252.349 288.397 250.818 285.438 249.399 281.916L248.868 281.937L245.393 270.335C245.393 270.335 236.443 274.277 226.895 274.095C228.123 275.898 230.735 279.807 232.795 282.9L232.67 282.909C233.555 284.268 234.631 285.775 235.687 287.248L235.69 287.251C237.373 289.595 239.008 291.854 239.756 293.29C240.664 295.126 240.685 300.032 241.252 302.015C241.707 303.643 242.245 304.738 242.897 305.714C243.579 306.663 244.375 307.461 245.283 308.052C246.162 308.645 247.128 309.031 248.262 309.267C249.399 309.503 250.704 309.594 252.264 309.475C253.798 309.355 256.777 308.823 258.252 308.645C259.728 308.498 259.389 307.758 260.694 307.786C264.837 307.875 268.612 308.262 272.841 307.52C275 307.134 276.672 306.455 277.609 305.864C278.573 305.24 279.143 305.656 279.313 305.124C279.454 304.561 279.54 304.056 278.802 303.435Z" fill="#E99C22"/>
  <path fill-rule="evenodd" clip-rule="evenodd" d="M288.2 303.44C287.462 302.819 285.875 302.078 283.86 301.574C272.874 298.823 272.616 299.323 265.379 291.064C263.074 288.456 261.559 284.147 259.891 278.862L256.07 264.978C256.07 264.978 251.477 270.239 237.164 271.925C242.749 281.601 247.594 289.42 249.887 293.064C250.365 295.651 250.206 300.366 250.679 302.02C251.134 303.648 251.674 304.743 252.326 305.719C253.006 306.667 253.802 307.466 254.68 308.057C255.591 308.65 256.555 309.036 257.689 309.272C258.826 309.507 260.131 309.598 261.662 309.479C263.225 309.36 264.985 309.036 266.489 308.886C267.964 308.709 269.157 308.709 270.464 308.739C274.634 308.828 278.409 309.243 282.611 308.473C284.794 308.087 286.469 307.408 287.406 306.815C288.343 306.193 288.57 305.661 288.74 305.128C288.882 304.566 288.969 304.061 288.2 303.44Z" fill="#FABB33"/>
  <path fill-rule="evenodd" clip-rule="evenodd" d="M236.291 270.668C236.291 270.668 240.071 270.49 247.066 268.094C254.061 265.698 255.729 264.087 255.729 264.087L256.639 267.709C256.639 267.709 254.751 269.82 247.756 271.929C240.759 274.04 238.45 274.323 238.45 274.323L236.291 270.668Z" fill="#FDE8E5"/>
  <path d="M225.914 272.723C225.914 272.723 230.815 272.921 236.891 271.578C237.906 273.346 238.852 274.955 238.852 274.955C238.852 274.955 234.974 276.06 228.261 276.184C227.282 274.729 225.914 272.723 225.914 272.723Z" fill="#EBC7CC"/>
  <defs>
    <filter id="filter0_d" x="0" y="243.086" width="513" height="175.746" filterUnits="userSpaceOnUse" color-interpolation-filters="sRGB">
      <feFlood flood-opacity="0" result="BackgroundImageFix"/>
      <feColorMatrix in="SourceAlpha" type="matrix" values="0 0 0 0 0 0 0 0 0 0 0 0 0 0 0 0 0 0 127 0"/>
      <feOffset dy="11"/>
      <feGaussianBlur stdDeviation="4.5"/>
      <feColorMatrix type="matrix" values="0 0 0 0 0 0 0 0 0 0 0 0 0 0 0 0 0 0 0.25 0"/>
      <feBlend mode="normal" in2="BackgroundImageFix" result="effect1_dropShadow"/>
      <feBlend mode="normal" in="SourceGraphic" in2="effect1_dropShadow" result="shape"/>
    </filter>
  </defs>
</svg>
