<svg width="1194" height="68" viewBox="0 0 1194 68" fill="none" xmlns="http://www.w3.org/2000/svg">
<path d="M47.6551 50.3347C47.6551 48.8707 47.9479 47.5875 48.5335 46.4852C49.1363 45.3657 49.9631 44.5045 51.0137 43.9017C52.0643 43.2989 53.27 42.9975 54.6307 42.9975C56.353 42.9975 57.7739 43.4108 58.8935 44.2375C60.0302 45.047 60.7967 46.2096 61.1928 47.7253H58.0151C57.7567 47.0191 57.3434 46.468 56.775 46.0718C56.2066 45.6757 55.4918 45.4776 54.6307 45.4776C53.425 45.4776 52.4605 45.9082 51.7371 46.7694C51.0309 47.6134 50.6779 48.8018 50.6779 50.3347C50.6779 51.8676 51.0309 53.0646 51.7371 53.9258C52.4605 54.787 53.425 55.2175 54.6307 55.2175C56.3358 55.2175 57.4639 54.4683 58.0151 52.9699H61.1928C60.7794 54.4166 60.0044 55.5706 58.8676 56.4318C57.7309 57.2758 56.3186 57.6977 54.6307 57.6977C53.27 57.6977 52.0643 57.3963 51.0137 56.7935C49.9631 56.1734 49.1363 55.3123 48.5335 54.21C47.9479 53.0904 47.6551 51.7987 47.6551 50.3347ZM77.1748 49.9988C77.1748 50.5327 77.1403 51.015 77.0714 51.4456H66.1948C66.2809 52.5823 66.7029 53.4952 67.4607 54.1841C68.2185 54.8731 69.1486 55.2175 70.2509 55.2175C71.8355 55.2175 72.955 54.5544 73.6095 53.2282H76.7872C76.3566 54.5372 75.573 55.6137 74.4362 56.4576C73.3167 57.2844 71.9216 57.6977 70.2509 57.6977C68.8902 57.6977 67.6674 57.3963 66.5823 56.7935C65.5144 56.1734 64.6705 55.3123 64.0504 54.21C63.4476 53.0904 63.1462 51.7987 63.1462 50.3347C63.1462 48.8707 63.439 47.5875 64.0246 46.4852C64.6274 45.3657 65.4628 44.5045 66.5306 43.9017C67.6157 43.2989 68.8558 42.9975 70.2509 42.9975C71.5943 42.9975 72.7914 43.2903 73.842 43.8759C74.8926 44.4615 75.7108 45.2882 76.2964 46.356C76.882 47.4067 77.1748 48.6209 77.1748 49.9988ZM74.1004 49.0687C74.0831 47.9837 73.6956 47.1139 72.9378 46.4594C72.1799 45.8049 71.2413 45.4776 70.1217 45.4776C69.1055 45.4776 68.2358 45.8049 67.5124 46.4594C66.789 47.0966 66.3584 47.9664 66.2206 49.0687H74.1004ZM83.0184 45.2968C83.449 44.5734 84.0173 44.0136 84.7235 43.6175C85.4469 43.2041 86.2995 42.9975 87.2812 42.9975V46.046H86.532C85.378 46.046 84.4996 46.3388 83.8968 46.9244C83.3112 47.51 83.0184 48.5262 83.0184 49.973V57.4652H80.0732V43.23H83.0184V45.2968ZM93.4246 45.6326V53.5124C93.4246 54.0463 93.5451 54.4339 93.7862 54.675C94.0446 54.8989 94.4752 55.0109 95.078 55.0109H96.8865V57.4652H94.5613C93.2351 57.4652 92.2189 57.1552 91.5127 56.5351C90.8066 55.9151 90.4535 54.9075 90.4535 53.5124V45.6326H88.7742V43.23H90.4535V39.6905H93.4246V43.23H96.8865V45.6326H93.4246ZM101.099 41.344C100.566 41.344 100.118 41.1631 99.756 40.8015C99.3943 40.4398 99.2135 39.9919 99.2135 39.458C99.2135 38.9241 99.3943 38.4763 99.756 38.1146C100.118 37.7529 100.566 37.572 101.099 37.572C101.616 37.572 102.055 37.7529 102.417 38.1146C102.779 38.4763 102.96 38.9241 102.96 39.458C102.96 39.9919 102.779 40.4398 102.417 40.8015C102.055 41.1631 101.616 41.344 101.099 41.344ZM102.546 43.23V57.4652H99.601V43.23H102.546ZM112.381 45.6326H109.746V57.4652H106.775V45.6326H105.095V43.23H106.775V42.2224C106.775 40.5862 107.205 39.3977 108.066 38.6571C108.945 37.8993 110.314 37.5204 112.174 37.5204V39.9747C111.279 39.9747 110.65 40.147 110.288 40.4914C109.927 40.8187 109.746 41.3957 109.746 42.2224V43.23H112.381V45.6326ZM116.49 41.344C115.956 41.344 115.508 41.1631 115.146 40.8015C114.784 40.4398 114.604 39.9919 114.604 39.458C114.604 38.9241 114.784 38.4763 115.146 38.1146C115.508 37.7529 115.956 37.572 116.49 37.572C117.006 37.572 117.446 37.7529 117.807 38.1146C118.169 38.4763 118.35 38.9241 118.35 39.458C118.35 39.9919 118.169 40.4398 117.807 40.8015C117.446 41.1631 117.006 41.344 116.49 41.344ZM117.936 43.23V57.4652H114.991V43.23H117.936ZM120.821 50.3347C120.821 48.8707 121.114 47.5875 121.7 46.4852C122.303 45.3657 123.129 44.5045 124.18 43.9017C125.231 43.2989 126.436 42.9975 127.797 42.9975C129.519 42.9975 130.94 43.4108 132.06 44.2375C133.197 45.047 133.963 46.2096 134.359 47.7253H131.181C130.923 47.0191 130.51 46.468 129.941 46.0718C129.373 45.6757 128.658 45.4776 127.797 45.4776C126.591 45.4776 125.627 45.9082 124.903 46.7694C124.197 47.6134 123.844 48.8018 123.844 50.3347C123.844 51.8676 124.197 53.0646 124.903 53.9258C125.627 54.787 126.591 55.2175 127.797 55.2175C129.502 55.2175 130.63 54.4683 131.181 52.9699H134.359C133.946 54.4166 133.171 55.5706 132.034 56.4318C130.897 57.2758 129.485 57.6977 127.797 57.6977C126.436 57.6977 125.231 57.3963 124.18 56.7935C123.129 56.1734 122.303 55.3123 121.7 54.21C121.114 53.0904 120.821 51.7987 120.821 50.3347ZM136.313 50.283C136.313 48.8534 136.605 47.5875 137.191 46.4852C137.794 45.3829 138.603 44.5303 139.619 43.9275C140.653 43.3075 141.79 42.9975 143.03 42.9975C144.149 42.9975 145.122 43.2214 145.949 43.6692C146.793 44.0998 147.465 44.6423 147.964 45.2968V43.23H150.935V57.4652H147.964V55.3467C147.465 56.0184 146.784 56.5782 145.923 57.026C145.062 57.4738 144.08 57.6977 142.978 57.6977C141.755 57.6977 140.636 57.3877 139.619 56.7677C138.603 56.1304 137.794 55.252 137.191 54.1325C136.605 52.9957 136.313 51.7126 136.313 50.283ZM147.964 50.3347C147.964 49.3529 147.758 48.5004 147.344 47.777C146.948 47.0536 146.423 46.5024 145.768 46.1235C145.114 45.7446 144.408 45.5551 143.65 45.5551C142.892 45.5551 142.186 45.7446 141.531 46.1235C140.877 46.4852 140.343 47.0278 139.929 47.7511C139.533 48.4573 139.335 49.3013 139.335 50.283C139.335 51.2647 139.533 52.1259 139.929 52.8665C140.343 53.6071 140.877 54.1755 141.531 54.5717C142.203 54.9506 142.909 55.14 143.65 55.14C144.408 55.14 145.114 54.9506 145.768 54.5717C146.423 54.1927 146.948 53.6416 147.344 52.9182C147.758 52.1776 147.964 51.3164 147.964 50.3347ZM158.24 45.6326V53.5124C158.24 54.0463 158.36 54.4339 158.602 54.675C158.86 54.8989 159.29 55.0109 159.893 55.0109H161.702V57.4652H159.377C158.05 57.4652 157.034 57.1552 156.328 56.5351C155.622 55.9151 155.269 54.9075 155.269 53.5124V45.6326H153.589V43.23H155.269V39.6905H158.24V43.23H161.702V45.6326H158.24ZM165.915 41.344C165.381 41.344 164.933 41.1631 164.571 40.8015C164.21 40.4398 164.029 39.9919 164.029 39.458C164.029 38.9241 164.21 38.4763 164.571 38.1146C164.933 37.7529 165.381 37.572 165.915 37.572C166.431 37.572 166.871 37.7529 167.232 38.1146C167.594 38.4763 167.775 38.9241 167.775 39.458C167.775 39.9919 167.594 40.4398 167.232 40.8015C166.871 41.1631 166.431 41.344 165.915 41.344ZM167.361 43.23V57.4652H164.416V43.23H167.361ZM177.403 57.6977C176.06 57.6977 174.845 57.3963 173.76 56.7935C172.675 56.1734 171.823 55.3123 171.202 54.21C170.582 53.0904 170.272 51.7987 170.272 50.3347C170.272 48.8879 170.591 47.6047 171.228 46.4852C171.866 45.3657 172.735 44.5045 173.838 43.9017C174.94 43.2989 176.171 42.9975 177.532 42.9975C178.893 42.9975 180.124 43.2989 181.227 43.9017C182.329 44.5045 183.199 45.3657 183.836 46.4852C184.473 47.6047 184.792 48.8879 184.792 50.3347C184.792 51.7814 184.465 53.0646 183.81 54.1841C183.156 55.3037 182.26 56.1734 181.123 56.7935C180.004 57.3963 178.764 57.6977 177.403 57.6977ZM177.403 55.14C178.161 55.14 178.867 54.9592 179.521 54.5975C180.193 54.2358 180.736 53.6933 181.149 52.9699C181.562 52.2465 181.769 51.3681 181.769 50.3347C181.769 49.3013 181.571 48.4315 181.175 47.7253C180.779 47.0019 180.253 46.4594 179.599 46.0977C178.944 45.736 178.238 45.5551 177.48 45.5551C176.723 45.5551 176.016 45.736 175.362 46.0977C174.725 46.4594 174.217 47.0019 173.838 47.7253C173.459 48.4315 173.269 49.3013 173.269 50.3347C173.269 51.8676 173.657 53.056 174.432 53.8999C175.224 54.7267 176.215 55.14 177.403 55.14ZM194.886 42.9975C196.005 42.9975 197.004 43.23 197.882 43.695C198.778 44.16 199.476 44.849 199.975 45.7618C200.475 46.6747 200.724 47.777 200.724 49.0687V57.4652H197.805V49.5079C197.805 48.2334 197.486 47.2603 196.849 46.5886C196.212 45.8996 195.342 45.5551 194.24 45.5551C193.137 45.5551 192.259 45.8996 191.604 46.5886C190.967 47.2603 190.649 48.2334 190.649 49.5079V57.4652H187.703V43.23H190.649V44.8576C191.131 44.272 191.742 43.8156 192.483 43.4883C193.241 43.1611 194.042 42.9975 194.886 42.9975ZM215.409 46.8727V49.3529H204.791V46.8727H215.409ZM218.612 50.283C218.612 48.8534 218.905 47.5875 219.49 46.4852C220.093 45.3829 220.903 44.5303 221.919 43.9275C222.952 43.3075 224.098 42.9975 225.355 42.9975C226.457 42.9975 227.43 43.2214 228.274 43.6692C229.136 44.117 229.799 44.6595 230.264 45.2968V43.23H233.235V64.2341H230.264V55.3984C229.799 56.0357 229.127 56.5782 228.249 57.026C227.37 57.4738 226.371 57.6977 225.252 57.6977C224.029 57.6977 222.909 57.3877 221.893 56.7677C220.894 56.1304 220.093 55.252 219.49 54.1325C218.905 52.9957 218.612 51.7126 218.612 50.283ZM230.264 50.3347C230.264 49.3529 230.057 48.5004 229.644 47.777C229.248 47.0536 228.722 46.5024 228.068 46.1235C227.413 45.7446 226.707 45.5551 225.949 45.5551C225.191 45.5551 224.485 45.7446 223.831 46.1235C223.176 46.4852 222.642 47.0278 222.229 47.7511C221.833 48.4573 221.635 49.3013 221.635 50.283C221.635 51.2647 221.833 52.1259 222.229 52.8665C222.642 53.6071 223.176 54.1755 223.831 54.5717C224.502 54.9506 225.209 55.14 225.949 55.14C226.707 55.14 227.413 54.9506 228.068 54.5717C228.722 54.1927 229.248 53.6416 229.644 52.9182C230.057 52.1776 230.264 51.3164 230.264 50.3347ZM249.995 43.23V57.4652H247.05V55.7859C246.585 56.3715 245.973 56.8366 245.216 57.181C244.475 57.5083 243.683 57.6719 242.839 57.6719C241.719 57.6719 240.712 57.4394 239.816 56.9743C238.938 56.5093 238.24 55.8204 237.723 54.9075C237.224 53.9947 236.974 52.8924 236.974 51.6006V43.23H239.893V51.1614C239.893 52.4359 240.212 53.4177 240.849 54.1066C241.487 54.7783 242.356 55.1142 243.459 55.1142C244.561 55.1142 245.431 54.7783 246.068 54.1066C246.723 53.4177 247.05 52.4359 247.05 51.1614V43.23H249.995ZM266.928 49.9988C266.928 50.5327 266.893 51.015 266.825 51.4456H255.948C256.034 52.5823 256.456 53.4952 257.214 54.1841C257.972 54.8731 258.902 55.2175 260.004 55.2175C261.589 55.2175 262.708 54.5544 263.363 53.2282H266.54C266.11 54.5372 265.326 55.6137 264.189 56.4576C263.07 57.2844 261.675 57.6977 260.004 57.6977C258.643 57.6977 257.42 57.3963 256.335 56.7935C255.268 56.1734 254.424 55.3123 253.804 54.21C253.201 53.0904 252.899 51.7987 252.899 50.3347C252.899 48.8707 253.192 47.5875 253.778 46.4852C254.381 45.3657 255.216 44.5045 256.284 43.9017C257.369 43.2989 258.609 42.9975 260.004 42.9975C261.347 42.9975 262.544 43.2903 263.595 43.8759C264.646 44.4615 265.464 45.2882 266.049 46.356C266.635 47.4067 266.928 48.6209 266.928 49.9988ZM263.853 49.0687C263.836 47.9837 263.449 47.1139 262.691 46.4594C261.933 45.8049 260.994 45.4776 259.875 45.4776C258.859 45.4776 257.989 45.8049 257.265 46.4594C256.542 47.0966 256.111 47.9664 255.974 49.0687H263.853ZM274.993 57.6977C273.874 57.6977 272.866 57.4997 271.971 57.1035C271.092 56.6902 270.395 56.139 269.878 55.4501C269.361 54.7439 269.086 53.9602 269.051 53.099H272.1C272.151 53.7019 272.436 54.21 272.952 54.6233C273.486 55.0195 274.149 55.2175 274.942 55.2175C275.768 55.2175 276.406 55.0625 276.853 54.7525C277.318 54.4253 277.551 54.0119 277.551 53.5124C277.551 52.9785 277.293 52.5823 276.776 52.324C276.276 52.0656 275.476 51.7814 274.373 51.4714C273.305 51.1786 272.436 50.8944 271.764 50.6189C271.092 50.3433 270.507 49.9213 270.007 49.3529C269.525 48.7846 269.284 48.0353 269.284 47.1053C269.284 46.3474 269.508 45.6585 269.955 45.0384C270.403 44.4012 271.041 43.9017 271.867 43.54C272.711 43.1783 273.676 42.9975 274.761 42.9975C276.38 42.9975 277.68 43.4108 278.662 44.2375C279.661 45.047 280.195 46.158 280.264 47.5703H277.318C277.267 46.933 277.008 46.4249 276.543 46.046C276.078 45.6671 275.45 45.4776 274.657 45.4776C273.882 45.4776 273.288 45.624 272.875 45.9168C272.461 46.2096 272.255 46.5972 272.255 47.0794C272.255 47.4583 272.393 47.777 272.668 48.0353C272.944 48.2937 273.28 48.5004 273.676 48.6554C274.072 48.7932 274.657 48.974 275.433 49.1979C276.466 49.4735 277.31 49.7577 277.964 50.0505C278.636 50.3261 279.213 50.7394 279.695 51.2906C280.178 51.8417 280.427 52.5737 280.445 53.4866C280.445 54.2961 280.221 55.0195 279.773 55.6567C279.325 56.294 278.688 56.7935 277.861 57.1552C277.052 57.5169 276.096 57.6977 274.993 57.6977ZM287.063 45.6326V53.5124C287.063 54.0463 287.184 54.4339 287.425 54.675C287.683 54.8989 288.114 55.0109 288.716 55.0109H290.525V57.4652H288.2C286.874 57.4652 285.857 57.1552 285.151 56.5351C284.445 55.9151 284.092 54.9075 284.092 53.5124V45.6326H282.413V43.23H284.092V39.6905H287.063V43.23H290.525V45.6326H287.063ZM294.738 41.344C294.204 41.344 293.756 41.1631 293.394 40.8015C293.033 40.4398 292.852 39.9919 292.852 39.458C292.852 38.9241 293.033 38.4763 293.394 38.1146C293.756 37.7529 294.204 37.572 294.738 37.572C295.255 37.572 295.694 37.7529 296.056 38.1146C296.417 38.4763 296.598 38.9241 296.598 39.458C296.598 39.9919 296.417 40.4398 296.056 40.8015C295.694 41.1631 295.255 41.344 294.738 41.344ZM296.185 43.23V57.4652H293.239V43.23H296.185ZM306.226 57.6977C304.883 57.6977 303.668 57.3963 302.583 56.7935C301.498 56.1734 300.646 55.3123 300.026 54.21C299.406 53.0904 299.096 51.7987 299.096 50.3347C299.096 48.8879 299.414 47.6047 300.052 46.4852C300.689 45.3657 301.559 44.5045 302.661 43.9017C303.763 43.2989 304.995 42.9975 306.355 42.9975C307.716 42.9975 308.947 43.2989 310.05 43.9017C311.152 44.5045 312.022 45.3657 312.659 46.4852C313.296 47.6047 313.615 48.8879 313.615 50.3347C313.615 51.7814 313.288 53.0646 312.633 54.1841C311.979 55.3037 311.083 56.1734 309.946 56.7935C308.827 57.3963 307.587 57.6977 306.226 57.6977ZM306.226 55.14C306.984 55.14 307.69 54.9592 308.345 54.5975C309.016 54.2358 309.559 53.6933 309.972 52.9699C310.386 52.2465 310.592 51.3681 310.592 50.3347C310.592 49.3013 310.394 48.4315 309.998 47.7253C309.602 47.0019 309.077 46.4594 308.422 46.0977C307.768 45.736 307.061 45.5551 306.304 45.5551C305.546 45.5551 304.84 45.736 304.185 46.0977C303.548 46.4594 303.04 47.0019 302.661 47.7253C302.282 48.4315 302.092 49.3013 302.092 50.3347C302.092 51.8676 302.48 53.056 303.255 53.8999C304.047 54.7267 305.038 55.14 306.226 55.14ZM323.709 42.9975C324.828 42.9975 325.827 43.23 326.706 43.695C327.601 44.16 328.299 44.849 328.798 45.7618C329.298 46.6747 329.548 47.777 329.548 49.0687V57.4652H326.628V49.5079C326.628 48.2334 326.31 47.2603 325.672 46.5886C325.035 45.8996 324.165 45.5551 323.063 45.5551C321.961 45.5551 321.082 45.8996 320.428 46.5886C319.79 47.2603 319.472 48.2334 319.472 49.5079V57.4652H316.527V43.23H319.472V44.8576C319.954 44.272 320.565 43.8156 321.306 43.4883C322.064 43.1611 322.865 42.9975 323.709 42.9975ZM338.471 57.6977C337.352 57.6977 336.344 57.4997 335.449 57.1035C334.57 56.6902 333.873 56.139 333.356 55.4501C332.839 54.7439 332.564 53.9602 332.529 53.099H335.578C335.63 53.7019 335.914 54.21 336.43 54.6233C336.964 55.0195 337.627 55.2175 338.42 55.2175C339.246 55.2175 339.884 55.0625 340.332 54.7525C340.797 54.4253 341.029 54.0119 341.029 53.5124C341.029 52.9785 340.771 52.5823 340.254 52.324C339.755 52.0656 338.954 51.7814 337.851 51.4714C336.783 51.1786 335.914 50.8944 335.242 50.6189C334.57 50.3433 333.985 49.9213 333.485 49.3529C333.003 48.7846 332.762 48.0353 332.762 47.1053C332.762 46.3474 332.986 45.6585 333.434 45.0384C333.881 44.4012 334.519 43.9017 335.345 43.54C336.189 43.1783 337.154 42.9975 338.239 42.9975C339.858 42.9975 341.158 43.4108 342.14 44.2375C343.139 45.047 343.673 46.158 343.742 47.5703H340.797C340.745 46.933 340.487 46.4249 340.022 46.046C339.556 45.6671 338.928 45.4776 338.136 45.4776C337.36 45.4776 336.766 45.624 336.353 45.9168C335.94 46.2096 335.733 46.5972 335.733 47.0794C335.733 47.4583 335.871 47.777 336.146 48.0353C336.422 48.2937 336.758 48.5004 337.154 48.6554C337.55 48.7932 338.136 48.974 338.911 49.1979C339.944 49.4735 340.788 49.7577 341.442 50.0505C342.114 50.3261 342.691 50.7394 343.173 51.2906C343.656 51.8417 343.905 52.5737 343.923 53.4866C343.923 54.2961 343.699 55.0195 343.251 55.6567C342.803 56.294 342.166 56.7935 341.339 57.1552C340.53 57.5169 339.574 57.6977 338.471 57.6977ZM348.293 57.6461C347.76 57.6461 347.312 57.4652 346.95 57.1035C346.588 56.7418 346.407 56.294 346.407 55.7601C346.407 55.2262 346.588 54.7783 346.95 54.4166C347.312 54.055 347.76 53.8741 348.293 53.8741C348.81 53.8741 349.249 54.055 349.611 54.4166C349.973 54.7783 350.154 55.2262 350.154 55.7601C350.154 56.294 349.973 56.7418 349.611 57.1035C349.249 57.4652 348.81 57.6461 348.293 57.6461ZM352.355 50.3347C352.355 48.8707 352.648 47.5875 353.233 46.4852C353.836 45.3657 354.663 44.5045 355.714 43.9017C356.764 43.2989 357.97 42.9975 359.331 42.9975C361.053 42.9975 362.474 43.4108 363.593 44.2375C364.73 45.047 365.497 46.2096 365.893 47.7253H362.715C362.457 47.0191 362.043 46.468 361.475 46.0718C360.907 45.6757 360.192 45.4776 359.331 45.4776C358.125 45.4776 357.16 45.9082 356.437 46.7694C355.731 47.6134 355.378 48.8018 355.378 50.3347C355.378 51.8676 355.731 53.0646 356.437 53.9258C357.16 54.787 358.125 55.2175 359.331 55.2175C361.036 55.2175 362.164 54.4683 362.715 52.9699H365.893C365.479 54.4166 364.704 55.5706 363.568 56.4318C362.431 57.2758 361.018 57.6977 359.331 57.6977C357.97 57.6977 356.764 57.3963 355.714 56.7935C354.663 56.1734 353.836 55.3123 353.233 54.21C352.648 53.0904 352.355 51.7987 352.355 50.3347ZM375.003 57.6977C373.659 57.6977 372.445 57.3963 371.36 56.7935C370.275 56.1734 369.422 55.3123 368.802 54.21C368.182 53.0904 367.872 51.7987 367.872 50.3347C367.872 48.8879 368.191 47.6047 368.828 46.4852C369.465 45.3657 370.335 44.5045 371.437 43.9017C372.54 43.2989 373.771 42.9975 375.132 42.9975C376.492 42.9975 377.724 43.2989 378.826 43.9017C379.928 44.5045 380.798 45.3657 381.435 46.4852C382.073 47.6047 382.391 48.8879 382.391 50.3347C382.391 51.7814 382.064 53.0646 381.41 54.1841C380.755 55.3037 379.86 56.1734 378.723 56.7935C377.603 57.3963 376.363 57.6977 375.003 57.6977ZM375.003 55.14C375.76 55.14 376.467 54.9592 377.121 54.5975C377.793 54.2358 378.335 53.6933 378.749 52.9699C379.162 52.2465 379.369 51.3681 379.369 50.3347C379.369 49.3013 379.171 48.4315 378.774 47.7253C378.378 47.0019 377.853 46.4594 377.199 46.0977C376.544 45.736 375.838 45.5551 375.08 45.5551C374.322 45.5551 373.616 45.736 372.962 46.0977C372.324 46.4594 371.816 47.0019 371.437 47.7253C371.058 48.4315 370.869 49.3013 370.869 50.3347C370.869 51.8676 371.256 53.056 372.031 53.8999C372.824 54.7267 373.814 55.14 375.003 55.14ZM402.535 42.9975C403.655 42.9975 404.654 43.23 405.532 43.695C406.428 44.16 407.125 44.849 407.625 45.7618C408.141 46.6747 408.4 47.777 408.4 49.0687V57.4652H405.48V49.5079C405.48 48.2334 405.162 47.2603 404.524 46.5886C403.887 45.8996 403.017 45.5551 401.915 45.5551C400.813 45.5551 399.934 45.8996 399.28 46.5886C398.643 47.2603 398.324 48.2334 398.324 49.5079V57.4652H395.405V49.5079C395.405 48.2334 395.086 47.2603 394.449 46.5886C393.811 45.8996 392.942 45.5551 391.839 45.5551C390.737 45.5551 389.859 45.8996 389.204 46.5886C388.567 47.2603 388.248 48.2334 388.248 49.5079V57.4652H385.303V43.23H388.248V44.8576C388.73 44.272 389.342 43.8156 390.082 43.4883C390.823 43.1611 391.615 42.9975 392.459 42.9975C393.596 42.9975 394.612 43.2386 395.508 43.7208C396.403 44.2031 397.092 44.9007 397.575 45.8135C398.005 44.9523 398.677 44.272 399.59 43.7725C400.503 43.2558 401.484 42.9975 402.535 42.9975Z" fill="#CFCFDE"/>
<path d="M19.9034 0.0679703C17.0051 0.315254 14.1353 1.26317 12.2483 2.59575C11.7427 2.94607 10.8454 3.77034 10.347 4.32673C9.66334 5.10292 8.6664 6.724 8.36732 7.56889C8.29611 7.76122 8.11808 8.24892 7.97566 8.64045C7.61961 9.63645 7.34902 11.2781 7.00721 14.4859C6.8363 16.1002 6.6654 17.0755 6.3948 17.9548C6.29511 18.2982 6.19541 18.6348 6.18829 18.7104C6.11708 19.2118 4.95636 21.5335 4.26562 22.557C3.80275 23.237 3.64609 23.4293 2.48537 24.7138C1.47418 25.8335 1.26767 26.0808 0.797687 26.7539C0.270732 27.4958 -0.00698742 28.3132 0.000133589 29.0825C0.0072546 30.1403 0.519967 30.8684 1.93705 31.8576C2.76309 32.4277 3.18322 32.8467 3.37549 33.2795C3.56776 33.6985 3.56064 34.6464 3.37549 36.0545C3.19747 37.3802 3.18322 39.173 3.34701 39.8325C3.40398 40.0729 3.58912 40.5606 3.76003 40.904C4.20865 41.8176 4.93499 42.5388 5.82512 42.9647C6.18117 43.1296 6.72949 43.3288 7.03569 43.4043C7.86885 43.6104 9.27881 43.5898 10.9451 43.3631C12.2554 43.1845 13.3591 43.1227 13.4588 43.2189C13.4873 43.2463 13.5372 43.5554 13.5585 43.9058C13.6297 44.8812 13.9858 45.4238 14.8047 45.8153C15.2605 46.0283 15.2889 46.0351 16.6419 46.0832C17.3896 46.1107 19.0916 46.1382 20.4161 46.145C21.7335 46.1519 23.2289 46.1863 23.7273 46.2206C24.2258 46.2618 25.0803 46.3236 25.6286 46.358C26.177 46.3992 26.9175 46.4541 27.2665 46.4954C28.8758 46.6602 29.6449 46.5366 30.2644 45.9939C30.7843 45.5337 30.948 45.1971 30.9267 44.5583C30.9124 43.947 30.7771 43.6653 30.3071 43.2601C30.0152 43.0059 29.8585 42.9304 29.3316 42.7999C28.2919 42.532 27.2807 42.4701 25.7924 42.5732C22.709 42.7792 21.826 42.7586 19.5972 42.4015C18.999 42.3053 18.2442 42.2091 17.9237 42.1885C17.5321 42.161 17.3327 42.1198 17.3327 42.0649C17.3327 41.8725 16.8128 40.9178 16.5138 40.5674C16.1221 40.1003 15.2676 39.5371 14.762 39.4134C14.2137 39.2761 11.5789 39.2967 10.4609 39.4409C8.95836 39.6401 8.43141 39.6539 7.97566 39.5302C7.39174 39.3654 7.29205 39.1799 7.29205 38.2801C7.29205 37.8954 7.35614 37.1261 7.43447 36.5628C7.62674 35.244 7.64098 33.2726 7.47007 32.6544C7.32765 32.1186 6.78646 31.0196 6.49449 30.6349C6.36632 30.4769 6.17405 30.2228 6.06723 30.0854C5.88921 29.845 5.36225 29.4054 4.68576 28.9383L4.37955 28.7253L4.5647 28.4643C4.66439 28.3269 4.9706 27.9423 5.2412 27.6126C7.82612 24.5284 8.02551 24.2605 8.88003 22.6944C9.39275 21.7533 10.3754 19.1843 10.4538 18.573C10.4751 18.4219 10.5392 18.0922 10.5962 17.8517C10.8098 16.9794 11.0591 15.0355 11.2086 13.1808C11.2798 12.2673 11.5433 10.9003 11.8709 9.74635C12.0987 8.95642 12.6328 7.8986 13.1242 7.28039C13.5514 6.73087 14.6552 5.70053 14.9685 5.54941C15.0753 5.50133 15.3388 5.35708 15.5524 5.23344C16.2218 4.84877 18.0519 4.23743 18.7925 4.15501C21.47 3.85964 24.0549 3.98328 26.0915 4.49846C26.6185 4.63583 27.2807 4.80069 27.5513 4.86938C27.829 4.93807 28.3418 5.10979 28.6907 5.24717C29.0467 5.38455 29.474 5.54941 29.652 5.60436C30.0508 5.73487 31.5604 6.46985 32.0376 6.75835C32.2369 6.88199 32.6642 7.14301 32.9989 7.34221C33.8463 7.86425 35.4058 9.04572 36.1962 9.77383C36.5736 10.1173 37.3569 10.9622 37.6988 11.388C37.7985 11.5117 37.9622 11.704 38.069 11.8208C38.1759 11.9376 38.2827 12.0955 38.3112 12.1711C38.3325 12.2398 38.4465 12.4321 38.5533 12.5832C38.6601 12.7412 38.9449 13.2701 39.1799 13.7647C39.6001 14.6508 39.9348 15.7224 40.127 16.8557C40.2338 17.4808 40.241 19.2461 40.1341 19.9468C39.8778 21.6434 39.1942 23.8896 38.5533 25.1397C38.3966 25.4488 38.2684 25.7305 38.2684 25.7648C38.2684 25.806 38.1047 26.0945 37.9124 26.4174C37.7201 26.7402 37.5563 27.0218 37.5563 27.0424C37.5563 27.1042 36.6591 28.3887 36.2817 28.8764C35.4984 29.8656 34.2522 31.102 33.2481 31.8713C32.7425 32.2628 31.4892 33.1009 31.418 33.1009C31.3967 33.1009 31.1688 33.2176 30.9267 33.3619C30.3997 33.671 28.9755 34.3167 28.5198 34.4472L28.2136 34.5433L28.2492 32.4964C28.2919 30.5387 28.356 29.8656 28.5767 29.0619C28.6266 28.8971 28.6764 28.6635 28.6907 28.533C28.712 28.4025 28.826 28.0247 28.947 27.695C29.0681 27.3584 29.2675 26.8295 29.3814 26.5066C29.4954 26.1838 29.7019 25.6412 29.8443 25.3046C29.9796 24.9611 30.1576 24.494 30.2288 24.2605L30.3712 23.8346H31.2756C32.5218 23.8346 33.006 23.7385 33.9674 23.3057C34.6011 23.0172 35.0141 22.6875 35.3987 22.1586C35.89 21.4923 36.004 21.1076 36.0111 20.1872C36.0182 19.514 35.9897 19.3492 35.8544 19.0538C35.3203 17.8998 34.1098 17.6251 32.536 18.2914C31.5818 18.7035 30.0793 19.9536 29.5096 20.8329L29.2176 21.2794L28.8473 21.142C28.6408 21.0596 28.4343 20.984 28.3845 20.9634C28.3275 20.9428 28.4201 20.7917 28.6408 20.5375C29.1678 19.9468 29.3458 19.6445 29.474 19.1225C29.6734 18.3051 29.6022 17.1305 29.3173 16.5947C29.2675 16.4917 29.0182 16.2101 28.7761 15.9696C28.2777 15.4819 27.9786 15.3514 27.295 15.3583C26.3336 15.3583 25.529 16.1551 25.0162 17.6113C24.8667 18.0235 24.8453 18.2227 24.8453 18.9989V19.9124L24.4537 19.8712C23.7701 19.8163 23.001 19.6995 22.8087 19.6239L22.6165 19.5552L22.9796 19.1019C23.5636 18.36 23.6348 18.154 23.6276 17.2335C23.6276 16.5054 23.6134 16.4161 23.4283 16.0658C22.6948 14.6989 21.6979 14.2249 20.5941 14.7195C20.0743 14.9599 19.4049 15.7292 19.2981 16.2101C19.0417 17.3778 19.0204 17.6113 19.0987 18.154C19.1414 18.4631 19.1913 18.7584 19.2197 18.8271C19.2482 18.9027 19.2197 18.9508 19.12 18.9851C18.9064 19.0469 18.8566 18.9989 18.5717 18.4631C18.1801 17.7006 17.4252 16.6428 17.0407 16.3131C16.1292 15.5232 15.1964 15.4545 14.5982 16.1414C14.3205 16.4573 14.2279 16.6634 14.1353 17.1717C13.9146 18.4219 14.1781 19.3835 14.9543 20.1872C15.467 20.7161 16.0865 21.0046 17.1974 21.245C17.3683 21.2794 17.4039 21.3481 17.5961 22.0899C17.8027 22.8592 18.0733 24.4116 18.1587 25.3046C18.2513 26.2113 18.2655 28.7665 18.1943 29.8862C18.0946 31.3836 17.8667 33.4512 17.6816 34.4678C17.5249 35.347 17.1262 36.4254 16.82 36.7895C16.528 37.1467 16.4354 37.497 16.5422 37.8405C16.7772 38.6029 17.646 38.9876 18.1729 38.5617C18.7854 38.0671 19.4903 36.604 19.8108 35.1616C19.9674 34.4541 20.2665 32.4208 20.4089 31.0402C20.5585 29.6732 20.53 25.3183 20.3733 24.2399C20.2309 23.2508 20.0102 22.1174 19.8535 21.5335C19.7965 21.3137 19.7609 21.1214 19.7681 21.1145C19.7823 21.1076 19.9603 21.0527 20.1668 20.984L20.5371 20.8741L20.9288 21.1076C21.6124 21.5335 21.9827 21.6778 22.823 21.8632C23.7416 22.0624 24.7741 22.0968 25.5788 21.9663L26.0345 21.8907L26.2909 22.1311C26.6612 22.4677 27.6297 23.079 27.9216 23.1546C28.1424 23.2164 28.1637 23.237 28.121 23.4019C28.0925 23.5049 28.0569 23.6492 28.0427 23.7178C28.0284 23.7934 27.9145 24.0819 27.7934 24.3704C27.6653 24.6589 27.4445 25.2153 27.3021 25.6137C27.1597 26.0121 26.9389 26.5959 26.825 26.9188C26.7039 27.2416 26.5188 27.8598 26.4191 28.2926C26.0702 29.7351 26.0061 30.3808 25.9705 32.8398L25.9349 35.1547L25.6002 35.2234C24.9593 35.3539 24.3326 35.4432 23.3428 35.5325C22.531 35.608 22.2747 35.663 21.9756 35.8072C21.3916 36.0957 20.9715 36.7414 20.9145 37.4558C20.8647 38.0328 21.0214 38.493 21.4273 38.9258C21.6765 39.1936 21.826 39.2829 22.1678 39.386C22.6236 39.5165 22.5524 39.5165 25.059 39.3104C25.9918 39.228 28.5696 38.6029 29.6663 38.1839C30.0579 38.0328 30.4068 37.9091 30.4424 37.9091C30.5421 37.9091 32.5574 36.9544 33.0345 36.6865C34.5228 35.8347 35.2634 35.3264 36.5594 34.2686C37.7272 33.3138 38.6102 32.3934 39.8778 30.8135C40.1697 30.4494 41.0456 29.1512 41.0456 29.0894C41.0456 29.0688 41.1667 28.8558 41.3162 28.6223C41.8717 27.7431 43.1819 24.8512 43.2816 24.2674C43.303 24.1506 43.3884 23.8552 43.4597 23.6148C44.0151 21.8632 44.2857 19.8575 44.2287 17.9204C44.1718 16.004 43.9937 14.9874 43.4597 13.4419C43.2674 12.8855 42.9469 12.123 42.7547 11.7452C40.9317 8.2077 36.8798 4.58088 32.4292 2.50645C31.5177 2.08058 29.9796 1.44176 29.8016 1.41429C29.7375 1.40055 29.1749 1.23569 28.5483 1.04337C27.4018 0.693047 27.0172 0.603752 25.2299 0.301514C23.5351 0.0130196 21.5768 -0.0762787 19.9034 0.0679703ZM33.7822 20.3246C33.7822 20.5375 33.6042 20.8878 33.419 21.0596C33.1627 21.2862 32.5147 21.5473 32.0732 21.6022L31.6815 21.6503L31.9307 21.3961C32.415 20.9016 33.4546 20.2009 33.7324 20.1872C33.7608 20.1872 33.7822 20.249 33.7822 20.3246Z" fill="#CFCFDE"/>
<path d="M16.3398 45.1418C14.3744 45.3204 14.232 45.3479 13.8759 45.6913C13.3917 46.1653 13.3917 46.8659 13.8759 47.333C14.289 47.7383 14.6521 47.8001 15.7915 47.6765C16.4039 47.6009 17.2442 47.5803 18.6541 47.6009C20.7762 47.6215 21.6307 47.7039 24.1729 48.1161C24.8565 48.226 25.6042 48.3359 25.8392 48.3565C26.0671 48.384 26.2238 48.4252 26.1953 48.4527C26.117 48.5145 23.1973 49.0777 22.9481 49.0777C22.8484 49.0777 22.1221 49.2357 21.3174 49.4212C19.2238 49.9226 19.0814 49.957 18.3479 50.2249C17.9776 50.3554 17.6287 50.4721 17.5575 50.4859C17.4151 50.5134 17.1658 50.6095 16.411 50.9392C14.7518 51.6605 13.292 52.5535 12.9431 53.0549C12.7295 53.3571 12.7223 53.8929 12.9217 54.2089C13.1781 54.6141 13.9685 54.9713 14.3958 54.8752C14.6023 54.8271 15.0295 54.6141 15.706 54.2226C16.5107 53.7487 19.4446 52.5122 19.7508 52.5122C19.7935 52.5122 20.2564 52.3543 20.7833 52.1688C21.3103 51.9765 21.8016 51.8047 21.8728 51.791C21.944 51.7773 22.4283 51.6261 22.9552 51.4544C23.4751 51.2827 23.9593 51.1384 24.0234 51.1384C24.1943 51.1384 26.7222 50.4103 27.6622 50.0875C28.1108 49.9364 28.6236 49.7646 28.8016 49.7028C29.3784 49.5174 30.5391 48.9335 30.7812 48.7137C31.3723 48.171 31.4648 47.4361 31.002 46.9758C30.7171 46.6942 30.4465 46.6049 29.1932 46.3988C28.6876 46.3164 27.4842 46.1103 26.5229 45.9455C25.5615 45.7806 24.5219 45.6089 24.2085 45.5746C22.6704 45.3891 21.0539 45.2242 20.2279 45.1624C19.3876 45.1006 16.938 45.0869 16.3398 45.1418Z" fill="#CFCFDE"/>
<path d="M29.5844 53.3752C29.563 53.3958 29.4562 53.4233 29.3351 53.4439C29.2212 53.4645 28.8153 53.6019 28.445 53.753C28.0676 53.8973 27.6332 54.0552 27.4837 54.1033C27.1988 54.1858 26.031 54.6185 24.4644 55.2092C23.973 55.3947 23.5529 55.5458 23.5173 55.5458C23.4888 55.5458 23.0473 55.7175 22.5346 55.9236C22.0219 56.1297 21.5732 56.3014 21.5305 56.3014C21.4949 56.3014 21.089 56.4525 20.6333 56.6449C20.1775 56.8303 19.7788 56.9883 19.7431 56.9883C19.7075 56.9883 19.3088 57.1394 18.8601 57.3317C18.4115 57.5172 18.0056 57.6752 17.9629 57.6752C17.9131 57.6752 17.5285 57.8332 17.1013 58.0186C16.674 58.211 16.2966 58.3621 16.2539 58.3621C16.0687 58.3621 14.5662 59.0765 14.4024 59.2413C14.146 59.5092 14.0464 60.0381 14.1674 60.4846C14.2742 60.8899 14.4807 61.1303 14.8795 61.3295C15.2284 61.5012 15.7839 61.4737 16.2752 61.2608C16.4532 61.1852 16.7737 61.0547 16.9873 60.9723C17.849 60.6426 18.4827 60.3884 19.1948 60.0931C19.6078 59.9282 20.0351 59.7634 20.149 59.729C20.2559 59.7015 20.7401 59.5161 21.2172 59.3306C21.6872 59.1452 22.4776 58.8361 22.969 58.6437C23.4603 58.4514 23.8947 58.2934 23.9303 58.2934C23.9659 58.2934 24.4003 58.1423 24.8916 57.9568C25.383 57.7645 26.2019 57.4623 26.7075 57.2768C27.2202 57.0913 28.0605 56.7754 28.5803 56.5762C29.1001 56.3838 29.6129 56.2052 29.7125 56.1915C29.9547 56.1503 30.446 55.903 30.6454 55.7244C31.1581 55.2711 31.1723 54.1239 30.6668 53.6706C30.4033 53.4302 29.7197 53.2447 29.5844 53.3752Z" fill="#CFCFDE"/>
<path d="M26.3398 60.1285C25.4497 60.4582 21.7396 61.7152 21.2127 61.8595C20.9777 61.9282 20.408 62.1068 19.9452 62.2647C19.4823 62.4227 19.0479 62.5532 18.9767 62.5532C18.7417 62.5532 17.8445 63.0341 17.6237 63.2813C17.2961 63.6385 17.3246 63.927 17.7376 64.7032C18.0154 65.2184 18.2076 65.4588 18.7559 65.9877C19.3114 66.5235 19.5393 66.6952 20.0448 66.9287C20.3795 67.0867 20.8424 67.2653 21.0774 67.3271C21.6115 67.4576 22.9217 67.4645 23.5056 67.3271C25.8128 66.8051 28.4974 64.504 28.7324 62.8417C28.8606 61.9556 28.6327 61.3031 27.9064 60.5132C27.4649 60.0186 26.9593 59.895 26.3398 60.1285Z" fill="#CFCFDE"/>
<path d="M602.484 33.7722C601.738 27.7012 598.756 19.8196 592.365 9.48828C592.365 9.48828 584.377 20.6717 582.247 32.9201C587.359 37.6065 591.407 43.997 591.513 52.8372C591.513 52.8372 590.768 50.8136 586.294 48.8964C587.999 49.7485 590.235 51.0266 591.513 52.9437C591.513 52.9437 595.028 52.1982 598.117 49.3224C595.987 50.494 594.922 51.6656 594.922 51.6656C594.389 44.1035 597.797 38.2456 602.484 33.7722Z" fill="#CFCFDE"/>
<path d="M618.674 45.8075C618.674 45.8075 618.674 45.701 618.78 45.701C618.78 45.701 622.828 40.2691 627.514 21.6301C627.514 21.6301 612.283 24.7189 602.591 33.7721C603.656 41.7602 601.1 46.5531 598.118 49.3223C600.674 47.9377 604.721 46.3401 610.26 46.5531C610.26 46.5531 600.567 50.4939 597.159 58.269C602.698 48.5768 610.792 45.701 618.674 45.8075Z" fill="#CFCFDE"/>
<path d="M602.485 33.7721C597.798 38.2454 594.39 43.9969 594.816 51.6655C594.816 51.6655 595.881 50.6004 598.011 49.3223C600.994 46.5531 603.55 41.8667 602.485 33.7721Z" fill="#CFCFDE"/>
<path d="M582.247 32.9198C572.768 24.3992 559.348 21.9495 559.348 21.9495C560.2 33.3459 566.697 45.8074 566.697 45.8074C566.697 45.8074 566.697 45.8074 566.697 45.9139C569.359 45.8074 572.129 45.9139 574.685 46.6594C574.365 46.5529 574.046 46.4464 573.833 46.3399C579.691 46.8724 583.632 48.044 586.294 49.1091C584.91 48.4701 583.845 48.1505 583.845 48.1505C581.608 43.2511 581.395 38.0322 582.247 32.9198Z" fill="#CFCFDE"/>
<path d="M591.511 52.837C591.405 43.9968 587.464 37.4998 582.245 32.9199C581.393 38.0323 581.499 43.2512 583.736 47.9376C583.736 47.9376 584.801 48.2571 586.186 48.8962C590.659 50.8133 591.511 52.837 591.511 52.837Z" fill="#CFCFDE"/>
<path d="M618.568 45.4875C610.261 60.1857 597.054 57.949 597.054 57.949C597.054 57.949 605.894 80.7418 642.639 53.4757C642.533 53.3692 630.923 45.7006 618.568 45.4875Z" fill="#CFCFDE"/>
<path d="M618.568 45.4883C610.793 45.3818 602.699 48.2575 597.054 57.9498C597.054 57.9498 610.261 60.1865 618.568 45.4883Z" fill="#CFCFDE"/>
<path d="M567.23 45.5942C555.301 46.2333 543.904 53.1563 543.904 53.1563C576.922 81.168 589.17 58.1622 589.17 58.1622C588.851 57.5232 588.531 56.9906 588.212 56.4581C588.425 56.8841 588.425 57.0971 588.425 57.0971C576.709 60.5054 567.869 46.5528 567.23 45.5942Z" fill="#CFCFDE"/>
<path d="M566.594 45.701C567.233 46.6596 576.393 60.5057 588.534 57.0974C588.534 57.0974 588.428 56.8844 588.321 56.4584C587.576 55.1803 586.724 53.9022 585.765 52.9436C583.742 50.92 581.505 48.6833 575.86 46.5531C573.197 45.9141 569.363 45.488 566.594 45.701Z" fill="#CFCFDE"/>
<path d="M592.473 49.3225C594.532 49.3225 596.201 47.6535 596.201 45.5947C596.201 43.5359 594.532 41.8669 592.473 41.8669C590.414 41.8669 588.745 43.5359 588.745 45.5947C588.745 47.6535 590.414 49.3225 592.473 49.3225Z" fill="white"/>
<path d="M658.225 44.8744C660.233 44.8744 661.812 45.3541 662.963 46.3135C664.114 47.2728 664.69 48.5938 664.69 50.2764C664.69 51.959 664.114 53.28 662.963 54.2394C661.812 55.1988 660.233 55.6785 658.225 55.6785H654.395V60.3721H652.181V44.8744H658.225ZM658.159 53.7524C659.561 53.7524 660.631 53.4572 661.369 52.8668C662.107 52.2616 662.476 51.3982 662.476 50.2764C662.476 49.1547 662.107 48.2986 661.369 47.7083C660.631 47.1031 659.561 46.8005 658.159 46.8005H654.395V53.7524H658.159ZM673.339 60.5492C672.173 60.5492 671.044 60.3721 669.952 60.0178C668.875 59.6488 668.026 59.1765 667.406 58.6009L668.225 56.874C668.816 57.4054 669.568 57.8408 670.483 58.1803C671.413 58.505 672.365 58.6673 673.339 58.6673C674.623 58.6673 675.583 58.4533 676.218 58.0253C676.852 57.5825 677.17 56.9995 677.17 56.2763C677.17 55.7449 676.992 55.3169 676.638 54.9922C676.299 54.6527 675.871 54.3944 675.354 54.2173C674.852 54.0402 674.136 53.8409 673.207 53.6195C672.041 53.3391 671.096 53.0586 670.373 52.7782C669.664 52.4978 669.052 52.0697 668.535 51.4941C668.033 50.9037 667.782 50.1141 667.782 49.1252C667.782 48.2986 667.996 47.5533 668.424 46.8891C668.867 46.2249 669.531 45.6936 670.417 45.295C671.303 44.8965 672.402 44.6973 673.716 44.6973C674.631 44.6973 675.531 44.8154 676.417 45.0515C677.302 45.2877 678.062 45.6271 678.697 46.0699L677.967 47.8411C677.317 47.4278 676.623 47.1179 675.885 46.9112C675.147 46.6898 674.424 46.5791 673.716 46.5791C672.461 46.5791 671.517 46.8079 670.882 47.2655C670.262 47.723 669.952 48.3134 669.952 49.0366C669.952 49.568 670.129 50.0034 670.483 50.3429C670.838 50.6676 671.273 50.9259 671.79 51.1177C672.321 51.2949 673.037 51.4867 673.937 51.6934C675.103 51.9738 676.04 52.2542 676.749 52.5347C677.457 52.8151 678.062 53.2431 678.564 53.8188C679.081 54.3944 679.339 55.1693 679.339 56.1434C679.339 56.9552 679.118 57.7006 678.675 58.3795C678.232 59.0437 677.561 59.575 676.66 59.9736C675.76 60.3573 674.653 60.5492 673.339 60.5492ZM688.847 55.0143V60.3721H686.655V54.97L680.5 44.8744H682.869L687.829 53.0439L692.81 44.8744H695.002L688.847 55.0143ZM712.021 60.3721L711.999 49.0809L706.398 58.4902H705.379L699.778 49.1473V60.3721H697.653V44.8744H699.468L705.933 55.767L712.309 44.8744H714.125L714.147 60.3721H712.021ZM729.336 56.4977H721.1L719.396 60.3721H717.115L724.133 44.8744H726.325L733.366 60.3721H731.041L729.336 56.4977ZM728.561 54.7265L725.218 47.1326L721.875 54.7265H728.561ZM746.703 60.3721L743.36 55.6121C742.947 55.6416 742.622 55.6564 742.386 55.6564H738.556V60.3721H736.342V44.8744H742.386C744.393 44.8744 745.972 45.3541 747.124 46.3135C748.275 47.2728 748.85 48.5938 748.85 50.2764C748.85 51.472 748.555 52.4904 747.965 53.3317C747.374 54.173 746.533 54.7855 745.441 55.1693L749.116 60.3721H746.703ZM742.319 53.7745C743.721 53.7745 744.792 53.4719 745.529 52.8668C746.267 52.2616 746.636 51.3982 746.636 50.2764C746.636 49.1547 746.267 48.2986 745.529 47.7083C744.792 47.1031 743.721 46.8005 742.319 46.8005H738.556V53.7745H742.319ZM763.829 52.5347H765.955V58.5788C765.187 59.2134 764.294 59.7005 763.276 60.04C762.257 60.3795 761.195 60.5492 760.088 60.5492C758.523 60.5492 757.114 60.2097 755.859 59.5308C754.604 58.8371 753.615 57.8924 752.892 56.6969C752.184 55.4866 751.83 54.1287 751.83 52.6232C751.83 51.1177 752.184 49.7599 752.892 48.5496C753.615 47.3393 754.604 46.3946 755.859 45.7157C757.128 45.0368 758.553 44.6973 760.132 44.6973C761.372 44.6973 762.493 44.9039 763.497 45.3172C764.516 45.7157 765.379 46.3061 766.087 47.0884L764.715 48.461C763.475 47.2655 761.977 46.6677 760.22 46.6677C759.04 46.6677 757.977 46.926 757.032 47.4426C756.102 47.9444 755.372 48.6529 754.841 49.568C754.309 50.4683 754.044 51.4867 754.044 52.6232C754.044 53.745 754.309 54.7634 754.841 55.6785C755.372 56.5788 756.102 57.2873 757.032 57.8039C757.977 58.3205 759.032 58.5788 760.198 58.5788C761.586 58.5788 762.796 58.2467 763.829 57.5825V52.5347ZM770.858 44.8744H773.072V60.3721H770.858V44.8744ZM785.372 60.5492C783.807 60.5492 782.398 60.2097 781.143 59.5308C779.888 58.8371 778.9 57.8851 778.176 56.6748C777.468 55.4645 777.114 54.114 777.114 52.6232C777.114 51.1325 777.468 49.782 778.176 48.5717C778.9 47.3614 779.888 46.4168 781.143 45.7378C782.398 45.0441 783.807 44.6973 785.372 44.6973C786.921 44.6973 788.324 45.0441 789.578 45.7378C790.833 46.4168 791.814 47.3614 792.523 48.5717C793.231 49.7672 793.585 51.1177 793.585 52.6232C793.585 54.1287 793.231 55.4866 792.523 56.6969C791.814 57.8924 790.833 58.8371 789.578 59.5308C788.324 60.2097 786.921 60.5492 785.372 60.5492ZM785.372 58.5788C786.508 58.5788 787.527 58.3205 788.427 57.8039C789.342 57.2873 790.058 56.5788 790.574 55.6785C791.106 54.7634 791.371 53.745 791.371 52.6232C791.371 51.5015 791.106 50.4905 790.574 49.5901C790.058 48.675 789.342 47.9592 788.427 47.4426C787.527 46.926 786.508 46.6677 785.372 46.6677C784.235 46.6677 783.202 46.926 782.272 47.4426C781.357 47.9592 780.634 48.675 780.102 49.5901C779.586 50.4905 779.328 51.5015 779.328 52.6232C779.328 53.745 779.586 54.7634 780.102 55.6785C780.634 56.5788 781.357 57.2873 782.272 57.8039C783.202 58.3205 784.235 58.5788 785.372 58.5788ZM800.495 46.8005H795.181V44.8744H808V46.8005H802.686V60.3721H800.495V46.8005ZM814.369 46.8005H809.056V44.8744H821.874V46.8005H816.561V60.3721H814.369V46.8005ZM834.046 56.4977H825.81L824.105 60.3721H821.825L828.843 44.8744H831.035L838.075 60.3721H835.75L834.046 56.4977ZM833.271 54.7265L829.928 47.1326L826.585 54.7265H833.271Z" fill="#CFCFDE"/>
<mask id="path-17-inside-1_12224_74836" fill="white">
<path d="M1175.67 58.0531L1157.49 48.284V28.746L1175.67 18.9769L1193.86 28.7466V48.2846L1175.67 58.0531ZM1159.09 47.4214L1175.67 56.3279L1192.25 47.4221V29.6091L1175.67 20.7022L1159.09 29.6085V47.4214Z"/>
</mask>
<path d="M1175.67 58.0531L1157.49 48.284V28.746L1175.67 18.9769L1193.86 28.7466V48.2846L1175.67 58.0531ZM1159.09 47.4214L1175.67 56.3279L1192.25 47.4221V29.6091L1175.67 20.7022L1159.09 29.6085V47.4214Z" fill="#D2D4D7"/>
<path d="M1175.67 58.0531L1160.54 86.2253L1175.67 94.3541L1190.8 86.2254L1175.67 58.0531ZM1157.49 48.284H1125.51V67.407L1142.35 76.4563L1157.49 48.284ZM1157.49 28.746L1142.35 0.573727L1125.51 9.62296V28.746H1157.49ZM1175.67 18.9769L1190.81 -9.19468L1175.67 -17.3246L1160.54 -9.1953L1175.67 18.9769ZM1193.86 28.7466H1225.84V9.62446L1208.99 0.574957L1193.86 28.7466ZM1193.86 48.2846L1208.99 76.457L1225.84 67.4079V48.2846H1193.86ZM1159.09 47.4214H1127.11V66.5444L1143.96 75.5936L1159.09 47.4214ZM1175.67 56.3279L1160.54 84.5001L1175.67 92.6289L1190.8 84.5004L1175.67 56.3279ZM1192.25 47.4221L1207.38 75.5945L1224.23 66.5454V47.4221H1192.25ZM1192.25 29.6091H1224.23V10.487L1207.39 1.43752L1192.25 29.6091ZM1175.67 20.7022L1190.81 -7.46947L1175.67 -15.5993L1160.54 -7.47013L1175.67 20.7022ZM1159.09 29.6085L1143.96 1.43625L1127.11 10.4855V29.6085H1159.09ZM1190.8 29.8808L1172.62 20.1118L1142.35 76.4563L1160.54 86.2253L1190.8 29.8808ZM1189.46 48.284V28.746H1125.51V48.284H1189.46ZM1172.62 56.9182L1190.8 47.1492L1160.54 -9.1953L1142.35 0.573727L1172.62 56.9182ZM1160.54 47.1485L1178.72 56.9182L1208.99 0.574957L1190.81 -9.19468L1160.54 47.1485ZM1161.88 28.7466V48.2846H1225.84V28.7466H1161.88ZM1178.72 20.1122L1160.54 29.8807L1190.8 86.2254L1208.99 76.457L1178.72 20.1122ZM1143.96 75.5936L1160.54 84.5001L1190.8 28.1557L1174.22 19.2493L1143.96 75.5936ZM1190.8 84.5004L1207.38 75.5945L1177.12 19.2496L1160.54 28.1554L1190.8 84.5004ZM1224.23 47.4221V29.6091H1160.27V47.4221H1224.23ZM1207.39 1.43752L1190.81 -7.46947L1160.54 48.8738L1177.12 57.7808L1207.39 1.43752ZM1160.54 -7.47013L1143.96 1.43625L1174.22 57.7808L1190.8 48.8744L1160.54 -7.47013ZM1127.11 29.6085V47.4214H1191.07V29.6085H1127.11Z" fill="#CFCFDE" mask="url(#path-17-inside-1_12224_74836)"/>
<mask id="path-19-inside-2_12224_74836" fill="white">
<path d="M1175.67 39.3776L1157.89 29.8243L1158.69 28.5303L1175.67 37.6524L1192.66 28.5308L1193.46 29.8247L1175.67 39.3776Z"/>
</mask>
<path d="M1175.67 39.3776L1157.89 29.8243L1158.69 28.5303L1175.67 37.6524L1192.66 28.5308L1193.46 29.8247L1175.67 39.3776Z" fill="#D2D4D7"/>
<path d="M1175.67 39.3776L1160.54 67.5499L1175.67 75.6785L1190.81 67.55L1175.67 39.3776ZM1157.89 29.8243L1130.72 12.9648L1112.77 41.8892L1142.76 57.9966L1157.89 29.8243ZM1158.69 28.5303L1173.83 0.358007L1147.36 -13.8594L1131.52 11.6708L1158.69 28.5303ZM1175.67 37.6524L1160.54 65.8247L1175.67 73.9534L1190.81 65.8248L1175.67 37.6524ZM1192.66 28.5308L1219.83 11.6661L1203.99 -13.8559L1177.52 0.358416L1192.66 28.5308ZM1193.46 29.8247L1208.59 57.9971L1238.58 41.8867L1220.63 12.96L1193.46 29.8247ZM1190.81 11.2052L1173.02 1.65195L1142.76 57.9966L1160.54 67.5499L1190.81 11.2052ZM1185.06 46.6838L1185.87 45.3898L1131.52 11.6708L1130.72 12.9648L1185.06 46.6838ZM1143.56 56.7025L1160.54 65.8247L1190.81 9.48015L1173.83 0.358007L1143.56 56.7025ZM1190.81 65.8248L1207.79 56.7032L1177.52 0.358416L1160.54 9.48002L1190.81 65.8248ZM1165.49 45.3955L1166.29 46.6894L1220.63 12.96L1219.83 11.6661L1165.49 45.3955ZM1178.33 1.65222L1160.54 11.2051L1190.81 67.55L1208.59 57.9971L1178.33 1.65222Z" fill="#CFCFDE" mask="url(#path-19-inside-2_12224_74836)"/>
<mask id="path-21-inside-3_12224_74836" fill="white">
<path d="M1176.48 38.5154H1174.87V57.1899H1176.48V38.5154Z"/>
</mask>
<path d="M1176.48 38.5154H1174.87V57.1899H1176.48V38.5154Z" fill="#D2D4D7"/>
<path d="M1174.87 38.5154V6.53595H1142.89V38.5154H1174.87ZM1176.48 38.5154H1208.46V6.53595H1176.48V38.5154ZM1176.48 57.1899V89.1693H1208.46V57.1899H1176.48ZM1174.87 57.1899H1142.89V89.1693H1174.87V57.1899ZM1174.87 70.4948H1176.48V6.53595H1174.87V70.4948ZM1144.5 38.5154V57.1899H1208.46V38.5154H1144.5ZM1176.48 25.2104H1174.87V89.1693H1176.48V25.2104ZM1206.85 57.1899V38.5154H1142.89V57.1899H1206.85Z" fill="#CFCFDE" mask="url(#path-21-inside-3_12224_74836)"/>
<path d="M989.111 56.002V59.4653H974.672V40.8167H988.765V44.28H978.961V48.3294H987.62V51.6862H978.961V56.002H989.111ZM997.929 44.9194C1000.15 44.9194 1001.85 45.4522 1003.04 46.5179C1004.23 47.5657 1004.83 49.1553 1004.83 51.2866V59.4653H1000.94V57.6804C1000.16 59.0124 998.702 59.6785 996.571 59.6785C995.47 59.6785 994.51 59.492 993.694 59.119C992.894 58.746 992.282 58.231 991.855 57.5738C991.429 56.9167 991.216 56.1707 991.216 55.336C991.216 54.004 991.713 52.9561 992.708 52.1924C993.72 51.4287 995.274 51.0468 997.37 51.0468H1000.67C1000.67 50.141 1000.4 49.4484 999.848 48.9688C999.297 48.4715 998.471 48.2229 997.37 48.2229C996.606 48.2229 995.851 48.3472 995.105 48.5959C994.377 48.8267 993.756 49.1464 993.241 49.5549L991.749 46.6511C992.53 46.1005 993.463 45.6742 994.546 45.3723C995.647 45.0704 996.775 44.9194 997.929 44.9194ZM997.61 56.8812C998.32 56.8812 998.951 56.7213 999.501 56.4016C1000.05 56.0642 1000.44 55.5758 1000.67 54.9364V53.4711H997.823C996.118 53.4711 995.265 54.0306 995.265 55.1495C995.265 55.6823 995.47 56.1086 995.878 56.4283C996.304 56.7302 996.882 56.8812 997.61 56.8812ZM1013.41 59.6785C1012.22 59.6785 1011.06 59.5364 1009.92 59.2522C1008.79 58.9503 1007.88 58.5773 1007.21 58.1333L1008.59 55.1495C1009.23 55.558 1010 55.8955 1010.91 56.1619C1011.81 56.4105 1012.7 56.5348 1013.57 56.5348C1015.33 56.5348 1016.21 56.0997 1016.21 55.2294C1016.21 54.8209 1015.97 54.5279 1015.49 54.3503C1015.01 54.1727 1014.27 54.0217 1013.28 53.8974C1012.11 53.7198 1011.14 53.5155 1010.38 53.2846C1009.61 53.0538 1008.95 52.6453 1008.38 52.0592C1007.83 51.4731 1007.55 50.6383 1007.55 49.5549C1007.55 48.6491 1007.81 47.8499 1008.32 47.1572C1008.86 46.4468 1009.62 45.8962 1010.62 45.5055C1011.63 45.1148 1012.82 44.9194 1014.19 44.9194C1015.2 44.9194 1016.2 45.0349 1017.2 45.2657C1018.21 45.4789 1019.04 45.7808 1019.7 46.1715L1018.31 49.1287C1017.05 48.4182 1015.68 48.063 1014.19 48.063C1013.3 48.063 1012.63 48.1874 1012.19 48.436C1011.74 48.6847 1011.52 49.0043 1011.52 49.3951C1011.52 49.8391 1011.76 50.1499 1012.24 50.3275C1012.72 50.5051 1013.48 50.6738 1014.53 50.8337C1015.7 51.0291 1016.66 51.2422 1017.41 51.4731C1018.15 51.6862 1018.8 52.0858 1019.35 52.6719C1019.9 53.258 1020.18 54.075 1020.18 55.1229C1020.18 56.0109 1019.91 56.8012 1019.38 57.4939C1018.85 58.1866 1018.07 58.7283 1017.04 59.119C1016.02 59.492 1014.82 59.6785 1013.41 59.6785ZM1036.71 45.1325L1030.24 60.3445C1029.58 61.9962 1028.76 63.1595 1027.79 63.8344C1026.83 64.5093 1025.66 64.8468 1024.3 64.8468C1023.55 64.8468 1022.81 64.7313 1022.08 64.5005C1021.36 64.2696 1020.76 63.9499 1020.3 63.5414L1021.82 60.5842C1022.14 60.8684 1022.5 61.0904 1022.91 61.2503C1023.34 61.4101 1023.75 61.49 1024.16 61.49C1024.73 61.49 1025.19 61.348 1025.55 61.0638C1025.9 60.7974 1026.22 60.3445 1026.51 59.7051L1026.56 59.5719L1020.35 45.1325H1024.64L1028.66 54.8565L1032.71 45.1325H1036.71ZM1066.41 61.4634C1065.81 62.2093 1065.07 62.7777 1064.2 63.1684C1063.35 63.5591 1062.41 63.7545 1061.38 63.7545C1059.99 63.7545 1058.74 63.4526 1057.62 62.8487C1056.5 62.2626 1055.22 61.2147 1053.78 59.7051C1052.1 59.492 1050.59 58.9503 1049.25 58.08C1047.94 57.2097 1046.91 56.0908 1046.16 54.7233C1045.44 53.3379 1045.07 51.8105 1045.07 50.141C1045.07 48.3117 1045.51 46.6688 1046.38 45.2125C1047.26 43.7383 1048.48 42.5839 1050.03 41.7491C1051.59 40.9144 1053.34 40.497 1055.27 40.497C1057.21 40.497 1058.95 40.9144 1060.5 41.7491C1062.04 42.5839 1063.26 43.7383 1064.15 45.2125C1065.03 46.6688 1065.48 48.3117 1065.48 50.141C1065.48 52.3078 1064.87 54.2082 1063.64 55.8422C1062.43 57.4761 1060.82 58.6128 1058.82 59.2522C1059.26 59.714 1059.69 60.0426 1060.1 60.2379C1060.52 60.451 1060.98 60.5576 1061.46 60.5576C1062.61 60.5576 1063.62 60.0958 1064.49 59.1723L1066.41 61.4634ZM1049.44 50.141C1049.44 51.2955 1049.69 52.3256 1050.19 53.2314C1050.7 54.1372 1051.4 54.8476 1052.29 55.3626C1053.18 55.8599 1054.17 56.1086 1055.27 56.1086C1056.38 56.1086 1057.37 55.8599 1058.26 55.3626C1059.15 54.8476 1059.84 54.1372 1060.34 53.2314C1060.85 52.3256 1061.11 51.2955 1061.11 50.141C1061.11 48.9866 1060.85 47.9565 1060.34 47.0507C1059.84 46.1449 1059.15 45.4433 1058.26 44.9461C1057.37 44.431 1056.38 44.1735 1055.27 44.1735C1054.17 44.1735 1053.18 44.431 1052.29 44.9461C1051.4 45.4433 1050.7 46.1449 1050.19 47.0507C1049.69 47.9565 1049.44 48.9866 1049.44 50.141ZM1082.87 45.1325V59.4653H1078.93V57.7603C1078.37 58.3819 1077.72 58.8615 1076.95 59.1989C1076.19 59.5186 1075.36 59.6785 1074.48 59.6785C1072.59 59.6785 1071.1 59.1368 1070 58.0534C1068.9 56.97 1068.35 55.3626 1068.35 53.2314V45.1325H1072.5V52.6186C1072.5 54.9275 1073.47 56.0819 1075.41 56.0819C1076.4 56.0819 1077.2 55.7622 1077.81 55.1229C1078.41 54.4657 1078.71 53.4978 1078.71 52.219V45.1325H1082.87ZM1086.72 45.1325H1090.87V59.4653H1086.72V45.1325ZM1088.8 43.1345C1088.03 43.1345 1087.41 42.9125 1086.93 42.4684C1086.45 42.0244 1086.21 41.4739 1086.21 40.8167C1086.21 40.1596 1086.45 39.609 1086.93 39.165C1087.41 38.721 1088.03 38.499 1088.8 38.499C1089.56 38.499 1090.18 38.7121 1090.66 39.1383C1091.14 39.5646 1091.38 40.0974 1091.38 40.7368C1091.38 41.4295 1091.14 42.0067 1090.66 42.4684C1090.18 42.9125 1089.56 43.1345 1088.8 43.1345ZM1106.53 56.2684V59.4653H1093.75V56.9611L1101.05 48.3294H1093.93V45.1325H1106.29V47.6368L1098.99 56.2684H1106.53ZM1121 56.2684V59.4653H1108.21V56.9611L1115.51 48.3294H1108.4V45.1325H1120.76V47.6368L1113.46 56.2684H1121ZM1135.46 56.2684V59.4653H1122.68V56.9611L1129.98 48.3294H1122.86V45.1325H1135.22V47.6368L1127.92 56.2684H1135.46Z" fill="#CFCFDE"/>
</svg>
