<svg width="60" height="67" viewBox="0 0 60 67" fill="none"
  xmlns="http://www.w3.org/2000/svg">
  <path d="M9.18359 38.2985H17.1765V30.3154H9.18359V38.2985Z" fill="currentColor"/>
  <path d="M45.5648 30.3154H37.5723V38.2985H45.5648V30.3154Z" fill="currentColor"/>
  <path d="M23.3789 38.2985H31.3706V30.3154H23.3789V38.2985Z" fill="currentColor"/>
  <path d="M9.18359 53.01H17.1765V45.0273H9.18359V53.01Z" fill="currentColor"/>
  <path d="M23.3789 53.01H31.3706V45.0273H23.3789V53.01Z" fill="currentColor"/>
  <path d="M47.4582 63.7134C42.2692 63.7134 38.0484 59.4971 38.0484 54.3146C38.0484 49.1334 42.2692 44.9159 47.4582 44.9159C52.6463 44.9159 56.8679 49.1334 56.8679 54.3146C56.8679 59.4971 52.6463 63.7134 47.4582 63.7134ZM3.13291 60.3437V25.4845H51.6169V42.5104C50.3135 42.05 48.9175 41.7875 47.4582 41.7875C40.5421 41.7875 34.9159 47.4075 34.9159 54.3146C34.9159 56.652 35.5719 58.8346 36.692 60.7094H3.49824C3.297 60.7094 3.13291 60.5449 3.13291 60.3437ZM40.0539 11.194V12.7108C40.0539 14.0073 41.1058 15.058 42.4031 15.058C43.7011 15.058 44.7522 14.0073 44.7522 12.7108V11.194C45.5825 11.8757 46.1229 12.8962 46.1229 14.053C46.1229 16.1046 44.4579 17.7684 42.4031 17.7684C40.349 17.7684 38.6836 16.1046 38.6836 14.053C38.6836 12.8962 39.224 11.8761 40.0539 11.194ZM25.0257 11.254V12.7108C25.0257 14.0073 26.0776 15.058 27.3749 15.058C28.6721 15.058 29.7241 14.0073 29.7241 12.7108V11.1352C30.5964 11.8148 31.167 12.8623 31.167 14.053C31.167 16.1046 29.502 17.7684 27.4475 17.7684C25.3927 17.7684 23.7277 16.1046 23.7277 14.053C23.7277 12.9296 24.2371 11.9353 25.0257 11.254ZM9.99714 11.194V12.7108C9.99714 14.0073 11.0491 15.058 12.3463 15.058C13.6444 15.058 14.6959 14.0073 14.6959 12.7108V11.194C15.5258 11.8761 16.0662 12.8962 16.0662 14.053C16.0662 16.1046 14.4004 17.7684 12.3463 17.7684C10.2919 17.7684 8.62683 16.1046 8.62683 14.053C8.62683 12.8962 9.16728 11.8757 9.99714 11.194ZM54.7498 44.142V9.88285C54.7498 7.95657 53.1807 6.38909 51.2511 6.38909H44.7522V2.34672C44.7522 1.0507 43.7011 0 42.4031 0C41.1058 0 40.0539 1.0507 40.0539 2.34672V6.38909H29.7241V2.34672C29.7241 1.0507 28.6721 0 27.3749 0C26.0776 0 25.0257 1.0507 25.0257 2.34672V6.38909H14.6959V2.34672C14.6959 1.0507 13.6444 0 12.3463 0C11.0491 0 9.99714 1.0507 9.99714 2.34672V6.38909H3.49824C1.56911 6.38909 0 7.95657 0 9.88285V60.3437C0 62.2708 1.56911 63.8379 3.49824 63.8379H39.3302C41.5218 65.7066 44.3571 66.8426 47.4582 66.8426C54.3742 66.8426 60 61.2225 60 54.3146C60 50.1249 57.9227 46.4173 54.7498 44.142Z" fill="currentColor"/>
  <path d="M53.2857 56.463L48.242 53.8403V48.8354C48.242 48.4035 47.891 48.0537 47.4591 48.0537C47.0264 48.0537 46.6758 48.4035 46.6758 48.8354V54.3146C46.6758 54.6069 46.8382 54.8743 47.097 55.0086L52.5628 57.85C52.6783 57.9104 52.8016 57.9386 52.9236 57.9386C53.2069 57.9386 53.4796 57.7851 53.6192 57.5177C53.8192 57.134 53.6698 56.6626 53.2857 56.463Z" fill="currentColor"/>
</svg>
