<svg width="29" height="31" viewBox="0 0 29 31" fill="none"
  xmlns="http://www.w3.org/2000/svg">
  <path d="M24.8538 19.3649V5.08183C24.8538 3.68103 23.8214 2.5411 22.5524 2.5411H21.632V1.52451C21.632 0.683955 21.0126 0 20.251 0C19.4897 0 18.8703 0.683955 18.8703 1.52451V2.5411H16.5693V1.52451C16.5693 0.683955 15.9498 0 15.1883 0C14.427 0 13.8076 0.683955 13.8076 1.52451V2.5411H11.0462V1.52451C11.0462 0.683955 10.4268 0 9.66516 0C8.9039 0 8.28447 0.683955 8.28447 1.52451V2.5411H5.98344V1.52451C5.98344 0.683955 5.364 0 4.60241 0C3.84115 0 3.22172 0.683955 3.22172 1.52451V2.5411H2.30137C1.03239 2.5411 0 3.68103 0 5.08183V25.4099C0 26.8107 1.03239 27.951 2.30137 27.951H17.7767C18.7332 29.7707 20.5133 31 22.5524 31C25.5981 31 28.0755 28.2646 28.0755 24.9016C28.0755 22.4464 26.752 20.331 24.8538 19.3649ZM19.791 1.52451C19.791 1.2442 19.9971 1.01622 20.251 1.01622C20.5052 1.01622 20.7113 1.2442 20.7113 1.52451V4.57391C20.7113 4.85421 20.5052 5.08183 20.251 5.08183C19.9971 5.08183 19.791 4.85421 19.791 4.57391V1.52451ZM14.7282 1.52451C14.7282 1.2442 14.9344 1.01622 15.1883 1.01622C15.4425 1.01622 15.6486 1.2442 15.6486 1.52451V4.57391C15.6486 4.85421 15.4425 5.08183 15.1883 5.08183C14.9344 5.08183 14.7282 4.85421 14.7282 4.57391V1.52451ZM9.20516 1.52451C9.20516 1.2442 9.41129 1.01622 9.66516 1.01622C9.91936 1.01622 10.1255 1.2442 10.1255 1.52451V4.57391C10.1255 4.85421 9.91936 5.08183 9.66516 5.08183C9.41129 5.08183 9.20516 4.85421 9.20516 4.57391V1.52451ZM4.1424 1.52451C4.1424 1.2442 4.34854 1.01622 4.60241 1.01622C4.85661 1.01622 5.06275 1.2442 5.06275 1.52451V4.57391C5.06275 4.85421 4.85661 5.08183 4.60241 5.08183C4.34854 5.08183 4.1424 4.85421 4.1424 4.57391V1.52451ZM2.30137 3.55732H3.22172V4.57391C3.22172 5.41446 3.84115 6.09842 4.60241 6.09842C5.364 6.09842 5.98344 5.41446 5.98344 4.57391V3.55732H8.28447V4.57391C8.28447 5.41446 8.9039 6.09842 9.66516 6.09842C10.4268 6.09842 11.0462 5.41446 11.0462 4.57391V3.55732H13.8076V4.57391C13.8076 5.41446 14.427 6.09842 15.1883 6.09842C15.9498 6.09842 16.5693 5.41446 16.5693 4.57391V3.55732H18.8703V4.57391C18.8703 5.41446 19.4897 6.09842 20.251 6.09842C21.0126 6.09842 21.632 5.41446 21.632 4.57391V3.55732H22.5524C23.314 3.55732 23.9331 4.24127 23.9331 5.08183V7.62293H0.920346V5.08183C0.920346 4.24127 1.53978 3.55732 2.30137 3.55732ZM2.30137 26.9344C1.53978 26.9344 0.920346 26.2504 0.920346 25.4099V8.63952H23.9331V19.0039C23.491 18.8775 23.03 18.8032 22.5524 18.8032C22.2383 18.8032 21.9319 18.839 21.632 18.8951V16.2624C21.632 15.9814 21.4259 15.7541 21.1717 15.7541H18.4103C18.1558 15.7541 17.95 15.9814 17.95 16.2624V19.3115C17.95 19.5925 18.1558 19.8198 18.4103 19.8198H19.506C18.015 20.913 17.0293 22.7817 17.0293 24.9016C17.0293 25.6151 17.1467 26.2975 17.3515 26.9344H2.30137ZM20.7113 18.8032H18.8703V16.7704H20.7113V18.8032ZM22.5524 29.9838C20.0147 29.9838 17.95 27.7036 17.95 24.9016C17.95 22.0996 20.0147 19.8198 22.5524 19.8198C25.09 19.8198 27.1551 22.0996 27.1551 24.9016C27.1551 27.7036 25.09 29.9838 22.5524 29.9838Z" fill="currentColor"/>
  <path d="M23.012 24.0262V20.8359H22.0913V24.0262C21.8175 24.2023 21.6313 24.5263 21.6313 24.9015C21.6313 24.9531 21.6381 25.0025 21.6448 25.0518L19.9629 26.5374L20.538 27.3313L22.2189 25.8468C22.3221 25.8912 22.4338 25.9181 22.5516 25.9181C23.06 25.9181 23.4723 25.4629 23.4723 24.9015C23.4723 24.5263 23.2858 24.2023 23.012 24.0262Z" fill="currentColor"/>
  <path d="M5.98378 10.1641H3.22206C2.96786 10.1641 2.76172 10.3913 2.76172 10.672V13.7214C2.76172 14.0021 2.96786 14.2297 3.22206 14.2297H5.98378C6.23798 14.2297 6.44378 14.0021 6.44378 13.7214V10.672C6.44378 10.3913 6.23798 10.1641 5.98378 10.1641ZM5.52343 13.2131H3.6824V11.1803H5.52343V13.2131Z" fill="currentColor"/>
  <path d="M11.0479 10.1641H8.28618C8.03197 10.1641 7.82617 10.3913 7.82617 10.672V13.7214C7.82617 14.0021 8.03197 14.2297 8.28618 14.2297H11.0479C11.3021 14.2297 11.5079 14.0021 11.5079 13.7214V10.672C11.5079 10.3913 11.3021 10.1641 11.0479 10.1641ZM10.5876 13.2131H8.74652V11.1803H10.5876V13.2131Z" fill="currentColor"/>
  <path d="M16.1084 10.1641H13.3467C13.0925 10.1641 12.8867 10.3913 12.8867 10.672V13.7214C12.8867 14.0021 13.0925 14.2297 13.3467 14.2297H16.1084C16.3626 14.2297 16.5688 14.0021 16.5688 13.7214V10.672C16.5688 10.3913 16.3626 10.1641 16.1084 10.1641ZM15.6481 13.2131H13.8071V11.1803H15.6481V13.2131Z" fill="currentColor"/>
  <path d="M18.4115 14.2297H21.1729C21.4271 14.2297 21.6332 14.0021 21.6332 13.7214V10.672C21.6332 10.3913 21.4271 10.1641 21.1729 10.1641H18.4115C18.157 10.1641 17.9512 10.3913 17.9512 10.672V13.7214C17.9512 14.0021 18.157 14.2297 18.4115 14.2297ZM18.8715 11.1803H20.7126V13.2131H18.8715V11.1803Z" fill="currentColor"/>
  <path d="M5.98378 15.7544H3.22206C2.96786 15.7544 2.76172 15.9816 2.76172 16.2627V19.3117C2.76172 19.5928 2.96786 19.82 3.22206 19.82H5.98378C6.23798 19.82 6.44378 19.5928 6.44378 19.3117V16.2627C6.44378 15.9816 6.23798 15.7544 5.98378 15.7544ZM5.52343 18.8034H3.6824V16.7706H5.52343V18.8034Z" fill="currentColor"/>
  <path d="M11.0479 15.7544H8.28618C8.03197 15.7544 7.82617 15.9816 7.82617 16.2627V19.3117C7.82617 19.5928 8.03197 19.82 8.28618 19.82H11.0479C11.3021 19.82 11.5079 19.5928 11.5079 19.3117V16.2627C11.5079 15.9816 11.3021 15.7544 11.0479 15.7544ZM10.5876 18.8034H8.74652V16.7706H10.5876V18.8034Z" fill="currentColor"/>
  <path d="M16.1084 15.7544H13.3467C13.0925 15.7544 12.8867 15.9816 12.8867 16.2627V19.3117C12.8867 19.5928 13.0925 19.82 13.3467 19.82H16.1084C16.3626 19.82 16.5688 19.5928 16.5688 19.3117V16.2627C16.5688 15.9816 16.3626 15.7544 16.1084 15.7544ZM15.6481 18.8034H13.8071V16.7706H15.6481V18.8034Z" fill="currentColor"/>
  <path d="M5.98378 21.3442H3.22206C2.96786 21.3442 2.76172 21.5715 2.76172 21.8525V24.9015C2.76172 25.1826 2.96786 25.4098 3.22206 25.4098H5.98378C6.23798 25.4098 6.44378 25.1826 6.44378 24.9015V21.8525C6.44378 21.5715 6.23798 21.3442 5.98378 21.3442ZM5.52343 24.3932H3.6824V22.3605H5.52343V24.3932Z" fill="currentColor"/>
  <path d="M11.0479 21.3442H8.28618C8.03197 21.3442 7.82617 21.5715 7.82617 21.8525V24.9015C7.82617 25.1826 8.03197 25.4098 8.28618 25.4098H11.0479C11.3021 25.4098 11.5079 25.1826 11.5079 24.9015V21.8525C11.5079 21.5715 11.3021 21.3442 11.0479 21.3442ZM10.5876 24.3932H8.74652V22.3605H10.5876V24.3932Z" fill="currentColor"/>
  <path d="M16.1084 21.3442H13.3467C13.0925 21.3442 12.8867 21.5715 12.8867 21.8525V24.9015C12.8867 25.1826 13.0925 25.4098 13.3467 25.4098H16.1084C16.3626 25.4098 16.5688 25.1826 16.5688 24.9015V21.8525C16.5688 21.5715 16.3626 21.3442 16.1084 21.3442ZM15.6481 24.3932H13.8071V22.3605H15.6481V24.3932Z" fill="currentColor"/>
</svg>
