<svg width="154" height="147" viewBox="0 0 154 147" fill="none"
  xmlns="http://www.w3.org/2000/svg">
  <path d="M27.0488 144.5H123.132" stroke="black"/>
  <path d="M94.3418 70C93.6734 70.0732 55.3586 106.871 25.8203 82.1032V104.191C25.8203 104.191 33.7586 107.497 42.5252 106.237C51.2927 104.979 54.2987 103.342 55.4676 102.343C56.6373 101.344 94.3418 70 94.3418 70Z" fill="#1EB3FB"/>
  <path d="M147.206 4.68867L147.82 3.54416L145.5 2L111.82 10.737L113.03 13L147.206 4.68867Z" fill="#1EB3FB"/>
  <path d="M125.574 19.4456L123.396 18C123.396 18 69.3719 98.3364 39.8203 101.743L44.8414 104L76.5923 85.5367L125.82 21.6131L125.574 19.4456Z" fill="#1EB3FB"/>
  <path d="M31.332 104.95C31.332 104.95 65.5231 119.498 97.2585 83.3211C128.996 47.1451 143.501 30.5056 143.501 30.5056L149.82 34.2032L148.431 3.59326L113.271 13.3515L124.43 20.4909C124.43 20.4909 66.0815 106.976 31.332 104.95Z" fill="url(#paint0_linear)"/>
  <path d="M119.335 131.963C119.335 132.103 118.814 135.695 119.335 136.026C119.855 136.356 129.64 136.592 131.105 136.452C132.57 136.31 132.475 134.938 132.475 134.938L124.009 131.792L119.335 131.963Z" fill="#26285D"/>
  <path d="M98.5118 131.51C98.5118 131.51 97.5141 134.918 98.5118 135.441C99.5064 135.966 101.343 135.81 102.235 135.441C103.125 135.075 105.645 132.888 106.011 132.016C106.377 131.143 105.592 129.78 101.607 130.881C97.6179 131.981 98.5118 131.51 98.5118 131.51Z" fill="#26285D"/>
  <path d="M118.744 86.9289C118.744 86.9289 109.993 110.156 109.143 110.532C108.292 110.911 103.47 112.328 102.998 110.532C102.524 108.738 107.024 85.5298 107.024 85.5298L118.744 86.9289Z" fill="#26285D"/>
  <path d="M107.434 81.4415C107.434 81.4415 109.237 81.1261 110.096 79.903C110.096 79.903 110.233 79.8378 110.351 80.0335C110.472 80.2303 110.336 81.2616 109.989 81.6422C109.642 82.0268 108.696 82.0852 108.696 82.0852L107.434 81.4415Z" fill="#E66F64"/>
  <path d="M104.251 75.8133C104.251 75.8133 106.351 79.7634 107.716 82.0938C107.716 82.0938 109.603 84.804 107.515 85.3339C105.426 85.8659 101.238 79.6675 99.6236 76.282C98.707 74.3619 103.919 75.5098 104.251 75.8133Z" fill="#26285D"/>
  <path d="M104.326 61.0537C104.326 61.0537 101.994 63.0371 99.5723 76.1142C99.5723 76.1142 99.5101 77.1721 102.928 76.5166C105.008 76.1142 104.257 75.2144 107.16 68.1261C107.16 68.1261 105.625 60.0946 104.326 61.0537Z" fill="#26285D"/>
  <path d="M111.157 82.2028C111.775 82.8574 111.602 83.763 111.167 84.5026C110.472 84.7241 109.367 85.6426 107.103 83.7512C107.103 83.7512 106.55 82.2295 108.364 81.3654C108.364 81.3654 107.853 80.9718 109.305 81.3476C109.719 81.4553 110.228 81.4998 110.748 81.5226C110.834 81.7697 110.968 82.0041 111.157 82.2028Z" fill="#E66F64"/>
  <path d="M114.461 47.4485C114.461 47.4485 115.441 47.5394 116.293 48.891C117.143 50.2426 117.479 53.6825 117.459 55.2664C117.438 56.8494 116.689 56.9394 116.689 56.9394L115.293 56.8455L115.358 60.3456C115.358 60.3456 111.547 61.1712 110.572 60.5255L111.055 57.2943C111.055 57.2943 106.96 46.0474 114.461 47.4485Z" fill="#F68C82"/>
  <path d="M114.963 52.1023C114.963 52.1023 113.83 51.3785 114.23 52.7608C114.632 54.1411 113.678 54.0788 114.063 55.3167C114.448 56.5546 114.228 57.0242 113.977 57.1854C112.695 58.008 112.955 56.6446 112.015 56.7553C111.077 56.866 111.895 57.8261 111.153 57.5868C110.41 57.3476 109.76 57.3812 109.288 56.7128C108.906 56.1719 109.189 56.0029 108.97 55.4966C108.659 54.7729 108.24 54.1648 108.336 53.3422C108.429 52.5235 108.014 51.5585 107.955 50.6617C107.897 49.7649 108.56 47.7093 109.002 47.4206C109.443 47.1309 110.183 47.1002 110.677 46.8501C111.172 46.6009 112.489 45.9553 113.888 46.0759C115.382 46.2025 115.534 47.5086 116.23 47.4908C117.296 47.4671 117.599 47.9031 117.734 48.6476C117.87 49.3941 117.357 50.0852 117.119 49.7352C116.265 48.4746 116.075 48.8691 116.075 48.8691C116.075 48.8691 114.964 50.104 114.914 50.4906C114.864 50.8782 114.963 52.1023 114.963 52.1023Z" fill="#2E3192"/>
  <path d="M115.897 59.1441L115.791 57.6353C115.791 57.6353 112.693 56.6861 110.676 57.6738L110.537 59.4002L115.897 59.1441Z" fill="#DAD9D9"/>
  <path d="M110.839 58.7438C110.839 58.7438 105.447 60.6363 104.595 61.0743C103.741 61.5133 104.763 69.7802 105.251 70.4396C105.74 71.0991 106.076 80.1392 106.076 80.1392L105.435 91.7015C105.435 91.7015 117.408 95.4934 122.855 91.4257L121.722 73.2882L122.468 60.9764L113.833 58.5322C113.051 58.5866 110.839 58.7438 110.839 58.7438Z" fill="#2E3192"/>
  <path d="M120.54 86.125C120.823 86.1665 121.643 86.7716 121.643 86.7716C121.643 86.7716 124.245 107.02 122.94 111.122C122.94 111.122 119.313 113.466 117.124 110.049C114.938 106.631 110.679 95.9719 110.396 95.7435C110.11 95.5141 107.023 86.7716 107.023 86.7716L120.54 86.125Z" fill="#2E3192"/>
  <path d="M124.559 81.7418C124.559 81.7418 122.728 81.6934 121.697 80.6147C121.697 80.6147 121.554 80.5682 121.464 80.7798C121.375 80.9924 121.66 81.992 122.061 82.3193C122.459 82.6446 123.403 82.5645 123.403 82.5645L124.559 81.7418Z" fill="#E66F64"/>
  <path d="M126.287 74.8417C126.287 74.8417 125.496 77.3145 123.961 81.7273C123.961 81.7273 121.974 84.5778 124.127 84.6431C126.282 84.7093 129.399 80.087 130.732 76.9062C131.554 74.9435 131.522 72.27 126.287 74.8417Z" fill="#2E3192"/>
  <path d="M122.374 60.846C122.374 60.846 125.424 61.8822 130.617 74.1268C130.617 74.1268 130.908 75.1482 127.428 75.247C125.309 75.3044 125.85 74.2632 121.48 67.9709C121.48 67.9709 120.898 60.1934 122.374 60.846Z" fill="#2E3192"/>
  <path d="M121.171 82.9145C120.654 83.6541 120.938 85.8046 121.477 86.473C122.198 86.5896 123.629 86.3227 125.59 84.1178C125.59 84.1178 124.721 83.4079 124.394 82.3539C124.394 82.3539 124.256 81.2109 122.876 81.7962C122.482 81.9643 122.182 82.3638 121.671 82.4626C121.358 82.4854 121.328 82.6881 121.171 82.9145Z" fill="#E66F64"/>
  <path d="M123.461 107.61C123.461 107.61 124.32 128.776 124.415 132.085C124.458 133.581 119.996 135.678 119.549 132.429C119.1 129.181 115.251 114.194 116.696 109.334C116.696 109.334 119.784 108.405 120.404 108.608C121.028 108.811 123.461 107.61 123.461 107.61Z" fill="#2E3192"/>
  <path d="M107.967 108.954C108.533 109.332 109.465 110.073 109.465 110.073C109.465 110.073 103.153 131.068 102.566 132.2C101.979 133.334 98.7951 133.714 98.3225 131.634C97.8508 129.555 100.082 112.093 103.572 108.123L107.967 108.954Z" fill="#26285D"/>
  <path d="M45.2041 127.154C45.2041 127.287 44.7097 130.693 45.2041 131.006C45.6955 131.319 54.9689 131.544 56.3591 131.409C57.7483 131.274 57.6583 129.975 57.6583 129.975L49.6337 126.994L45.2041 127.154Z" fill="#26285D"/>
  <path d="M25.4685 126.727C25.4685 126.727 24.5242 129.954 25.4685 130.451C26.4127 130.949 28.1519 130.799 28.9973 130.451C29.8437 130.105 32.2285 128.032 32.5766 127.204C32.9256 126.377 32.1781 125.086 28.4021 126.129C24.6231 127.172 25.4685 126.727 25.4685 126.727Z" fill="#26285D"/>
  <path d="M44.6434 84.4748C44.6434 84.4748 36.3508 106.486 35.545 106.845C34.7372 107.203 30.1692 108.548 29.7203 106.845C29.2734 105.144 33.5369 83.1489 33.5369 83.1489L44.6434 84.4748Z" fill="#26285D"/>
  <path d="M46.3463 83.7134C46.6152 83.7549 47.3914 84.3264 47.3914 84.3264C47.3914 84.3264 49.8583 103.515 48.6233 107.405C48.6233 107.405 45.1845 109.624 43.1101 106.388C41.0367 103.149 37.0007 93.0431 36.7317 92.8286C36.4628 92.6121 33.5371 84.3264 33.5371 84.3264L46.3463 83.7134Z" fill="#2E3192"/>
  <path d="M49.1117 104.076C49.1117 104.076 49.9284 124.136 50.0183 127.271C50.0599 128.688 45.829 130.675 45.4069 127.596C44.9817 124.519 41.3322 110.316 42.7026 105.709C42.7026 105.709 45.6283 104.827 46.2186 105.02C46.8079 105.212 49.1117 104.076 49.1117 104.076Z" fill="#2E3192"/>
  <path d="M34.4283 105.349C34.9672 105.707 35.8491 106.409 35.8491 106.409C35.8491 106.409 29.8673 126.305 29.3116 127.381C28.7569 128.456 25.7373 128.815 25.2904 126.842C24.8415 124.874 26.9564 108.324 30.2637 104.563L34.4283 105.349Z" fill="#26285D"/>
  <path d="M33.9258 79.275C33.9258 79.275 35.6353 78.9754 36.449 77.8166C36.449 77.8166 36.5776 77.7543 36.6923 77.9412C36.806 78.1281 36.6765 79.103 36.3472 79.4648C36.0199 79.8287 35.1222 79.8841 35.1222 79.8841L33.9258 79.275Z" fill="#E66F64"/>
  <path d="M30.9838 73.6916C30.9838 73.6916 30.527 77.2006 34.5492 79.5884C34.5492 79.5884 36.8243 81.4097 34.8458 81.91C32.8634 82.4123 29.2515 80.237 27.7239 77.0286C26.8558 75.2073 26.1963 69.2432 30.9838 73.6916Z" fill="#E66F64"/>
  <path d="M31.7442 59.9403C31.7442 59.9403 29.1329 61.5232 26.8321 73.9171C26.8321 73.9171 26.7738 74.9217 30.0129 74.2998C31.9864 73.9201 31.2725 73.0688 34.0292 66.3493C34.0292 66.3493 32.9752 59.0326 31.7442 59.9403Z" fill="#BDBCBC"/>
  <path d="M31.4225 72.9631C31.4225 72.9631 31.8645 74.0863 31.3147 74.6024C30.767 75.1176 26.8298 76.0163 26.5421 75.7059C26.2524 75.3944 25.3071 72.5696 26.5698 71.9724C27.8363 71.3732 31.4225 72.9631 31.4225 72.9631Z" fill="#BDBCBC"/>
  <path d="M37.4552 79.997C38.0406 80.617 37.8774 81.4742 37.4651 82.1772C36.8066 82.3888 35.7586 83.2539 33.612 81.4633C33.612 81.4633 33.089 80.0217 34.8074 79.2021C34.8074 79.2021 34.3249 78.8303 35.6982 79.1853C36.0928 79.2891 36.5753 79.3306 37.0667 79.3514C37.1487 79.5867 37.2743 79.8062 37.4552 79.997Z" fill="#E66F64"/>
  <path d="M42.3138 45.7114C42.3138 45.7114 43.2392 45.8409 43.9818 47.1609C44.7293 48.4799 44.8904 51.7497 44.7985 53.2476C44.7085 54.7475 43.9946 54.798 43.9946 54.798L42.5046 55.2498L42.5807 57.9609C42.5807 57.9609 39.7253 58.4494 38.8304 57.7929L38.6446 54.879C38.6446 54.879 35.2789 44.0474 42.3138 45.7114Z" fill="#F68C82"/>
  <path d="M42.4014 50.1447C42.4014 50.1447 41.5777 49.3754 41.6786 50.735C41.8556 53.1317 42.3697 53.453 42.6762 54.6445C42.9847 55.8349 42.9758 55.8517 41.7221 56.5666C40.4713 57.2824 40.4951 56.965 39.6012 57.0293C38.7074 57.0916 38.2655 56.532 37.5733 56.2729C36.8812 56.0148 36.6133 55.8537 36.196 55.2011C35.8598 54.6721 35.7432 54.1184 35.5603 53.63C35.2982 52.929 35.3368 51.5447 35.4624 50.7725C35.5879 50.0023 35.2943 49.3369 35.2795 48.4856C35.2656 47.6353 36.1891 46.0829 36.6202 45.8288C37.0513 45.5757 38.1033 45.1931 38.5828 44.9805C39.0614 44.7669 40.8213 43.6121 41.8674 44.4367C42.9135 45.2613 43.5562 44.9251 44.2187 44.9409C45.2282 44.9666 45.7206 46.2322 45.8155 46.9441C45.9094 47.656 45.4427 48.0486 45.0986 48.2512C44.7536 48.4559 43.9537 47.9279 43.9537 47.9279C43.9537 47.9279 42.4933 48.2532 42.429 48.6171C42.3648 48.9809 42.4014 50.1447 42.4014 50.1447Z" fill="#2E3192"/>
  <path d="M38.8043 57.3726C38.8043 57.3726 32.4071 59.2512 31.5973 59.6675C30.7885 60.0827 31.7536 67.9146 32.2163 68.5414C32.679 69.1673 33.4423 74.4986 33.4423 74.4986L32.8471 84.5373C32.8471 84.5373 43.3297 87.6597 48.492 83.8066L47.8236 71.2466L48.5374 59.5805L41.1169 57.2114L38.8043 57.3726Z" fill="#DAD9D9"/>
  <path d="M50.6826 79.1396C50.6826 79.1396 48.9484 79.0951 47.9715 78.0698C47.9715 78.0698 47.8341 78.0243 47.75 78.227C47.665 78.4277 47.9369 79.3739 48.3146 79.6834C48.6933 79.9949 49.5881 79.9207 49.5881 79.9207L50.6826 79.1396Z" fill="#F68C82"/>
  <path d="M52.1534 72.7218C52.1534 72.7218 53.3558 76.0509 49.9436 79.2485C49.9436 79.2485 48.1135 81.5157 50.1552 81.5799C52.197 81.6422 55.2571 78.7412 56.057 75.2797C56.5128 73.314 55.8721 67.347 52.1534 72.7218Z" fill="#F68C82"/>
  <path d="M48.4476 59.4574C48.4476 59.4574 51.3387 60.4402 56.2557 72.0481C56.2557 72.0481 56.5286 73.016 53.2322 73.106C51.224 73.1594 51.7372 72.1746 47.5983 66.2086C47.5983 66.2086 47.0496 58.8375 48.4476 59.4574Z" fill="#DAD9D9"/>
  <path d="M51.5686 72.1038C51.5686 72.1038 51.3798 73.2972 52.0264 73.6818C52.6721 74.0655 56.7101 74.0971 56.9256 73.7333C57.1402 73.3664 57.4556 70.4051 56.0921 70.0917C54.7267 69.7803 51.5686 72.1038 51.5686 72.1038Z" fill="#DAD9D9"/>
  <path d="M47.2994 80.3726C46.809 81.0726 47.0987 81.8963 47.6079 82.53C48.2901 82.6408 49.4548 83.3457 51.3147 81.2575C51.3147 81.2575 51.6202 79.7546 49.7989 79.199C49.7989 79.199 50.2241 78.759 48.916 79.3127C48.5412 79.4719 48.0706 79.5846 47.5891 79.6765C47.5406 79.9207 47.4487 80.158 47.2994 80.3726Z" fill="#F68C82"/>
  <path d="M76.7585 142.587C76.7466 142.702 75.3001 143.837 76.2889 145.12C76.5973 145.521 82.0631 145.77 83.2704 145.772C84.4776 145.772 88.1251 144.116 85.7185 143.463C83.3139 142.812 80.2844 142.931 80.2844 142.931L76.7585 142.587Z" fill="#26285D"/>
  <path d="M73.3985 118.126C73.3985 118.126 69.7046 121.713 69.407 130.239C69.407 130.239 69.1766 139.07 69.9923 139.07C71.3785 139.07 77.9359 120.021 77.8765 118.636C77.8182 117.251 73.3985 118.126 73.3985 118.126Z" fill="#E66F64"/>
  <path d="M78.1564 118.697C78.1564 118.697 75.1901 124.139 75.6895 132.615C75.6895 132.615 76.8314 142.338 77.7263 142.207C79.246 141.99 83.4293 120.062 83.1475 118.55C82.8647 117.039 78.1564 118.697 78.1564 118.697Z" fill="#F68C82"/>
  <path d="M79.4606 112.817C79.4606 112.817 78.3038 119.352 76.6318 119.644C74.9599 119.933 73.3383 118.882 73.0407 118.64C73.0012 118.606 72.9369 118.472 72.8568 118.267C72.3595 116.972 71.2422 112.817 71.2422 112.817H79.4606Z" fill="#E66F64"/>
  <path d="M74.1816 106.05C74.1816 106.05 76.8908 116.887 78.1317 119.124C79.3043 121.239 83.1624 118.7 83.1624 118.7C83.1624 118.7 83.6488 111.689 83.6943 111.287C83.7388 110.887 74.1816 106.05 74.1816 106.05Z" fill="#F68C82"/>
  <path d="M79.1079 58.2021C79.1079 58.2021 80.1193 58.3455 80.935 59.792C81.7517 61.2356 81.9277 64.8168 81.8289 66.4591C81.729 68.0984 80.9479 68.1538 80.9479 68.1538L79.3155 68.6511L79.4005 71.6203C79.4005 71.6203 76.2721 72.1562 75.2913 71.4374L75.0886 68.2458C75.0886 68.2458 71.4016 56.3819 79.1079 58.2021Z" fill="#F68C82"/>
  <path d="M70.7408 71.4959C71.602 69.7992 71.9273 74.8853 71.9273 74.8853C72.3742 80.356 72.3742 83.0365 71.6109 87.9683C72.4009 95.5836 73.2463 98.2631 73.2463 98.2631L73.8316 99.1233L73.2957 99.4476C73.8138 99.9865 73.2394 99.9687 72.6382 99.851L72.1844 100.128L72.0697 99.7175C71.8512 99.6592 71.6949 99.6098 71.6949 99.6098C68.5547 94.9676 66.6405 79.5759 70.7408 71.4959Z" fill="#B677FF"/>
  <path d="M73.1921 98.062C73.1921 98.062 74.3114 98.4081 75.0233 99.8902C75.7371 101.374 74.8848 100.342 72.4219 98.3507L73.1921 98.062Z" fill="#26285D"/>
  <path d="M75.0159 101.368C74.9299 101.414 74.8409 101.464 74.7529 101.508C74.218 101.775 73.5625 101.868 72.9672 101.847C72.5441 101.402 72.0724 100.713 71.584 99.6116C71.584 99.6116 72.2099 97.5164 73.4497 98.1749C73.4497 98.1749 73.9233 98.8582 74.5383 100.146C74.7994 100.694 74.9506 101.028 75.0634 101.298L75.0159 101.368Z" fill="#26285D"/>
  <path d="M84.2237 93.0294L71.198 92.707C71.198 92.707 66.3868 96.3753 68.8122 105.524C70.8944 113.381 72.1768 116.135 72.1768 116.135C72.1768 116.135 81.4572 118.212 83.6937 115.711C83.6937 115.711 86.8517 97.5281 84.2237 93.0294Z" fill="#1EB3FB"/>
  <path d="M97.9903 88.5978C97.9903 88.5978 99.2065 87.7633 100.8 88.1548C102.394 88.5464 101.22 88.7975 97.7441 89.7388L97.9903 88.5978Z" fill="#F68C82"/>
  <path d="M98.8989 88.2983C98.8989 88.2983 99.7462 88.4635 101.061 89.0033C102.376 89.5442 102.441 89.6302 103.244 90.0801C103.802 90.3945 103.167 90.4993 103.135 90.522C103.114 90.5378 103.225 90.5289 103.146 90.701C103.098 90.8048 102.874 91.0035 102.729 91.0698C102.637 91.1113 102.315 91.2458 102.175 91.3081C101.504 91.6007 100.24 92.0704 97.747 90.9343C97.747 90.9343 97.2842 88.7917 98.8989 88.2983Z" fill="#F68C82"/>
  <path d="M84.611 77.4066C84.611 77.4066 83.991 72.6497 82.3991 72.2513C80.8073 71.8528 76.4746 73.4961 76.4746 73.4961L77.2508 94.3704C77.2508 94.3704 84.8176 94.9627 85.834 94.3388C86.8515 93.7139 84.611 77.4066 84.611 77.4066Z" fill="#D3AEFE"/>
  <path d="M68.766 140.623C68.766 140.623 67.7802 143.065 68.5979 143.496C69.4146 143.924 69.8981 143.962 70.6307 143.661C71.3614 143.359 73.768 141.693 74.2545 141.089C75.3757 139.702 75.3648 138.999 71.4563 139.992C70.2402 140.299 68.766 140.623 68.766 140.623Z" fill="#26285D"/>
  <path d="M70.8957 92.9849C70.8957 92.9849 72.2642 88.5266 72.6438 86.8754L70.7969 76.2603L71.0342 71.2098C71.0342 71.2098 71.3516 70.8727 74.8527 70.5869C74.8527 70.5869 79.2002 71.3057 82.3988 72.251C82.3988 72.251 82.7606 73.8478 83.3569 76.0863C83.7276 77.4824 83.0573 81.8516 83.2056 82.8799C83.4122 84.3037 84.0361 92.0456 84.223 93.0294C84.4118 94.0151 79.2496 95.5556 70.8957 92.9849Z" fill="#D3AEFE"/>
  <path d="M82.7216 72.3615C84.1384 73.4007 83.7835 73.3038 89.2314 82.6395C90.6137 85.0085 90.498 85.5207 88.8883 85.4742C87.2777 85.4267 80.9873 78.9574 80.3684 76.2997C79.078 70.7597 82.7216 72.3615 82.7216 72.3615Z" fill="#D3AEFE"/>
  <path d="M97.5358 88.2983L98.6462 88.683C98.6462 88.683 99.3581 90.5863 98.0905 91.0836L97.4023 90.785L97.5358 88.2983Z" fill="white"/>
  <path d="M85.6074 83.2418C85.6074 83.2418 89.775 89.6973 97.7462 91.0558C97.7462 91.0558 98.8615 90.5199 98.2505 89.1525C97.4654 87.3995 96.2532 89.105 89.9292 82.7464C87.3763 80.1817 85.6074 83.2418 85.6074 83.2418Z" fill="#D3AEFE"/>
  <path d="M81.4998 61.5134C81.4998 61.5134 80.8136 63.9803 79.5035 64.098C79.5035 64.098 80.3212 65.946 79.5035 66.2841C78.7204 66.6054 79.4027 66.6005 79.4027 66.6005C79.4027 66.6005 80.7335 69.7437 80.2846 72.9126C79.8357 76.0796 71.0824 76.3139 71.029 72.442C70.9746 68.5711 71.0201 64.9137 73.3812 59.4193C75.6979 54.0316 85.2946 59.79 81.4998 61.5134Z" fill="#2E3192"/>
  <path d="M79.5558 66.5982C79.1375 66.6802 78.6768 66.1345 78.5285 65.3791C78.3812 64.6247 78.5987 63.9454 79.0179 63.8643C79.4381 63.7813 79.8969 64.327 80.0462 65.0815C80.1945 65.8368 79.976 66.5151 79.5558 66.5982Z" fill="#F68C82"/>
  <path d="M69.4377 136.081L71.3855 136.999C71.3855 136.999 70.2831 140.416 70.8951 140.234C73.625 139.416 74.5693 139.879 71.4824 141.446C71.2411 141.569 69.2508 142.187 68.9334 141.87C68.4924 141.434 69.3754 138.858 69.4377 136.081Z" fill="#E66F64"/>
  <path d="M76.628 138.921C76.6557 139.129 78.8448 139.979 78.8448 139.979C78.8448 139.979 78.3929 142.809 80.2834 142.931C81.7438 143.027 83.4286 143.171 83.0548 143.678C82.6801 144.182 80.4772 144.182 79.8622 144.18C79.3144 144.177 76.3057 144.682 76.6003 143.451C76.9345 142.052 76.628 138.921 76.628 138.921Z" fill="#F68C82"/>
  <defs>
    <linearGradient id="paint0_linear" x1="90.5761" y1="-26.0457" x2="90.5758" y2="129.303" gradientUnits="userSpaceOnUse">
      <stop stop-color="#DCB7FE"/>
      <stop offset="1" stop-color="#3EBCFC"/>
    </linearGradient>
  </defs>
</svg>
