<svg width="200" height="200" viewBox="0 0 200 200" fill="none"
  xmlns="http://www.w3.org/2000/svg">
  <circle cx="100" cy="100" r="97" stroke="url(#paint0_linear)" stroke-width="6" fill="none"/>
  <path d="M81.9558 40.7054C82.0652 40.7054 82.1747 40.6889 82.2828 40.6571C85.32 39.755 88.0136 39.1366 90.5176 38.7714C91.1448 38.6798 91.5787 38.0996 91.4858 37.4736C91.3955 36.8489 90.8178 36.4188 90.1868 36.5079C87.5708 36.8896 84.7728 37.5283 81.6288 38.4648C81.0232 38.6442 80.6771 39.2816 80.859 39.886C81.0066 40.3835 81.4621 40.7054 81.9558 40.7054Z" fill="#1EB3FB"/>
  <path d="M151.951 102.127C150.687 99.7931 149.257 97.4634 147.873 95.2113C145.796 91.828 143.65 88.3328 142.082 84.8313C143.549 79.5204 143.001 73.0822 140.426 65.616C133.842 50.0002 121.957 39.7806 106.957 36.8363C106.348 36.7129 105.734 37.1188 105.614 37.7397C105.491 38.3593 105.895 38.9599 106.517 39.082C116.581 41.0568 130.267 47.4161 138.284 66.4303C140.741 73.5581 141.24 79.6667 139.769 84.587C139.69 84.8453 139.708 85.1239 139.816 85.3695C141.459 89.1433 143.726 92.8358 145.92 96.406C147.286 98.6339 148.7 100.936 149.936 103.218C151.073 105.3 151.082 106.235 150.888 106.654C150.461 107.576 148.181 108.053 145.538 108.604C144.271 108.87 142.838 109.17 141.301 109.572C140.763 109.712 140.403 110.22 140.45 110.774C140.749 114.376 141.059 117.671 141.371 120.963C141.674 124.156 141.974 127.349 142.265 130.82C142.493 133.494 142.053 135.368 140.922 136.55C138.64 138.939 133.318 138.744 127.159 138.514L126.879 138.504C122.47 138.37 119.362 139.281 117.375 141.317C113.974 144.804 114.332 150.867 114.786 158.545C114.896 160.367 115.009 162.278 115.075 164.264C115.097 164.881 115.605 165.368 116.221 165.368C116.234 165.368 116.248 165.368 116.261 165.368C116.893 165.347 117.388 164.816 117.369 164.185C117.298 162.179 117.183 160.248 117.075 158.408C116.653 151.297 116.321 145.677 119.018 142.914C120.53 141.364 123.056 140.687 126.798 140.79L127.075 140.803C133.79 141.05 139.587 141.263 142.581 138.131C144.189 136.447 144.834 133.992 144.548 130.628C144.257 127.149 143.955 123.951 143.652 120.749C143.371 117.76 143.089 114.77 142.814 111.55C143.951 111.274 145.031 111.048 146.006 110.844C149.522 110.111 152.059 109.58 152.97 107.612C153.596 106.254 153.283 104.562 151.951 102.127Z" fill="#1EB3FB"/>
  <path d="M50.7053 98.6773C44.6222 83.5005 47.5053 67.8059 58.6144 55.6166C59.0406 55.1497 59.0075 54.4257 58.538 54.0007C58.0723 53.5757 57.3471 53.6101 56.9196 54.0771C45.196 66.9394 42.1576 83.5044 48.5805 99.5273C51.9612 107.929 54.553 113.112 56.6371 117.277C62.2368 128.477 63.0969 130.199 62.0676 164.19C62.0485 164.821 62.546 165.348 63.1783 165.368C63.1898 165.368 63.2012 165.368 63.2127 165.368C63.8298 165.368 64.34 164.879 64.3591 164.258C65.405 129.691 64.5105 127.902 58.6882 116.256C56.6231 112.128 54.0529 106.991 50.7053 98.6773Z" fill="#1EB3FB"/>
  <path d="M123.679 77.458C129.888 70.0732 126.88 59.7938 121.148 52.8861C117.503 48.4392 111.297 45.173 104.119 43.9248C103.491 43.8268 102.903 44.234 102.794 44.8562C102.685 45.4784 103.102 46.0726 103.725 46.1794C110.37 47.3347 116.072 50.307 119.381 54.3404C124.508 60.5203 127.286 69.6113 121.925 75.9872C119 79.4658 114.696 80.6097 109.711 81.9355C105.471 83.0628 100.665 84.339 96.081 87.3418C92.7563 89.5048 90.8058 92.2086 88.5461 95.3386C87.3666 96.9711 86.0319 98.8211 84.3536 100.782C78.6725 107.407 72.9278 109.851 67.7327 107.841C60.5095 105.052 55.121 93.9314 55.4646 82.5195C55.5918 77.7812 56.6441 73.1867 58.587 68.8607C58.844 68.2855 58.587 67.6086 58.0093 67.3491C57.4393 67.0959 56.7548 67.3465 56.4952 67.9242C54.4289 72.5263 53.3105 77.416 53.173 82.4546C52.8473 93.2507 57.8961 106.496 66.9057 109.977C68.187 110.472 69.6896 110.819 71.3806 110.819C75.3835 110.819 80.4373 108.866 86.0955 102.27C87.8361 100.235 89.2001 98.3465 90.405 96.6771C92.6177 93.6107 94.3646 91.1881 97.3356 89.2567C101.612 86.4562 106.03 85.2818 110.301 84.1456C115.436 82.7829 120.29 81.4927 123.679 77.458Z" fill="#1EB3FB"/>
  <path d="M88.7087 79.4682H84.8267V57.455H88.7087V79.4682ZM83.6816 55.166C83.0479 55.166 82.5352 55.6788 82.5352 56.3111V80.6121C82.5352 81.2444 83.0479 81.7559 83.6816 81.7559H89.8538C90.4874 81.7559 91.0002 81.2444 91.0002 80.6121V56.3111C91.0002 55.6788 90.4874 55.166 89.8538 55.166H83.6816Z" fill="#1EB3FB"/>
  <path d="M77.0896 79.4683H73.2088V54.0693H77.0896V79.4683ZM72.0624 51.7803C71.4301 51.7803 70.916 52.293 70.916 52.9241V80.6121C70.916 81.2445 71.4301 81.756 72.0624 81.756H78.236C78.8696 81.756 79.3811 81.2445 79.3811 80.6121V52.9241C79.3811 52.293 78.8696 51.7803 78.236 51.7803H72.0624Z" fill="#1EB3FB"/>
  <path d="M100.325 79.468H96.4458V46.7465H100.325V79.468ZM95.2994 44.4575C94.6658 44.4575 94.1543 44.9703 94.1543 45.6014V80.6118C94.1543 81.2442 94.6658 81.7557 95.2994 81.7557H101.47C102.103 81.7557 102.617 81.2442 102.617 80.6118V45.6014C102.617 44.9703 102.103 44.4575 101.47 44.4575H95.2994Z" fill="#1EB3FB"/>
  <path d="M65.5156 79.4683H61.5904V57.3177H65.5156V79.4683ZM60.444 55.0287C59.8103 55.0287 59.2988 55.5415 59.2988 56.1738V80.6122C59.2988 81.2445 59.8103 81.756 60.444 81.756H66.662C67.2956 81.756 67.8084 81.2445 67.8084 80.6122V56.1738C67.8084 55.5415 67.2956 55.0287 66.662 55.0287H60.444Z" fill="#1EB3FB"/>
  <path d="M75.5038 39.2666L75.9364 39.0134L81.0309 47.1692C81.1925 47.4288 81.4496 47.612 81.7473 47.6782C82.0425 47.7507 82.3567 47.6934 82.6138 47.5318L107.075 32.154C107.594 31.8283 107.763 31.1514 107.459 30.6183L107.378 30.477L111.468 30.2251L109.19 33.6949L109.173 33.6669C109.017 33.4035 108.758 33.2126 108.458 33.1401C108.154 33.0689 107.841 33.1197 107.579 33.2826L81.2587 49.7979L76.1247 41.5237C75.8028 41.0033 75.131 40.8252 74.589 41.1268L51.5846 54.0171L51.0184 52.9979L75.5038 39.2666ZM50.1404 56.1343C50.288 56.399 50.5361 56.5962 50.8288 56.6789C50.9331 56.7094 51.0375 56.7234 51.1418 56.7234C51.3377 56.7234 51.5299 56.6725 51.7029 56.5758L74.7531 43.6588L78.999 50.5283L79.952 51.9915C80.293 52.5144 80.9928 52.6671 81.5246 52.3376L107.804 35.8439L108.158 36.4394C108.36 36.7778 108.723 36.9877 109.117 36.9979C109.482 36.9814 109.884 36.8109 110.102 36.4813L114.64 29.5698C114.877 29.2085 114.891 28.7441 114.674 28.3687C114.455 27.9934 114.048 27.7962 113.611 27.8L105.397 28.3038C105 28.3293 104.646 28.5558 104.459 28.9044C104.271 29.253 104.276 29.6716 104.473 30.0152L104.923 30.8028L82.3657 44.9846L78.1732 38.2817L77.3105 36.8618C76.9848 36.3274 76.2927 36.1531 75.7506 36.4686L48.9024 51.5602C48.3515 51.8706 48.1543 52.5628 48.4609 53.115L50.1404 56.1343Z" fill="#1EB3FB"/>
  <defs>
    <linearGradient id="paint0_linear" x1="100" y1="-56.8627" x2="99.9994" y2="241.176" gradientUnits="userSpaceOnUse">
      <stop stop-color="#DCB7FE"/>
      <stop offset="1" stop-color="#3EBCFC"/>
    </linearGradient>
  </defs>
</svg>
