<svg width="18" height="13" viewBox="0 0 18 13" fill="none"
  xmlns="http://www.w3.org/2000/svg">
  <path d="M11.9316 6.70158L17.9999 10.6657V2.57007L11.9316 6.70158Z" fill="currentColor"/>
  <path d="M0 2.57007V10.6657L6.06825 6.70158L0 2.57007Z" fill="currentColor"/>
  <path d="M16.8745 0.212402H1.12445C0.563078 0.212402 0.117578 0.644851 0.0332031 1.20169L8.99945 7.30596L17.9657 1.20169C17.8813 0.644851 17.4358 0.212402 16.8745 0.212402Z" fill="currentColor"/>
  <path d="M10.9004 7.40375L9.30853 8.4872C9.21403 8.55114 9.10716 8.58252 8.99916 8.58252C8.89116 8.58252 8.78428 8.55114 8.68978 8.4872L7.09791 7.40259L0.0351562 12.0189C0.121781 12.5711 0.565031 13 1.12416 13H16.8742C17.4333 13 17.8765 12.5711 17.9632 12.0189L10.9004 7.40375Z" fill="currentColor"/>
</svg>
