<svg width="196" height="40" viewBox="0 0 196 40" fill="none" xmlns="http://www.w3.org/2000/svg">
<path d="M18.8087 38.93V22.2088L14.2713 38.93H9.22158L4.7206 22.2821V38.93H0V14.5241H7.46952L11.86 32.4213L16.2477 14.5275H23.5665V38.9335H18.8094L18.8087 38.93ZM25.2456 38.93V14.5655H43.1029V18.7916H30.1858V24.0133H42.0785V28.3138H30.1858V34.5978H43.6888V38.9345H25.2456V38.93ZM53.6779 34.7817C55.8971 34.7817 57.5074 34.0903 58.508 32.7055C59.5086 31.3206 60.0088 29.2485 60.0088 26.4761C60.0088 25.1037 59.8863 23.9283 59.6422 22.9479C59.3982 21.9675 59.002 21.1659 58.4533 20.5412C57.9046 19.9165 57.2027 19.4633 56.3491 19.1812C55.4954 18.8992 54.4579 18.7588 53.2387 18.7588H49.4695V34.7817H53.6779ZM44.5286 38.9342V14.5324H53.9172C55.5488 14.5324 57.0578 14.8079 58.4464 15.362C59.835 15.9162 61.0211 16.7033 62.0077 17.7324C62.9942 18.7616 63.7632 20.014 64.3277 21.4804C64.8922 22.9469 65.1676 24.6173 65.1676 26.4792C65.1676 28.3411 64.918 30.0381 64.4186 31.5692C63.9191 33.1002 63.2069 34.4108 62.2823 35.5014C61.372 36.5807 60.2369 37.4463 58.9572 38.0371C57.6664 38.6368 56.2424 38.9373 54.6841 38.9373H44.5321L44.5286 38.9342ZM66.5586 14.531H71.6447V38.9369H66.562V14.531H66.5586ZM94.6983 30.5573C94.4298 31.9539 94.003 33.2192 93.4178 34.3427C92.8327 35.4662 92.0943 36.4376 91.2045 37.2465C90.3147 38.0554 89.2838 38.679 88.1117 39.1201C86.9397 39.5612 85.6482 39.7821 84.2338 39.7821C82.6504 39.7821 81.1654 39.5125 79.7872 38.9725C78.4291 38.4467 77.2087 37.6159 76.2194 36.5437C75.2191 35.4644 74.4322 34.1328 73.8594 32.5502C73.2866 30.9676 72.9989 29.1223 72.9989 27.0122C72.9989 24.9512 73.2605 23.0928 73.7854 21.4369C74.3103 19.781 75.0604 18.382 76.0366 17.2415C77.0128 16.1011 78.2051 15.2237 79.6044 14.6143C81.0036 14.0048 82.5733 13.6934 84.3064 13.6934C85.821 13.6934 87.1899 13.9225 88.4232 14.3796C89.6542 14.8359 90.7157 15.4661 91.6066 16.2688C92.4974 17.0715 93.2037 18.0135 93.7287 19.0931C94.2536 20.1727 94.5761 21.3252 94.6983 22.55H89.6125C89.2704 21.1534 88.6119 20.0697 87.6357 19.2977C86.6595 18.5258 85.5628 18.1397 84.3426 18.1397C82.2205 18.1397 80.6594 18.9057 79.6584 20.4368C78.6575 21.9679 78.1587 24.0666 78.1587 26.7388C78.1587 29.4587 78.6526 31.5716 79.6405 33.0788C80.6284 34.586 82.1103 35.3389 84.0871 35.3389C85.5989 35.3389 86.8133 34.9289 87.7272 34.1083C88.6411 33.2876 89.2707 32.105 89.6125 30.5615H94.6983V30.5573Z" fill="white"/>
<path d="M95.582 14.5468H100.668V38.9527H95.582V14.5468ZM108.938 38.9527V18.814H101.619V14.5848H121.379V18.8109H114.024V38.9496H108.938V38.9527ZM126.758 20.026H126.721L123.611 29.7642H129.795L126.758 20.026ZM132.795 38.9527L131.258 33.9177H122.293L120.574 38.9527H115.194L123.867 14.5468H129.758L138.321 38.9527H132.795ZM139.277 38.9527V14.5468H144.363V34.5019H156.402V38.9489H139.277V38.9527ZM157.417 14.5468H162.503V38.9527H157.417V14.5468ZM174.986 20.0225H174.95L171.839 29.7607H178.023L174.986 20.0225ZM181.024 38.9492L179.487 33.9142H170.522L168.802 38.9492H163.422L172.095 14.5433H177.986L186.549 38.9492H181.024ZM190.266 18.218H184.217V0H190.266V18.218Z" fill="#00AFE6"/>
<path d="M196 12.11H177.855V6.03613H196V12.11Z" fill="#00AFE6"/>
</svg>
