<svg width="60" height="77" viewBox="0 0 60 77" fill="none" xmlns="http://www.w3.org/2000/svg">
<path d="M20.3755 7.16973C20.4363 7.16973 20.4971 7.16054 20.5572 7.14287C22.2445 6.6417 23.7409 6.29816 25.132 6.09529C25.4805 6.0444 25.7215 5.72207 25.6699 5.37429C25.6197 5.02722 25.2988 4.7883 24.9482 4.83778C23.4949 5.04984 21.9405 5.40469 20.1939 5.92494C19.8574 6.02461 19.6651 6.37875 19.7662 6.71451C19.8482 6.99089 20.1013 7.16973 20.3755 7.16973Z" fill="currentColor"/>
<path d="M59.2605 41.2921C58.5586 39.9957 57.7641 38.7014 56.995 37.4503C55.8414 35.5707 54.6489 33.629 53.7781 31.6837C54.5931 28.7332 54.2884 25.1565 52.8577 21.0086C49.2004 12.3333 42.5976 6.65578 34.2644 5.0201C33.9258 4.95153 33.5851 5.17702 33.518 5.52197C33.4501 5.86621 33.6742 6.19985 34.0198 6.26771C39.6111 7.36476 47.2141 10.8977 51.6681 21.461C53.033 25.4209 53.3101 28.8145 52.493 31.548C52.4492 31.6915 52.4591 31.8463 52.5191 31.9827C53.4317 34.0793 54.6913 36.1306 55.91 38.114C56.6691 39.3517 57.4545 40.6305 58.1415 41.8986C58.7728 43.055 58.7777 43.5746 58.6703 43.8071C58.4328 44.3196 57.1661 44.5847 55.6979 44.8907C54.9939 45.0385 54.1979 45.2053 53.3441 45.4287C53.0451 45.5064 52.845 45.7884 52.8712 46.0959C53.0373 48.0971 53.2098 49.9278 53.3829 51.7565C53.5512 53.5307 53.718 55.3042 53.8799 57.2326C54.0064 58.7184 53.7618 59.7596 53.1334 60.4163C51.866 61.7431 48.9092 61.6349 45.4873 61.507L45.3318 61.5013C42.8825 61.4271 41.1556 61.9332 40.0522 63.0642C38.1628 65.0017 38.3614 68.3699 38.6137 72.6351C38.6745 73.6474 38.7374 74.7091 38.7742 75.8125C38.7862 76.1553 39.069 76.426 39.4111 76.426C39.4182 76.426 39.4259 76.426 39.433 76.426C39.7843 76.414 40.0593 76.1193 40.0487 75.7687C40.0091 74.6539 39.9455 73.5816 39.8854 72.5595C39.6507 68.6088 39.4662 65.4866 40.9648 63.9513C41.8045 63.0903 43.2084 62.7143 45.2872 62.7716L45.4406 62.7786C49.1714 62.9158 52.3919 63.0345 54.0552 61.2942C54.9486 60.359 55.307 58.9948 55.148 57.1258C54.9861 55.1933 54.8186 53.4169 54.6503 51.6377C54.4941 49.9773 54.3372 48.3162 54.1845 46.5271C54.8164 46.3737 55.4166 46.2486 55.958 46.1348C57.9111 45.7277 59.3206 45.4329 59.8267 44.3394C60.1745 43.5852 60.0006 42.645 59.2605 41.2921Z" fill="currentColor"/>
<path d="M3.01444 39.3758C-0.365073 30.9443 1.23668 22.2252 7.40829 15.4534C7.64509 15.194 7.62671 14.7918 7.36588 14.5557C7.10717 14.3196 6.70426 14.3387 6.46675 14.5981C-0.0462781 21.7438 -1.73427 30.9465 1.83398 39.848C3.71211 44.5154 5.15199 47.3952 6.30983 49.7087C9.42073 55.9312 9.89857 56.8876 9.32672 75.7715C9.31611 76.1221 9.5925 76.4147 9.94381 76.426C9.95017 76.426 9.95653 76.426 9.96289 76.426C10.3057 76.426 10.5892 76.1539 10.5998 75.8089C11.1808 56.6056 10.6839 55.6117 7.44929 49.1418C6.30205 46.848 4.87419 43.9944 3.01444 39.3758Z" fill="currentColor"/>
<path d="M43.5546 27.5874C47.0041 23.4848 45.333 17.774 42.1486 13.9365C40.1235 11.466 36.6761 9.65145 32.688 8.95802C32.3395 8.90359 32.0129 9.12979 31.9521 9.47545C31.8913 9.8211 32.1232 10.1512 32.4696 10.2106C36.1608 10.8524 39.329 12.5036 41.1668 14.7444C44.0154 18.1776 45.5585 23.2282 42.5805 26.7703C40.9554 28.7028 38.5641 29.3383 35.7946 30.0749C33.4394 30.7011 30.7696 31.4101 28.2227 33.0783C26.3757 34.28 25.2921 35.7821 24.0367 37.5209C23.3814 38.4279 22.6399 39.4556 21.7076 40.5449C18.5514 44.2255 15.3599 45.5834 12.4738 44.4666C8.46097 42.9171 5.46741 36.7392 5.65826 30.3993C5.72895 27.7669 6.31352 25.2145 7.3929 22.8111C7.53569 22.4916 7.3929 22.1156 7.07198 21.9714C6.75531 21.8307 6.37502 21.97 6.23082 22.2909C5.08287 24.8476 4.46154 27.5641 4.3852 30.3633C4.20424 36.361 7.00907 43.7194 12.0144 45.6534C12.7262 45.9284 13.561 46.1214 14.5004 46.1214C16.7242 46.1214 19.5319 45.0363 22.6753 41.3719C23.6423 40.241 24.4 39.192 25.0694 38.2646C26.2986 36.561 27.2692 35.2152 28.9197 34.1421C31.2955 32.5863 33.7497 31.9339 36.1226 31.3027C38.9755 30.5456 41.6722 29.8289 43.5546 27.5874Z" fill="currentColor"/>
<path d="M24.127 28.7044H21.9703V16.475H24.127V28.7044ZM21.3341 15.2034C20.9821 15.2034 20.6973 15.4882 20.6973 15.8395V29.3399C20.6973 29.6912 20.9821 29.9754 21.3341 29.9754H24.7631C25.1152 29.9754 25.4 29.6912 25.4 29.3399V15.8395C25.4 15.4882 25.1152 15.2034 24.7631 15.2034H21.3341Z" fill="currentColor"/>
<path d="M17.6719 28.7043H15.516V14.5939H17.6719V28.7043ZM14.8791 13.3223C14.5278 13.3223 14.2422 13.6071 14.2422 13.9577V29.3398C14.2422 29.6911 14.5278 29.9753 14.8791 29.9753H18.3088C18.6608 29.9753 18.945 29.6911 18.945 29.3398V13.9577C18.945 13.6071 18.6608 13.3223 18.3088 13.3223H14.8791Z" fill="currentColor"/>
<path d="M30.5806 28.7044H28.4254V10.526H30.5806V28.7044ZM27.7885 9.25439C27.4365 9.25439 27.1523 9.53926 27.1523 9.88986V29.3399C27.1523 29.6912 27.4365 29.9754 27.7885 29.9754H31.2168C31.5681 29.9754 31.8537 29.6912 31.8537 29.3399V9.88986C31.8537 9.53926 31.5681 9.25439 31.2168 9.25439H27.7885Z" fill="currentColor"/>
<path d="M11.2428 28.7044H9.06212V16.3986H11.2428V28.7044ZM8.42524 15.127C8.07322 15.127 7.78906 15.4118 7.78906 15.7631V29.3399C7.78906 29.6912 8.07322 29.9753 8.42524 29.9753H11.8797C12.2317 29.9753 12.5166 29.6912 12.5166 29.3399V15.7631C12.5166 15.4118 12.2317 15.127 11.8797 15.127H8.42524Z" fill="currentColor"/>
<path d="M16.7905 6.37028L17.0308 6.22962L19.8611 10.7606C19.9509 10.9048 20.0936 11.0066 20.259 11.0434C20.423 11.0836 20.5976 11.0518 20.7404 10.9621L34.3299 2.41892C34.6183 2.23796 34.7123 1.86191 34.5433 1.56573L34.4981 1.48727L36.7706 1.34731L35.5047 3.27493L35.4955 3.25938C35.4085 3.11306 35.265 3.00703 35.0982 2.96674C34.9293 2.92715 34.7554 2.95543 34.6098 3.0459L19.9876 12.221L17.1354 7.62426C16.9566 7.33515 16.5834 7.23619 16.2822 7.40372L3.50215 14.5649L3.1876 13.9987L16.7905 6.37028ZM2.69986 15.7412C2.78186 15.8882 2.9197 15.9978 3.08228 16.0437C3.14024 16.0607 3.1982 16.0684 3.25617 16.0684C3.36502 16.0684 3.47176 16.0402 3.56789 15.9864L16.3734 8.81037L18.7322 12.6267L19.2617 13.4396C19.4511 13.7301 19.8399 13.815 20.1353 13.6319L34.7349 4.46882L34.9314 4.79963C35.0438 4.98766 35.2452 5.10429 35.4644 5.10994C35.6672 5.10076 35.8906 5.00604 36.0115 4.82296L38.5329 0.983277C38.6643 0.782528 38.6721 0.524523 38.5512 0.315998C38.4297 0.107473 38.2035 -0.00209042 37.961 3.02104e-05L33.3975 0.279948C33.177 0.294085 32.9805 0.419907 32.8765 0.613587C32.7719 0.807268 32.7748 1.03983 32.8843 1.23068L33.1345 1.66823L20.6026 9.54693L18.2735 5.82317L17.7942 5.03431C17.6133 4.73743 17.2287 4.64059 16.9276 4.81589L2.01209 13.2C1.70602 13.3725 1.59645 13.757 1.76681 14.0638L2.69986 15.7412Z" fill="currentColor"/>
</svg>
