<svg width="60" height="74" viewBox="0 0 60 74" fill="none" xmlns="http://www.w3.org/2000/svg">
<path d="M0.72954 37.4095C1.427 36.1147 2.20611 34.8233 2.95916 33.5717C4.12826 31.632 5.33557 29.6278 6.2328 27.6192C5.40419 24.5666 5.70992 20.9204 7.15349 16.7407C14.1959 -0.340237 30.3617 -2.69684 42.3975 2.33788C54.7694 7.51392 64.1465 20.7181 58.1316 35.9406C56.259 40.698 54.8241 43.6332 53.6715 45.9924C50.5716 52.3344 50.0948 53.3087 50.6671 72.5519C50.6776 72.9087 50.4014 73.2073 50.0496 73.2196C49.6709 73.2364 49.4042 72.9485 49.3938 72.5907C48.8136 53.0225 49.3087 52.0085 52.532 45.4156C53.675 43.0776 55.0977 40.168 56.9504 35.4575C62.6569 21.0184 53.7045 8.46964 41.9146 3.5365C30.0577 -1.42491 15.0714 0.888411 8.33996 17.2071C6.96501 21.1933 6.68793 24.6505 7.51829 27.4814C7.56172 27.6307 7.55216 27.7888 7.49049 27.9301C6.5507 30.0889 5.27651 32.2044 4.04401 34.2492C3.29877 35.4866 2.52835 36.7656 1.84826 38.0287C1.22289 39.2079 1.22115 39.7379 1.32972 39.9746C1.56858 40.4993 2.84104 40.7704 4.31153 41.0831C5.01594 41.2315 5.81155 41.4011 6.66535 41.6281C6.96501 41.7076 7.16478 41.9947 7.13872 42.3091C6.94416 44.7028 6.74005 46.858 6.53159 49.053C6.39088 50.5413 6.24844 52.0491 6.10599 53.6558C5.987 55.1697 6.23628 56.2314 6.86773 56.9027C8.14192 58.255 11.0994 58.1438 14.5198 58.0148L14.6753 58.0095C17.1255 57.9326 18.8497 58.4494 19.9536 59.6012C21.8428 61.5762 21.643 65.0104 21.3902 69.3588C21.3303 70.3887 21.2669 71.4707 21.2295 72.5934C21.2174 72.9441 20.9351 73.2196 20.5929 73.2196C20.5868 73.2196 20.5781 73.2196 20.5712 73.2179C20.2203 73.2064 19.9449 72.9061 19.9562 72.5492C19.9953 71.4142 20.0587 70.3216 20.1204 69.282C20.3532 65.2524 20.5382 62.0708 19.0416 60.5057C18.2017 59.6277 16.779 59.2479 14.7196 59.3035L14.5667 59.3097C10.838 59.4519 7.61731 59.572 5.94878 57.7993C5.05155 56.8453 4.68849 55.4559 4.83788 53.5454C4.98032 51.9299 5.12277 50.4203 5.26435 48.9302C5.4563 46.9084 5.64391 44.921 5.82544 42.749C5.19312 42.5927 4.59815 42.4672 4.05269 42.3498C2.09667 41.9355 0.684375 41.6343 0.175392 40.5214C-0.17551 39.7547 -0.00440201 38.7963 0.72954 37.4095Z" fill="currentColor"/>
<path d="M24.1973 25.9816C26.546 26.6193 29.2081 27.3419 31.7522 29.0413C33.6074 30.2717 34.7044 31.8104 35.9734 33.5938C36.6587 34.5556 37.3675 35.5511 38.2908 36.6517C41.4367 40.3924 44.6157 41.7791 47.4881 40.6556C51.4861 39.0931 54.4931 32.7917 54.3333 26.312C54.0397 15.0934 44.7608 6.33561 32.2698 5.48501C26.8126 5.12021 21.5256 7.02811 18.8166 10.3546C15.9859 13.8621 14.4581 19.0134 17.426 22.6128C19.0511 24.5843 21.4362 25.2317 24.1973 25.9816ZM16.4514 23.4457C13.0145 19.2766 14.6691 13.454 17.8351 9.52957C20.7978 5.8922 26.4956 3.78822 32.355 4.19276C45.5155 5.08841 55.2939 14.3761 55.6066 26.2784C55.7569 32.4093 52.9323 39.9163 47.9441 41.8648C47.2405 42.1395 46.4163 42.3338 45.4869 42.3338C43.2712 42.3338 40.4665 41.2297 37.3232 37.4935C36.366 36.3531 35.6095 35.2914 34.9424 34.3543C33.6986 32.6062 32.7163 31.2257 31.0565 30.1269C28.6818 28.5405 26.235 27.8763 23.869 27.2332C21.0227 26.4595 18.3345 25.7299 16.4514 23.4457Z" fill="currentColor"/>
<path d="M43.1247 25.3606C44.7472 25.3606 46.0674 24.0118 46.0674 22.3548C46.0674 20.6836 44.7472 19.3234 43.1247 19.3234C41.4753 19.3234 40.182 20.6545 40.182 22.3548C40.182 24.0118 41.5013 25.3606 43.1247 25.3606ZM43.1247 18.0276C45.449 18.0276 47.3398 19.9682 47.3398 22.3548C47.3398 24.7273 45.449 26.6564 43.1247 26.6564C40.8004 26.6564 38.9095 24.7273 38.9095 22.3548C38.9095 19.9682 40.8004 18.0276 43.1247 18.0276Z" fill="currentColor"/>
<path d="M36.0687 23.573C36.357 23.573 36.6098 23.7708 36.6836 24.0544C36.8547 24.7071 37.0936 25.2963 37.395 25.8042C37.547 26.0603 37.5062 26.3915 37.2951 26.6018L36.4673 27.4162L38.168 29.1739L39.0001 28.3445C39.2068 28.1387 39.5247 28.1016 39.7714 28.2509C40.2604 28.5476 40.825 28.7852 41.4521 28.9592C41.7283 29.037 41.922 29.2922 41.922 29.5846L41.8907 30.7505H44.3288V29.5846C44.3288 29.2922 44.5207 29.0361 44.7978 28.9592C45.3902 28.7967 45.9434 28.5618 46.4898 28.2447C46.5879 28.1881 46.6974 28.1599 46.8051 28.1599C46.9701 28.1599 47.1334 28.2261 47.2567 28.3516L48.041 29.181L49.7547 27.4232L48.9487 26.5947C48.7489 26.3889 48.7072 26.0744 48.8453 25.8227C49.1407 25.2848 49.3752 24.6895 49.5428 24.0535C49.6166 23.77 49.8694 23.573 50.1569 23.573L51.2852 23.5995L51.3164 21.1113H50.1569C49.8694 21.1113 49.6166 20.9143 49.5428 20.6317C49.3752 19.9957 49.1407 19.3995 48.8453 18.8633C48.7072 18.6107 48.7489 18.2954 48.9487 18.0904L49.7513 17.2893L48.0636 15.5042L47.2567 16.3336C47.0544 16.5403 46.7399 16.5836 46.4898 16.4405C45.9434 16.1234 45.3902 15.8884 44.7978 15.725C44.5207 15.6499 44.3288 15.3929 44.3288 15.1005L44.334 13.9346H41.922V15.1005C41.922 15.3929 41.7283 15.6482 41.4521 15.725C40.825 15.8999 40.2604 16.1375 39.7714 16.4343C39.5247 16.5844 39.2068 16.5465 39.0001 16.3407L38.2062 15.5077L36.4639 17.2549L37.2951 18.0834C37.5062 18.2936 37.547 18.624 37.395 18.8819C37.0936 19.3889 36.8547 19.9771 36.6836 20.6299C36.6098 20.9143 36.357 21.1113 36.0687 21.1113L34.9404 21.0857L34.9334 23.573H36.0687ZM34.9334 19.8155H35.5936C35.7238 19.4083 35.8793 19.0232 36.0591 18.6637L35.5666 18.1735C35.1028 17.6983 35.0924 16.8927 35.5692 16.3521L37.3055 14.5935C37.758 14.1263 38.6197 14.1342 39.0583 14.5856L39.5542 15.0785C39.8956 14.9027 40.2613 14.7499 40.6486 14.6191V13.9346C40.6486 13.22 41.2063 12.6379 41.8907 12.6379H44.334C45.021 12.6379 45.6012 13.2315 45.6012 13.9346V14.62C45.9721 14.7463 46.3326 14.8983 46.6861 15.0785L47.1594 14.5935C47.6267 14.1121 48.4163 14.1007 48.9496 14.5962L50.6355 16.3574C50.8882 16.5906 51.0324 16.9263 51.0324 17.2778C51.0324 17.6276 50.8882 17.9633 50.6598 18.1735L50.1795 18.6672C50.3532 19.0329 50.5052 19.4163 50.632 19.8155H51.3164C52 19.8155 52.5576 20.3852 52.5576 21.0857V23.5995C52.5576 24.2999 52 24.8688 51.3164 24.8688H50.632C50.5052 25.268 50.3532 25.6531 50.1795 26.0179L50.6355 26.4887C50.883 26.7175 51.0237 27.0328 51.0324 27.3773C51.0411 27.7306 50.9056 28.0777 50.6598 28.3304L48.9218 30.1155C48.418 30.5827 47.6267 30.573 47.1594 30.0925L46.6861 29.6067C46.3326 29.7869 45.9721 29.9388 45.6012 30.066V30.7505C45.6012 31.4528 45.021 32.0463 44.334 32.0463H41.8907C41.2063 32.0463 40.6486 31.4642 40.6486 30.7505V30.066C40.2613 29.9353 39.8956 29.7825 39.5525 29.6067L39.0652 30.0916C38.6127 30.5589 37.7546 30.5553 37.3081 30.0952L35.5449 28.3065C35.0924 27.7924 35.1028 26.9869 35.5727 26.5046L36.0591 26.0214C35.8793 25.662 35.7238 25.276 35.5936 24.8688H34.9334C34.236 24.8688 33.6679 24.2999 33.6679 23.5995V21.0857C33.6679 20.3852 34.236 19.8155 34.9334 19.8155Z" fill="currentColor"/>
<path d="M27.0957 17.7688C28.2735 17.7688 29.2324 16.7813 29.2324 15.5668C29.2324 14.3514 28.2735 13.3639 27.0957 13.3639C25.9188 13.3639 24.9608 14.3514 24.9608 15.5668C24.9608 16.7813 25.9188 17.7688 27.0957 17.7688ZM27.0957 12.0681C28.9762 12.0681 30.5049 13.6377 30.5049 15.5668C30.5049 17.495 28.9762 19.0637 27.0957 19.0637C25.2162 19.0637 23.6875 17.495 23.6875 15.5668C23.6875 13.6377 25.2162 12.0681 27.0957 12.0681Z" fill="currentColor"/>
<path d="M20.9015 16.3698H21.6511C21.9429 16.3698 22.1983 16.5721 22.2678 16.8609C22.3816 17.3255 22.5648 17.7893 22.7802 18.1682C22.9253 18.4226 22.8853 18.7423 22.683 18.9508L22.1557 19.4922L23.2771 20.6449L23.7947 20.1114C24.0014 19.9003 24.3219 19.8579 24.5712 20.0116C24.9664 20.2492 25.3912 20.4259 25.8333 20.5336C26.119 20.6043 26.3205 20.864 26.3205 21.1634V21.9398H27.8701V21.1634C27.8701 20.864 28.0716 20.6043 28.3573 20.5345C28.8003 20.4259 29.2242 20.2492 29.6176 20.0116C29.866 19.8614 30.1883 19.9003 30.395 20.1114L30.9135 20.6449L32.0357 19.4931L31.5068 18.9508C31.3044 18.7423 31.2644 18.4208 31.4095 18.1673C31.6162 17.8078 31.8047 17.3459 31.9541 16.8327C32.034 16.558 32.2824 16.3698 32.5638 16.3698H33.2882V14.7375H32.5638C32.2824 14.7375 32.034 14.5494 31.9541 14.2747C31.8134 13.7898 31.6301 13.349 31.4095 12.9648C31.2644 12.7113 31.3044 12.3906 31.5068 12.1822L32.034 11.6416L30.9135 10.4889L30.395 11.0224C30.1883 11.2335 29.8669 11.2724 29.6176 11.1222C29.2372 10.8935 28.8046 10.7053 28.3304 10.5658C28.0577 10.4854 27.8701 10.2319 27.8701 9.94305V9.19226H26.3205V9.94305C26.3205 10.2328 26.1329 10.4863 25.8602 10.5658C25.3868 10.7044 24.9534 10.8917 24.5712 11.1222C24.3219 11.2742 24.0014 11.2335 23.7947 11.0224L23.2771 10.4889L22.1566 11.6407L22.683 12.1822C22.8853 12.3906 22.9253 12.7104 22.7811 12.9639C22.5501 13.3684 22.3781 13.7995 22.2678 14.2455C22.1983 14.5352 21.9429 14.7375 21.6511 14.7375H20.9015V16.3698ZM20.7434 13.4417H21.1751C21.2533 13.2086 21.3454 12.9798 21.4505 12.7563L21.1195 12.4145C20.7252 11.9516 20.7374 11.2583 21.1482 10.8352L22.4849 9.46166C22.8914 9.04652 23.6627 9.04475 24.0692 9.46166L24.3645 9.7664C24.5834 9.65775 24.811 9.56059 25.0481 9.47226V9.0368C25.0481 8.40879 25.5484 7.89648 26.1624 7.89648H28.0273C28.6431 7.89648 29.1434 8.40879 29.1434 9.0368V9.47226C29.3796 9.56059 29.6081 9.65775 29.8261 9.7664L30.1205 9.46166C30.3229 9.25409 30.6113 9.13485 30.9118 9.13397C30.9127 9.13397 30.9127 9.13397 30.9135 9.13397C31.2132 9.13397 31.5024 9.25321 31.7057 9.46166L33.0415 10.8352C33.4524 11.2583 33.4645 11.9516 33.0415 12.4463L32.7401 12.7563C32.8444 12.9736 32.939 13.2033 33.0242 13.4417H33.4463C34.0508 13.4417 34.5615 13.9761 34.5615 14.6077V16.5253C34.5615 17.1533 34.0612 17.6656 33.4463 17.6656H33.0259C32.9382 17.9173 32.8426 18.1541 32.7384 18.3766L33.0415 18.6858C33.4515 19.108 33.4645 19.8014 33.0415 20.2987L31.7057 21.6731C31.5024 21.8806 31.2132 21.9999 30.9135 21.9999C30.9127 21.9999 30.9127 21.9999 30.9118 21.9999C30.6113 21.999 30.3229 21.8798 30.1205 21.6722L29.8243 21.3666C29.6037 21.4761 29.3753 21.5706 29.1434 21.6501V22.0962C29.1434 22.7242 28.6431 23.2365 28.0273 23.2365H26.1624C25.5484 23.2365 25.0481 22.7242 25.0481 22.0962V21.6501C24.8153 21.5706 24.5877 21.4761 24.3654 21.3666L24.0692 21.6722C23.6618 22.0873 22.8897 22.0873 22.4849 21.6722L21.1187 20.2651C20.7252 19.8014 20.7382 19.108 21.1482 18.6858L21.4513 18.3749C21.3471 18.1479 21.2533 17.9103 21.1734 17.6656H20.7434C20.1285 17.6656 19.6282 17.1533 19.6282 16.5253V14.6077C19.6282 13.9761 20.1398 13.4417 20.7434 13.4417Z" fill="currentColor"/>
</svg>
