<svg width="90" height="102" viewBox="0 0 90 102" fill="none" xmlns="http://www.w3.org/2000/svg">
<path d="M23.2928 43.9417C19.0353 43.9417 15.1176 46.0291 11.9508 49.5074C12.2623 34.9873 19.8862 20.4624 34.93 5.93423L32.6976 0.835938C10.9003 20.7729 0 42.6548 0 66.4751C0 77.4144 2.02183 85.9879 6.06874 92.1794C10.1135 98.3838 15.2337 101.478 21.4262 101.478C27.6219 101.478 32.614 98.9905 36.4135 94.0043C40.2108 89.026 42.1122 83.0025 42.1122 75.9577C42.1122 75.8777 42.1024 75.8201 42.1024 75.7352C42.2185 74.4851 42.2999 73.2221 42.2999 71.9175C42.2999 56.4706 33.7872 43.9417 23.2928 43.9417Z" fill="currentColor"/>
<path d="M84.7298 91.2337C84.9761 90.8159 85.2735 90.4157 85.5003 89.9787C88.2992 85.1045 89.9997 78.8105 89.9997 71.9177C89.9997 56.4723 81.4892 43.9387 70.9948 43.9387C66.1882 43.9387 61.8125 46.5863 58.4634 50.9226C58.4634 50.7497 58.4449 50.6041 58.4449 50.4264C58.4449 35.5989 66.122 20.7634 81.4838 5.93265L79.2525 0.835938C57.453 20.773 46.5527 42.6549 46.5527 66.4817C46.5527 77.421 48.5746 85.9913 52.6236 92.1845C56.6673 98.3889 61.7875 101.486 67.9789 101.486C74.1713 101.486 79.17 98.994 82.9673 94.0061C83.5045 93.3114 83.9212 92.5287 84.3814 91.7827C84.5029 91.6051 84.6115 91.4194 84.7298 91.2337Z" fill="currentColor"/>
</svg>
