<svg width="627" height="757" viewBox="0 0 627 757" fill="none"
  xmlns="http://www.w3.org/2000/svg">
  <g filter="url(#filter0_d)">
    <path d="M441.444 470.068C462.6 481.377 462.583 511.711 441.415 522.997L48.1143 732.693C28.1312 743.348 4.00003 728.867 4.00003 706.221L4.00003 286.269C4.00003 263.609 28.1594 249.129 48.1436 259.813L441.444 470.068Z" fill="url(#paint0_linear)"/>
  </g>
  <g filter="url(#filter1_d)">
    <line x1="548.902" y1="427.941" x2="576.767" y2="425.192" stroke="black"/>
  </g>
  <g filter="url(#filter2_d)">
    <line x1="398.902" y1="417.941" x2="426.767" y2="415.192" stroke="black"/>
  </g>
  <g filter="url(#filter3_d)">
    <line x1="320.902" y1="436.941" x2="348.767" y2="434.192" stroke="black"/>
  </g>
  <path d="M345.252 262.385C343.241 263.048 344.71 259.63 342.752 260.431C341.425 260.981 340.096 261.528 338.803 262.15C337.798 263.174 336.823 264.229 335.938 265.369C335.869 265.461 336.757 266.825 336.48 267.283C335.907 268.493 337.047 271.105 336.314 272.25C343.513 282.342 364.122 294.373 373.862 294.273C389.926 294.118 376.666 277.947 376.666 277.947C367.249 272.213 359.723 268.609 347.038 264.546C347.038 264.546 345.215 262.661 345.252 262.385Z" fill="#BDBCBC"/>
  <path d="M336.024 238.168C336.024 238.168 339.353 234.57 338.225 230.151C337.104 225.731 336.216 229.402 333.082 239.829L336.024 238.168Z" fill="#E66F64"/>
  <path d="M335.869 237.565C335.869 237.565 336.008 233.717 333.715 230.362C331.765 227.501 332.709 227.058 331.689 224.69C329.872 220.474 328.943 222.188 328.837 222.277C327.508 223.448 328.104 225.026 327.659 225.416C327.383 225.662 326.46 227.396 326.337 227.906C326.256 228.224 324.428 229.73 324.469 230.237C324.795 234.038 325.015 234.225 329.184 240.792C329.184 240.792 335.114 242.964 335.869 237.565Z" fill="#E66F64"/>
  <path d="M348.024 265.455C347.232 267.439 343.172 266.183 341.603 267.941C340.245 269.458 338.896 272.042 338.793 273.893C338.786 274.035 338.811 274.148 338.809 274.279C329.462 269.871 332.168 258.306 328.925 243.259C328.925 243.259 334.952 234.19 336.717 239.617C339.823 249.163 346.373 263.583 346.465 264.047C346.154 264.386 348.205 264.979 348.024 265.455Z" fill="#BDBCBC"/>
  <path d="M446.666 233.502C500.459 193.203 512.242 116.768 474.239 60.5093C431.847 7.54851 355.908 -3.17693 302.115 37.1224C293.423 43.6281 286.308 50.735 280.624 58.3026L280.33 58.0395C280.067 58.6172 279.811 59.1802 279.545 59.7523C272.924 68.9443 268.393 78.8079 265.746 89.1123C229.501 163.903 204.444 197.634 204.444 197.634C188.51 216.203 186.591 244.013 200.847 265.315C216.936 285.241 243.879 291.424 266.106 281.409L266.112 281.411C266.112 281.411 305.358 266.965 386.815 253.59C397.361 254.013 408.027 252.486 418.668 248.748C419.284 248.664 419.893 248.572 420.518 248.488L420.348 248.127C429.175 244.835 437.98 240.007 446.666 233.502Z" fill="url(#paint1_linear)"/>
  <path d="M476.958 202.785C476.958 202.785 473.143 199.611 473.63 195.088C474.107 190.576 475.514 194.118 480.11 204.094L476.958 202.785Z" fill="#E66F64"/>
  <path d="M477.083 202.098C477.083 202.098 476.392 198.295 478.186 194.7C479.708 191.635 478.712 191.311 479.387 188.837C480.585 184.446 481.752 186.037 481.872 186.115C483.358 187.125 482.984 188.756 483.486 189.095C483.795 189.307 484.96 190.916 485.154 191.408C485.279 191.714 487.311 193 487.341 193.501C487.563 197.311 487.368 197.518 484.173 204.513C484.173 204.513 478.605 207.361 477.083 202.098Z" fill="#E66F64"/>
  <path d="M496.994 229.582C496.197 231.566 492.142 230.298 490.567 232.057C489.209 233.567 487.857 236.146 487.746 238C487.736 238.14 487.758 238.255 487.759 238.392C478.425 233.961 481.151 222.401 477.938 207.346C477.938 207.346 483.985 198.29 485.736 203.718C488.823 213.277 495.349 227.703 495.435 228.173C495.124 228.509 497.181 229.11 496.994 229.582Z" fill="#BDBCBC"/>
  <path d="M446.58 233.41C473.719 213.069 490.17 183.529 494.951 152.018C494.495 152.728 494.029 153.436 493.548 154.153C486.899 163.956 478.207 173.262 468.741 180.168C424.864 212.186 363.995 205.428 322.135 171.435C297.549 151.459 277.779 122.964 273.845 90.8217C272.955 83.5633 272.857 75.9106 273.612 68.3264C269.976 74.8938 267.264 81.726 265.451 88.7785C229.165 163.695 204.079 197.482 204.079 197.482C188.128 216.082 186.206 243.938 200.478 265.276C216.586 285.236 243.56 291.429 265.813 281.397L265.818 281.4C265.818 281.4 305.11 266.929 386.66 253.532C397.218 253.955 407.896 252.426 418.549 248.682C419.166 248.598 419.776 248.506 420.401 248.421L420.232 248.059C429.069 244.762 437.884 239.926 446.58 233.41Z" fill="url(#paint2_linear)"/>
  <path d="M429.406 191.757C418.246 196.464 406.626 200.801 394.456 201.939C388.726 202.475 380.958 202.257 377 197.167C374.564 194.036 375.078 189.763 376.626 186.435C380.581 177.947 392.241 176.205 400.187 173.866C404.629 172.56 409.5 171.629 414.163 172.403C417.236 172.909 411.404 176.448 410.136 177.176C407.458 178.721 404.405 179.808 401.5 180.835C386.303 186.198 369.967 185.529 356.924 174.996C338.425 160.057 384.088 140.123 396.983 144.764C396.838 144.034 396.693 143.301 396.543 142.571C386.31 153.65 371.215 155.3 357.03 152.155C351.018 150.825 327.437 143.286 332.235 133.575C335.753 126.456 347.29 123.167 354.128 120.977C360.814 118.827 369.544 116.055 376.69 117.609C376.427 116.837 376.173 116.07 375.91 115.298C364.722 131.639 328.123 131.024 316.34 115.017C305.114 99.7716 344.096 92.1112 352.69 90.7616C354.435 90.4822 354.249 87.6696 352.491 87.9497C342.393 89.5392 303.463 96.7033 312.908 114.609C318.682 125.558 332.936 128.653 344.011 129.386C355.789 130.167 370.872 127.6 378.01 117.171C378.581 116.337 378.344 115.101 377.234 114.86C368.044 112.861 356.693 116.906 348.265 120.006C341.929 122.336 328.98 127.228 328.728 135.744C328.603 139.849 331.546 142.51 334.565 144.821C341.03 149.773 348.703 152.93 356.484 154.91C371.446 158.709 387.971 155.996 398.646 144.45C399.194 143.851 399.055 142.564 398.207 142.253C388.12 138.62 376.504 143.129 367.581 147.682C360.78 151.154 347.499 159.707 349.818 169.419C352.71 181.536 371.291 186.571 381.468 187.156C390.126 187.654 399.188 185.008 407.051 181.73C411.089 180.042 417.058 177.479 418.53 172.849C418.67 172.408 418.43 171.791 418.078 171.501C414.006 168.211 407.985 169.171 403.278 170.111C395.116 171.738 385.577 174.356 378.811 179.377C374.589 182.516 372.044 188.114 372.639 193.444C373.385 200.146 379.601 203.481 385.516 204.517C400.433 207.127 417.077 200.022 430.335 194.43C431.969 193.738 431.054 191.067 429.406 191.757Z" fill="white"/>
  <path d="M329.24 137.945L200.33 241.128C199.73 241.609 199.638 242.492 200.115 243.108C200.601 243.721 201.474 243.834 202.073 243.354L330.984 140.171C331.583 139.69 331.681 138.807 331.195 138.191C330.712 137.578 329.836 137.462 329.24 137.945Z" fill="white"/>
  <path d="M353.215 174.216L216.824 267.406C216.19 267.838 216.029 268.718 216.47 269.369C216.905 270.017 217.775 270.194 218.409 269.759L354.795 176.572C355.429 176.141 355.59 175.261 355.149 174.61C354.714 173.962 353.85 173.785 353.215 174.216Z" fill="white"/>
  <path d="M255.918 292.411C258.255 291.548 260.533 290.325 262.659 288.736C264.78 287.146 266.603 285.3 268.101 283.284L202.996 194.835C200.653 195.696 198.377 196.923 196.249 198.513C194.123 200.106 192.305 201.952 190.81 203.962C188.464 204.831 186.189 206.051 184.063 207.649C181.937 209.239 180.122 211.079 178.616 213.092C176.273 213.965 173.998 215.187 171.874 216.776C169.749 218.372 167.93 220.209 166.43 222.225C164.087 223.092 161.809 224.314 159.683 225.907C148.612 234.203 145.787 249.293 153.383 259.616L192.286 312.467C199.881 322.782 215.014 324.42 226.093 316.126C228.219 314.536 230.038 312.69 231.535 310.68C233.884 309.81 236.159 308.588 238.285 306.993C240.405 305.403 242.224 303.563 243.721 301.545C246.07 300.683 248.345 299.456 250.471 297.866C252.599 296.273 254.417 294.427 255.918 292.411Z" fill="#2E3192"/>
  <path d="M246.221 289.867C245.192 289.926 244.244 289.562 243.667 288.778L191.578 217.931C190.568 216.56 191.105 214.423 192.771 213.175C193.497 212.635 194.306 212.35 195.082 212.305C196.105 212.247 197.059 212.611 197.63 213.395L249.718 284.236C250.735 285.613 250.194 287.744 248.526 288.995C247.805 289.535 246.991 289.823 246.221 289.867Z" fill="#8778C3"/>
  <path d="M231.981 300.42C230.951 300.479 230.003 300.109 229.421 299.325L177.338 228.484C176.327 227.107 176.857 224.982 178.53 223.727C179.251 223.182 180.06 222.897 180.835 222.853C181.859 222.794 182.813 223.164 183.389 223.947L235.475 294.786C236.489 296.162 235.953 298.294 234.28 299.548C233.56 300.087 232.751 300.376 231.981 300.42Z" fill="#8778C3"/>
  <path d="M217.67 310.969C216.646 311.028 215.698 310.658 215.121 309.874L163.033 239.036C162.016 237.656 162.557 235.525 164.23 234.273C164.946 233.734 165.76 233.446 166.536 233.401C167.559 233.343 168.513 233.707 169.089 234.494L221.175 305.338C222.183 306.715 221.651 308.846 219.98 310.094C219.26 310.639 218.445 310.925 217.67 310.969Z" fill="#8778C3"/>
  <path d="M203.172 329.916C203.172 329.916 201.412 334.551 204.054 338.28C206.686 342.013 206.172 338.231 205.275 327.246L203.172 329.916Z" fill="#E66F64"/>
  <path d="M203.553 330.428C203.553 330.428 204.837 334.108 208.198 336.398C211.067 338.355 210.354 339.131 212.172 340.98C215.419 344.271 215.661 342.301 215.719 342.178C216.53 340.568 215.392 339.31 215.668 338.77C215.835 338.43 216.056 336.453 215.982 335.922C215.939 335.594 217.095 333.478 216.872 333.021C215.169 329.565 214.896 329.466 208.593 324.858C208.593 324.858 202.269 325.052 203.553 330.428Z" fill="#E66F64"/>
  <path d="M206.3 323.361L208.558 325.777C208.558 325.777 206.18 330.843 203.431 330.892L201.103 327.49L206.3 323.361Z" fill="white"/>
  <path d="M181.9 308.826C181.901 306.656 186.165 306.298 186.981 304.044C187.69 302.102 187.996 299.148 187.415 297.365C187.37 297.236 187.312 297.128 187.266 297C197.614 297.619 199.341 309.554 207.889 322.512C207.889 322.512 205.6 333.355 201.959 328.905C195.549 321.079 184.124 309.969 183.867 309.559C184.038 309.122 181.901 309.344 181.9 308.826Z" fill="#26285D"/>
  <path d="M185.382 310.773C187.014 309.378 186.904 313.174 188.44 311.669C189.468 310.648 190.502 309.626 191.487 308.549C192.046 307.196 192.567 305.827 192.97 304.413C193.004 304.296 191.669 303.347 191.767 302.807C191.851 301.443 189.827 299.401 190.083 298.045C179.667 291.223 156.024 287.648 146.98 291.436C132.064 297.679 150.37 307.956 150.37 307.956C161.265 309.811 169.612 310.364 182.929 309.405C182.929 309.405 185.323 310.495 185.382 310.773Z" fill="#26285D"/>
  <path d="M127.647 435.292C127.647 435.292 129.17 436.025 129.2 436.533C129.231 437.05 130.198 443.823 129.848 445.015C129.5 446.207 109.149 448.775 109.149 448.775C109.149 448.775 98.8252 448.403 97.7055 447.062C96.5858 445.722 97.0245 444.697 97.6302 444.519C98.2412 444.334 121.777 434.771 121.777 434.771L127.647 435.292Z" fill="#26285D"/>
  <path d="M209.55 414.256C209.55 414.256 211.125 414.879 211.186 415.385C211.253 415.896 212.672 422.588 212.41 423.8C212.141 425.018 192.042 429.007 192.042 429.007C192.042 429.007 181.724 429.363 180.528 428.103C179.316 426.843 179.679 425.79 180.281 425.568C180.875 425.345 203.665 414.145 203.665 414.145L209.55 414.256Z" fill="#26285D"/>
  <path d="M192.173 381.116L178.904 370.455L177.626 369.83L166.75 384.353C166.75 384.353 191.983 409.153 202.351 423.865C202.351 423.865 214.328 421.223 209.619 415.475C202.073 406.269 192.173 381.116 192.173 381.116Z" fill="#26285D"/>
  <path d="M139.129 290.526C139.129 290.526 142.894 280.534 153.047 279.316C153.047 279.316 158.289 281.438 186.39 305.964C187.247 306.704 201.168 314.459 213.013 324.915C213.013 324.915 197.125 335.926 178.646 337.234C178.646 337.234 138.975 325.248 133.253 309.859C133.253 309.859 129.968 301.465 139.129 290.526Z" fill="#2E3192"/>
  <path d="M167.371 340.261C167.371 340.261 174.602 334.655 174.256 334.652C173.902 334.646 164.942 327.406 164.942 327.406L149.959 319.219C149.959 319.219 141.217 299.387 140.898 299.716C140.576 300.037 135.061 296.482 135.061 296.482C135.061 296.482 130.121 306.269 134.108 312.398C138.09 318.535 149.871 326.874 158.288 329.516L167.371 340.261Z" fill="#26285D"/>
  <path d="M126.175 289.389C126.175 289.389 133.263 294.175 136.366 300.343C136.366 300.343 143.409 295.808 143.17 290.304C143.17 290.304 132.871 278.935 133.239 274.955C133.618 270.983 126.175 289.389 126.175 289.389Z" fill="#E66F64"/>
  <path d="M127.355 266.694C127.355 266.694 117.513 266.815 114.672 275.065C114.672 275.065 114.855 283.572 118.052 288.604C121.253 293.635 124.971 298.067 128.964 296.444C128.964 296.444 139.669 290.742 137.43 282.387C135.411 274.876 130.775 267.196 127.355 266.694Z" fill="#F68C82"/>
  <path d="M135.932 280.187C135.932 280.187 134.076 282.805 132.114 279.859C130.156 276.915 130.033 275.105 128.148 275.662C126.274 276.207 123.33 277.485 120.848 275.936C118.363 274.387 117.501 274.663 115.738 277.024C113.976 279.379 115.598 278.895 115.102 279.73C114.614 280.559 108.996 279.558 109.072 275.03C109.15 270.488 110.611 267.18 112.898 268.477C115.193 269.779 112.385 269.396 115.238 266.357C118.09 263.318 128.04 262.503 129.041 262.878C134.851 265.061 134.273 270.187 137.912 270.637C141.538 271.079 141.474 269.661 142.574 272.74C143.674 275.816 139.74 278.252 140.879 280.737C142.019 283.224 146.091 283.188 143.558 284.775C141.019 286.357 138.422 286.005 137.325 284.084C136.23 282.161 135.932 280.187 135.932 280.187Z" fill="#2E3192"/>
  <path d="M134.077 280.766C134.563 283.335 136.105 285.204 137.527 284.949C138.963 284.69 139.727 282.411 139.246 279.847C138.765 277.283 137.218 275.418 135.791 275.673C134.363 275.923 133.59 278.203 134.077 280.766Z" fill="#F68C82"/>
  <path d="M208.498 327.332C208.498 327.332 183.605 321.356 167.07 384.573C167.07 384.573 181.675 380.859 185.531 377.485C187.14 376.09 193.037 366.711 207.565 352.143C207.565 352.143 210.978 349.205 211.981 348.264C212.979 347.326 219.715 333.74 208.498 327.332Z" fill="#26285D"/>
  <path d="M152.363 395.189L155.384 376.982L150.44 371.689L138.234 375.918C138.234 375.918 125.906 417.52 118.81 433.365C118.81 433.365 131.711 445.292 134.724 438.386C135.26 437.152 152.363 395.189 152.363 395.189Z" fill="#2E3192"/>
  <path d="M198.771 317.291C198.771 317.291 148.138 345.832 137.687 376.279C137.687 376.279 146.212 383.394 152.867 379.994C156.597 378.08 199.268 353.539 210.601 349.703C210.601 349.703 208.994 351.11 212.043 348.409C219.647 341.676 216.46 324.033 198.771 317.291Z" fill="#2E3192"/>
  <path d="M143.802 286.611L139.96 284.574L135.731 296.473L137.344 301.388L146.139 317.442L149.901 319.049C149.901 319.049 142.417 298.582 142.475 298.335C142.535 298.084 143.802 286.611 143.802 286.611Z" fill="#D7D7D7"/>
  <path d="M137.85 299.632L133.471 296.045L128.587 301.566L134.865 300.992L137.99 301.286L137.85 299.632Z" fill="#D7D7D7"/>
  <path d="M140.018 284.608L144.482 282.493L143.597 295.98L135.752 296.537L140.018 284.608Z" fill="#D7D7D7"/>
  <path d="M146.182 317.447C146.182 317.447 138.943 312.052 138.773 311.308C138.606 310.558 135.467 300.282 135.467 300.282L139.293 301.084L146.182 317.447Z" fill="#D7D7D7"/>
  <path d="M138.593 296.289L137.651 297.787L135.791 297.405C135.791 297.405 134.677 298.624 134.448 298.728C134.216 298.825 134.772 300.397 135.282 300.829C135.782 301.252 137.079 301.624 137.079 301.624L137.657 301.002C137.648 300.876 138.456 299.397 138.456 299.397L141.591 296.072L138.593 296.289Z" fill="#36AB9C"/>
  <path d="M138.191 300.856L135.493 301.359C135.493 301.359 138.396 337.147 141.947 345.053C142.186 345.578 145.835 348.117 145.835 348.117L147.453 343.669L138.191 300.856Z" fill="#36AB9C"/>
  <path d="M215.351 315.062C215.351 315.062 220.268 314.346 223.286 317.866C226.314 321.369 222.75 319.987 212.263 316.567L215.351 315.062Z" fill="#F68C82"/>
  <path d="M215.978 315.381C215.978 315.381 219.245 317.478 220.697 321.32C221.939 324.6 225.143 325.43 225.911 327.93C226.447 329.66 223.077 327.835 222.941 327.811C222.861 327.79 221.748 328.322 221.165 328.469C220.803 328.558 218.672 328.532 218.178 328.346C217.869 328.232 215.644 328.67 215.258 328.333C212.632 326.099 212.476 326.36 209.449 319.1C209.449 319.1 211.076 312.898 215.978 315.381Z" fill="#F68C82"/>
  <path d="M212.165 312.833L214.54 315.122C214.54 315.122 213.499 321.223 210.754 321.417L207.564 318.288L212.165 312.833Z" fill="white"/>
  <path d="M187.126 300.112C187.019 297.936 191.247 297.349 191.948 295.05C192.551 293.07 192.708 290.105 192.025 288.352C191.974 288.218 191.905 288.123 191.849 288C202.217 288.046 204.577 299.88 213.815 312.367C213.815 312.367 212.102 323.331 208.221 319.078C201.412 311.609 189.414 301.129 189.134 300.737C189.277 300.299 187.154 300.628 187.126 300.112Z" fill="#2E3192"/>
  <path d="M190.643 301.853C192.195 300.372 192.286 304.175 193.735 302.587C194.715 301.51 195.691 300.427 196.61 299.293C197.094 297.91 197.539 296.51 197.87 295.07C197.898 294.959 196.521 294.08 196.581 293.536C196.594 292.163 194.468 290.237 194.655 288.854C183.893 282.612 160.105 280.335 151.282 284.627C136.733 291.697 155.545 300.967 155.545 300.967C166.513 302.222 174.876 302.314 188.117 300.629C188.117 300.629 190.562 301.584 190.643 301.853Z" fill="#2E3192"/>
  <path d="M114.453 275.949C114.453 275.949 111.719 279.09 120.071 280.244C128.425 281.394 128.602 280.033 130.459 283.286C132.317 286.539 130.367 279.293 127.293 277.729C124.218 276.162 124.246 276.992 122.398 274.224C120.543 271.443 121.145 269.655 117.802 271.274C114.464 272.89 114.453 275.949 114.453 275.949Z" fill="#2E3192"/>
  <path d="M113.052 277.932C113.052 277.932 108.468 278.9 110.865 282.5C113.27 286.1 114.285 283.928 113.729 286.816C113.729 286.816 115.684 286.94 115.289 284.713C114.89 282.48 115.474 281.801 115.177 280.29C114.88 278.78 115.199 277.835 115.15 277.669C115.108 277.504 113.052 277.932 113.052 277.932Z" fill="#2E3192"/>
  <path d="M338.276 264.206C338.276 264.206 335.309 264.871 335.615 268.236C335.921 271.608 338.311 270.31 339.087 272.286C339.865 274.261 339.517 274.292 339.771 275.974C340.027 277.652 340.322 277.865 341.803 278.193C343.285 278.527 345.069 276.305 344.836 274.91C344.594 273.51 338.276 264.206 338.276 264.206Z" fill="#2E3192"/>
  <path d="M347.677 424.546C347.677 424.546 349.179 425.303 349.201 425.809C349.231 426.317 350.083 433.064 349.712 434.24C349.349 435.416 329.102 437.644 329.102 437.644C329.102 437.644 318.848 437.11 317.762 435.761C316.667 434.41 317.115 433.402 317.727 433.229C318.331 433.062 341.857 423.938 341.857 423.938L347.677 424.546Z" fill="#26285D"/>
  <path d="M429.234 404.933C429.234 404.933 430.787 405.586 430.84 406.089C430.901 406.595 432.208 413.26 431.926 414.462C431.635 415.664 411.618 419.307 411.618 419.307C411.618 419.307 401.361 419.492 400.19 418.225C399.011 416.955 399.383 415.915 399.981 415.708C400.576 415.493 423.396 404.738 423.396 404.738L429.234 404.933Z" fill="#26285D"/>
  <path d="M412.539 371.76L399.518 360.969L398.259 360.329L387.233 374.571C387.233 374.571 411.906 399.592 421.976 414.356C421.976 414.356 433.913 411.927 429.328 406.147C421.981 396.888 412.539 371.76 412.539 371.76Z" fill="#26285D"/>
  <path d="M361.36 280.964C361.36 280.964 365.258 271.102 375.361 270.064C375.361 270.064 388.174 269.852 408.061 297.044C408.733 297.952 422.606 305.715 434.21 316.277C434.21 316.277 418.257 326.96 399.888 327.961C399.888 327.961 360.67 315.436 355.229 300.064C355.229 300.064 352.099 291.679 361.36 280.964Z" fill="#2E3192"/>
  <path d="M388.642 330.783C388.642 330.783 395.913 325.331 395.567 325.325C395.225 325.319 386.431 317.985 386.431 317.985L371.68 309.626C371.68 309.626 363.311 289.802 362.988 290.117C362.665 290.431 357.234 286.818 357.234 286.818C357.234 286.818 352.18 296.448 356.044 302.6C359.909 308.757 371.481 317.221 379.795 319.974L388.642 330.783Z" fill="#26285D"/>
  <path d="M348.454 279.639C348.454 279.639 355.423 284.5 358.41 290.681C358.41 290.681 365.474 286.287 365.318 280.817C365.318 280.817 355.269 269.369 355.695 265.426C356.133 261.487 348.454 279.639 348.454 279.639Z" fill="#E66F64"/>
  <path d="M351.203 257.629C351.203 257.629 341.665 257.599 338.786 265.541C338.786 265.541 338.835 273.776 341.856 278.701C344.881 283.628 348.417 287.979 352.311 286.47C352.311 286.47 362.77 281.107 360.721 272.986C358.877 265.676 354.508 258.169 351.203 257.629Z" fill="#F68C82"/>
  <path d="M358.097 271.187C358.077 271.172 357.998 271.213 357.876 271.283C357.294 271.611 355.736 272.506 354.65 270.453C353.339 267.972 353.156 267.345 351.628 267.433C350.094 267.52 347.859 267.522 346.462 266.533C345.072 265.541 343.377 265.352 341.754 266.088C340.128 266.818 338.469 267.053 337.866 266.447C337.266 265.844 334.504 263.309 336.425 260.864C338.343 258.414 341.948 259.022 342.372 258.129C342.801 257.238 345.132 255.333 346.034 254.427C346.939 253.529 349.39 253.672 350.716 254.585C352.034 255.504 353.035 255.802 354.428 255.794C355.827 255.782 360.527 256.791 360.656 258.202C360.776 259.612 361.17 261.279 362.355 262.781C363.534 264.28 365.181 264.554 365.294 266.031C365.404 267.503 364.251 268.989 364.894 270.156C365.538 271.325 366.61 271.564 366.859 272.447C367.105 273.334 365.729 276.248 364.404 276.261C363.079 276.279 361.208 275.18 360.517 273.942C359.824 272.709 358.097 271.187 358.097 271.187Z" fill="#2E3192"/>
  <path d="M357.521 271.361C357.944 273.848 359.419 275.686 360.804 275.465C362.186 275.24 362.964 273.037 362.539 270.55C362.111 268.063 360.642 266.23 359.259 266.451C357.869 266.676 357.094 268.874 357.521 271.361Z" fill="#F68C82"/>
  <path d="M429.597 318.612C429.597 318.612 404.961 312.28 387.548 374.791C387.548 374.791 402.112 371.332 406.001 368.047C407.621 366.683 413.626 357.471 428.288 343.235C428.288 343.235 431.718 340.367 432.729 339.454C433.735 338.541 440.635 325.156 429.597 318.612Z" fill="#26285D"/>
  <path d="M372.864 385.107L376.14 367.08L371.315 361.748L357.796 366.03C357.796 366.03 346.233 406.861 338.936 422.478C338.936 422.478 351.575 434.527 354.671 427.715C355.223 426.499 372.864 385.107 372.864 385.107Z" fill="#2E3192"/>
  <path d="M420.027 308.49C420.027 308.49 369.289 336.022 358.434 366.091C358.434 366.091 366.794 373.291 373.448 370.023C377.19 368.182 419.96 344.494 431.274 340.856C431.274 340.856 429.659 342.227 432.726 339.601C440.388 333.038 437.493 315.469 420.027 308.49Z" fill="#2E3192"/>
  <path d="M366.043 277.163L362.261 275.077L357.873 286.823L359.399 291.725L367.885 307.798L371.59 309.457C371.59 309.457 364.485 289.018 364.545 288.773C364.611 288.531 366.043 277.163 366.043 277.163Z" fill="#E7E6E6"/>
  <path d="M359.759 289.993L355.461 286.362L350.53 291.764L356.767 291.296L359.875 291.636L359.759 289.993Z" fill="#E7E6E6"/>
  <path d="M362.325 275.101L366.79 273.069L365.696 286.447L357.895 286.879L362.325 275.101Z" fill="#E7E6E6"/>
  <path d="M367.872 307.802C367.872 307.802 360.768 302.335 360.615 301.591C360.453 300.846 357.502 290.595 357.502 290.595L361.285 291.453L367.872 307.802Z" fill="white"/>
  <path d="M360.653 286.683L359.701 288.154L357.855 287.741C357.855 287.741 356.732 288.944 356.502 289.035C356.269 289.128 356.8 290.702 357.293 291.132C357.791 291.567 359.073 291.957 359.073 291.957L359.657 291.346L360.473 289.772L363.639 286.515L360.653 286.683Z" fill="#36AB9C"/>
  <path d="M360.06 291.224L357.383 291.678C357.383 291.678 359.719 327.252 363.118 335.16C363.346 335.682 366.93 338.262 366.93 338.262L368.596 333.873L360.06 291.224Z" fill="#36AB9C"/>
  <path d="M360.894 222.657C360.894 222.657 364.292 219.126 363.247 214.681C362.212 210.239 361.252 213.894 357.92 224.26L360.894 222.657Z" fill="#F68C82"/>
  <path d="M360.982 221.998C360.982 221.998 361.196 218.155 358.968 214.753C357.07 211.859 358.254 208.808 356.713 206.747C355.639 205.31 355.146 209.075 355.093 209.2C355.057 209.279 353.991 209.857 353.535 210.245C353.253 210.488 352.042 212.204 351.905 212.71C351.824 213.03 350.189 214.563 350.23 215.066C350.502 218.475 350.19 218.45 354.243 225.088C354.243 225.088 360.13 227.378 360.982 221.998Z" fill="#F68C82"/>
  <path d="M361.271 254.031C359.758 255.519 356.518 252.712 354.367 253.668C352.519 254.49 350.255 256.289 349.428 257.931L349.289 258.291C342.412 250.459 349.481 241.046 352.443 226.035C352.443 226.035 361.583 220.254 361.065 225.912C360.151 235.863 360.498 251.656 360.385 252.118C359.971 252.295 361.631 253.681 361.271 254.031Z" fill="#E7E6E6"/>
  <path d="M359.786 250.178C357.674 249.966 360.379 247.468 358.263 247.401C356.83 247.354 355.391 247.311 353.958 247.348C352.627 247.868 351.321 248.43 350.051 249.1C349.951 249.155 350.224 250.756 349.791 251.055C348.79 251.921 348.806 254.747 347.681 255.489C350.303 267.556 364.47 286.838 373.447 290.705C388.261 297.09 382.479 277.049 382.479 277.049C376.097 268.028 370.607 261.702 360.568 252.859C360.568 252.859 359.643 250.417 359.786 250.178Z" fill="#E7E6E6"/>
  <path d="M376.037 272.382C376.037 272.382 364.536 273.622 365.699 284.772C366.865 295.927 384.392 298.657 390.008 290.913C395.627 283.173 384.453 271.082 376.037 272.382Z" fill="#E7E6E6"/>
  <path d="M573.86 416.978C573.86 416.978 575.357 417.777 575.372 418.293C575.389 418.808 576.181 425.654 575.805 426.838C575.426 428.019 555.2 429.802 555.2 429.802C555.2 429.802 544.975 429.022 543.905 427.634C542.821 426.241 543.283 425.228 543.894 425.073C544.498 424.916 568.058 416.23 568.058 416.23L573.86 416.978Z" fill="#26285D"/>
  <path d="M538.505 388.248C538.505 388.248 539.968 389.093 539.956 389.604C539.95 390.114 540.415 396.894 539.982 398.049C539.547 399.204 519.184 400.21 519.184 400.21C519.184 400.21 508.964 399.062 507.961 397.649C506.94 396.235 507.453 395.254 508.068 395.124C508.683 394.993 532.721 387.292 532.721 387.292L538.505 388.248Z" fill="#26285D"/>
  <path d="M520.954 354.306L507.938 343.512L506.679 342.869L495.654 357.117C495.654 357.117 520.326 382.134 530.396 396.896C530.396 396.896 542.333 394.47 537.748 388.69C530.396 379.434 520.954 354.306 520.954 354.306Z" fill="#26285D"/>
  <path d="M523.999 294.099C523.999 294.099 513.406 294.878 496.019 357.334C496.019 357.334 510.561 353.876 514.451 350.596C516.069 349.23 522.067 340.023 536.712 325.805C536.712 325.805 542.349 312.419 543.359 311.512C544.366 310.6 535.029 300.637 523.999 294.099Z" fill="#26285D"/>
  <path d="M548.142 373.021L535.165 359.964L528.162 360.989L524.298 374.843C524.298 374.843 551.436 407.903 560.265 422.979C560.265 422.979 577.02 419.19 573.133 412.684C572.437 411.528 548.142 373.021 548.142 373.021Z" fill="#2E3192"/>
  <path d="M511.166 291.026C511.166 291.026 506.164 349.069 524.646 375.179C524.646 375.179 534.962 372.265 535.899 364.845C536.42 360.677 541.104 324.653 544.248 313.13C544.248 313.13 543.636 302.087 543.158 298.038C541.965 287.906 526.206 280.37 511.166 291.026Z" fill="#2E3192"/>
  <path d="M494.251 226.506C492.235 227.17 493.712 223.751 491.748 224.552C490.424 225.096 489.095 225.641 487.802 226.26C486.79 227.281 485.813 228.337 484.925 229.473C484.855 229.563 485.738 230.933 485.46 231.386C484.888 232.595 486.022 235.211 485.29 236.353C492.464 246.454 513.055 258.528 522.786 258.455C538.852 258.325 525.633 242.135 525.633 242.135C516.223 236.382 508.701 232.763 496.025 228.667C496.025 228.667 494.208 226.783 494.251 226.506Z" fill="#BDBCBC"/>
  <path d="M517.713 238.286C517.713 238.286 523.555 233.478 531.571 239.842C531.571 239.842 537.506 245.618 540.524 282.38C540.611 283.495 545.127 298.689 546.321 314.263C546.321 314.263 523.948 321.329 509.991 309.136C509.991 309.136 496.887 260.027 503.419 245.4C503.419 245.4 503.717 239.318 517.713 238.286Z" fill="#E5E4E4"/>
  <path d="M509.773 228.102C509.773 228.102 511.521 236.478 509.455 242.963C509.455 242.963 517.64 244.849 521.285 240.87C521.285 240.87 521.819 225.644 524.846 223.166C527.87 220.684 509.773 228.102 509.773 228.102Z" fill="#E66F64"/>
  <path d="M526.435 212.964C526.435 212.964 519.536 206.231 512.006 209.8C512.006 209.8 506.41 215.634 505.237 221.226C504.061 226.83 503.654 232.373 507.512 234.045C507.512 234.045 518.774 237.629 522.849 230.466C526.507 224.025 528.469 215.665 526.435 212.964Z" fill="#F68C82"/>
  <path d="M522.211 227.223C522.211 227.223 520.582 228.035 521.287 224.25C521.99 220.466 524.13 220.768 519.521 216.769C514.902 212.774 509.147 210.256 508.196 207.689L511.136 207.678L513.667 204.47C513.667 204.47 524.586 206.835 527.32 210.118C530.054 213.403 532.362 220.742 532.567 221.922C532.763 223.101 525.443 231.481 522.906 232.344C520.366 233.213 522.211 227.223 522.211 227.223Z" fill="#2E3192"/>
  <path d="M521.482 226.92C520.089 228.978 519.901 231.306 521.063 232.126C522.227 232.946 524.295 231.941 525.688 229.889C527.084 227.831 527.27 225.504 526.105 224.684C524.941 223.864 522.872 224.863 521.482 226.92Z" fill="#F68C82"/>
  <path d="M524.19 238.89L522.848 234.719L511.536 239.919L509.283 244.48L504.467 261.927L506.055 265.739C506.055 265.739 514.889 246.181 515.102 246.055C515.314 245.926 524.19 238.89 524.19 238.89Z" fill="#E5E4E4"/>
  <path d="M510.847 243.606L510.209 238.019L502.926 238.358L507.788 242.425L509.808 244.847L510.847 243.606Z" fill="white"/>
  <path d="M523.003 234.69L527.675 236.419L517.637 245.152L511.626 239.92L523.003 234.69Z" fill="white"/>
  <path d="M504.376 261.937C504.376 261.937 502.949 253.046 503.341 252.407C503.731 251.771 508.589 242.443 508.589 242.443L510.753 245.722L504.376 261.937Z" fill="#E5E4E4"/>
  <path d="M517.285 213.495C517.1 213.611 514.061 212.427 514.061 212.427C514.061 212.427 507.73 208.324 512.915 203.124L513.253 204.329L518.628 206.186L517.285 213.495Z" fill="#2E3192"/>
  <path d="M513.718 241.835L512.014 242.197L510.944 240.599C510.944 240.599 509.304 240.656 509.074 240.56C508.838 240.462 508.143 241.954 508.206 242.61C508.266 243.261 508.938 244.454 508.938 244.454L509.788 244.426L511.468 243.893L516.014 243.828L513.718 241.835Z" fill="url(#paint3_linear)"/>
  <path d="M509.934 244.323L507.234 243.955C507.234 243.955 502.245 294.184 503.324 302.735C503.393 303.301 506.124 306.826 506.124 306.826L508.949 303.139L509.934 244.323Z" fill="url(#paint4_linear)"/>
  <path d="M471.601 209.387C471.601 209.387 466.822 210.618 463.478 207.453C460.131 204.297 463.799 205.29 474.494 207.561L471.601 209.387Z" fill="#F68C82"/>
  <path d="M470.96 209.145C470.96 209.145 467.521 207.405 465.686 203.755C464.122 200.642 460.879 200.161 459.865 197.768C459.153 196.112 462.67 197.556 462.806 197.574C462.894 197.583 463.932 196.936 464.492 196.732C464.84 196.606 466.945 196.4 467.453 196.531C467.765 196.616 469.914 195.948 470.334 196.235C473.157 198.177 473.286 197.895 477.016 204.765C477.016 204.765 476.057 211.077 470.96 209.145Z" fill="#F68C82"/>
  <path d="M500.816 224.339C501.017 226.494 495.201 224.444 494.602 226.761C494.081 228.757 494.052 231.705 494.8 233.421C494.854 233.549 491.83 234.104 491.889 234.226C480.01 222.739 481.874 222.495 472.198 210.478C472.198 210.478 473.452 199.517 477.465 203.574C484.535 210.71 497.721 220.273 498.012 220.655C497.889 221.098 500.769 223.829 500.816 224.339Z" fill="#E5E4E4"/>
  <path d="M499.665 222.436C497.636 223.066 499.168 219.676 497.196 220.44C495.86 220.965 494.524 221.487 493.221 222.087C492.198 223.094 491.205 224.133 490.299 225.251C490.224 225.346 491.088 226.725 490.804 227.173C490.211 228.375 491.31 231.003 490.554 232.135C497.575 242.349 517.979 254.741 527.716 254.816C543.782 254.949 530.808 238.55 530.808 238.55C521.488 232.653 514.02 228.917 501.411 224.621C501.411 224.621 499.623 222.71 499.665 222.436Z" fill="#E5E4E4"/>
  <defs>
    <filter id="filter0_d" x="0" y="256.228" width="461.301" height="492.035" filterUnits="userSpaceOnUse" color-interpolation-filters="sRGB">
      <feFlood flood-opacity="0" result="BackgroundImageFix"/>
      <feColorMatrix in="SourceAlpha" type="matrix" values="0 0 0 0 0 0 0 0 0 0 0 0 0 0 0 0 0 0 127 0"/>
      <feOffset dy="8"/>
      <feGaussianBlur stdDeviation="2"/>
      <feColorMatrix type="matrix" values="0 0 0 0 0.854902 0 0 0 0 0.878431 0 0 0 0 0.905882 0 0 0 1 0"/>
      <feBlend mode="normal" in2="BackgroundImageFix" result="effect1_dropShadow"/>
      <feBlend mode="normal" in="SourceGraphic" in2="effect1_dropShadow" result="shape"/>
    </filter>
    <filter id="filter1_d" x="547.854" y="424.694" width="37.9629" height="15.7444" filterUnits="userSpaceOnUse" color-interpolation-filters="sRGB">
      <feFlood flood-opacity="0" result="BackgroundImageFix"/>
      <feColorMatrix in="SourceAlpha" type="matrix" values="0 0 0 0 0 0 0 0 0 0 0 0 0 0 0 0 0 0 127 0"/>
      <feOffset dx="4" dy="7"/>
      <feGaussianBlur stdDeviation="2.5"/>
      <feColorMatrix type="matrix" values="0 0 0 0 0.768627 0 0 0 0 0.768627 0 0 0 0 0.768627 0 0 0 1 0"/>
      <feBlend mode="normal" in2="BackgroundImageFix" result="effect1_dropShadow"/>
      <feBlend mode="normal" in="SourceGraphic" in2="effect1_dropShadow" result="shape"/>
    </filter>
    <filter id="filter2_d" x="397.854" y="414.694" width="37.9629" height="15.7444" filterUnits="userSpaceOnUse" color-interpolation-filters="sRGB">
      <feFlood flood-opacity="0" result="BackgroundImageFix"/>
      <feColorMatrix in="SourceAlpha" type="matrix" values="0 0 0 0 0 0 0 0 0 0 0 0 0 0 0 0 0 0 127 0"/>
      <feOffset dx="4" dy="7"/>
      <feGaussianBlur stdDeviation="2.5"/>
      <feColorMatrix type="matrix" values="0 0 0 0 0.768627 0 0 0 0 0.768627 0 0 0 0 0.768627 0 0 0 1 0"/>
      <feBlend mode="normal" in2="BackgroundImageFix" result="effect1_dropShadow"/>
      <feBlend mode="normal" in="SourceGraphic" in2="effect1_dropShadow" result="shape"/>
    </filter>
    <filter id="filter3_d" x="319.854" y="433.694" width="37.9629" height="15.7444" filterUnits="userSpaceOnUse" color-interpolation-filters="sRGB">
      <feFlood flood-opacity="0" result="BackgroundImageFix"/>
      <feColorMatrix in="SourceAlpha" type="matrix" values="0 0 0 0 0 0 0 0 0 0 0 0 0 0 0 0 0 0 127 0"/>
      <feOffset dx="4" dy="7"/>
      <feGaussianBlur stdDeviation="2.5"/>
      <feColorMatrix type="matrix" values="0 0 0 0 0.768627 0 0 0 0 0.768627 0 0 0 0 0.768627 0 0 0 1 0"/>
      <feBlend mode="normal" in2="BackgroundImageFix" result="effect1_dropShadow"/>
      <feBlend mode="normal" in="SourceGraphic" in2="effect1_dropShadow" result="shape"/>
    </filter>
    <linearGradient id="paint0_linear" x1="491" y1="496.214" x2="4.00003" y2="496.214" gradientUnits="userSpaceOnUse">
      <stop stop-color="#FFB1DF"/>
      <stop offset="1" stop-color="#AEC1ED"/>
    </linearGradient>
    <linearGradient id="paint1_linear" x1="326.624" y1="-60.4216" x2="349.223" y2="335.019" gradientUnits="userSpaceOnUse">
      <stop stop-color="#DCB7FE"/>
      <stop offset="1" stop-color="#3EBCFC"/>
    </linearGradient>
    <linearGradient id="paint2_linear" x1="329.406" y1="3.67347" x2="347.767" y2="324.773" gradientUnits="userSpaceOnUse">
      <stop stop-color="#DCB7FE"/>
      <stop offset="1" stop-color="#3EBCFC"/>
    </linearGradient>
    <linearGradient id="paint3_linear" x1="511.831" y1="239.284" x2="512.164" y2="245.095" gradientUnits="userSpaceOnUse">
      <stop stop-color="#DCB7FE"/>
      <stop offset="1" stop-color="#3EBCFC"/>
    </linearGradient>
    <linearGradient id="paint4_linear" x1="503.336" y1="226.326" x2="508.777" y2="319.602" gradientUnits="userSpaceOnUse">
      <stop stop-color="#DCB7FE"/>
      <stop offset="1" stop-color="#3EBCFC"/>
    </linearGradient>
  </defs>
</svg>
