<svg id="Layer_1" data-name="Layer 1"
  xmlns="http://www.w3.org/2000/svg"
  xmlns:xlink="http://www.w3.org/1999/xlink" viewBox="0 0 1444.47 1064.81">
  <defs>
    <style>.cls-1{fill:url(#linear-gradient);}.cls-2{fill:url(#linear-gradient-2);}</style>
    <linearGradient id="linear-gradient" x1="720" y1="2.83" x2="720" y2="1016.46" gradientTransform="matrix(1, 0, 0, -1, 0, 1072)" gradientUnits="userSpaceOnUse">
      <stop offset="0.77" stop-color="#d9eafc"/>
      <stop offset="1" stop-color="#d9eafc" stop-opacity="0"/>
    </linearGradient>
    <linearGradient id="linear-gradient-2" x1="1442.77" y1="478.35" x2="533.65" y2="482.59" gradientUnits="userSpaceOnUse">
      <stop offset="0" stop-color="#e0c0fe"/>
      <stop offset="1" stop-color="#3dbcfc"/>
    </linearGradient>
  </defs>
  <path class="cls-1" d="M0,1010.77s250.2,68,413,57.26c134.48-8.82,198.66-78.49,333.5-79.45,139-1,205.59,75.09,344.5,79.45,138.51,4.36,349-57.26,349-57.26V55.54H0Z" transform="translate(0 -4.36)"/>
  <path class="cls-2" d="M1444.47,4.36c-175,7.2-865.53,50.58-901,287.3C526.72,403.27,738.4,465.1,688.61,576.25c-27,60.34-122.08,88.71-147.18,149.14-36.55,88,202.07,170.36,202.07,170.36s124.5,58.35,319,58.35c126.31,0,301.87-32.74,382-49.17Z" transform="translate(0 -4.36)"/>
</svg>