<svg width="688" height="393" viewBox="0 0 688 393" fill="none" xmlns="http://www.w3.org/2000/svg">
<path d="M628.465 21.0804C650.348 21.0804 668.09 39.9548 668.09 63.2456V329.473C668.09 352.76 650.348 371.638 628.465 371.638H59.4414C37.5547 371.638 19.8125 352.76 19.8125 329.473V275.318C19.8125 272.459 21.9961 270.137 24.6836 270.137H27.1953C37.1719 270.137 45.2656 261.533 45.2656 250.914V141.801C45.2656 131.186 37.1719 122.573 27.1953 122.573H24.6836C21.9961 122.573 19.8125 120.259 19.8125 117.397V63.2456C19.8125 39.9548 37.5547 21.0804 59.4414 21.0804H628.465ZM0 63.2456L0 329.473C0 364.347 26.6641 392.719 59.4414 392.719H628.465C661.238 392.719 687.902 364.347 687.902 329.473V63.2456C687.902 28.3717 661.238 -9.86624e-05 628.465 -9.86624e-05H59.4414C26.6641 -9.86624e-05 0 28.3717 0 63.2456Z" fill="#304D89"/>
</svg>
