<svg width="706" height="497" viewBox="0 0 706 497" fill="none"
  xmlns="http://www.w3.org/2000/svg">
  <g filter="url(#filter0_d)">
    <path d="M43.0983 266.886C93.394 242.758 159.355 278.561 226.462 292.706C294.799 307.111 379.978 276.197 427.633 322.407C466.086 359.693 450.399 359.128 503.285 376.855C571.558 399.741 670.406 365.932 689.126 411.523C696.045 428.374 693.434 439.218 683.037 453.79C651.813 497.553 543.55 489.813 474.522 441.8C417.502 402.139 383.117 441.092 315.832 432.863C266.356 426.812 237.307 397.86 187.814 392.038C145.192 387.024 110.09 409.05 73.8409 391.889C40.5713 376.137 30.7096 369.345 19.5144 345.144C6.80164 317.663 10.3927 282.576 43.0983 266.886Z" fill="url(#paint0_linear)"/>
  </g>
  <path d="M84.7026 342.003C84.7026 342.003 81.9854 351.389 81.0734 354.567C80.1638 357.748 77.4155 358.897 69.0378 358.605C60.6601 358.312 45.6592 358.974 40.257 358.485C34.8548 357.996 29.2668 354.382 42.6666 350.781C56.0666 347.177 69.9936 336.009 69.9936 336.009L84.7026 342.003Z" fill="#FAB88B"/>
  <path d="M233.552 301.066C233.552 301.066 239.405 352.435 203.93 352.331C168.456 352.226 135.366 276.832 128.014 278.964C120.663 281.095 89.5993 345.707 89.5993 345.707L62.2577 334.842C62.2577 334.842 84.1155 272.217 94.9815 253.611C105.85 235.008 122.075 230.265 138.703 236.119C155.331 241.973 184.854 287.141 195.115 297.585C205.376 308.03 233.552 301.066 233.552 301.066Z" fill="#2300B1"/>
  <path d="M62.2796 334.843C62.2796 334.843 73.0787 343.202 89.6212 345.707C91.7531 341.327 94.3383 336.088 94.3383 336.088C94.3383 336.088 79.065 333.151 65.7118 325.198C63.6099 331.078 62.2796 334.843 62.2796 334.843Z" fill="#313062"/>
  <path d="M121.002 215.015L120.076 214.167C120.076 214.167 136.979 198.4 154.967 188.804C171.961 179.738 184.388 178.418 184.388 178.418C184.388 178.418 206.366 179.73 230.732 202.86C255.093 225.989 263.203 267.043 258.115 314.627C245.358 318.592 231.125 324.842 218.584 318.073C188.774 301.982 171.361 265.019 171.361 265.019C171.361 265.019 156.63 234.008 151.519 223.447C142.778 227.162 136.135 230.912 136.135 230.912L121.002 215.015Z" fill="#FBEADF"/>
  <path d="M180.306 234.91C180.306 234.91 194.359 215.518 196.625 205.939C181.835 233.495 160.957 243.264 160.957 243.264L166.344 255.706C166.344 255.706 175.988 245.705 176.972 244.706C177.953 243.707 180.306 234.91 180.306 234.91Z" fill="#FAB88B"/>
  <path d="M200.421 248.076C200.421 248.076 216.419 230.601 222.848 216.084C215.326 239.872 205.433 253.736 207.425 252.362C209.416 250.989 221.389 239.952 218.908 244.156C216.424 248.36 210.832 258.573 210.81 261.368C210.792 264.164 217.353 294.819 220.599 300.241C223.84 305.659 240.894 310.7 239.672 311.291C238.454 311.878 222.811 309.301 222.17 308.657C221.527 308.014 218.331 312.386 218.331 312.386C218.331 312.386 184.609 287.927 183.454 285.127C182.301 282.324 177.493 265.808 177.493 265.808L200.421 248.076Z" fill="#FAB88B"/>
  <path d="M109.222 355.56C109.222 355.56 106.505 364.945 105.595 368.126C104.683 371.307 101.935 372.454 93.5571 372.164C85.1794 371.872 70.1785 372.533 64.7763 372.044C59.3741 371.555 53.7861 367.941 67.1861 364.337C80.5834 360.736 94.5131 349.566 94.5131 349.566L109.222 355.56Z" fill="#FAB88B"/>
  <path d="M258.069 314.625C258.069 314.625 257.002 359.926 221.527 359.822C186.053 359.717 159.882 290.394 152.531 292.523C145.18 294.654 114.116 359.269 114.116 359.269L86.7772 348.402C86.7772 348.402 108.632 285.776 119.498 267.173C130.367 248.567 146.592 243.823 163.22 249.678C179.847 255.534 209.374 300.7 219.634 311.145C229.892 321.591 258.069 314.625 258.069 314.625Z" fill="#2E7DFB"/>
  <path d="M157.279 278.811C157.279 278.811 166.008 284.978 170.111 291.379C174.217 297.78 175.141 301.189 173.94 300.834C172.74 300.477 165.773 290.494 165.773 290.494C165.773 290.494 171.063 302.663 169.585 302.651C168.107 302.642 161.965 291.503 161.965 291.503C161.965 291.503 167.306 303.307 166.05 303.564C164.794 303.818 158.842 291.956 158.842 291.956C158.842 291.956 162.624 303.269 161.77 303.184C160.915 303.099 156.872 293.749 156.023 292.688C155.174 291.624 144.809 280.841 144.741 280.221C144.673 279.599 157.279 278.811 157.279 278.811Z" fill="#F89C72"/>
  <path d="M120.948 215.009C120.948 215.009 87.4121 239.914 86.3749 251.368C85.3379 262.82 105.337 268.827 105.337 268.827L137.897 265.016C137.897 265.016 111.498 251.206 110.213 249.925C108.928 248.645 136.084 230.906 136.084 230.906L120.948 215.009Z" fill="#F89C72"/>
  <path d="M159.021 195.381C159.021 195.381 160.479 209.343 170.435 208.535C180.391 207.727 184.994 194.705 185.383 185.262C185.772 175.82 183.763 174.784 183.763 174.784L178.559 173.813L159.021 195.381Z" fill="#F89C72"/>
  <path d="M128.723 165.495C128.723 165.495 136.487 185.775 150.805 193.595C165.126 201.418 174.779 191.716 177.744 183.567C180.707 175.416 178.989 168.532 179.136 168.198C179.283 167.861 158.667 148.049 158.667 148.049C158.667 148.049 143.164 145.247 140.133 147.767C137.102 150.29 128.723 165.495 128.723 165.495Z" fill="#FAB88B"/>
  <path d="M152.463 157.129C153.665 155.229 156.522 155.368 157.48 157.403C158.341 159.229 159.523 161.071 161.133 162.483C165.962 166.73 170.502 166.439 173.416 168.646C176.326 170.852 179.577 176.196 182.938 176.034C186.298 175.873 191.39 169.496 190.432 162.886C189.474 156.273 185.31 149.835 185.245 145.403C185.18 140.971 186.142 123.035 168.995 116.471C151.849 109.907 148.516 118.346 143.297 120.554C138.078 122.762 128.797 124.716 122.898 134.438C116.999 144.154 121.37 152.594 120.962 155.815C120.553 159.041 121.651 166.253 133.891 167.706C142.246 168.703 148.89 162.776 152.463 157.129Z" fill="#3A3677"/>
  <path d="M180.279 234.907C180.279 234.907 159.299 258.641 154.22 261.445C149.144 264.246 92.1412 257.841 88.494 260.307C84.8468 262.774 87.2369 270.758 88.2181 271.934C89.2018 273.111 144.467 284.95 159.929 280.914C175.391 276.878 200.41 248.071 200.41 248.071L180.279 234.907Z" fill="#FAB88B"/>
  <path d="M86.8011 348.402C86.8011 348.402 97.5976 356.761 114.14 359.269C116.272 354.889 118.857 349.65 118.857 349.65C118.857 349.65 103.584 346.711 90.2307 338.757C88.1285 344.64 86.8011 348.402 86.8011 348.402Z" fill="#313062"/>
  <path d="M151.434 223.44C151.434 223.44 145.235 204.237 145.123 205.47C145.011 206.703 146.379 217.391 145.921 217.272C145.466 217.153 142.21 215.304 142.217 216.936C142.225 218.569 131.911 226.557 131.911 226.557L136.05 230.904L151.434 223.44Z" fill="#FAB88B"/>
  <path d="M440.344 344.726L386.947 339.849L403.487 362.801L440.344 344.726Z" fill="#575566"/>
  <path d="M312.881 358.216L395.33 366.004C398.165 366.271 400.441 363.706 399.831 360.931L386.761 301.178C386.366 299.368 384.828 298.032 382.976 297.889L299.672 291.515C296.832 291.296 294.602 293.905 295.263 296.672L309.189 355.008C309.605 356.757 311.089 358.046 312.881 358.216Z" fill="#443F55"/>
  <path d="M316.684 358.358L399.135 366.149C401.967 366.413 404.244 363.851 403.634 361.074L390.567 301.324C390.171 299.513 388.631 298.175 386.779 298.031L303.477 291.657C300.635 291.442 298.405 294.048 299.066 296.815L312.992 355.154C313.408 356.902 314.894 358.192 316.684 358.358Z" fill="#383448"/>
  <path d="M401.936 365.312L441.114 348.376C441.114 348.376 442.911 347.055 442.279 345.404C441.649 343.754 439.029 345.158 437.732 345.687C436.429 346.216 402.092 361.466 402.092 361.466L401.936 365.312Z" fill="#383448"/>
  <path d="M348.189 312.572C348.063 315.729 343.837 318.127 338.748 317.925C333.659 317.726 329.631 314.999 329.759 311.842C329.884 308.682 334.111 306.284 339.202 306.486C344.289 306.685 348.314 309.412 348.189 312.572Z" fill="#575566"/>
  <path d="M427.385 296.85L461.323 280.244L462.252 282.792L427.385 296.85Z" fill="#7ADCFB"/>
  <path d="M443.656 303.915L486.198 294.497L486.199 296.818L443.656 303.915Z" fill="#7ADCFB"/>
  <path d="M431.266 316.229L471.369 316.677L471.37 319.693L431.266 316.229Z" fill="#7ADCFB"/>
  <path d="M311.097 265.446C310.635 265.33 288.534 235.05 288.534 235.05C288.534 235.05 291.788 232.843 291.904 233.191C292.021 233.537 311.097 265.446 311.097 265.446Z" fill="#7ADCFB"/>
  <path d="M312.658 248.621C312.426 246.996 303.229 217.523 303.229 217.523L305.787 216.132L312.658 248.621Z" fill="#7ADCFB"/>
  <path d="M326.185 264.744L323.264 234.688L325.358 234.688L326.185 264.744Z" fill="#7ADCFB"/>
  <path d="M288.518 287.735L256.196 275.215L257.475 272.777L288.518 287.735Z" fill="#7ADCFB"/>
  <path d="M272.363 299.808L248.069 302.487L248.068 299.817L272.363 299.808Z" fill="#7ADCFB"/>
  <path d="M292.835 308.616L267.848 320.233L266.568 317.45L292.835 308.616Z" fill="#7ADCFB"/>
  <path d="M394.469 181.921L393.24 131.828C393.174 129.164 395.381 126.999 398.048 127.111L489.597 130.993C492.063 131.1 494.012 133.127 494.013 135.593L494.029 177.85C494.03 180.316 492.084 182.344 489.618 182.45L399.284 186.407C396.702 186.521 394.532 184.5 394.469 181.921Z" fill="#7ADCFB"/>
  <path d="M419.219 181.572L404.82 210.175L430.39 181.568L419.219 181.572Z" fill="#7ADCFB"/>
  <path d="M381.003 162.977L381.015 194.672C381.016 196.883 379.325 198.728 377.12 198.924L314.225 204.49C311.837 204.7 309.742 202.91 309.583 200.525L307.137 164.108C306.973 161.668 308.894 159.591 311.347 159.559L376.673 158.713C379.054 158.684 381.002 160.599 381.003 162.977Z" fill="#7ADCFB"/>
  <path d="M347.874 197.971C347.567 198.433 360.127 213.904 359.663 213.904C359.196 213.905 339.197 197.975 339.197 197.975L347.874 197.971Z" fill="#7ADCFB"/>
  <path d="M395.996 226.236L447.207 230.327C448.966 230.468 450.305 231.964 450.244 233.728L449.535 254.476C449.477 256.186 448.118 257.57 446.403 257.655L395.047 260.281C393.118 260.38 391.515 258.812 391.576 256.885L392.43 229.423C392.488 227.537 394.115 226.085 395.996 226.236Z" fill="#7ADCFB"/>
  <path d="M407.758 256.589L398.776 271.754L414.269 256.587L407.758 256.589Z" fill="#7ADCFB"/>
  <path d="M594.734 439.913C594.734 439.913 594.958 438.1 594.676 437.548C590.813 437.699 548.351 453.803 548.351 453.803C548.351 453.803 547.987 455.281 548.54 456.442C557.652 455.739 594.734 439.913 594.734 439.913Z" fill="#383448"/>
  <path d="M594.083 441.019L568.197 459.915C567.841 460.178 567.392 460.284 566.956 460.21L549.707 457.268C548.281 457.024 547.847 455.185 549.02 454.333L574.857 435.558C575.21 435.303 575.654 435.197 576.082 435.267L593.38 438.084C594.814 438.318 595.256 440.162 594.083 441.019Z" fill="#383448"/>
  <path d="M594.083 439.329L568.197 458.228C567.841 458.491 567.392 458.595 566.956 458.52L549.707 455.581C548.281 455.337 547.847 453.495 549.02 452.646L574.857 433.871C575.21 433.616 575.654 433.51 576.082 433.58L593.38 436.397C594.814 436.629 595.256 438.473 594.083 439.329Z" fill="#443F55"/>
  <path d="M575.594 434.564L593.467 437.75L566.972 457.779L548.957 454.33L575.594 434.564Z" fill="#7ADCFB"/>
  <path d="M572.823 440.17L580.667 441.874C581.327 442.016 581.49 442.882 580.928 443.259L573.896 447.931C573.734 448.039 573.532 448.083 573.339 448.05L565.84 446.745C565.18 446.629 564.973 445.783 565.507 445.378L572.193 440.309C572.371 440.173 572.601 440.121 572.823 440.17Z" fill="white"/>
  <path d="M570.887 446.989L571.258 451.511L568.826 446.172L570.887 446.989Z" fill="white"/>
  <path d="M545.913 433.566L522.586 409.164L520.841 411.37L545.913 433.566Z" fill="#7ADCFB"/>
  <path d="M525.55 430.516L497.182 415.789L496.136 418.227L525.55 430.516Z" fill="#7ADCFB"/>
  <path d="M534.262 446.059L502.644 448.86L502.643 446.77L534.262 446.059Z" fill="#7ADCFB"/>
  <path d="M550.22 393.522L594.969 393.505C597.321 393.504 599.228 395.406 599.229 397.754L599.234 411.571C599.235 413.89 597.379 415.779 595.055 415.823L550.755 416.653C548.424 416.698 546.491 414.862 546.418 412.536L545.969 397.904C545.895 395.507 547.821 393.523 550.22 393.522Z" fill="#7ADCFB"/>
  <path d="M575.881 414.395L582.55 423.83L579.213 413.465L575.881 414.395Z" fill="#7ADCFB"/>
  <path d="M611.785 397.151L613.447 377.932C613.58 376.369 614.905 375.182 616.479 375.215L665.917 376.235C667.669 376.27 669.01 377.799 668.818 379.538L666.402 401.305C666.224 402.894 664.822 404.061 663.222 403.945L614.536 400.374C612.88 400.254 611.644 398.802 611.785 397.151Z" fill="#7ADCFB"/>
  <path d="M627.326 398.757L610.262 418.646L633.058 398.755L627.326 398.757Z" fill="#7ADCFB"/>
  <defs>
    <filter id="filter0_d" x="2.70508" y="252.742" width="700.277" height="243.865" filterUnits="userSpaceOnUse" color-interpolation-filters="sRGB">
      <feFlood flood-opacity="0" result="BackgroundImageFix"/>
      <feColorMatrix in="SourceAlpha" type="matrix" values="0 0 0 0 0 0 0 0 0 0 0 0 0 0 0 0 0 0 127 0"/>
      <feOffset dy="4"/>
      <feGaussianBlur stdDeviation="5"/>
      <feColorMatrix type="matrix" values="0 0 0 0 0.854902 0 0 0 0 0.878431 0 0 0 0 0.905882 0 0 0 0.29 0"/>
      <feBlend mode="normal" in2="BackgroundImageFix" result="effect1_dropShadow"/>
      <feBlend mode="normal" in="SourceGraphic" in2="effect1_dropShadow" result="shape"/>
    </filter>
    <linearGradient id="paint0_linear" x1="361.161" y1="284.819" x2="339.342" y2="436.284" gradientUnits="userSpaceOnUse">
      <stop offset="0.138598" stop-color="#D5ADFE"/>
      <stop offset="1" stop-color="#1EB3FB"/>
    </linearGradient>
  </defs>
</svg>
