<?xml version="1.0" encoding="UTF-8" standalone="no"?>
<!DOCTYPE svg PUBLIC "-//W3C//DTD SVG 1.1//EN" "http://www.w3.org/Graphics/SVG/1.1/DTD/svg11.dtd">
<svg width="100%" height="100%" viewBox="0 0 375 795" version="1.1" xmlns="http://www.w3.org/2000/svg" xmlns:xlink="http://www.w3.org/1999/xlink" xml:space="preserve" xmlns:serif="http://www.serif.com/" style="fill-rule:evenodd;clip-rule:evenodd;stroke-linejoin:round;stroke-miterlimit:2;">
    <g id="Artboard1" transform="matrix(0.968153,0,0,0.903226,-32.3135,-73.5251)">
        <rect x="33.376" y="81.403" width="387.28" height="879.396" style="fill:none;"/>
        <g transform="matrix(1.03289,0,0,1.10714,-33.8317,-102.497)">
            <path d="M317.437,741.205C243.966,811.441 130.58,754.836 130.58,754.836C138.665,669.727 193.734,433.196 193.734,433.196C188.788,422.341 180.018,380.152 176.562,362.968C175.604,358.186 176.265,353.193 178.497,348.894C210.776,286.822 240.752,286.497 240.752,286.497C240.752,286.497 243.52,289.976 247.093,294.681C246.87,295.951 246.042,297.242 245.611,297.904C247.273,301.687 249.118,305.727 250.702,308.84C262.263,331.605 247.953,433.196 247.953,433.196C247.953,433.196 262.212,443.674 273.914,468.623C290.428,503.867 317.437,741.205 317.437,741.205Z" style="fill:rgb(30,179,251);fill-rule:nonzero;"/>
        </g>
        <g transform="matrix(1.03289,0,0,1.10714,-33.8317,-102.497)">
            <path d="M227.916,316.642C217.164,313.756 207.257,322.427 198.022,352.844C189.273,381.682 186.027,400.315 177.739,400.108C172.426,399.978 135.768,351.834 136.898,346.8C137.465,344.287 137.5,341.247 137.352,338.567C137.058,333.371 133.501,328.752 128.531,328.09C127.241,327.915 125.998,328.057 124.962,328.731L130.92,333.733C132.414,334.995 132.672,337.264 131.507,338.856L129.548,341.527L106.176,322.313C106.176,322.313 99.095,336.793 102.673,347.06C105.296,354.57 118.953,355.455 123.683,361.613C132.214,372.711 146.066,417.206 169.767,430.164C195.239,444.088 230.078,390.512 241.467,356.331C252.105,324.396 236.67,318.989 227.916,316.642ZM179.94,239.412C180.921,241.105 182.685,243.159 182.814,244.746C182.947,246.329 181.238,261.215 181.465,261.67C181.692,262.12 183.267,262.473 184.19,262.189C185.113,261.913 187.744,260.915 188.104,260.959C188.467,261.004 189.98,265.076 190.23,266.647C190.481,268.218 191.673,268.254 193.323,268.1C193.323,268.1 193.233,268.863 193.264,269.707C193.292,270.556 193.44,271.489 193.913,271.843C194.613,272.362 196.005,272.362 196.9,272.74C196.916,272.744 196.936,272.752 196.947,272.756C197.065,272.805 197.166,272.87 197.264,272.935C197.287,272.959 197.315,272.975 197.338,272.991C197.452,273.085 197.542,273.19 197.608,273.312C197.804,273.698 198.167,274.843 198.605,276.19C199.387,278.155 200.525,280.44 201.659,280.639C203.676,280.989 212.918,273.142 214.463,273.604C220.636,275.464 213.47,296.638 211.151,303.023C228.463,286.631 240.752,286.497 240.752,286.497L240.759,286.501C239.508,280.436 238.222,273.324 237.311,266.208C237.311,266.196 237.307,266.196 237.307,266.192C236.306,259.222 232.733,247.6 232.733,247.6C235.235,245.497 235.395,242.948 235.071,239.858C232.283,229.641 224.745,234.614 224.745,234.614C224.479,234.792 224.171,234.943 223.834,235.072C222.99,235.405 221.942,235.608 220.754,235.714C220.636,235.726 220.527,235.746 220.402,235.75C220.104,235.771 219.784,235.775 219.467,235.787C219.303,235.787 219.147,235.799 218.979,235.799C218.67,235.807 218.345,235.795 218.017,235.783C217.825,235.783 217.649,235.783 217.45,235.771C217.125,235.758 216.785,235.734 216.445,235.71C216.238,235.698 216.034,235.689 215.819,235.665C215.483,235.641 215.135,235.604 214.791,235.568C214.561,235.539 214.326,235.523 214.095,235.491C213.751,235.454 213.392,235.405 213.044,235.357C212.797,235.324 212.555,235.296 212.305,235.255C211.941,235.202 211.577,235.145 211.21,235.085C210.952,235.048 210.702,235.003 210.444,234.959C210.08,234.898 209.705,234.829 209.333,234.764C209.067,234.711 208.798,234.671 208.532,234.614C208.156,234.545 207.781,234.472 207.406,234.39C207.132,234.334 206.858,234.281 206.581,234.224C206.205,234.143 205.83,234.062 205.451,233.984C205.169,233.92 204.884,233.859 204.606,233.79C204.223,233.704 203.844,233.619 203.461,233.53C203.183,233.465 202.898,233.396 202.616,233.327C202.237,233.233 201.854,233.14 201.475,233.051C201.182,232.974 200.896,232.909 200.611,232.832C200.235,232.738 199.864,232.641 199.493,232.543C199.203,232.466 198.918,232.393 198.625,232.312C198.249,232.223 197.874,232.117 197.506,232.016C197.225,231.943 196.947,231.861 196.674,231.788C196.298,231.683 195.923,231.577 195.548,231.48C195.274,231.399 195.008,231.317 194.734,231.244C194.375,231.147 194.019,231.041 193.663,230.936C193.382,230.855 193.096,230.773 192.819,230.688C192.479,230.587 192.146,230.489 191.814,230.392C191.536,230.311 191.27,230.23 191.005,230.148C190.664,230.043 190.324,229.941 189.992,229.84C189.742,229.767 189.495,229.686 189.253,229.612C188.925,229.511 188.6,229.41 188.279,229.308C188.041,229.235 187.795,229.162 187.564,229.081C187.255,228.987 186.95,228.89 186.661,228.797C186.415,228.715 186.176,228.642 185.945,228.565C185.664,228.476 185.386,228.387 185.117,228.301C184.898,228.228 184.69,228.159 184.483,228.09C184.213,228.005 183.951,227.916 183.697,227.83C183.494,227.761 183.299,227.696 183.099,227.631C182.857,227.554 182.614,227.473 182.388,227.392C182.208,227.331 182.044,227.274 181.868,227.217C181.656,227.144 181.434,227.071 181.234,227.002C181.047,226.941 180.882,226.88 180.71,226.824C180.542,226.763 180.37,226.706 180.222,226.649C180.053,226.592 179.913,226.544 179.764,226.495C179.619,226.446 179.479,226.397 179.346,226.349C179.24,226.308 179.15,226.28 179.056,226.243C178.92,226.199 178.771,226.15 178.658,226.105C178.533,226.06 178.431,226.024 178.321,225.987C178.275,225.971 178.208,225.947 178.169,225.935C177.887,225.829 177.739,225.772 177.739,225.772L176.288,225.143C176.402,225.419 176.55,225.841 176.632,226.101C176.632,226.101 178.959,237.723 179.94,239.412ZM387.334,860.71C387.334,860.71 385.755,860.426 385.227,859.764C364.599,834.044 335.656,774.281 309.136,748.455C298.803,756.74 287.84,762.846 276.631,767.173L372.951,871.313C374.546,873.031 375.437,875.324 375.39,877.711C375.355,879.481 375.191,881.88 374.729,884.986L381.134,887.462C383.092,883.366 383.8,877.898 383.405,872.365C383.014,866.836 387.334,860.71 387.334,860.71ZM376.356,897.647C378.444,895.272 378.737,892.905 378.737,892.905L374.03,891.038C374.03,891.038 372.927,898.252 372.517,899.466C372.517,899.466 374.268,900.026 376.356,897.647ZM160.521,915.236C169.263,879.643 201.967,810.442 202.249,775.097C190.242,773.721 179.037,771.37 169.22,768.744L144.323,911.676C143.912,914.027 142.645,916.117 140.753,917.477C139.357,918.484 137.391,919.746 134.701,921.179L136.519,928.023C140.866,927.268 145.542,924.666 149.624,921.094C153.706,917.526 161.013,917.575 161.013,917.575C161.013,917.575 160.313,916.073 160.521,915.236ZM122.112,927.808C123.3,927.435 129.567,924.135 129.567,924.135L130.869,929.193C130.869,929.193 128.852,930.329 125.779,929.964C122.702,929.607 122.112,927.808 122.112,927.808Z" style="fill:rgb(249,176,155);fill-rule:nonzero;"/>
        </g>
        <g transform="matrix(1.03289,0,0,1.10714,-33.8317,-102.497)">
            <path d="M173.372,678.734C169.896,688.517 167.046,743.953 167.046,743.953C175.307,734.165 173.372,678.734 173.372,678.734ZM247.093,294.681C218.04,300.932 188.018,332.178 188.018,332.178C214.541,308.686 245.611,297.904 245.611,297.904L247.093,294.681ZM226.559,388.64C245.103,388.863 246.323,377.156 246.323,377.156C241.104,383.793 230.07,385.604 230.07,385.604L226.559,388.64ZM290.213,731.669C288.157,730.333 280.713,700.907 280.713,700.907C281.804,710.255 286.382,733.151 288.157,734.072C294.846,737.547 305.383,743.953 305.383,743.953C301.528,738.347 292.27,733.004 290.213,731.669ZM214.279,513.467C212.829,554.264 220.843,663.556 220.843,663.556C224.014,623.262 214.279,513.467 214.279,513.467ZM280.682,621.752C285.045,672.121 299.581,720.465 299.581,718.456C299.581,716.438 288.435,666.58 281.166,579.449C273.894,492.317 247.953,457.561 247.953,457.561C274.876,517.551 276.322,571.391 280.682,621.752ZM206.002,438.66C199.946,461.397 202.253,488.132 202.253,488.132C202.253,474.842 209.752,441.311 209.752,441.311L206.002,438.66ZM231.755,443.917C231.755,443.917 236.361,463.987 238.277,487.247C238.277,487.247 239.43,455.795 235.016,441.839L231.755,443.917ZM241.69,438.66C249.361,443.235 261.727,462.879 261.727,462.879C256.825,449.369 245.076,437.162 245.076,437.162L241.69,438.66ZM193.734,433.196C193.734,433.196 213.126,442.724 228.475,440.73C243.821,438.733 247.953,433.196 247.953,433.196C247.953,433.196 242.984,443.397 230.18,444.051C208.438,445.159 193.734,433.196 193.734,433.196Z" style="fill:rgb(48,77,137);fill-rule:nonzero;"/>
        </g>
        <g transform="matrix(1.03289,0,0,1.10714,-33.8317,-102.497)">
            <path d="M197.369,240.264C192.072,238.445 184.831,243.158 184.831,243.158C185.726,244.072 186.974,243.633 187.482,243.406C187.591,243.617 187.716,243.832 187.865,244.035C189.022,245.712 190.723,246.495 191.673,245.793C192.627,245.083 192.459,243.15 191.313,241.478C191.306,241.47 191.302,241.466 191.294,241.457C194.476,240.309 197.369,240.264 197.369,240.264ZM180.659,236.436C180.659,236.436 183.326,238.21 184.565,237.755C185.808,237.293 188.283,235.45 190.645,234.723C191.509,234.463 194.476,234.069 194.476,234.069C194.476,234.069 190.481,232.153 188.616,232.474C186.759,232.791 180.659,236.436 180.659,236.436ZM130.869,333.696L95.615,304.427C94.282,303.319 92.331,303.53 91.244,304.902L88.781,308.012L129.548,341.526L131.471,338.904C132.66,337.284 132.394,334.978 130.869,333.696ZM244.65,207.988C256.633,212.408 262.708,204.058 262.232,200.364C261.762,196.682 253.247,195.943 251.48,194.466C249.72,192.996 248.278,186.603 242.362,187.585C236.451,188.567 239.805,198.176 239.805,198.176C239.805,198.176 232.666,203.563 244.65,207.988ZM243.547,203.315C228.174,177.753 188.909,181.934 173.059,200.116C159.813,215.323 171.968,223.032 176.324,225.155L177.735,225.772L177.739,225.772C177.739,225.772 177.887,225.829 178.169,225.934C178.208,225.946 178.274,225.971 178.321,225.987C178.431,226.024 178.532,226.06 178.658,226.105C178.771,226.149 178.92,226.198 179.056,226.243C179.15,226.279 179.24,226.308 179.346,226.348C179.479,226.397 179.619,226.446 179.764,226.494C179.913,226.543 180.053,226.592 180.221,226.649C180.37,226.706 180.542,226.762 180.71,226.823C180.882,226.88 181.046,226.941 181.234,227.002C181.434,227.071 181.656,227.144 181.867,227.217C182.043,227.274 182.208,227.331 182.387,227.392C182.614,227.473 182.857,227.554 183.099,227.631C183.298,227.696 183.494,227.761 183.697,227.83C183.951,227.915 184.213,228.005 184.483,228.09C184.69,228.159 184.897,228.228 185.116,228.301C185.386,228.386 185.664,228.475 185.945,228.565C186.176,228.642 186.414,228.715 186.661,228.796C186.95,228.89 187.255,228.987 187.564,229.08C187.795,229.161 188.041,229.235 188.279,229.308C188.6,229.409 188.924,229.511 189.253,229.612C189.495,229.685 189.742,229.766 189.992,229.839C190.324,229.941 190.664,230.042 191.004,230.148C191.27,230.229 191.536,230.31 191.814,230.391C192.146,230.489 192.478,230.586 192.819,230.688C193.096,230.773 193.382,230.854 193.663,230.935C194.019,231.041 194.375,231.147 194.734,231.244C195.008,231.317 195.274,231.398 195.548,231.479C195.923,231.577 196.298,231.682 196.674,231.788C196.947,231.861 197.225,231.942 197.506,232.015C197.874,232.117 198.249,232.222 198.624,232.312C198.918,232.393 199.203,232.466 199.492,232.543C199.864,232.64 200.235,232.738 200.611,232.831C200.896,232.908 201.181,232.973 201.475,233.05C201.854,233.14 202.237,233.233 202.616,233.326C202.898,233.395 203.183,233.464 203.461,233.529C203.844,233.619 204.223,233.704 204.606,233.789C204.884,233.858 205.169,233.919 205.451,233.984C205.83,234.061 206.205,234.142 206.581,234.224C206.858,234.28 207.132,234.333 207.406,234.39C207.781,234.471 208.156,234.544 208.532,234.613C208.798,234.67 209.067,234.711 209.333,234.763C209.705,234.828 210.08,234.897 210.444,234.958C210.702,235.003 210.952,235.048 211.21,235.084C211.577,235.145 211.941,235.202 212.305,235.255C212.555,235.295 212.797,235.324 213.043,235.356C213.391,235.405 213.751,235.454 214.095,235.49C214.326,235.523 214.56,235.539 214.791,235.567C215.135,235.604 215.483,235.64 215.819,235.665C216.034,235.689 216.238,235.697 216.445,235.709C216.785,235.734 217.125,235.758 217.45,235.77C217.649,235.782 217.825,235.782 218.017,235.782C218.345,235.795 218.67,235.807 218.978,235.799C219.147,235.799 219.303,235.786 219.467,235.786C219.784,235.774 220.104,235.77 220.402,235.75C220.527,235.746 220.636,235.726 220.753,235.713C221.942,235.608 222.99,235.405 223.834,235.072C224.171,234.942 224.479,234.792 224.745,234.613C224.745,234.613 232.283,229.641 235.071,239.858C235.395,242.947 235.235,245.497 232.733,247.599C232.733,247.599 235.622,257.001 236.932,263.959C246.178,261.227 258.513,253.218 263.178,235.762C270.278,209.214 243.547,203.315 243.547,203.315ZM374.729,884.985L374.03,891.038L378.737,892.905C378.737,892.905 378.444,895.272 376.356,897.647C374.268,900.025 372.517,899.465 372.517,899.465C368.619,907.129 366.265,911.282 374.487,914.534L402,876.205C402,876.205 395.807,862.131 387.334,860.71C387.334,860.71 383.014,866.836 383.405,872.365C383.8,877.898 383.092,883.366 381.134,887.461L374.729,884.985ZM136.519,928.023C140.866,927.268 145.542,924.666 149.624,921.094C153.706,917.526 161.013,917.574 161.013,917.574C164.868,925.531 157.526,939 157.526,939L111.516,938.289C109.237,929.464 113.846,929.014 122.112,927.808C122.112,927.808 122.702,929.606 125.779,929.964C128.852,930.329 130.869,929.192 130.869,929.192L129.567,924.134L134.701,921.179L136.519,928.023Z" style="fill:rgb(62,59,57);fill-rule:nonzero;"/>
        </g>
        <g transform="matrix(1.03289,0,0,1.10714,-33.8317,-102.497)">
            <ellipse cx="402" cy="928" rx="24" ry="2" style="fill:rgb(196,196,196);"/>
        </g>
    </g>
</svg>
