<svg width="120" height="120" viewBox="0 0 120 120" fill="none" xmlns="http://www.w3.org/2000/svg">
  <rect width="120" height="120" rx="60" fill="#303234" />
  <path
    d="M55.9968 81.7294C55.6815 82.0263 55.8607 82.6213 56.3121 82.7821C56.5251 82.859 57.4373 82.9962 58.3508 83.0885C59.263 83.1808 60.5011 83.3239 61.1143 83.4067C62.6387 83.616 65.5151 83.3132 66.2365 82.8685C66.5472 82.6769 66.7578 82.4296 66.7508 82.2664C66.7369 81.9742 66.2645 81.5661 65.7885 81.4325C65.3976 81.3236 62.7958 81.2598 61.8742 81.3355C61.4518 81.371 60.8421 81.3662 60.4883 81.3248C59.6819 81.2314 57.1011 81.2953 56.603 81.4206C56.3994 81.4715 56.119 81.6146 55.9968 81.7294Z"
    fill="#FFD602" />
  <path
    d="M55.2689 83.6081C55.0082 83.7962 54.9908 83.9157 55.1502 84.4409C55.3131 84.9791 55.4388 85.1009 56.1765 85.4368C57.1481 85.8792 59.5998 86.2908 61.628 86.3512C63.2082 86.3985 65.5098 85.9324 66.5105 85.3635C67.2459 84.9436 67.1982 84.5509 66.3511 84.0493C65.7937 83.7181 65.6261 83.7039 64.2182 83.8684C63.3792 83.9665 62.2121 83.9914 61.6303 83.9216C55.7495 83.2213 55.8018 83.2237 55.2689 83.6081Z"
    fill="#FFD602" />
  <path
    d="M54.8124 86.0057C54.6856 86.2115 54.8822 86.8183 55.1987 87.1968C55.5781 87.6522 56.6649 88.2697 57.6272 88.576C58.0345 88.7062 59.3493 88.8469 60.5269 88.886C62.3724 88.9486 62.9018 88.9061 64.2144 88.5938C66.0529 88.1549 66.8883 87.7315 67 87.1791C67.0629 86.8668 67.0082 86.7166 66.7347 86.4528C66.4066 86.1346 66.3472 86.1322 65.5013 86.4055C63.6186 87.0111 60.172 86.9129 57.2188 86.1689C55.62 85.7656 54.987 85.723 54.8124 86.0057Z"
    fill="#FFD602" />
  <path
    d="M55.3441 88.7744C55.7979 90.6847 57.527 93.4053 58.8302 94.257C59.9473 94.988 60.7467 95.1217 62.1058 94.8094C63.494 94.4888 64.305 93.8548 65.0543 92.4993C65.6222 91.4737 66.2575 89.4557 66.1551 89.0039C66.0969 88.7484 65.9527 88.7543 64.6378 89.063C63.4521 89.341 62.7981 89.3942 61.0806 89.3493C58.8535 89.2925 57.8214 89.1092 56.5135 88.539C55.4721 88.086 55.1951 88.1416 55.3441 88.7744Z"
    fill="#FFD602" />
  <path
    d="M57.1603 52.9811C56.8625 53.3572 56.6437 54.5709 56.7729 55.1351C56.8078 55.2888 57.0847 55.5597 57.3849 55.7336C57.6863 55.9075 57.9074 56.1346 57.876 56.2363C57.8445 56.3381 57.4827 56.5001 57.0731 56.5959C56.3877 56.758 56.2923 56.8325 55.8594 57.5458C55.4952 58.1455 55.3916 58.5074 55.401 59.1474C55.4266 60.8921 55.7524 61.5367 56.9451 62.1968C57.684 62.6049 57.7375 62.6664 57.5525 62.9041C56.9811 63.6411 56.7891 64.0196 56.7822 64.4206C56.7682 65.3207 57.7503 65.8743 59.1187 65.7383L59.8855 65.6614L59.7773 62.9822C59.5457 57.3139 59.5318 56.2198 59.6772 54.9849C59.8622 53.4093 59.7657 52.9338 59.1885 52.5659C58.6149 52.2016 57.6141 52.4062 57.1603 52.9811Z"
    fill="#FFD602" />
  <path
    d="M62.0667 52.1772C61.9282 52.3534 61.9375 52.797 62.0981 53.7752C62.3553 55.3378 62.4251 57.5143 62.2785 59.3619C62.2226 60.0716 62.1912 61.3136 62.2098 62.1227C62.2284 62.9306 62.2273 63.8414 62.2075 64.1478C62.1318 65.2916 62.275 65.5152 63.2024 65.7139C64.8675 66.0699 66.1742 65.3874 65.9252 64.2909C65.8298 63.8686 65.6925 63.7385 65.0827 63.4948C64.0332 63.0737 63.8261 62.8892 64.1193 62.6384C64.2473 62.5296 64.7348 62.2978 65.2026 62.1239C66.9748 61.4627 67.5868 60.3366 66.891 59.0141C66.5245 58.3186 66.2801 58.1992 65.1153 58.1495C64.5871 58.1282 64.1123 58.0407 64.0634 57.9579C64.0169 57.8774 64.1426 57.6621 64.3357 57.4942C65.1921 56.7501 65.3853 55.818 65.0176 54.1999C64.7511 53.0277 64.3357 52.1453 63.904 51.8353C63.5608 51.5881 62.3529 51.8141 62.0667 52.1772Z"
    fill="#FFD602" />
  <path
    d="M53.6785 24.2922C53.6599 24.4164 53.9857 26.0807 54.4011 27.9839C55.0864 31.122 55.1842 31.4591 55.4437 31.555C55.6275 31.6224 55.766 31.5952 55.8335 31.4781C55.8917 31.3787 55.5903 29.66 55.1632 27.6491L54.3883 24L54.0497 24.0319C53.8542 24.0509 53.6971 24.1609 53.6785 24.2922Z"
    fill="white" />
  <path
    d="M41.82 30.3901C41.7572 30.8431 45.8659 37.3998 46.4931 37.8469C46.8387 38.0941 47.1726 38.0444 47.2157 37.7392C47.2331 37.6162 46.7793 36.8178 46.2161 35.9803C45.6518 35.144 44.7558 33.7045 44.2415 32.8091C42.9127 30.4942 42.5287 29.9891 42.1598 30.0766C41.9841 30.118 41.8387 30.2529 41.82 30.3901Z"
    fill="white" />
  <path
    d="M69.1811 27.1255C68.5144 28.345 66.5421 32.8245 66.3699 33.507C66.2233 34.089 66.4025 34.6059 66.7446 34.5905C66.9179 34.5823 67.1157 34.2546 67.3473 33.591C67.7778 32.3573 68.682 30.3074 69.7525 28.1321C70.5798 26.4536 70.6473 26.0077 70.0667 26.0574C69.8432 26.0775 69.5838 26.3897 69.1811 27.1255Z"
    fill="white" />
  <path
    d="M80.0045 32.279C77.4481 35.0434 76.345 36.9561 77.2351 37.0814C77.4294 37.1086 77.6633 36.8721 78.0729 36.2333C78.8037 35.0942 79.4343 34.3041 80.8737 32.7214C81.7848 31.7207 81.9954 31.4013 81.9024 31.1624C81.6987 30.6372 81.3136 30.8631 80.0045 32.279Z"
    fill="white" />
  <path
    d="M56.4934 88.8549C57.522 89.3718 58.6728 89.5776 60.9186 89.6439C62.4976 89.69 63.141 89.6344 64.4175 89.341L65.9814 88.9826L65.6754 90.1336C64.7748 93.5189 62.6198 95.2648 60.2053 94.5646C59.727 94.4262 59.1196 94.1494 58.8613 93.953C58.148 93.4089 56.7494 91.5246 56.2513 90.4376C55.7999 89.4487 55.5299 88.5426 55.6765 88.5083C55.7242 88.4977 56.0943 88.6538 56.4934 88.8549ZM56.434 86.2916C57.1078 86.5862 59.8597 87.0132 61.5679 87.0889C62.728 87.1409 63.3947 87.0735 64.6817 86.7778C66.2165 86.4253 66.334 86.4194 66.5679 86.6879C66.9274 87.0983 66.7331 87.4165 65.8732 87.8258C64.5944 88.4338 63.1864 88.6585 60.9453 88.6124C58.6123 88.5639 57.2823 88.2753 56.1559 87.5703C55.4031 87.0983 55.0575 86.6477 55.1203 86.2147C55.161 85.9332 55.6835 85.9628 56.434 86.2916ZM57.7012 83.7414C58.6286 83.8301 59.9912 83.9969 60.7394 84.1152C61.6784 84.263 62.6209 84.2748 63.809 84.153C64.9807 84.0324 65.6568 84.0383 65.95 84.1719C66.448 84.3967 66.8297 84.7373 66.7424 84.8793C66.7052 84.9396 66.2002 85.2058 65.6149 85.4719C64.67 85.9036 64.4047 85.964 63.1445 86.0361C59.8038 86.2277 55.4834 85.3536 55.2762 84.4428C55.2181 84.1873 55.5369 83.694 55.7999 83.6325C55.9209 83.6042 56.7738 83.6527 57.7012 83.7414ZM58.3889 81.5554C58.987 81.5448 59.7747 81.5649 60.168 81.5992C60.5555 81.6323 61.4224 81.6359 62.0926 81.6075C64.2709 81.5152 65.5788 81.6122 66.0349 81.9032C66.2863 82.0629 66.4573 82.2699 66.4236 82.374C66.2281 82.9678 63.2353 83.3924 61.2048 83.1168C60.509 83.021 59.2569 82.8731 58.4389 82.7892C56.6586 82.6046 56.2188 82.4982 56.1594 82.2344C56.0989 81.9718 56.6214 81.5613 57.0077 81.5673C57.1787 81.5696 57.7908 81.5649 58.3889 81.5554ZM63.5192 51.9282C63.852 52.0536 64.2069 52.5764 64.5606 53.4636C65.1936 55.0498 64.9923 56.5698 64.037 57.3942C63.432 57.9171 63.8066 58.6126 64.5956 58.4269C64.8062 58.3772 65.3007 58.4186 65.708 58.5203C66.6214 58.7474 67.0263 59.4051 66.8227 60.3277C66.6656 61.0445 66.1897 61.4515 64.919 61.9506C63.7182 62.4238 63.667 62.4675 63.7694 62.9206C63.8287 63.1796 64.108 63.3914 64.7922 63.6965C65.3054 63.926 65.7533 64.2016 65.7755 64.3033C65.7987 64.4039 65.7149 64.6688 65.5928 64.8853C65.4194 65.1917 65.2064 65.3194 64.6665 65.446C63.8776 65.6317 62.5336 65.3561 62.4976 65.0012C62.4371 64.411 62.4883 60.407 62.5709 59.3554C62.7082 57.5882 62.5814 54.9776 62.2974 53.7285C62.0612 52.6888 62.067 52.6131 62.3929 52.3186C62.7757 51.9732 63.226 51.817 63.5192 51.9282ZM58.93 52.7834C59.4734 53.1288 59.5839 53.5523 59.421 54.6689C59.2197 56.06 59.2558 58.1796 59.5862 64.34L59.6433 65.4058L58.9835 65.4838C58.34 65.5595 57.6465 65.3502 57.2625 64.9634C56.9402 64.6405 57.0554 63.9662 57.515 63.4872C58.2167 62.7573 58.141 62.5196 57.0077 61.8607C56.0337 61.2953 56.0128 61.2705 55.8336 60.4839C55.3717 58.4493 55.8813 57.2286 57.4173 56.6869C58.0863 56.4515 58.2097 56.3533 58.1864 56.0765C58.1666 55.8577 57.9874 55.6743 57.6465 55.5288C57.0228 55.2627 56.8878 54.857 57.1147 53.9284C57.4021 52.7515 58.1434 52.2831 58.93 52.7834ZM61.9204 40.62C63.3563 40.5277 64.0184 40.5822 65.6824 40.9311C68.6693 41.5557 71.789 42.9266 72.7012 44.016C72.913 44.2692 73.3924 44.9954 73.7729 45.6413C74.3594 46.6361 74.5188 47.0607 74.8481 48.5156C75.2705 50.3704 75.3345 51.6538 75.1192 53.9095C74.9377 55.8127 73.9475 60.2165 73.425 61.4526C72.9584 62.5539 71.2863 65.8943 69.8411 68.6102C68.2365 71.6288 65.8301 77.29 65.3612 79.153C65.1902 79.8344 64.9877 80.4412 64.9155 80.4932C64.7829 80.5867 62.6011 80.5725 62.4499 80.4767C62.3603 80.4199 62.4371 77.3208 62.5918 74.7682C62.707 72.8803 62.7152 68.648 62.607 67.5562C62.4929 66.41 62.536 66.358 63.4366 66.533C64.5793 66.7554 65.9011 66.3331 66.377 65.5962C66.8774 64.8191 66.903 64.1448 66.4527 63.5735C66.256 63.3227 65.9872 63.0956 65.8662 63.0779C65.5299 63.0282 65.5288 62.742 65.8651 62.6639C66.3596 62.5468 67.1252 61.9151 67.522 61.2929C68.4087 59.9054 67.6314 57.8437 66.092 57.4983L65.4752 57.3611L65.7045 56.8383C66.0198 56.1179 66.0256 55.2461 65.7254 53.9249C65.3891 52.4404 64.8434 51.4763 64.1324 51.1073C63.6274 50.8447 63.4878 50.8435 62.6675 51.0931C62.0496 51.2812 61.6563 51.4953 61.4294 51.7662C61.1164 52.1423 61.1106 52.2559 61.3386 53.7037C61.6237 55.5241 61.6737 56.9554 61.5411 59.5352C61.4305 61.6608 61.4538 64.4027 61.6167 68.6646C61.6772 70.2449 61.6959 72.3102 61.6586 73.2671C61.6225 74.2181 61.5551 76.2467 61.5097 77.7584C61.4655 79.269 61.4096 80.5464 61.3852 80.5855C61.2013 80.8978 61.1082 80.1502 61.014 77.6082C60.9558 76.0113 60.8371 73.9118 60.7522 72.9631C60.6672 72.0144 60.6277 70.7878 60.6649 70.2472C60.7382 69.1874 60.5974 63.4931 60.4194 60.3455C60.2693 57.6911 60.2821 55.9417 60.4589 54.7387C60.6754 53.2648 60.4962 52.6557 59.6735 52.0772C58.7671 51.4373 58.0002 51.3983 57.202 51.9471C56.8564 52.1861 56.5015 52.5953 56.3619 52.9171C56.007 53.7344 55.8964 54.9114 56.121 55.4756C56.2909 55.9038 56.2688 55.9949 55.9314 56.2421C55.3914 56.6372 54.6968 57.9667 54.656 58.68C54.606 59.5837 54.7677 60.7808 55.0202 61.3627C55.1424 61.6454 55.5474 62.1304 55.9255 62.4474C56.3479 62.8023 56.5481 63.0602 56.448 63.1228C56.2095 63.2707 55.9628 64.4406 56.071 64.9149C56.2886 65.8718 57.6605 66.6312 59.0091 66.5401C59.5688 66.5023 59.6595 66.5437 59.6595 66.8323C59.6595 67.0204 59.6665 67.652 59.6758 68.26C59.6851 68.8586 59.6758 69.8545 59.6549 70.4696C59.6339 71.08 59.691 72.2747 59.7794 73.0979C59.9342 74.5316 60.253 80.3986 60.182 80.5098C60.1634 80.5393 59.812 80.5417 59.3907 80.5145C58.9695 80.4873 58.4843 80.5003 58.2981 80.5441C58.1085 80.589 57.9141 80.5737 57.8513 80.5086C57.7896 80.4447 57.7442 79.8143 57.7489 79.0939C57.7652 76.6099 56.8774 73.8727 55.3007 71.5531C53.2399 68.5191 51.2723 64.6073 50.3437 61.6939C48.5297 56.0055 48.1096 53.7226 48.3865 51.0671C48.7984 47.127 52.1741 43.1525 56.4468 41.5793C57.6791 41.1239 59.7817 40.756 61.9204 40.62ZM55.033 41.0447C52.5848 42.1163 50.6253 43.9025 49.037 46.5059C47.1985 49.5211 46.9239 51.5047 47.7489 55.8139C48.4028 59.2253 49.8282 63.7734 50.9232 65.9357C52.2101 68.48 53.5401 70.815 54.3942 72.0322C56.0047 74.3281 56.7645 76.4514 56.8192 78.8124C56.8564 80.3974 56.8145 80.5252 56.1687 80.7878C55.4508 81.0811 54.9807 81.7861 55.1133 82.3704C55.1913 82.7123 55.1273 82.8909 54.8411 83.1381C54.4163 83.5048 54.2546 84.2299 54.4629 84.8213C54.5711 85.1253 54.535 85.3406 54.3326 85.6032C54.0545 85.9628 54.0568 85.9805 54.6781 88.4149C55.2355 90.5973 55.3763 90.9817 55.9744 91.9564C57.408 94.2937 58.9742 95.5606 60.6207 95.7155C61.7517 95.8208 63.4296 95.3204 64.2791 94.6237C65.3344 93.7567 66.2141 92.1338 66.697 90.1596C66.9286 89.2133 67.2684 88.2079 67.451 87.9346C67.8525 87.3314 67.8839 86.6914 67.536 86.2254C67.3068 85.919 67.3137 85.8374 67.5918 85.5086C67.9677 85.0674 67.8525 84.3837 67.3091 83.8242L66.9379 83.4421L67.2718 82.9453C67.7571 82.219 67.5686 81.6098 66.6959 81.0894L66.0198 80.686L66.3666 79.4334C66.5551 78.7473 66.8623 77.7892 67.0426 77.3196C67.8606 75.1881 69.8609 70.7925 70.9221 68.7947C72.4662 65.8836 74.1208 62.5302 74.5141 61.5094C75.0261 60.1846 75.9977 55.5005 76.1537 53.6031C76.3515 51.2114 76.2339 49.8109 75.6614 47.7302C75.0145 45.381 73.9137 43.5192 72.5593 42.4854C71.0059 41.299 65.6824 39.5791 63.4599 39.5448C60.7894 39.5034 57.0205 40.1741 55.033 41.0447Z"
    fill="white" />
  <path
    d="M32.0068 46.7652C31.9509 47.2312 32.229 47.3696 33.2821 47.4004C34.7529 47.4441 36.496 47.8771 37.3896 48.4212C38.175 48.899 38.63 48.8647 38.5858 48.3325C38.5509 47.9114 37.172 47.1224 35.8269 46.7569C34.9414 46.5156 32.7899 46.3464 32.2407 46.4754C32.1324 46.5014 32.0231 46.6362 32.0068 46.7652Z"
    fill="white" />
  <path
    d="M85.3129 44.3483C84.7613 44.5423 83.7629 44.8356 83.0787 45.0071C81.7394 45.3407 81.26 45.6695 81.5218 46.0729C81.6394 46.2551 81.8965 46.235 83.0939 45.9546C85.1814 45.4649 87.6343 44.605 87.8239 44.2974C87.9519 44.0892 87.9345 44.0053 87.732 43.8491C87.4783 43.654 87.0373 43.745 85.3129 44.3483Z"
    fill="white" />
  <path
    d="M35.514 62.3234C35.4546 62.7587 36.0294 62.8912 36.9929 62.6641C38.1495 62.3932 39.6017 62.2974 40.9026 62.4074C41.7032 62.4748 41.9999 62.4476 42.093 62.2962C42.6329 61.4173 39.6378 61.1051 36.8789 61.7533C35.7839 62.0099 35.543 62.1105 35.514 62.3234Z"
    fill="white" />
  <path
    d="M80.6511 63.1814C80.586 63.6853 81.3726 63.8285 84.6039 63.9018C85.3311 63.9172 86.383 63.9811 86.959 64.0438C88.047 64.1609 88.3961 64.0319 88.1983 63.5836C88.0121 63.159 87.2022 63.017 84.3642 62.9129C80.999 62.7887 80.7 62.81 80.6511 63.1814Z"
    fill="white" />
  <path
    d="M78.7472 73.9319C78.4877 74.4512 78.8694 74.547 80.8161 74.45C81.8808 74.3968 83.468 74.3625 84.3523 74.3755C85.8487 74.3956 85.9697 74.3767 86.135 74.0975C86.2979 73.8231 86.2781 73.7793 85.9127 73.5913C85.4892 73.3748 83.8392 73.3358 81.1035 73.4801C79.0521 73.5877 78.9043 73.6161 78.7472 73.9319Z"
    fill="white" />
  <path
    d="M38.5087 83.1064C38.4866 83.6896 38.8729 83.6139 40.602 82.7007C41.548 82.2004 42.9769 81.4977 43.7856 81.1334C45.154 80.5171 45.2553 80.4497 45.2913 80.1256C45.3274 79.8074 45.2913 79.7755 44.8818 79.7601C44.4082 79.7424 42.8932 80.406 40.4659 81.6976C38.6448 82.6652 38.5227 82.7539 38.5087 83.1064Z"
    fill="white" />
</svg>