<svg width="200" height="208" viewBox="0 0 200 208" fill="none" xmlns="http://www.w3.org/2000/svg">
<path d="M99.6266 49.4076C99.6266 49.4076 101.396 49.1292 102.78 49.9101C104.165 50.6902 104.485 52.3896 106.437 53.3489C108.39 54.3082 110.093 53.2577 112.224 55.1491C114.354 57.0397 114.177 59.9105 111.266 61.5083C106.97 59.7008 100.224 54.9747 100.224 54.9747L98.4824 50.7158L99.6266 49.4076Z" fill="#B15862"/>
<path d="M123.371 119.616L122.587 119.1C122.587 119.1 122.306 117.896 122.786 117.452C123.265 117.009 125.111 117.505 126.62 117.452C128.128 117.399 131.252 117.399 132.46 117.842C133.666 118.286 132.843 118.874 129.412 119.839C125.714 120.166 123.371 119.616 123.371 119.616Z" fill="#2E1F3F"/>
<path d="M101.77 174.672L103.704 173.679C103.704 173.679 103.933 175.257 103.925 176.339C103.917 177.421 102.959 177.528 101.486 177.741C100.012 177.954 96.7284 179 94.8818 179C93.036 179 93.5449 177.546 96.8941 176.339C100.242 175.132 101.77 174.672 101.77 174.672Z" fill="#2E1F3F"/>
<path d="M90.0713 125.079C90.0713 125.079 99.1596 172.756 99.1596 173.75C99.1596 174.743 96.036 176.942 96.2136 176.942C96.3912 176.942 100.26 176.801 101.681 175.878C103.1 174.956 103.704 173.679 103.704 173.679C103.704 173.679 104.201 156.225 103.704 150.834C103.206 145.441 101.609 142.355 101.361 139.34C101.113 136.325 101.503 124.086 101.503 124.086L90.0713 125.079Z" fill="#F9B09B"/>
<path d="M103.924 124.086C103.924 124.086 103.863 133.025 104.343 136.218C104.822 139.41 107.857 140.794 110.626 140.049C113.396 139.304 123.62 123.447 124.737 122.543C125.857 121.638 130.169 119.456 130.542 119.243C130.915 119.03 122.875 118.498 122.661 118.817C122.448 119.137 122.767 120.095 122.395 120.894C122.022 121.691 113.502 126.781 113.502 126.781L113.982 123.748L103.924 124.086Z" fill="#F9B09B"/>
<path d="M105.692 85.9503L108.142 85.7734C108.142 85.7734 115.348 93.72 116.768 101.453C118.188 109.187 114.531 124.086 114.531 124.086L89.6804 125.469C89.6804 125.469 87.2665 115.998 87.5506 107.165C87.8346 98.3309 91.3846 91.8222 91.1006 88.6106C97.6326 87.6897 105.692 85.9503 105.692 85.9503Z" fill="#4B3361"/>
<path d="M81.1967 68.8517L78.7468 75.0252L75.3032 62.8926L72.25 63.5671C72.25 63.5671 73.3157 76.3382 74.3799 79.8138C75.4448 83.291 77.0074 85.4897 79.4565 84.6736C81.9063 83.8583 85.954 75.3789 87.551 71.2648C83.2913 69.1717 81.1967 68.8517 81.1967 68.8517Z" fill="#F9B09B"/>
<path d="M99.8318 55.1502L101.2 54.5389C101.2 54.5389 105.904 54.8061 108.566 56.5439C111.229 58.2818 113.51 65.0418 113.51 65.0418L108.814 69.9887C108.814 69.9887 107.217 80.7428 107.217 82.5662C107.217 84.3905 108.14 85.7754 108.14 85.7754C108.14 85.7754 105.335 88.0093 99.3357 88.6118C93.3358 89.215 91.0995 88.6118 91.0995 88.6118C91.0995 88.6118 89.1465 80.3116 88.756 79.5667C88.3656 78.8218 86.1293 77.4376 85.3124 74.6709C84.4963 71.9042 84.9732 70.0936 84.9732 70.0936L81.1943 68.8534C81.1943 68.8534 83.1826 62.219 85.0644 59.2755C86.9454 56.3311 89.8922 55.7767 93.851 55.1502C96.3177 53.99 96.6626 53.7412 96.6626 53.7412L99.8318 55.1502Z" fill="#FDE8E5"/>
<path d="M99.2308 52.145L100.224 52.3754L101.201 54.5397L97.9522 58.1545L96.3816 54.5397L95.0503 57.9185L93.8525 55.1494L94.2958 53.2452L99.2308 52.145Z" fill="white"/>
<path d="M99.3107 49.0844C99.3107 49.0844 101.733 48.978 103.304 46.9834C104.875 44.9872 104.449 43.5782 104.555 41.9276C104.662 40.2778 106.447 37.4055 105.088 33.9994C103.73 30.5942 100.224 30.3814 100.224 30.3814C100.224 30.3814 96.7808 27.8539 93.2131 29.6365C89.6455 31.4183 89.1399 35.0908 89.1127 36.979C89.0862 38.8688 87.3556 40.3858 87.8077 43.3918C88.2605 46.3977 90.684 47.0898 90.684 47.0898L99.3107 49.0844Z" fill="#B15862"/>
<path d="M94.294 53.2437C94.294 53.2437 97.436 53.7934 100.223 52.3748C99.7786 50.7962 99.6898 48.6504 99.6898 48.6504L94.1348 51.5419L94.294 53.2437Z" fill="#F08B78"/>
<path d="M118.485 62.3946C118.485 62.3946 117.758 59.2335 117.885 58.6518C118.011 58.0709 118.618 57.9853 118.618 57.9853C118.618 57.9853 118.229 55.8427 118.703 55.4586C119.178 55.0754 119.583 56.4731 119.583 56.4731C119.583 56.4731 119.943 55.329 120.392 55.4442C120.84 55.5578 121.015 56.7092 121.015 56.7092C121.015 56.7092 121.529 55.6874 121.869 55.8851C122.208 56.0827 122.077 57.5965 122.077 57.5965C122.077 57.5965 122.255 56.2451 122.875 56.8252C123.496 57.4044 121.705 62.5323 121.705 62.5323C121.705 62.5323 120.182 63.1715 118.485 62.3946Z" fill="#F9B09B"/>
<path d="M118.618 57.985C118.618 57.985 119.7 58.0034 119.86 58.0266C120.018 58.0498 120.761 58.6971 120.508 58.8299C120.254 58.9635 119.746 58.6443 119.578 58.6747C119.41 58.7035 118.929 58.7587 119.046 58.9571C119.165 59.1571 120.087 59.7204 120.175 60.7533C120.487 59.4148 122.066 58.9707 121.855 58.8931C121.644 58.8147 121.734 58.2682 121.734 58.2682C121.734 58.2682 121.344 58.7691 121.032 58.5459C120.72 58.3226 120.766 57.4897 120.766 57.4897C120.766 57.4897 120.73 58.0746 120.265 57.8986C119.798 57.7234 119.674 57.2041 119.674 57.2041C119.674 57.2041 119.842 57.4937 119.341 57.6362C118.838 57.7794 118.557 57.5897 118.557 57.5897L118.618 57.985Z" fill="#F08B78"/>
<path d="M75.4262 63.4774C75.4262 63.4774 76.8239 60.5498 76.8271 59.9554C76.8311 59.3601 76.2575 59.1449 76.2575 59.1449C76.2575 59.1449 77.1032 57.1374 76.7231 56.6606C76.3439 56.1837 75.643 57.4599 75.643 57.4599C75.643 57.4599 75.5422 56.2645 75.0797 56.2789C74.6157 56.2925 74.1956 57.3775 74.1956 57.3775C74.1956 57.3775 73.9164 56.2701 73.5411 56.3894C73.1675 56.5078 72.9659 58.0135 72.9659 58.0135C72.9659 58.0135 73.0859 56.6558 72.3546 57.0862C71.6233 57.5183 72.2498 63.567 72.2498 63.567C72.2498 63.567 73.6012 63.867 75.4262 63.4774Z" fill="#F9B09B"/>
<path d="M76.2573 59.1451C76.2573 59.1451 75.1963 58.9291 75.0355 58.9171C74.8755 58.9051 74.0106 59.374 74.2282 59.5588C74.4466 59.7444 75.0123 59.5436 75.1691 59.61C75.3267 59.6748 75.7844 59.8332 75.626 60.002C75.4684 60.1708 74.4458 60.5197 74.133 61.5086C74.121 60.1348 72.6768 59.3588 72.8993 59.3275C73.1217 59.2979 73.1537 58.7443 73.1537 58.7443C73.1537 58.7443 73.4249 59.3187 73.7778 59.1675C74.1314 59.0179 74.2682 58.1946 74.2682 58.1946C74.2682 58.1946 74.1754 58.7731 74.6683 58.7035C75.1611 58.6331 75.3956 58.1538 75.3956 58.1538C75.3956 58.1538 75.1683 58.4002 75.6276 58.6491C76.0868 58.8971 76.4021 58.7731 76.4021 58.7731L76.2573 59.1451Z" fill="#F08B78"/>
<path d="M90.5677 38.7007C90.5677 38.7007 89.822 42.9212 90.1068 46.5049C90.3909 50.0877 92.3783 52.0735 95.8571 51.9327C99.3367 51.7903 101.608 46.1504 102.035 43.9502C98.4494 41.0058 97.2061 34.5146 97.2061 34.5146C97.2061 34.5146 94.8634 37.7782 90.5677 38.7007Z" fill="#F9B09B"/>
<path d="M113.509 65.0414L117.548 73.216L118.507 62.1475H121.648C121.648 62.1475 123.192 72.3111 122.554 76.6748C121.914 81.0369 121.169 83.5388 117.282 82.2082C113.394 80.8785 107.441 68.0226 107.441 68.0226L113.509 65.0414Z" fill="#F9B09B"/>
<path d="M92.1855 46.6577C92.1855 46.6577 94.9019 47.1666 97.1077 46.9826C96.2108 49.5941 92.5136 49.7333 92.1855 46.6577Z" fill="white"/>
<path d="M84.9747 70.093C84.9747 70.093 85.2499 68.1072 87.5278 64.1699C85.8644 65.8725 83.6602 69.6618 83.6602 69.6618L84.9747 70.093Z" fill="#EBC7CC"/>
<path d="M107.442 68.0226L105.035 63.4253L107.442 71.035L107.366 80.7297L108.722 70.6205L107.442 68.0226Z" fill="#EBC7CC"/>
<path d="M95.8345 91.6148C92.791 91.6148 91.2332 91.2131 91.2132 91.2075C91.1508 91.1915 91.1132 91.1267 91.13 91.0651C91.1468 91.0027 91.2108 90.9651 91.2732 90.9819C91.3004 90.9899 94.1271 91.7156 99.6454 91.1915C105.156 90.6691 109.204 87.8007 109.245 87.7719C109.297 87.7343 109.371 87.7463 109.407 87.7983C109.446 87.8503 109.434 87.924 109.382 87.9616C109.34 87.9912 105.244 90.8955 99.6678 91.4236C98.2012 91.5636 96.9227 91.6148 95.8345 91.6148Z" fill="#2E1F3F"/>
</svg>
