<svg width="441" height="479" viewBox="0 0 441 479" fill="none" xmlns="http://www.w3.org/2000/svg">
<path d="M189.412 95.0908C189.412 95.0908 199.776 94.9389 203.414 92.6627C207.053 90.3888 208.268 88.5659 206.296 88.5659C204.326 88.5659 187.642 89.475 187.642 89.475C187.642 89.475 184.356 90.5383 183.801 92.6627C183.244 94.7846 189.412 95.0908 189.412 95.0908Z" fill="#F19F73"/>
<path d="M105.672 159.701C105.672 159.701 151.549 144.276 163.682 131.67C175.816 119.059 189.413 95.0907 189.413 95.0907L183.802 92.6626C183.802 92.6626 155.655 119.346 151.38 121.619C147.1 123.896 99.3809 142.412 99.3809 142.412L105.672 159.701Z" fill="#F19F73"/>
<path d="M354.702 158.063C354.702 158.063 324.064 197.003 318.405 195.768C312.743 194.531 287.572 160.219 287.572 160.219L279.955 165.628C279.955 165.628 303.173 215.886 314.501 219.638C331.125 225.14 372.198 181.626 372.198 181.626L354.702 158.063Z" fill="#F19F73"/>
<path d="M287.571 160.219C287.571 160.219 283.404 154.463 279.31 152.681C275.211 150.897 264.618 145.262 263.856 147.565C263.094 149.87 266.048 156.067 268.705 158.652C271.365 161.236 281.094 166.269 281.094 166.269C281.094 166.269 287 164.832 287.571 160.219Z" fill="#F19F73"/>
<path d="M222.86 208.473H212.643C209.002 208.473 206.051 211.422 206.051 215.066V226.087H229.452V215.066C229.452 211.422 226.503 208.473 222.86 208.473Z" fill="#BEEAEF"/>
<path d="M246.248 248.748H252.16V230.92C252.16 228.25 249.997 226.087 247.326 226.087H188.18C185.511 226.087 183.348 228.25 183.348 230.92V290.073C183.348 292.744 185.511 294.907 188.18 294.907H247.326C249.997 294.907 252.16 292.744 252.16 290.073V272.155H246.248C239.783 272.155 234.546 266.913 234.546 260.453C234.546 253.988 239.783 248.748 246.248 248.748Z" fill="#BEEAEF"/>
<path d="M206.865 386.661C206.865 386.661 211.189 426.418 200.218 471.487C195.429 471.948 190.809 471.487 190.809 471.487C190.809 471.487 189.784 422.374 186.792 424.118C183.799 425.863 171.69 471.487 171.69 471.487H161.213C161.213 471.487 161.784 453.694 164.343 444.84C165.105 426.56 163.262 408.481 164.632 390.292C166.002 372.102 206.865 386.661 206.865 386.661Z" fill="#F68833"/>
<path d="M191.729 471.559C191.729 471.559 191.341 478.581 194.334 478.581C197.326 478.581 208.898 478.581 208.898 478.581C208.898 478.581 211.29 476.912 207.301 475.07C203.311 473.225 198.823 471.595 198.823 471.595L191.729 471.559Z" fill="#383448"/>
<path d="M162.702 471.559C162.702 471.559 162.314 478.581 165.306 478.581C168.299 478.581 179.87 478.581 179.87 478.581C179.87 478.581 182.262 476.912 178.272 475.07C174.283 473.225 169.794 471.595 169.794 471.595L162.702 471.559Z" fill="#383448"/>
<path d="M220.457 300.234C220.457 300.234 215.051 313.65 206.855 324.127C198.656 334.602 189.81 341.951 188.204 346.34C186.593 350.73 191.066 357.846 200.397 351.408C209.729 344.97 222.077 325.834 225.612 299.739C223.495 298.982 220.457 300.234 220.457 300.234Z" fill="#FAB992"/>
<path d="M211.319 315.885C211.319 315.885 203.335 327.221 196.304 334.804C189.275 342.385 185.569 345.322 187.71 351.263C189.854 357.205 197.534 356.624 205.189 349.486C212.847 342.349 219.905 327.643 221.468 321.164C218.54 318.716 211.319 315.885 211.319 315.885Z" fill="#ECDEE1"/>
<path d="M208.936 393.21C208.936 393.21 205.594 354.21 194.106 342.457C185.761 333.922 169.36 338.095 166.563 347.957C163.768 357.822 162.852 394.109 162.852 394.109C162.852 394.109 188.775 404.386 208.936 393.21Z" fill="#ECDEE1"/>
<path d="M144.657 332.041C156.465 338.742 172.358 337.319 177.887 327.577C183.414 317.833 176.484 303.462 164.676 296.759C152.865 290.058 140.652 293.569 135.126 303.313C129.597 313.054 132.849 325.342 144.657 332.041Z" fill="#FAB992"/>
<path d="M147.422 313.903C146.766 315.613 147.716 319.184 150.742 321.055C153.766 322.929 157.626 322.625 157.906 327.009C158.188 331.392 164.281 331.006 163.129 336.024C161.976 341.042 155.374 346.181 149.551 343.234C143.73 340.29 141.905 333.888 138.293 332.149C134.683 330.411 123.999 328.988 124.749 316.797C125.496 304.613 131.838 302.939 133.243 299.737C134.649 296.53 136.778 290.039 141.425 288.614C146.071 287.184 148.022 289.535 151.07 288.563C154.115 287.592 161.388 286.28 165.277 290.087C169.164 293.892 169.207 298.898 164.766 301.657C160.327 304.405 159.022 304.089 157.891 307.038C156.76 309.992 155.675 312.358 152.529 313.595C149.382 314.829 147.422 313.903 147.422 313.903Z" fill="#443F55"/>
<path d="M165.021 335.123C165.021 335.123 168.499 344.744 168.593 344.611C168.689 344.478 175.419 340.044 180.803 337.934C179.559 336.398 174.63 329.615 174.63 329.615L165.021 335.123Z" fill="#FAB992"/>
<path d="M165.24 335.73C165.24 335.73 171.96 333.847 175.454 330.746C176.195 331.761 176.687 332.434 176.687 332.434C176.687 332.434 175.64 334.729 172.573 337.49C169.506 340.249 167.087 340.772 167.087 340.772L165.24 335.73Z" fill="#F9AE74"/>
<path d="M195.19 300.627C195.19 300.627 190.835 314.422 183.474 325.501C176.11 336.579 167.858 344.589 166.592 349.088C165.327 353.588 170.34 360.339 179.143 353.197C187.947 346.055 198.78 326.025 200.29 299.737C198.12 299.142 195.19 300.627 195.19 300.627Z" fill="#FAB992"/>
<path d="M187.29 316.939C187.29 316.939 180.208 328.855 173.782 336.96C167.358 345.062 163.893 348.278 166.488 354.036C169.082 359.794 176.694 358.62 183.776 350.911C190.858 343.202 196.759 327.992 197.812 321.417C194.709 319.206 187.29 316.939 187.29 316.939Z" fill="#DACBCF"/>
<path d="M198.176 397.239C198.176 397.239 197.307 405.288 194.443 410.921C191.581 416.556 185.893 425.371 185.893 425.371C185.893 425.371 187.255 423.158 187.742 425.371C188.229 427.587 189.519 440.338 189.519 440.338C189.519 440.338 191.962 424.479 198.836 420.086C205.708 415.697 207.442 419.143 207.442 419.143C207.442 419.143 208.218 402.792 207.394 394.018C205.219 395.009 198.176 397.239 198.176 397.239Z" fill="#F07927"/>
<path d="M194.959 299.887C194.959 299.887 193.86 295.93 194.156 290.876C194.45 285.822 196.049 284.023 198.458 285.646C200.864 287.271 202.986 293.531 199.854 300.844C196.724 308.16 194.959 299.887 194.959 299.887Z" fill="#FAB992"/>
<path d="M363.421 465.661C363.421 465.661 366.449 477.274 358.145 477.274C347.832 477.274 341.645 477.274 341.645 477.274L354.824 464.895L363.421 465.661Z" fill="#FAB992"/>
<path d="M352.678 477.274V466.913C352.678 466.913 338.857 468.289 334.22 470.209C329.578 472.128 329.682 478.581 329.682 478.581H364.218V477.274H352.678Z" fill="#443F55"/>
<path d="M438.273 465.661C438.273 465.661 441.301 477.274 432.992 477.274C422.681 477.274 416.494 477.274 416.494 477.274L429.674 464.895L438.273 465.661Z" fill="#FAB992"/>
<path d="M427.528 477.274V466.913C427.528 466.913 413.707 468.292 409.07 470.209C404.426 472.131 404.529 478.581 404.529 478.581H439.066V477.274H427.528Z" fill="#443F55"/>
<path d="M387.018 260.156L427.428 466.196L439.971 466.512C439.971 466.512 441.925 407.178 438.903 393.745C435.879 380.314 434.987 367.414 434.7 359.416C434.411 351.415 435.863 299.681 435.537 298.242C435.212 296.802 437.538 271.332 429.347 250.622C421.156 229.912 387.018 260.156 387.018 260.156Z" fill="#CB434C"/>
<path d="M360.274 253.684L352.707 466.199H365C365 466.199 381.536 409.179 381.536 395.414C381.536 381.648 383.501 368.861 384.979 360.995C386.453 353.13 406.068 302.978 406.068 301.5C406.068 300.026 413.934 275.689 410.495 253.684C407.055 231.684 360.274 253.684 360.274 253.684Z" fill="#F14E45"/>
<path d="M343.742 113.826L345.512 128.024L363.823 128.747L370.939 123.493L357.494 96.7954L343.742 113.826Z" fill="#F9AE74"/>
<path d="M320.825 85.6843C324.997 102.324 337.559 116.269 348.075 113.631C358.598 110.993 363.085 92.7661 358.914 76.1236C354.735 59.4834 343.472 50.7233 332.954 53.3637C322.438 56.0016 316.647 69.0393 320.825 85.6843Z" fill="#FAB992"/>
<path d="M360.047 94.9483C360.047 94.9483 353.578 94.9048 349.476 101.143C345.375 107.386 343.742 113.826 343.742 113.826L350.429 116.715L357.426 113.153L360.047 94.9483Z" fill="#F9AE74"/>
<path d="M317.735 72.9625C317.735 72.9625 322.936 76.278 326.416 84.7102C329.89 93.1448 341.65 109.828 351.271 109.443C360.892 109.059 374.525 100.793 372.097 88.5585C369.671 76.3262 369.141 65.8107 368.772 62.4156C368.406 59.0205 361.806 34.2737 335.955 39.6147C319.184 43.0821 309.057 61.2076 317.735 72.9625Z" fill="#443F55"/>
<path d="M406.844 298.141C406.844 298.141 409.151 289.058 419.966 284.136C430.78 279.217 435.598 268.979 431.554 257.161C427.508 245.344 408.013 257.161 408.013 257.161L406.844 298.141Z" fill="#F14E45"/>
<path d="M359.176 43.133C359.176 43.133 369.139 46.8488 370.229 52.021C371.324 57.1907 369.99 60.0239 371.278 63.4069C372.568 66.7875 376.65 72.7361 376.86 76.9004C377.067 81.0598 373.747 85.7015 374.123 89.0749C374.502 92.4482 377.21 98.5222 367.446 104.939C357.686 111.355 351.272 109.443 351.272 109.443L317.965 52.0475C317.965 52.0475 319.961 42.5471 326.764 38.3635C333.566 34.18 339.63 37.2592 342.63 37.3508C345.629 37.44 354.276 34.3223 359.176 43.133Z" fill="#443F55"/>
<path d="M335.865 128.747C343.325 121.439 369.813 117.18 383.765 117.508C397.716 117.839 411.113 144.869 421.441 177.421C431.766 209.978 438.901 259.749 438.901 259.749C438.901 259.749 427.667 263.197 395.404 266.327C363.139 269.459 358.589 267.834 358.589 267.834C358.589 267.834 353.093 235.984 342.284 198.951C331.474 161.924 317.732 146.526 335.865 128.747Z" fill="#ECDEE1"/>
<path d="M338.436 186.827L346.337 170.925C346.337 170.925 349.373 162.883 350.844 156.481C363.722 193.627 374.547 245.081 377.373 267.802C372.408 268.07 365.138 269.104 358.589 267.834C357.104 259.92 345.903 206.718 338.436 186.827Z" fill="#DACBCF"/>
<path d="M178.252 0H256.011C259.521 0 262.367 2.84529 262.367 6.35368V84.1218C262.367 87.6302 259.521 90.4755 256.011 90.4755H178.252C174.741 90.4755 171.898 87.6302 171.898 84.1218V6.35368C171.898 2.84529 174.741 0 178.252 0Z" fill="#BEEAEF"/>
<path d="M285.525 52.2039V37.16C285.525 32.8197 282.005 29.2969 277.662 29.2969H262.367V60.067H277.662C282.005 60.067 285.525 56.5466 285.525 52.2039Z" fill="#BEEAEF"/>
<path d="M224.655 113.636H209.611C205.27 113.636 201.75 110.113 201.75 105.773V90.4756H232.515V105.773C232.515 110.113 228.995 113.636 224.655 113.636Z" fill="#BEEAEF"/>
<path d="M279.163 158.331V170.51C279.163 174.85 275.642 178.373 271.3 178.373H258.158V150.468H271.3C275.642 150.468 279.163 153.986 279.163 158.331Z" fill="#BEEAEF"/>
<path d="M231.082 198.396V205.449H252.396C255.576 205.449 258.158 202.869 258.158 199.686V129.154C258.158 125.972 255.576 123.389 252.396 123.389H231.082V130.442C231.082 138.146 224.837 144.396 217.133 144.396C209.427 144.396 203.182 138.146 203.182 130.442V123.389H181.868C178.686 123.389 176.105 125.972 176.105 129.154V150.468H183.158C190.862 150.468 197.11 156.713 197.11 164.419C197.11 172.128 190.862 178.373 183.158 178.373H176.105V199.686C176.105 202.869 178.686 205.449 181.868 205.449H203.182V198.396C203.182 190.692 209.427 184.442 217.133 184.442C224.837 184.442 231.082 190.692 231.082 198.396Z" fill="#BEEAEF"/>
<path d="M225.612 299.739C225.612 299.739 229.716 299.233 231.132 298.273C232.547 297.314 233.304 294.907 233.304 294.907H225.612C225.612 294.907 220.705 295.819 220.457 300.234C221.677 302.317 225.612 299.739 225.612 299.739Z" fill="#FAB992"/>
<path d="M200.413 353.115L195.166 343.646C195.166 343.646 197.792 346.328 202.872 345.339C207.953 344.355 215.761 334.804 215.761 334.804C215.761 334.804 210.564 346.111 201.259 355.322C200.888 354.323 200.413 353.115 200.413 353.115Z" fill="#DACBCF"/>
<path d="M176.105 142.412V185.178L196.654 178.373L212.426 164.419C212.426 164.419 198.366 146.05 197.812 144.837C197.259 143.622 176.105 142.412 176.105 142.412Z" fill="#BEEAEF"/>
<path d="M319.459 156.481C319.459 156.481 302.614 203.077 296.851 203.682C291.088 204.292 256.406 179.627 256.406 179.627L250.875 187.153C250.875 187.153 288.715 227.57 300.644 227.57C318.154 227.57 343.472 173.351 343.472 173.351L319.459 156.481Z" fill="#FAB992"/>
<path d="M256.406 179.627C256.406 179.627 250.643 175.473 246.194 175.065C241.745 174.663 229.918 172.642 229.918 175.065C229.918 177.493 234.668 182.451 238.005 184.069C241.34 185.685 252.159 187.404 252.159 187.404C252.159 187.404 257.317 184.187 256.406 179.627Z" fill="#FAB992"/>
<path d="M332.304 132.726C332.304 132.726 326.469 138.464 321.162 147.415C315.852 156.366 306.453 179.569 306.453 179.569L333.901 195.947L346.335 170.925L332.304 132.726Z" fill="#ECDEE1"/>
<path d="M85.5676 253.667L96.5992 463.855L88.7095 465.135C88.7095 465.135 75.3848 426.907 74.1237 405.741C72.8651 384.573 75.1317 384.071 74.1237 376.76C73.1158 369.452 52.9577 292.597 54.7227 274.703C56.4853 256.812 85.5676 253.667 85.5676 253.667Z" fill="#FAB992"/>
<path d="M51.2673 259.513L9.30642 465.765L1.14187 465.136C1.14187 465.136 -1.98071 424.679 2.10156 403.87C6.18383 383.061 8.50347 383.143 9.35947 375.815C10.2131 368.49 9.94781 289.031 16.1351 272.15C22.3248 255.274 51.2673 259.513 51.2673 259.513Z" fill="#FAB992"/>
<path d="M88.7084 465.136C88.7084 465.136 86.9747 468.967 87.9874 472.29C88.9978 475.615 89.9382 478.581 89.9382 478.581H91.7442V472.866C91.7442 472.866 93.2609 474.605 94.1289 475.979C94.997 477.349 96.0821 478.581 98.2498 478.581C100.418 478.581 107.502 478.581 107.502 478.581C107.502 478.581 108.874 475.654 107.502 474.894C106.13 474.132 101.032 471.422 99.9497 469.58C98.8647 467.738 98.1413 461.695 96.6969 461.447C95.2502 461.196 92.0335 461.666 91.708 462.315C91.3825 462.966 91.3825 464.376 91.3825 464.376L88.7084 465.136Z" fill="#443F55"/>
<path d="M1.14117 465.136C1.14117 465.136 -0.592534 468.967 0.417787 472.29C1.43052 475.615 2.37091 478.581 2.37091 478.581H4.17695V472.866C4.17695 472.866 5.69364 474.605 6.56169 475.979C7.42975 477.349 8.51482 478.581 10.6825 478.581C12.8503 478.581 19.9346 478.581 19.9346 478.581C19.9346 478.581 21.309 475.654 19.9346 474.894C18.5602 474.132 13.4651 471.422 12.3801 469.58C11.2974 467.738 10.574 461.695 9.12969 461.447C7.68293 461.196 4.4663 461.666 4.14078 462.315C3.81526 462.966 3.81526 464.376 3.81526 464.376L1.14117 465.136Z" fill="#443F55"/>
<path d="M86.3448 244.717L92.9613 350.832C92.9613 350.832 85.9686 354.08 52.9584 353.832C19.9506 353.576 8.61285 349.294 8.61285 349.294C8.61285 349.294 7.09857 284.785 12.6421 263.867C18.188 242.952 33.3042 226.572 33.3042 226.572L86.3448 244.717Z" fill="#7DD3CD"/>
<path d="M98.92 67.5225C98.92 67.5225 105.163 73.6374 108.049 81.3776C110.933 89.1153 112.505 94.4322 117.93 98.1214C123.358 101.813 134.534 111.407 125.962 122.856C119.871 130.985 108.992 126.772 107.152 127.667C105.312 128.561 98.9947 132.603 92.2818 131.472C85.5712 130.336 91.7754 114.499 91.7754 114.499L98.92 67.5225Z" fill="#F14E45"/>
<path d="M94.34 123.934L96.3028 145.58L83.0023 146.786L80.8418 122.97L94.34 123.934Z" fill="#F19F73"/>
<path d="M94.7409 128.364C94.7409 128.364 90.0944 128.744 86.8802 127.397C83.6684 126.054 80.8086 121.038 80.8086 121.038L80.8568 126.126L81.9612 135.301L94.9338 130.485L94.7409 128.364Z" fill="#F19F73"/>
<path d="M96.0158 142.426C96.0158 142.426 101.692 142.769 103.732 144.042C105.774 145.312 108.853 161.591 109.639 167.361C110.425 173.129 111.474 179.948 109.639 187.027C107.804 194.107 95.9217 195.889 90.0624 207.063C84.2054 218.234 86.4599 246.549 86.4599 246.549C86.4599 246.549 79.026 249.617 59.3597 246.417C39.6934 243.212 28.6836 232.251 28.6836 232.251C28.6836 232.251 48.5428 206.629 51.4942 193.456C54.4431 180.276 57.0642 151.493 62.9863 144.676C67.8908 139.029 84.0149 141.411 84.0149 141.411L96.0158 142.426Z" fill="#7DD3CD"/>
<path d="M41.7715 240.632C41.7715 240.632 38.3644 249.814 35.8254 279.996C31.7913 327.874 47.5321 353.747 47.5321 353.747C47.5321 353.747 24.0126 354.649 8.61183 349.293C8.04277 339.026 6.21745 300.154 10.1237 274.325C14.0275 248.498 28.6832 232.25 28.6832 232.25C28.6832 232.25 35.0851 237.739 41.7715 240.632Z" fill="#6CCDC1"/>
<path d="M55.8361 168.292C55.8361 168.292 63.5063 166.558 67.0557 160.942C65.6813 177.435 78.4899 190.143 106.668 191.537C103.555 193.984 95.1807 199.655 92.1497 203.757C82.5023 198.886 69.7153 199.484 59.3831 201.625C49.0508 203.769 36.1602 221.957 36.1602 221.957C36.1602 221.957 46.1693 208.353 49.9502 195.626C53.7286 182.897 55.8361 168.292 55.8361 168.292Z" fill="#6CCDC1"/>
<path d="M81.9612 135.301L80.8086 141.081C80.8086 141.081 82.7545 152.864 91.5725 153.303C100.393 153.747 96.0164 142.426 96.0164 142.426L82.5061 135.301H81.9612Z" fill="#F19F73"/>
<path d="M60.9025 201.326C60.9025 201.326 48.8245 219.623 41.7716 240.632C27.4438 246.487 28.6832 232.251 28.6832 232.251C28.6832 232.251 42.8108 212.871 47.5321 202.185C55.3566 196.981 60.9025 201.326 60.9025 201.326Z" fill="#6CCDC1"/>
<path d="M71.4159 139.581C71.4159 139.581 107.267 129.878 130.926 109.45C154.583 89.0217 170.355 65.0586 170.355 65.0586L176.431 70.4478C176.431 70.4478 159.437 99.5156 139.115 123.39C118.792 147.261 82.703 163.638 69.6701 163.797C56.6397 163.949 57.322 154.341 59.3451 148.681C61.3657 143.015 71.4159 139.581 71.4159 139.581Z" fill="#FAB992"/>
<path d="M104.217 92.0092C108.234 108.377 103.732 126.259 93.3853 128.798C83.0386 131.339 70.7701 117.576 66.7505 101.203C62.7333 84.8381 68.489 72.056 78.8333 69.5146C89.1801 66.9755 100.197 75.6368 104.217 92.0092Z" fill="#FAB992"/>
<path d="M81.2727 80.8953C81.2727 80.8953 82.5652 87.1429 80.1877 90.9961C77.8077 94.8493 74.5549 105.145 79.2448 110.725C83.9348 116.3 89.2468 122.731 86.7366 131.144C84.2265 139.552 74.5212 132.793 67.3549 133.989C60.1886 135.187 56.6416 142.216 47.3969 138.517C38.1521 134.821 34.851 122.487 40.5055 112.649C46.1623 102.811 52.0651 99.7297 53.4419 94.8758C54.8211 90.0219 51.7082 75.7545 61.7945 68.6581C71.8808 61.5569 78.8663 62.3792 78.8663 62.3792L81.2727 80.8953Z" fill="#F14E45"/>
<path d="M81.2736 80.8957C81.2736 80.8957 87.6321 86.9552 95.3241 87.4423C103.016 87.927 103.016 87.927 103.016 87.927C103.016 87.927 105.082 76.7363 99.8042 68.6682C94.5284 60.5977 78.8672 62.3796 78.8672 62.3796L81.2736 80.8957Z" fill="#F14E45"/>
<path d="M170.355 65.0585C170.355 65.0585 167.929 53.3807 169.142 48.375C170.355 43.3716 169.499 39.4268 171.898 37.9125C174.3 36.3934 175.79 42.9159 176.106 49.4359C176.422 55.9584 177.854 68.0726 176.432 70.4477C175.011 72.8252 170.355 65.0585 170.355 65.0585Z" fill="#FAB992"/>
</svg>
