<svg width="531" height="357" viewBox="0 0 531 357" fill="none" xmlns="http://www.w3.org/2000/svg">
<path d="M274.019 251.349V313.421H40.6014C40.6014 313.421 -1.179 237.707 0.0255542 212.481C1.23011 187.254 26.5438 182.49 42.609 198.669C58.6787 214.882 70.7333 249.156 70.7333 249.156L274.019 251.349Z" fill="#3A50A5"/>
<path d="M40.6013 313.421L31.9619 352.671H36.2839L67.521 313.421H40.6013Z" fill="#3A50A5"/>
<path d="M274.018 243.412V77.2818C274.018 77.2818 174.185 72.0448 172.376 112.033C170.571 152.025 177.199 243.412 177.199 243.412H274.018Z" fill="#3A50A5"/>
<path d="M167.861 243.413C167.861 243.413 164.243 127.031 159.421 105.25C154.602 83.4728 119.35 78.8288 84.0931 84.186C48.8408 89.5391 24.7362 107.887 22.3226 131.385C19.9135 154.883 28.625 181.76 28.625 181.76C28.625 181.76 46.6302 189.17 56.6771 203.923C66.7196 218.676 76.162 243.413 76.162 243.413H167.861Z" fill="#3A50A5"/>
<path d="M255.982 251.349V313.421H489.431C489.431 313.421 531.189 237.707 529.975 212.481C528.802 187.254 503.475 182.49 487.387 198.669C471.336 214.848 459.295 249.156 459.295 249.156L255.982 251.349Z" fill="#3A50A5"/>
<path d="M489.43 313.421L498.061 352.671H493.748L462.475 313.421H489.43Z" fill="#3A50A5"/>
<path d="M255.982 243.412V77.2818C255.982 77.2818 355.83 72.0448 357.648 112.033C359.425 152.025 352.802 243.412 352.802 243.412H255.982Z" fill="#3A50A5"/>
<path d="M362.15 243.413C362.15 243.413 365.787 127.03 370.596 105.253C375.4 83.472 410.648 78.828 445.932 84.1893C481.18 89.5382 505.294 107.89 507.68 131.384C510.103 154.882 501.396 181.759 501.396 181.759C501.396 181.759 483.373 189.169 473.344 203.922C463.31 218.675 453.845 243.413 453.845 243.413H362.15Z" fill="#3A50A5"/>
<path d="M299.608 98.8271C299.608 98.8271 317.098 92.1969 329.478 93.2128C341.821 94.2287 343.337 193.623 343.107 194.494C342.845 195.364 298.665 196.198 298.665 195.779C298.665 195.364 281.625 135.191 281.625 134.59C281.625 133.989 299.608 98.8271 299.608 98.8271Z" fill="white"/>
<path d="M299.42 191.049H345.491L347.688 241.154L319.103 245.607L288.362 248.008L267.578 218.954L299.42 191.049Z" fill="#443F54"/>
<path d="M278.822 218.953C278.822 218.953 288.553 218.43 298.208 224.696C305.855 220.727 308.882 214.5 308.882 214.5C308.882 214.5 321.604 215.159 328.913 224.173C336.217 233.221 335.572 243.031 335.572 243.031L320.959 245.432L296.692 248.633L278.822 218.953Z" fill="#F09E72"/>
<path d="M290.711 103.715C290.711 103.715 285.148 106.535 280.38 111.009C275.647 115.483 249.783 140.361 249.783 140.361L254.087 160.065L282.572 142.854L290.711 103.715Z" fill="#7CD3CC"/>
<path d="M208.516 46.5936C208.516 46.5936 218.117 43.6745 228.637 51.4988C239.154 59.3191 241.035 66.0819 241.897 77.4847C242.763 88.8834 253.595 92.9096 259.739 104.885C265.879 116.86 261.702 126.674 241.752 135.821C221.812 144.968 168.735 137.463 168.735 137.463C168.735 137.463 152.151 128.395 154.898 113.418C157.641 98.4327 166.601 94.1908 172.673 86.3706C178.741 78.5462 176.72 70.3238 184.958 58.7925C193.196 47.257 208.516 46.5936 208.516 46.5936Z" fill="#443F54"/>
<path d="M248.608 194.805C248.608 194.805 258.398 206.117 261.772 221.981C265.16 237.882 253.34 251.176 243.794 251.939C234.244 252.706 195.481 252.113 195.481 252.113C195.481 252.113 172.694 255.036 165.954 233.744C159.209 212.448 170.014 193.553 196.582 190.7C223.145 187.814 248.608 194.805 248.608 194.805Z" fill="#443F54"/>
<path d="M185.442 251.453C185.442 251.453 180.439 249.989 178.761 235.796C177.074 221.599 185.366 209.209 197.371 207.717C209.375 206.253 213.179 218.779 213.179 218.779C213.179 218.779 218.827 209.176 228.08 207.853C237.328 206.498 244.298 214.467 244.298 214.467C244.298 214.467 251.097 220.45 252.36 235.274C253.624 250.13 244.772 252.324 244.772 252.324L206.43 250.653L185.442 251.453Z" fill="#F09E72"/>
<path d="M209.278 120.94H214.895L226.692 105.789C226.692 105.789 257.785 114.567 259.657 131.09C261.53 147.618 248.604 194.804 248.604 194.804L225.758 199.088L201.6 198.914L209.278 120.94Z" fill="#F14D44"/>
<path d="M213.031 120.94H207.409L195.612 105.789C195.612 105.789 163.96 116.292 162.083 132.815C160.211 149.339 181.392 194.738 181.392 194.738L196.55 199.088L220.709 198.914L213.031 120.94Z" fill="#F14D44"/>
<path d="M212.943 336.802C212.943 336.802 213.056 338.996 212.943 340.318C212.834 341.674 212.203 343.101 212.063 344.249C211.923 345.398 209.956 351.14 208.693 352.878C207.43 354.619 203.915 356.742 200.405 356.361C196.891 356.012 193.101 354.2 197.383 348.288C201.669 342.371 204.479 340.215 204.479 340.215L212.943 336.802Z" fill="#443F54"/>
<path d="M190.357 212.692C194.859 205.73 206.165 205.315 211.614 211.751C214.177 214.778 216.482 219.268 216.753 225.67C217.389 240.805 212.941 336.804 212.941 336.804H204.207C204.207 336.804 189.445 291.155 186.743 266.065C184.817 248.111 182.971 224.103 190.357 212.692Z" fill="#F9B992"/>
<path d="M212.941 336.804C212.941 336.804 210.189 347.418 208.971 348.704C207.753 349.993 198.766 350.097 198.577 348.393C198.392 346.689 204.135 342.061 204.207 336.804C204.288 331.588 212.941 336.804 212.941 336.804Z" fill="#F9B992"/>
<path d="M220.689 336.802C220.689 336.802 220.58 338.996 220.689 340.318C220.802 341.674 221.433 343.101 221.573 344.249C221.713 345.398 223.68 351.14 224.948 352.878C226.211 354.619 229.721 356.742 233.231 356.361C236.74 356.012 240.535 354.2 236.249 348.288C231.967 342.371 229.157 340.215 229.157 340.215L220.689 336.802Z" fill="#443F54"/>
<path d="M243.279 212.692C238.777 205.73 227.466 205.315 222.021 211.751C219.459 214.778 217.153 219.268 216.883 225.67C216.247 240.805 220.69 336.804 220.69 336.804H229.424C229.424 336.804 244.19 291.155 246.888 266.065C248.815 248.111 250.664 224.103 243.279 212.692Z" fill="#F9B992"/>
<path d="M220.686 336.804C220.686 336.804 223.442 347.418 224.66 348.704C225.878 349.993 234.865 350.097 235.054 348.393C235.239 346.689 229.496 342.061 229.42 336.804C229.343 331.588 220.686 336.804 220.686 336.804Z" fill="#F9B992"/>
<path d="M188.534 163.619L180.017 136.526C180.017 136.526 187.695 155.405 211.24 156.404C234.785 157.408 241.679 142.078 241.679 142.078L237.587 163.619L223.056 199.087H202.632L188.534 163.619Z" fill="#CB434B"/>
<path d="M191 93.7732C191 93.7732 199.847 94.2832 209.777 92.2389C219.706 90.1947 222.797 85.8242 222.797 85.8242C222.797 85.8242 225.215 92.3509 232.645 97.5756C227.89 106.657 218.709 119.942 218.709 119.942C218.709 119.942 215.285 121.36 215.366 121.53C215.452 121.7 208.595 121.53 208.595 121.53L195.836 105.01C195.836 105.01 191.997 103.14 191 93.7732Z" fill="#F09E72"/>
<path d="M211.161 130.17C211.161 130.17 209.803 181.619 206.365 195.153C202.923 208.725 177.072 208.202 181.507 186.214C185.946 164.225 204.141 128.74 204.141 128.74C204.141 128.74 197.293 118.49 196.142 113.116C194.992 107.734 195.565 100.017 198.181 98.8769C200.798 97.7324 207.109 103.716 209.46 110.076C211.801 116.441 211.161 130.17 211.161 130.17Z" fill="#F9B992"/>
<path d="M213.245 130.639C213.245 130.639 217.075 182 221.162 195.43C225.254 208.865 251.059 207.505 245.569 185.653C240.079 163.847 220.192 128.98 220.192 128.98C220.192 128.98 226.535 118.519 227.424 113.108C228.317 107.697 227.379 100.001 224.708 98.9435C222.037 97.8903 216.019 104.073 213.98 110.504C211.945 116.939 213.245 130.639 213.245 130.639Z" fill="#F9B992"/>
<path d="M301.956 81.7765C301.956 81.7765 304.189 89.4888 304.302 91.6864C304.528 96.6331 301.843 98.0346 301.843 98.0346C301.843 98.0346 296.312 116.076 309.49 110.457C322.664 104.847 328.001 93.1045 328.001 93.1045C328.001 93.1045 322.74 87.5566 321.793 84.6126C320.277 79.9189 318.5 70.1416 318.5 70.1416L301.956 81.7765Z" fill="#F9B992"/>
<path d="M302.41 83.2744C302.41 83.2744 306.651 83.4444 310.21 80.0112C313.806 76.5781 318.047 67.3193 318.047 67.3193L320.054 68.074C320.054 68.074 318.277 72.0213 321.381 83.5107C317.857 89.6804 302.943 85.2646 302.943 85.2646L302.41 83.2744Z" fill="#F09E72"/>
<path d="M320.054 327.967C320.054 327.967 287.608 286.768 276.934 266.451C266.219 246.162 260.115 231.409 269.968 222.399C279.848 213.385 289.39 223.096 296.924 239.798C304.458 256.532 326.794 324.418 326.794 324.418L320.054 327.967Z" fill="#F9B992"/>
<path d="M328.605 326.611C328.605 326.611 337.317 336.77 339.018 340.597C340.723 344.462 339.243 349.019 335.95 352.253C332.657 355.491 327.473 352.046 325.276 346.095C323.079 340.145 321.225 331.723 321.225 331.723L328.605 326.611Z" fill="#6BCDC1"/>
<path d="M320.053 327.968C320.053 327.968 324.596 343.244 327.172 345.852C329.743 348.497 334.701 345.437 336.75 342.547C338.793 339.624 330.276 328.42 326.793 324.418C323.346 320.45 320.053 327.968 320.053 327.968Z" fill="#F9B992"/>
<path d="M335.838 327.375C335.838 327.375 310.931 281.586 303.848 259.875C296.769 238.127 289.691 223.478 301.01 216.172C312.293 208.866 325.922 224.556 330.501 242.265C335.08 259.941 343.106 324.974 343.106 324.974L335.838 327.375Z" fill="#F9B992"/>
<path d="M344.51 327.411C344.51 327.411 351.363 338.79 352.382 342.862C353.406 346.93 351.173 351.176 347.347 353.854C343.562 356.5 339.06 352.291 337.882 346.096C336.75 339.868 336.371 331.272 336.371 331.272L344.51 327.411Z" fill="#6BCDC1"/>
<path d="M335.838 327.373C335.838 327.373 337.692 343.172 339.812 346.165C341.897 349.155 347.31 346.966 349.81 344.391C352.309 341.849 345.835 329.463 343.106 324.973C340.381 320.486 335.838 327.373 335.838 327.373Z" fill="#F9B992"/>
<path d="M355.906 103.886C355.906 103.886 393.499 159.162 386.457 177.207C379.415 195.256 327.547 202.981 327.547 202.981L324.141 194.249C324.141 194.249 361.847 173.438 365.33 170.747C368.853 168.052 339.624 128.283 336.94 113.203C334.21 98.1179 351.475 96.8532 355.906 103.886Z" fill="#7CD3CC"/>
<path d="M329.479 93.2129C329.479 93.2129 315.133 120.389 316.536 136.526C317.971 152.66 333.116 178.837 335.236 188.091C337.356 197.346 341.556 284.857 341.556 284.857L358.668 274.52C358.668 274.52 355.867 244.599 357.004 242.787C358.14 240.979 378.925 243.799 378.925 228.312C378.925 212.829 366.545 190.107 358.668 172.028C350.832 153.954 347.615 131.493 347.692 130.717C347.728 129.946 354.658 102.401 354.658 102.401C354.658 102.401 348.297 93.2129 329.479 93.2129Z" fill="#7CD3CC"/>
<path d="M299.609 98.8276C299.609 98.8276 289.124 118.411 287.798 133.214C286.512 148.017 301.468 178.418 301.847 189.029C302.221 199.644 280.228 213.215 272.125 220.729C264.018 228.246 265.692 242.51 266.445 254.551C267.203 266.625 268.151 274.35 267.582 274.35C267.014 274.35 261.668 269.026 259.845 259.386C258.023 249.749 258.771 226.679 263.454 220.136C268.151 213.597 285.754 197.591 290.41 193.101C295.107 188.648 283.864 154.9 282.574 150.426C281.252 145.952 279.736 142.166 280.381 132.182C281.062 122.197 290.712 103.716 290.712 103.716L299.609 98.8276Z" fill="#7CD3CC"/>
<path d="M324.141 194.248C324.141 194.248 317.405 188.646 309.339 188.195C301.277 187.776 291.812 188.646 293.44 191.221C294.992 193.796 302.978 193.796 304.836 194.912C306.727 196.023 313.769 201.554 319.106 201.903C324.407 202.251 326.942 201.451 326.942 201.451L324.141 194.248Z" fill="#F9B992"/>
<path d="M288.139 140.362C288.139 140.362 290.146 143.828 301.086 144.504C312.063 145.176 317.932 144.019 317.932 144.019C317.932 144.019 320.089 153.622 324.975 163.387C329.856 173.148 333.569 183.045 333.569 183.045C333.569 183.045 325.164 168.238 314.296 163.677C303.432 159.116 296.165 168.466 296.165 168.466C296.165 168.466 289.235 148.63 288.139 140.362Z" fill="#F2F9F6"/>
<path d="M280.832 143.899C280.832 143.899 278.675 138.848 279.735 131.235C280.796 123.618 285.036 114.708 285.036 114.708C285.036 114.708 280.944 123.938 273.374 132.587C265.763 141.237 258.671 148.393 258.671 148.393L257.029 158.287L280.832 143.899Z" fill="#63C5B8"/>
<path d="M349.017 139.006L337.355 121.603C337.355 121.603 339.02 132.579 334.098 139.006C329.176 145.437 318.461 146.183 318.461 146.183C318.461 146.183 321.114 154.513 324.822 162.731C338.189 163.378 344.51 171.252 345.909 174.868C347.312 178.488 334.666 186.072 334.666 186.072L335.234 188.091L359.655 174.25C359.655 174.25 351.25 155.168 349.017 139.006Z" fill="#63C5B8"/>
<path d="M279.543 137.89C279.543 137.89 281.361 140.515 288.44 142.161C290.068 149.372 294.571 163.723 294.571 163.723C294.571 163.723 290.104 164.419 285.976 161.703C283.973 155.027 279.62 142.161 279.543 137.89Z" fill="#63C5B8"/>
<path d="M336.674 201.314L367.794 192.022C367.794 192.022 376.045 208.827 378.053 220.379C367.87 204.896 337.202 208.446 337.202 208.446L336.674 201.314Z" fill="#63C5B8"/>
<path d="M324.823 48.8503C323.952 66.8872 313.237 83.846 301.011 83.2613C288.781 82.6726 279.695 64.7642 280.566 46.7315C281.441 28.6947 291.889 17.3584 304.115 17.9472C316.346 18.5318 325.693 30.8176 324.823 48.8503Z" fill="#F9B992"/>
<path d="M311.612 36.1879C311.612 36.1879 308.62 42.872 311.233 53.2839C313.845 63.6957 317.174 70.6991 320.734 71.5533C324.329 72.4075 335.08 60.93 337.164 55.27C339.244 49.6184 335.572 44.3855 335.08 42.2128C334.552 40.04 332.775 25.0712 328.191 19.3076C323.612 13.5398 316.303 13.2786 316.303 13.2786C316.303 13.2786 303.207 6.81834 286.812 13.8549C270.382 20.8874 274.812 38.456 276.061 42.1837C277.27 45.9156 273.485 52.3343 273.598 58.9812C273.675 65.6321 284.732 69.2147 284.732 69.2147C284.732 69.2147 278.94 53.9556 282.31 47.3378C285.639 40.7242 290.295 42.0842 297.071 38.1907C303.888 34.2971 307.294 30.3662 311.612 36.1879Z" fill="#F68833"/>
<path d="M315.893 14.2067C315.893 14.2067 310.479 6.76392 321.875 1.39847C333.271 -3.96284 343.34 6.82197 345.497 21.2971C347.617 35.7722 334.101 36.7259 328.574 32.1399C323.007 27.5581 315.893 14.2067 315.893 14.2067Z" fill="#F68833"/>
</svg>
