<svg width="620" height="450" viewBox="0 0 620 450" fill="none" xmlns="http://www.w3.org/2000/svg">
<path d="M292.693 136.697H293.818V167.819H292.693V136.697Z" fill="#D3AEFE"/>
<path d="M293.305 178.532C289.935 178.532 287.277 175.778 287.277 172.512C287.277 169.248 290.036 166.492 293.305 166.492C296.678 166.492 299.333 169.248 299.333 172.512C299.333 175.778 296.574 178.532 293.305 178.532ZM293.305 167.513C290.546 167.513 288.301 169.756 288.301 172.512C288.301 175.268 290.546 177.511 293.305 177.511C296.064 177.511 298.313 175.268 298.313 172.512C298.209 169.756 295.963 167.513 293.305 167.513Z" fill="#D3AEFE"/>
<path d="M214.436 26.0825H372.176V148.226H214.436V26.0825Z" fill="#E9EEFF"/>
<path d="M374.629 152.819H211.881C209.837 152.819 208.102 151.083 208.102 149.042C208.102 147.004 209.837 145.268 211.881 145.268H374.629C376.673 145.268 378.408 147.004 378.408 149.042C378.408 151.187 376.774 152.819 374.629 152.819Z" fill="#BEC9FF"/>
<path d="M374.629 29.5533H211.881C209.837 29.5533 208.102 27.8178 208.102 25.7767C208.102 23.7355 209.837 22 211.881 22H374.629C376.673 22 378.408 23.7355 378.408 25.7767C378.408 27.8178 376.774 29.5533 374.629 29.5533Z" fill="#BEC9FF"/>
<path d="M380.656 66.7989C380.861 63.6335 379.838 60.8802 378.408 57.7148C378.102 57.1035 371.665 47.3071 370.95 49.7576C374.323 38.1247 357.568 26.1863 349.291 37.1042C347.861 38.9406 347.247 41.3884 347.043 43.7351C346.942 45.6753 346.737 49.3483 348.781 50.2679C349.392 50.5735 350.006 50.6745 350.62 50.8791C352.765 51.5941 354.604 53.1249 356.34 54.7567C357.158 55.4717 357.873 56.2876 358.487 57.2045C360.122 59.9606 358.384 62.9213 358.179 65.7783C358.078 67.8168 358.179 70.3682 359.303 72.1037C364.717 80.6748 375.649 80.9805 379.633 71.1841C380.146 69.656 380.552 68.2261 380.656 66.7989ZM380.962 58.225L380.861 58.3287L380.757 58.225C380.861 58.225 380.962 58.225 380.962 58.225Z" fill="#35324C"/>
<path d="M366.661 48.3274C366.661 48.693 366.596 49.045 366.465 49.3834C366.336 49.7191 366.151 50.0165 365.913 50.2757C365.673 50.535 365.398 50.7342 365.084 50.8733C364.77 51.0125 364.445 51.0835 364.107 51.0835C363.769 51.0835 363.441 51.0125 363.127 50.8733C362.816 50.7342 362.541 50.535 362.3 50.2757C362.06 50.0165 361.875 49.7191 361.746 49.3834C361.615 49.045 361.553 48.693 361.553 48.3274C361.553 47.9617 361.615 47.6097 361.746 47.2741C361.875 46.9357 362.06 46.6382 362.3 46.379C362.541 46.1225 362.816 45.9233 363.127 45.7814C363.441 45.6422 363.769 45.5713 364.107 45.5713C364.445 45.5713 364.77 45.6422 365.084 45.7814C365.398 45.9233 365.673 46.1225 365.913 46.379C366.151 46.6382 366.336 46.9357 366.465 47.2741C366.596 47.6097 366.661 47.9617 366.661 48.3274Z" fill="#FDC5B6"/>
<path d="M364.413 50.5733V63.5323C364.413 65.5735 362.983 67.41 361.043 67.7156C360.124 67.8165 359.305 67.6146 358.59 67.2053L349.498 62.9211C349.907 62.8174 350.314 62.8174 350.723 62.8174C352.562 62.6127 353.891 61.1856 354.3 59.3491C354.3 59.0435 354.401 58.8388 354.401 58.5332V56.492C354.096 56.492 353.787 56.492 353.482 56.3883C352.767 56.2874 352.052 56.0827 351.438 55.5724C349.907 54.3472 349.599 52.0004 349.394 49.9593C349.293 49.0424 349.293 43.7349 349.293 42.7144C350.723 43.8386 352.666 44.5536 354.401 44.8592C356.341 45.2658 358.795 45.4704 360.839 44.7555L364.413 50.5733Z" fill="#FDC5B6"/>
<path d="M365.027 49.4491C365.027 49.6183 364.967 49.763 364.847 49.883C364.727 50.0031 364.582 50.0631 364.413 50.0631C364.244 50.0631 364.099 50.0031 363.979 49.883C363.859 49.763 363.799 49.6183 363.799 49.4491C363.799 49.2827 363.859 49.1381 363.979 49.018C364.099 48.8979 364.244 48.8379 364.413 48.8379C364.582 48.8379 364.727 48.8979 364.847 49.018C364.967 49.1381 365.027 49.2827 365.027 49.4491Z" fill="white"/>
<path d="M257.856 35.7778C257.752 35.8788 257.752 35.8788 257.856 35.7778C257.752 35.8788 257.752 35.8788 257.752 35.8788L257.856 35.7778Z" fill="#FDC5B6"/>
<path d="M256.323 38.3262L261.022 43.5328C261.125 43.6338 261.125 43.6338 261.226 43.6338C261.33 43.6338 261.33 43.6338 261.431 43.5328C261.535 43.4291 261.535 43.2244 261.431 43.1235L256.527 37.715C256.323 37.5103 256.323 37.2047 256.527 37.0001C256.732 36.7981 257.038 36.7981 257.141 37.0001L262.25 42.1029C262.351 42.2039 262.351 42.2039 262.454 42.2039C262.555 42.2039 262.555 42.2039 262.659 42.1029C262.76 42.0019 262.76 41.7973 262.659 41.6963L257.652 36.6944C257.346 36.3888 257.346 35.9795 257.652 35.6739C257.856 35.5729 258.061 35.6739 258.266 35.7776L263.78 40.9814C263.884 41.0823 263.884 41.0823 263.985 41.0823C264.089 41.0823 264.089 41.0823 264.19 40.9814C264.293 40.8777 264.293 40.6757 264.19 40.572L258.776 35.4692C258.672 35.3682 258.776 35.1636 258.877 35.1636C259.286 35.1636 259.695 35.3682 260.001 35.5729C262.555 37.715 265.109 39.8571 267.663 42.0019C268.889 43.0225 270.218 44.4497 271.547 45.2656C271.852 45.4702 271.953 45.4702 272.158 45.5712C272.158 45.0636 272.261 44.6543 272.362 44.144C272.362 43.4291 272.362 42.6132 272.362 41.8982C272.362 41.0823 271.956 39.3468 272.671 38.7356C272.976 38.5309 273.181 38.5309 273.487 38.6346C274.202 38.9402 274.101 40.0618 274.305 40.6757C274.712 42.1029 275.225 43.6338 275.531 45.0636C275.735 46.0815 275.836 47.2057 275.735 48.2263C275.735 48.3273 275.735 48.431 275.735 48.5319L276.041 48.3273C278.289 54.7563 280.535 61.2863 282.683 67.7154C284.214 72.2042 285.848 76.7968 287.382 81.2884C287.892 82.9202 288.607 84.4511 289.016 86.0829C289.936 89.3493 288.607 90.7764 285.543 92.1026C283.602 92.9213 281.559 93.2269 279.414 93.5325C278.186 93.7372 276.86 93.8381 275.836 93.2269C274.816 92.6129 274.305 91.3904 273.896 90.2661C271.238 83.4305 269.912 76.0819 268.992 68.7359C268.277 63.0218 268.482 55.4713 265.109 50.5731C262.555 46.9001 259.592 43.4291 256.833 39.9608C256.426 39.3468 255.916 38.7356 255.916 38.0206C256.323 38.3262 256.118 38.3262 256.323 38.3262Z" fill="#FDC5B6"/>
<path d="M270.626 50.3684C270.317 48.6329 271.035 46.6955 272.361 45.7759L272.465 45.9805C271.136 46.9001 270.522 48.7366 270.83 50.2675L270.626 50.3684Z" fill="#171F3D"/>
<path d="M342.549 75.8798C341.629 77.5116 340.709 79.1434 339.79 80.6743V80.778C336.42 86.3884 332.638 91.7969 328.247 96.5941C327.939 96.8997 327.633 97.2053 327.327 97.6146C324.874 100.267 322.115 102.614 319.152 104.86C315.986 107.206 312.614 109.348 308.834 110.778C296.268 115.368 280.739 108.634 275.426 96.4904C274.711 94.7576 274.099 92.8174 274.2 90.9809C274.2 90.88 274.2 90.6753 274.2 90.5716C279.412 89.7557 284.316 87.2043 288.401 83.635C289.525 84.3472 290.546 85.0622 291.875 85.4715C310.979 92.4108 318.437 54.8572 337.236 56.8983C341.22 57.3076 344.898 60.1647 345.818 64.0423C346.636 68.1246 344.592 72.2041 342.549 75.8798Z" fill="#D3AEFE"/>
<path d="M339.69 80.778C336.317 86.3884 332.538 91.7969 328.144 96.5941C327.839 96.8998 327.53 97.2054 327.225 97.6147C327.225 96.5941 327.225 95.5736 327.225 94.4493C327.124 89.8595 321.606 61.7965 329.883 64.247C335.706 65.9798 338.462 73.4294 339.69 80.778Z" fill="#35324C"/>
<path d="M361.244 52.9199C361.244 52.9199 359.918 57.1032 354.299 59.2453C354.299 58.9396 354.4 58.735 354.4 58.4294V56.3882C354.094 56.3882 353.786 56.3882 353.48 56.2873C355.32 56.0826 359.304 55.2667 361.244 52.9199Z" fill="#35324C"/>
<path d="M276.959 370.882C277.06 369.861 277.265 368.942 277.879 368.229C278.083 367.921 278.389 367.616 278.594 367.411C278.694 367.31 278.798 367.209 279.003 367.004C279.308 366.699 279.718 366.39 280.127 366.188C284.007 363.842 290.035 360.065 290.035 360.065L296.983 308.431C299.128 308.739 301.275 309.045 303.316 309.451C309.243 310.78 315.067 312.513 320.584 314.759L309.344 365.168C309.344 365.779 309.344 366.393 309.344 367.004V367.411C309.344 367.719 309.344 368.126 309.344 368.431C309.344 369.351 309.344 370.066 309.344 370.983V371.087C309.344 371.188 309.344 371.188 309.344 371.288H276.959C276.959 371.087 276.959 371.087 276.959 370.882C276.959 370.983 276.959 370.882 276.959 370.882Z" fill="#FDC5B6"/>
<path d="M276.959 370.983C277.06 369.963 277.265 369.046 277.879 368.23C278.083 367.921 278.389 367.616 278.594 367.411H309.344C309.344 367.719 309.344 368.126 309.344 368.432C309.344 369.351 309.344 370.066 309.344 371.087C309.344 371.188 309.344 371.188 309.344 371.289H276.959C276.959 371.087 276.959 371.087 276.959 370.983Z" fill="#15203D"/>
<path d="M400.782 371.187H370.337C370.337 371.087 370.337 371.087 370.337 370.983V370.882C370.44 369.962 370.44 369.25 370.541 368.431C370.541 368.126 370.645 367.82 370.645 367.515V367.209C370.746 366.595 370.746 365.984 370.85 365.372L366.047 318.841L365.741 315.474L365.638 314.453L365.433 312.308L365.332 311.086L364.617 303.841H391.384L391.179 309.146L389.648 360.474C389.648 360.575 394.959 364.043 398.432 366.289C398.842 366.494 399.147 366.8 399.352 367.105C399.456 367.209 399.557 367.31 399.66 367.411C399.862 367.719 400.067 367.921 400.272 368.229C400.782 368.942 400.886 369.861 400.886 370.778C400.886 370.778 400.886 370.778 400.886 370.882C400.782 371.087 400.782 371.087 400.782 371.187Z" fill="#FDC5B6"/>
<path d="M400.781 370.983C400.781 369.962 400.68 369.146 400.17 368.331C399.965 368.025 399.761 367.82 399.556 367.515H370.644C370.644 367.82 370.541 368.126 370.541 368.432C370.44 369.25 370.44 369.962 370.336 370.983C370.336 371.087 370.336 371.087 370.336 371.188H400.781C400.781 371.087 400.781 371.087 400.781 370.983Z" fill="#15203D"/>
<path d="M378.818 114.146C377.079 113.431 375.139 112.716 373.095 112.206C361.348 109.043 348.168 109.96 337.646 115.472C335.907 116.389 334.273 117.41 332.742 118.531C307.814 137.103 309.654 183.43 306.281 209.962C301.276 248.534 296.984 287.105 293.305 325.781C293.204 326.596 293.204 327.412 293.919 328.127C294.839 328.943 296.474 329.044 297.903 329.148C304.442 329.35 310.06 331.085 316.598 330.37C317.518 330.269 318.541 330.166 319.357 329.759L356.545 179.452L361.553 265.065C361.553 269.859 361.654 274.247 362.063 278.229C363.493 291.188 363.288 304.147 364.718 317.005C365.127 320.779 365.433 324.555 365.946 328.329C366.148 330.065 366.456 331.186 367.171 331.901L367.272 333.432L367.477 332.311C368.396 333.025 369.725 333.432 371.974 333.942C378.408 335.372 385.356 335.372 391.793 334.147C396.901 333.227 401.701 207.411 401.396 195.268C400.782 169.451 409.978 127.307 378.818 114.146Z" fill="#FF7382"/>
<path d="M357.67 199.35L358.284 162.004L344.389 144.452L354.502 163.022L355.421 183.635L357.67 199.35Z" fill="#35324C"/>
<path d="M343.06 114.146C347.964 116.389 361.553 116.899 364.208 117.003C364.617 117.003 365.027 117.003 365.433 117.205C365.946 117.409 366.252 117.92 366.558 118.43C367.785 120.37 372.689 127.615 374.629 128.941C376.469 130.268 376.163 126.796 378.613 126.39C378.717 125.369 376.774 117.614 375.445 112.105C374.119 111.491 372.585 110.98 371.055 110.47C363.493 108.328 353.89 108.429 346.023 108.429C343.57 108.429 340.609 110.369 341.529 112.615C341.529 113.226 342.14 113.736 343.06 114.146Z" fill="#35324C"/>
<path d="M396.083 65.0632C398.536 71.0829 392.202 77.2063 390.363 82.5111C389.444 84.9616 388.83 87.4093 388.524 89.8598C388.42 90.6757 388.319 91.4916 388.216 92.4112C387.91 95.2682 387.809 98.2263 387.91 101.184C387.91 101.493 387.91 101.798 387.91 102.104C387.91 102.41 387.91 102.715 388.014 103.023C388.014 103.023 388.014 103.023 387.91 103.023C385.866 103.839 384.027 104.961 382.496 106.492C381.882 106.901 381.271 107.308 380.657 107.717C379.634 108.124 378.613 108.533 377.489 108.94C375.65 109.553 373.81 110.064 371.87 110.574C365.741 111.797 359.61 112.512 353.38 112.411C349.292 112.105 345.308 111.39 341.425 110.369C338.871 109.45 336.317 108.429 333.967 107.207C334.172 106.287 334.273 105.471 334.477 104.552C334.477 104.35 334.581 104.145 334.581 104.041C334.682 103.534 334.682 102.92 334.786 102.41C334.786 102.309 334.786 102.104 334.786 102.003C334.786 101.798 334.786 101.594 334.786 101.389C334.786 101.288 334.786 101.083 334.786 100.982C334.786 100.879 334.786 100.674 334.786 100.573C334.786 100.368 334.786 100.166 334.786 99.9618C334.786 98.8375 334.786 97.716 334.786 96.5944C334.477 89.6551 333.356 82.7158 331.107 76.1858C333.252 73.0231 335.602 69.9614 338.055 66.8997C340.301 64.1436 342.345 61.0819 344.899 58.5332C347.352 62.0015 356.444 63.5324 360.428 63.737C362.778 63.838 365.026 63.5324 367.272 63.123C369.521 62.8174 371.769 62.5118 373.914 62.0015C380.553 60.5716 387.296 57.2043 393.428 62.0015C394.244 62.6128 395.062 63.4314 395.572 64.3483C395.777 64.4492 395.878 64.7576 396.083 65.0632Z" fill="#E9EEFF"/>
<path d="M352.051 84.6558C351.541 89.8596 350.722 95.0634 349.702 100.166C348.678 105.37 347.352 110.47 345.922 115.472C345.003 118.531 344.285 121.696 343.368 124.758C342.14 128.941 341.425 132.003 336.522 130.472C333.763 129.553 322.116 127.512 323.14 124.144C323.342 123.634 324.774 122.308 325.181 121.696C325.795 120.676 326.305 119.451 326.714 118.329C327.735 115.879 328.655 113.431 329.269 110.779C331.924 100.674 331.823 89.6549 328.554 79.7576C327.429 76.2866 325.896 72.9192 325.385 69.2463C324.261 60.8798 329.779 56.2872 337.34 56.6938C340.506 56.8985 343.674 57.9191 346.637 59.2453C348.474 60.0612 350.417 61.0817 351.642 62.8172C352.971 64.8584 352.971 67.4098 352.867 69.8575C352.867 74.8594 352.562 79.7576 352.051 84.6558Z" fill="#D3AEFE"/>
<path d="M394.754 80.0631C396.697 76.7968 399.66 74.7556 400.067 70.5724C400.375 66.8994 398.842 63.1228 396.187 60.8797C391.589 57.1031 375.445 55.6759 369.112 60.5714C368.907 60.675 368.702 60.8797 368.601 60.9807C361.553 68.9406 364.003 85.6735 365.433 95.4699C367.376 108.737 371.769 121.696 378.409 133.125C378.512 133.226 401.295 128.532 396.083 118.736C395.777 118.225 395.573 117.819 395.368 117.308C395.267 117.003 395.062 116.694 394.959 116.389C391.69 109.349 390.363 101.492 391.078 93.8381C391.384 89.2455 392.405 84.0417 394.754 80.0631Z" fill="#D3AEFE"/>
<path d="M353.071 50.2675L353.276 49.7572L352.46 49.3479L353.276 45.8796L352.765 45.7759L351.846 49.7572L353.071 50.2675Z" fill="#171F3D"/>
<path d="M354.809 52.5107C354.91 52.5107 355.115 52.5107 355.216 52.4097C355.729 52.205 356.135 51.7984 356.135 51.1845L355.524 51.0835C355.42 51.3891 355.216 51.6947 355.014 51.7984C354.705 51.8994 354.195 51.7984 353.685 51.2882L353.275 51.6947C353.786 52.205 354.299 52.5107 354.809 52.5107Z" fill="#171F3D"/>
<path d="M350.927 47.2061C350.621 47.1024 350.518 46.9005 350.518 46.5921C350.621 46.2865 350.826 46.1855 351.132 46.1855C351.437 46.2865 351.541 46.4912 351.541 46.7968C351.437 47.1024 351.132 47.3071 350.927 47.2061Z" fill="#171F3D"/>
<path d="M356.546 48.1226C356.24 48.0217 356.137 47.817 356.137 47.5114C356.24 47.2057 356.445 47.1021 356.751 47.1021C357.056 47.2057 357.16 47.4104 357.16 47.716C357.056 48.0217 356.751 48.2263 356.546 48.1226Z" fill="#171F3D"/>
<path d="M433.376 94.5533C433.886 97.5113 432.966 100.573 431.638 103.124C430.309 105.676 428.674 107.919 426.835 110.064C422.24 115.472 417.028 120.062 411.308 123.738C408.959 125.269 392.509 135.166 393.53 125.269C393.735 123.738 394.654 122.613 395.675 121.492C401.091 115.573 406.2 109.45 411.103 103.023C413.554 99.7571 415.903 96.4907 418.253 93.1234C420.297 90.1654 421.115 87.8186 424.589 87.4093C428.368 87.0027 432.352 89.7561 433.272 94.043C433.272 94.2477 433.272 94.4496 433.376 94.5533Z" fill="#FDC5B6"/>
<path d="M376.877 123.227C379.736 122.409 382.801 122.207 385.764 122.409C385.969 122.409 386.07 122.308 386.07 122.207C386.07 122.103 385.969 121.901 385.764 121.901C382.905 121.697 379.941 121.901 377.182 122.613C376.978 122.717 376.773 122.409 376.877 122.207C377.182 121.901 378.102 121.492 378.511 121.391C381.27 120.471 384.435 120.062 387.5 120.062C388.42 120.062 389.339 120.062 390.158 120.166C393.632 120.471 402.416 121.593 402.214 126.39C402.11 129.146 399.045 131.389 396.39 130.778C392.404 129.962 388.523 127.817 384.539 126.797H384.435C383.21 126.491 381.985 126.39 380.757 126.39C379.941 126.39 378.817 126.696 377.998 126.286C377.796 126.185 377.897 125.88 378.102 125.88C380.451 125.574 383.21 125.37 385.456 125.776C385.56 125.776 385.764 125.675 385.764 125.574C385.764 125.47 385.661 125.269 385.56 125.269C383.006 124.758 379.941 125.064 377.387 125.47C377.283 125.47 377.182 125.47 377.079 125.37C376.978 125.269 376.877 125.064 376.877 124.96C376.773 124.859 376.877 124.655 377.079 124.655C379.633 124.144 382.392 123.94 385.661 124.248C385.865 124.248 385.969 124.144 385.969 124.043C385.969 123.94 385.865 123.738 385.661 123.738C382.291 123.429 379.431 123.634 376.877 124.144C376.773 124.144 376.568 124.043 376.568 123.94C376.568 123.839 376.568 123.738 376.568 123.634C376.672 123.328 376.773 123.227 376.877 123.227Z" fill="#FDC5B6"/>
<path d="M413.145 95.9804C412.941 95.7784 413.656 95.8794 413.145 95.9804V95.9804Z" fill="#D3AEFE"/>
<path d="M433.68 92.2067C432.455 85.472 428.571 81.7991 423.973 77.2065C414.881 68.0214 403.95 60.8801 391.588 58.4297C389.034 57.9194 386.376 57.6137 383.721 58.0231C381.167 58.5334 378.613 59.8595 377.079 62.1026C374.525 65.9802 375.753 71.5934 378.716 75.1654C381.677 78.7374 385.866 80.7785 390.055 82.615C398.227 86.3889 408.343 88.9403 414.881 95.574C412.021 98.9413 423.36 100.674 425.098 100.982C427.243 101.288 429.592 101.389 431.33 100.063C433.781 98.532 434.19 95.1647 433.68 92.2067Z" fill="#D3AEFE"/>
<path d="M111.861 134.35L113.905 136.593C115.439 138.328 118.094 138.429 119.829 136.797L121.772 134.961L122.078 134.655L124.736 132.003L126.676 130.063L120.954 125.064L119.423 123.737L118.912 123.328L112.475 128.431C110.532 129.858 110.33 132.614 111.861 134.35Z" fill="#A0616B"/>
<path d="M121.465 133.94C121.569 134.145 121.774 134.35 121.978 134.552L124.633 131.899L126.574 129.962L120.854 124.96C120.649 125.268 120.445 125.574 120.344 125.981C119.73 127.921 120.548 132.41 121.465 133.94Z" fill="#35324C"/>
<path d="M111.762 118.84C110.637 116.084 111.762 112.411 114.417 110.981C116.155 110.064 118.401 109.96 120.139 108.94C121.364 108.227 122.183 107.002 123.408 106.391C125.247 105.572 127.597 106.287 128.617 107.919C129.027 108.533 129.231 109.248 129.537 109.758C130.457 111.084 132.296 111.595 133.521 112.716C141.388 120.471 119.525 127.411 114.417 125.675C114.007 125.574 113.601 125.37 113.396 125.064C112.886 124.248 113.601 123.227 113.601 122.207C113.601 121.287 112.782 120.572 112.272 119.86C112.171 119.656 111.966 119.246 111.762 118.84Z" fill="#15203D"/>
<path d="M133.52 123.939C133.52 123.023 133.419 122.207 133.315 121.287C132.805 118.531 130.761 116.184 128.207 115.164C127.902 115.573 127.697 115.879 127.391 116.288C125.552 118.43 122.283 119.35 121.363 122.002C120.749 123.737 121.568 128.327 122.488 129.757C125.042 133.635 130.559 132.819 132.6 129.042C133.52 127.511 133.624 125.776 133.52 123.939Z" fill="#A0616B"/>
<path d="M123.304 125.064C123.304 125.25 123.287 125.438 123.249 125.621C123.213 125.804 123.159 125.984 123.088 126.156C123.014 126.33 122.927 126.494 122.823 126.65C122.717 126.808 122.6 126.95 122.466 127.083C122.335 127.217 122.19 127.334 122.032 127.438C121.876 127.545 121.713 127.632 121.538 127.703C121.366 127.774 121.186 127.828 121.003 127.867C120.818 127.902 120.632 127.921 120.444 127.921C120.255 127.921 120.07 127.902 119.887 127.867C119.702 127.828 119.524 127.774 119.35 127.703C119.175 127.632 119.011 127.545 118.856 127.438C118.697 127.334 118.555 127.217 118.422 127.083C118.288 126.95 118.171 126.808 118.064 126.65C117.961 126.494 117.873 126.33 117.802 126.156C117.729 125.984 117.674 125.804 117.639 125.621C117.603 125.438 117.584 125.25 117.584 125.064C117.584 124.876 117.603 124.69 117.639 124.505C117.674 124.322 117.729 124.144 117.802 123.97C117.873 123.798 117.961 123.631 118.064 123.476C118.171 123.32 118.288 123.176 118.422 123.042C118.555 122.911 118.697 122.791 118.856 122.687C119.011 122.584 119.175 122.496 119.35 122.423C119.524 122.352 119.702 122.297 119.887 122.262C120.07 122.223 120.255 122.207 120.444 122.207C120.632 122.207 120.818 122.223 121.003 122.262C121.186 122.297 121.366 122.352 121.538 122.423C121.713 122.496 121.876 122.584 122.032 122.687C122.19 122.791 122.335 122.911 122.466 123.042C122.6 123.176 122.717 123.32 122.823 123.476C122.927 123.631 123.014 123.798 123.088 123.97C123.159 124.144 123.213 124.322 123.249 124.505C123.287 124.69 123.304 124.876 123.304 125.064Z" fill="#A0616B"/>
<path d="M128.822 127.411C127.493 127.411 126.371 125.37 126.371 122.818C126.371 120.267 127.392 118.226 128.822 118.226C130.15 118.226 131.275 120.267 131.275 122.818C131.275 125.37 130.15 127.411 128.822 127.411ZM128.822 118.941C128.006 118.941 127.086 120.572 127.086 122.818C127.086 125.165 128.006 126.696 128.822 126.696C129.64 126.696 130.56 125.064 130.56 122.818C130.661 120.572 129.64 118.941 128.822 118.941Z" fill="#E8F1F9"/>
<path d="M134.545 127.411C133.216 127.411 132.092 125.37 132.092 122.818C132.092 120.267 133.115 118.226 134.545 118.226C135.871 118.226 136.995 120.267 136.995 122.818C136.894 125.37 135.871 127.411 134.545 127.411ZM134.545 118.941C133.726 118.941 132.807 120.572 132.807 122.818C132.807 125.165 133.726 126.696 134.545 126.696C135.361 126.696 136.28 125.064 136.28 122.818C136.28 120.572 135.361 118.941 134.545 118.941Z" fill="#E8F1F9"/>
<path d="M517.045 353.74L506.113 330.166L515.309 349.963L517.045 353.74Z" fill="#423FAD"/>
<path d="M506.113 330.165L489.461 344.86C486.394 341.288 482.615 337.004 478.631 332.411C474.546 327.718 470.152 322.719 465.759 317.717C451.25 301.085 437.049 284.963 435.824 284.043L453.804 252.717L456.972 254.043L465.759 257.615L473.932 260.982L477.507 268.738L478.631 269.553V271.188L506.113 330.165Z" fill="#423FAD"/>
<path d="M465.759 257.514V317.616C451.25 300.984 437.049 284.859 435.824 283.942L453.804 252.616L456.972 253.942L465.759 257.514Z" fill="#36314C"/>
<path d="M515.309 349.963L506.113 330.064L489.462 344.759C494.671 350.779 498.044 354.656 498.044 354.656L496 363.432L488.848 367.004V367.514H503.458L515.309 349.963Z" fill="#E9EEFF"/>
<path d="M515.309 349.963L503.458 367.515H488.848V370.167L504.787 371.187L517.044 353.74L515.309 349.963Z" fill="#423FAD"/>
<path d="M173.774 209.656C171.833 210.677 169.585 210.677 167.544 209.757L142.002 197.819C136.689 195.573 131.48 193.125 126.167 191.084C119.629 188.533 98.4807 186.492 97.0508 176.9C98.1723 184.145 99.0919 191.289 99.6022 199.044C100.115 208.431 101.136 215.065 103.791 219.453L188.894 223.636C189.609 223.126 190.326 222.512 190.938 221.799C190.122 220.269 189.303 218.942 188.384 217.717C185.218 213.736 181.13 211.288 176.737 209.553C175.716 209.146 174.693 209.247 173.774 209.656Z" fill="#35324C"/>
<path d="M72.8352 244.451C61.0878 176.084 77.9435 147.514 93.3722 135.572C103.589 127.615 113.191 127.105 113.191 127.105C129.332 156.797 124.123 147.615 128.721 167.718C132.601 184.451 136.179 256.289 136.179 256.289H72.7343L72.8352 244.451Z" fill="#FFCC8A"/>
<path d="M194.003 283.738L189.099 305.268L186.954 314.759L186.138 317.717L184.706 323.84L179.292 347.311L178.678 350.064H154.773L155.079 347.922V347.311L161.516 274.861L161.617 272.716L163.047 256.799L194.003 283.738Z" fill="#423FAD"/>
<path d="M196.148 365.064C196.045 364.862 195.944 364.658 195.84 364.554L195.739 364.453C195.635 364.352 195.534 364.147 195.431 364.044L195.33 363.943C195.229 363.842 195.125 363.637 194.92 363.533C194.92 363.533 194.92 363.432 194.819 363.432C194.716 363.228 194.514 363.127 194.309 362.922L194.206 362.821C194.105 362.717 193.9 362.616 193.796 362.515C193.695 362.515 193.695 362.412 193.594 362.412C193.491 362.311 193.39 362.207 193.286 362.207C193.185 362.207 193.185 362.106 193.081 362.106C192.98 362.005 192.776 362.005 192.675 361.901C192.571 361.901 192.571 361.801 192.47 361.801C192.265 361.697 192.061 361.596 191.856 361.495L187.053 359.759L184.194 363.331L182.865 362.311L185.419 359.145L182.968 358.229L180.005 361.901L178.676 360.881L181.23 357.617L177.145 356.187L178.575 350.064H159.675L157.732 365.064H196.148Z" fill="#FF7382"/>
<path d="M196.966 368.636C196.966 368.431 196.966 368.229 196.966 368.126C196.966 368.025 196.966 368.025 196.966 367.921C196.966 367.82 196.966 367.615 196.966 367.514C196.966 367.411 196.966 367.411 196.966 367.31C196.966 367.209 196.966 367.004 196.865 366.9V366.799C196.865 366.595 196.762 366.494 196.762 366.289C196.762 366.188 196.762 366.188 196.661 366.085C196.661 365.984 196.557 365.883 196.557 365.779C196.557 365.678 196.456 365.678 196.456 365.574C196.456 365.473 196.352 365.372 196.352 365.269C196.352 365.168 196.251 365.064 196.251 365.064H157.939L157.123 371.187H197.171V368.636H196.966Z" fill="#E7F0F8"/>
<path d="M180.006 361.901L182.97 358.229L184.504 356.392L183.175 355.271L181.335 357.617L178.781 360.881L180.006 361.901Z" fill="#E7F0F8"/>
<path d="M184.194 363.331L187.157 359.656L188.691 357.718L187.362 356.698L185.419 359.145L182.969 362.207L184.194 363.331Z" fill="#E7F0F8"/>
<path d="M194.002 283.738L189.098 305.268L186.953 314.759L186.138 317.717L184.705 323.84L161.617 274.962L161.516 274.861L161.617 272.716L163.046 256.799L194.002 283.738Z" fill="#36314C"/>
<path d="M206.365 224.962V224.858L232.417 165.676C229.454 164.35 225.98 165.777 224.651 168.738L202.788 220.064H146.291V224.962H206.365Z" fill="#36314C"/>
<path d="M263.984 365.678L263.883 365.574C263.883 365.473 263.779 365.473 263.779 365.372C263.678 365.168 263.574 365.064 263.474 364.862L263.373 364.758C263.269 364.657 263.168 364.453 262.963 364.352L262.86 364.248C262.658 364.147 262.554 363.942 262.349 363.841C262.349 363.841 262.349 363.841 262.248 363.841C262.044 363.738 261.94 363.637 261.738 363.533C261.634 363.533 261.634 363.432 261.533 363.432C261.329 363.331 261.124 363.227 260.919 363.127L252.032 359.656L249.887 362.311L248.558 361.186L250.397 358.943L247.944 358.024L245.698 360.881L244.369 359.759L246.309 357.309L241.201 355.268L239.567 350.167H218.623L224.856 365.678H263.984Z" fill="#FF7382"/>
<path d="M227 371.187H265.007L264.494 367.514C264.494 367.31 264.393 367.105 264.393 366.799C264.393 366.698 264.393 366.698 264.393 366.595C264.292 366.39 264.292 366.188 264.188 365.984V365.883C264.087 365.779 264.087 365.678 263.984 365.574H224.855L227 371.187Z" fill="#E7F0F8"/>
<path d="M245.595 360.78L247.944 357.923L250.193 354.962L248.864 353.941L246.209 357.208L244.266 359.656L245.595 360.78Z" fill="#E7F0F8"/>
<path d="M249.888 362.207L252.032 359.454L254.483 356.392L253.157 355.372L250.398 358.84L248.559 361.086L249.888 362.207Z" fill="#E7F0F8"/>
<path d="M238.547 347.207L204.729 239.043C203.403 235.88 201.359 233.228 198.704 231.288C196.046 229.35 192.88 228.125 189.508 227.82L127.902 227.41V222.921H69.6699V244.962C69.6699 259.351 81.4174 270.88 95.7217 270.779C107.265 270.678 121.059 270.574 133.726 270.678C135.055 270.678 136.28 270.574 137.609 270.37C137.813 270.37 138.018 270.37 138.324 270.37H176.942C178.271 270.37 179.496 271.289 179.905 272.515L192.88 303.942L210.757 347.311L211.985 350.168H239.363L238.547 347.207Z" fill="#6575EA"/>
<path d="M149.561 370.882L134.749 277.819L129.846 275.472L146.906 371.187L149.561 370.882Z" fill="#35324C"/>
<path d="M64.6621 370.882L79.4767 277.819L84.3804 275.472L67.32 371.187L64.6621 370.882Z" fill="#35324C"/>
<path d="M138.017 322.719L78.5566 286.289L79.0669 285.678L138.527 322.209L138.017 322.719Z" fill="#35324C"/>
<path d="M74.9818 322.413L74.4688 321.799L134.95 286.39L135.463 287.004L74.9818 322.413Z" fill="#35324C"/>
<path d="M146.802 270.168H75.5941L53.2207 185.166C52.6067 182.92 50.3609 181.594 48.1124 182.208C45.8638 182.819 44.5376 185.065 45.1489 187.308C45.1489 187.308 68.1363 274.452 68.24 274.657C69.6698 280.166 72.1203 278.534 77.9436 278.534H146.906C149.255 278.534 151.094 276.698 151.094 274.351C151.094 272.004 149.154 270.168 146.802 270.168Z" fill="#FFCC8A"/>
<path d="M136.689 49.6537C136.586 36.5937 125.962 25.9814 112.886 25.9814C99.807 25.9814 89.0801 36.5937 89.0801 49.7574C89.0801 62.8175 99.6023 73.4297 112.681 73.4297H112.987C125.859 73.3288 136.384 62.9211 136.586 49.9594H136.689V49.6537ZM112.987 69.5521V65.7782H112.681V69.5521C101.851 69.4512 93.0641 60.7763 92.9632 49.9594H96.8462V49.6537H92.9632C92.9632 38.7358 101.851 29.8591 112.782 29.7554V34.5526H113.088V29.7554C123.919 29.8591 132.806 38.7358 132.806 49.6537H129.128V49.9594H132.806C132.602 60.7763 123.818 69.4512 112.987 69.5521Z" fill="#BCCBFF"/>
<path d="M111.658 36.6943H114.008V48.0216H111.658V36.6943Z" fill="#BCCBFF"/>
<path d="M112.711 52.2485L114.373 50.5894L122.39 58.5984L120.728 60.2575L112.711 52.2485Z" fill="#BCCBFF"/>
<path d="M508.258 197.309C503.968 199.554 452.885 207.512 452.885 207.512C452.885 207.512 448.391 217.002 451.15 216.901C453.908 216.798 472.399 221.085 475.772 221.595C479.142 222.105 501.619 217.614 501.619 217.614L515.309 215.575L508.258 197.309Z" fill="#35324C"/>
<path d="M515.718 132.513C526.955 134.961 570.067 151.187 553.108 256.493V268.942H490.277C490.277 268.942 493.855 192.82 497.735 175.064C502.232 154.248 497.43 163.125 512.14 134.042C512.754 132.819 514.285 132.205 515.718 132.513Z" fill="#E9EEFF"/>
<path d="M556.073 225.983V242.514C556.073 260.677 541.053 275.472 522.462 275.677L453.5 276.392L409.774 347.821L402.417 359.759L400.58 367.616L399.762 371.289H365.434L365.128 367.82C365.128 367.719 365.128 367.719 365.128 367.616C365.027 365.984 366.048 364.554 367.581 363.943L385.867 356.597L388.525 347.821L418.05 248.023C420.705 239.147 428.368 232.614 437.665 231.288C464.533 227.41 514.186 225.369 521.744 225.167H520.623H522.768C522.768 225.167 522.462 225.167 521.744 225.167L556.073 225.983Z" fill="#1EB3FB"/>
<path d="M489.358 225.369H426.018L402.725 161.799C405.89 160.675 409.467 162.309 410.592 165.472L430.307 219.248H489.257V225.369H489.358Z" fill="#36314C"/>
<path d="M563.735 370.882L548.615 275.778L543.711 273.33L561.181 371.187L563.735 370.882Z" fill="#35324C"/>
<path d="M478.938 370.882L493.651 277.819L498.656 275.472L481.492 371.187L478.938 370.882Z" fill="#35324C"/>
<path d="M552.292 322.719L492.73 286.289L493.241 285.678L552.701 322.209L552.292 322.719Z" fill="#35324C"/>
<path d="M489.155 322.413L488.748 321.799L549.229 286.39L549.739 287.004L489.155 322.413Z" fill="#35324C"/>
<path d="M540.747 278.534C543.2 278.534 545.65 278.125 547.899 277.208C555.357 274.351 561.384 268.637 564.348 261.288C569.967 247.208 576.3 226.799 574.767 209.147C574.565 206.491 570.578 206.085 569.658 208.636C564.959 222.106 553.618 243.84 530.325 243.84C520.826 243.84 513.47 244.962 507.851 246.594C497.02 249.655 489.767 259.146 489.868 269.758L489.972 278.635L540.747 278.534Z" fill="#FFCC8A"/>
<path d="M409.875 347.717L402.521 359.656L400.682 367.515L399.863 371.188H365.537L365.232 367.719C365.232 367.616 365.232 367.616 365.232 367.515C365.128 365.883 366.149 364.453 367.682 363.842L385.971 356.493L388.626 347.717H409.875Z" fill="#E9EEFF"/>
<path d="M400.68 367.515L399.862 371.188H365.536L365.23 367.719C365.23 367.616 365.23 367.616 365.23 367.515H400.68Z" fill="#423FAD"/>
<path d="M543.098 226.288C541.158 228.226 538.399 229.451 534.824 229.656C509.487 230.676 485.785 221.696 460.958 221.289C460.958 221.289 461.368 221.289 461.469 221.289C456.974 220.981 451.661 217.922 446.758 217.412C442.774 217.002 439.199 217.922 435.52 218.738C434.806 218.943 434.292 217.922 434.906 217.412C435.111 217.308 435.111 217.103 435.212 216.901C435.212 215.881 435.52 214.86 435.927 213.941V213.84L436.746 209.962C436.847 209.757 436.95 209.553 437.256 209.452C445.328 206.491 449.617 205.473 457.485 208.942C458.404 209.351 459.528 209.553 460.549 209.452L514.8 205.473C515.207 205.473 515.411 205.165 515.515 204.758C515.72 201.186 516.126 196.594 516.639 191.799C518.17 175.473 520.724 155.266 521.95 152.409C525.219 144.553 531.35 142.615 537.989 150.062C544.326 157.307 546.162 167.409 547.286 176.084C547.9 180.778 548.206 186.085 548.206 191.799C548.31 201.391 550.556 218.943 543.098 226.288Z" fill="#FDC5B6"/>
<path d="M548.205 191.696H516.639C518.17 175.369 520.724 155.165 521.949 152.308C525.218 144.452 531.35 142.512 537.989 149.961C544.325 157.206 546.162 167.308 547.286 175.983C547.9 180.677 548.205 186.085 548.205 191.696Z" fill="#E9EEFF"/>
<path d="M157.633 229.146H162.842V371.187H157.633V229.146Z" fill="#BCCBFF"/>
<path d="M110.127 225.473H496.715V229.757H110.127V225.473Z" fill="#BCCBFF"/>
<path d="M457.482 229.146H462.694V371.187H457.482V229.146Z" fill="#BCCBFF"/>
<path d="M89.1833 224.858C90.3076 226.084 91.6338 227.003 93.1673 227.615C96.4364 228.84 100.115 228.736 103.589 228.43C116.561 227.514 121.159 227.41 133.93 225.778C143.328 224.553 161.616 219.554 171.118 219.349C171.118 219.349 170.709 219.349 170.608 219.349C175.102 219.043 180.415 215.881 185.319 215.37C189.303 214.961 192.88 215.881 196.556 216.697C197.271 216.901 197.784 215.881 197.17 215.37C196.965 215.267 196.965 215.065 196.864 214.86C196.864 213.84 196.556 212.718 196.149 211.798V211.697L195.331 207.716C195.23 207.411 195.126 207.206 194.82 207.105L182.664 203.023C182.459 202.922 182.254 203.023 182.151 203.023L174.592 206.491C173.672 206.9 172.548 207.105 171.527 207.001L117.276 202.922C116.87 202.922 116.665 202.613 116.561 202.207C116.359 198.43 115.95 193.737 115.44 188.634C113.906 171.696 111.352 150.572 110.127 147.614C106.858 139.45 100.726 137.409 94.0869 145.164C87.7534 152.717 85.9142 163.226 84.7899 172.307C84.176 177.206 83.8703 182.718 83.8703 188.634C83.9713 197.513 81.7255 216.901 89.1833 224.858Z" fill="#A0616B"/>
<path d="M115.951 188.533C114.316 171.085 111.863 150.472 110.638 147.41C108.9 143.022 106.346 140.471 103.385 139.96C100.421 139.45 97.1523 141.186 94.0879 144.859C87.7543 152.409 85.9151 162.921 84.6872 172.106C84.0759 176.799 83.7676 182.208 83.7676 188.432V188.738H116.052L115.951 188.533Z" fill="#FFCC8A"/>
<path d="M519.599 139.248L517.555 141.491C515.92 143.227 513.164 143.328 511.53 141.696L509.587 139.759L509.281 139.45L508.463 138.738L506.522 136.798L504.479 134.86L510.097 130.063L510.405 129.757L511.936 128.431L512.449 128.022L519.088 133.226C521.029 134.656 521.337 137.513 519.599 139.248Z" fill="#FDC5B6"/>
<path d="M508.463 138.738L506.522 136.798L504.479 134.86L510.097 130.063C510.302 132.715 509.486 136.697 508.463 138.738Z" fill="#35324C"/>
<path d="M517.965 123.634C517.965 122.207 517.76 120.881 517.25 119.552C515.921 116.184 512.245 114.553 508.771 114.247C506.523 114.042 504.07 114.348 502.028 115.063C499.474 115.982 499.474 116.695 499.371 119.246C499.27 123.328 499.78 126.595 503.663 128.838C507.033 130.778 511.53 131.594 515.206 129.858C516.229 129.348 517.149 128.737 517.555 127.716C517.864 127.001 517.965 126.185 517.965 125.37C517.965 124.758 517.965 124.144 517.965 123.634Z" fill="#36314C"/>
<path d="M497.43 128.532C497.43 127.615 497.531 126.696 497.634 125.776C498.246 123.023 497.225 118.024 499.88 116.899C500.189 117.309 503.458 120.267 503.763 120.572C505.603 122.818 508.975 123.738 509.895 126.491C510.506 128.328 509.69 132.92 508.667 134.451C506.113 138.43 500.393 137.614 498.246 133.736C497.43 132.309 497.326 130.369 497.43 128.532Z" fill="#FDC5B6"/>
<path d="M513.776 128.328C513.776 128.524 513.757 128.715 513.718 128.906C513.68 129.097 513.626 129.283 513.552 129.46C513.476 129.64 513.386 129.812 513.276 129.973C513.17 130.134 513.047 130.284 512.908 130.421C512.772 130.56 512.621 130.68 512.46 130.789C512.297 130.898 512.128 130.988 511.947 131.062C511.767 131.136 511.582 131.193 511.391 131.231C511.2 131.269 511.009 131.288 510.812 131.288C510.619 131.288 510.428 131.269 510.237 131.231C510.046 131.193 509.86 131.136 509.68 131.062C509.5 130.988 509.331 130.898 509.167 130.789C509.006 130.68 508.856 130.56 508.719 130.421C508.58 130.284 508.457 130.134 508.351 129.973C508.242 129.812 508.152 129.64 508.075 129.46C508.002 129.283 507.944 129.097 507.909 128.906C507.871 128.715 507.852 128.524 507.852 128.328C507.852 128.134 507.871 127.943 507.909 127.752C507.944 127.561 508.002 127.375 508.075 127.195C508.152 127.018 508.242 126.846 508.351 126.685C508.457 126.524 508.58 126.374 508.719 126.237C508.856 126.098 509.006 125.975 509.167 125.869C509.331 125.76 509.5 125.67 509.68 125.593C509.86 125.52 510.046 125.465 510.237 125.427C510.428 125.389 510.619 125.37 510.812 125.37C511.009 125.37 511.2 125.389 511.391 125.427C511.582 125.465 511.767 125.52 511.947 125.593C512.128 125.67 512.297 125.76 512.46 125.869C512.621 125.975 512.772 126.098 512.908 126.237C513.047 126.374 513.17 126.524 513.276 126.685C513.386 126.846 513.476 127.018 513.552 127.195C513.626 127.375 513.68 127.561 513.718 127.752C513.757 127.943 513.776 128.134 513.776 128.328Z" fill="#FDC5B6"/>
<path d="M512.857 119.35C512.447 121.391 488.748 128.125 489.768 117.003C489.869 115.778 490.893 115.063 491.608 115.573C493.242 116.798 495.796 116.389 497.84 115.267C500.599 113.837 503.254 111.39 506.114 110.98C510.611 110.164 513.776 114.858 512.857 119.35Z" fill="#36314C"/>
<path d="M508.056 129.348C507.137 129.348 506.422 128.636 506.422 127.716V123.429C506.422 122.512 507.137 121.797 508.056 121.797C508.976 121.797 509.691 122.512 509.691 123.429V127.716C509.691 128.636 508.976 129.348 508.056 129.348Z" fill="#36314C"/>
<path d="M503.663 127.307C503.354 127.307 503.152 127.105 503.152 126.796C503.152 126.491 503.354 126.286 503.663 126.286C503.968 126.286 504.173 126.491 504.173 126.796C504.173 127.105 503.968 127.307 503.663 127.307Z" fill="#150077"/>
<path d="M501.515 132.715C501.414 132.715 501.414 132.715 501.313 132.715C500.495 132.614 500.085 132.003 499.984 131.899L500.394 131.594C500.394 131.594 500.699 132.104 501.313 132.104C501.824 132.104 502.334 131.899 502.844 131.389L503.253 131.798C502.639 132.41 502.028 132.715 501.515 132.715Z" fill="#35324C"/>
<path d="M502.435 130.674H500.189V125.776H500.7V130.063H502.435V130.674Z" fill="#15203D"/>
<path d="M497.94 126.9C497.634 126.9 497.43 126.696 497.43 126.39C497.43 126.085 497.634 125.88 497.94 125.88C498.246 125.88 498.45 126.085 498.45 126.39C498.45 126.696 498.246 126.9 497.94 126.9Z" fill="#150077"/>
</svg>
